%TF.GenerationSoftware,KiCad,Pcbnew,7.0.6*%
%TF.CreationDate,2023-09-07T16:15:18-04:00*%
%TF.ProjectId,Vault45_Alpha_FR4_Plate_Switch_Blocker_Cutouts,5661756c-7434-4355-9f41-6c7068615f46,rev?*%
%TF.SameCoordinates,PX1c63012PY7616bd0*%
%TF.FileFunction,Profile,NP*%
%FSLAX46Y46*%
G04 Gerber Fmt 4.6, Leading zero omitted, Abs format (unit mm)*
G04 Created by KiCad (PCBNEW 7.0.6) date 2023-09-07 16:15:18*
%MOMM*%
%LPD*%
G01*
G04 APERTURE LIST*
%TA.AperFunction,Profile*%
%ADD10C,0.090000*%
%TD*%
%ADD11C,0.090000*%
G04 APERTURE END LIST*
D10*
X116825000Y41149499D02*
X116825000Y54149499D01*
D11*
X117325000Y40649499D02*
X117224232Y40659658D01*
X117130377Y40688792D01*
X117045445Y40734891D01*
X116971446Y40795946D01*
X116910392Y40869944D01*
X116864292Y40954877D01*
X116835158Y41048732D01*
X116825000Y41149499D01*
D10*
X130325000Y40649499D02*
X117325000Y40649499D01*
D11*
X130825000Y41149499D02*
X130814841Y41048732D01*
X130785707Y40954877D01*
X130739607Y40869944D01*
X130678553Y40795946D01*
X130604554Y40734891D01*
X130519622Y40688792D01*
X130425767Y40659658D01*
X130325000Y40649499D01*
D10*
X130825000Y54149499D02*
X130825000Y41149499D01*
D11*
X130325000Y54649499D02*
X130425767Y54639341D01*
X130519622Y54610207D01*
X130604554Y54564107D01*
X130678553Y54503053D01*
X130739607Y54429054D01*
X130785707Y54344122D01*
X130814841Y54250267D01*
X130825000Y54149499D01*
D10*
X117325000Y54649499D02*
X130325000Y54649499D01*
D11*
X116825000Y54149499D02*
X116835158Y54250267D01*
X116864292Y54344122D01*
X116910392Y54429054D01*
X116971446Y54503053D01*
X117045445Y54564107D01*
X117130377Y54610207D01*
X117224232Y54639341D01*
X117325000Y54649499D01*
X130825000Y60199499D02*
X130814841Y60098732D01*
X130785707Y60004877D01*
X130739607Y59919944D01*
X130678553Y59845946D01*
X130604554Y59784891D01*
X130519622Y59738792D01*
X130425767Y59709658D01*
X130325000Y59699499D01*
D10*
X130825000Y73199499D02*
X130825000Y60199499D01*
D11*
X130325000Y73699499D02*
X130425767Y73689341D01*
X130519622Y73660207D01*
X130604554Y73614107D01*
X130678553Y73553053D01*
X130739607Y73479054D01*
X130785707Y73394122D01*
X130814841Y73300267D01*
X130825000Y73199499D01*
D10*
X117325000Y73699499D02*
X130325000Y73699499D01*
D11*
X116825000Y73199499D02*
X116835158Y73300267D01*
X116864292Y73394122D01*
X116910392Y73479054D01*
X116971446Y73553053D01*
X117045445Y73614107D01*
X117130377Y73660207D01*
X117224232Y73689341D01*
X117325000Y73699499D01*
D10*
X116825000Y60199499D02*
X116825000Y73199499D01*
D11*
X117325000Y59699499D02*
X117224232Y59709658D01*
X117130377Y59738792D01*
X117045445Y59784891D01*
X116971446Y59845946D01*
X116910392Y59919944D01*
X116864292Y60004877D01*
X116835158Y60098732D01*
X116825000Y60199499D01*
D10*
X130325000Y59699499D02*
X117325000Y59699499D01*
X114155648Y4018499D02*
X116825001Y4018499D01*
X114155647Y3048499D02*
X114155648Y4018499D01*
D11*
X113655647Y2548499D02*
X113756414Y2558658D01*
X113850269Y2587792D01*
X113935201Y2633891D01*
X114009200Y2694946D01*
X114070254Y2768944D01*
X114116354Y2853877D01*
X114145488Y2947732D01*
X114155647Y3048499D01*
D10*
X88750000Y2551326D02*
X113655647Y2548499D01*
D11*
X88250000Y3051326D02*
X88260158Y2950559D01*
X88289292Y2856704D01*
X88335392Y2771771D01*
X88396446Y2697773D01*
X88470445Y2636718D01*
X88555377Y2590619D01*
X88649232Y2561485D01*
X88750000Y2551326D01*
D10*
X88250000Y16048480D02*
X88250000Y3051326D01*
D11*
X88750000Y16548480D02*
X88649232Y16538322D01*
X88555377Y16509188D01*
X88470445Y16463088D01*
X88396446Y16402034D01*
X88335392Y16328035D01*
X88289292Y16243103D01*
X88260158Y16149248D01*
X88250000Y16048480D01*
D10*
X89500000Y16548498D02*
X88750000Y16548480D01*
X89500000Y17518499D02*
X89500000Y16548498D01*
D11*
X90000000Y18018499D02*
X89899232Y18008341D01*
X89805377Y17979207D01*
X89720445Y17933107D01*
X89646446Y17872053D01*
X89585392Y17798054D01*
X89539292Y17713122D01*
X89510158Y17619267D01*
X89500000Y17518499D01*
D10*
X98124000Y18018499D02*
X90000000Y18018499D01*
D11*
X98624000Y17518499D02*
X98613841Y17619267D01*
X98584707Y17713122D01*
X98538607Y17798054D01*
X98477553Y17872053D01*
X98403554Y17933107D01*
X98318622Y17979207D01*
X98224767Y18008341D01*
X98124000Y18018499D01*
D10*
X98624000Y16548498D02*
X98624000Y17518499D01*
X110924325Y16551329D02*
X98624000Y16548498D01*
X110924325Y17518499D02*
X110924325Y16551329D01*
D11*
X111424325Y18018499D02*
X111323557Y18008341D01*
X111229702Y17979207D01*
X111144770Y17933107D01*
X111070771Y17872053D01*
X111009717Y17798054D01*
X110963617Y17713122D01*
X110934483Y17619267D01*
X110924325Y17518499D01*
D10*
X119549047Y18018499D02*
X111424325Y18018499D01*
D11*
X120049047Y17518499D02*
X120038888Y17619267D01*
X120009754Y17713122D01*
X119963654Y17798054D01*
X119902600Y17872053D01*
X119828601Y17933107D01*
X119743669Y17979207D01*
X119649814Y18008341D01*
X119549047Y18018499D01*
D10*
X120049047Y16551329D02*
X120049047Y17518499D01*
X127600000Y16551329D02*
X120049047Y16551329D01*
X127600000Y17518499D02*
X127600000Y16551329D01*
D11*
X128100000Y18018499D02*
X127999232Y18008341D01*
X127905377Y17979207D01*
X127820445Y17933107D01*
X127746446Y17872053D01*
X127685392Y17798054D01*
X127639292Y17713122D01*
X127610158Y17619267D01*
X127600000Y17518499D01*
D10*
X136224000Y18018499D02*
X128100000Y18018499D01*
D11*
X136724000Y17518499D02*
X136713841Y17619267D01*
X136684707Y17713122D01*
X136638607Y17798054D01*
X136577553Y17872053D01*
X136503554Y17933107D01*
X136418622Y17979207D01*
X136324767Y18008341D01*
X136224000Y18018499D01*
D10*
X136724000Y16548498D02*
X136724000Y17518499D01*
X149023675Y16548498D02*
X136724000Y16548498D01*
X149023675Y17518499D02*
X149023675Y16548498D01*
D11*
X149523675Y18018499D02*
X149422907Y18008341D01*
X149329052Y17979207D01*
X149244120Y17933107D01*
X149170121Y17872053D01*
X149109067Y17798054D01*
X149062967Y17713122D01*
X149033833Y17619267D01*
X149023675Y17518499D01*
D10*
X157649847Y18018499D02*
X149523675Y18018499D01*
D11*
X158149847Y17518499D02*
X158139688Y17619267D01*
X158110554Y17713122D01*
X158064454Y17798054D01*
X158003400Y17872053D01*
X157929401Y17933107D01*
X157844469Y17979207D01*
X157750614Y18008341D01*
X157649847Y18018499D01*
D10*
X158149847Y16548499D02*
X158149847Y17518499D01*
X158900000Y16548499D02*
X158149847Y16548499D01*
D11*
X159400000Y16048499D02*
X159389841Y16149267D01*
X159360707Y16243122D01*
X159314607Y16328054D01*
X159253553Y16402053D01*
X159179554Y16463107D01*
X159094622Y16509207D01*
X159000767Y16538341D01*
X158900000Y16548499D01*
D10*
X159400000Y3048499D02*
X159400000Y16048499D01*
D11*
X158900000Y2548499D02*
X159000767Y2558658D01*
X159094622Y2587792D01*
X159179554Y2633891D01*
X159253553Y2694946D01*
X159314607Y2768944D01*
X159360707Y2853877D01*
X159389841Y2947732D01*
X159400000Y3048499D01*
D10*
X133994047Y2548499D02*
X158900000Y2548499D01*
D11*
X133494047Y3048499D02*
X133504205Y2947732D01*
X133533339Y2853877D01*
X133579438Y2768944D01*
X133640493Y2694946D01*
X133714491Y2633891D01*
X133799424Y2587792D01*
X133893279Y2558658D01*
X133994047Y2548499D01*
D10*
X133494046Y4018499D02*
X133494047Y3048499D01*
X130825002Y4018499D02*
X133494046Y4018499D01*
X130825000Y3051326D02*
X130825002Y4018499D01*
D11*
X130325000Y2551326D02*
X130425767Y2561485D01*
X130519622Y2590619D01*
X130604554Y2636718D01*
X130678553Y2697773D01*
X130739607Y2771771D01*
X130785707Y2856704D01*
X130814841Y2950559D01*
X130825000Y3051326D01*
D10*
X117325000Y2551326D02*
X130325000Y2551326D01*
D11*
X116825000Y3051326D02*
X116835158Y2950559D01*
X116864292Y2856704D01*
X116910392Y2771771D01*
X116971446Y2697773D01*
X117045445Y2636718D01*
X117130377Y2590619D01*
X117224232Y2561485D01*
X117325000Y2551326D01*
D10*
X116825001Y4018499D02*
X116825000Y3051326D01*
X229833010Y74023120D02*
G75*
G03*
X229833010Y74023120I-1250000J0D01*
G01*
D11*
X61268750Y16548499D02*
X61369517Y16538341D01*
X61463372Y16509207D01*
X61548304Y16463107D01*
X61622303Y16402053D01*
X61683357Y16328054D01*
X61729457Y16243122D01*
X61758591Y16149267D01*
X61768750Y16048499D01*
D10*
X48268750Y16548499D02*
X61268750Y16548499D01*
D11*
X47768750Y16048499D02*
X47778908Y16149267D01*
X47808042Y16243122D01*
X47854142Y16328054D01*
X47915196Y16402053D01*
X47989195Y16463107D01*
X48074127Y16509207D01*
X48167982Y16538341D01*
X48268750Y16548499D01*
D10*
X47768750Y3048499D02*
X47768750Y16048499D01*
D11*
X48268750Y2548499D02*
X48167982Y2558658D01*
X48074127Y2587792D01*
X47989195Y2633891D01*
X47915196Y2694946D01*
X47854142Y2768944D01*
X47808042Y2853877D01*
X47778908Y2947732D01*
X47768750Y3048499D01*
D10*
X61268750Y2548499D02*
X48268750Y2548499D01*
D11*
X61768750Y3048499D02*
X61758591Y2947732D01*
X61729457Y2853877D01*
X61683357Y2768944D01*
X61622303Y2694946D01*
X61548304Y2633891D01*
X61463372Y2587792D01*
X61369517Y2558658D01*
X61268750Y2548499D01*
D10*
X61768750Y16048499D02*
X61768750Y3048499D01*
D11*
X26337500Y16048499D02*
X26347658Y16149267D01*
X26376792Y16243122D01*
X26422892Y16328054D01*
X26483946Y16402053D01*
X26557945Y16463107D01*
X26642877Y16509207D01*
X26736732Y16538341D01*
X26837500Y16548499D01*
D10*
X26337500Y3048499D02*
X26337500Y16048499D01*
D11*
X26837500Y2548499D02*
X26736732Y2558658D01*
X26642877Y2587792D01*
X26557945Y2633891D01*
X26483946Y2694946D01*
X26422892Y2768944D01*
X26376792Y2853877D01*
X26347658Y2947732D01*
X26337500Y3048499D01*
D10*
X39837500Y2548499D02*
X26837500Y2548499D01*
D11*
X40337500Y3048499D02*
X40327341Y2947732D01*
X40298207Y2853877D01*
X40252107Y2768944D01*
X40191053Y2694946D01*
X40117054Y2633891D01*
X40032122Y2587792D01*
X39938267Y2558658D01*
X39837500Y2548499D01*
D10*
X40337500Y16048499D02*
X40337500Y3048499D01*
D11*
X39837500Y16548499D02*
X39938267Y16538341D01*
X40032122Y16509207D01*
X40117054Y16463107D01*
X40191053Y16402053D01*
X40252107Y16328054D01*
X40298207Y16243122D01*
X40327341Y16149267D01*
X40337500Y16048499D01*
D10*
X26837500Y16548499D02*
X39837500Y16548499D01*
X20298108Y74023025D02*
G75*
G03*
X20298108Y74023025I-1250000J0D01*
G01*
X45283052Y2223169D02*
G75*
G03*
X45283052Y2223169I-1250000J0D01*
G01*
D11*
X207312500Y16048499D02*
X207322658Y16149267D01*
X207351792Y16243122D01*
X207397892Y16328054D01*
X207458946Y16402053D01*
X207532945Y16463107D01*
X207617877Y16509207D01*
X207711732Y16538341D01*
X207812500Y16548499D01*
D10*
X207312500Y3048499D02*
X207312500Y16048499D01*
D11*
X207812500Y2548499D02*
X207711732Y2558658D01*
X207617877Y2587792D01*
X207532945Y2633891D01*
X207458946Y2694946D01*
X207397892Y2768944D01*
X207351792Y2853877D01*
X207322658Y2947732D01*
X207312500Y3048499D01*
D10*
X220812500Y2548499D02*
X207812500Y2548499D01*
D11*
X221312500Y3048499D02*
X221302341Y2947732D01*
X221273207Y2853877D01*
X221227107Y2768944D01*
X221166053Y2694946D01*
X221092054Y2633891D01*
X221007122Y2587792D01*
X220913267Y2558658D01*
X220812500Y2548499D01*
D10*
X221312500Y16048499D02*
X221312500Y3048499D01*
D11*
X220812500Y16548499D02*
X220913267Y16538341D01*
X221007122Y16509207D01*
X221092054Y16463107D01*
X221166053Y16402053D01*
X221227107Y16328054D01*
X221273207Y16243122D01*
X221302341Y16149267D01*
X221312500Y16048499D01*
D10*
X207812500Y16548499D02*
X220812500Y16548499D01*
X204843984Y2223222D02*
G75*
G03*
X204843984Y2223222I-1250000J0D01*
G01*
D11*
X185881250Y16048499D02*
X185891408Y16149267D01*
X185920542Y16243122D01*
X185966642Y16328054D01*
X186027696Y16402053D01*
X186101695Y16463107D01*
X186186627Y16509207D01*
X186280482Y16538341D01*
X186381250Y16548499D01*
D10*
X185881250Y3048499D02*
X185881250Y16048499D01*
D11*
X186381250Y2548499D02*
X186280482Y2558658D01*
X186186627Y2587792D01*
X186101695Y2633891D01*
X186027696Y2694946D01*
X185966642Y2768944D01*
X185920542Y2853877D01*
X185891408Y2947732D01*
X185881250Y3048499D01*
D10*
X199381250Y2548499D02*
X186381250Y2548499D01*
D11*
X199881250Y3048499D02*
X199871091Y2947732D01*
X199841957Y2853877D01*
X199795857Y2768944D01*
X199734803Y2694946D01*
X199660804Y2633891D01*
X199575872Y2587792D01*
X199482017Y2558658D01*
X199381250Y2548499D01*
D10*
X199881250Y16048499D02*
X199881250Y3048499D01*
D11*
X199381250Y16548499D02*
X199482017Y16538341D01*
X199575872Y16509207D01*
X199660804Y16463107D01*
X199734803Y16402053D01*
X199795857Y16328054D01*
X199841957Y16243122D01*
X199871091Y16149267D01*
X199881250Y16048499D01*
D10*
X186381250Y16548499D02*
X199381250Y16548499D01*
D11*
X0Y22073499D02*
X3903Y21919120D01*
X15488Y21766767D01*
X34566Y21616629D01*
X60949Y21468895D01*
X94447Y21323753D01*
X134874Y21181391D01*
X182039Y21041999D01*
X235754Y20905764D01*
X295832Y20772875D01*
X362083Y20643521D01*
X434320Y20517890D01*
X512352Y20396171D01*
X595993Y20278551D01*
X685054Y20165221D01*
X779345Y20056367D01*
X878679Y19952179D01*
X982867Y19852845D01*
X1091721Y19758553D01*
X1205052Y19669493D01*
X1322671Y19585852D01*
X1444390Y19507819D01*
X1570021Y19435583D01*
X1699376Y19369332D01*
X1832264Y19309254D01*
X1968499Y19255539D01*
X2107891Y19208373D01*
X2250253Y19167947D01*
X2395395Y19134449D01*
X2543129Y19108066D01*
X2693267Y19088988D01*
X2845620Y19077403D01*
X3000000Y19073499D01*
D10*
X0Y73223499D02*
X0Y22073499D01*
D11*
X3000000Y76223499D02*
X2845620Y76219596D01*
X2693267Y76208011D01*
X2543129Y76188933D01*
X2395395Y76162550D01*
X2250253Y76129052D01*
X2107891Y76088625D01*
X1968499Y76041460D01*
X1832264Y75987745D01*
X1699376Y75927667D01*
X1570021Y75861416D01*
X1444390Y75789179D01*
X1322671Y75711147D01*
X1205052Y75627506D01*
X1091721Y75538445D01*
X982867Y75444154D01*
X878679Y75344820D01*
X779345Y75240632D01*
X685054Y75131778D01*
X595993Y75018447D01*
X512352Y74900828D01*
X434320Y74779109D01*
X362083Y74653478D01*
X295832Y74524123D01*
X235754Y74391235D01*
X182039Y74255000D01*
X134874Y74115608D01*
X94447Y73973246D01*
X60949Y73828104D01*
X34566Y73680370D01*
X15488Y73530232D01*
X3903Y73377879D01*
X0Y73223499D01*
D10*
X244650000Y76223499D02*
X3000000Y76223499D01*
D11*
X247650000Y73223499D02*
X247646096Y73377879D01*
X247634511Y73530232D01*
X247615433Y73680370D01*
X247589050Y73828104D01*
X247555552Y73973246D01*
X247515125Y74115608D01*
X247467960Y74255000D01*
X247414245Y74391235D01*
X247354167Y74524123D01*
X247287916Y74653478D01*
X247215679Y74779109D01*
X247137647Y74900828D01*
X247054006Y75018447D01*
X246964945Y75131778D01*
X246870654Y75240632D01*
X246771320Y75344820D01*
X246667132Y75444154D01*
X246558278Y75538445D01*
X246444947Y75627506D01*
X246327328Y75711147D01*
X246205609Y75789179D01*
X246079978Y75861416D01*
X245950623Y75927667D01*
X245817735Y75987745D01*
X245681500Y76041460D01*
X245542108Y76088625D01*
X245399746Y76129052D01*
X245254604Y76162550D01*
X245106870Y76188933D01*
X244956732Y76208011D01*
X244804379Y76219596D01*
X244650000Y76223499D01*
D10*
X247650000Y22073499D02*
X247650000Y73223499D01*
D11*
X244650000Y19073499D02*
X244804379Y19077403D01*
X244956732Y19088988D01*
X245106870Y19108066D01*
X245254604Y19134449D01*
X245399746Y19167947D01*
X245542108Y19208373D01*
X245681500Y19255539D01*
X245817735Y19309254D01*
X245950623Y19369332D01*
X246079978Y19435583D01*
X246205609Y19507819D01*
X246327328Y19585852D01*
X246444947Y19669493D01*
X246558278Y19758553D01*
X246667132Y19852845D01*
X246771320Y19952179D01*
X246870654Y20056367D01*
X246964945Y20165221D01*
X247054006Y20278551D01*
X247137647Y20396171D01*
X247215679Y20517890D01*
X247287916Y20643521D01*
X247354167Y20772875D01*
X247414245Y20905764D01*
X247467960Y21041999D01*
X247515125Y21181391D01*
X247555552Y21323753D01*
X247589050Y21468895D01*
X247615433Y21616629D01*
X247634511Y21766767D01*
X247646096Y21919120D01*
X247650000Y22073499D01*
D10*
X225337500Y19073499D02*
X244650000Y19073499D01*
D11*
X223837500Y17573499D02*
X223845244Y17726866D01*
X223867974Y17875802D01*
X223904937Y18019554D01*
X223955377Y18157367D01*
X224018541Y18288489D01*
X224093676Y18412164D01*
X224180027Y18527639D01*
X224276839Y18634160D01*
X224383360Y18730972D01*
X224498835Y18817323D01*
X224622510Y18892458D01*
X224753632Y18955622D01*
X224891445Y19006062D01*
X225035197Y19043025D01*
X225184133Y19065755D01*
X225337500Y19073499D01*
D10*
X223837500Y3023499D02*
X223837500Y17573499D01*
D11*
X220837500Y23499D02*
X220991879Y27403D01*
X221144232Y38988D01*
X221294370Y58066D01*
X221442104Y84449D01*
X221587246Y117947D01*
X221729608Y158373D01*
X221869000Y205539D01*
X222005235Y259254D01*
X222138123Y319332D01*
X222267478Y385583D01*
X222393109Y457819D01*
X222514828Y535852D01*
X222632447Y619493D01*
X222745778Y708553D01*
X222854632Y802845D01*
X222958820Y902179D01*
X223058154Y1006367D01*
X223152445Y1115221D01*
X223241506Y1228551D01*
X223325147Y1346171D01*
X223403179Y1467890D01*
X223475416Y1593521D01*
X223541667Y1722875D01*
X223601745Y1855764D01*
X223655460Y1991999D01*
X223702625Y2131391D01*
X223743052Y2273753D01*
X223776550Y2418895D01*
X223802933Y2566629D01*
X223822011Y2716767D01*
X223833596Y2869120D01*
X223837500Y3023499D01*
D10*
X26812500Y23499D02*
X220837500Y23499D01*
D11*
X23812500Y3023499D02*
X23816403Y2869120D01*
X23827988Y2716767D01*
X23847066Y2566629D01*
X23873449Y2418895D01*
X23906947Y2273753D01*
X23947374Y2131391D01*
X23994539Y1991999D01*
X24048254Y1855764D01*
X24108332Y1722875D01*
X24174583Y1593521D01*
X24246820Y1467890D01*
X24324852Y1346171D01*
X24408493Y1228551D01*
X24497554Y1115221D01*
X24591845Y1006367D01*
X24691179Y902179D01*
X24795367Y802845D01*
X24904221Y708553D01*
X25017552Y619493D01*
X25135171Y535852D01*
X25256890Y457819D01*
X25382521Y385583D01*
X25511876Y319332D01*
X25644764Y259254D01*
X25780999Y205539D01*
X25920391Y158373D01*
X26062753Y117947D01*
X26207895Y84449D01*
X26355629Y58066D01*
X26505767Y38988D01*
X26658120Y27403D01*
X26812500Y23499D01*
D10*
X23812500Y17573499D02*
X23812500Y3023499D01*
D11*
X22312500Y19073499D02*
X22465866Y19065755D01*
X22614802Y19043025D01*
X22758554Y19006062D01*
X22896367Y18955622D01*
X23027489Y18892458D01*
X23151164Y18817323D01*
X23266639Y18730972D01*
X23373160Y18634160D01*
X23469972Y18527639D01*
X23556323Y18412164D01*
X23631458Y18288489D01*
X23694622Y18157367D01*
X23745062Y18019554D01*
X23782025Y17875802D01*
X23804755Y17726866D01*
X23812500Y17573499D01*
D10*
X3000000Y19073499D02*
X22312500Y19073499D01*
X174824000Y17518499D02*
X174823999Y16548499D01*
D11*
X174324000Y18018499D02*
X174424767Y18008341D01*
X174518622Y17979207D01*
X174603554Y17933107D01*
X174677553Y17872053D01*
X174738607Y17798054D01*
X174784707Y17713122D01*
X174813841Y17619267D01*
X174824000Y17518499D01*
D10*
X168574000Y18018499D02*
X174324000Y18018499D01*
D11*
X168074000Y17518499D02*
X168084158Y17619267D01*
X168113292Y17713122D01*
X168159392Y17798054D01*
X168220446Y17872053D01*
X168294445Y17933107D01*
X168379377Y17979207D01*
X168473232Y18008341D01*
X168574000Y18018499D01*
D10*
X168073999Y16548499D02*
X168074000Y17518499D01*
X162606000Y16548499D02*
X168073999Y16548499D01*
D11*
X162106000Y16048499D02*
X162116158Y16149267D01*
X162145292Y16243122D01*
X162191392Y16328054D01*
X162252446Y16402053D01*
X162326445Y16463107D01*
X162411377Y16509207D01*
X162505232Y16538341D01*
X162606000Y16548499D01*
D10*
X162106000Y3048499D02*
X162106000Y16048499D01*
D11*
X162606000Y2548499D02*
X162505232Y2558658D01*
X162411377Y2587792D01*
X162326445Y2633891D01*
X162252446Y2694946D01*
X162191392Y2768944D01*
X162145292Y2853877D01*
X162116158Y2947732D01*
X162106000Y3048499D01*
D10*
X177987000Y2548499D02*
X162606000Y2548499D01*
D11*
X178487000Y3048499D02*
X178476841Y2947732D01*
X178447707Y2853877D01*
X178401607Y2768944D01*
X178340553Y2694946D01*
X178266554Y2633891D01*
X178181622Y2587792D01*
X178087767Y2558658D01*
X177987000Y2548499D01*
D10*
X178487000Y16048499D02*
X178487000Y3048499D01*
D11*
X177987000Y16548499D02*
X178087767Y16538341D01*
X178181622Y16509207D01*
X178266554Y16463107D01*
X178340553Y16402053D01*
X178401607Y16328054D01*
X178447707Y16243122D01*
X178476841Y16149267D01*
X178487000Y16048499D01*
D10*
X174823999Y16548499D02*
X177987000Y16548499D01*
X79574000Y17518499D02*
X79573997Y16548499D01*
D11*
X79074000Y18018499D02*
X79174767Y18008341D01*
X79268622Y17979207D01*
X79353554Y17933107D01*
X79427553Y17872053D01*
X79488607Y17798054D01*
X79534707Y17713122D01*
X79563841Y17619267D01*
X79574000Y17518499D01*
D10*
X73324000Y18018499D02*
X79074000Y18018499D01*
D11*
X72824000Y17518499D02*
X72834158Y17619267D01*
X72863292Y17713122D01*
X72909392Y17798054D01*
X72970446Y17872053D01*
X73044445Y17933107D01*
X73129377Y17979207D01*
X73223232Y18008341D01*
X73324000Y18018499D01*
D10*
X72823999Y16548499D02*
X72824000Y17518499D01*
X69700000Y16548499D02*
X72823999Y16548499D01*
D11*
X69200000Y16048499D02*
X69210158Y16149267D01*
X69239292Y16243122D01*
X69285392Y16328054D01*
X69346446Y16402053D01*
X69420445Y16463107D01*
X69505377Y16509207D01*
X69599232Y16538341D01*
X69700000Y16548499D01*
D10*
X69200000Y3048499D02*
X69200000Y16048499D01*
D11*
X69700000Y2548499D02*
X69599232Y2558658D01*
X69505377Y2587792D01*
X69420445Y2633891D01*
X69346446Y2694946D01*
X69285392Y2768944D01*
X69239292Y2853877D01*
X69210158Y2947732D01*
X69200000Y3048499D01*
D10*
X85081000Y2548499D02*
X69700000Y2548499D01*
D11*
X85581000Y3048499D02*
X85570841Y2947732D01*
X85541707Y2853877D01*
X85495607Y2768944D01*
X85434553Y2694946D01*
X85360554Y2633891D01*
X85275622Y2587792D01*
X85181767Y2558658D01*
X85081000Y2548499D01*
D10*
X85581000Y16048499D02*
X85581000Y3048499D01*
D11*
X85081000Y16548499D02*
X85181767Y16538341D01*
X85275622Y16509207D01*
X85360554Y16463107D01*
X85434553Y16402053D01*
X85495607Y16328054D01*
X85541707Y16243122D01*
X85570841Y16149267D01*
X85581000Y16048499D01*
D10*
X79573997Y16548499D02*
X85081000Y16548499D01*
D11*
X239862500Y35599499D02*
X239963267Y35589341D01*
X240057122Y35560207D01*
X240142054Y35514108D01*
X240216053Y35453053D01*
X240277107Y35379055D01*
X240323207Y35294122D01*
X240352341Y35200267D01*
X240362500Y35099499D01*
D10*
X226862500Y35599499D02*
X239862500Y35599499D01*
D11*
X226362500Y35099499D02*
X226372658Y35200267D01*
X226401792Y35294122D01*
X226447892Y35379055D01*
X226508946Y35453053D01*
X226582945Y35514108D01*
X226667877Y35560207D01*
X226761732Y35589341D01*
X226862500Y35599499D01*
D10*
X226362500Y22099499D02*
X226362500Y35099499D01*
D11*
X226862500Y21599499D02*
X226761732Y21609658D01*
X226667877Y21638792D01*
X226582945Y21684892D01*
X226508946Y21745946D01*
X226447892Y21819945D01*
X226401792Y21904877D01*
X226372658Y21998732D01*
X226362500Y22099499D01*
D10*
X239862500Y21599499D02*
X226862500Y21599499D01*
D11*
X240362500Y22099499D02*
X240352341Y21998732D01*
X240323207Y21904877D01*
X240277107Y21819945D01*
X240216053Y21745946D01*
X240142054Y21684892D01*
X240057122Y21638792D01*
X239963267Y21609658D01*
X239862500Y21599499D01*
D10*
X240362500Y35099499D02*
X240362500Y22099499D01*
D11*
X20787500Y35599512D02*
X20888267Y35589354D01*
X20982122Y35560220D01*
X21067054Y35514121D01*
X21141053Y35453066D01*
X21202107Y35379068D01*
X21248207Y35294135D01*
X21277341Y35200280D01*
X21287500Y35099512D01*
D10*
X7787500Y35599512D02*
X20787500Y35599512D01*
D11*
X7287500Y35099512D02*
X7297658Y35200280D01*
X7326792Y35294135D01*
X7372892Y35379068D01*
X7433946Y35453066D01*
X7507945Y35514121D01*
X7592877Y35560220D01*
X7686732Y35589354D01*
X7787500Y35599512D01*
D10*
X7287500Y22099512D02*
X7287500Y35099512D01*
D11*
X7787500Y21599512D02*
X7686732Y21609671D01*
X7592877Y21638805D01*
X7507945Y21684905D01*
X7433946Y21745959D01*
X7372892Y21819958D01*
X7326792Y21904890D01*
X7297658Y21998745D01*
X7287500Y22099512D01*
D10*
X20787500Y21599512D02*
X7787500Y21599512D01*
D11*
X21287500Y22099512D02*
X21277341Y21998745D01*
X21248207Y21904890D01*
X21202107Y21819958D01*
X21141053Y21745959D01*
X21067054Y21684905D01*
X20982122Y21638805D01*
X20888267Y21609671D01*
X20787500Y21599512D01*
D10*
X21287500Y35099512D02*
X21287500Y22099512D01*
D11*
X58138165Y62223684D02*
X58128518Y62131563D01*
X58100682Y62042335D01*
X58056310Y61958895D01*
X57997055Y61884136D01*
X57924571Y61820953D01*
X57840511Y61772239D01*
X57746528Y61740889D01*
X57644278Y61729795D01*
D10*
X58138165Y65222295D02*
X58138165Y62223684D01*
D11*
X57644278Y65716185D02*
X57746528Y65706539D01*
X57840511Y65678703D01*
X57924571Y65634330D01*
X57997055Y65575074D01*
X58056310Y65502589D01*
X58100682Y65418529D01*
X58128518Y65324546D01*
X58138165Y65222295D01*
D10*
X56656499Y65716185D02*
X57644278Y65716185D01*
D11*
X56162613Y65222295D02*
X56172259Y65324546D01*
X56200095Y65418528D01*
X56244468Y65502589D01*
X56303724Y65575074D01*
X56376209Y65634330D01*
X56460269Y65678703D01*
X56554250Y65706539D01*
X56656499Y65716185D01*
D10*
X56162613Y62223684D02*
X56162613Y65222295D01*
D11*
X56656499Y61729795D02*
X56554248Y61739442D01*
X56460266Y61767278D01*
X56376206Y61811651D01*
X56303722Y61870906D01*
X56244467Y61943391D01*
X56200095Y62027452D01*
X56172259Y62121434D01*
X56162613Y62223684D01*
D10*
X57644278Y61729795D02*
X56656499Y61729795D01*
X183500460Y22099499D02*
X183500460Y35099499D01*
D11*
X184000460Y21599499D02*
X183899692Y21609658D01*
X183805837Y21638792D01*
X183720904Y21684892D01*
X183646906Y21745946D01*
X183585851Y21819945D01*
X183539752Y21904877D01*
X183510618Y21998732D01*
X183500460Y22099499D01*
D10*
X197000460Y21599499D02*
X184000460Y21599499D01*
D11*
X197500460Y22099499D02*
X197490301Y21998732D01*
X197461167Y21904877D01*
X197415067Y21819945D01*
X197354013Y21745946D01*
X197280014Y21684892D01*
X197195082Y21638792D01*
X197101227Y21609658D01*
X197000460Y21599499D01*
D10*
X197500460Y35099499D02*
X197500460Y22099499D01*
D11*
X197000460Y35599499D02*
X197101227Y35589341D01*
X197195082Y35560207D01*
X197280014Y35514108D01*
X197354013Y35453053D01*
X197415067Y35379055D01*
X197461167Y35294122D01*
X197490301Y35200267D01*
X197500460Y35099499D01*
D10*
X184000460Y35599499D02*
X197000460Y35599499D01*
D11*
X183500460Y35099499D02*
X183510618Y35200267D01*
X183539752Y35294122D01*
X183585851Y35379055D01*
X183646906Y35453053D01*
X183720904Y35514108D01*
X183805837Y35560207D01*
X183899692Y35589341D01*
X184000460Y35599499D01*
X203050460Y21599499D02*
X202949692Y21609658D01*
X202855837Y21638792D01*
X202770904Y21684892D01*
X202696906Y21745946D01*
X202635851Y21819945D01*
X202589752Y21904877D01*
X202560618Y21998732D01*
X202550460Y22099499D01*
D10*
X216050460Y21599499D02*
X203050460Y21599499D01*
D11*
X216550460Y22099499D02*
X216540301Y21998732D01*
X216511167Y21904877D01*
X216465067Y21819945D01*
X216404013Y21745946D01*
X216330014Y21684892D01*
X216245082Y21638792D01*
X216151227Y21609658D01*
X216050460Y21599499D01*
D10*
X216550460Y35099499D02*
X216550460Y22099499D01*
D11*
X216050460Y35599499D02*
X216151227Y35589341D01*
X216245082Y35560207D01*
X216330014Y35514108D01*
X216404013Y35453053D01*
X216465067Y35379055D01*
X216511167Y35294122D01*
X216540301Y35200267D01*
X216550460Y35099499D01*
D10*
X203050460Y35599499D02*
X216050460Y35599499D01*
D11*
X202550460Y35099499D02*
X202560618Y35200267D01*
X202589752Y35294122D01*
X202635851Y35379055D01*
X202696906Y35453053D01*
X202770904Y35514108D01*
X202855837Y35560207D01*
X202949692Y35589341D01*
X203050460Y35599499D01*
D10*
X202550460Y22099499D02*
X202550460Y35099499D01*
X177950460Y21599499D02*
X164950460Y21599499D01*
D11*
X178450460Y22099499D02*
X178440301Y21998732D01*
X178411167Y21904877D01*
X178365067Y21819945D01*
X178304013Y21745946D01*
X178230014Y21684892D01*
X178145082Y21638792D01*
X178051227Y21609658D01*
X177950460Y21599499D01*
D10*
X178450460Y35099499D02*
X178450460Y22099499D01*
D11*
X177950460Y35599499D02*
X178051227Y35589341D01*
X178145082Y35560207D01*
X178230014Y35514108D01*
X178304013Y35453053D01*
X178365067Y35379055D01*
X178411167Y35294122D01*
X178440301Y35200267D01*
X178450460Y35099499D01*
D10*
X164950460Y35599499D02*
X177950460Y35599499D01*
D11*
X164450460Y35099499D02*
X164460618Y35200267D01*
X164489752Y35294122D01*
X164535851Y35379055D01*
X164596906Y35453053D01*
X164670904Y35514108D01*
X164755837Y35560207D01*
X164849692Y35589341D01*
X164950460Y35599499D01*
D10*
X164450460Y22099499D02*
X164450460Y35099499D01*
D11*
X164950460Y21599499D02*
X164849692Y21609658D01*
X164755837Y21638792D01*
X164670904Y21684892D01*
X164596906Y21745946D01*
X164535851Y21819945D01*
X164489752Y21904877D01*
X164460618Y21998732D01*
X164450460Y22099499D01*
X145400460Y35099499D02*
X145410618Y35200267D01*
X145439752Y35294122D01*
X145485851Y35379055D01*
X145546906Y35453053D01*
X145620904Y35514108D01*
X145705837Y35560207D01*
X145799692Y35589341D01*
X145900460Y35599499D01*
D10*
X145400460Y22099499D02*
X145400460Y35099499D01*
D11*
X145900460Y21599499D02*
X145799692Y21609658D01*
X145705837Y21638792D01*
X145620904Y21684892D01*
X145546906Y21745946D01*
X145485851Y21819945D01*
X145439752Y21904877D01*
X145410618Y21998732D01*
X145400460Y22099499D01*
D10*
X158900460Y21599499D02*
X145900460Y21599499D01*
D11*
X159400460Y22099499D02*
X159390301Y21998732D01*
X159361167Y21904877D01*
X159315067Y21819945D01*
X159254013Y21745946D01*
X159180014Y21684892D01*
X159095082Y21638792D01*
X159001227Y21609658D01*
X158900460Y21599499D01*
D10*
X159400460Y35099499D02*
X159400460Y22099499D01*
D11*
X158900460Y35599499D02*
X159001227Y35589341D01*
X159095082Y35560207D01*
X159180014Y35514108D01*
X159254013Y35453053D01*
X159315067Y35379055D01*
X159361167Y35294122D01*
X159390301Y35200267D01*
X159400460Y35099499D01*
D10*
X145900460Y35599499D02*
X158900460Y35599499D01*
D11*
X126850460Y21599499D02*
X126749692Y21609658D01*
X126655837Y21638792D01*
X126570904Y21684892D01*
X126496906Y21745946D01*
X126435851Y21819945D01*
X126389752Y21904877D01*
X126360618Y21998732D01*
X126350460Y22099499D01*
D10*
X139850460Y21599499D02*
X126850460Y21599499D01*
D11*
X140350460Y22099499D02*
X140340301Y21998732D01*
X140311167Y21904877D01*
X140265067Y21819945D01*
X140204013Y21745946D01*
X140130014Y21684892D01*
X140045082Y21638792D01*
X139951227Y21609658D01*
X139850460Y21599499D01*
D10*
X140350460Y35099499D02*
X140350460Y22099499D01*
D11*
X139850460Y35599499D02*
X139951227Y35589341D01*
X140045082Y35560207D01*
X140130014Y35514108D01*
X140204013Y35453053D01*
X140265067Y35379055D01*
X140311167Y35294122D01*
X140340301Y35200267D01*
X140350460Y35099499D01*
D10*
X126850460Y35599499D02*
X139850460Y35599499D01*
D11*
X126350460Y35099499D02*
X126360618Y35200267D01*
X126389752Y35294122D01*
X126435851Y35379055D01*
X126496906Y35453053D01*
X126570904Y35514108D01*
X126655837Y35560207D01*
X126749692Y35589341D01*
X126850460Y35599499D01*
D10*
X126350460Y22099499D02*
X126350460Y35099499D01*
X50650460Y35599499D02*
X63650460Y35599499D01*
D11*
X50150460Y35099499D02*
X50160618Y35200267D01*
X50189752Y35294122D01*
X50235851Y35379055D01*
X50296906Y35453053D01*
X50370904Y35514108D01*
X50455837Y35560207D01*
X50549692Y35589341D01*
X50650460Y35599499D01*
D10*
X50150460Y22099499D02*
X50150460Y35099499D01*
D11*
X50650460Y21599499D02*
X50549692Y21609658D01*
X50455837Y21638792D01*
X50370904Y21684892D01*
X50296906Y21745946D01*
X50235851Y21819945D01*
X50189752Y21904877D01*
X50160618Y21998732D01*
X50150460Y22099499D01*
D10*
X63650460Y21599499D02*
X50650460Y21599499D01*
D11*
X64150460Y22099499D02*
X64140301Y21998732D01*
X64111167Y21904877D01*
X64065067Y21819945D01*
X64004013Y21745946D01*
X63930014Y21684892D01*
X63845082Y21638792D01*
X63751227Y21609658D01*
X63650460Y21599499D01*
D10*
X64150460Y35099499D02*
X64150460Y22099499D01*
D11*
X63650460Y35599499D02*
X63751227Y35589341D01*
X63845082Y35560207D01*
X63930014Y35514108D01*
X64004013Y35453053D01*
X64065067Y35379055D01*
X64111167Y35294122D01*
X64140301Y35200267D01*
X64150460Y35099499D01*
D10*
X83200460Y35099499D02*
X83200460Y22099499D01*
D11*
X82700460Y35599499D02*
X82801227Y35589341D01*
X82895082Y35560207D01*
X82980014Y35514108D01*
X83054013Y35453053D01*
X83115067Y35379055D01*
X83161167Y35294122D01*
X83190301Y35200267D01*
X83200460Y35099499D01*
D10*
X69700460Y35599499D02*
X82700460Y35599499D01*
D11*
X69200460Y35099499D02*
X69210618Y35200267D01*
X69239752Y35294122D01*
X69285851Y35379055D01*
X69346906Y35453053D01*
X69420904Y35514108D01*
X69505837Y35560207D01*
X69599692Y35589341D01*
X69700460Y35599499D01*
D10*
X69200460Y22099499D02*
X69200460Y35099499D01*
D11*
X69700460Y21599499D02*
X69599692Y21609658D01*
X69505837Y21638792D01*
X69420904Y21684892D01*
X69346906Y21745946D01*
X69285851Y21819945D01*
X69239752Y21904877D01*
X69210618Y21998732D01*
X69200460Y22099499D01*
D10*
X82700460Y21599499D02*
X69700460Y21599499D01*
D11*
X83200460Y22099499D02*
X83190301Y21998732D01*
X83161167Y21904877D01*
X83115067Y21819945D01*
X83054013Y21745946D01*
X82980014Y21684892D01*
X82895082Y21638792D01*
X82801227Y21609658D01*
X82700460Y21599499D01*
D10*
X120800460Y21599499D02*
X107800460Y21599499D01*
D11*
X121300460Y22099499D02*
X121290301Y21998732D01*
X121261167Y21904877D01*
X121215067Y21819945D01*
X121154013Y21745946D01*
X121080014Y21684892D01*
X120995082Y21638792D01*
X120901227Y21609658D01*
X120800460Y21599499D01*
D10*
X121300460Y35099499D02*
X121300460Y22099499D01*
D11*
X120800460Y35599499D02*
X120901227Y35589341D01*
X120995082Y35560207D01*
X121080014Y35514108D01*
X121154013Y35453053D01*
X121215067Y35379055D01*
X121261167Y35294122D01*
X121290301Y35200267D01*
X121300460Y35099499D01*
D10*
X107800460Y35599499D02*
X120800460Y35599499D01*
D11*
X107300460Y35099499D02*
X107310618Y35200267D01*
X107339752Y35294122D01*
X107385851Y35379055D01*
X107446906Y35453053D01*
X107520904Y35514108D01*
X107605837Y35560207D01*
X107699692Y35589341D01*
X107800460Y35599499D01*
D10*
X107300460Y22099499D02*
X107300460Y35099499D01*
D11*
X107800460Y21599499D02*
X107699692Y21609658D01*
X107605837Y21638792D01*
X107520904Y21684892D01*
X107446906Y21745946D01*
X107385851Y21819945D01*
X107339752Y21904877D01*
X107310618Y21998732D01*
X107300460Y22099499D01*
D10*
X102250460Y35099499D02*
X102250460Y22099499D01*
D11*
X101750460Y35599499D02*
X101851227Y35589341D01*
X101945082Y35560207D01*
X102030014Y35514108D01*
X102104013Y35453053D01*
X102165067Y35379055D01*
X102211167Y35294122D01*
X102240301Y35200267D01*
X102250460Y35099499D01*
D10*
X88750460Y35599499D02*
X101750460Y35599499D01*
D11*
X88250460Y35099499D02*
X88260618Y35200267D01*
X88289752Y35294122D01*
X88335851Y35379055D01*
X88396906Y35453053D01*
X88470904Y35514108D01*
X88555837Y35560207D01*
X88649692Y35589341D01*
X88750460Y35599499D01*
D10*
X88250460Y22099499D02*
X88250460Y35099499D01*
D11*
X88750460Y21599499D02*
X88649692Y21609658D01*
X88555837Y21638792D01*
X88470904Y21684892D01*
X88396906Y21745946D01*
X88335851Y21819945D01*
X88289752Y21904877D01*
X88260618Y21998732D01*
X88250460Y22099499D01*
D10*
X101750460Y21599499D02*
X88750460Y21599499D01*
D11*
X102250460Y22099499D02*
X102240301Y21998732D01*
X102211167Y21904877D01*
X102165067Y21819945D01*
X102104013Y21745946D01*
X102030014Y21684892D01*
X101945082Y21638792D01*
X101851227Y21609658D01*
X101750460Y21599499D01*
X212575389Y40649499D02*
X212474621Y40659658D01*
X212380766Y40688792D01*
X212295833Y40734891D01*
X212221835Y40795946D01*
X212160780Y40869944D01*
X212114681Y40954877D01*
X212085547Y41048732D01*
X212075389Y41149499D01*
D10*
X225575389Y40649499D02*
X212575389Y40649499D01*
D11*
X226075389Y41149499D02*
X226065230Y41048732D01*
X226036096Y40954877D01*
X225989996Y40869944D01*
X225928942Y40795946D01*
X225854943Y40734891D01*
X225770011Y40688792D01*
X225676156Y40659658D01*
X225575389Y40649499D01*
D10*
X226075389Y54149499D02*
X226075389Y41149499D01*
D11*
X225575389Y54649499D02*
X225676156Y54639341D01*
X225770011Y54610207D01*
X225854943Y54564107D01*
X225928942Y54503053D01*
X225989996Y54429054D01*
X226036096Y54344122D01*
X226065230Y54250267D01*
X226075389Y54149499D01*
D10*
X212575389Y54649499D02*
X225575389Y54649499D01*
D11*
X212075389Y54149499D02*
X212085547Y54250267D01*
X212114681Y54344122D01*
X212160780Y54429054D01*
X212221835Y54503053D01*
X212295833Y54564107D01*
X212380766Y54610207D01*
X212474621Y54639341D01*
X212575389Y54649499D01*
D10*
X212075389Y41149499D02*
X212075389Y54149499D01*
X187975389Y54149499D02*
X187975389Y41149499D01*
D11*
X187475389Y54649499D02*
X187576156Y54639341D01*
X187670011Y54610207D01*
X187754943Y54564107D01*
X187828942Y54503053D01*
X187889996Y54429054D01*
X187936096Y54344122D01*
X187965230Y54250267D01*
X187975389Y54149499D01*
D10*
X174475389Y54649499D02*
X187475389Y54649499D01*
D11*
X173975389Y54149499D02*
X173985547Y54250267D01*
X174014681Y54344122D01*
X174060780Y54429054D01*
X174121835Y54503053D01*
X174195833Y54564107D01*
X174280766Y54610207D01*
X174374621Y54639341D01*
X174475389Y54649499D01*
D10*
X173975389Y41149499D02*
X173975389Y54149499D01*
D11*
X174475389Y40649499D02*
X174374621Y40659658D01*
X174280766Y40688792D01*
X174195833Y40734891D01*
X174121835Y40795946D01*
X174060780Y40869944D01*
X174014681Y40954877D01*
X173985547Y41048732D01*
X173975389Y41149499D01*
D10*
X187475389Y40649499D02*
X174475389Y40649499D01*
D11*
X187975389Y41149499D02*
X187965230Y41048732D01*
X187936096Y40954877D01*
X187889996Y40869944D01*
X187828942Y40795946D01*
X187754943Y40734891D01*
X187670011Y40688792D01*
X187576156Y40659658D01*
X187475389Y40649499D01*
X168925389Y41149499D02*
X168915230Y41048732D01*
X168886096Y40954877D01*
X168839996Y40869944D01*
X168778942Y40795946D01*
X168704943Y40734891D01*
X168620011Y40688792D01*
X168526156Y40659658D01*
X168425389Y40649499D01*
D10*
X168925389Y54149499D02*
X168925389Y41149499D01*
D11*
X168425389Y54649499D02*
X168526156Y54639341D01*
X168620011Y54610207D01*
X168704943Y54564107D01*
X168778942Y54503053D01*
X168839996Y54429054D01*
X168886096Y54344122D01*
X168915230Y54250267D01*
X168925389Y54149499D01*
D10*
X155425389Y54649499D02*
X168425389Y54649499D01*
D11*
X154925389Y54149499D02*
X154935547Y54250267D01*
X154964681Y54344122D01*
X155010780Y54429054D01*
X155071835Y54503053D01*
X155145833Y54564107D01*
X155230766Y54610207D01*
X155324621Y54639341D01*
X155425389Y54649499D01*
D10*
X154925389Y41149499D02*
X154925389Y54149499D01*
D11*
X155425389Y40649499D02*
X155324621Y40659658D01*
X155230766Y40688792D01*
X155145833Y40734891D01*
X155071835Y40795946D01*
X155010780Y40869944D01*
X154964681Y40954877D01*
X154935547Y41048732D01*
X154925389Y41149499D01*
D10*
X168425389Y40649499D02*
X155425389Y40649499D01*
X244625389Y40649499D02*
X231625389Y40649499D01*
D11*
X245125389Y41149499D02*
X245115230Y41048732D01*
X245086096Y40954877D01*
X245039996Y40869944D01*
X244978942Y40795946D01*
X244904943Y40734891D01*
X244820011Y40688792D01*
X244726156Y40659658D01*
X244625389Y40649499D01*
D10*
X245125389Y54149499D02*
X245125389Y41149499D01*
D11*
X244625389Y54649499D02*
X244726156Y54639341D01*
X244820011Y54610207D01*
X244904943Y54564107D01*
X244978942Y54503053D01*
X245039996Y54429054D01*
X245086096Y54344122D01*
X245115230Y54250267D01*
X245125389Y54149499D01*
D10*
X231625389Y54649499D02*
X244625389Y54649499D01*
D11*
X231125389Y54149499D02*
X231135547Y54250267D01*
X231164681Y54344122D01*
X231210780Y54429054D01*
X231271835Y54503053D01*
X231345833Y54564107D01*
X231430766Y54610207D01*
X231524621Y54639341D01*
X231625389Y54649499D01*
D10*
X231125389Y41149499D02*
X231125389Y54149499D01*
D11*
X231625389Y40649499D02*
X231524621Y40659658D01*
X231430766Y40688792D01*
X231345833Y40734891D01*
X231271835Y40795946D01*
X231210780Y40869944D01*
X231164681Y40954877D01*
X231135547Y41048732D01*
X231125389Y41149499D01*
X206525389Y54649499D02*
X206626156Y54639341D01*
X206720011Y54610207D01*
X206804943Y54564107D01*
X206878942Y54503053D01*
X206939996Y54429054D01*
X206986096Y54344122D01*
X207015230Y54250267D01*
X207025389Y54149499D01*
D10*
X193525389Y54649499D02*
X206525389Y54649499D01*
D11*
X193025389Y54149499D02*
X193035547Y54250267D01*
X193064681Y54344122D01*
X193110780Y54429054D01*
X193171835Y54503053D01*
X193245833Y54564107D01*
X193330766Y54610207D01*
X193424621Y54639341D01*
X193525389Y54649499D01*
D10*
X193025389Y41149499D02*
X193025389Y54149499D01*
D11*
X193525389Y40649499D02*
X193424621Y40659658D01*
X193330766Y40688792D01*
X193245833Y40734891D01*
X193171835Y40795946D01*
X193110780Y40869944D01*
X193064681Y40954877D01*
X193035547Y41048732D01*
X193025389Y41149499D01*
D10*
X206525389Y40649499D02*
X193525389Y40649499D01*
D11*
X207025389Y41149499D02*
X207015230Y41048732D01*
X206986096Y40954877D01*
X206939996Y40869944D01*
X206878942Y40795946D01*
X206804943Y40734891D01*
X206720011Y40688792D01*
X206626156Y40659658D01*
X206525389Y40649499D01*
D10*
X207025389Y54149499D02*
X207025389Y41149499D01*
D11*
X44600460Y35599499D02*
X44701227Y35589341D01*
X44795082Y35560207D01*
X44880014Y35514108D01*
X44954013Y35453053D01*
X45015067Y35379055D01*
X45061167Y35294122D01*
X45090301Y35200267D01*
X45100460Y35099499D01*
D10*
X31600460Y35599499D02*
X44600460Y35599499D01*
D11*
X31100460Y35099499D02*
X31110618Y35200267D01*
X31139752Y35294122D01*
X31185851Y35379055D01*
X31246906Y35453053D01*
X31320904Y35514108D01*
X31405837Y35560207D01*
X31499692Y35589341D01*
X31600460Y35599499D01*
D10*
X31100460Y22099499D02*
X31100460Y35099499D01*
D11*
X31600460Y21599499D02*
X31499692Y21609658D01*
X31405837Y21638792D01*
X31320904Y21684892D01*
X31246906Y21745946D01*
X31185851Y21819945D01*
X31139752Y21904877D01*
X31110618Y21998732D01*
X31100460Y22099499D01*
D10*
X44600460Y21599499D02*
X31600460Y21599499D01*
D11*
X45100460Y22099499D02*
X45090301Y21998732D01*
X45061167Y21904877D01*
X45015067Y21819945D01*
X44954013Y21745946D01*
X44880014Y21684892D01*
X44795082Y21638792D01*
X44701227Y21609658D01*
X44600460Y21599499D01*
D10*
X45100460Y35099499D02*
X45100460Y22099499D01*
X135875389Y41149499D02*
X135875389Y54149499D01*
D11*
X136375389Y40649499D02*
X136274621Y40659658D01*
X136180766Y40688792D01*
X136095833Y40734891D01*
X136021835Y40795946D01*
X135960780Y40869944D01*
X135914681Y40954877D01*
X135885547Y41048732D01*
X135875389Y41149499D01*
D10*
X149375389Y40649499D02*
X136375389Y40649499D01*
D11*
X149875389Y41149499D02*
X149865230Y41048732D01*
X149836096Y40954877D01*
X149789996Y40869944D01*
X149728942Y40795946D01*
X149654943Y40734891D01*
X149570011Y40688792D01*
X149476156Y40659658D01*
X149375389Y40649499D01*
D10*
X149875389Y54149499D02*
X149875389Y41149499D01*
D11*
X149375389Y54649499D02*
X149476156Y54639341D01*
X149570011Y54610207D01*
X149654943Y54564107D01*
X149728942Y54503053D01*
X149789996Y54429054D01*
X149836096Y54344122D01*
X149865230Y54250267D01*
X149875389Y54149499D01*
D10*
X136375389Y54649499D02*
X149375389Y54649499D01*
D11*
X135875389Y54149499D02*
X135885547Y54250267D01*
X135914681Y54344122D01*
X135960780Y54429054D01*
X136021835Y54503053D01*
X136095833Y54564107D01*
X136180766Y54610207D01*
X136274621Y54639341D01*
X136375389Y54649499D01*
X73675389Y60199499D02*
X73665230Y60098732D01*
X73636096Y60004877D01*
X73589996Y59919944D01*
X73528942Y59845946D01*
X73454943Y59784891D01*
X73370011Y59738792D01*
X73276156Y59709658D01*
X73175389Y59699499D01*
D10*
X73675389Y73199499D02*
X73675389Y60199499D01*
D11*
X73175389Y73699499D02*
X73276156Y73689341D01*
X73370011Y73660207D01*
X73454943Y73614107D01*
X73528942Y73553053D01*
X73589996Y73479054D01*
X73636096Y73394122D01*
X73665230Y73300267D01*
X73675389Y73199499D01*
D10*
X60175389Y73699499D02*
X73175389Y73699499D01*
D11*
X59675389Y73199499D02*
X59685547Y73300267D01*
X59714681Y73394122D01*
X59760780Y73479054D01*
X59821835Y73553053D01*
X59895833Y73614107D01*
X59980766Y73660207D01*
X60074621Y73689341D01*
X60175389Y73699499D01*
D10*
X59675389Y60199499D02*
X59675389Y73199499D01*
D11*
X60175389Y59699499D02*
X60074621Y59709658D01*
X59980766Y59738792D01*
X59895833Y59784891D01*
X59821835Y59845946D01*
X59760780Y59919944D01*
X59714681Y60004877D01*
X59685547Y60098732D01*
X59675389Y60199499D01*
D10*
X73175389Y59699499D02*
X60175389Y59699499D01*
X54125389Y59699499D02*
X41125389Y59699499D01*
D11*
X54625389Y60199499D02*
X54615230Y60098732D01*
X54586096Y60004877D01*
X54539996Y59919944D01*
X54478942Y59845946D01*
X54404943Y59784891D01*
X54320011Y59738792D01*
X54226156Y59709658D01*
X54125389Y59699499D01*
D10*
X54625389Y73199499D02*
X54625389Y60199499D01*
D11*
X54125389Y73699499D02*
X54226156Y73689341D01*
X54320011Y73660207D01*
X54404943Y73614107D01*
X54478942Y73553053D01*
X54539996Y73479054D01*
X54586096Y73394122D01*
X54615230Y73300267D01*
X54625389Y73199499D01*
D10*
X41125389Y73699499D02*
X54125389Y73699499D01*
D11*
X40625389Y73199499D02*
X40635547Y73300267D01*
X40664681Y73394122D01*
X40710780Y73479054D01*
X40771835Y73553053D01*
X40845833Y73614107D01*
X40930766Y73660207D01*
X41024621Y73689341D01*
X41125389Y73699499D01*
D10*
X40625389Y60199499D02*
X40625389Y73199499D01*
D11*
X41125389Y59699499D02*
X41024621Y59709658D01*
X40930766Y59738792D01*
X40845833Y59784891D01*
X40771835Y59845946D01*
X40710780Y59919944D01*
X40664681Y60004877D01*
X40635547Y60098732D01*
X40625389Y60199499D01*
D10*
X35075389Y59699499D02*
X22075389Y59699499D01*
D11*
X35575389Y60199499D02*
X35565230Y60098732D01*
X35536096Y60004877D01*
X35489996Y59919944D01*
X35428942Y59845946D01*
X35354943Y59784891D01*
X35270011Y59738792D01*
X35176156Y59709658D01*
X35075389Y59699499D01*
D10*
X35575389Y73199499D02*
X35575389Y60199499D01*
D11*
X35075389Y73699499D02*
X35176156Y73689341D01*
X35270011Y73660207D01*
X35354943Y73614107D01*
X35428942Y73553053D01*
X35489996Y73479054D01*
X35536096Y73394122D01*
X35565230Y73300267D01*
X35575389Y73199499D01*
D10*
X22075389Y73699499D02*
X35075389Y73699499D01*
D11*
X21575389Y73199499D02*
X21585547Y73300267D01*
X21614681Y73394122D01*
X21660780Y73479054D01*
X21721835Y73553053D01*
X21795833Y73614107D01*
X21880766Y73660207D01*
X21974621Y73689341D01*
X22075389Y73699499D01*
D10*
X21575389Y60199499D02*
X21575389Y73199499D01*
D11*
X22075389Y59699499D02*
X21974621Y59709658D01*
X21880766Y59738792D01*
X21795833Y59784891D01*
X21721835Y59845946D01*
X21660780Y59919944D01*
X21614681Y60004877D01*
X21585547Y60098732D01*
X21575389Y60199499D01*
D10*
X16525389Y73199499D02*
X16525389Y60199499D01*
D11*
X16025389Y73699499D02*
X16126156Y73689341D01*
X16220011Y73660207D01*
X16304943Y73614107D01*
X16378942Y73553053D01*
X16439996Y73479054D01*
X16486096Y73394122D01*
X16515230Y73300267D01*
X16525389Y73199499D01*
D10*
X3025389Y73699499D02*
X16025389Y73699499D01*
D11*
X2525389Y73199499D02*
X2535547Y73300267D01*
X2564681Y73394122D01*
X2610780Y73479054D01*
X2671835Y73553053D01*
X2745833Y73614107D01*
X2830766Y73660207D01*
X2924621Y73689341D01*
X3025389Y73699499D01*
D10*
X2525389Y60199499D02*
X2525389Y73199499D01*
D11*
X3025389Y59699499D02*
X2924621Y59709658D01*
X2830766Y59738792D01*
X2745833Y59784891D01*
X2671835Y59845946D01*
X2610780Y59919944D01*
X2564681Y60004877D01*
X2535547Y60098732D01*
X2525389Y60199499D01*
D10*
X16025389Y59699499D02*
X3025389Y59699499D01*
D11*
X16525389Y60199499D02*
X16515230Y60098732D01*
X16486096Y60004877D01*
X16439996Y59919944D01*
X16378942Y59845946D01*
X16304943Y59784891D01*
X16220011Y59738792D01*
X16126156Y59709658D01*
X16025389Y59699499D01*
X212575389Y59699499D02*
X212474621Y59709658D01*
X212380766Y59738792D01*
X212295833Y59784891D01*
X212221835Y59845946D01*
X212160780Y59919944D01*
X212114681Y60004877D01*
X212085547Y60098732D01*
X212075389Y60199499D01*
D10*
X225575389Y59699499D02*
X212575389Y59699499D01*
D11*
X226075389Y60199499D02*
X226065230Y60098732D01*
X226036096Y60004877D01*
X225989996Y59919944D01*
X225928942Y59845946D01*
X225854943Y59784891D01*
X225770011Y59738792D01*
X225676156Y59709658D01*
X225575389Y59699499D01*
D10*
X226075389Y73199499D02*
X226075389Y60199499D01*
D11*
X225575389Y73699499D02*
X225676156Y73689341D01*
X225770011Y73660207D01*
X225854943Y73614107D01*
X225928942Y73553053D01*
X225989996Y73479054D01*
X226036096Y73394122D01*
X226065230Y73300267D01*
X226075389Y73199499D01*
D10*
X212575389Y73699499D02*
X225575389Y73699499D01*
D11*
X212075389Y73199499D02*
X212085547Y73300267D01*
X212114681Y73394122D01*
X212160780Y73479054D01*
X212221835Y73553053D01*
X212295833Y73614107D01*
X212380766Y73660207D01*
X212474621Y73689341D01*
X212575389Y73699499D01*
D10*
X212075389Y60199499D02*
X212075389Y73199499D01*
X22075389Y54649499D02*
X35075389Y54649499D01*
D11*
X21575389Y54149499D02*
X21585547Y54250267D01*
X21614681Y54344122D01*
X21660780Y54429054D01*
X21721835Y54503053D01*
X21795833Y54564107D01*
X21880766Y54610207D01*
X21974621Y54639341D01*
X22075389Y54649499D01*
D10*
X21575389Y41149499D02*
X21575389Y54149499D01*
D11*
X22075389Y40649499D02*
X21974621Y40659658D01*
X21880766Y40688792D01*
X21795833Y40734891D01*
X21721835Y40795946D01*
X21660780Y40869944D01*
X21614681Y40954877D01*
X21585547Y41048732D01*
X21575389Y41149499D01*
D10*
X35075389Y40649499D02*
X22075389Y40649499D01*
D11*
X35575389Y41149499D02*
X35565230Y41048732D01*
X35536096Y40954877D01*
X35489996Y40869944D01*
X35428942Y40795946D01*
X35354943Y40734891D01*
X35270011Y40688792D01*
X35176156Y40659658D01*
X35075389Y40649499D01*
D10*
X35575389Y54149499D02*
X35575389Y41149499D01*
D11*
X35075389Y54649499D02*
X35176156Y54639341D01*
X35270011Y54610207D01*
X35354943Y54564107D01*
X35428942Y54503053D01*
X35489996Y54429054D01*
X35536096Y54344122D01*
X35565230Y54250267D01*
X35575389Y54149499D01*
D10*
X231125389Y60199499D02*
X231125389Y73199499D01*
D11*
X231625389Y59699499D02*
X231524621Y59709658D01*
X231430766Y59738792D01*
X231345833Y59784891D01*
X231271835Y59845946D01*
X231210780Y59919944D01*
X231164681Y60004877D01*
X231135547Y60098732D01*
X231125389Y60199499D01*
D10*
X244625389Y59699499D02*
X231625389Y59699499D01*
D11*
X245125389Y60199499D02*
X245115230Y60098732D01*
X245086096Y60004877D01*
X245039996Y59919944D01*
X244978942Y59845946D01*
X244904943Y59784891D01*
X244820011Y59738792D01*
X244726156Y59709658D01*
X244625389Y59699499D01*
D10*
X245125389Y73199499D02*
X245125389Y60199499D01*
D11*
X244625389Y73699499D02*
X244726156Y73689341D01*
X244820011Y73660207D01*
X244904943Y73614107D01*
X244978942Y73553053D01*
X245039996Y73479054D01*
X245086096Y73394122D01*
X245115230Y73300267D01*
X245125389Y73199499D01*
D10*
X231625389Y73699499D02*
X244625389Y73699499D01*
D11*
X231125389Y73199499D02*
X231135547Y73300267D01*
X231164681Y73394122D01*
X231210780Y73479054D01*
X231271835Y73553053D01*
X231345833Y73614107D01*
X231430766Y73660207D01*
X231524621Y73689341D01*
X231625389Y73699499D01*
D10*
X16025389Y40649499D02*
X3025389Y40649499D01*
D11*
X16525389Y41149499D02*
X16515230Y41048732D01*
X16486096Y40954877D01*
X16439996Y40869944D01*
X16378942Y40795946D01*
X16304943Y40734891D01*
X16220011Y40688792D01*
X16126156Y40659658D01*
X16025389Y40649499D01*
D10*
X16525389Y54149499D02*
X16525389Y41149499D01*
D11*
X16025389Y54649499D02*
X16126156Y54639341D01*
X16220011Y54610207D01*
X16304943Y54564107D01*
X16378942Y54503053D01*
X16439996Y54429054D01*
X16486096Y54344122D01*
X16515230Y54250267D01*
X16525389Y54149499D01*
D10*
X3025389Y54649499D02*
X16025389Y54649499D01*
D11*
X2525389Y54149499D02*
X2535547Y54250267D01*
X2564681Y54344122D01*
X2610780Y54429054D01*
X2671835Y54503053D01*
X2745833Y54564107D01*
X2830766Y54610207D01*
X2924621Y54639341D01*
X3025389Y54649499D01*
D10*
X2525389Y41149499D02*
X2525389Y54149499D01*
D11*
X3025389Y40649499D02*
X2924621Y40659658D01*
X2830766Y40688792D01*
X2745833Y40734891D01*
X2671835Y40795946D01*
X2610780Y40869944D01*
X2564681Y40954877D01*
X2535547Y41048732D01*
X2525389Y41149499D01*
D10*
X59675389Y41149499D02*
X59675389Y54149499D01*
D11*
X60175389Y40649499D02*
X60074621Y40659658D01*
X59980766Y40688792D01*
X59895833Y40734891D01*
X59821835Y40795946D01*
X59760780Y40869944D01*
X59714681Y40954877D01*
X59685547Y41048732D01*
X59675389Y41149499D01*
D10*
X73175389Y40649499D02*
X60175389Y40649499D01*
D11*
X73675389Y41149499D02*
X73665230Y41048732D01*
X73636096Y40954877D01*
X73589996Y40869944D01*
X73528942Y40795946D01*
X73454943Y40734891D01*
X73370011Y40688792D01*
X73276156Y40659658D01*
X73175389Y40649499D01*
D10*
X73675389Y54149499D02*
X73675389Y41149499D01*
D11*
X73175389Y54649499D02*
X73276156Y54639341D01*
X73370011Y54610207D01*
X73454943Y54564107D01*
X73528942Y54503053D01*
X73589996Y54429054D01*
X73636096Y54344122D01*
X73665230Y54250267D01*
X73675389Y54149499D01*
D10*
X60175389Y54649499D02*
X73175389Y54649499D01*
D11*
X59675389Y54149499D02*
X59685547Y54250267D01*
X59714681Y54344122D01*
X59760780Y54429054D01*
X59821835Y54503053D01*
X59895833Y54564107D01*
X59980766Y54610207D01*
X60074621Y54639341D01*
X60175389Y54649499D01*
D10*
X97775389Y41149499D02*
X97775389Y54149499D01*
D11*
X98275389Y40649499D02*
X98174621Y40659658D01*
X98080766Y40688792D01*
X97995833Y40734891D01*
X97921835Y40795946D01*
X97860780Y40869944D01*
X97814681Y40954877D01*
X97785547Y41048732D01*
X97775389Y41149499D01*
D10*
X111275389Y40649499D02*
X98275389Y40649499D01*
D11*
X111775389Y41149499D02*
X111765230Y41048732D01*
X111736096Y40954877D01*
X111689996Y40869944D01*
X111628942Y40795946D01*
X111554943Y40734891D01*
X111470011Y40688792D01*
X111376156Y40659658D01*
X111275389Y40649499D01*
D10*
X111775389Y54149499D02*
X111775389Y41149499D01*
D11*
X111275389Y54649499D02*
X111376156Y54639341D01*
X111470011Y54610207D01*
X111554943Y54564107D01*
X111628942Y54503053D01*
X111689996Y54429054D01*
X111736096Y54344122D01*
X111765230Y54250267D01*
X111775389Y54149499D01*
D10*
X98275389Y54649499D02*
X111275389Y54649499D01*
D11*
X97775389Y54149499D02*
X97785547Y54250267D01*
X97814681Y54344122D01*
X97860780Y54429054D01*
X97921835Y54503053D01*
X97995833Y54564107D01*
X98080766Y54610207D01*
X98174621Y54639341D01*
X98275389Y54649499D01*
D10*
X92725389Y54149499D02*
X92725389Y41149499D01*
D11*
X92225389Y54649499D02*
X92326156Y54639341D01*
X92420011Y54610207D01*
X92504943Y54564107D01*
X92578942Y54503053D01*
X92639996Y54429054D01*
X92686096Y54344122D01*
X92715230Y54250267D01*
X92725389Y54149499D01*
D10*
X79225389Y54649499D02*
X92225389Y54649499D01*
D11*
X78725389Y54149499D02*
X78735547Y54250267D01*
X78764681Y54344122D01*
X78810780Y54429054D01*
X78871835Y54503053D01*
X78945833Y54564107D01*
X79030766Y54610207D01*
X79124621Y54639341D01*
X79225389Y54649499D01*
D10*
X78725389Y41149499D02*
X78725389Y54149499D01*
D11*
X79225389Y40649499D02*
X79124621Y40659658D01*
X79030766Y40688792D01*
X78945833Y40734891D01*
X78871835Y40795946D01*
X78810780Y40869944D01*
X78764681Y40954877D01*
X78735547Y41048732D01*
X78725389Y41149499D01*
D10*
X92225389Y40649499D02*
X79225389Y40649499D01*
D11*
X92725389Y41149499D02*
X92715230Y41048732D01*
X92686096Y40954877D01*
X92639996Y40869944D01*
X92578942Y40795946D01*
X92504943Y40734891D01*
X92420011Y40688792D01*
X92326156Y40659658D01*
X92225389Y40649499D01*
D10*
X40625389Y41149499D02*
X40625389Y54149499D01*
D11*
X41125389Y40649499D02*
X41024621Y40659658D01*
X40930766Y40688792D01*
X40845833Y40734891D01*
X40771835Y40795946D01*
X40710780Y40869944D01*
X40664681Y40954877D01*
X40635547Y41048732D01*
X40625389Y41149499D01*
D10*
X54125389Y40649499D02*
X41125389Y40649499D01*
D11*
X54625389Y41149499D02*
X54615230Y41048732D01*
X54586096Y40954877D01*
X54539996Y40869944D01*
X54478942Y40795946D01*
X54404943Y40734891D01*
X54320011Y40688792D01*
X54226156Y40659658D01*
X54125389Y40649499D01*
D10*
X54625389Y54149499D02*
X54625389Y41149499D01*
D11*
X54125389Y54649499D02*
X54226156Y54639341D01*
X54320011Y54610207D01*
X54404943Y54564107D01*
X54478942Y54503053D01*
X54539996Y54429054D01*
X54586096Y54344122D01*
X54615230Y54250267D01*
X54625389Y54149499D01*
D10*
X41125389Y54649499D02*
X54125389Y54649499D01*
D11*
X40625389Y54149499D02*
X40635547Y54250267D01*
X40664681Y54344122D01*
X40710780Y54429054D01*
X40771835Y54503053D01*
X40845833Y54564107D01*
X40930766Y54610207D01*
X41024621Y54639341D01*
X41125389Y54649499D01*
X149875389Y60199499D02*
X149865230Y60098732D01*
X149836096Y60004877D01*
X149789996Y59919944D01*
X149728942Y59845946D01*
X149654943Y59784891D01*
X149570011Y59738792D01*
X149476156Y59709658D01*
X149375389Y59699499D01*
D10*
X149875389Y73199499D02*
X149875389Y60199499D01*
D11*
X149375389Y73699499D02*
X149476156Y73689341D01*
X149570011Y73660207D01*
X149654943Y73614107D01*
X149728942Y73553053D01*
X149789996Y73479054D01*
X149836096Y73394122D01*
X149865230Y73300267D01*
X149875389Y73199499D01*
D10*
X136375389Y73699499D02*
X149375389Y73699499D01*
D11*
X135875389Y73199499D02*
X135885547Y73300267D01*
X135914681Y73394122D01*
X135960780Y73479054D01*
X136021835Y73553053D01*
X136095833Y73614107D01*
X136180766Y73660207D01*
X136274621Y73689341D01*
X136375389Y73699499D01*
D10*
X135875389Y60199499D02*
X135875389Y73199499D01*
D11*
X136375389Y59699499D02*
X136274621Y59709658D01*
X136180766Y59738792D01*
X136095833Y59784891D01*
X136021835Y59845946D01*
X135960780Y59919944D01*
X135914681Y60004877D01*
X135885547Y60098732D01*
X135875389Y60199499D01*
D10*
X149375389Y59699499D02*
X136375389Y59699499D01*
X193525389Y73699499D02*
X206525389Y73699499D01*
D11*
X193025389Y73199499D02*
X193035547Y73300267D01*
X193064681Y73394122D01*
X193110780Y73479054D01*
X193171835Y73553053D01*
X193245833Y73614107D01*
X193330766Y73660207D01*
X193424621Y73689341D01*
X193525389Y73699499D01*
D10*
X193025389Y60199499D02*
X193025389Y73199499D01*
D11*
X193525389Y59699499D02*
X193424621Y59709658D01*
X193330766Y59738792D01*
X193245833Y59784891D01*
X193171835Y59845946D01*
X193110780Y59919944D01*
X193064681Y60004877D01*
X193035547Y60098732D01*
X193025389Y60199499D01*
D10*
X206525389Y59699499D02*
X193525389Y59699499D01*
D11*
X207025389Y60199499D02*
X207015230Y60098732D01*
X206986096Y60004877D01*
X206939996Y59919944D01*
X206878942Y59845946D01*
X206804943Y59784891D01*
X206720011Y59738792D01*
X206626156Y59709658D01*
X206525389Y59699499D01*
D10*
X207025389Y73199499D02*
X207025389Y60199499D01*
D11*
X206525389Y73699499D02*
X206626156Y73689341D01*
X206720011Y73660207D01*
X206804943Y73614107D01*
X206878942Y73553053D01*
X206939996Y73479054D01*
X206986096Y73394122D01*
X207015230Y73300267D01*
X207025389Y73199499D01*
D10*
X174475389Y73699499D02*
X187475389Y73699499D01*
D11*
X173975389Y73199499D02*
X173985547Y73300267D01*
X174014681Y73394122D01*
X174060780Y73479054D01*
X174121835Y73553053D01*
X174195833Y73614107D01*
X174280766Y73660207D01*
X174374621Y73689341D01*
X174475389Y73699499D01*
D10*
X173975389Y60199499D02*
X173975389Y73199499D01*
D11*
X174475389Y59699499D02*
X174374621Y59709658D01*
X174280766Y59738792D01*
X174195833Y59784891D01*
X174121835Y59845946D01*
X174060780Y59919944D01*
X174014681Y60004877D01*
X173985547Y60098732D01*
X173975389Y60199499D01*
D10*
X187475389Y59699499D02*
X174475389Y59699499D01*
D11*
X187975389Y60199499D02*
X187965230Y60098732D01*
X187936096Y60004877D01*
X187889996Y59919944D01*
X187828942Y59845946D01*
X187754943Y59784891D01*
X187670011Y59738792D01*
X187576156Y59709658D01*
X187475389Y59699499D01*
D10*
X187975389Y73199499D02*
X187975389Y60199499D01*
D11*
X187475389Y73699499D02*
X187576156Y73689341D01*
X187670011Y73660207D01*
X187754943Y73614107D01*
X187828942Y73553053D01*
X187889996Y73479054D01*
X187936096Y73394122D01*
X187965230Y73300267D01*
X187975389Y73199499D01*
D10*
X154925389Y60199499D02*
X154925389Y73199499D01*
D11*
X155425389Y59699499D02*
X155324621Y59709658D01*
X155230766Y59738792D01*
X155145833Y59784891D01*
X155071835Y59845946D01*
X155010780Y59919944D01*
X154964681Y60004877D01*
X154935547Y60098732D01*
X154925389Y60199499D01*
D10*
X168425389Y59699499D02*
X155425389Y59699499D01*
D11*
X168925389Y60199499D02*
X168915230Y60098732D01*
X168886096Y60004877D01*
X168839996Y59919944D01*
X168778942Y59845946D01*
X168704943Y59784891D01*
X168620011Y59738792D01*
X168526156Y59709658D01*
X168425389Y59699499D01*
D10*
X168925389Y73199499D02*
X168925389Y60199499D01*
D11*
X168425389Y73699499D02*
X168526156Y73689341D01*
X168620011Y73660207D01*
X168704943Y73614107D01*
X168778942Y73553053D01*
X168839996Y73479054D01*
X168886096Y73394122D01*
X168915230Y73300267D01*
X168925389Y73199499D01*
D10*
X155425389Y73699499D02*
X168425389Y73699499D01*
D11*
X154925389Y73199499D02*
X154935547Y73300267D01*
X154964681Y73394122D01*
X155010780Y73479054D01*
X155071835Y73553053D01*
X155145833Y73614107D01*
X155230766Y73660207D01*
X155324621Y73689341D01*
X155425389Y73699499D01*
D10*
X111275389Y59699499D02*
X98275389Y59699499D01*
D11*
X111775389Y60199499D02*
X111765230Y60098732D01*
X111736096Y60004877D01*
X111689996Y59919944D01*
X111628942Y59845946D01*
X111554943Y59784891D01*
X111470011Y59738792D01*
X111376156Y59709658D01*
X111275389Y59699499D01*
D10*
X111775389Y73199499D02*
X111775389Y60199499D01*
D11*
X111275389Y73699499D02*
X111376156Y73689341D01*
X111470011Y73660207D01*
X111554943Y73614107D01*
X111628942Y73553053D01*
X111689996Y73479054D01*
X111736096Y73394122D01*
X111765230Y73300267D01*
X111775389Y73199499D01*
D10*
X98275389Y73699499D02*
X111275389Y73699499D01*
D11*
X97775389Y73199499D02*
X97785547Y73300267D01*
X97814681Y73394122D01*
X97860780Y73479054D01*
X97921835Y73553053D01*
X97995833Y73614107D01*
X98080766Y73660207D01*
X98174621Y73689341D01*
X98275389Y73699499D01*
D10*
X97775389Y60199499D02*
X97775389Y73199499D01*
D11*
X98275389Y59699499D02*
X98174621Y59709658D01*
X98080766Y59738792D01*
X97995833Y59784891D01*
X97921835Y59845946D01*
X97860780Y59919944D01*
X97814681Y60004877D01*
X97785547Y60098732D01*
X97775389Y60199499D01*
D10*
X78725389Y60199499D02*
X78725389Y73199499D01*
D11*
X79225389Y59699499D02*
X79124621Y59709658D01*
X79030766Y59738792D01*
X78945833Y59784891D01*
X78871835Y59845946D01*
X78810780Y59919944D01*
X78764681Y60004877D01*
X78735547Y60098732D01*
X78725389Y60199499D01*
D10*
X92225389Y59699499D02*
X79225389Y59699499D01*
D11*
X92725389Y60199499D02*
X92715230Y60098732D01*
X92686096Y60004877D01*
X92639996Y59919944D01*
X92578942Y59845946D01*
X92504943Y59784891D01*
X92420011Y59738792D01*
X92326156Y59709658D01*
X92225389Y59699499D01*
D10*
X92725389Y73199499D02*
X92725389Y60199499D01*
D11*
X92225389Y73699499D02*
X92326156Y73689341D01*
X92420011Y73660207D01*
X92504943Y73614107D01*
X92578942Y73553053D01*
X92639996Y73479054D01*
X92686096Y73394122D01*
X92715230Y73300267D01*
X92725389Y73199499D01*
D10*
X79225389Y73699499D02*
X92225389Y73699499D01*
D11*
X78725389Y73199499D02*
X78735547Y73300267D01*
X78764681Y73394122D01*
X78810780Y73479054D01*
X78871835Y73553053D01*
X78945833Y73614107D01*
X79030766Y73660207D01*
X79124621Y73689341D01*
X79225389Y73699499D01*
M02*
