M48
; DRILL file {KiCad 7.0.6} date Sat Sep  2 22:40:46 2023
; FORMAT={-:-/ absolute / metric / decimal}
; #@! TF.CreationDate,2023-09-02T22:40:46-04:00
; #@! TF.GenerationSoftware,Kicad,Pcbnew,7.0.6
; #@! TF.FileFunction,NonPlated,1,2,NPTH
FMAT,2
METRIC
; #@! TA.AperFunction,NonPlated,NPTH,ComponentDrill
T1C0.650
; #@! TA.AperFunction,NonPlated,NPTH,ComponentDrill
T2C1.500
; #@! TA.AperFunction,NonPlated,NPTH,ComponentDrill
T3C1.750
; #@! TA.AperFunction,NonPlated,NPTH,ComponentDrill
T4C3.048
; #@! TA.AperFunction,NonPlated,NPTH,ComponentDrill
T5C3.988
%
G90
G05
T1
X35.21Y71.736
X40.99Y71.736
T3
X4.445Y66.675
X4.445Y47.625
X9.207Y28.575
X14.605Y66.675
X14.605Y47.625
X19.367Y28.575
X23.495Y66.675
X23.495Y47.625
X28.258Y9.525
X33.02Y28.575
X33.655Y66.675
X33.655Y47.625
X38.417Y9.525
X42.545Y66.675
X42.545Y47.625
X43.18Y28.575
X49.689Y9.525
X52.07Y28.575
X52.705Y66.675
X52.705Y47.625
X59.849Y9.525
X61.595Y66.675
X61.595Y47.625
X62.23Y28.575
X71.12Y28.575
X71.12Y9.525
X71.755Y66.675
X71.755Y47.625
X73.501Y9.525
X80.645Y66.675
X80.645Y47.625
X81.28Y28.575
X81.28Y9.525
X83.661Y9.525
X90.17Y28.575
X90.17Y9.525
X90.805Y66.675
X90.805Y47.625
X99.695Y66.675
X99.695Y47.625
X99.695Y9.525
X100.33Y28.575
X100.33Y9.525
X102.076Y9.525
X109.22Y28.575
X109.855Y66.675
X109.855Y47.625
X109.855Y9.525
X112.236Y9.525
X118.745Y9.525
X119.38Y28.575
X128.27Y28.575
X128.905Y9.525
X135.414Y9.525
X137.795Y66.675
X137.795Y47.625
X137.795Y9.525
X138.43Y28.575
X145.574Y9.525
X147.32Y28.575
X147.32Y9.525
X147.955Y66.675
X147.955Y47.625
X147.955Y9.525
X156.845Y66.675
X156.845Y47.625
X157.48Y28.575
X157.48Y9.525
X163.989Y9.525
X166.37Y28.575
X166.37Y9.525
X167.005Y66.675
X167.005Y47.625
X174.149Y9.525
X175.895Y66.675
X175.895Y47.625
X176.53Y28.575
X176.53Y9.525
X185.42Y28.575
X186.055Y66.675
X186.055Y47.625
X187.801Y9.525
X194.945Y66.675
X194.945Y47.625
X195.58Y28.575
X197.961Y9.525
X204.47Y28.575
X205.105Y66.675
X205.105Y47.625
X209.233Y9.525
X213.995Y66.675
X213.995Y47.625
X214.63Y28.575
X219.393Y9.525
X224.155Y66.675
X224.155Y47.625
X228.282Y28.575
X233.045Y66.675
X233.045Y47.625
X238.442Y28.575
X243.205Y66.675
X243.205Y47.625
T4
X76.2Y2.54
X92.869Y2.54
X95.25Y2.54
X114.3Y2.54
X116.681Y2.54
X130.969Y2.54
X133.35Y2.54
X152.4Y2.54
X154.781Y2.54
X171.45Y2.54
T5
X9.525Y66.675
X9.525Y47.625
X14.287Y28.575
X28.575Y66.675
X28.575Y47.625
X33.337Y9.525
X38.1Y28.575
X47.625Y66.675
X47.625Y47.625
X54.769Y9.525
X57.15Y28.575
X66.675Y66.675
X66.675Y47.625
X76.2Y28.575
X76.2Y9.525
X76.2Y17.78
X78.581Y9.525
X85.725Y66.675
X85.725Y47.625
X92.869Y17.78
X95.25Y28.575
X95.25Y9.525
X95.25Y17.78
X104.775Y66.675
X104.775Y47.625
X104.775Y9.525
X107.156Y9.525
X114.3Y28.575
X114.3Y17.78
X116.681Y17.78
X123.825Y9.525
X130.969Y17.78
X133.35Y28.575
X133.35Y17.78
X140.494Y9.525
X142.875Y66.675
X142.875Y47.625
X142.875Y9.525
X152.4Y28.575
X152.4Y17.78
X152.4Y9.525
X154.781Y17.78
X161.925Y66.675
X161.925Y47.625
X169.069Y9.525
X171.45Y28.575
X171.45Y17.78
X171.45Y9.525
X180.975Y66.675
X180.975Y47.625
X190.5Y28.575
X192.881Y9.525
X200.025Y66.675
X200.025Y47.625
X209.55Y28.575
X214.313Y9.525
X219.075Y66.675
X219.075Y47.625
X233.362Y28.575
X238.125Y66.675
X238.125Y47.625
T2
G00X132.7Y22.975
M15
G01X134.0Y22.975
M16
G05
G00X132.737Y34.175
M15
G01X134.037Y34.175
M16
G05
T0
M30
