%TF.GenerationSoftware,KiCad,Pcbnew,7.0.6*%
%TF.CreationDate,2023-09-02T22:40:38-04:00*%
%TF.ProjectId,Vault45_alpha,5661756c-7434-4355-9f61-6c7068612e6b,rev?*%
%TF.SameCoordinates,PX18faf56PY663131a*%
%TF.FileFunction,Other,User*%
%FSLAX46Y46*%
G04 Gerber Fmt 4.6, Leading zero omitted, Abs format (unit mm)*
G04 Created by KiCad (PCBNEW 7.0.6) date 2023-09-02 22:40:38*
%MOMM*%
%LPD*%
G01*
G04 APERTURE LIST*
%ADD10C,0.050000*%
G04 APERTURE END LIST*
D10*
X61400630Y25430980D02*
X59100630Y25430980D01*
X61400630Y25430980D02*
X61400630Y30130980D01*
X59100630Y30130980D02*
X59100630Y25430980D01*
X61400630Y30130980D02*
X59100630Y30130980D01*
X113343259Y58453477D02*
X113343259Y56553477D01*
X113343259Y56553477D02*
X117043259Y56553477D01*
X117043259Y58453477D02*
X113343259Y58453477D01*
X117043259Y56553477D02*
X117043259Y58453477D01*
X127431245Y67028283D02*
X123471447Y63068485D01*
X124178553Y70280975D02*
X127431245Y67028283D01*
X123471447Y63068485D02*
X120218755Y66321177D01*
X120218755Y66321177D02*
X124178553Y70280975D01*
X44263910Y71450201D02*
X46223910Y71450201D01*
X46223910Y71450201D02*
X46223910Y75210201D01*
X44263910Y75210201D02*
X44263910Y71450201D01*
X46223910Y75210201D02*
X44263910Y75210201D01*
X80451418Y25430980D02*
X78151418Y25430980D01*
X80451418Y25430980D02*
X80451418Y30130980D01*
X78151418Y30130980D02*
X78151418Y25430980D01*
X80451418Y30130980D02*
X78151418Y30130980D01*
X161884532Y6380980D02*
X159584532Y6380980D01*
X161884532Y6380980D02*
X161884532Y11080980D01*
X159584532Y11080980D02*
X159584532Y6380980D01*
X161884532Y11080980D02*
X159584532Y11080980D01*
X242376512Y44480980D02*
X240076512Y44480980D01*
X242376512Y44480980D02*
X242376512Y49180980D01*
X240076512Y49180980D02*
X240076512Y44480980D01*
X242376512Y49180980D02*
X240076512Y49180980D01*
X166176512Y44480980D02*
X163876512Y44480980D01*
X166176512Y44480980D02*
X166176512Y49180980D01*
X163876512Y49180980D02*
X163876512Y44480980D01*
X166176512Y49180980D02*
X163876512Y49180980D01*
X51868439Y44480980D02*
X49568439Y44480980D01*
X51868439Y44480980D02*
X51868439Y49180980D01*
X49568439Y49180980D02*
X49568439Y44480980D01*
X51868439Y49180980D02*
X49568439Y49180980D01*
X242376512Y63530980D02*
X240076512Y63530980D01*
X242376512Y63530980D02*
X242376512Y68230980D01*
X240076512Y68230980D02*
X240076512Y63530980D01*
X242376512Y68230980D02*
X240076512Y68230980D01*
X128074918Y6380980D02*
X125774918Y6380980D01*
X128074918Y6380980D02*
X128074918Y11080980D01*
X125774918Y11080980D02*
X125774918Y6380980D01*
X128074918Y11080980D02*
X125774918Y11080980D01*
X180934548Y6380980D02*
X178634548Y6380980D01*
X180934548Y6380980D02*
X180934548Y11080980D01*
X178634548Y11080980D02*
X178634548Y6380980D01*
X180934548Y11080980D02*
X178634548Y11080980D01*
X118526250Y53367230D02*
X118526250Y51407230D01*
X118526250Y51407230D02*
X122286250Y51407230D01*
X122286250Y53367230D02*
X118526250Y53367230D01*
X122286250Y51407230D02*
X122286250Y53367230D01*
X131773791Y53607395D02*
X131773791Y55507395D01*
X131773791Y55507395D02*
X128073791Y55507395D01*
X128073791Y53607395D02*
X131773791Y53607395D01*
X128073791Y55507395D02*
X128073791Y53607395D01*
X223326512Y44480980D02*
X221026512Y44480980D01*
X223326512Y44480980D02*
X223326512Y49180980D01*
X221026512Y49180980D02*
X221026512Y44480980D01*
X223326512Y49180980D02*
X221026512Y49180980D01*
X119705000Y61904908D02*
X127945000Y61904908D01*
X119705000Y53664908D02*
X119705000Y61904908D01*
X127945000Y61904908D02*
X127945000Y53664908D01*
X127945000Y53664908D02*
X119705000Y53664908D01*
X42349842Y25430980D02*
X40049842Y25430980D01*
X42349842Y25430980D02*
X42349842Y30130980D01*
X40049842Y30130980D02*
X40049842Y25430980D01*
X42349842Y30130980D02*
X40049842Y30130980D01*
X237489216Y25430980D02*
X235189216Y25430980D01*
X237489216Y25430980D02*
X237489216Y30130980D01*
X235189216Y30130980D02*
X235189216Y25430980D01*
X237489216Y30130980D02*
X235189216Y30130980D01*
X60000000Y67948221D02*
X60000000Y59448221D01*
X54300000Y67948221D02*
X60000000Y67948221D01*
X60000000Y59448221D02*
X54300000Y59448221D01*
X54300000Y59448221D02*
X54300000Y67948221D01*
X119421425Y68419584D02*
X120807354Y67033655D01*
X120807354Y67033655D02*
X123466075Y69692376D01*
X122080146Y71078305D02*
X119421425Y68419584D01*
X123466075Y69692376D02*
X122080146Y71078305D01*
X32819135Y63530980D02*
X30519135Y63530980D01*
X32819135Y63530980D02*
X32819135Y68230980D01*
X30519135Y68230980D02*
X30519135Y63530980D01*
X32819135Y68230980D02*
X30519135Y68230980D01*
X117073259Y58550980D02*
X117073259Y60510980D01*
X117073259Y60510980D02*
X113313259Y60510980D01*
X113313259Y58550980D02*
X117073259Y58550980D01*
X113313259Y60510980D02*
X113313259Y58550980D01*
X13769831Y44480980D02*
X11469831Y44480980D01*
X13769831Y44480980D02*
X13769831Y49180980D01*
X11469831Y49180980D02*
X11469831Y44480980D01*
X13769831Y49180980D02*
X11469831Y49180980D01*
X48575160Y75180201D02*
X46675160Y75180201D01*
X46675160Y75180201D02*
X46675160Y71480201D01*
X48575160Y71480201D02*
X48575160Y75180201D01*
X46675160Y71480201D02*
X48575160Y71480201D01*
X197131226Y6380980D02*
X194831226Y6380980D01*
X197131226Y6380980D02*
X197131226Y11080980D01*
X194831226Y11080980D02*
X194831226Y6380980D01*
X197131226Y11080980D02*
X194831226Y11080980D01*
X204276512Y63530980D02*
X201976512Y63530980D01*
X204276512Y63530980D02*
X204276512Y68230980D01*
X201976512Y68230980D02*
X201976512Y63530980D01*
X204276512Y68230980D02*
X201976512Y68230980D01*
X128385549Y59573426D02*
X130345549Y59573426D01*
X130345549Y59573426D02*
X130345549Y63333426D01*
X128385549Y63333426D02*
X128385549Y59573426D01*
X130345549Y63333426D02*
X128385549Y63333426D01*
X70917743Y63530980D02*
X68617743Y63530980D01*
X70917743Y63530980D02*
X70917743Y68230980D01*
X68617743Y68230980D02*
X68617743Y63530980D01*
X70917743Y68230980D02*
X68617743Y68230980D01*
X147126512Y63530980D02*
X144826512Y63530980D01*
X147126512Y63530980D02*
X147126512Y68230980D01*
X144826512Y68230980D02*
X144826512Y63530980D01*
X147126512Y68230980D02*
X144826512Y68230980D01*
X53962857Y63792282D02*
X52002857Y63792282D01*
X52002857Y63792282D02*
X52002857Y60032282D01*
X53962857Y60032282D02*
X53962857Y63792282D01*
X52002857Y60032282D02*
X53962857Y60032282D01*
X109016352Y44480980D02*
X106716352Y44480980D01*
X109016352Y44480980D02*
X109016352Y49180980D01*
X106716352Y49180980D02*
X106716352Y44480980D01*
X109016352Y49180980D02*
X106716352Y49180980D01*
X88065720Y6380980D02*
X85765720Y6380980D01*
X88065720Y6380980D02*
X88065720Y11080980D01*
X85765720Y11080980D02*
X85765720Y6380980D01*
X88065720Y11080980D02*
X85765720Y11080980D01*
X25725112Y73875515D02*
X25725112Y71975515D01*
X25725112Y71975515D02*
X29425112Y71975515D01*
X29425112Y73875515D02*
X25725112Y73875515D01*
X29425112Y71975515D02*
X29425112Y73875515D01*
X223326512Y63530980D02*
X221026512Y63530980D01*
X223326512Y63530980D02*
X223326512Y68230980D01*
X221026512Y68230980D02*
X221026512Y63530980D01*
X223326512Y68230980D02*
X221026512Y68230980D01*
X185226512Y44480980D02*
X182926512Y44480980D01*
X185226512Y44480980D02*
X185226512Y49180980D01*
X182926512Y49180980D02*
X182926512Y44480980D01*
X185226512Y49180980D02*
X182926512Y49180980D01*
X121625590Y39394730D02*
X123585590Y39394730D01*
X123585590Y39394730D02*
X123585590Y43154730D01*
X121625590Y43154730D02*
X121625590Y39394730D01*
X123585590Y43154730D02*
X121625590Y43154730D01*
X125936840Y43124730D02*
X124036840Y43124730D01*
X124036840Y43124730D02*
X124036840Y39424730D01*
X125936840Y39424730D02*
X125936840Y43124730D01*
X124036840Y39424730D02*
X125936840Y39424730D01*
X137603782Y25430980D02*
X135303782Y25430980D01*
X137603782Y25430980D02*
X137603782Y30130980D01*
X135303782Y30130980D02*
X135303782Y25430980D01*
X137603782Y30130980D02*
X135303782Y30130980D01*
X175705358Y25430980D02*
X173405358Y25430980D01*
X175705358Y25430980D02*
X175705358Y30130980D01*
X173405358Y30130980D02*
X173405358Y25430980D01*
X175705358Y30130980D02*
X173405358Y30130980D01*
X29425112Y74059114D02*
X29425112Y75959114D01*
X29425112Y75959114D02*
X25725112Y75959114D01*
X25725112Y74059114D02*
X29425112Y74059114D01*
X25725112Y75959114D02*
X25725112Y74059114D01*
X118552994Y25430980D02*
X116252994Y25430980D01*
X118552994Y25430980D02*
X118552994Y30130980D01*
X116252994Y30130980D02*
X116252994Y25430980D01*
X118552994Y30130980D02*
X116252994Y30130980D01*
X51868439Y63530980D02*
X49568439Y63530980D01*
X51868439Y63530980D02*
X51868439Y68230980D01*
X49568439Y68230980D02*
X49568439Y63530980D01*
X51868439Y68230980D02*
X49568439Y68230980D01*
X204276512Y44480980D02*
X201976512Y44480980D01*
X204276512Y44480980D02*
X204276512Y49180980D01*
X201976512Y49180980D02*
X201976512Y44480980D01*
X204276512Y49180980D02*
X201976512Y49180980D01*
X99502206Y25430980D02*
X97202206Y25430980D01*
X99502206Y25430980D02*
X99502206Y30130980D01*
X97202206Y30130980D02*
X97202206Y25430980D01*
X99502206Y30130980D02*
X97202206Y30130980D01*
X194756146Y25430980D02*
X192456146Y25430980D01*
X194756146Y25430980D02*
X194756146Y30130980D01*
X192456146Y30130980D02*
X192456146Y25430980D01*
X194756146Y30130980D02*
X192456146Y30130980D01*
X35677132Y64749782D02*
X35677132Y61149782D01*
X35677132Y61149782D02*
X40477132Y61149782D01*
X40477132Y64749782D02*
X35677132Y64749782D01*
X40477132Y61149782D02*
X40477132Y64749782D01*
X128743750Y43124730D02*
X126843750Y43124730D01*
X126843750Y43124730D02*
X126843750Y39424730D01*
X128743750Y39424730D02*
X128743750Y43124730D01*
X126843750Y39424730D02*
X128743750Y39424730D01*
X127438278Y67331486D02*
X128824207Y68717415D01*
X128824207Y68717415D02*
X126165486Y71376136D01*
X124779557Y69990207D02*
X127438278Y67331486D01*
X126165486Y71376136D02*
X124779557Y69990207D01*
X213806940Y25430980D02*
X211506940Y25430980D01*
X213806940Y25430980D02*
X213806940Y30130980D01*
X211506940Y30130980D02*
X211506940Y25430980D01*
X213806940Y30130980D02*
X211506940Y30130980D01*
X185226512Y63530980D02*
X182926512Y63530980D01*
X185226512Y63530980D02*
X185226512Y68230980D01*
X182926512Y68230980D02*
X182926512Y63530980D01*
X185226512Y68230980D02*
X182926512Y68230980D01*
X109016352Y63530980D02*
X106716352Y63530980D01*
X109016352Y63530980D02*
X109016352Y68230980D01*
X106716352Y68230980D02*
X106716352Y63530980D01*
X109016352Y68230980D02*
X106716352Y68230980D01*
X44665666Y64069782D02*
X44665666Y61829782D01*
X44665666Y61829782D02*
X49565666Y61829782D01*
X49565666Y64069782D02*
X44665666Y64069782D01*
X49565666Y61829782D02*
X49565666Y64069782D01*
X89967047Y63530980D02*
X87667047Y63530980D01*
X89967047Y63530980D02*
X89967047Y68230980D01*
X87667047Y68230980D02*
X87667047Y63530980D01*
X89967047Y68230980D02*
X87667047Y68230980D01*
X18414032Y25430980D02*
X16114032Y25430980D01*
X18414032Y25430980D02*
X18414032Y30130980D01*
X16114032Y30130980D02*
X16114032Y25430980D01*
X18414032Y30130980D02*
X16114032Y30130980D01*
X59018610Y6380980D02*
X56718610Y6380980D01*
X59018610Y6380980D02*
X59018610Y11080980D01*
X56718610Y11080980D02*
X56718610Y6380980D01*
X59018610Y11080980D02*
X56718610Y11080980D01*
X156654570Y25430980D02*
X154354570Y25430980D01*
X156654570Y25430980D02*
X156654570Y30130980D01*
X154354570Y30130980D02*
X154354570Y25430980D01*
X156654570Y30130980D02*
X154354570Y30130980D01*
X147126512Y44480980D02*
X144826512Y44480980D01*
X147126512Y44480980D02*
X147126512Y49180980D01*
X144826512Y49180980D02*
X144826512Y44480980D01*
X147126512Y49180980D02*
X144826512Y49180980D01*
X89967047Y44480980D02*
X87667047Y44480980D01*
X89967047Y44480980D02*
X89967047Y49180980D01*
X87667047Y49180980D02*
X87667047Y44480980D01*
X89967047Y49180980D02*
X87667047Y49180980D01*
X166176512Y63530980D02*
X163876512Y63530980D01*
X166176512Y63530980D02*
X166176512Y68230980D01*
X163876512Y68230980D02*
X163876512Y63530980D01*
X166176512Y68230980D02*
X163876512Y68230980D01*
X113343259Y56421477D02*
X113343259Y54521477D01*
X113343259Y54521477D02*
X117043259Y54521477D01*
X117043259Y56421477D02*
X113343259Y56421477D01*
X117043259Y54521477D02*
X117043259Y56421477D01*
X60168750Y60099782D02*
X62068750Y60099782D01*
X62068750Y60099782D02*
X62068750Y63799782D01*
X60168750Y63799782D02*
X60168750Y60099782D01*
X62068750Y63799782D02*
X60168750Y63799782D01*
X70917743Y44480980D02*
X68617743Y44480980D01*
X70917743Y44480980D02*
X70917743Y49180980D01*
X68617743Y49180980D02*
X68617743Y44480980D01*
X70917743Y49180980D02*
X68617743Y49180980D01*
X32819135Y44480980D02*
X30519135Y44480980D01*
X32819135Y44480980D02*
X32819135Y49180980D01*
X30519135Y49180980D02*
X30519135Y44480980D01*
X32819135Y49180980D02*
X30519135Y49180980D01*
X119112500Y39424730D02*
X121012500Y39424730D01*
X121012500Y39424730D02*
X121012500Y43124730D01*
X119112500Y43124730D02*
X119112500Y39424730D01*
X121012500Y43124730D02*
X119112500Y43124730D01*
X13769831Y63530980D02*
X11469831Y63530980D01*
X13769831Y63530980D02*
X13769831Y68230980D01*
X11469831Y68230980D02*
X11469831Y63530980D01*
X13769831Y68230980D02*
X11469831Y68230980D01*
X119215280Y63077311D02*
X120601209Y64463240D01*
X120601209Y64463240D02*
X117942488Y67121961D01*
X116556559Y65736032D02*
X119215280Y63077311D01*
X117942488Y67121961D02*
X116556559Y65736032D01*
X129673750Y51407230D02*
X129673750Y53367230D01*
X129673750Y53367230D02*
X125913750Y53367230D01*
X125913750Y51407230D02*
X129673750Y51407230D01*
X125913750Y53367230D02*
X125913750Y51407230D01*
X37587342Y6380980D02*
X35287342Y6380980D01*
X37587342Y6380980D02*
X37587342Y11080980D01*
X35287342Y11080980D02*
X35287342Y6380980D01*
X37587342Y11080980D02*
X35287342Y11080980D01*
X218562494Y6380980D02*
X216262494Y6380980D01*
X218562494Y6380980D02*
X218562494Y11080980D01*
X216262494Y11080980D02*
X216262494Y6380980D01*
X218562494Y11080980D02*
X216262494Y11080980D01*
M02*
