%TF.GenerationSoftware,KiCad,Pcbnew,7.0.6*%
%TF.CreationDate,2023-08-26T01:37:11-04:00*%
%TF.ProjectId,Vault45_alpha,5661756c-7434-4355-9f61-6c7068612e6b,rev?*%
%TF.SameCoordinates,PX18faf56PY663131a*%
%TF.FileFunction,Profile,NP*%
%FSLAX46Y46*%
G04 Gerber Fmt 4.6, Leading zero omitted, Abs format (unit mm)*
G04 Created by KiCad (PCBNEW 7.0.6) date 2023-08-26 01:37:11*
%MOMM*%
%LPD*%
G01*
G04 APERTURE LIST*
%TA.AperFunction,Profile*%
%ADD10C,0.100000*%
%TD*%
G04 APERTURE END LIST*
D10*
X19050048Y70842099D02*
G75*
G03*
X21728961Y73521009I2J2678911D01*
G01*
X244376437Y19049598D02*
X225326389Y19049598D01*
X206276250Y2678643D02*
G75*
G03*
X208955214Y-270I2678920J7D01*
G01*
X24407874Y76199919D02*
G75*
G03*
X21728961Y73521009I-4J-2678909D01*
G01*
X13692222Y76199922D02*
X3274227Y76199922D01*
X203597388Y5357545D02*
G75*
G03*
X200918475Y2678643I-18J-2678895D01*
G01*
X18Y22323825D02*
G75*
G03*
X3274267Y19049598I3274252J25D01*
G01*
X208955214Y-270D02*
X220563837Y-270D01*
X225326389Y19049616D02*
G75*
G03*
X223838104Y17561313I-19J-1488266D01*
G01*
X27086787Y-270D02*
X38695410Y-270D01*
X38695410Y-303D02*
G75*
G03*
X41374323Y2678643I-40J2678953D01*
G01*
X40Y22323825D02*
X40Y72925515D01*
X23812600Y3273777D02*
X23812600Y17561313D01*
X16371142Y73521009D02*
G75*
G03*
X13692222Y76199922I-2678872J41D01*
G01*
X46732176Y2678643D02*
G75*
G03*
X44053236Y5357556I-2678906J7D01*
G01*
X206276276Y2678643D02*
G75*
G03*
X203597388Y5357556I-2678906J7D01*
G01*
X233958402Y76199931D02*
G75*
G03*
X231279489Y73521009I-32J-2678881D01*
G01*
X22324315Y19049598D02*
X3274267Y19049598D01*
X220563877Y-484D02*
G75*
G03*
X223838104Y3273777I-7J3274234D01*
G01*
X225921642Y73521009D02*
G75*
G03*
X223242750Y76199922I-2678872J41D01*
G01*
X223242330Y76199974D02*
X24407788Y76199974D01*
X16371116Y73521009D02*
G75*
G03*
X19050048Y70842096I2678954J41D01*
G01*
X247650662Y72925515D02*
G75*
G03*
X244376437Y76199742I-3274192J35D01*
G01*
X247650664Y72925515D02*
X247650664Y22323825D01*
X49411062Y-270D02*
X198239562Y-270D01*
X23812518Y17561313D02*
G75*
G03*
X22324315Y19049598I-1488248J37D01*
G01*
X223838104Y17561313D02*
X223838104Y3273777D01*
X244376437Y19049656D02*
G75*
G03*
X247650664Y22323825I33J3274194D01*
G01*
X228600576Y70842131D02*
G75*
G03*
X231279489Y73521009I-6J2678919D01*
G01*
X233958402Y76199922D02*
X244376397Y76199922D01*
X198239562Y-255D02*
G75*
G03*
X200918475Y2678643I8J2678905D01*
G01*
X225921616Y73521009D02*
G75*
G03*
X228600576Y70842096I2678954J41D01*
G01*
X23812670Y3273777D02*
G75*
G03*
X27086827Y-450I3274200J-27D01*
G01*
X3274267Y76199740D02*
G75*
G03*
X40Y72925515I3J-3274230D01*
G01*
X46732150Y2678643D02*
G75*
G03*
X49411062Y-270I2678920J7D01*
G01*
X44053236Y5357597D02*
G75*
G03*
X41374323Y2678643I34J-2678947D01*
G01*
M02*
