M48
; DRILL file {KiCad 7.0.6} date Fri Aug 25 16:14:00 2023
; FORMAT={-:-/ absolute / metric / decimal}
; #@! TF.CreationDate,2023-08-25T16:14:00-04:00
; #@! TF.GenerationSoftware,Kicad,Pcbnew,7.0.6
; #@! TF.FileFunction,Plated,1,2,PTH
FMAT,2
METRIC
; #@! TA.AperFunction,Plated,PTH,ComponentDrill
T1C0.200
; #@! TA.AperFunction,Plated,PTH,ViaDrill
T2C0.300
; #@! TA.AperFunction,Plated,PTH,ViaDrill
T3C0.400
; #@! TA.AperFunction,Plated,PTH,ComponentDrill
T4C0.500
; #@! TA.AperFunction,Plated,PTH,ComponentDrill
T5C0.600
; #@! TA.AperFunction,Plated,PTH,ComponentDrill
T6C0.813
; #@! TA.AperFunction,Plated,PTH,ComponentDrill
T7C1.000
; #@! TA.AperFunction,Plated,PTH,ComponentDrill
T8C1.470
%
G90
G05
T1
X121.475Y60.135
X121.475Y58.96
X121.475Y57.785
X121.475Y56.61
X121.475Y55.435
X122.65Y60.135
X122.65Y58.96
X122.65Y57.785
X122.65Y56.61
X122.65Y55.435
X123.825Y60.135
X123.825Y58.96
X123.825Y57.785
X123.825Y56.61
X123.825Y55.435
X125.0Y60.135
X125.0Y58.96
X125.0Y57.785
X125.0Y56.61
X125.0Y55.435
X126.175Y60.135
X126.175Y58.96
X126.175Y57.785
X126.175Y56.61
X126.175Y55.435
T2
X112.514Y59.531
X116.086Y61.317
X116.681Y66.675
X117.908Y46.547
X118.164Y64.679
X119.062Y55.562
X120.364Y51.556
X121.424Y50.951
X124.991Y38.949
X127.794Y51.594
X130.705Y59.864
X131.021Y62.506
T3
X30.063Y75.009
X33.338Y64.231
X39.291Y67.866
X42.863Y64.231
X52.983Y59.531
X59.0Y66.798
X61.119Y59.531
X109.144Y64.229
X109.201Y45.195
X113.506Y66.675
X114.935Y45.879
X115.887Y67.866
X125.905Y46.458
X125.959Y62.91
X127.336Y62.127
X129.748Y46.458
X130.191Y69.085
X130.816Y69.722
X131.762Y42.069
X132.556Y54.769
X133.35Y65.881
X134.335Y45.922
X145.49Y26.791
X150.081Y7.081
T4
X119.062Y44.45
X121.444Y44.45
X123.825Y44.45
X126.206Y44.45
X128.588Y44.45
T6
X120.015Y74.88
X122.555Y74.88
X125.095Y74.88
X127.635Y74.88
T7
X114.617Y73.977
X114.617Y71.438
X114.617Y68.897
X117.157Y73.977
X117.157Y71.438
X117.157Y68.897
X130.85Y35.598
X130.85Y21.098
X133.35Y21.098
X135.85Y35.598
X135.85Y21.098
T8
X5.715Y69.215
X5.715Y50.165
X10.477Y31.115
X12.065Y71.755
X12.065Y52.705
X12.859Y31.115
X15.24Y31.115
X16.828Y33.655
X19.209Y33.655
X21.59Y33.655
X24.765Y69.215
X24.765Y50.165
X31.115Y71.755
X31.115Y52.705
X31.909Y12.065
X34.29Y31.115
X36.671Y12.065
X38.259Y14.605
X40.64Y33.655
X43.021Y14.605
X43.815Y69.215
X43.815Y50.165
X50.165Y71.755
X50.165Y52.705
X53.34Y31.115
X53.34Y12.065
X55.721Y12.065
X59.69Y33.655
X59.69Y14.605
X62.071Y14.605
X62.865Y69.215
X62.865Y50.165
X62.865Y12.065
X69.215Y71.755
X69.215Y52.705
X69.215Y14.605
X72.39Y31.115
X74.771Y12.065
X77.153Y12.065
X78.74Y33.655
X81.121Y14.605
X81.915Y69.215
X81.915Y50.165
X81.915Y12.065
X83.502Y14.605
X88.265Y71.755
X88.265Y52.705
X88.265Y14.605
X91.44Y31.115
X97.79Y33.655
X100.965Y69.215
X100.965Y50.165
X103.346Y12.065
X105.727Y12.065
X107.315Y71.755
X107.315Y52.705
X109.696Y14.605
X110.49Y31.115
X112.078Y14.605
X116.84Y33.655
X129.54Y31.115
X134.302Y12.065
X135.89Y33.655
X136.684Y12.065
X139.065Y69.215
X139.065Y50.165
X140.653Y14.605
X143.034Y14.605
X145.415Y71.755
X145.415Y52.705
X148.59Y31.115
X154.94Y33.655
X158.115Y69.215
X158.115Y50.165
X158.115Y12.065
X162.877Y12.065
X164.465Y71.755
X164.465Y52.705
X164.465Y14.605
X165.259Y12.065
X167.64Y31.115
X169.227Y14.605
X171.609Y14.605
X173.99Y33.655
X177.165Y69.215
X177.165Y50.165
X177.165Y12.065
X183.515Y71.755
X183.515Y52.705
X183.515Y14.605
X184.309Y12.065
X186.69Y31.115
X186.69Y12.065
X190.659Y14.605
X193.04Y33.655
X193.04Y14.605
X196.215Y69.215
X196.215Y50.165
X202.565Y71.755
X202.565Y52.705
X203.359Y12.065
X205.74Y31.115
X208.121Y12.065
X209.709Y14.605
X212.09Y33.655
X214.471Y14.605
X215.265Y69.215
X215.265Y50.165
X221.615Y71.755
X221.615Y52.705
X224.79Y31.115
X227.171Y31.115
X229.552Y31.115
X231.14Y33.655
X233.521Y33.655
X234.315Y69.215
X234.315Y50.165
X235.903Y33.655
X240.665Y71.755
X240.665Y52.705
T4
G00X33.78Y76.154
M15
G01X33.78Y75.454
M16
G05
G00X42.42Y76.154
M15
G01X42.42Y75.454
M16
G05
T5
G00X33.78Y72.174
M15
G01X33.78Y71.074
M16
G05
G00X42.42Y72.174
M15
G01X42.42Y71.074
M16
G05
T0
M30
