%TF.GenerationSoftware,KiCad,Pcbnew,7.0.6*%
%TF.CreationDate,2023-09-02T22:40:47-04:00*%
%TF.ProjectId,Vault45_alpha,5661756c-7434-4355-9f61-6c7068612e6b,rev?*%
%TF.SameCoordinates,PX18faf56PY663131a*%
%TF.FileFunction,Drillmap*%
%TF.FilePolarity,Positive*%
%FSLAX45Y45*%
G04 Gerber Fmt 4.5, Leading zero omitted, Abs format (unit mm)*
G04 Created by KiCad (PCBNEW 7.0.6) date 2023-09-02 22:40:47*
%MOMM*%
%LPD*%
G01*
G04 APERTURE LIST*
%ADD10C,0.100000*%
%ADD11C,0.200000*%
%ADD12C,0.020000*%
%ADD13C,0.030000*%
%ADD14C,0.040000*%
%ADD15C,0.050000*%
%ADD16C,0.060000*%
%ADD17C,0.081280*%
%ADD18C,0.147000*%
G04 APERTURE END LIST*
D10*
X1905005Y7084209D02*
G75*
G03*
X2172896Y7352101I-1J267892D01*
G01*
X24437644Y1904960D02*
X22532639Y1904960D01*
X20627633Y267864D02*
G75*
G03*
X20895521Y-27I267882J-9D01*
G01*
X2440787Y7619992D02*
G75*
G03*
X2172896Y7352101I0J-267891D01*
G01*
X1369222Y7619992D02*
X327423Y7619992D01*
X20359739Y535753D02*
G75*
G03*
X20091848Y267864I-4J-267888D01*
G01*
X0Y2232383D02*
G75*
G03*
X327427Y1904960I327425J3D01*
G01*
X20895521Y-27D02*
X22056384Y-27D01*
X22532639Y1904960D02*
G75*
G03*
X22383810Y1756131I-4J-148825D01*
G01*
X2708679Y-27D02*
X3869541Y-27D01*
X3869541Y-22D02*
G75*
G03*
X4137432Y267864I4J267887D01*
G01*
X4Y2232383D02*
X4Y7292551D01*
X2381260Y327378D02*
X2381260Y1756131D01*
X1637112Y7352101D02*
G75*
G03*
X1369222Y7619992I-267887J4D01*
G01*
X4673216Y267864D02*
G75*
G03*
X4405324Y535756I-267891J1D01*
G01*
X20627626Y267864D02*
G75*
G03*
X20359739Y535756I-267891J1D01*
G01*
X23395840Y7619991D02*
G75*
G03*
X23127949Y7352101I-5J-267886D01*
G01*
X2232432Y1904960D02*
X327427Y1904960D01*
X22056388Y-40D02*
G75*
G03*
X22383810Y327378I7J327415D01*
G01*
X22592162Y7352101D02*
G75*
G03*
X22324275Y7619992I-267887J4D01*
G01*
X22324233Y7619997D02*
X2440779Y7619997D01*
X1637110Y7352101D02*
G75*
G03*
X1905005Y7084210I267895J4D01*
G01*
X24765064Y7292551D02*
G75*
G03*
X24437644Y7619974I-327419J4D01*
G01*
X24765066Y7292551D02*
X24765066Y2232383D01*
X4941106Y-27D02*
X19823956Y-27D01*
X2381260Y1756131D02*
G75*
G03*
X2232432Y1904960I-148835J-6D01*
G01*
X22383810Y1756131D02*
X22383810Y327378D01*
X24437644Y1904954D02*
G75*
G03*
X24765066Y2232383I-9J327431D01*
G01*
X22860058Y7084211D02*
G75*
G03*
X23127949Y7352101I-3J267894D01*
G01*
X23395840Y7619992D02*
X24437640Y7619992D01*
X19823956Y-27D02*
G75*
G03*
X20091848Y267864I-1J267893D01*
G01*
X22592170Y7352101D02*
G75*
G03*
X22860058Y7084210I267885J-6D01*
G01*
X2381265Y327378D02*
G75*
G03*
X2708683Y-45I327430J7D01*
G01*
X327427Y7619974D02*
G75*
G03*
X4Y7292551I0J-327423D01*
G01*
X4673213Y267864D02*
G75*
G03*
X4941106Y-27I267892J1D01*
G01*
X4405324Y535758D02*
G75*
G03*
X4137432Y267864I1J-267893D01*
G01*
D11*
D12*
X12137500Y6023491D02*
X12157500Y6003491D01*
X12157500Y6023491D02*
X12137500Y6003491D01*
X12137500Y5905991D02*
X12157500Y5885991D01*
X12157500Y5905991D02*
X12137500Y5885991D01*
X12137500Y5788491D02*
X12157500Y5768491D01*
X12157500Y5788491D02*
X12137500Y5768491D01*
X12137500Y5670991D02*
X12157500Y5650991D01*
X12157500Y5670991D02*
X12137500Y5650991D01*
X12137500Y5553491D02*
X12157500Y5533491D01*
X12157500Y5553491D02*
X12137500Y5533491D01*
X12255000Y6023491D02*
X12275000Y6003491D01*
X12275000Y6023491D02*
X12255000Y6003491D01*
X12255000Y5905991D02*
X12275000Y5885991D01*
X12275000Y5905991D02*
X12255000Y5885991D01*
X12255000Y5788491D02*
X12275000Y5768491D01*
X12275000Y5788491D02*
X12255000Y5768491D01*
X12255000Y5670991D02*
X12275000Y5650991D01*
X12275000Y5670991D02*
X12255000Y5650991D01*
X12255000Y5553491D02*
X12275000Y5533491D01*
X12275000Y5553491D02*
X12255000Y5533491D01*
X12372500Y6023491D02*
X12392500Y6003491D01*
X12392500Y6023491D02*
X12372500Y6003491D01*
X12372500Y5905991D02*
X12392500Y5885991D01*
X12392500Y5905991D02*
X12372500Y5885991D01*
X12372500Y5788491D02*
X12392500Y5768491D01*
X12392500Y5788491D02*
X12372500Y5768491D01*
X12372500Y5670991D02*
X12392500Y5650991D01*
X12392500Y5670991D02*
X12372500Y5650991D01*
X12372500Y5553491D02*
X12392500Y5533491D01*
X12392500Y5553491D02*
X12372500Y5533491D01*
X12490000Y6023491D02*
X12510000Y6003491D01*
X12510000Y6023491D02*
X12490000Y6003491D01*
X12490000Y5905991D02*
X12510000Y5885991D01*
X12510000Y5905991D02*
X12490000Y5885991D01*
X12490000Y5788491D02*
X12510000Y5768491D01*
X12510000Y5788491D02*
X12490000Y5768491D01*
X12490000Y5670991D02*
X12510000Y5650991D01*
X12510000Y5670991D02*
X12490000Y5650991D01*
X12490000Y5553491D02*
X12510000Y5533491D01*
X12510000Y5553491D02*
X12490000Y5533491D01*
X12607500Y6023491D02*
X12627500Y6003491D01*
X12627500Y6023491D02*
X12607500Y6003491D01*
X12607500Y5905991D02*
X12627500Y5885991D01*
X12627500Y5905991D02*
X12607500Y5885991D01*
X12607500Y5788491D02*
X12627500Y5768491D01*
X12627500Y5788491D02*
X12607500Y5768491D01*
X12607500Y5670991D02*
X12627500Y5650991D01*
X12627500Y5670991D02*
X12607500Y5650991D01*
X12607500Y5553491D02*
X12627500Y5533491D01*
X12627500Y5553491D02*
X12607500Y5533491D01*
D13*
X11266435Y5953113D02*
G75*
G03*
X11266435Y5953113I-15000J0D01*
G01*
X11623603Y6131697D02*
G75*
G03*
X11623603Y6131697I-15000J0D01*
G01*
X11683125Y6667473D02*
G75*
G03*
X11683125Y6667473I-15000J0D01*
G01*
X11805764Y4654663D02*
G75*
G03*
X11805764Y4654663I-15000J0D01*
G01*
X11831408Y6467843D02*
G75*
G03*
X11831408Y6467843I-15000J0D01*
G01*
X11921250Y5556223D02*
G75*
G03*
X11921250Y5556223I-15000J0D01*
G01*
X12051429Y5155568D02*
G75*
G03*
X12051429Y5155568I-15000J0D01*
G01*
X12157378Y5095108D02*
G75*
G03*
X12157378Y5095108I-15000J0D01*
G01*
X12794375Y5159348D02*
G75*
G03*
X12794375Y5159348I-15000J0D01*
G01*
X13085533Y5986381D02*
G75*
G03*
X13085533Y5986381I-15000J0D01*
G01*
X13117136Y6250541D02*
G75*
G03*
X13117136Y6250541I-15000J0D01*
G01*
D14*
X3006340Y7520911D02*
X3006340Y7480911D01*
X2986340Y7500911D02*
X3026340Y7500911D01*
X3333753Y6443098D02*
X3333753Y6403098D01*
X3313753Y6423098D02*
X3353753Y6423098D01*
X3929076Y6764772D02*
X3929076Y6724772D01*
X3909076Y6744772D02*
X3949076Y6744772D01*
X4286254Y6443098D02*
X4286254Y6403098D01*
X4266254Y6423098D02*
X4306254Y6423098D01*
X5298299Y5973095D02*
X5298299Y5933095D01*
X5278299Y5953095D02*
X5318299Y5953095D01*
X5900005Y6699822D02*
X5900005Y6659822D01*
X5880005Y6679822D02*
X5920005Y6679822D01*
X6111875Y5973103D02*
X6111875Y5933103D01*
X6091875Y5953103D02*
X6131875Y5953103D01*
X10914432Y6442887D02*
X10914432Y6402887D01*
X10894432Y6422887D02*
X10934432Y6422887D01*
X10920080Y4539454D02*
X10920080Y4499454D01*
X10900080Y4519454D02*
X10940080Y4519454D01*
X11350625Y6687473D02*
X11350625Y6647473D01*
X11330625Y6667473D02*
X11370625Y6667473D01*
X11493519Y4607867D02*
X11493519Y4567867D01*
X11473519Y4587867D02*
X11513519Y4587867D01*
X11588748Y6806541D02*
X11588748Y6766541D01*
X11568748Y6786541D02*
X11608748Y6786541D01*
X12590499Y4665757D02*
X12590499Y4625757D01*
X12570499Y4645757D02*
X12610499Y4645757D01*
X12595888Y6311011D02*
X12595888Y6271011D01*
X12575888Y6291011D02*
X12615888Y6291011D01*
X12733570Y6232708D02*
X12733570Y6192708D01*
X12713570Y6212708D02*
X12753570Y6212708D01*
X12974760Y4665757D02*
X12974760Y4625757D01*
X12954760Y4645757D02*
X12994760Y4645757D01*
X13019135Y6928473D02*
X13019135Y6888473D01*
X12999135Y6908473D02*
X13039135Y6908473D01*
X13081575Y6992154D02*
X13081575Y6952154D01*
X13061575Y6972154D02*
X13101575Y6972154D01*
X13335000Y6608098D02*
X13335000Y6568098D01*
X13315000Y6588098D02*
X13355000Y6588098D01*
X13433482Y4612209D02*
X13433482Y4572209D01*
X13413482Y4592209D02*
X13453482Y4592209D01*
X14548958Y2699046D02*
X14548958Y2659046D01*
X14528958Y2679046D02*
X14568958Y2679046D01*
X15001875Y728098D02*
X15001875Y688098D01*
X14981875Y708098D02*
X15021875Y708098D01*
D15*
X3395681Y7520913D02*
X3395681Y7556269D01*
X3360325Y7556269D01*
X3360325Y7520913D01*
X3395681Y7520913D01*
D11*
X3353003Y7573591D02*
X3353003Y7503591D01*
X3353003Y7503591D02*
G75*
G03*
X3403003Y7503591I25000J0D01*
G01*
X3403003Y7503591D02*
X3403003Y7573591D01*
X3403003Y7573591D02*
G75*
G03*
X3353003Y7573591I-25000J0D01*
G01*
D15*
X4259681Y7520913D02*
X4259681Y7556269D01*
X4224325Y7556269D01*
X4224325Y7520913D01*
X4259681Y7520913D01*
D11*
X4217003Y7573591D02*
X4217003Y7503591D01*
X4217003Y7503591D02*
G75*
G03*
X4267003Y7503591I25000J0D01*
G01*
X4267003Y7503591D02*
X4267003Y7573591D01*
X4267003Y7573591D02*
G75*
G03*
X4217003Y7573591I-25000J0D01*
G01*
D15*
X11923928Y4427295D02*
X11923928Y4462651D01*
X11888572Y4462651D01*
X11888572Y4427295D01*
X11923928Y4427295D01*
X12162053Y4427295D02*
X12162053Y4462651D01*
X12126697Y4462651D01*
X12126697Y4427295D01*
X12162053Y4427295D01*
X12400178Y4427295D02*
X12400178Y4462651D01*
X12364822Y4462651D01*
X12364822Y4427295D01*
X12400178Y4427295D01*
X12638303Y4427295D02*
X12638303Y4462651D01*
X12602947Y4462651D01*
X12602947Y4427295D01*
X12638303Y4427295D01*
X12876428Y4427295D02*
X12876428Y4462651D01*
X12841072Y4462651D01*
X12841072Y4427295D01*
X12876428Y4427295D01*
D16*
X3378003Y7090591D02*
X3408003Y7120591D01*
X3378003Y7150591D01*
X3348003Y7120591D01*
X3378003Y7090591D01*
D11*
X3348003Y7175591D02*
X3348003Y7065591D01*
X3348003Y7065591D02*
G75*
G03*
X3408003Y7065591I30000J0D01*
G01*
X3408003Y7065591D02*
X3408003Y7175591D01*
X3408003Y7175591D02*
G75*
G03*
X3348003Y7175591I-30000J0D01*
G01*
D16*
X4242003Y7090591D02*
X4272003Y7120591D01*
X4242003Y7150591D01*
X4212003Y7120591D01*
X4242003Y7090591D01*
D11*
X4212003Y7175591D02*
X4212003Y7065591D01*
X4212003Y7065591D02*
G75*
G03*
X4272003Y7065591I30000J0D01*
G01*
X4272003Y7065591D02*
X4272003Y7175591D01*
X4272003Y7175591D02*
G75*
G03*
X4212003Y7175591I-30000J0D01*
G01*
D17*
X11960870Y7528618D02*
X12042150Y7447338D01*
X12042150Y7528618D02*
X11960870Y7447338D01*
X12042150Y7487978D02*
G75*
G03*
X12042150Y7487978I-40640J0D01*
G01*
X12214870Y7528618D02*
X12296150Y7447338D01*
X12296150Y7528618D02*
X12214870Y7447338D01*
X12296150Y7487978D02*
G75*
G03*
X12296150Y7487978I-40640J0D01*
G01*
X12468870Y7528618D02*
X12550150Y7447338D01*
X12550150Y7528618D02*
X12468870Y7447338D01*
X12550150Y7487978D02*
G75*
G03*
X12550150Y7487978I-40640J0D01*
G01*
X12722870Y7528618D02*
X12804150Y7447338D01*
X12804150Y7528618D02*
X12722870Y7447338D01*
X12804150Y7487978D02*
G75*
G03*
X12804150Y7487978I-40640J0D01*
G01*
D10*
X11411750Y7447723D02*
X11511750Y7347723D01*
X11511750Y7447723D02*
X11411750Y7347723D01*
X11461750Y7447723D02*
X11461750Y7347723D01*
X11411750Y7397723D02*
X11511750Y7397723D01*
X11411750Y7193723D02*
X11511750Y7093723D01*
X11511750Y7193723D02*
X11411750Y7093723D01*
X11461750Y7193723D02*
X11461750Y7093723D01*
X11411750Y7143723D02*
X11511750Y7143723D01*
X11411750Y6939723D02*
X11511750Y6839723D01*
X11511750Y6939723D02*
X11411750Y6839723D01*
X11461750Y6939723D02*
X11461750Y6839723D01*
X11411750Y6889723D02*
X11511750Y6889723D01*
X11665750Y7447723D02*
X11765750Y7347723D01*
X11765750Y7447723D02*
X11665750Y7347723D01*
X11715750Y7447723D02*
X11715750Y7347723D01*
X11665750Y7397723D02*
X11765750Y7397723D01*
X11665750Y7193723D02*
X11765750Y7093723D01*
X11765750Y7193723D02*
X11665750Y7093723D01*
X11715750Y7193723D02*
X11715750Y7093723D01*
X11665750Y7143723D02*
X11765750Y7143723D01*
X11665750Y6939723D02*
X11765750Y6839723D01*
X11765750Y6939723D02*
X11665750Y6839723D01*
X11715750Y6939723D02*
X11715750Y6839723D01*
X11665750Y6889723D02*
X11765750Y6889723D01*
X12535000Y3157473D02*
X12635000Y3057473D01*
X12635000Y3157473D02*
X12535000Y3057473D01*
X12585000Y3157473D02*
X12585000Y3057473D01*
X12535000Y3107473D02*
X12635000Y3107473D01*
X12535000Y2907473D02*
X12635000Y2807473D01*
X12635000Y2907473D02*
X12535000Y2807473D01*
X12585000Y2907473D02*
X12585000Y2807473D01*
X12535000Y2857473D02*
X12635000Y2857473D01*
X12535000Y2657473D02*
X12635000Y2557473D01*
X12635000Y2657473D02*
X12535000Y2557473D01*
X12585000Y2657473D02*
X12585000Y2557473D01*
X12535000Y2607473D02*
X12635000Y2607473D01*
X13985000Y3157473D02*
X14085000Y3057473D01*
X14085000Y3157473D02*
X13985000Y3057473D01*
X14035000Y3157473D02*
X14035000Y3057473D01*
X13985000Y3107473D02*
X14085000Y3107473D01*
X13985000Y2657473D02*
X14085000Y2557473D01*
X14085000Y2657473D02*
X13985000Y2557473D01*
X14035000Y2657473D02*
X14035000Y2557473D01*
X13985000Y2607473D02*
X14085000Y2607473D01*
D18*
X498000Y6994973D02*
X645000Y6847973D01*
X645000Y6994973D02*
X498000Y6847973D01*
X623473Y6869500D02*
X623473Y6973446D01*
X519527Y6973446D01*
X519527Y6869500D01*
X623473Y6869500D01*
X498000Y5089973D02*
X645000Y4942973D01*
X645000Y5089973D02*
X498000Y4942973D01*
X623473Y4964500D02*
X623473Y5068446D01*
X519527Y5068446D01*
X519527Y4964500D01*
X623473Y4964500D01*
X974247Y3184993D02*
X1121247Y3037993D01*
X1121247Y3184993D02*
X974247Y3037993D01*
X1099720Y3059521D02*
X1099720Y3163466D01*
X995774Y3163466D01*
X995774Y3059521D01*
X1099720Y3059521D01*
X1133000Y7248973D02*
X1280000Y7101973D01*
X1280000Y7248973D02*
X1133000Y7101973D01*
X1258473Y7123500D02*
X1258473Y7227446D01*
X1154527Y7227446D01*
X1154527Y7123500D01*
X1258473Y7123500D01*
X1133000Y5343973D02*
X1280000Y5196973D01*
X1280000Y5343973D02*
X1133000Y5196973D01*
X1258473Y5218500D02*
X1258473Y5322446D01*
X1154527Y5322446D01*
X1154527Y5218500D01*
X1258473Y5218500D01*
X1609247Y3438993D02*
X1756247Y3291993D01*
X1756247Y3438993D02*
X1609247Y3291993D01*
X1734719Y3313521D02*
X1734719Y3417466D01*
X1630774Y3417466D01*
X1630774Y3313521D01*
X1734719Y3313521D01*
X2403000Y6994973D02*
X2550000Y6847973D01*
X2550000Y6994973D02*
X2403000Y6847973D01*
X2528473Y6869500D02*
X2528473Y6973446D01*
X2424527Y6973446D01*
X2424527Y6869500D01*
X2528473Y6869500D01*
X2403000Y5089973D02*
X2550000Y4942973D01*
X2550000Y5089973D02*
X2403000Y4942973D01*
X2528473Y4964500D02*
X2528473Y5068446D01*
X2424527Y5068446D01*
X2424527Y4964500D01*
X2528473Y4964500D01*
X2879250Y1280000D02*
X3026250Y1133000D01*
X3026250Y1280000D02*
X2879250Y1133000D01*
X3004723Y1154527D02*
X3004723Y1258473D01*
X2900777Y1258473D01*
X2900777Y1154527D01*
X3004723Y1154527D01*
X3038000Y7248973D02*
X3185000Y7101973D01*
X3185000Y7248973D02*
X3038000Y7101973D01*
X3163473Y7123500D02*
X3163473Y7227446D01*
X3059527Y7227446D01*
X3059527Y7123500D01*
X3163473Y7123500D01*
X3038000Y5343973D02*
X3185000Y5196973D01*
X3185000Y5343973D02*
X3038000Y5196973D01*
X3163473Y5218500D02*
X3163473Y5322446D01*
X3059527Y5322446D01*
X3059527Y5218500D01*
X3163473Y5218500D01*
X3355500Y3184973D02*
X3502500Y3037973D01*
X3502500Y3184973D02*
X3355500Y3037973D01*
X3480973Y3059500D02*
X3480973Y3163446D01*
X3377027Y3163446D01*
X3377027Y3059500D01*
X3480973Y3059500D01*
X3514250Y1534000D02*
X3661250Y1387000D01*
X3661250Y1534000D02*
X3514250Y1387000D01*
X3639723Y1408527D02*
X3639723Y1512473D01*
X3535777Y1512473D01*
X3535777Y1408527D01*
X3639723Y1408527D01*
X3990500Y3438973D02*
X4137500Y3291973D01*
X4137500Y3438973D02*
X3990500Y3291973D01*
X4115973Y3313500D02*
X4115973Y3417446D01*
X4012027Y3417446D01*
X4012027Y3313500D01*
X4115973Y3313500D01*
X4308000Y6994973D02*
X4455000Y6847973D01*
X4455000Y6994973D02*
X4308000Y6847973D01*
X4433473Y6869500D02*
X4433473Y6973446D01*
X4329527Y6973446D01*
X4329527Y6869500D01*
X4433473Y6869500D01*
X4308000Y5089973D02*
X4455000Y4942973D01*
X4455000Y5089973D02*
X4308000Y4942973D01*
X4433473Y4964500D02*
X4433473Y5068446D01*
X4329527Y5068446D01*
X4329527Y4964500D01*
X4433473Y4964500D01*
X4943000Y7248973D02*
X5090000Y7101973D01*
X5090000Y7248973D02*
X4943000Y7101973D01*
X5068473Y7123500D02*
X5068473Y7227446D01*
X4964527Y7227446D01*
X4964527Y7123500D01*
X5068473Y7123500D01*
X4943000Y5343973D02*
X5090000Y5196973D01*
X5090000Y5343973D02*
X4943000Y5196973D01*
X5068473Y5218500D02*
X5068473Y5322446D01*
X4964527Y5322446D01*
X4964527Y5218500D01*
X5068473Y5218500D01*
X5022375Y1279973D02*
X5169375Y1132973D01*
X5169375Y1279973D02*
X5022375Y1132973D01*
X5147848Y1154500D02*
X5147848Y1258446D01*
X5043902Y1258446D01*
X5043902Y1154500D01*
X5147848Y1154500D01*
X5260500Y3184973D02*
X5407500Y3037973D01*
X5407500Y3184973D02*
X5260500Y3037973D01*
X5385973Y3059500D02*
X5385973Y3163446D01*
X5282027Y3163446D01*
X5282027Y3059500D01*
X5385973Y3059500D01*
X5657375Y1533973D02*
X5804375Y1386973D01*
X5804375Y1533973D02*
X5657375Y1386973D01*
X5782848Y1408500D02*
X5782848Y1512446D01*
X5678902Y1512446D01*
X5678902Y1408500D01*
X5782848Y1408500D01*
X5895500Y3438973D02*
X6042500Y3291973D01*
X6042500Y3438973D02*
X5895500Y3291973D01*
X6020973Y3313500D02*
X6020973Y3417446D01*
X5917027Y3417446D01*
X5917027Y3313500D01*
X6020973Y3313500D01*
X6213000Y6994973D02*
X6360000Y6847973D01*
X6360000Y6994973D02*
X6213000Y6847973D01*
X6338473Y6869500D02*
X6338473Y6973446D01*
X6234527Y6973446D01*
X6234527Y6869500D01*
X6338473Y6869500D01*
X6213000Y5089973D02*
X6360000Y4942973D01*
X6360000Y5089973D02*
X6213000Y4942973D01*
X6338473Y4964500D02*
X6338473Y5068446D01*
X6234527Y5068446D01*
X6234527Y4964500D01*
X6338473Y4964500D01*
X6848000Y7248973D02*
X6995000Y7101973D01*
X6995000Y7248973D02*
X6848000Y7101973D01*
X6973473Y7123500D02*
X6973473Y7227446D01*
X6869527Y7227446D01*
X6869527Y7123500D01*
X6973473Y7123500D01*
X6848000Y5343973D02*
X6995000Y5196973D01*
X6995000Y5343973D02*
X6848000Y5196973D01*
X6973473Y5218500D02*
X6973473Y5322446D01*
X6869527Y5322446D01*
X6869527Y5218500D01*
X6973473Y5218500D01*
X7165500Y3184973D02*
X7312500Y3037973D01*
X7312500Y3184973D02*
X7165500Y3037973D01*
X7290973Y3059500D02*
X7290973Y3163446D01*
X7187027Y3163446D01*
X7187027Y3059500D01*
X7290973Y3059500D01*
X7165500Y1279973D02*
X7312500Y1132973D01*
X7312500Y1279973D02*
X7165500Y1132973D01*
X7290973Y1154500D02*
X7290973Y1258446D01*
X7187027Y1258446D01*
X7187027Y1154500D01*
X7290973Y1154500D01*
X7403625Y1280000D02*
X7550625Y1133000D01*
X7550625Y1280000D02*
X7403625Y1133000D01*
X7529098Y1154527D02*
X7529098Y1258473D01*
X7425152Y1258473D01*
X7425152Y1154527D01*
X7529098Y1154527D01*
X7800500Y3438973D02*
X7947500Y3291973D01*
X7947500Y3438973D02*
X7800500Y3291973D01*
X7925973Y3313500D02*
X7925973Y3417446D01*
X7822027Y3417446D01*
X7822027Y3313500D01*
X7925973Y3313500D01*
X7800500Y1533973D02*
X7947500Y1386973D01*
X7947500Y1533973D02*
X7800500Y1386973D01*
X7925973Y1408500D02*
X7925973Y1512446D01*
X7822027Y1512446D01*
X7822027Y1408500D01*
X7925973Y1408500D01*
X8038625Y1534000D02*
X8185625Y1387000D01*
X8185625Y1534000D02*
X8038625Y1387000D01*
X8164098Y1408527D02*
X8164098Y1512473D01*
X8060152Y1512473D01*
X8060152Y1408527D01*
X8164098Y1408527D01*
X8118000Y6994973D02*
X8265000Y6847973D01*
X8265000Y6994973D02*
X8118000Y6847973D01*
X8243473Y6869500D02*
X8243473Y6973446D01*
X8139527Y6973446D01*
X8139527Y6869500D01*
X8243473Y6869500D01*
X8118000Y5089973D02*
X8265000Y4942973D01*
X8265000Y5089973D02*
X8118000Y4942973D01*
X8243473Y4964500D02*
X8243473Y5068446D01*
X8139527Y5068446D01*
X8139527Y4964500D01*
X8243473Y4964500D01*
X8753000Y7248973D02*
X8900000Y7101973D01*
X8900000Y7248973D02*
X8753000Y7101973D01*
X8878473Y7123500D02*
X8878473Y7227446D01*
X8774527Y7227446D01*
X8774527Y7123500D01*
X8878473Y7123500D01*
X8753000Y5343973D02*
X8900000Y5196973D01*
X8900000Y5343973D02*
X8753000Y5196973D01*
X8878473Y5218500D02*
X8878473Y5322446D01*
X8774527Y5322446D01*
X8774527Y5218500D01*
X8878473Y5218500D01*
X9070500Y3184973D02*
X9217500Y3037973D01*
X9217500Y3184973D02*
X9070500Y3037973D01*
X9195973Y3059500D02*
X9195973Y3163446D01*
X9092027Y3163446D01*
X9092027Y3059500D01*
X9195973Y3059500D01*
X9070510Y1279992D02*
X9217510Y1132992D01*
X9217510Y1279992D02*
X9070510Y1132992D01*
X9195983Y1154519D02*
X9195983Y1258465D01*
X9092037Y1258465D01*
X9092037Y1154519D01*
X9195983Y1154519D01*
X9705500Y3438973D02*
X9852500Y3291973D01*
X9852500Y3438973D02*
X9705500Y3291973D01*
X9830973Y3313500D02*
X9830973Y3417446D01*
X9727027Y3417446D01*
X9727027Y3313500D01*
X9830973Y3313500D01*
X9705510Y1533992D02*
X9852510Y1386992D01*
X9852510Y1533992D02*
X9705510Y1386992D01*
X9830983Y1408519D02*
X9830983Y1512465D01*
X9727037Y1512465D01*
X9727037Y1408519D01*
X9830983Y1408519D01*
X10023000Y6994973D02*
X10170000Y6847973D01*
X10170000Y6994973D02*
X10023000Y6847973D01*
X10148473Y6869500D02*
X10148473Y6973446D01*
X10044527Y6973446D01*
X10044527Y6869500D01*
X10148473Y6869500D01*
X10023000Y5089973D02*
X10170000Y4942973D01*
X10170000Y5089973D02*
X10023000Y4942973D01*
X10148473Y4964500D02*
X10148473Y5068446D01*
X10044527Y5068446D01*
X10044527Y4964500D01*
X10148473Y4964500D01*
X10023000Y1279973D02*
X10170000Y1132973D01*
X10170000Y1279973D02*
X10023000Y1132973D01*
X10148473Y1154500D02*
X10148473Y1258446D01*
X10044527Y1258446D01*
X10044527Y1154500D01*
X10148473Y1154500D01*
X10261125Y1280000D02*
X10408125Y1133000D01*
X10408125Y1280000D02*
X10261125Y1133000D01*
X10386598Y1154527D02*
X10386598Y1258473D01*
X10282652Y1258473D01*
X10282652Y1154527D01*
X10386598Y1154527D01*
X10658000Y7248973D02*
X10805000Y7101973D01*
X10805000Y7248973D02*
X10658000Y7101973D01*
X10783473Y7123500D02*
X10783473Y7227446D01*
X10679527Y7227446D01*
X10679527Y7123500D01*
X10783473Y7123500D01*
X10658000Y5343973D02*
X10805000Y5196973D01*
X10805000Y5343973D02*
X10658000Y5196973D01*
X10783473Y5218500D02*
X10783473Y5322446D01*
X10679527Y5322446D01*
X10679527Y5218500D01*
X10783473Y5218500D01*
X10658000Y1533973D02*
X10805000Y1386973D01*
X10805000Y1533973D02*
X10658000Y1386973D01*
X10783473Y1408500D02*
X10783473Y1512446D01*
X10679527Y1512446D01*
X10679527Y1408500D01*
X10783473Y1408500D01*
X10896125Y1534000D02*
X11043125Y1387000D01*
X11043125Y1534000D02*
X10896125Y1387000D01*
X11021598Y1408527D02*
X11021598Y1512473D01*
X10917652Y1512473D01*
X10917652Y1408527D01*
X11021598Y1408527D01*
X10975500Y3184973D02*
X11122500Y3037973D01*
X11122500Y3184973D02*
X10975500Y3037973D01*
X11100973Y3059500D02*
X11100973Y3163446D01*
X10997027Y3163446D01*
X10997027Y3059500D01*
X11100973Y3059500D01*
X11610500Y3438973D02*
X11757500Y3291973D01*
X11757500Y3438973D02*
X11610500Y3291973D01*
X11735973Y3313500D02*
X11735973Y3417446D01*
X11632027Y3417446D01*
X11632027Y3313500D01*
X11735973Y3313500D01*
X11928013Y1279992D02*
X12075013Y1132992D01*
X12075013Y1279992D02*
X11928013Y1132992D01*
X12053485Y1154519D02*
X12053485Y1258465D01*
X11949540Y1258465D01*
X11949540Y1154519D01*
X12053485Y1154519D01*
X12563013Y1533992D02*
X12710013Y1386992D01*
X12710013Y1533992D02*
X12563013Y1386992D01*
X12688485Y1408519D02*
X12688485Y1512465D01*
X12584540Y1512465D01*
X12584540Y1408519D01*
X12688485Y1408519D01*
X12880500Y3184973D02*
X13027500Y3037973D01*
X13027500Y3184973D02*
X12880500Y3037973D01*
X13005973Y3059500D02*
X13005973Y3163446D01*
X12902027Y3163446D01*
X12902027Y3059500D01*
X13005973Y3059500D01*
X13515500Y3438973D02*
X13662500Y3291973D01*
X13662500Y3438973D02*
X13515500Y3291973D01*
X13640973Y3313500D02*
X13640973Y3417446D01*
X13537027Y3417446D01*
X13537027Y3313500D01*
X13640973Y3313500D01*
X13594875Y1279973D02*
X13741875Y1132973D01*
X13741875Y1279973D02*
X13594875Y1132973D01*
X13720348Y1154500D02*
X13720348Y1258446D01*
X13616402Y1258446D01*
X13616402Y1154500D01*
X13720348Y1154500D01*
X13833000Y6994973D02*
X13980000Y6847973D01*
X13980000Y6994973D02*
X13833000Y6847973D01*
X13958473Y6869500D02*
X13958473Y6973446D01*
X13854527Y6973446D01*
X13854527Y6869500D01*
X13958473Y6869500D01*
X13833000Y5089973D02*
X13980000Y4942973D01*
X13980000Y5089973D02*
X13833000Y4942973D01*
X13958473Y4964500D02*
X13958473Y5068446D01*
X13854527Y5068446D01*
X13854527Y4964500D01*
X13958473Y4964500D01*
X13833000Y1280000D02*
X13980000Y1133000D01*
X13980000Y1280000D02*
X13833000Y1133000D01*
X13958473Y1154527D02*
X13958473Y1258473D01*
X13854527Y1258473D01*
X13854527Y1154527D01*
X13958473Y1154527D01*
X14229875Y1533973D02*
X14376875Y1386973D01*
X14376875Y1533973D02*
X14229875Y1386973D01*
X14355348Y1408500D02*
X14355348Y1512446D01*
X14251402Y1512446D01*
X14251402Y1408500D01*
X14355348Y1408500D01*
X14468000Y7248973D02*
X14615000Y7101973D01*
X14615000Y7248973D02*
X14468000Y7101973D01*
X14593473Y7123500D02*
X14593473Y7227446D01*
X14489527Y7227446D01*
X14489527Y7123500D01*
X14593473Y7123500D01*
X14468000Y5343973D02*
X14615000Y5196973D01*
X14615000Y5343973D02*
X14468000Y5196973D01*
X14593473Y5218500D02*
X14593473Y5322446D01*
X14489527Y5322446D01*
X14489527Y5218500D01*
X14593473Y5218500D01*
X14468000Y1534000D02*
X14615000Y1387000D01*
X14615000Y1534000D02*
X14468000Y1387000D01*
X14593473Y1408527D02*
X14593473Y1512473D01*
X14489527Y1512473D01*
X14489527Y1408527D01*
X14593473Y1408527D01*
X14785500Y3184973D02*
X14932500Y3037973D01*
X14932500Y3184973D02*
X14785500Y3037973D01*
X14910973Y3059500D02*
X14910973Y3163446D01*
X14807027Y3163446D01*
X14807027Y3059500D01*
X14910973Y3059500D01*
X14785515Y1279992D02*
X14932515Y1132992D01*
X14932515Y1279992D02*
X14785515Y1132992D01*
X14910988Y1154519D02*
X14910988Y1258465D01*
X14807042Y1258465D01*
X14807042Y1154519D01*
X14910988Y1154519D01*
X15420500Y3438973D02*
X15567500Y3291973D01*
X15567500Y3438973D02*
X15420500Y3291973D01*
X15545973Y3313500D02*
X15545973Y3417446D01*
X15442027Y3417446D01*
X15442027Y3313500D01*
X15545973Y3313500D01*
X15420515Y1533992D02*
X15567515Y1386992D01*
X15567515Y1533992D02*
X15420515Y1386992D01*
X15545988Y1408519D02*
X15545988Y1512465D01*
X15442042Y1512465D01*
X15442042Y1408519D01*
X15545988Y1408519D01*
X15738000Y6994973D02*
X15885000Y6847973D01*
X15885000Y6994973D02*
X15738000Y6847973D01*
X15863473Y6869500D02*
X15863473Y6973446D01*
X15759527Y6973446D01*
X15759527Y6869500D01*
X15863473Y6869500D01*
X15738000Y5089973D02*
X15885000Y4942973D01*
X15885000Y5089973D02*
X15738000Y4942973D01*
X15863473Y4964500D02*
X15863473Y5068446D01*
X15759527Y5068446D01*
X15759527Y4964500D01*
X15863473Y4964500D01*
X16373000Y7248973D02*
X16520000Y7101973D01*
X16520000Y7248973D02*
X16373000Y7101973D01*
X16498473Y7123500D02*
X16498473Y7227446D01*
X16394527Y7227446D01*
X16394527Y7123500D01*
X16498473Y7123500D01*
X16373000Y5343973D02*
X16520000Y5196973D01*
X16520000Y5343973D02*
X16373000Y5196973D01*
X16498473Y5218500D02*
X16498473Y5322446D01*
X16394527Y5322446D01*
X16394527Y5218500D01*
X16498473Y5218500D01*
X16452375Y1279992D02*
X16599375Y1132992D01*
X16599375Y1279992D02*
X16452375Y1132992D01*
X16577848Y1154519D02*
X16577848Y1258465D01*
X16473902Y1258465D01*
X16473902Y1154519D01*
X16577848Y1154519D01*
X16690500Y3184973D02*
X16837500Y3037973D01*
X16837500Y3184973D02*
X16690500Y3037973D01*
X16815973Y3059500D02*
X16815973Y3163446D01*
X16712027Y3163446D01*
X16712027Y3059500D01*
X16815973Y3059500D01*
X16690517Y1279992D02*
X16837517Y1132992D01*
X16837517Y1279992D02*
X16690517Y1132992D01*
X16815989Y1154519D02*
X16815989Y1258465D01*
X16712044Y1258465D01*
X16712044Y1154519D01*
X16815989Y1154519D01*
X17087375Y1533992D02*
X17234375Y1386992D01*
X17234375Y1533992D02*
X17087375Y1386992D01*
X17212848Y1408519D02*
X17212848Y1512465D01*
X17108902Y1512465D01*
X17108902Y1408519D01*
X17212848Y1408519D01*
X17325500Y3438973D02*
X17472500Y3291973D01*
X17472500Y3438973D02*
X17325500Y3291973D01*
X17450973Y3313500D02*
X17450973Y3417446D01*
X17347027Y3417446D01*
X17347027Y3313500D01*
X17450973Y3313500D01*
X17325517Y1533992D02*
X17472517Y1386992D01*
X17472517Y1533992D02*
X17325517Y1386992D01*
X17450989Y1408519D02*
X17450989Y1512465D01*
X17347044Y1512465D01*
X17347044Y1408519D01*
X17450989Y1408519D01*
X17643000Y6994973D02*
X17790000Y6847973D01*
X17790000Y6994973D02*
X17643000Y6847973D01*
X17768473Y6869500D02*
X17768473Y6973446D01*
X17664527Y6973446D01*
X17664527Y6869500D01*
X17768473Y6869500D01*
X17643000Y5089973D02*
X17790000Y4942973D01*
X17790000Y5089973D02*
X17643000Y4942973D01*
X17768473Y4964500D02*
X17768473Y5068446D01*
X17664527Y5068446D01*
X17664527Y4964500D01*
X17768473Y4964500D01*
X18278000Y7248973D02*
X18425000Y7101973D01*
X18425000Y7248973D02*
X18278000Y7101973D01*
X18403473Y7123500D02*
X18403473Y7227446D01*
X18299527Y7227446D01*
X18299527Y7123500D01*
X18403473Y7123500D01*
X18278000Y5343973D02*
X18425000Y5196973D01*
X18425000Y5343973D02*
X18278000Y5196973D01*
X18403473Y5218500D02*
X18403473Y5322446D01*
X18299527Y5322446D01*
X18299527Y5218500D01*
X18403473Y5218500D01*
X18595500Y3184973D02*
X18742500Y3037973D01*
X18742500Y3184973D02*
X18595500Y3037973D01*
X18720973Y3059500D02*
X18720973Y3163446D01*
X18617027Y3163446D01*
X18617027Y3059500D01*
X18720973Y3059500D01*
X18833643Y1279992D02*
X18980643Y1132992D01*
X18980643Y1279992D02*
X18833643Y1132992D01*
X18959116Y1154519D02*
X18959116Y1258465D01*
X18855171Y1258465D01*
X18855171Y1154519D01*
X18959116Y1154519D01*
X19230500Y3438973D02*
X19377500Y3291973D01*
X19377500Y3438973D02*
X19230500Y3291973D01*
X19355973Y3313500D02*
X19355973Y3417446D01*
X19252027Y3417446D01*
X19252027Y3313500D01*
X19355973Y3313500D01*
X19468643Y1533992D02*
X19615643Y1386992D01*
X19615643Y1533992D02*
X19468643Y1386992D01*
X19594116Y1408519D02*
X19594116Y1512465D01*
X19490171Y1512465D01*
X19490171Y1408519D01*
X19594116Y1408519D01*
X19548000Y6994973D02*
X19695000Y6847973D01*
X19695000Y6994973D02*
X19548000Y6847973D01*
X19673473Y6869500D02*
X19673473Y6973446D01*
X19569527Y6973446D01*
X19569527Y6869500D01*
X19673473Y6869500D01*
X19548000Y5089973D02*
X19695000Y4942973D01*
X19695000Y5089973D02*
X19548000Y4942973D01*
X19673473Y4964500D02*
X19673473Y5068446D01*
X19569527Y5068446D01*
X19569527Y4964500D01*
X19673473Y4964500D01*
X20183000Y7248973D02*
X20330000Y7101973D01*
X20330000Y7248973D02*
X20183000Y7101973D01*
X20308473Y7123500D02*
X20308473Y7227446D01*
X20204527Y7227446D01*
X20204527Y7123500D01*
X20308473Y7123500D01*
X20183000Y5343973D02*
X20330000Y5196973D01*
X20330000Y5343973D02*
X20183000Y5196973D01*
X20308473Y5218500D02*
X20308473Y5322446D01*
X20204527Y5322446D01*
X20204527Y5218500D01*
X20308473Y5218500D01*
X20500500Y3184973D02*
X20647500Y3037973D01*
X20647500Y3184973D02*
X20500500Y3037973D01*
X20625973Y3059500D02*
X20625973Y3163446D01*
X20522027Y3163446D01*
X20522027Y3059500D01*
X20625973Y3059500D01*
X20976770Y1279992D02*
X21123770Y1132992D01*
X21123770Y1279992D02*
X20976770Y1132992D01*
X21102243Y1154519D02*
X21102243Y1258465D01*
X20998297Y1258465D01*
X20998297Y1154519D01*
X21102243Y1154519D01*
X21135500Y3438973D02*
X21282500Y3291973D01*
X21282500Y3438973D02*
X21135500Y3291973D01*
X21260973Y3313500D02*
X21260973Y3417446D01*
X21157027Y3417446D01*
X21157027Y3313500D01*
X21260973Y3313500D01*
X21453000Y6994973D02*
X21600000Y6847973D01*
X21600000Y6994973D02*
X21453000Y6847973D01*
X21578473Y6869500D02*
X21578473Y6973446D01*
X21474527Y6973446D01*
X21474527Y6869500D01*
X21578473Y6869500D01*
X21453000Y5089973D02*
X21600000Y4942973D01*
X21600000Y5089973D02*
X21453000Y4942973D01*
X21578473Y4964500D02*
X21578473Y5068446D01*
X21474527Y5068446D01*
X21474527Y4964500D01*
X21578473Y4964500D01*
X21611770Y1533992D02*
X21758770Y1386992D01*
X21758770Y1533992D02*
X21611770Y1386992D01*
X21737243Y1408519D02*
X21737243Y1512465D01*
X21633297Y1512465D01*
X21633297Y1408519D01*
X21737243Y1408519D01*
X22088000Y7248973D02*
X22235000Y7101973D01*
X22235000Y7248973D02*
X22088000Y7101973D01*
X22213473Y7123500D02*
X22213473Y7227446D01*
X22109527Y7227446D01*
X22109527Y7123500D01*
X22213473Y7123500D01*
X22088000Y5343973D02*
X22235000Y5196973D01*
X22235000Y5343973D02*
X22088000Y5196973D01*
X22213473Y5218500D02*
X22213473Y5322446D01*
X22109527Y5322446D01*
X22109527Y5218500D01*
X22213473Y5218500D01*
X22881750Y3184973D02*
X23028750Y3037973D01*
X23028750Y3184973D02*
X22881750Y3037973D01*
X23007223Y3059500D02*
X23007223Y3163446D01*
X22903277Y3163446D01*
X22903277Y3059500D01*
X23007223Y3059500D01*
X23358000Y6994973D02*
X23505000Y6847973D01*
X23505000Y6994973D02*
X23358000Y6847973D01*
X23483473Y6869500D02*
X23483473Y6973446D01*
X23379527Y6973446D01*
X23379527Y6869500D01*
X23483473Y6869500D01*
X23358000Y5089973D02*
X23505000Y4942973D01*
X23505000Y5089973D02*
X23358000Y4942973D01*
X23483473Y4964500D02*
X23483473Y5068446D01*
X23379527Y5068446D01*
X23379527Y4964500D01*
X23483473Y4964500D01*
X23516750Y3438973D02*
X23663750Y3291973D01*
X23663750Y3438973D02*
X23516750Y3291973D01*
X23642223Y3313500D02*
X23642223Y3417446D01*
X23538277Y3417446D01*
X23538277Y3313500D01*
X23642223Y3313500D01*
X23993000Y7248973D02*
X24140000Y7101973D01*
X24140000Y7248973D02*
X23993000Y7101973D01*
X24118473Y7123500D02*
X24118473Y7227446D01*
X24014527Y7227446D01*
X24014527Y7123500D01*
X24118473Y7123500D01*
X23993000Y5343973D02*
X24140000Y5196973D01*
X24140000Y5343973D02*
X23993000Y5196973D01*
X24118473Y5218500D02*
X24118473Y5322446D01*
X24014527Y5322446D01*
X24014527Y5218500D01*
X24118473Y5218500D01*
D11*
X255781Y-316529D02*
X255781Y-116529D01*
X255781Y-116529D02*
X303400Y-116529D01*
X303400Y-116529D02*
X331971Y-126053D01*
X331971Y-126053D02*
X351019Y-145100D01*
X351019Y-145100D02*
X360543Y-164148D01*
X360543Y-164148D02*
X370066Y-202243D01*
X370066Y-202243D02*
X370066Y-230814D01*
X370066Y-230814D02*
X360543Y-268910D01*
X360543Y-268910D02*
X351019Y-287957D01*
X351019Y-287957D02*
X331971Y-307005D01*
X331971Y-307005D02*
X303400Y-316529D01*
X303400Y-316529D02*
X255781Y-316529D01*
X455781Y-316529D02*
X455781Y-183195D01*
X455781Y-221291D02*
X465305Y-202243D01*
X465305Y-202243D02*
X474828Y-192719D01*
X474828Y-192719D02*
X493876Y-183195D01*
X493876Y-183195D02*
X512924Y-183195D01*
X579590Y-316529D02*
X579590Y-183195D01*
X579590Y-116529D02*
X570067Y-126053D01*
X570067Y-126053D02*
X579590Y-135576D01*
X579590Y-135576D02*
X589114Y-126053D01*
X589114Y-126053D02*
X579590Y-116529D01*
X579590Y-116529D02*
X579590Y-135576D01*
X703400Y-316529D02*
X684352Y-307005D01*
X684352Y-307005D02*
X674828Y-287957D01*
X674828Y-287957D02*
X674828Y-116529D01*
X808162Y-316529D02*
X789114Y-307005D01*
X789114Y-307005D02*
X779590Y-287957D01*
X779590Y-287957D02*
X779590Y-116529D01*
X1036733Y-316529D02*
X1036733Y-116529D01*
X1036733Y-116529D02*
X1103400Y-259386D01*
X1103400Y-259386D02*
X1170067Y-116529D01*
X1170067Y-116529D02*
X1170067Y-316529D01*
X1351019Y-316529D02*
X1351019Y-211767D01*
X1351019Y-211767D02*
X1341495Y-192719D01*
X1341495Y-192719D02*
X1322448Y-183195D01*
X1322448Y-183195D02*
X1284352Y-183195D01*
X1284352Y-183195D02*
X1265305Y-192719D01*
X1351019Y-307005D02*
X1331971Y-316529D01*
X1331971Y-316529D02*
X1284352Y-316529D01*
X1284352Y-316529D02*
X1265305Y-307005D01*
X1265305Y-307005D02*
X1255781Y-287957D01*
X1255781Y-287957D02*
X1255781Y-268910D01*
X1255781Y-268910D02*
X1265305Y-249862D01*
X1265305Y-249862D02*
X1284352Y-240338D01*
X1284352Y-240338D02*
X1331971Y-240338D01*
X1331971Y-240338D02*
X1351019Y-230814D01*
X1446257Y-183195D02*
X1446257Y-383195D01*
X1446257Y-192719D02*
X1465305Y-183195D01*
X1465305Y-183195D02*
X1503400Y-183195D01*
X1503400Y-183195D02*
X1522447Y-192719D01*
X1522447Y-192719D02*
X1531971Y-202243D01*
X1531971Y-202243D02*
X1541495Y-221291D01*
X1541495Y-221291D02*
X1541495Y-278434D01*
X1541495Y-278434D02*
X1531971Y-297481D01*
X1531971Y-297481D02*
X1522447Y-307005D01*
X1522447Y-307005D02*
X1503400Y-316529D01*
X1503400Y-316529D02*
X1465305Y-316529D01*
X1465305Y-316529D02*
X1446257Y-307005D01*
X1627209Y-297481D02*
X1636733Y-307005D01*
X1636733Y-307005D02*
X1627209Y-316529D01*
X1627209Y-316529D02*
X1617686Y-307005D01*
X1617686Y-307005D02*
X1627209Y-297481D01*
X1627209Y-297481D02*
X1627209Y-316529D01*
X1627209Y-192719D02*
X1636733Y-202243D01*
X1636733Y-202243D02*
X1627209Y-211767D01*
X1627209Y-211767D02*
X1617686Y-202243D01*
X1617686Y-202243D02*
X1627209Y-192719D01*
X1627209Y-192719D02*
X1627209Y-211767D01*
D12*
X-24996Y-635045D02*
X-4996Y-655045D01*
X-4996Y-635045D02*
X-24996Y-655045D01*
D11*
X293876Y-536529D02*
X312924Y-536529D01*
X312924Y-536529D02*
X331971Y-546053D01*
X331971Y-546053D02*
X341495Y-555576D01*
X341495Y-555576D02*
X351019Y-574624D01*
X351019Y-574624D02*
X360543Y-612719D01*
X360543Y-612719D02*
X360543Y-660338D01*
X360543Y-660338D02*
X351019Y-698434D01*
X351019Y-698434D02*
X341495Y-717481D01*
X341495Y-717481D02*
X331971Y-727005D01*
X331971Y-727005D02*
X312924Y-736529D01*
X312924Y-736529D02*
X293876Y-736529D01*
X293876Y-736529D02*
X274828Y-727005D01*
X274828Y-727005D02*
X265305Y-717481D01*
X265305Y-717481D02*
X255781Y-698434D01*
X255781Y-698434D02*
X246257Y-660338D01*
X246257Y-660338D02*
X246257Y-612719D01*
X246257Y-612719D02*
X255781Y-574624D01*
X255781Y-574624D02*
X265305Y-555576D01*
X265305Y-555576D02*
X274828Y-546053D01*
X274828Y-546053D02*
X293876Y-536529D01*
X446257Y-717481D02*
X455781Y-727005D01*
X455781Y-727005D02*
X446257Y-736529D01*
X446257Y-736529D02*
X436733Y-727005D01*
X436733Y-727005D02*
X446257Y-717481D01*
X446257Y-717481D02*
X446257Y-736529D01*
X531971Y-555576D02*
X541495Y-546053D01*
X541495Y-546053D02*
X560543Y-536529D01*
X560543Y-536529D02*
X608162Y-536529D01*
X608162Y-536529D02*
X627209Y-546053D01*
X627209Y-546053D02*
X636733Y-555576D01*
X636733Y-555576D02*
X646257Y-574624D01*
X646257Y-574624D02*
X646257Y-593672D01*
X646257Y-593672D02*
X636733Y-622243D01*
X636733Y-622243D02*
X522447Y-736529D01*
X522447Y-736529D02*
X646257Y-736529D01*
X770066Y-536529D02*
X789114Y-536529D01*
X789114Y-536529D02*
X808162Y-546053D01*
X808162Y-546053D02*
X817686Y-555576D01*
X817686Y-555576D02*
X827209Y-574624D01*
X827209Y-574624D02*
X836733Y-612719D01*
X836733Y-612719D02*
X836733Y-660338D01*
X836733Y-660338D02*
X827209Y-698434D01*
X827209Y-698434D02*
X817686Y-717481D01*
X817686Y-717481D02*
X808162Y-727005D01*
X808162Y-727005D02*
X789114Y-736529D01*
X789114Y-736529D02*
X770066Y-736529D01*
X770066Y-736529D02*
X751019Y-727005D01*
X751019Y-727005D02*
X741495Y-717481D01*
X741495Y-717481D02*
X731971Y-698434D01*
X731971Y-698434D02*
X722447Y-660338D01*
X722447Y-660338D02*
X722447Y-612719D01*
X722447Y-612719D02*
X731971Y-574624D01*
X731971Y-574624D02*
X741495Y-555576D01*
X741495Y-555576D02*
X751019Y-546053D01*
X751019Y-546053D02*
X770066Y-536529D01*
X960543Y-536529D02*
X979590Y-536529D01*
X979590Y-536529D02*
X998638Y-546053D01*
X998638Y-546053D02*
X1008162Y-555576D01*
X1008162Y-555576D02*
X1017686Y-574624D01*
X1017686Y-574624D02*
X1027209Y-612719D01*
X1027209Y-612719D02*
X1027209Y-660338D01*
X1027209Y-660338D02*
X1017686Y-698434D01*
X1017686Y-698434D02*
X1008162Y-717481D01*
X1008162Y-717481D02*
X998638Y-727005D01*
X998638Y-727005D02*
X979590Y-736529D01*
X979590Y-736529D02*
X960543Y-736529D01*
X960543Y-736529D02*
X941495Y-727005D01*
X941495Y-727005D02*
X931971Y-717481D01*
X931971Y-717481D02*
X922447Y-698434D01*
X922447Y-698434D02*
X912924Y-660338D01*
X912924Y-660338D02*
X912924Y-612719D01*
X912924Y-612719D02*
X922447Y-574624D01*
X922447Y-574624D02*
X931971Y-555576D01*
X931971Y-555576D02*
X941495Y-546053D01*
X941495Y-546053D02*
X960543Y-536529D01*
X1112924Y-736529D02*
X1112924Y-603195D01*
X1112924Y-622243D02*
X1122448Y-612719D01*
X1122448Y-612719D02*
X1141495Y-603195D01*
X1141495Y-603195D02*
X1170067Y-603195D01*
X1170067Y-603195D02*
X1189114Y-612719D01*
X1189114Y-612719D02*
X1198638Y-631767D01*
X1198638Y-631767D02*
X1198638Y-736529D01*
X1198638Y-631767D02*
X1208162Y-612719D01*
X1208162Y-612719D02*
X1227209Y-603195D01*
X1227209Y-603195D02*
X1255781Y-603195D01*
X1255781Y-603195D02*
X1274829Y-612719D01*
X1274829Y-612719D02*
X1284352Y-631767D01*
X1284352Y-631767D02*
X1284352Y-736529D01*
X1379590Y-736529D02*
X1379590Y-603195D01*
X1379590Y-622243D02*
X1389114Y-612719D01*
X1389114Y-612719D02*
X1408162Y-603195D01*
X1408162Y-603195D02*
X1436733Y-603195D01*
X1436733Y-603195D02*
X1455781Y-612719D01*
X1455781Y-612719D02*
X1465305Y-631767D01*
X1465305Y-631767D02*
X1465305Y-736529D01*
X1465305Y-631767D02*
X1474828Y-612719D01*
X1474828Y-612719D02*
X1493876Y-603195D01*
X1493876Y-603195D02*
X1522447Y-603195D01*
X1522447Y-603195D02*
X1541495Y-612719D01*
X1541495Y-612719D02*
X1551019Y-631767D01*
X1551019Y-631767D02*
X1551019Y-736529D01*
X1941495Y-527005D02*
X1770067Y-784148D01*
X2198638Y-536529D02*
X2217686Y-536529D01*
X2217686Y-536529D02*
X2236733Y-546053D01*
X2236733Y-546053D02*
X2246257Y-555576D01*
X2246257Y-555576D02*
X2255781Y-574624D01*
X2255781Y-574624D02*
X2265305Y-612719D01*
X2265305Y-612719D02*
X2265305Y-660338D01*
X2265305Y-660338D02*
X2255781Y-698434D01*
X2255781Y-698434D02*
X2246257Y-717481D01*
X2246257Y-717481D02*
X2236733Y-727005D01*
X2236733Y-727005D02*
X2217686Y-736529D01*
X2217686Y-736529D02*
X2198638Y-736529D01*
X2198638Y-736529D02*
X2179591Y-727005D01*
X2179591Y-727005D02*
X2170067Y-717481D01*
X2170067Y-717481D02*
X2160543Y-698434D01*
X2160543Y-698434D02*
X2151019Y-660338D01*
X2151019Y-660338D02*
X2151019Y-612719D01*
X2151019Y-612719D02*
X2160543Y-574624D01*
X2160543Y-574624D02*
X2170067Y-555576D01*
X2170067Y-555576D02*
X2179591Y-546053D01*
X2179591Y-546053D02*
X2198638Y-536529D01*
X2351019Y-717481D02*
X2360543Y-727005D01*
X2360543Y-727005D02*
X2351019Y-736529D01*
X2351019Y-736529D02*
X2341495Y-727005D01*
X2341495Y-727005D02*
X2351019Y-717481D01*
X2351019Y-717481D02*
X2351019Y-736529D01*
X2484352Y-536529D02*
X2503400Y-536529D01*
X2503400Y-536529D02*
X2522448Y-546053D01*
X2522448Y-546053D02*
X2531972Y-555576D01*
X2531972Y-555576D02*
X2541495Y-574624D01*
X2541495Y-574624D02*
X2551019Y-612719D01*
X2551019Y-612719D02*
X2551019Y-660338D01*
X2551019Y-660338D02*
X2541495Y-698434D01*
X2541495Y-698434D02*
X2531972Y-717481D01*
X2531972Y-717481D02*
X2522448Y-727005D01*
X2522448Y-727005D02*
X2503400Y-736529D01*
X2503400Y-736529D02*
X2484352Y-736529D01*
X2484352Y-736529D02*
X2465305Y-727005D01*
X2465305Y-727005D02*
X2455781Y-717481D01*
X2455781Y-717481D02*
X2446257Y-698434D01*
X2446257Y-698434D02*
X2436733Y-660338D01*
X2436733Y-660338D02*
X2436733Y-612719D01*
X2436733Y-612719D02*
X2446257Y-574624D01*
X2446257Y-574624D02*
X2455781Y-555576D01*
X2455781Y-555576D02*
X2465305Y-546053D01*
X2465305Y-546053D02*
X2484352Y-536529D01*
X2674829Y-536529D02*
X2693876Y-536529D01*
X2693876Y-536529D02*
X2712924Y-546053D01*
X2712924Y-546053D02*
X2722448Y-555576D01*
X2722448Y-555576D02*
X2731972Y-574624D01*
X2731972Y-574624D02*
X2741495Y-612719D01*
X2741495Y-612719D02*
X2741495Y-660338D01*
X2741495Y-660338D02*
X2731972Y-698434D01*
X2731972Y-698434D02*
X2722448Y-717481D01*
X2722448Y-717481D02*
X2712924Y-727005D01*
X2712924Y-727005D02*
X2693876Y-736529D01*
X2693876Y-736529D02*
X2674829Y-736529D01*
X2674829Y-736529D02*
X2655781Y-727005D01*
X2655781Y-727005D02*
X2646257Y-717481D01*
X2646257Y-717481D02*
X2636733Y-698434D01*
X2636733Y-698434D02*
X2627210Y-660338D01*
X2627210Y-660338D02*
X2627210Y-612719D01*
X2627210Y-612719D02*
X2636733Y-574624D01*
X2636733Y-574624D02*
X2646257Y-555576D01*
X2646257Y-555576D02*
X2655781Y-546053D01*
X2655781Y-546053D02*
X2674829Y-536529D01*
X2808162Y-536529D02*
X2941495Y-536529D01*
X2941495Y-536529D02*
X2855781Y-736529D01*
X3027210Y-736529D02*
X3065305Y-736529D01*
X3065305Y-736529D02*
X3084352Y-727005D01*
X3084352Y-727005D02*
X3093876Y-717481D01*
X3093876Y-717481D02*
X3112924Y-688910D01*
X3112924Y-688910D02*
X3122448Y-650815D01*
X3122448Y-650815D02*
X3122448Y-574624D01*
X3122448Y-574624D02*
X3112924Y-555576D01*
X3112924Y-555576D02*
X3103400Y-546053D01*
X3103400Y-546053D02*
X3084352Y-536529D01*
X3084352Y-536529D02*
X3046257Y-536529D01*
X3046257Y-536529D02*
X3027210Y-546053D01*
X3027210Y-546053D02*
X3017686Y-555576D01*
X3017686Y-555576D02*
X3008162Y-574624D01*
X3008162Y-574624D02*
X3008162Y-622243D01*
X3008162Y-622243D02*
X3017686Y-641291D01*
X3017686Y-641291D02*
X3027210Y-650815D01*
X3027210Y-650815D02*
X3046257Y-660338D01*
X3046257Y-660338D02*
X3084352Y-660338D01*
X3084352Y-660338D02*
X3103400Y-650815D01*
X3103400Y-650815D02*
X3112924Y-641291D01*
X3112924Y-641291D02*
X3122448Y-622243D01*
X3198638Y-536529D02*
X3198638Y-574624D01*
X3274829Y-536529D02*
X3274829Y-574624D01*
X3570067Y-812719D02*
X3560543Y-803195D01*
X3560543Y-803195D02*
X3541495Y-774624D01*
X3541495Y-774624D02*
X3531972Y-755576D01*
X3531972Y-755576D02*
X3522448Y-727005D01*
X3522448Y-727005D02*
X3512924Y-679386D01*
X3512924Y-679386D02*
X3512924Y-641291D01*
X3512924Y-641291D02*
X3522448Y-593672D01*
X3522448Y-593672D02*
X3531972Y-565100D01*
X3531972Y-565100D02*
X3541495Y-546053D01*
X3541495Y-546053D02*
X3560543Y-517481D01*
X3560543Y-517481D02*
X3570067Y-507957D01*
X3636733Y-555576D02*
X3646257Y-546053D01*
X3646257Y-546053D02*
X3665305Y-536529D01*
X3665305Y-536529D02*
X3712924Y-536529D01*
X3712924Y-536529D02*
X3731972Y-546053D01*
X3731972Y-546053D02*
X3741495Y-555576D01*
X3741495Y-555576D02*
X3751019Y-574624D01*
X3751019Y-574624D02*
X3751019Y-593672D01*
X3751019Y-593672D02*
X3741495Y-622243D01*
X3741495Y-622243D02*
X3627210Y-736529D01*
X3627210Y-736529D02*
X3751019Y-736529D01*
X3931972Y-536529D02*
X3836733Y-536529D01*
X3836733Y-536529D02*
X3827210Y-631767D01*
X3827210Y-631767D02*
X3836733Y-622243D01*
X3836733Y-622243D02*
X3855781Y-612719D01*
X3855781Y-612719D02*
X3903400Y-612719D01*
X3903400Y-612719D02*
X3922448Y-622243D01*
X3922448Y-622243D02*
X3931972Y-631767D01*
X3931972Y-631767D02*
X3941495Y-650815D01*
X3941495Y-650815D02*
X3941495Y-698434D01*
X3941495Y-698434D02*
X3931972Y-717481D01*
X3931972Y-717481D02*
X3922448Y-727005D01*
X3922448Y-727005D02*
X3903400Y-736529D01*
X3903400Y-736529D02*
X3855781Y-736529D01*
X3855781Y-736529D02*
X3836733Y-727005D01*
X3836733Y-727005D02*
X3827210Y-717481D01*
X4179591Y-736529D02*
X4179591Y-536529D01*
X4265305Y-736529D02*
X4265305Y-631767D01*
X4265305Y-631767D02*
X4255781Y-612719D01*
X4255781Y-612719D02*
X4236734Y-603195D01*
X4236734Y-603195D02*
X4208162Y-603195D01*
X4208162Y-603195D02*
X4189114Y-612719D01*
X4189114Y-612719D02*
X4179591Y-622243D01*
X4389115Y-736529D02*
X4370067Y-727005D01*
X4370067Y-727005D02*
X4360543Y-717481D01*
X4360543Y-717481D02*
X4351019Y-698434D01*
X4351019Y-698434D02*
X4351019Y-641291D01*
X4351019Y-641291D02*
X4360543Y-622243D01*
X4360543Y-622243D02*
X4370067Y-612719D01*
X4370067Y-612719D02*
X4389115Y-603195D01*
X4389115Y-603195D02*
X4417686Y-603195D01*
X4417686Y-603195D02*
X4436734Y-612719D01*
X4436734Y-612719D02*
X4446257Y-622243D01*
X4446257Y-622243D02*
X4455781Y-641291D01*
X4455781Y-641291D02*
X4455781Y-698434D01*
X4455781Y-698434D02*
X4446257Y-717481D01*
X4446257Y-717481D02*
X4436734Y-727005D01*
X4436734Y-727005D02*
X4417686Y-736529D01*
X4417686Y-736529D02*
X4389115Y-736529D01*
X4570067Y-736529D02*
X4551019Y-727005D01*
X4551019Y-727005D02*
X4541496Y-707957D01*
X4541496Y-707957D02*
X4541496Y-536529D01*
X4722448Y-727005D02*
X4703400Y-736529D01*
X4703400Y-736529D02*
X4665305Y-736529D01*
X4665305Y-736529D02*
X4646257Y-727005D01*
X4646257Y-727005D02*
X4636734Y-707957D01*
X4636734Y-707957D02*
X4636734Y-631767D01*
X4636734Y-631767D02*
X4646257Y-612719D01*
X4646257Y-612719D02*
X4665305Y-603195D01*
X4665305Y-603195D02*
X4703400Y-603195D01*
X4703400Y-603195D02*
X4722448Y-612719D01*
X4722448Y-612719D02*
X4731972Y-631767D01*
X4731972Y-631767D02*
X4731972Y-650815D01*
X4731972Y-650815D02*
X4636734Y-669862D01*
X4808162Y-727005D02*
X4827210Y-736529D01*
X4827210Y-736529D02*
X4865305Y-736529D01*
X4865305Y-736529D02*
X4884353Y-727005D01*
X4884353Y-727005D02*
X4893877Y-707957D01*
X4893877Y-707957D02*
X4893877Y-698434D01*
X4893877Y-698434D02*
X4884353Y-679386D01*
X4884353Y-679386D02*
X4865305Y-669862D01*
X4865305Y-669862D02*
X4836734Y-669862D01*
X4836734Y-669862D02*
X4817686Y-660338D01*
X4817686Y-660338D02*
X4808162Y-641291D01*
X4808162Y-641291D02*
X4808162Y-631767D01*
X4808162Y-631767D02*
X4817686Y-612719D01*
X4817686Y-612719D02*
X4836734Y-603195D01*
X4836734Y-603195D02*
X4865305Y-603195D01*
X4865305Y-603195D02*
X4884353Y-612719D01*
X4960543Y-812719D02*
X4970067Y-803195D01*
X4970067Y-803195D02*
X4989115Y-774624D01*
X4989115Y-774624D02*
X4998638Y-755576D01*
X4998638Y-755576D02*
X5008162Y-727005D01*
X5008162Y-727005D02*
X5017686Y-679386D01*
X5017686Y-679386D02*
X5017686Y-641291D01*
X5017686Y-641291D02*
X5008162Y-593672D01*
X5008162Y-593672D02*
X4998638Y-565100D01*
X4998638Y-565100D02*
X4989115Y-546053D01*
X4989115Y-546053D02*
X4970067Y-517481D01*
X4970067Y-517481D02*
X4960543Y-507957D01*
D13*
X-4996Y-909045D02*
G75*
G03*
X-4996Y-909045I-15000J0D01*
G01*
D11*
X293876Y-800529D02*
X312924Y-800529D01*
X312924Y-800529D02*
X331971Y-810053D01*
X331971Y-810053D02*
X341495Y-819576D01*
X341495Y-819576D02*
X351019Y-838624D01*
X351019Y-838624D02*
X360543Y-876719D01*
X360543Y-876719D02*
X360543Y-924338D01*
X360543Y-924338D02*
X351019Y-962433D01*
X351019Y-962433D02*
X341495Y-981481D01*
X341495Y-981481D02*
X331971Y-991005D01*
X331971Y-991005D02*
X312924Y-1000529D01*
X312924Y-1000529D02*
X293876Y-1000529D01*
X293876Y-1000529D02*
X274828Y-991005D01*
X274828Y-991005D02*
X265305Y-981481D01*
X265305Y-981481D02*
X255781Y-962433D01*
X255781Y-962433D02*
X246257Y-924338D01*
X246257Y-924338D02*
X246257Y-876719D01*
X246257Y-876719D02*
X255781Y-838624D01*
X255781Y-838624D02*
X265305Y-819576D01*
X265305Y-819576D02*
X274828Y-810053D01*
X274828Y-810053D02*
X293876Y-800529D01*
X446257Y-981481D02*
X455781Y-991005D01*
X455781Y-991005D02*
X446257Y-1000529D01*
X446257Y-1000529D02*
X436733Y-991005D01*
X436733Y-991005D02*
X446257Y-981481D01*
X446257Y-981481D02*
X446257Y-1000529D01*
X522447Y-800529D02*
X646257Y-800529D01*
X646257Y-800529D02*
X579590Y-876719D01*
X579590Y-876719D02*
X608162Y-876719D01*
X608162Y-876719D02*
X627209Y-886243D01*
X627209Y-886243D02*
X636733Y-895767D01*
X636733Y-895767D02*
X646257Y-914814D01*
X646257Y-914814D02*
X646257Y-962433D01*
X646257Y-962433D02*
X636733Y-981481D01*
X636733Y-981481D02*
X627209Y-991005D01*
X627209Y-991005D02*
X608162Y-1000529D01*
X608162Y-1000529D02*
X551019Y-1000529D01*
X551019Y-1000529D02*
X531971Y-991005D01*
X531971Y-991005D02*
X522447Y-981481D01*
X770066Y-800529D02*
X789114Y-800529D01*
X789114Y-800529D02*
X808162Y-810053D01*
X808162Y-810053D02*
X817686Y-819576D01*
X817686Y-819576D02*
X827209Y-838624D01*
X827209Y-838624D02*
X836733Y-876719D01*
X836733Y-876719D02*
X836733Y-924338D01*
X836733Y-924338D02*
X827209Y-962433D01*
X827209Y-962433D02*
X817686Y-981481D01*
X817686Y-981481D02*
X808162Y-991005D01*
X808162Y-991005D02*
X789114Y-1000529D01*
X789114Y-1000529D02*
X770066Y-1000529D01*
X770066Y-1000529D02*
X751019Y-991005D01*
X751019Y-991005D02*
X741495Y-981481D01*
X741495Y-981481D02*
X731971Y-962433D01*
X731971Y-962433D02*
X722447Y-924338D01*
X722447Y-924338D02*
X722447Y-876719D01*
X722447Y-876719D02*
X731971Y-838624D01*
X731971Y-838624D02*
X741495Y-819576D01*
X741495Y-819576D02*
X751019Y-810053D01*
X751019Y-810053D02*
X770066Y-800529D01*
X960543Y-800529D02*
X979590Y-800529D01*
X979590Y-800529D02*
X998638Y-810053D01*
X998638Y-810053D02*
X1008162Y-819576D01*
X1008162Y-819576D02*
X1017686Y-838624D01*
X1017686Y-838624D02*
X1027209Y-876719D01*
X1027209Y-876719D02*
X1027209Y-924338D01*
X1027209Y-924338D02*
X1017686Y-962433D01*
X1017686Y-962433D02*
X1008162Y-981481D01*
X1008162Y-981481D02*
X998638Y-991005D01*
X998638Y-991005D02*
X979590Y-1000529D01*
X979590Y-1000529D02*
X960543Y-1000529D01*
X960543Y-1000529D02*
X941495Y-991005D01*
X941495Y-991005D02*
X931971Y-981481D01*
X931971Y-981481D02*
X922447Y-962433D01*
X922447Y-962433D02*
X912924Y-924338D01*
X912924Y-924338D02*
X912924Y-876719D01*
X912924Y-876719D02*
X922447Y-838624D01*
X922447Y-838624D02*
X931971Y-819576D01*
X931971Y-819576D02*
X941495Y-810053D01*
X941495Y-810053D02*
X960543Y-800529D01*
X1112924Y-1000529D02*
X1112924Y-867195D01*
X1112924Y-886243D02*
X1122448Y-876719D01*
X1122448Y-876719D02*
X1141495Y-867195D01*
X1141495Y-867195D02*
X1170067Y-867195D01*
X1170067Y-867195D02*
X1189114Y-876719D01*
X1189114Y-876719D02*
X1198638Y-895767D01*
X1198638Y-895767D02*
X1198638Y-1000529D01*
X1198638Y-895767D02*
X1208162Y-876719D01*
X1208162Y-876719D02*
X1227209Y-867195D01*
X1227209Y-867195D02*
X1255781Y-867195D01*
X1255781Y-867195D02*
X1274829Y-876719D01*
X1274829Y-876719D02*
X1284352Y-895767D01*
X1284352Y-895767D02*
X1284352Y-1000529D01*
X1379590Y-1000529D02*
X1379590Y-867195D01*
X1379590Y-886243D02*
X1389114Y-876719D01*
X1389114Y-876719D02*
X1408162Y-867195D01*
X1408162Y-867195D02*
X1436733Y-867195D01*
X1436733Y-867195D02*
X1455781Y-876719D01*
X1455781Y-876719D02*
X1465305Y-895767D01*
X1465305Y-895767D02*
X1465305Y-1000529D01*
X1465305Y-895767D02*
X1474828Y-876719D01*
X1474828Y-876719D02*
X1493876Y-867195D01*
X1493876Y-867195D02*
X1522447Y-867195D01*
X1522447Y-867195D02*
X1541495Y-876719D01*
X1541495Y-876719D02*
X1551019Y-895767D01*
X1551019Y-895767D02*
X1551019Y-1000529D01*
X1941495Y-791005D02*
X1770067Y-1048148D01*
X2198638Y-800529D02*
X2217686Y-800529D01*
X2217686Y-800529D02*
X2236733Y-810053D01*
X2236733Y-810053D02*
X2246257Y-819576D01*
X2246257Y-819576D02*
X2255781Y-838624D01*
X2255781Y-838624D02*
X2265305Y-876719D01*
X2265305Y-876719D02*
X2265305Y-924338D01*
X2265305Y-924338D02*
X2255781Y-962433D01*
X2255781Y-962433D02*
X2246257Y-981481D01*
X2246257Y-981481D02*
X2236733Y-991005D01*
X2236733Y-991005D02*
X2217686Y-1000529D01*
X2217686Y-1000529D02*
X2198638Y-1000529D01*
X2198638Y-1000529D02*
X2179591Y-991005D01*
X2179591Y-991005D02*
X2170067Y-981481D01*
X2170067Y-981481D02*
X2160543Y-962433D01*
X2160543Y-962433D02*
X2151019Y-924338D01*
X2151019Y-924338D02*
X2151019Y-876719D01*
X2151019Y-876719D02*
X2160543Y-838624D01*
X2160543Y-838624D02*
X2170067Y-819576D01*
X2170067Y-819576D02*
X2179591Y-810053D01*
X2179591Y-810053D02*
X2198638Y-800529D01*
X2351019Y-981481D02*
X2360543Y-991005D01*
X2360543Y-991005D02*
X2351019Y-1000529D01*
X2351019Y-1000529D02*
X2341495Y-991005D01*
X2341495Y-991005D02*
X2351019Y-981481D01*
X2351019Y-981481D02*
X2351019Y-1000529D01*
X2484352Y-800529D02*
X2503400Y-800529D01*
X2503400Y-800529D02*
X2522448Y-810053D01*
X2522448Y-810053D02*
X2531972Y-819576D01*
X2531972Y-819576D02*
X2541495Y-838624D01*
X2541495Y-838624D02*
X2551019Y-876719D01*
X2551019Y-876719D02*
X2551019Y-924338D01*
X2551019Y-924338D02*
X2541495Y-962433D01*
X2541495Y-962433D02*
X2531972Y-981481D01*
X2531972Y-981481D02*
X2522448Y-991005D01*
X2522448Y-991005D02*
X2503400Y-1000529D01*
X2503400Y-1000529D02*
X2484352Y-1000529D01*
X2484352Y-1000529D02*
X2465305Y-991005D01*
X2465305Y-991005D02*
X2455781Y-981481D01*
X2455781Y-981481D02*
X2446257Y-962433D01*
X2446257Y-962433D02*
X2436733Y-924338D01*
X2436733Y-924338D02*
X2436733Y-876719D01*
X2436733Y-876719D02*
X2446257Y-838624D01*
X2446257Y-838624D02*
X2455781Y-819576D01*
X2455781Y-819576D02*
X2465305Y-810053D01*
X2465305Y-810053D02*
X2484352Y-800529D01*
X2741495Y-1000529D02*
X2627210Y-1000529D01*
X2684352Y-1000529D02*
X2684352Y-800529D01*
X2684352Y-800529D02*
X2665305Y-829100D01*
X2665305Y-829100D02*
X2646257Y-848148D01*
X2646257Y-848148D02*
X2627210Y-857672D01*
X2931971Y-1000529D02*
X2817686Y-1000529D01*
X2874829Y-1000529D02*
X2874829Y-800529D01*
X2874829Y-800529D02*
X2855781Y-829100D01*
X2855781Y-829100D02*
X2836733Y-848148D01*
X2836733Y-848148D02*
X2817686Y-857672D01*
X3046257Y-886243D02*
X3027210Y-876719D01*
X3027210Y-876719D02*
X3017686Y-867195D01*
X3017686Y-867195D02*
X3008162Y-848148D01*
X3008162Y-848148D02*
X3008162Y-838624D01*
X3008162Y-838624D02*
X3017686Y-819576D01*
X3017686Y-819576D02*
X3027210Y-810053D01*
X3027210Y-810053D02*
X3046257Y-800529D01*
X3046257Y-800529D02*
X3084352Y-800529D01*
X3084352Y-800529D02*
X3103400Y-810053D01*
X3103400Y-810053D02*
X3112924Y-819576D01*
X3112924Y-819576D02*
X3122448Y-838624D01*
X3122448Y-838624D02*
X3122448Y-848148D01*
X3122448Y-848148D02*
X3112924Y-867195D01*
X3112924Y-867195D02*
X3103400Y-876719D01*
X3103400Y-876719D02*
X3084352Y-886243D01*
X3084352Y-886243D02*
X3046257Y-886243D01*
X3046257Y-886243D02*
X3027210Y-895767D01*
X3027210Y-895767D02*
X3017686Y-905291D01*
X3017686Y-905291D02*
X3008162Y-924338D01*
X3008162Y-924338D02*
X3008162Y-962433D01*
X3008162Y-962433D02*
X3017686Y-981481D01*
X3017686Y-981481D02*
X3027210Y-991005D01*
X3027210Y-991005D02*
X3046257Y-1000529D01*
X3046257Y-1000529D02*
X3084352Y-1000529D01*
X3084352Y-1000529D02*
X3103400Y-991005D01*
X3103400Y-991005D02*
X3112924Y-981481D01*
X3112924Y-981481D02*
X3122448Y-962433D01*
X3122448Y-962433D02*
X3122448Y-924338D01*
X3122448Y-924338D02*
X3112924Y-905291D01*
X3112924Y-905291D02*
X3103400Y-895767D01*
X3103400Y-895767D02*
X3084352Y-886243D01*
X3198638Y-800529D02*
X3198638Y-838624D01*
X3274829Y-800529D02*
X3274829Y-838624D01*
X3570067Y-1076719D02*
X3560543Y-1067195D01*
X3560543Y-1067195D02*
X3541495Y-1038624D01*
X3541495Y-1038624D02*
X3531972Y-1019576D01*
X3531972Y-1019576D02*
X3522448Y-991005D01*
X3522448Y-991005D02*
X3512924Y-943386D01*
X3512924Y-943386D02*
X3512924Y-905291D01*
X3512924Y-905291D02*
X3522448Y-857672D01*
X3522448Y-857672D02*
X3531972Y-829100D01*
X3531972Y-829100D02*
X3541495Y-810053D01*
X3541495Y-810053D02*
X3560543Y-781481D01*
X3560543Y-781481D02*
X3570067Y-771957D01*
X3751019Y-1000529D02*
X3636733Y-1000529D01*
X3693876Y-1000529D02*
X3693876Y-800529D01*
X3693876Y-800529D02*
X3674829Y-829100D01*
X3674829Y-829100D02*
X3655781Y-848148D01*
X3655781Y-848148D02*
X3636733Y-857672D01*
X3941495Y-1000529D02*
X3827210Y-1000529D01*
X3884352Y-1000529D02*
X3884352Y-800529D01*
X3884352Y-800529D02*
X3865305Y-829100D01*
X3865305Y-829100D02*
X3846257Y-848148D01*
X3846257Y-848148D02*
X3827210Y-857672D01*
X4179591Y-1000529D02*
X4179591Y-800529D01*
X4265305Y-1000529D02*
X4265305Y-895767D01*
X4265305Y-895767D02*
X4255781Y-876719D01*
X4255781Y-876719D02*
X4236734Y-867195D01*
X4236734Y-867195D02*
X4208162Y-867195D01*
X4208162Y-867195D02*
X4189114Y-876719D01*
X4189114Y-876719D02*
X4179591Y-886243D01*
X4389115Y-1000529D02*
X4370067Y-991005D01*
X4370067Y-991005D02*
X4360543Y-981481D01*
X4360543Y-981481D02*
X4351019Y-962433D01*
X4351019Y-962433D02*
X4351019Y-905291D01*
X4351019Y-905291D02*
X4360543Y-886243D01*
X4360543Y-886243D02*
X4370067Y-876719D01*
X4370067Y-876719D02*
X4389115Y-867195D01*
X4389115Y-867195D02*
X4417686Y-867195D01*
X4417686Y-867195D02*
X4436734Y-876719D01*
X4436734Y-876719D02*
X4446257Y-886243D01*
X4446257Y-886243D02*
X4455781Y-905291D01*
X4455781Y-905291D02*
X4455781Y-962433D01*
X4455781Y-962433D02*
X4446257Y-981481D01*
X4446257Y-981481D02*
X4436734Y-991005D01*
X4436734Y-991005D02*
X4417686Y-1000529D01*
X4417686Y-1000529D02*
X4389115Y-1000529D01*
X4570067Y-1000529D02*
X4551019Y-991005D01*
X4551019Y-991005D02*
X4541496Y-971957D01*
X4541496Y-971957D02*
X4541496Y-800529D01*
X4722448Y-991005D02*
X4703400Y-1000529D01*
X4703400Y-1000529D02*
X4665305Y-1000529D01*
X4665305Y-1000529D02*
X4646257Y-991005D01*
X4646257Y-991005D02*
X4636734Y-971957D01*
X4636734Y-971957D02*
X4636734Y-895767D01*
X4636734Y-895767D02*
X4646257Y-876719D01*
X4646257Y-876719D02*
X4665305Y-867195D01*
X4665305Y-867195D02*
X4703400Y-867195D01*
X4703400Y-867195D02*
X4722448Y-876719D01*
X4722448Y-876719D02*
X4731972Y-895767D01*
X4731972Y-895767D02*
X4731972Y-914814D01*
X4731972Y-914814D02*
X4636734Y-933862D01*
X4808162Y-991005D02*
X4827210Y-1000529D01*
X4827210Y-1000529D02*
X4865305Y-1000529D01*
X4865305Y-1000529D02*
X4884353Y-991005D01*
X4884353Y-991005D02*
X4893877Y-971957D01*
X4893877Y-971957D02*
X4893877Y-962433D01*
X4893877Y-962433D02*
X4884353Y-943386D01*
X4884353Y-943386D02*
X4865305Y-933862D01*
X4865305Y-933862D02*
X4836734Y-933862D01*
X4836734Y-933862D02*
X4817686Y-924338D01*
X4817686Y-924338D02*
X4808162Y-905291D01*
X4808162Y-905291D02*
X4808162Y-895767D01*
X4808162Y-895767D02*
X4817686Y-876719D01*
X4817686Y-876719D02*
X4836734Y-867195D01*
X4836734Y-867195D02*
X4865305Y-867195D01*
X4865305Y-867195D02*
X4884353Y-876719D01*
X4960543Y-1076719D02*
X4970067Y-1067195D01*
X4970067Y-1067195D02*
X4989115Y-1038624D01*
X4989115Y-1038624D02*
X4998638Y-1019576D01*
X4998638Y-1019576D02*
X5008162Y-991005D01*
X5008162Y-991005D02*
X5017686Y-943386D01*
X5017686Y-943386D02*
X5017686Y-905291D01*
X5017686Y-905291D02*
X5008162Y-857672D01*
X5008162Y-857672D02*
X4998638Y-829100D01*
X4998638Y-829100D02*
X4989115Y-810053D01*
X4989115Y-810053D02*
X4970067Y-781481D01*
X4970067Y-781481D02*
X4960543Y-771957D01*
D14*
X-24996Y-1153045D02*
X-24996Y-1193045D01*
X-44996Y-1173045D02*
X-4996Y-1173045D01*
D11*
X293876Y-1064529D02*
X312924Y-1064529D01*
X312924Y-1064529D02*
X331971Y-1074053D01*
X331971Y-1074053D02*
X341495Y-1083576D01*
X341495Y-1083576D02*
X351019Y-1102624D01*
X351019Y-1102624D02*
X360543Y-1140719D01*
X360543Y-1140719D02*
X360543Y-1188338D01*
X360543Y-1188338D02*
X351019Y-1226434D01*
X351019Y-1226434D02*
X341495Y-1245481D01*
X341495Y-1245481D02*
X331971Y-1255005D01*
X331971Y-1255005D02*
X312924Y-1264529D01*
X312924Y-1264529D02*
X293876Y-1264529D01*
X293876Y-1264529D02*
X274828Y-1255005D01*
X274828Y-1255005D02*
X265305Y-1245481D01*
X265305Y-1245481D02*
X255781Y-1226434D01*
X255781Y-1226434D02*
X246257Y-1188338D01*
X246257Y-1188338D02*
X246257Y-1140719D01*
X246257Y-1140719D02*
X255781Y-1102624D01*
X255781Y-1102624D02*
X265305Y-1083576D01*
X265305Y-1083576D02*
X274828Y-1074053D01*
X274828Y-1074053D02*
X293876Y-1064529D01*
X446257Y-1245481D02*
X455781Y-1255005D01*
X455781Y-1255005D02*
X446257Y-1264529D01*
X446257Y-1264529D02*
X436733Y-1255005D01*
X436733Y-1255005D02*
X446257Y-1245481D01*
X446257Y-1245481D02*
X446257Y-1264529D01*
X627209Y-1131195D02*
X627209Y-1264529D01*
X579590Y-1055005D02*
X531971Y-1197862D01*
X531971Y-1197862D02*
X655781Y-1197862D01*
X770066Y-1064529D02*
X789114Y-1064529D01*
X789114Y-1064529D02*
X808162Y-1074053D01*
X808162Y-1074053D02*
X817686Y-1083576D01*
X817686Y-1083576D02*
X827209Y-1102624D01*
X827209Y-1102624D02*
X836733Y-1140719D01*
X836733Y-1140719D02*
X836733Y-1188338D01*
X836733Y-1188338D02*
X827209Y-1226434D01*
X827209Y-1226434D02*
X817686Y-1245481D01*
X817686Y-1245481D02*
X808162Y-1255005D01*
X808162Y-1255005D02*
X789114Y-1264529D01*
X789114Y-1264529D02*
X770066Y-1264529D01*
X770066Y-1264529D02*
X751019Y-1255005D01*
X751019Y-1255005D02*
X741495Y-1245481D01*
X741495Y-1245481D02*
X731971Y-1226434D01*
X731971Y-1226434D02*
X722447Y-1188338D01*
X722447Y-1188338D02*
X722447Y-1140719D01*
X722447Y-1140719D02*
X731971Y-1102624D01*
X731971Y-1102624D02*
X741495Y-1083576D01*
X741495Y-1083576D02*
X751019Y-1074053D01*
X751019Y-1074053D02*
X770066Y-1064529D01*
X960543Y-1064529D02*
X979590Y-1064529D01*
X979590Y-1064529D02*
X998638Y-1074053D01*
X998638Y-1074053D02*
X1008162Y-1083576D01*
X1008162Y-1083576D02*
X1017686Y-1102624D01*
X1017686Y-1102624D02*
X1027209Y-1140719D01*
X1027209Y-1140719D02*
X1027209Y-1188338D01*
X1027209Y-1188338D02*
X1017686Y-1226434D01*
X1017686Y-1226434D02*
X1008162Y-1245481D01*
X1008162Y-1245481D02*
X998638Y-1255005D01*
X998638Y-1255005D02*
X979590Y-1264529D01*
X979590Y-1264529D02*
X960543Y-1264529D01*
X960543Y-1264529D02*
X941495Y-1255005D01*
X941495Y-1255005D02*
X931971Y-1245481D01*
X931971Y-1245481D02*
X922447Y-1226434D01*
X922447Y-1226434D02*
X912924Y-1188338D01*
X912924Y-1188338D02*
X912924Y-1140719D01*
X912924Y-1140719D02*
X922447Y-1102624D01*
X922447Y-1102624D02*
X931971Y-1083576D01*
X931971Y-1083576D02*
X941495Y-1074053D01*
X941495Y-1074053D02*
X960543Y-1064529D01*
X1112924Y-1264529D02*
X1112924Y-1131195D01*
X1112924Y-1150243D02*
X1122448Y-1140719D01*
X1122448Y-1140719D02*
X1141495Y-1131195D01*
X1141495Y-1131195D02*
X1170067Y-1131195D01*
X1170067Y-1131195D02*
X1189114Y-1140719D01*
X1189114Y-1140719D02*
X1198638Y-1159767D01*
X1198638Y-1159767D02*
X1198638Y-1264529D01*
X1198638Y-1159767D02*
X1208162Y-1140719D01*
X1208162Y-1140719D02*
X1227209Y-1131195D01*
X1227209Y-1131195D02*
X1255781Y-1131195D01*
X1255781Y-1131195D02*
X1274829Y-1140719D01*
X1274829Y-1140719D02*
X1284352Y-1159767D01*
X1284352Y-1159767D02*
X1284352Y-1264529D01*
X1379590Y-1264529D02*
X1379590Y-1131195D01*
X1379590Y-1150243D02*
X1389114Y-1140719D01*
X1389114Y-1140719D02*
X1408162Y-1131195D01*
X1408162Y-1131195D02*
X1436733Y-1131195D01*
X1436733Y-1131195D02*
X1455781Y-1140719D01*
X1455781Y-1140719D02*
X1465305Y-1159767D01*
X1465305Y-1159767D02*
X1465305Y-1264529D01*
X1465305Y-1159767D02*
X1474828Y-1140719D01*
X1474828Y-1140719D02*
X1493876Y-1131195D01*
X1493876Y-1131195D02*
X1522447Y-1131195D01*
X1522447Y-1131195D02*
X1541495Y-1140719D01*
X1541495Y-1140719D02*
X1551019Y-1159767D01*
X1551019Y-1159767D02*
X1551019Y-1264529D01*
X1941495Y-1055005D02*
X1770067Y-1312148D01*
X2198638Y-1064529D02*
X2217686Y-1064529D01*
X2217686Y-1064529D02*
X2236733Y-1074053D01*
X2236733Y-1074053D02*
X2246257Y-1083576D01*
X2246257Y-1083576D02*
X2255781Y-1102624D01*
X2255781Y-1102624D02*
X2265305Y-1140719D01*
X2265305Y-1140719D02*
X2265305Y-1188338D01*
X2265305Y-1188338D02*
X2255781Y-1226434D01*
X2255781Y-1226434D02*
X2246257Y-1245481D01*
X2246257Y-1245481D02*
X2236733Y-1255005D01*
X2236733Y-1255005D02*
X2217686Y-1264529D01*
X2217686Y-1264529D02*
X2198638Y-1264529D01*
X2198638Y-1264529D02*
X2179591Y-1255005D01*
X2179591Y-1255005D02*
X2170067Y-1245481D01*
X2170067Y-1245481D02*
X2160543Y-1226434D01*
X2160543Y-1226434D02*
X2151019Y-1188338D01*
X2151019Y-1188338D02*
X2151019Y-1140719D01*
X2151019Y-1140719D02*
X2160543Y-1102624D01*
X2160543Y-1102624D02*
X2170067Y-1083576D01*
X2170067Y-1083576D02*
X2179591Y-1074053D01*
X2179591Y-1074053D02*
X2198638Y-1064529D01*
X2351019Y-1245481D02*
X2360543Y-1255005D01*
X2360543Y-1255005D02*
X2351019Y-1264529D01*
X2351019Y-1264529D02*
X2341495Y-1255005D01*
X2341495Y-1255005D02*
X2351019Y-1245481D01*
X2351019Y-1245481D02*
X2351019Y-1264529D01*
X2484352Y-1064529D02*
X2503400Y-1064529D01*
X2503400Y-1064529D02*
X2522448Y-1074053D01*
X2522448Y-1074053D02*
X2531972Y-1083576D01*
X2531972Y-1083576D02*
X2541495Y-1102624D01*
X2541495Y-1102624D02*
X2551019Y-1140719D01*
X2551019Y-1140719D02*
X2551019Y-1188338D01*
X2551019Y-1188338D02*
X2541495Y-1226434D01*
X2541495Y-1226434D02*
X2531972Y-1245481D01*
X2531972Y-1245481D02*
X2522448Y-1255005D01*
X2522448Y-1255005D02*
X2503400Y-1264529D01*
X2503400Y-1264529D02*
X2484352Y-1264529D01*
X2484352Y-1264529D02*
X2465305Y-1255005D01*
X2465305Y-1255005D02*
X2455781Y-1245481D01*
X2455781Y-1245481D02*
X2446257Y-1226434D01*
X2446257Y-1226434D02*
X2436733Y-1188338D01*
X2436733Y-1188338D02*
X2436733Y-1140719D01*
X2436733Y-1140719D02*
X2446257Y-1102624D01*
X2446257Y-1102624D02*
X2455781Y-1083576D01*
X2455781Y-1083576D02*
X2465305Y-1074053D01*
X2465305Y-1074053D02*
X2484352Y-1064529D01*
X2741495Y-1264529D02*
X2627210Y-1264529D01*
X2684352Y-1264529D02*
X2684352Y-1064529D01*
X2684352Y-1064529D02*
X2665305Y-1093100D01*
X2665305Y-1093100D02*
X2646257Y-1112148D01*
X2646257Y-1112148D02*
X2627210Y-1121672D01*
X2922448Y-1064529D02*
X2827210Y-1064529D01*
X2827210Y-1064529D02*
X2817686Y-1159767D01*
X2817686Y-1159767D02*
X2827210Y-1150243D01*
X2827210Y-1150243D02*
X2846257Y-1140719D01*
X2846257Y-1140719D02*
X2893876Y-1140719D01*
X2893876Y-1140719D02*
X2912924Y-1150243D01*
X2912924Y-1150243D02*
X2922448Y-1159767D01*
X2922448Y-1159767D02*
X2931971Y-1178815D01*
X2931971Y-1178815D02*
X2931971Y-1226434D01*
X2931971Y-1226434D02*
X2922448Y-1245481D01*
X2922448Y-1245481D02*
X2912924Y-1255005D01*
X2912924Y-1255005D02*
X2893876Y-1264529D01*
X2893876Y-1264529D02*
X2846257Y-1264529D01*
X2846257Y-1264529D02*
X2827210Y-1255005D01*
X2827210Y-1255005D02*
X2817686Y-1245481D01*
X2998638Y-1064529D02*
X3131971Y-1064529D01*
X3131971Y-1064529D02*
X3046257Y-1264529D01*
X3198638Y-1064529D02*
X3198638Y-1102624D01*
X3274829Y-1064529D02*
X3274829Y-1102624D01*
X3570067Y-1340719D02*
X3560543Y-1331195D01*
X3560543Y-1331195D02*
X3541495Y-1302624D01*
X3541495Y-1302624D02*
X3531972Y-1283576D01*
X3531972Y-1283576D02*
X3522448Y-1255005D01*
X3522448Y-1255005D02*
X3512924Y-1207386D01*
X3512924Y-1207386D02*
X3512924Y-1169291D01*
X3512924Y-1169291D02*
X3522448Y-1121672D01*
X3522448Y-1121672D02*
X3531972Y-1093100D01*
X3531972Y-1093100D02*
X3541495Y-1074053D01*
X3541495Y-1074053D02*
X3560543Y-1045481D01*
X3560543Y-1045481D02*
X3570067Y-1035957D01*
X3636733Y-1083576D02*
X3646257Y-1074053D01*
X3646257Y-1074053D02*
X3665305Y-1064529D01*
X3665305Y-1064529D02*
X3712924Y-1064529D01*
X3712924Y-1064529D02*
X3731972Y-1074053D01*
X3731972Y-1074053D02*
X3741495Y-1083576D01*
X3741495Y-1083576D02*
X3751019Y-1102624D01*
X3751019Y-1102624D02*
X3751019Y-1121672D01*
X3751019Y-1121672D02*
X3741495Y-1150243D01*
X3741495Y-1150243D02*
X3627210Y-1264529D01*
X3627210Y-1264529D02*
X3751019Y-1264529D01*
X3827210Y-1083576D02*
X3836733Y-1074053D01*
X3836733Y-1074053D02*
X3855781Y-1064529D01*
X3855781Y-1064529D02*
X3903400Y-1064529D01*
X3903400Y-1064529D02*
X3922448Y-1074053D01*
X3922448Y-1074053D02*
X3931972Y-1083576D01*
X3931972Y-1083576D02*
X3941495Y-1102624D01*
X3941495Y-1102624D02*
X3941495Y-1121672D01*
X3941495Y-1121672D02*
X3931972Y-1150243D01*
X3931972Y-1150243D02*
X3817686Y-1264529D01*
X3817686Y-1264529D02*
X3941495Y-1264529D01*
X4179591Y-1264529D02*
X4179591Y-1064529D01*
X4265305Y-1264529D02*
X4265305Y-1159767D01*
X4265305Y-1159767D02*
X4255781Y-1140719D01*
X4255781Y-1140719D02*
X4236734Y-1131195D01*
X4236734Y-1131195D02*
X4208162Y-1131195D01*
X4208162Y-1131195D02*
X4189114Y-1140719D01*
X4189114Y-1140719D02*
X4179591Y-1150243D01*
X4389115Y-1264529D02*
X4370067Y-1255005D01*
X4370067Y-1255005D02*
X4360543Y-1245481D01*
X4360543Y-1245481D02*
X4351019Y-1226434D01*
X4351019Y-1226434D02*
X4351019Y-1169291D01*
X4351019Y-1169291D02*
X4360543Y-1150243D01*
X4360543Y-1150243D02*
X4370067Y-1140719D01*
X4370067Y-1140719D02*
X4389115Y-1131195D01*
X4389115Y-1131195D02*
X4417686Y-1131195D01*
X4417686Y-1131195D02*
X4436734Y-1140719D01*
X4436734Y-1140719D02*
X4446257Y-1150243D01*
X4446257Y-1150243D02*
X4455781Y-1169291D01*
X4455781Y-1169291D02*
X4455781Y-1226434D01*
X4455781Y-1226434D02*
X4446257Y-1245481D01*
X4446257Y-1245481D02*
X4436734Y-1255005D01*
X4436734Y-1255005D02*
X4417686Y-1264529D01*
X4417686Y-1264529D02*
X4389115Y-1264529D01*
X4570067Y-1264529D02*
X4551019Y-1255005D01*
X4551019Y-1255005D02*
X4541496Y-1235957D01*
X4541496Y-1235957D02*
X4541496Y-1064529D01*
X4722448Y-1255005D02*
X4703400Y-1264529D01*
X4703400Y-1264529D02*
X4665305Y-1264529D01*
X4665305Y-1264529D02*
X4646257Y-1255005D01*
X4646257Y-1255005D02*
X4636734Y-1235957D01*
X4636734Y-1235957D02*
X4636734Y-1159767D01*
X4636734Y-1159767D02*
X4646257Y-1140719D01*
X4646257Y-1140719D02*
X4665305Y-1131195D01*
X4665305Y-1131195D02*
X4703400Y-1131195D01*
X4703400Y-1131195D02*
X4722448Y-1140719D01*
X4722448Y-1140719D02*
X4731972Y-1159767D01*
X4731972Y-1159767D02*
X4731972Y-1178815D01*
X4731972Y-1178815D02*
X4636734Y-1197862D01*
X4808162Y-1255005D02*
X4827210Y-1264529D01*
X4827210Y-1264529D02*
X4865305Y-1264529D01*
X4865305Y-1264529D02*
X4884353Y-1255005D01*
X4884353Y-1255005D02*
X4893877Y-1235957D01*
X4893877Y-1235957D02*
X4893877Y-1226434D01*
X4893877Y-1226434D02*
X4884353Y-1207386D01*
X4884353Y-1207386D02*
X4865305Y-1197862D01*
X4865305Y-1197862D02*
X4836734Y-1197862D01*
X4836734Y-1197862D02*
X4817686Y-1188338D01*
X4817686Y-1188338D02*
X4808162Y-1169291D01*
X4808162Y-1169291D02*
X4808162Y-1159767D01*
X4808162Y-1159767D02*
X4817686Y-1140719D01*
X4817686Y-1140719D02*
X4836734Y-1131195D01*
X4836734Y-1131195D02*
X4865305Y-1131195D01*
X4865305Y-1131195D02*
X4884353Y-1140719D01*
X4960543Y-1340719D02*
X4970067Y-1331195D01*
X4970067Y-1331195D02*
X4989115Y-1302624D01*
X4989115Y-1302624D02*
X4998638Y-1283576D01*
X4998638Y-1283576D02*
X5008162Y-1255005D01*
X5008162Y-1255005D02*
X5017686Y-1207386D01*
X5017686Y-1207386D02*
X5017686Y-1169291D01*
X5017686Y-1169291D02*
X5008162Y-1121672D01*
X5008162Y-1121672D02*
X4998638Y-1093100D01*
X4998638Y-1093100D02*
X4989115Y-1074053D01*
X4989115Y-1074053D02*
X4970067Y-1045481D01*
X4970067Y-1045481D02*
X4960543Y-1035957D01*
D15*
X-12318Y-1454723D02*
X-12318Y-1419367D01*
X-47674Y-1419367D01*
X-47674Y-1454723D01*
X-12318Y-1454723D01*
D11*
X293876Y-1328529D02*
X312924Y-1328529D01*
X312924Y-1328529D02*
X331971Y-1338053D01*
X331971Y-1338053D02*
X341495Y-1347576D01*
X341495Y-1347576D02*
X351019Y-1366624D01*
X351019Y-1366624D02*
X360543Y-1404719D01*
X360543Y-1404719D02*
X360543Y-1452338D01*
X360543Y-1452338D02*
X351019Y-1490433D01*
X351019Y-1490433D02*
X341495Y-1509481D01*
X341495Y-1509481D02*
X331971Y-1519005D01*
X331971Y-1519005D02*
X312924Y-1528529D01*
X312924Y-1528529D02*
X293876Y-1528529D01*
X293876Y-1528529D02*
X274828Y-1519005D01*
X274828Y-1519005D02*
X265305Y-1509481D01*
X265305Y-1509481D02*
X255781Y-1490433D01*
X255781Y-1490433D02*
X246257Y-1452338D01*
X246257Y-1452338D02*
X246257Y-1404719D01*
X246257Y-1404719D02*
X255781Y-1366624D01*
X255781Y-1366624D02*
X265305Y-1347576D01*
X265305Y-1347576D02*
X274828Y-1338053D01*
X274828Y-1338053D02*
X293876Y-1328529D01*
X446257Y-1509481D02*
X455781Y-1519005D01*
X455781Y-1519005D02*
X446257Y-1528529D01*
X446257Y-1528529D02*
X436733Y-1519005D01*
X436733Y-1519005D02*
X446257Y-1509481D01*
X446257Y-1509481D02*
X446257Y-1528529D01*
X636733Y-1328529D02*
X541495Y-1328529D01*
X541495Y-1328529D02*
X531971Y-1423767D01*
X531971Y-1423767D02*
X541495Y-1414243D01*
X541495Y-1414243D02*
X560543Y-1404719D01*
X560543Y-1404719D02*
X608162Y-1404719D01*
X608162Y-1404719D02*
X627209Y-1414243D01*
X627209Y-1414243D02*
X636733Y-1423767D01*
X636733Y-1423767D02*
X646257Y-1442814D01*
X646257Y-1442814D02*
X646257Y-1490433D01*
X646257Y-1490433D02*
X636733Y-1509481D01*
X636733Y-1509481D02*
X627209Y-1519005D01*
X627209Y-1519005D02*
X608162Y-1528529D01*
X608162Y-1528529D02*
X560543Y-1528529D01*
X560543Y-1528529D02*
X541495Y-1519005D01*
X541495Y-1519005D02*
X531971Y-1509481D01*
X770066Y-1328529D02*
X789114Y-1328529D01*
X789114Y-1328529D02*
X808162Y-1338053D01*
X808162Y-1338053D02*
X817686Y-1347576D01*
X817686Y-1347576D02*
X827209Y-1366624D01*
X827209Y-1366624D02*
X836733Y-1404719D01*
X836733Y-1404719D02*
X836733Y-1452338D01*
X836733Y-1452338D02*
X827209Y-1490433D01*
X827209Y-1490433D02*
X817686Y-1509481D01*
X817686Y-1509481D02*
X808162Y-1519005D01*
X808162Y-1519005D02*
X789114Y-1528529D01*
X789114Y-1528529D02*
X770066Y-1528529D01*
X770066Y-1528529D02*
X751019Y-1519005D01*
X751019Y-1519005D02*
X741495Y-1509481D01*
X741495Y-1509481D02*
X731971Y-1490433D01*
X731971Y-1490433D02*
X722447Y-1452338D01*
X722447Y-1452338D02*
X722447Y-1404719D01*
X722447Y-1404719D02*
X731971Y-1366624D01*
X731971Y-1366624D02*
X741495Y-1347576D01*
X741495Y-1347576D02*
X751019Y-1338053D01*
X751019Y-1338053D02*
X770066Y-1328529D01*
X960543Y-1328529D02*
X979590Y-1328529D01*
X979590Y-1328529D02*
X998638Y-1338053D01*
X998638Y-1338053D02*
X1008162Y-1347576D01*
X1008162Y-1347576D02*
X1017686Y-1366624D01*
X1017686Y-1366624D02*
X1027209Y-1404719D01*
X1027209Y-1404719D02*
X1027209Y-1452338D01*
X1027209Y-1452338D02*
X1017686Y-1490433D01*
X1017686Y-1490433D02*
X1008162Y-1509481D01*
X1008162Y-1509481D02*
X998638Y-1519005D01*
X998638Y-1519005D02*
X979590Y-1528529D01*
X979590Y-1528529D02*
X960543Y-1528529D01*
X960543Y-1528529D02*
X941495Y-1519005D01*
X941495Y-1519005D02*
X931971Y-1509481D01*
X931971Y-1509481D02*
X922447Y-1490433D01*
X922447Y-1490433D02*
X912924Y-1452338D01*
X912924Y-1452338D02*
X912924Y-1404719D01*
X912924Y-1404719D02*
X922447Y-1366624D01*
X922447Y-1366624D02*
X931971Y-1347576D01*
X931971Y-1347576D02*
X941495Y-1338053D01*
X941495Y-1338053D02*
X960543Y-1328529D01*
X1112924Y-1528529D02*
X1112924Y-1395195D01*
X1112924Y-1414243D02*
X1122448Y-1404719D01*
X1122448Y-1404719D02*
X1141495Y-1395195D01*
X1141495Y-1395195D02*
X1170067Y-1395195D01*
X1170067Y-1395195D02*
X1189114Y-1404719D01*
X1189114Y-1404719D02*
X1198638Y-1423767D01*
X1198638Y-1423767D02*
X1198638Y-1528529D01*
X1198638Y-1423767D02*
X1208162Y-1404719D01*
X1208162Y-1404719D02*
X1227209Y-1395195D01*
X1227209Y-1395195D02*
X1255781Y-1395195D01*
X1255781Y-1395195D02*
X1274829Y-1404719D01*
X1274829Y-1404719D02*
X1284352Y-1423767D01*
X1284352Y-1423767D02*
X1284352Y-1528529D01*
X1379590Y-1528529D02*
X1379590Y-1395195D01*
X1379590Y-1414243D02*
X1389114Y-1404719D01*
X1389114Y-1404719D02*
X1408162Y-1395195D01*
X1408162Y-1395195D02*
X1436733Y-1395195D01*
X1436733Y-1395195D02*
X1455781Y-1404719D01*
X1455781Y-1404719D02*
X1465305Y-1423767D01*
X1465305Y-1423767D02*
X1465305Y-1528529D01*
X1465305Y-1423767D02*
X1474828Y-1404719D01*
X1474828Y-1404719D02*
X1493876Y-1395195D01*
X1493876Y-1395195D02*
X1522447Y-1395195D01*
X1522447Y-1395195D02*
X1541495Y-1404719D01*
X1541495Y-1404719D02*
X1551019Y-1423767D01*
X1551019Y-1423767D02*
X1551019Y-1528529D01*
X1941495Y-1319005D02*
X1770067Y-1576148D01*
X2198638Y-1328529D02*
X2217686Y-1328529D01*
X2217686Y-1328529D02*
X2236733Y-1338053D01*
X2236733Y-1338053D02*
X2246257Y-1347576D01*
X2246257Y-1347576D02*
X2255781Y-1366624D01*
X2255781Y-1366624D02*
X2265305Y-1404719D01*
X2265305Y-1404719D02*
X2265305Y-1452338D01*
X2265305Y-1452338D02*
X2255781Y-1490433D01*
X2255781Y-1490433D02*
X2246257Y-1509481D01*
X2246257Y-1509481D02*
X2236733Y-1519005D01*
X2236733Y-1519005D02*
X2217686Y-1528529D01*
X2217686Y-1528529D02*
X2198638Y-1528529D01*
X2198638Y-1528529D02*
X2179591Y-1519005D01*
X2179591Y-1519005D02*
X2170067Y-1509481D01*
X2170067Y-1509481D02*
X2160543Y-1490433D01*
X2160543Y-1490433D02*
X2151019Y-1452338D01*
X2151019Y-1452338D02*
X2151019Y-1404719D01*
X2151019Y-1404719D02*
X2160543Y-1366624D01*
X2160543Y-1366624D02*
X2170067Y-1347576D01*
X2170067Y-1347576D02*
X2179591Y-1338053D01*
X2179591Y-1338053D02*
X2198638Y-1328529D01*
X2351019Y-1509481D02*
X2360543Y-1519005D01*
X2360543Y-1519005D02*
X2351019Y-1528529D01*
X2351019Y-1528529D02*
X2341495Y-1519005D01*
X2341495Y-1519005D02*
X2351019Y-1509481D01*
X2351019Y-1509481D02*
X2351019Y-1528529D01*
X2484352Y-1328529D02*
X2503400Y-1328529D01*
X2503400Y-1328529D02*
X2522448Y-1338053D01*
X2522448Y-1338053D02*
X2531972Y-1347576D01*
X2531972Y-1347576D02*
X2541495Y-1366624D01*
X2541495Y-1366624D02*
X2551019Y-1404719D01*
X2551019Y-1404719D02*
X2551019Y-1452338D01*
X2551019Y-1452338D02*
X2541495Y-1490433D01*
X2541495Y-1490433D02*
X2531972Y-1509481D01*
X2531972Y-1509481D02*
X2522448Y-1519005D01*
X2522448Y-1519005D02*
X2503400Y-1528529D01*
X2503400Y-1528529D02*
X2484352Y-1528529D01*
X2484352Y-1528529D02*
X2465305Y-1519005D01*
X2465305Y-1519005D02*
X2455781Y-1509481D01*
X2455781Y-1509481D02*
X2446257Y-1490433D01*
X2446257Y-1490433D02*
X2436733Y-1452338D01*
X2436733Y-1452338D02*
X2436733Y-1404719D01*
X2436733Y-1404719D02*
X2446257Y-1366624D01*
X2446257Y-1366624D02*
X2455781Y-1347576D01*
X2455781Y-1347576D02*
X2465305Y-1338053D01*
X2465305Y-1338053D02*
X2484352Y-1328529D01*
X2741495Y-1528529D02*
X2627210Y-1528529D01*
X2684352Y-1528529D02*
X2684352Y-1328529D01*
X2684352Y-1328529D02*
X2665305Y-1357100D01*
X2665305Y-1357100D02*
X2646257Y-1376148D01*
X2646257Y-1376148D02*
X2627210Y-1385672D01*
X2836733Y-1528529D02*
X2874829Y-1528529D01*
X2874829Y-1528529D02*
X2893876Y-1519005D01*
X2893876Y-1519005D02*
X2903400Y-1509481D01*
X2903400Y-1509481D02*
X2922448Y-1480910D01*
X2922448Y-1480910D02*
X2931971Y-1442814D01*
X2931971Y-1442814D02*
X2931971Y-1366624D01*
X2931971Y-1366624D02*
X2922448Y-1347576D01*
X2922448Y-1347576D02*
X2912924Y-1338053D01*
X2912924Y-1338053D02*
X2893876Y-1328529D01*
X2893876Y-1328529D02*
X2855781Y-1328529D01*
X2855781Y-1328529D02*
X2836733Y-1338053D01*
X2836733Y-1338053D02*
X2827210Y-1347576D01*
X2827210Y-1347576D02*
X2817686Y-1366624D01*
X2817686Y-1366624D02*
X2817686Y-1414243D01*
X2817686Y-1414243D02*
X2827210Y-1433291D01*
X2827210Y-1433291D02*
X2836733Y-1442814D01*
X2836733Y-1442814D02*
X2855781Y-1452338D01*
X2855781Y-1452338D02*
X2893876Y-1452338D01*
X2893876Y-1452338D02*
X2912924Y-1442814D01*
X2912924Y-1442814D02*
X2922448Y-1433291D01*
X2922448Y-1433291D02*
X2931971Y-1414243D01*
X2998638Y-1328529D02*
X3131971Y-1328529D01*
X3131971Y-1328529D02*
X3046257Y-1528529D01*
X3198638Y-1328529D02*
X3198638Y-1366624D01*
X3274829Y-1328529D02*
X3274829Y-1366624D01*
X3570067Y-1604719D02*
X3560543Y-1595195D01*
X3560543Y-1595195D02*
X3541495Y-1566624D01*
X3541495Y-1566624D02*
X3531972Y-1547576D01*
X3531972Y-1547576D02*
X3522448Y-1519005D01*
X3522448Y-1519005D02*
X3512924Y-1471386D01*
X3512924Y-1471386D02*
X3512924Y-1433291D01*
X3512924Y-1433291D02*
X3522448Y-1385672D01*
X3522448Y-1385672D02*
X3531972Y-1357100D01*
X3531972Y-1357100D02*
X3541495Y-1338053D01*
X3541495Y-1338053D02*
X3560543Y-1309481D01*
X3560543Y-1309481D02*
X3570067Y-1299957D01*
X3741495Y-1328529D02*
X3646257Y-1328529D01*
X3646257Y-1328529D02*
X3636733Y-1423767D01*
X3636733Y-1423767D02*
X3646257Y-1414243D01*
X3646257Y-1414243D02*
X3665305Y-1404719D01*
X3665305Y-1404719D02*
X3712924Y-1404719D01*
X3712924Y-1404719D02*
X3731972Y-1414243D01*
X3731972Y-1414243D02*
X3741495Y-1423767D01*
X3741495Y-1423767D02*
X3751019Y-1442814D01*
X3751019Y-1442814D02*
X3751019Y-1490433D01*
X3751019Y-1490433D02*
X3741495Y-1509481D01*
X3741495Y-1509481D02*
X3731972Y-1519005D01*
X3731972Y-1519005D02*
X3712924Y-1528529D01*
X3712924Y-1528529D02*
X3665305Y-1528529D01*
X3665305Y-1528529D02*
X3646257Y-1519005D01*
X3646257Y-1519005D02*
X3636733Y-1509481D01*
X3989114Y-1528529D02*
X3989114Y-1328529D01*
X4074829Y-1528529D02*
X4074829Y-1423767D01*
X4074829Y-1423767D02*
X4065305Y-1404719D01*
X4065305Y-1404719D02*
X4046257Y-1395195D01*
X4046257Y-1395195D02*
X4017686Y-1395195D01*
X4017686Y-1395195D02*
X3998638Y-1404719D01*
X3998638Y-1404719D02*
X3989114Y-1414243D01*
X4198638Y-1528529D02*
X4179591Y-1519005D01*
X4179591Y-1519005D02*
X4170067Y-1509481D01*
X4170067Y-1509481D02*
X4160543Y-1490433D01*
X4160543Y-1490433D02*
X4160543Y-1433291D01*
X4160543Y-1433291D02*
X4170067Y-1414243D01*
X4170067Y-1414243D02*
X4179591Y-1404719D01*
X4179591Y-1404719D02*
X4198638Y-1395195D01*
X4198638Y-1395195D02*
X4227210Y-1395195D01*
X4227210Y-1395195D02*
X4246257Y-1404719D01*
X4246257Y-1404719D02*
X4255781Y-1414243D01*
X4255781Y-1414243D02*
X4265305Y-1433291D01*
X4265305Y-1433291D02*
X4265305Y-1490433D01*
X4265305Y-1490433D02*
X4255781Y-1509481D01*
X4255781Y-1509481D02*
X4246257Y-1519005D01*
X4246257Y-1519005D02*
X4227210Y-1528529D01*
X4227210Y-1528529D02*
X4198638Y-1528529D01*
X4379591Y-1528529D02*
X4360543Y-1519005D01*
X4360543Y-1519005D02*
X4351019Y-1499957D01*
X4351019Y-1499957D02*
X4351019Y-1328529D01*
X4531972Y-1519005D02*
X4512924Y-1528529D01*
X4512924Y-1528529D02*
X4474829Y-1528529D01*
X4474829Y-1528529D02*
X4455781Y-1519005D01*
X4455781Y-1519005D02*
X4446257Y-1499957D01*
X4446257Y-1499957D02*
X4446257Y-1423767D01*
X4446257Y-1423767D02*
X4455781Y-1404719D01*
X4455781Y-1404719D02*
X4474829Y-1395195D01*
X4474829Y-1395195D02*
X4512924Y-1395195D01*
X4512924Y-1395195D02*
X4531972Y-1404719D01*
X4531972Y-1404719D02*
X4541496Y-1423767D01*
X4541496Y-1423767D02*
X4541496Y-1442814D01*
X4541496Y-1442814D02*
X4446257Y-1461862D01*
X4617686Y-1519005D02*
X4636734Y-1528529D01*
X4636734Y-1528529D02*
X4674829Y-1528529D01*
X4674829Y-1528529D02*
X4693877Y-1519005D01*
X4693877Y-1519005D02*
X4703400Y-1499957D01*
X4703400Y-1499957D02*
X4703400Y-1490433D01*
X4703400Y-1490433D02*
X4693877Y-1471386D01*
X4693877Y-1471386D02*
X4674829Y-1461862D01*
X4674829Y-1461862D02*
X4646257Y-1461862D01*
X4646257Y-1461862D02*
X4627210Y-1452338D01*
X4627210Y-1452338D02*
X4617686Y-1433291D01*
X4617686Y-1433291D02*
X4617686Y-1423767D01*
X4617686Y-1423767D02*
X4627210Y-1404719D01*
X4627210Y-1404719D02*
X4646257Y-1395195D01*
X4646257Y-1395195D02*
X4674829Y-1395195D01*
X4674829Y-1395195D02*
X4693877Y-1404719D01*
X4941496Y-1452338D02*
X5093877Y-1452338D01*
X5017686Y-1528529D02*
X5017686Y-1376148D01*
X5331972Y-1347576D02*
X5341496Y-1338053D01*
X5341496Y-1338053D02*
X5360543Y-1328529D01*
X5360543Y-1328529D02*
X5408162Y-1328529D01*
X5408162Y-1328529D02*
X5427210Y-1338053D01*
X5427210Y-1338053D02*
X5436734Y-1347576D01*
X5436734Y-1347576D02*
X5446258Y-1366624D01*
X5446258Y-1366624D02*
X5446258Y-1385672D01*
X5446258Y-1385672D02*
X5436734Y-1414243D01*
X5436734Y-1414243D02*
X5322448Y-1528529D01*
X5322448Y-1528529D02*
X5446258Y-1528529D01*
X5674829Y-1519005D02*
X5693877Y-1528529D01*
X5693877Y-1528529D02*
X5731972Y-1528529D01*
X5731972Y-1528529D02*
X5751019Y-1519005D01*
X5751019Y-1519005D02*
X5760543Y-1499957D01*
X5760543Y-1499957D02*
X5760543Y-1490433D01*
X5760543Y-1490433D02*
X5751019Y-1471386D01*
X5751019Y-1471386D02*
X5731972Y-1461862D01*
X5731972Y-1461862D02*
X5703400Y-1461862D01*
X5703400Y-1461862D02*
X5684353Y-1452338D01*
X5684353Y-1452338D02*
X5674829Y-1433291D01*
X5674829Y-1433291D02*
X5674829Y-1423767D01*
X5674829Y-1423767D02*
X5684353Y-1404719D01*
X5684353Y-1404719D02*
X5703400Y-1395195D01*
X5703400Y-1395195D02*
X5731972Y-1395195D01*
X5731972Y-1395195D02*
X5751019Y-1404719D01*
X5874829Y-1528529D02*
X5855781Y-1519005D01*
X5855781Y-1519005D02*
X5846258Y-1499957D01*
X5846258Y-1499957D02*
X5846258Y-1328529D01*
X5979591Y-1528529D02*
X5960543Y-1519005D01*
X5960543Y-1519005D02*
X5951019Y-1509481D01*
X5951019Y-1509481D02*
X5941496Y-1490433D01*
X5941496Y-1490433D02*
X5941496Y-1433291D01*
X5941496Y-1433291D02*
X5951019Y-1414243D01*
X5951019Y-1414243D02*
X5960543Y-1404719D01*
X5960543Y-1404719D02*
X5979591Y-1395195D01*
X5979591Y-1395195D02*
X6008162Y-1395195D01*
X6008162Y-1395195D02*
X6027210Y-1404719D01*
X6027210Y-1404719D02*
X6036734Y-1414243D01*
X6036734Y-1414243D02*
X6046258Y-1433291D01*
X6046258Y-1433291D02*
X6046258Y-1490433D01*
X6046258Y-1490433D02*
X6036734Y-1509481D01*
X6036734Y-1509481D02*
X6027210Y-1519005D01*
X6027210Y-1519005D02*
X6008162Y-1528529D01*
X6008162Y-1528529D02*
X5979591Y-1528529D01*
X6103400Y-1395195D02*
X6179591Y-1395195D01*
X6131972Y-1328529D02*
X6131972Y-1499957D01*
X6131972Y-1499957D02*
X6141496Y-1519005D01*
X6141496Y-1519005D02*
X6160543Y-1528529D01*
X6160543Y-1528529D02*
X6179591Y-1528529D01*
X6236734Y-1519005D02*
X6255781Y-1528529D01*
X6255781Y-1528529D02*
X6293877Y-1528529D01*
X6293877Y-1528529D02*
X6312924Y-1519005D01*
X6312924Y-1519005D02*
X6322448Y-1499957D01*
X6322448Y-1499957D02*
X6322448Y-1490433D01*
X6322448Y-1490433D02*
X6312924Y-1471386D01*
X6312924Y-1471386D02*
X6293877Y-1461862D01*
X6293877Y-1461862D02*
X6265305Y-1461862D01*
X6265305Y-1461862D02*
X6246258Y-1452338D01*
X6246258Y-1452338D02*
X6236734Y-1433291D01*
X6236734Y-1433291D02*
X6236734Y-1423767D01*
X6236734Y-1423767D02*
X6246258Y-1404719D01*
X6246258Y-1404719D02*
X6265305Y-1395195D01*
X6265305Y-1395195D02*
X6293877Y-1395195D01*
X6293877Y-1395195D02*
X6312924Y-1404719D01*
X6389115Y-1604719D02*
X6398639Y-1595195D01*
X6398639Y-1595195D02*
X6417686Y-1566624D01*
X6417686Y-1566624D02*
X6427210Y-1547576D01*
X6427210Y-1547576D02*
X6436734Y-1519005D01*
X6436734Y-1519005D02*
X6446258Y-1471386D01*
X6446258Y-1471386D02*
X6446258Y-1433291D01*
X6446258Y-1433291D02*
X6436734Y-1385672D01*
X6436734Y-1385672D02*
X6427210Y-1357100D01*
X6427210Y-1357100D02*
X6417686Y-1338053D01*
X6417686Y-1338053D02*
X6398639Y-1309481D01*
X6398639Y-1309481D02*
X6389115Y-1299957D01*
D16*
X-34996Y-1731045D02*
X-4996Y-1701045D01*
X-34996Y-1671045D01*
X-64996Y-1701045D01*
X-34996Y-1731045D01*
D11*
X293876Y-1592529D02*
X312924Y-1592529D01*
X312924Y-1592529D02*
X331971Y-1602053D01*
X331971Y-1602053D02*
X341495Y-1611576D01*
X341495Y-1611576D02*
X351019Y-1630624D01*
X351019Y-1630624D02*
X360543Y-1668719D01*
X360543Y-1668719D02*
X360543Y-1716338D01*
X360543Y-1716338D02*
X351019Y-1754433D01*
X351019Y-1754433D02*
X341495Y-1773481D01*
X341495Y-1773481D02*
X331971Y-1783005D01*
X331971Y-1783005D02*
X312924Y-1792529D01*
X312924Y-1792529D02*
X293876Y-1792529D01*
X293876Y-1792529D02*
X274828Y-1783005D01*
X274828Y-1783005D02*
X265305Y-1773481D01*
X265305Y-1773481D02*
X255781Y-1754433D01*
X255781Y-1754433D02*
X246257Y-1716338D01*
X246257Y-1716338D02*
X246257Y-1668719D01*
X246257Y-1668719D02*
X255781Y-1630624D01*
X255781Y-1630624D02*
X265305Y-1611576D01*
X265305Y-1611576D02*
X274828Y-1602053D01*
X274828Y-1602053D02*
X293876Y-1592529D01*
X446257Y-1773481D02*
X455781Y-1783005D01*
X455781Y-1783005D02*
X446257Y-1792529D01*
X446257Y-1792529D02*
X436733Y-1783005D01*
X436733Y-1783005D02*
X446257Y-1773481D01*
X446257Y-1773481D02*
X446257Y-1792529D01*
X627209Y-1592529D02*
X589114Y-1592529D01*
X589114Y-1592529D02*
X570067Y-1602053D01*
X570067Y-1602053D02*
X560543Y-1611576D01*
X560543Y-1611576D02*
X541495Y-1640148D01*
X541495Y-1640148D02*
X531971Y-1678243D01*
X531971Y-1678243D02*
X531971Y-1754433D01*
X531971Y-1754433D02*
X541495Y-1773481D01*
X541495Y-1773481D02*
X551019Y-1783005D01*
X551019Y-1783005D02*
X570067Y-1792529D01*
X570067Y-1792529D02*
X608162Y-1792529D01*
X608162Y-1792529D02*
X627209Y-1783005D01*
X627209Y-1783005D02*
X636733Y-1773481D01*
X636733Y-1773481D02*
X646257Y-1754433D01*
X646257Y-1754433D02*
X646257Y-1706814D01*
X646257Y-1706814D02*
X636733Y-1687767D01*
X636733Y-1687767D02*
X627209Y-1678243D01*
X627209Y-1678243D02*
X608162Y-1668719D01*
X608162Y-1668719D02*
X570067Y-1668719D01*
X570067Y-1668719D02*
X551019Y-1678243D01*
X551019Y-1678243D02*
X541495Y-1687767D01*
X541495Y-1687767D02*
X531971Y-1706814D01*
X770066Y-1592529D02*
X789114Y-1592529D01*
X789114Y-1592529D02*
X808162Y-1602053D01*
X808162Y-1602053D02*
X817686Y-1611576D01*
X817686Y-1611576D02*
X827209Y-1630624D01*
X827209Y-1630624D02*
X836733Y-1668719D01*
X836733Y-1668719D02*
X836733Y-1716338D01*
X836733Y-1716338D02*
X827209Y-1754433D01*
X827209Y-1754433D02*
X817686Y-1773481D01*
X817686Y-1773481D02*
X808162Y-1783005D01*
X808162Y-1783005D02*
X789114Y-1792529D01*
X789114Y-1792529D02*
X770066Y-1792529D01*
X770066Y-1792529D02*
X751019Y-1783005D01*
X751019Y-1783005D02*
X741495Y-1773481D01*
X741495Y-1773481D02*
X731971Y-1754433D01*
X731971Y-1754433D02*
X722447Y-1716338D01*
X722447Y-1716338D02*
X722447Y-1668719D01*
X722447Y-1668719D02*
X731971Y-1630624D01*
X731971Y-1630624D02*
X741495Y-1611576D01*
X741495Y-1611576D02*
X751019Y-1602053D01*
X751019Y-1602053D02*
X770066Y-1592529D01*
X960543Y-1592529D02*
X979590Y-1592529D01*
X979590Y-1592529D02*
X998638Y-1602053D01*
X998638Y-1602053D02*
X1008162Y-1611576D01*
X1008162Y-1611576D02*
X1017686Y-1630624D01*
X1017686Y-1630624D02*
X1027209Y-1668719D01*
X1027209Y-1668719D02*
X1027209Y-1716338D01*
X1027209Y-1716338D02*
X1017686Y-1754433D01*
X1017686Y-1754433D02*
X1008162Y-1773481D01*
X1008162Y-1773481D02*
X998638Y-1783005D01*
X998638Y-1783005D02*
X979590Y-1792529D01*
X979590Y-1792529D02*
X960543Y-1792529D01*
X960543Y-1792529D02*
X941495Y-1783005D01*
X941495Y-1783005D02*
X931971Y-1773481D01*
X931971Y-1773481D02*
X922447Y-1754433D01*
X922447Y-1754433D02*
X912924Y-1716338D01*
X912924Y-1716338D02*
X912924Y-1668719D01*
X912924Y-1668719D02*
X922447Y-1630624D01*
X922447Y-1630624D02*
X931971Y-1611576D01*
X931971Y-1611576D02*
X941495Y-1602053D01*
X941495Y-1602053D02*
X960543Y-1592529D01*
X1112924Y-1792529D02*
X1112924Y-1659195D01*
X1112924Y-1678243D02*
X1122448Y-1668719D01*
X1122448Y-1668719D02*
X1141495Y-1659195D01*
X1141495Y-1659195D02*
X1170067Y-1659195D01*
X1170067Y-1659195D02*
X1189114Y-1668719D01*
X1189114Y-1668719D02*
X1198638Y-1687767D01*
X1198638Y-1687767D02*
X1198638Y-1792529D01*
X1198638Y-1687767D02*
X1208162Y-1668719D01*
X1208162Y-1668719D02*
X1227209Y-1659195D01*
X1227209Y-1659195D02*
X1255781Y-1659195D01*
X1255781Y-1659195D02*
X1274829Y-1668719D01*
X1274829Y-1668719D02*
X1284352Y-1687767D01*
X1284352Y-1687767D02*
X1284352Y-1792529D01*
X1379590Y-1792529D02*
X1379590Y-1659195D01*
X1379590Y-1678243D02*
X1389114Y-1668719D01*
X1389114Y-1668719D02*
X1408162Y-1659195D01*
X1408162Y-1659195D02*
X1436733Y-1659195D01*
X1436733Y-1659195D02*
X1455781Y-1668719D01*
X1455781Y-1668719D02*
X1465305Y-1687767D01*
X1465305Y-1687767D02*
X1465305Y-1792529D01*
X1465305Y-1687767D02*
X1474828Y-1668719D01*
X1474828Y-1668719D02*
X1493876Y-1659195D01*
X1493876Y-1659195D02*
X1522447Y-1659195D01*
X1522447Y-1659195D02*
X1541495Y-1668719D01*
X1541495Y-1668719D02*
X1551019Y-1687767D01*
X1551019Y-1687767D02*
X1551019Y-1792529D01*
X1941495Y-1583005D02*
X1770067Y-1840148D01*
X2198638Y-1592529D02*
X2217686Y-1592529D01*
X2217686Y-1592529D02*
X2236733Y-1602053D01*
X2236733Y-1602053D02*
X2246257Y-1611576D01*
X2246257Y-1611576D02*
X2255781Y-1630624D01*
X2255781Y-1630624D02*
X2265305Y-1668719D01*
X2265305Y-1668719D02*
X2265305Y-1716338D01*
X2265305Y-1716338D02*
X2255781Y-1754433D01*
X2255781Y-1754433D02*
X2246257Y-1773481D01*
X2246257Y-1773481D02*
X2236733Y-1783005D01*
X2236733Y-1783005D02*
X2217686Y-1792529D01*
X2217686Y-1792529D02*
X2198638Y-1792529D01*
X2198638Y-1792529D02*
X2179591Y-1783005D01*
X2179591Y-1783005D02*
X2170067Y-1773481D01*
X2170067Y-1773481D02*
X2160543Y-1754433D01*
X2160543Y-1754433D02*
X2151019Y-1716338D01*
X2151019Y-1716338D02*
X2151019Y-1668719D01*
X2151019Y-1668719D02*
X2160543Y-1630624D01*
X2160543Y-1630624D02*
X2170067Y-1611576D01*
X2170067Y-1611576D02*
X2179591Y-1602053D01*
X2179591Y-1602053D02*
X2198638Y-1592529D01*
X2351019Y-1773481D02*
X2360543Y-1783005D01*
X2360543Y-1783005D02*
X2351019Y-1792529D01*
X2351019Y-1792529D02*
X2341495Y-1783005D01*
X2341495Y-1783005D02*
X2351019Y-1773481D01*
X2351019Y-1773481D02*
X2351019Y-1792529D01*
X2484352Y-1592529D02*
X2503400Y-1592529D01*
X2503400Y-1592529D02*
X2522448Y-1602053D01*
X2522448Y-1602053D02*
X2531972Y-1611576D01*
X2531972Y-1611576D02*
X2541495Y-1630624D01*
X2541495Y-1630624D02*
X2551019Y-1668719D01*
X2551019Y-1668719D02*
X2551019Y-1716338D01*
X2551019Y-1716338D02*
X2541495Y-1754433D01*
X2541495Y-1754433D02*
X2531972Y-1773481D01*
X2531972Y-1773481D02*
X2522448Y-1783005D01*
X2522448Y-1783005D02*
X2503400Y-1792529D01*
X2503400Y-1792529D02*
X2484352Y-1792529D01*
X2484352Y-1792529D02*
X2465305Y-1783005D01*
X2465305Y-1783005D02*
X2455781Y-1773481D01*
X2455781Y-1773481D02*
X2446257Y-1754433D01*
X2446257Y-1754433D02*
X2436733Y-1716338D01*
X2436733Y-1716338D02*
X2436733Y-1668719D01*
X2436733Y-1668719D02*
X2446257Y-1630624D01*
X2446257Y-1630624D02*
X2455781Y-1611576D01*
X2455781Y-1611576D02*
X2465305Y-1602053D01*
X2465305Y-1602053D02*
X2484352Y-1592529D01*
X2627210Y-1611576D02*
X2636733Y-1602053D01*
X2636733Y-1602053D02*
X2655781Y-1592529D01*
X2655781Y-1592529D02*
X2703400Y-1592529D01*
X2703400Y-1592529D02*
X2722448Y-1602053D01*
X2722448Y-1602053D02*
X2731972Y-1611576D01*
X2731972Y-1611576D02*
X2741495Y-1630624D01*
X2741495Y-1630624D02*
X2741495Y-1649672D01*
X2741495Y-1649672D02*
X2731972Y-1678243D01*
X2731972Y-1678243D02*
X2617686Y-1792529D01*
X2617686Y-1792529D02*
X2741495Y-1792529D01*
X2808162Y-1592529D02*
X2931971Y-1592529D01*
X2931971Y-1592529D02*
X2865305Y-1668719D01*
X2865305Y-1668719D02*
X2893876Y-1668719D01*
X2893876Y-1668719D02*
X2912924Y-1678243D01*
X2912924Y-1678243D02*
X2922448Y-1687767D01*
X2922448Y-1687767D02*
X2931971Y-1706814D01*
X2931971Y-1706814D02*
X2931971Y-1754433D01*
X2931971Y-1754433D02*
X2922448Y-1773481D01*
X2922448Y-1773481D02*
X2912924Y-1783005D01*
X2912924Y-1783005D02*
X2893876Y-1792529D01*
X2893876Y-1792529D02*
X2836733Y-1792529D01*
X2836733Y-1792529D02*
X2817686Y-1783005D01*
X2817686Y-1783005D02*
X2808162Y-1773481D01*
X3103400Y-1592529D02*
X3065305Y-1592529D01*
X3065305Y-1592529D02*
X3046257Y-1602053D01*
X3046257Y-1602053D02*
X3036733Y-1611576D01*
X3036733Y-1611576D02*
X3017686Y-1640148D01*
X3017686Y-1640148D02*
X3008162Y-1678243D01*
X3008162Y-1678243D02*
X3008162Y-1754433D01*
X3008162Y-1754433D02*
X3017686Y-1773481D01*
X3017686Y-1773481D02*
X3027210Y-1783005D01*
X3027210Y-1783005D02*
X3046257Y-1792529D01*
X3046257Y-1792529D02*
X3084352Y-1792529D01*
X3084352Y-1792529D02*
X3103400Y-1783005D01*
X3103400Y-1783005D02*
X3112924Y-1773481D01*
X3112924Y-1773481D02*
X3122448Y-1754433D01*
X3122448Y-1754433D02*
X3122448Y-1706814D01*
X3122448Y-1706814D02*
X3112924Y-1687767D01*
X3112924Y-1687767D02*
X3103400Y-1678243D01*
X3103400Y-1678243D02*
X3084352Y-1668719D01*
X3084352Y-1668719D02*
X3046257Y-1668719D01*
X3046257Y-1668719D02*
X3027210Y-1678243D01*
X3027210Y-1678243D02*
X3017686Y-1687767D01*
X3017686Y-1687767D02*
X3008162Y-1706814D01*
X3198638Y-1592529D02*
X3198638Y-1630624D01*
X3274829Y-1592529D02*
X3274829Y-1630624D01*
X3570067Y-1868719D02*
X3560543Y-1859195D01*
X3560543Y-1859195D02*
X3541495Y-1830624D01*
X3541495Y-1830624D02*
X3531972Y-1811576D01*
X3531972Y-1811576D02*
X3522448Y-1783005D01*
X3522448Y-1783005D02*
X3512924Y-1735386D01*
X3512924Y-1735386D02*
X3512924Y-1697291D01*
X3512924Y-1697291D02*
X3522448Y-1649672D01*
X3522448Y-1649672D02*
X3531972Y-1621100D01*
X3531972Y-1621100D02*
X3541495Y-1602053D01*
X3541495Y-1602053D02*
X3560543Y-1573481D01*
X3560543Y-1573481D02*
X3570067Y-1563957D01*
X3684352Y-1592529D02*
X3703400Y-1592529D01*
X3703400Y-1592529D02*
X3722448Y-1602053D01*
X3722448Y-1602053D02*
X3731972Y-1611576D01*
X3731972Y-1611576D02*
X3741495Y-1630624D01*
X3741495Y-1630624D02*
X3751019Y-1668719D01*
X3751019Y-1668719D02*
X3751019Y-1716338D01*
X3751019Y-1716338D02*
X3741495Y-1754433D01*
X3741495Y-1754433D02*
X3731972Y-1773481D01*
X3731972Y-1773481D02*
X3722448Y-1783005D01*
X3722448Y-1783005D02*
X3703400Y-1792529D01*
X3703400Y-1792529D02*
X3684352Y-1792529D01*
X3684352Y-1792529D02*
X3665305Y-1783005D01*
X3665305Y-1783005D02*
X3655781Y-1773481D01*
X3655781Y-1773481D02*
X3646257Y-1754433D01*
X3646257Y-1754433D02*
X3636733Y-1716338D01*
X3636733Y-1716338D02*
X3636733Y-1668719D01*
X3636733Y-1668719D02*
X3646257Y-1630624D01*
X3646257Y-1630624D02*
X3655781Y-1611576D01*
X3655781Y-1611576D02*
X3665305Y-1602053D01*
X3665305Y-1602053D02*
X3684352Y-1592529D01*
X3989114Y-1792529D02*
X3989114Y-1592529D01*
X4074829Y-1792529D02*
X4074829Y-1687767D01*
X4074829Y-1687767D02*
X4065305Y-1668719D01*
X4065305Y-1668719D02*
X4046257Y-1659195D01*
X4046257Y-1659195D02*
X4017686Y-1659195D01*
X4017686Y-1659195D02*
X3998638Y-1668719D01*
X3998638Y-1668719D02*
X3989114Y-1678243D01*
X4198638Y-1792529D02*
X4179591Y-1783005D01*
X4179591Y-1783005D02*
X4170067Y-1773481D01*
X4170067Y-1773481D02*
X4160543Y-1754433D01*
X4160543Y-1754433D02*
X4160543Y-1697291D01*
X4160543Y-1697291D02*
X4170067Y-1678243D01*
X4170067Y-1678243D02*
X4179591Y-1668719D01*
X4179591Y-1668719D02*
X4198638Y-1659195D01*
X4198638Y-1659195D02*
X4227210Y-1659195D01*
X4227210Y-1659195D02*
X4246257Y-1668719D01*
X4246257Y-1668719D02*
X4255781Y-1678243D01*
X4255781Y-1678243D02*
X4265305Y-1697291D01*
X4265305Y-1697291D02*
X4265305Y-1754433D01*
X4265305Y-1754433D02*
X4255781Y-1773481D01*
X4255781Y-1773481D02*
X4246257Y-1783005D01*
X4246257Y-1783005D02*
X4227210Y-1792529D01*
X4227210Y-1792529D02*
X4198638Y-1792529D01*
X4379591Y-1792529D02*
X4360543Y-1783005D01*
X4360543Y-1783005D02*
X4351019Y-1763957D01*
X4351019Y-1763957D02*
X4351019Y-1592529D01*
X4531972Y-1783005D02*
X4512924Y-1792529D01*
X4512924Y-1792529D02*
X4474829Y-1792529D01*
X4474829Y-1792529D02*
X4455781Y-1783005D01*
X4455781Y-1783005D02*
X4446257Y-1763957D01*
X4446257Y-1763957D02*
X4446257Y-1687767D01*
X4446257Y-1687767D02*
X4455781Y-1668719D01*
X4455781Y-1668719D02*
X4474829Y-1659195D01*
X4474829Y-1659195D02*
X4512924Y-1659195D01*
X4512924Y-1659195D02*
X4531972Y-1668719D01*
X4531972Y-1668719D02*
X4541496Y-1687767D01*
X4541496Y-1687767D02*
X4541496Y-1706814D01*
X4541496Y-1706814D02*
X4446257Y-1725862D01*
X4617686Y-1783005D02*
X4636734Y-1792529D01*
X4636734Y-1792529D02*
X4674829Y-1792529D01*
X4674829Y-1792529D02*
X4693877Y-1783005D01*
X4693877Y-1783005D02*
X4703400Y-1763957D01*
X4703400Y-1763957D02*
X4703400Y-1754433D01*
X4703400Y-1754433D02*
X4693877Y-1735386D01*
X4693877Y-1735386D02*
X4674829Y-1725862D01*
X4674829Y-1725862D02*
X4646257Y-1725862D01*
X4646257Y-1725862D02*
X4627210Y-1716338D01*
X4627210Y-1716338D02*
X4617686Y-1697291D01*
X4617686Y-1697291D02*
X4617686Y-1687767D01*
X4617686Y-1687767D02*
X4627210Y-1668719D01*
X4627210Y-1668719D02*
X4646257Y-1659195D01*
X4646257Y-1659195D02*
X4674829Y-1659195D01*
X4674829Y-1659195D02*
X4693877Y-1668719D01*
X4941496Y-1716338D02*
X5093877Y-1716338D01*
X5017686Y-1792529D02*
X5017686Y-1640148D01*
X5331972Y-1611576D02*
X5341496Y-1602053D01*
X5341496Y-1602053D02*
X5360543Y-1592529D01*
X5360543Y-1592529D02*
X5408162Y-1592529D01*
X5408162Y-1592529D02*
X5427210Y-1602053D01*
X5427210Y-1602053D02*
X5436734Y-1611576D01*
X5436734Y-1611576D02*
X5446258Y-1630624D01*
X5446258Y-1630624D02*
X5446258Y-1649672D01*
X5446258Y-1649672D02*
X5436734Y-1678243D01*
X5436734Y-1678243D02*
X5322448Y-1792529D01*
X5322448Y-1792529D02*
X5446258Y-1792529D01*
X5674829Y-1783005D02*
X5693877Y-1792529D01*
X5693877Y-1792529D02*
X5731972Y-1792529D01*
X5731972Y-1792529D02*
X5751019Y-1783005D01*
X5751019Y-1783005D02*
X5760543Y-1763957D01*
X5760543Y-1763957D02*
X5760543Y-1754433D01*
X5760543Y-1754433D02*
X5751019Y-1735386D01*
X5751019Y-1735386D02*
X5731972Y-1725862D01*
X5731972Y-1725862D02*
X5703400Y-1725862D01*
X5703400Y-1725862D02*
X5684353Y-1716338D01*
X5684353Y-1716338D02*
X5674829Y-1697291D01*
X5674829Y-1697291D02*
X5674829Y-1687767D01*
X5674829Y-1687767D02*
X5684353Y-1668719D01*
X5684353Y-1668719D02*
X5703400Y-1659195D01*
X5703400Y-1659195D02*
X5731972Y-1659195D01*
X5731972Y-1659195D02*
X5751019Y-1668719D01*
X5874829Y-1792529D02*
X5855781Y-1783005D01*
X5855781Y-1783005D02*
X5846258Y-1763957D01*
X5846258Y-1763957D02*
X5846258Y-1592529D01*
X5979591Y-1792529D02*
X5960543Y-1783005D01*
X5960543Y-1783005D02*
X5951019Y-1773481D01*
X5951019Y-1773481D02*
X5941496Y-1754433D01*
X5941496Y-1754433D02*
X5941496Y-1697291D01*
X5941496Y-1697291D02*
X5951019Y-1678243D01*
X5951019Y-1678243D02*
X5960543Y-1668719D01*
X5960543Y-1668719D02*
X5979591Y-1659195D01*
X5979591Y-1659195D02*
X6008162Y-1659195D01*
X6008162Y-1659195D02*
X6027210Y-1668719D01*
X6027210Y-1668719D02*
X6036734Y-1678243D01*
X6036734Y-1678243D02*
X6046258Y-1697291D01*
X6046258Y-1697291D02*
X6046258Y-1754433D01*
X6046258Y-1754433D02*
X6036734Y-1773481D01*
X6036734Y-1773481D02*
X6027210Y-1783005D01*
X6027210Y-1783005D02*
X6008162Y-1792529D01*
X6008162Y-1792529D02*
X5979591Y-1792529D01*
X6103400Y-1659195D02*
X6179591Y-1659195D01*
X6131972Y-1592529D02*
X6131972Y-1763957D01*
X6131972Y-1763957D02*
X6141496Y-1783005D01*
X6141496Y-1783005D02*
X6160543Y-1792529D01*
X6160543Y-1792529D02*
X6179591Y-1792529D01*
X6236734Y-1783005D02*
X6255781Y-1792529D01*
X6255781Y-1792529D02*
X6293877Y-1792529D01*
X6293877Y-1792529D02*
X6312924Y-1783005D01*
X6312924Y-1783005D02*
X6322448Y-1763957D01*
X6322448Y-1763957D02*
X6322448Y-1754433D01*
X6322448Y-1754433D02*
X6312924Y-1735386D01*
X6312924Y-1735386D02*
X6293877Y-1725862D01*
X6293877Y-1725862D02*
X6265305Y-1725862D01*
X6265305Y-1725862D02*
X6246258Y-1716338D01*
X6246258Y-1716338D02*
X6236734Y-1697291D01*
X6236734Y-1697291D02*
X6236734Y-1687767D01*
X6236734Y-1687767D02*
X6246258Y-1668719D01*
X6246258Y-1668719D02*
X6265305Y-1659195D01*
X6265305Y-1659195D02*
X6293877Y-1659195D01*
X6293877Y-1659195D02*
X6312924Y-1668719D01*
X6389115Y-1868719D02*
X6398639Y-1859195D01*
X6398639Y-1859195D02*
X6417686Y-1830624D01*
X6417686Y-1830624D02*
X6427210Y-1811576D01*
X6427210Y-1811576D02*
X6436734Y-1783005D01*
X6436734Y-1783005D02*
X6446258Y-1735386D01*
X6446258Y-1735386D02*
X6446258Y-1697291D01*
X6446258Y-1697291D02*
X6436734Y-1649672D01*
X6436734Y-1649672D02*
X6427210Y-1621100D01*
X6427210Y-1621100D02*
X6417686Y-1602053D01*
X6417686Y-1602053D02*
X6398639Y-1573481D01*
X6398639Y-1573481D02*
X6389115Y-1563957D01*
D17*
X-86276Y-1924405D02*
X-4996Y-2005685D01*
X-4996Y-1924405D02*
X-86276Y-2005685D01*
X-4996Y-1965045D02*
G75*
G03*
X-4996Y-1965045I-40640J0D01*
G01*
D11*
X293876Y-1856529D02*
X312924Y-1856529D01*
X312924Y-1856529D02*
X331971Y-1866053D01*
X331971Y-1866053D02*
X341495Y-1875576D01*
X341495Y-1875576D02*
X351019Y-1894624D01*
X351019Y-1894624D02*
X360543Y-1932719D01*
X360543Y-1932719D02*
X360543Y-1980338D01*
X360543Y-1980338D02*
X351019Y-2018433D01*
X351019Y-2018433D02*
X341495Y-2037481D01*
X341495Y-2037481D02*
X331971Y-2047005D01*
X331971Y-2047005D02*
X312924Y-2056529D01*
X312924Y-2056529D02*
X293876Y-2056529D01*
X293876Y-2056529D02*
X274828Y-2047005D01*
X274828Y-2047005D02*
X265305Y-2037481D01*
X265305Y-2037481D02*
X255781Y-2018433D01*
X255781Y-2018433D02*
X246257Y-1980338D01*
X246257Y-1980338D02*
X246257Y-1932719D01*
X246257Y-1932719D02*
X255781Y-1894624D01*
X255781Y-1894624D02*
X265305Y-1875576D01*
X265305Y-1875576D02*
X274828Y-1866053D01*
X274828Y-1866053D02*
X293876Y-1856529D01*
X446257Y-2037481D02*
X455781Y-2047005D01*
X455781Y-2047005D02*
X446257Y-2056529D01*
X446257Y-2056529D02*
X436733Y-2047005D01*
X436733Y-2047005D02*
X446257Y-2037481D01*
X446257Y-2037481D02*
X446257Y-2056529D01*
X570067Y-1942243D02*
X551019Y-1932719D01*
X551019Y-1932719D02*
X541495Y-1923195D01*
X541495Y-1923195D02*
X531971Y-1904148D01*
X531971Y-1904148D02*
X531971Y-1894624D01*
X531971Y-1894624D02*
X541495Y-1875576D01*
X541495Y-1875576D02*
X551019Y-1866053D01*
X551019Y-1866053D02*
X570067Y-1856529D01*
X570067Y-1856529D02*
X608162Y-1856529D01*
X608162Y-1856529D02*
X627209Y-1866053D01*
X627209Y-1866053D02*
X636733Y-1875576D01*
X636733Y-1875576D02*
X646257Y-1894624D01*
X646257Y-1894624D02*
X646257Y-1904148D01*
X646257Y-1904148D02*
X636733Y-1923195D01*
X636733Y-1923195D02*
X627209Y-1932719D01*
X627209Y-1932719D02*
X608162Y-1942243D01*
X608162Y-1942243D02*
X570067Y-1942243D01*
X570067Y-1942243D02*
X551019Y-1951767D01*
X551019Y-1951767D02*
X541495Y-1961291D01*
X541495Y-1961291D02*
X531971Y-1980338D01*
X531971Y-1980338D02*
X531971Y-2018433D01*
X531971Y-2018433D02*
X541495Y-2037481D01*
X541495Y-2037481D02*
X551019Y-2047005D01*
X551019Y-2047005D02*
X570067Y-2056529D01*
X570067Y-2056529D02*
X608162Y-2056529D01*
X608162Y-2056529D02*
X627209Y-2047005D01*
X627209Y-2047005D02*
X636733Y-2037481D01*
X636733Y-2037481D02*
X646257Y-2018433D01*
X646257Y-2018433D02*
X646257Y-1980338D01*
X646257Y-1980338D02*
X636733Y-1961291D01*
X636733Y-1961291D02*
X627209Y-1951767D01*
X627209Y-1951767D02*
X608162Y-1942243D01*
X836733Y-2056529D02*
X722447Y-2056529D01*
X779590Y-2056529D02*
X779590Y-1856529D01*
X779590Y-1856529D02*
X760543Y-1885100D01*
X760543Y-1885100D02*
X741495Y-1904148D01*
X741495Y-1904148D02*
X722447Y-1913672D01*
X903400Y-1856529D02*
X1027209Y-1856529D01*
X1027209Y-1856529D02*
X960543Y-1932719D01*
X960543Y-1932719D02*
X989114Y-1932719D01*
X989114Y-1932719D02*
X1008162Y-1942243D01*
X1008162Y-1942243D02*
X1017686Y-1951767D01*
X1017686Y-1951767D02*
X1027209Y-1970814D01*
X1027209Y-1970814D02*
X1027209Y-2018433D01*
X1027209Y-2018433D02*
X1017686Y-2037481D01*
X1017686Y-2037481D02*
X1008162Y-2047005D01*
X1008162Y-2047005D02*
X989114Y-2056529D01*
X989114Y-2056529D02*
X931971Y-2056529D01*
X931971Y-2056529D02*
X912924Y-2047005D01*
X912924Y-2047005D02*
X903400Y-2037481D01*
X1112924Y-2056529D02*
X1112924Y-1923195D01*
X1112924Y-1942243D02*
X1122448Y-1932719D01*
X1122448Y-1932719D02*
X1141495Y-1923195D01*
X1141495Y-1923195D02*
X1170067Y-1923195D01*
X1170067Y-1923195D02*
X1189114Y-1932719D01*
X1189114Y-1932719D02*
X1198638Y-1951767D01*
X1198638Y-1951767D02*
X1198638Y-2056529D01*
X1198638Y-1951767D02*
X1208162Y-1932719D01*
X1208162Y-1932719D02*
X1227209Y-1923195D01*
X1227209Y-1923195D02*
X1255781Y-1923195D01*
X1255781Y-1923195D02*
X1274829Y-1932719D01*
X1274829Y-1932719D02*
X1284352Y-1951767D01*
X1284352Y-1951767D02*
X1284352Y-2056529D01*
X1379590Y-2056529D02*
X1379590Y-1923195D01*
X1379590Y-1942243D02*
X1389114Y-1932719D01*
X1389114Y-1932719D02*
X1408162Y-1923195D01*
X1408162Y-1923195D02*
X1436733Y-1923195D01*
X1436733Y-1923195D02*
X1455781Y-1932719D01*
X1455781Y-1932719D02*
X1465305Y-1951767D01*
X1465305Y-1951767D02*
X1465305Y-2056529D01*
X1465305Y-1951767D02*
X1474828Y-1932719D01*
X1474828Y-1932719D02*
X1493876Y-1923195D01*
X1493876Y-1923195D02*
X1522447Y-1923195D01*
X1522447Y-1923195D02*
X1541495Y-1932719D01*
X1541495Y-1932719D02*
X1551019Y-1951767D01*
X1551019Y-1951767D02*
X1551019Y-2056529D01*
X1941495Y-1847005D02*
X1770067Y-2104148D01*
X2198638Y-1856529D02*
X2217686Y-1856529D01*
X2217686Y-1856529D02*
X2236733Y-1866053D01*
X2236733Y-1866053D02*
X2246257Y-1875576D01*
X2246257Y-1875576D02*
X2255781Y-1894624D01*
X2255781Y-1894624D02*
X2265305Y-1932719D01*
X2265305Y-1932719D02*
X2265305Y-1980338D01*
X2265305Y-1980338D02*
X2255781Y-2018433D01*
X2255781Y-2018433D02*
X2246257Y-2037481D01*
X2246257Y-2037481D02*
X2236733Y-2047005D01*
X2236733Y-2047005D02*
X2217686Y-2056529D01*
X2217686Y-2056529D02*
X2198638Y-2056529D01*
X2198638Y-2056529D02*
X2179591Y-2047005D01*
X2179591Y-2047005D02*
X2170067Y-2037481D01*
X2170067Y-2037481D02*
X2160543Y-2018433D01*
X2160543Y-2018433D02*
X2151019Y-1980338D01*
X2151019Y-1980338D02*
X2151019Y-1932719D01*
X2151019Y-1932719D02*
X2160543Y-1894624D01*
X2160543Y-1894624D02*
X2170067Y-1875576D01*
X2170067Y-1875576D02*
X2179591Y-1866053D01*
X2179591Y-1866053D02*
X2198638Y-1856529D01*
X2351019Y-2037481D02*
X2360543Y-2047005D01*
X2360543Y-2047005D02*
X2351019Y-2056529D01*
X2351019Y-2056529D02*
X2341495Y-2047005D01*
X2341495Y-2047005D02*
X2351019Y-2037481D01*
X2351019Y-2037481D02*
X2351019Y-2056529D01*
X2484352Y-1856529D02*
X2503400Y-1856529D01*
X2503400Y-1856529D02*
X2522448Y-1866053D01*
X2522448Y-1866053D02*
X2531972Y-1875576D01*
X2531972Y-1875576D02*
X2541495Y-1894624D01*
X2541495Y-1894624D02*
X2551019Y-1932719D01*
X2551019Y-1932719D02*
X2551019Y-1980338D01*
X2551019Y-1980338D02*
X2541495Y-2018433D01*
X2541495Y-2018433D02*
X2531972Y-2037481D01*
X2531972Y-2037481D02*
X2522448Y-2047005D01*
X2522448Y-2047005D02*
X2503400Y-2056529D01*
X2503400Y-2056529D02*
X2484352Y-2056529D01*
X2484352Y-2056529D02*
X2465305Y-2047005D01*
X2465305Y-2047005D02*
X2455781Y-2037481D01*
X2455781Y-2037481D02*
X2446257Y-2018433D01*
X2446257Y-2018433D02*
X2436733Y-1980338D01*
X2436733Y-1980338D02*
X2436733Y-1932719D01*
X2436733Y-1932719D02*
X2446257Y-1894624D01*
X2446257Y-1894624D02*
X2455781Y-1875576D01*
X2455781Y-1875576D02*
X2465305Y-1866053D01*
X2465305Y-1866053D02*
X2484352Y-1856529D01*
X2617686Y-1856529D02*
X2741495Y-1856529D01*
X2741495Y-1856529D02*
X2674829Y-1932719D01*
X2674829Y-1932719D02*
X2703400Y-1932719D01*
X2703400Y-1932719D02*
X2722448Y-1942243D01*
X2722448Y-1942243D02*
X2731972Y-1951767D01*
X2731972Y-1951767D02*
X2741495Y-1970814D01*
X2741495Y-1970814D02*
X2741495Y-2018433D01*
X2741495Y-2018433D02*
X2731972Y-2037481D01*
X2731972Y-2037481D02*
X2722448Y-2047005D01*
X2722448Y-2047005D02*
X2703400Y-2056529D01*
X2703400Y-2056529D02*
X2646257Y-2056529D01*
X2646257Y-2056529D02*
X2627210Y-2047005D01*
X2627210Y-2047005D02*
X2617686Y-2037481D01*
X2817686Y-1875576D02*
X2827210Y-1866053D01*
X2827210Y-1866053D02*
X2846257Y-1856529D01*
X2846257Y-1856529D02*
X2893876Y-1856529D01*
X2893876Y-1856529D02*
X2912924Y-1866053D01*
X2912924Y-1866053D02*
X2922448Y-1875576D01*
X2922448Y-1875576D02*
X2931971Y-1894624D01*
X2931971Y-1894624D02*
X2931971Y-1913672D01*
X2931971Y-1913672D02*
X2922448Y-1942243D01*
X2922448Y-1942243D02*
X2808162Y-2056529D01*
X2808162Y-2056529D02*
X2931971Y-2056529D01*
X3055781Y-1856529D02*
X3074829Y-1856529D01*
X3074829Y-1856529D02*
X3093876Y-1866053D01*
X3093876Y-1866053D02*
X3103400Y-1875576D01*
X3103400Y-1875576D02*
X3112924Y-1894624D01*
X3112924Y-1894624D02*
X3122448Y-1932719D01*
X3122448Y-1932719D02*
X3122448Y-1980338D01*
X3122448Y-1980338D02*
X3112924Y-2018433D01*
X3112924Y-2018433D02*
X3103400Y-2037481D01*
X3103400Y-2037481D02*
X3093876Y-2047005D01*
X3093876Y-2047005D02*
X3074829Y-2056529D01*
X3074829Y-2056529D02*
X3055781Y-2056529D01*
X3055781Y-2056529D02*
X3036733Y-2047005D01*
X3036733Y-2047005D02*
X3027210Y-2037481D01*
X3027210Y-2037481D02*
X3017686Y-2018433D01*
X3017686Y-2018433D02*
X3008162Y-1980338D01*
X3008162Y-1980338D02*
X3008162Y-1932719D01*
X3008162Y-1932719D02*
X3017686Y-1894624D01*
X3017686Y-1894624D02*
X3027210Y-1875576D01*
X3027210Y-1875576D02*
X3036733Y-1866053D01*
X3036733Y-1866053D02*
X3055781Y-1856529D01*
X3198638Y-1856529D02*
X3198638Y-1894624D01*
X3274829Y-1856529D02*
X3274829Y-1894624D01*
X3570067Y-2132719D02*
X3560543Y-2123195D01*
X3560543Y-2123195D02*
X3541495Y-2094624D01*
X3541495Y-2094624D02*
X3531972Y-2075576D01*
X3531972Y-2075576D02*
X3522448Y-2047005D01*
X3522448Y-2047005D02*
X3512924Y-1999386D01*
X3512924Y-1999386D02*
X3512924Y-1961291D01*
X3512924Y-1961291D02*
X3522448Y-1913672D01*
X3522448Y-1913672D02*
X3531972Y-1885100D01*
X3531972Y-1885100D02*
X3541495Y-1866053D01*
X3541495Y-1866053D02*
X3560543Y-1837481D01*
X3560543Y-1837481D02*
X3570067Y-1827957D01*
X3731972Y-1923195D02*
X3731972Y-2056529D01*
X3684352Y-1847005D02*
X3636733Y-1989862D01*
X3636733Y-1989862D02*
X3760543Y-1989862D01*
X3989114Y-2056529D02*
X3989114Y-1856529D01*
X4074829Y-2056529D02*
X4074829Y-1951767D01*
X4074829Y-1951767D02*
X4065305Y-1932719D01*
X4065305Y-1932719D02*
X4046257Y-1923195D01*
X4046257Y-1923195D02*
X4017686Y-1923195D01*
X4017686Y-1923195D02*
X3998638Y-1932719D01*
X3998638Y-1932719D02*
X3989114Y-1942243D01*
X4198638Y-2056529D02*
X4179591Y-2047005D01*
X4179591Y-2047005D02*
X4170067Y-2037481D01*
X4170067Y-2037481D02*
X4160543Y-2018433D01*
X4160543Y-2018433D02*
X4160543Y-1961291D01*
X4160543Y-1961291D02*
X4170067Y-1942243D01*
X4170067Y-1942243D02*
X4179591Y-1932719D01*
X4179591Y-1932719D02*
X4198638Y-1923195D01*
X4198638Y-1923195D02*
X4227210Y-1923195D01*
X4227210Y-1923195D02*
X4246257Y-1932719D01*
X4246257Y-1932719D02*
X4255781Y-1942243D01*
X4255781Y-1942243D02*
X4265305Y-1961291D01*
X4265305Y-1961291D02*
X4265305Y-2018433D01*
X4265305Y-2018433D02*
X4255781Y-2037481D01*
X4255781Y-2037481D02*
X4246257Y-2047005D01*
X4246257Y-2047005D02*
X4227210Y-2056529D01*
X4227210Y-2056529D02*
X4198638Y-2056529D01*
X4379591Y-2056529D02*
X4360543Y-2047005D01*
X4360543Y-2047005D02*
X4351019Y-2027957D01*
X4351019Y-2027957D02*
X4351019Y-1856529D01*
X4531972Y-2047005D02*
X4512924Y-2056529D01*
X4512924Y-2056529D02*
X4474829Y-2056529D01*
X4474829Y-2056529D02*
X4455781Y-2047005D01*
X4455781Y-2047005D02*
X4446257Y-2027957D01*
X4446257Y-2027957D02*
X4446257Y-1951767D01*
X4446257Y-1951767D02*
X4455781Y-1932719D01*
X4455781Y-1932719D02*
X4474829Y-1923195D01*
X4474829Y-1923195D02*
X4512924Y-1923195D01*
X4512924Y-1923195D02*
X4531972Y-1932719D01*
X4531972Y-1932719D02*
X4541496Y-1951767D01*
X4541496Y-1951767D02*
X4541496Y-1970814D01*
X4541496Y-1970814D02*
X4446257Y-1989862D01*
X4617686Y-2047005D02*
X4636734Y-2056529D01*
X4636734Y-2056529D02*
X4674829Y-2056529D01*
X4674829Y-2056529D02*
X4693877Y-2047005D01*
X4693877Y-2047005D02*
X4703400Y-2027957D01*
X4703400Y-2027957D02*
X4703400Y-2018433D01*
X4703400Y-2018433D02*
X4693877Y-1999386D01*
X4693877Y-1999386D02*
X4674829Y-1989862D01*
X4674829Y-1989862D02*
X4646257Y-1989862D01*
X4646257Y-1989862D02*
X4627210Y-1980338D01*
X4627210Y-1980338D02*
X4617686Y-1961291D01*
X4617686Y-1961291D02*
X4617686Y-1951767D01*
X4617686Y-1951767D02*
X4627210Y-1932719D01*
X4627210Y-1932719D02*
X4646257Y-1923195D01*
X4646257Y-1923195D02*
X4674829Y-1923195D01*
X4674829Y-1923195D02*
X4693877Y-1932719D01*
X4770067Y-2132719D02*
X4779591Y-2123195D01*
X4779591Y-2123195D02*
X4798638Y-2094624D01*
X4798638Y-2094624D02*
X4808162Y-2075576D01*
X4808162Y-2075576D02*
X4817686Y-2047005D01*
X4817686Y-2047005D02*
X4827210Y-1999386D01*
X4827210Y-1999386D02*
X4827210Y-1961291D01*
X4827210Y-1961291D02*
X4817686Y-1913672D01*
X4817686Y-1913672D02*
X4808162Y-1885100D01*
X4808162Y-1885100D02*
X4798638Y-1866053D01*
X4798638Y-1866053D02*
X4779591Y-1837481D01*
X4779591Y-1837481D02*
X4770067Y-1827957D01*
D10*
X-104996Y-2179045D02*
X-4996Y-2279045D01*
X-4996Y-2179045D02*
X-104996Y-2279045D01*
X-54996Y-2179045D02*
X-54996Y-2279045D01*
X-104996Y-2229045D02*
X-4996Y-2229045D01*
D11*
X360543Y-2320529D02*
X246257Y-2320529D01*
X303400Y-2320529D02*
X303400Y-2120529D01*
X303400Y-2120529D02*
X284352Y-2149100D01*
X284352Y-2149100D02*
X265305Y-2168148D01*
X265305Y-2168148D02*
X246257Y-2177672D01*
X446257Y-2301481D02*
X455781Y-2311005D01*
X455781Y-2311005D02*
X446257Y-2320529D01*
X446257Y-2320529D02*
X436733Y-2311005D01*
X436733Y-2311005D02*
X446257Y-2301481D01*
X446257Y-2301481D02*
X446257Y-2320529D01*
X579590Y-2120529D02*
X598638Y-2120529D01*
X598638Y-2120529D02*
X617686Y-2130053D01*
X617686Y-2130053D02*
X627209Y-2139576D01*
X627209Y-2139576D02*
X636733Y-2158624D01*
X636733Y-2158624D02*
X646257Y-2196719D01*
X646257Y-2196719D02*
X646257Y-2244338D01*
X646257Y-2244338D02*
X636733Y-2282434D01*
X636733Y-2282434D02*
X627209Y-2301481D01*
X627209Y-2301481D02*
X617686Y-2311005D01*
X617686Y-2311005D02*
X598638Y-2320529D01*
X598638Y-2320529D02*
X579590Y-2320529D01*
X579590Y-2320529D02*
X560543Y-2311005D01*
X560543Y-2311005D02*
X551019Y-2301481D01*
X551019Y-2301481D02*
X541495Y-2282434D01*
X541495Y-2282434D02*
X531971Y-2244338D01*
X531971Y-2244338D02*
X531971Y-2196719D01*
X531971Y-2196719D02*
X541495Y-2158624D01*
X541495Y-2158624D02*
X551019Y-2139576D01*
X551019Y-2139576D02*
X560543Y-2130053D01*
X560543Y-2130053D02*
X579590Y-2120529D01*
X770066Y-2120529D02*
X789114Y-2120529D01*
X789114Y-2120529D02*
X808162Y-2130053D01*
X808162Y-2130053D02*
X817686Y-2139576D01*
X817686Y-2139576D02*
X827209Y-2158624D01*
X827209Y-2158624D02*
X836733Y-2196719D01*
X836733Y-2196719D02*
X836733Y-2244338D01*
X836733Y-2244338D02*
X827209Y-2282434D01*
X827209Y-2282434D02*
X817686Y-2301481D01*
X817686Y-2301481D02*
X808162Y-2311005D01*
X808162Y-2311005D02*
X789114Y-2320529D01*
X789114Y-2320529D02*
X770066Y-2320529D01*
X770066Y-2320529D02*
X751019Y-2311005D01*
X751019Y-2311005D02*
X741495Y-2301481D01*
X741495Y-2301481D02*
X731971Y-2282434D01*
X731971Y-2282434D02*
X722447Y-2244338D01*
X722447Y-2244338D02*
X722447Y-2196719D01*
X722447Y-2196719D02*
X731971Y-2158624D01*
X731971Y-2158624D02*
X741495Y-2139576D01*
X741495Y-2139576D02*
X751019Y-2130053D01*
X751019Y-2130053D02*
X770066Y-2120529D01*
X960543Y-2120529D02*
X979590Y-2120529D01*
X979590Y-2120529D02*
X998638Y-2130053D01*
X998638Y-2130053D02*
X1008162Y-2139576D01*
X1008162Y-2139576D02*
X1017686Y-2158624D01*
X1017686Y-2158624D02*
X1027209Y-2196719D01*
X1027209Y-2196719D02*
X1027209Y-2244338D01*
X1027209Y-2244338D02*
X1017686Y-2282434D01*
X1017686Y-2282434D02*
X1008162Y-2301481D01*
X1008162Y-2301481D02*
X998638Y-2311005D01*
X998638Y-2311005D02*
X979590Y-2320529D01*
X979590Y-2320529D02*
X960543Y-2320529D01*
X960543Y-2320529D02*
X941495Y-2311005D01*
X941495Y-2311005D02*
X931971Y-2301481D01*
X931971Y-2301481D02*
X922447Y-2282434D01*
X922447Y-2282434D02*
X912924Y-2244338D01*
X912924Y-2244338D02*
X912924Y-2196719D01*
X912924Y-2196719D02*
X922447Y-2158624D01*
X922447Y-2158624D02*
X931971Y-2139576D01*
X931971Y-2139576D02*
X941495Y-2130053D01*
X941495Y-2130053D02*
X960543Y-2120529D01*
X1112924Y-2320529D02*
X1112924Y-2187195D01*
X1112924Y-2206243D02*
X1122448Y-2196719D01*
X1122448Y-2196719D02*
X1141495Y-2187195D01*
X1141495Y-2187195D02*
X1170067Y-2187195D01*
X1170067Y-2187195D02*
X1189114Y-2196719D01*
X1189114Y-2196719D02*
X1198638Y-2215767D01*
X1198638Y-2215767D02*
X1198638Y-2320529D01*
X1198638Y-2215767D02*
X1208162Y-2196719D01*
X1208162Y-2196719D02*
X1227209Y-2187195D01*
X1227209Y-2187195D02*
X1255781Y-2187195D01*
X1255781Y-2187195D02*
X1274829Y-2196719D01*
X1274829Y-2196719D02*
X1284352Y-2215767D01*
X1284352Y-2215767D02*
X1284352Y-2320529D01*
X1379590Y-2320529D02*
X1379590Y-2187195D01*
X1379590Y-2206243D02*
X1389114Y-2196719D01*
X1389114Y-2196719D02*
X1408162Y-2187195D01*
X1408162Y-2187195D02*
X1436733Y-2187195D01*
X1436733Y-2187195D02*
X1455781Y-2196719D01*
X1455781Y-2196719D02*
X1465305Y-2215767D01*
X1465305Y-2215767D02*
X1465305Y-2320529D01*
X1465305Y-2215767D02*
X1474828Y-2196719D01*
X1474828Y-2196719D02*
X1493876Y-2187195D01*
X1493876Y-2187195D02*
X1522447Y-2187195D01*
X1522447Y-2187195D02*
X1541495Y-2196719D01*
X1541495Y-2196719D02*
X1551019Y-2215767D01*
X1551019Y-2215767D02*
X1551019Y-2320529D01*
X1941495Y-2111005D02*
X1770067Y-2368148D01*
X2198638Y-2120529D02*
X2217686Y-2120529D01*
X2217686Y-2120529D02*
X2236733Y-2130053D01*
X2236733Y-2130053D02*
X2246257Y-2139576D01*
X2246257Y-2139576D02*
X2255781Y-2158624D01*
X2255781Y-2158624D02*
X2265305Y-2196719D01*
X2265305Y-2196719D02*
X2265305Y-2244338D01*
X2265305Y-2244338D02*
X2255781Y-2282434D01*
X2255781Y-2282434D02*
X2246257Y-2301481D01*
X2246257Y-2301481D02*
X2236733Y-2311005D01*
X2236733Y-2311005D02*
X2217686Y-2320529D01*
X2217686Y-2320529D02*
X2198638Y-2320529D01*
X2198638Y-2320529D02*
X2179591Y-2311005D01*
X2179591Y-2311005D02*
X2170067Y-2301481D01*
X2170067Y-2301481D02*
X2160543Y-2282434D01*
X2160543Y-2282434D02*
X2151019Y-2244338D01*
X2151019Y-2244338D02*
X2151019Y-2196719D01*
X2151019Y-2196719D02*
X2160543Y-2158624D01*
X2160543Y-2158624D02*
X2170067Y-2139576D01*
X2170067Y-2139576D02*
X2179591Y-2130053D01*
X2179591Y-2130053D02*
X2198638Y-2120529D01*
X2351019Y-2301481D02*
X2360543Y-2311005D01*
X2360543Y-2311005D02*
X2351019Y-2320529D01*
X2351019Y-2320529D02*
X2341495Y-2311005D01*
X2341495Y-2311005D02*
X2351019Y-2301481D01*
X2351019Y-2301481D02*
X2351019Y-2320529D01*
X2484352Y-2120529D02*
X2503400Y-2120529D01*
X2503400Y-2120529D02*
X2522448Y-2130053D01*
X2522448Y-2130053D02*
X2531972Y-2139576D01*
X2531972Y-2139576D02*
X2541495Y-2158624D01*
X2541495Y-2158624D02*
X2551019Y-2196719D01*
X2551019Y-2196719D02*
X2551019Y-2244338D01*
X2551019Y-2244338D02*
X2541495Y-2282434D01*
X2541495Y-2282434D02*
X2531972Y-2301481D01*
X2531972Y-2301481D02*
X2522448Y-2311005D01*
X2522448Y-2311005D02*
X2503400Y-2320529D01*
X2503400Y-2320529D02*
X2484352Y-2320529D01*
X2484352Y-2320529D02*
X2465305Y-2311005D01*
X2465305Y-2311005D02*
X2455781Y-2301481D01*
X2455781Y-2301481D02*
X2446257Y-2282434D01*
X2446257Y-2282434D02*
X2436733Y-2244338D01*
X2436733Y-2244338D02*
X2436733Y-2196719D01*
X2436733Y-2196719D02*
X2446257Y-2158624D01*
X2446257Y-2158624D02*
X2455781Y-2139576D01*
X2455781Y-2139576D02*
X2465305Y-2130053D01*
X2465305Y-2130053D02*
X2484352Y-2120529D01*
X2617686Y-2120529D02*
X2741495Y-2120529D01*
X2741495Y-2120529D02*
X2674829Y-2196719D01*
X2674829Y-2196719D02*
X2703400Y-2196719D01*
X2703400Y-2196719D02*
X2722448Y-2206243D01*
X2722448Y-2206243D02*
X2731972Y-2215767D01*
X2731972Y-2215767D02*
X2741495Y-2234815D01*
X2741495Y-2234815D02*
X2741495Y-2282434D01*
X2741495Y-2282434D02*
X2731972Y-2301481D01*
X2731972Y-2301481D02*
X2722448Y-2311005D01*
X2722448Y-2311005D02*
X2703400Y-2320529D01*
X2703400Y-2320529D02*
X2646257Y-2320529D01*
X2646257Y-2320529D02*
X2627210Y-2311005D01*
X2627210Y-2311005D02*
X2617686Y-2301481D01*
X2836733Y-2320529D02*
X2874829Y-2320529D01*
X2874829Y-2320529D02*
X2893876Y-2311005D01*
X2893876Y-2311005D02*
X2903400Y-2301481D01*
X2903400Y-2301481D02*
X2922448Y-2272910D01*
X2922448Y-2272910D02*
X2931971Y-2234815D01*
X2931971Y-2234815D02*
X2931971Y-2158624D01*
X2931971Y-2158624D02*
X2922448Y-2139576D01*
X2922448Y-2139576D02*
X2912924Y-2130053D01*
X2912924Y-2130053D02*
X2893876Y-2120529D01*
X2893876Y-2120529D02*
X2855781Y-2120529D01*
X2855781Y-2120529D02*
X2836733Y-2130053D01*
X2836733Y-2130053D02*
X2827210Y-2139576D01*
X2827210Y-2139576D02*
X2817686Y-2158624D01*
X2817686Y-2158624D02*
X2817686Y-2206243D01*
X2817686Y-2206243D02*
X2827210Y-2225291D01*
X2827210Y-2225291D02*
X2836733Y-2234815D01*
X2836733Y-2234815D02*
X2855781Y-2244338D01*
X2855781Y-2244338D02*
X2893876Y-2244338D01*
X2893876Y-2244338D02*
X2912924Y-2234815D01*
X2912924Y-2234815D02*
X2922448Y-2225291D01*
X2922448Y-2225291D02*
X2931971Y-2206243D01*
X3103400Y-2187195D02*
X3103400Y-2320529D01*
X3055781Y-2111005D02*
X3008162Y-2253862D01*
X3008162Y-2253862D02*
X3131971Y-2253862D01*
X3198638Y-2120529D02*
X3198638Y-2158624D01*
X3274829Y-2120529D02*
X3274829Y-2158624D01*
X3570067Y-2396719D02*
X3560543Y-2387195D01*
X3560543Y-2387195D02*
X3541495Y-2358624D01*
X3541495Y-2358624D02*
X3531972Y-2339576D01*
X3531972Y-2339576D02*
X3522448Y-2311005D01*
X3522448Y-2311005D02*
X3512924Y-2263386D01*
X3512924Y-2263386D02*
X3512924Y-2225291D01*
X3512924Y-2225291D02*
X3522448Y-2177672D01*
X3522448Y-2177672D02*
X3531972Y-2149100D01*
X3531972Y-2149100D02*
X3541495Y-2130053D01*
X3541495Y-2130053D02*
X3560543Y-2101481D01*
X3560543Y-2101481D02*
X3570067Y-2091957D01*
X3751019Y-2320529D02*
X3636733Y-2320529D01*
X3693876Y-2320529D02*
X3693876Y-2120529D01*
X3693876Y-2120529D02*
X3674829Y-2149100D01*
X3674829Y-2149100D02*
X3655781Y-2168148D01*
X3655781Y-2168148D02*
X3636733Y-2177672D01*
X3941495Y-2320529D02*
X3827210Y-2320529D01*
X3884352Y-2320529D02*
X3884352Y-2120529D01*
X3884352Y-2120529D02*
X3865305Y-2149100D01*
X3865305Y-2149100D02*
X3846257Y-2168148D01*
X3846257Y-2168148D02*
X3827210Y-2177672D01*
X4179591Y-2320529D02*
X4179591Y-2120529D01*
X4265305Y-2320529D02*
X4265305Y-2215767D01*
X4265305Y-2215767D02*
X4255781Y-2196719D01*
X4255781Y-2196719D02*
X4236734Y-2187195D01*
X4236734Y-2187195D02*
X4208162Y-2187195D01*
X4208162Y-2187195D02*
X4189114Y-2196719D01*
X4189114Y-2196719D02*
X4179591Y-2206243D01*
X4389115Y-2320529D02*
X4370067Y-2311005D01*
X4370067Y-2311005D02*
X4360543Y-2301481D01*
X4360543Y-2301481D02*
X4351019Y-2282434D01*
X4351019Y-2282434D02*
X4351019Y-2225291D01*
X4351019Y-2225291D02*
X4360543Y-2206243D01*
X4360543Y-2206243D02*
X4370067Y-2196719D01*
X4370067Y-2196719D02*
X4389115Y-2187195D01*
X4389115Y-2187195D02*
X4417686Y-2187195D01*
X4417686Y-2187195D02*
X4436734Y-2196719D01*
X4436734Y-2196719D02*
X4446257Y-2206243D01*
X4446257Y-2206243D02*
X4455781Y-2225291D01*
X4455781Y-2225291D02*
X4455781Y-2282434D01*
X4455781Y-2282434D02*
X4446257Y-2301481D01*
X4446257Y-2301481D02*
X4436734Y-2311005D01*
X4436734Y-2311005D02*
X4417686Y-2320529D01*
X4417686Y-2320529D02*
X4389115Y-2320529D01*
X4570067Y-2320529D02*
X4551019Y-2311005D01*
X4551019Y-2311005D02*
X4541496Y-2291957D01*
X4541496Y-2291957D02*
X4541496Y-2120529D01*
X4722448Y-2311005D02*
X4703400Y-2320529D01*
X4703400Y-2320529D02*
X4665305Y-2320529D01*
X4665305Y-2320529D02*
X4646257Y-2311005D01*
X4646257Y-2311005D02*
X4636734Y-2291957D01*
X4636734Y-2291957D02*
X4636734Y-2215767D01*
X4636734Y-2215767D02*
X4646257Y-2196719D01*
X4646257Y-2196719D02*
X4665305Y-2187195D01*
X4665305Y-2187195D02*
X4703400Y-2187195D01*
X4703400Y-2187195D02*
X4722448Y-2196719D01*
X4722448Y-2196719D02*
X4731972Y-2215767D01*
X4731972Y-2215767D02*
X4731972Y-2234815D01*
X4731972Y-2234815D02*
X4636734Y-2253862D01*
X4808162Y-2311005D02*
X4827210Y-2320529D01*
X4827210Y-2320529D02*
X4865305Y-2320529D01*
X4865305Y-2320529D02*
X4884353Y-2311005D01*
X4884353Y-2311005D02*
X4893877Y-2291957D01*
X4893877Y-2291957D02*
X4893877Y-2282434D01*
X4893877Y-2282434D02*
X4884353Y-2263386D01*
X4884353Y-2263386D02*
X4865305Y-2253862D01*
X4865305Y-2253862D02*
X4836734Y-2253862D01*
X4836734Y-2253862D02*
X4817686Y-2244338D01*
X4817686Y-2244338D02*
X4808162Y-2225291D01*
X4808162Y-2225291D02*
X4808162Y-2215767D01*
X4808162Y-2215767D02*
X4817686Y-2196719D01*
X4817686Y-2196719D02*
X4836734Y-2187195D01*
X4836734Y-2187195D02*
X4865305Y-2187195D01*
X4865305Y-2187195D02*
X4884353Y-2196719D01*
X4960543Y-2396719D02*
X4970067Y-2387195D01*
X4970067Y-2387195D02*
X4989115Y-2358624D01*
X4989115Y-2358624D02*
X4998638Y-2339576D01*
X4998638Y-2339576D02*
X5008162Y-2311005D01*
X5008162Y-2311005D02*
X5017686Y-2263386D01*
X5017686Y-2263386D02*
X5017686Y-2225291D01*
X5017686Y-2225291D02*
X5008162Y-2177672D01*
X5008162Y-2177672D02*
X4998638Y-2149100D01*
X4998638Y-2149100D02*
X4989115Y-2130053D01*
X4989115Y-2130053D02*
X4970067Y-2101481D01*
X4970067Y-2101481D02*
X4960543Y-2091957D01*
D18*
X-151996Y-2419545D02*
X-4996Y-2566545D01*
X-4996Y-2419545D02*
X-151996Y-2566545D01*
X-26523Y-2545018D02*
X-26523Y-2441072D01*
X-130469Y-2441072D01*
X-130469Y-2545018D01*
X-26523Y-2545018D01*
D11*
X360543Y-2584529D02*
X246257Y-2584529D01*
X303400Y-2584529D02*
X303400Y-2384529D01*
X303400Y-2384529D02*
X284352Y-2413100D01*
X284352Y-2413100D02*
X265305Y-2432148D01*
X265305Y-2432148D02*
X246257Y-2441672D01*
X446257Y-2565481D02*
X455781Y-2575005D01*
X455781Y-2575005D02*
X446257Y-2584529D01*
X446257Y-2584529D02*
X436733Y-2575005D01*
X436733Y-2575005D02*
X446257Y-2565481D01*
X446257Y-2565481D02*
X446257Y-2584529D01*
X627209Y-2451195D02*
X627209Y-2584529D01*
X579590Y-2375005D02*
X531971Y-2517862D01*
X531971Y-2517862D02*
X655781Y-2517862D01*
X712924Y-2384529D02*
X846257Y-2384529D01*
X846257Y-2384529D02*
X760543Y-2584529D01*
X960543Y-2384529D02*
X979590Y-2384529D01*
X979590Y-2384529D02*
X998638Y-2394053D01*
X998638Y-2394053D02*
X1008162Y-2403576D01*
X1008162Y-2403576D02*
X1017686Y-2422624D01*
X1017686Y-2422624D02*
X1027209Y-2460719D01*
X1027209Y-2460719D02*
X1027209Y-2508338D01*
X1027209Y-2508338D02*
X1017686Y-2546434D01*
X1017686Y-2546434D02*
X1008162Y-2565481D01*
X1008162Y-2565481D02*
X998638Y-2575005D01*
X998638Y-2575005D02*
X979590Y-2584529D01*
X979590Y-2584529D02*
X960543Y-2584529D01*
X960543Y-2584529D02*
X941495Y-2575005D01*
X941495Y-2575005D02*
X931971Y-2565481D01*
X931971Y-2565481D02*
X922447Y-2546434D01*
X922447Y-2546434D02*
X912924Y-2508338D01*
X912924Y-2508338D02*
X912924Y-2460719D01*
X912924Y-2460719D02*
X922447Y-2422624D01*
X922447Y-2422624D02*
X931971Y-2403576D01*
X931971Y-2403576D02*
X941495Y-2394053D01*
X941495Y-2394053D02*
X960543Y-2384529D01*
X1112924Y-2584529D02*
X1112924Y-2451195D01*
X1112924Y-2470243D02*
X1122448Y-2460719D01*
X1122448Y-2460719D02*
X1141495Y-2451195D01*
X1141495Y-2451195D02*
X1170067Y-2451195D01*
X1170067Y-2451195D02*
X1189114Y-2460719D01*
X1189114Y-2460719D02*
X1198638Y-2479767D01*
X1198638Y-2479767D02*
X1198638Y-2584529D01*
X1198638Y-2479767D02*
X1208162Y-2460719D01*
X1208162Y-2460719D02*
X1227209Y-2451195D01*
X1227209Y-2451195D02*
X1255781Y-2451195D01*
X1255781Y-2451195D02*
X1274829Y-2460719D01*
X1274829Y-2460719D02*
X1284352Y-2479767D01*
X1284352Y-2479767D02*
X1284352Y-2584529D01*
X1379590Y-2584529D02*
X1379590Y-2451195D01*
X1379590Y-2470243D02*
X1389114Y-2460719D01*
X1389114Y-2460719D02*
X1408162Y-2451195D01*
X1408162Y-2451195D02*
X1436733Y-2451195D01*
X1436733Y-2451195D02*
X1455781Y-2460719D01*
X1455781Y-2460719D02*
X1465305Y-2479767D01*
X1465305Y-2479767D02*
X1465305Y-2584529D01*
X1465305Y-2479767D02*
X1474828Y-2460719D01*
X1474828Y-2460719D02*
X1493876Y-2451195D01*
X1493876Y-2451195D02*
X1522447Y-2451195D01*
X1522447Y-2451195D02*
X1541495Y-2460719D01*
X1541495Y-2460719D02*
X1551019Y-2479767D01*
X1551019Y-2479767D02*
X1551019Y-2584529D01*
X1941495Y-2375005D02*
X1770067Y-2632148D01*
X2198638Y-2384529D02*
X2217686Y-2384529D01*
X2217686Y-2384529D02*
X2236733Y-2394053D01*
X2236733Y-2394053D02*
X2246257Y-2403576D01*
X2246257Y-2403576D02*
X2255781Y-2422624D01*
X2255781Y-2422624D02*
X2265305Y-2460719D01*
X2265305Y-2460719D02*
X2265305Y-2508338D01*
X2265305Y-2508338D02*
X2255781Y-2546434D01*
X2255781Y-2546434D02*
X2246257Y-2565481D01*
X2246257Y-2565481D02*
X2236733Y-2575005D01*
X2236733Y-2575005D02*
X2217686Y-2584529D01*
X2217686Y-2584529D02*
X2198638Y-2584529D01*
X2198638Y-2584529D02*
X2179591Y-2575005D01*
X2179591Y-2575005D02*
X2170067Y-2565481D01*
X2170067Y-2565481D02*
X2160543Y-2546434D01*
X2160543Y-2546434D02*
X2151019Y-2508338D01*
X2151019Y-2508338D02*
X2151019Y-2460719D01*
X2151019Y-2460719D02*
X2160543Y-2422624D01*
X2160543Y-2422624D02*
X2170067Y-2403576D01*
X2170067Y-2403576D02*
X2179591Y-2394053D01*
X2179591Y-2394053D02*
X2198638Y-2384529D01*
X2351019Y-2565481D02*
X2360543Y-2575005D01*
X2360543Y-2575005D02*
X2351019Y-2584529D01*
X2351019Y-2584529D02*
X2341495Y-2575005D01*
X2341495Y-2575005D02*
X2351019Y-2565481D01*
X2351019Y-2565481D02*
X2351019Y-2584529D01*
X2484352Y-2384529D02*
X2503400Y-2384529D01*
X2503400Y-2384529D02*
X2522448Y-2394053D01*
X2522448Y-2394053D02*
X2531972Y-2403576D01*
X2531972Y-2403576D02*
X2541495Y-2422624D01*
X2541495Y-2422624D02*
X2551019Y-2460719D01*
X2551019Y-2460719D02*
X2551019Y-2508338D01*
X2551019Y-2508338D02*
X2541495Y-2546434D01*
X2541495Y-2546434D02*
X2531972Y-2565481D01*
X2531972Y-2565481D02*
X2522448Y-2575005D01*
X2522448Y-2575005D02*
X2503400Y-2584529D01*
X2503400Y-2584529D02*
X2484352Y-2584529D01*
X2484352Y-2584529D02*
X2465305Y-2575005D01*
X2465305Y-2575005D02*
X2455781Y-2565481D01*
X2455781Y-2565481D02*
X2446257Y-2546434D01*
X2446257Y-2546434D02*
X2436733Y-2508338D01*
X2436733Y-2508338D02*
X2436733Y-2460719D01*
X2436733Y-2460719D02*
X2446257Y-2422624D01*
X2446257Y-2422624D02*
X2455781Y-2403576D01*
X2455781Y-2403576D02*
X2465305Y-2394053D01*
X2465305Y-2394053D02*
X2484352Y-2384529D01*
X2731972Y-2384529D02*
X2636733Y-2384529D01*
X2636733Y-2384529D02*
X2627210Y-2479767D01*
X2627210Y-2479767D02*
X2636733Y-2470243D01*
X2636733Y-2470243D02*
X2655781Y-2460719D01*
X2655781Y-2460719D02*
X2703400Y-2460719D01*
X2703400Y-2460719D02*
X2722448Y-2470243D01*
X2722448Y-2470243D02*
X2731972Y-2479767D01*
X2731972Y-2479767D02*
X2741495Y-2498815D01*
X2741495Y-2498815D02*
X2741495Y-2546434D01*
X2741495Y-2546434D02*
X2731972Y-2565481D01*
X2731972Y-2565481D02*
X2722448Y-2575005D01*
X2722448Y-2575005D02*
X2703400Y-2584529D01*
X2703400Y-2584529D02*
X2655781Y-2584529D01*
X2655781Y-2584529D02*
X2636733Y-2575005D01*
X2636733Y-2575005D02*
X2627210Y-2565481D01*
X2808162Y-2384529D02*
X2941495Y-2384529D01*
X2941495Y-2384529D02*
X2855781Y-2584529D01*
X3027210Y-2584529D02*
X3065305Y-2584529D01*
X3065305Y-2584529D02*
X3084352Y-2575005D01*
X3084352Y-2575005D02*
X3093876Y-2565481D01*
X3093876Y-2565481D02*
X3112924Y-2536910D01*
X3112924Y-2536910D02*
X3122448Y-2498815D01*
X3122448Y-2498815D02*
X3122448Y-2422624D01*
X3122448Y-2422624D02*
X3112924Y-2403576D01*
X3112924Y-2403576D02*
X3103400Y-2394053D01*
X3103400Y-2394053D02*
X3084352Y-2384529D01*
X3084352Y-2384529D02*
X3046257Y-2384529D01*
X3046257Y-2384529D02*
X3027210Y-2394053D01*
X3027210Y-2394053D02*
X3017686Y-2403576D01*
X3017686Y-2403576D02*
X3008162Y-2422624D01*
X3008162Y-2422624D02*
X3008162Y-2470243D01*
X3008162Y-2470243D02*
X3017686Y-2489291D01*
X3017686Y-2489291D02*
X3027210Y-2498815D01*
X3027210Y-2498815D02*
X3046257Y-2508338D01*
X3046257Y-2508338D02*
X3084352Y-2508338D01*
X3084352Y-2508338D02*
X3103400Y-2498815D01*
X3103400Y-2498815D02*
X3112924Y-2489291D01*
X3112924Y-2489291D02*
X3122448Y-2470243D01*
X3198638Y-2384529D02*
X3198638Y-2422624D01*
X3274829Y-2384529D02*
X3274829Y-2422624D01*
X3570067Y-2660719D02*
X3560543Y-2651195D01*
X3560543Y-2651195D02*
X3541495Y-2622624D01*
X3541495Y-2622624D02*
X3531972Y-2603576D01*
X3531972Y-2603576D02*
X3522448Y-2575005D01*
X3522448Y-2575005D02*
X3512924Y-2527386D01*
X3512924Y-2527386D02*
X3512924Y-2489291D01*
X3512924Y-2489291D02*
X3522448Y-2441672D01*
X3522448Y-2441672D02*
X3531972Y-2413100D01*
X3531972Y-2413100D02*
X3541495Y-2394053D01*
X3541495Y-2394053D02*
X3560543Y-2365481D01*
X3560543Y-2365481D02*
X3570067Y-2355957D01*
X3751019Y-2584529D02*
X3636733Y-2584529D01*
X3693876Y-2584529D02*
X3693876Y-2384529D01*
X3693876Y-2384529D02*
X3674829Y-2413100D01*
X3674829Y-2413100D02*
X3655781Y-2432148D01*
X3655781Y-2432148D02*
X3636733Y-2441672D01*
X3874829Y-2384529D02*
X3893876Y-2384529D01*
X3893876Y-2384529D02*
X3912924Y-2394053D01*
X3912924Y-2394053D02*
X3922448Y-2403576D01*
X3922448Y-2403576D02*
X3931972Y-2422624D01*
X3931972Y-2422624D02*
X3941495Y-2460719D01*
X3941495Y-2460719D02*
X3941495Y-2508338D01*
X3941495Y-2508338D02*
X3931972Y-2546434D01*
X3931972Y-2546434D02*
X3922448Y-2565481D01*
X3922448Y-2565481D02*
X3912924Y-2575005D01*
X3912924Y-2575005D02*
X3893876Y-2584529D01*
X3893876Y-2584529D02*
X3874829Y-2584529D01*
X3874829Y-2584529D02*
X3855781Y-2575005D01*
X3855781Y-2575005D02*
X3846257Y-2565481D01*
X3846257Y-2565481D02*
X3836733Y-2546434D01*
X3836733Y-2546434D02*
X3827210Y-2508338D01*
X3827210Y-2508338D02*
X3827210Y-2460719D01*
X3827210Y-2460719D02*
X3836733Y-2422624D01*
X3836733Y-2422624D02*
X3846257Y-2403576D01*
X3846257Y-2403576D02*
X3855781Y-2394053D01*
X3855781Y-2394053D02*
X3874829Y-2384529D01*
X4017686Y-2403576D02*
X4027210Y-2394053D01*
X4027210Y-2394053D02*
X4046257Y-2384529D01*
X4046257Y-2384529D02*
X4093876Y-2384529D01*
X4093876Y-2384529D02*
X4112924Y-2394053D01*
X4112924Y-2394053D02*
X4122448Y-2403576D01*
X4122448Y-2403576D02*
X4131972Y-2422624D01*
X4131972Y-2422624D02*
X4131972Y-2441672D01*
X4131972Y-2441672D02*
X4122448Y-2470243D01*
X4122448Y-2470243D02*
X4008162Y-2584529D01*
X4008162Y-2584529D02*
X4131972Y-2584529D01*
X4370067Y-2584529D02*
X4370067Y-2384529D01*
X4455781Y-2584529D02*
X4455781Y-2479767D01*
X4455781Y-2479767D02*
X4446257Y-2460719D01*
X4446257Y-2460719D02*
X4427210Y-2451195D01*
X4427210Y-2451195D02*
X4398638Y-2451195D01*
X4398638Y-2451195D02*
X4379591Y-2460719D01*
X4379591Y-2460719D02*
X4370067Y-2470243D01*
X4579591Y-2584529D02*
X4560543Y-2575005D01*
X4560543Y-2575005D02*
X4551019Y-2565481D01*
X4551019Y-2565481D02*
X4541496Y-2546434D01*
X4541496Y-2546434D02*
X4541496Y-2489291D01*
X4541496Y-2489291D02*
X4551019Y-2470243D01*
X4551019Y-2470243D02*
X4560543Y-2460719D01*
X4560543Y-2460719D02*
X4579591Y-2451195D01*
X4579591Y-2451195D02*
X4608162Y-2451195D01*
X4608162Y-2451195D02*
X4627210Y-2460719D01*
X4627210Y-2460719D02*
X4636734Y-2470243D01*
X4636734Y-2470243D02*
X4646257Y-2489291D01*
X4646257Y-2489291D02*
X4646257Y-2546434D01*
X4646257Y-2546434D02*
X4636734Y-2565481D01*
X4636734Y-2565481D02*
X4627210Y-2575005D01*
X4627210Y-2575005D02*
X4608162Y-2584529D01*
X4608162Y-2584529D02*
X4579591Y-2584529D01*
X4760543Y-2584529D02*
X4741496Y-2575005D01*
X4741496Y-2575005D02*
X4731972Y-2555957D01*
X4731972Y-2555957D02*
X4731972Y-2384529D01*
X4912924Y-2575005D02*
X4893877Y-2584529D01*
X4893877Y-2584529D02*
X4855781Y-2584529D01*
X4855781Y-2584529D02*
X4836734Y-2575005D01*
X4836734Y-2575005D02*
X4827210Y-2555957D01*
X4827210Y-2555957D02*
X4827210Y-2479767D01*
X4827210Y-2479767D02*
X4836734Y-2460719D01*
X4836734Y-2460719D02*
X4855781Y-2451195D01*
X4855781Y-2451195D02*
X4893877Y-2451195D01*
X4893877Y-2451195D02*
X4912924Y-2460719D01*
X4912924Y-2460719D02*
X4922448Y-2479767D01*
X4922448Y-2479767D02*
X4922448Y-2498815D01*
X4922448Y-2498815D02*
X4827210Y-2517862D01*
X4998638Y-2575005D02*
X5017686Y-2584529D01*
X5017686Y-2584529D02*
X5055781Y-2584529D01*
X5055781Y-2584529D02*
X5074829Y-2575005D01*
X5074829Y-2575005D02*
X5084353Y-2555957D01*
X5084353Y-2555957D02*
X5084353Y-2546434D01*
X5084353Y-2546434D02*
X5074829Y-2527386D01*
X5074829Y-2527386D02*
X5055781Y-2517862D01*
X5055781Y-2517862D02*
X5027210Y-2517862D01*
X5027210Y-2517862D02*
X5008162Y-2508338D01*
X5008162Y-2508338D02*
X4998638Y-2489291D01*
X4998638Y-2489291D02*
X4998638Y-2479767D01*
X4998638Y-2479767D02*
X5008162Y-2460719D01*
X5008162Y-2460719D02*
X5027210Y-2451195D01*
X5027210Y-2451195D02*
X5055781Y-2451195D01*
X5055781Y-2451195D02*
X5074829Y-2460719D01*
X5151019Y-2660719D02*
X5160543Y-2651195D01*
X5160543Y-2651195D02*
X5179591Y-2622624D01*
X5179591Y-2622624D02*
X5189115Y-2603576D01*
X5189115Y-2603576D02*
X5198638Y-2575005D01*
X5198638Y-2575005D02*
X5208162Y-2527386D01*
X5208162Y-2527386D02*
X5208162Y-2489291D01*
X5208162Y-2489291D02*
X5198638Y-2441672D01*
X5198638Y-2441672D02*
X5189115Y-2413100D01*
X5189115Y-2413100D02*
X5179591Y-2394053D01*
X5179591Y-2394053D02*
X5160543Y-2365481D01*
X5160543Y-2365481D02*
X5151019Y-2355957D01*
M02*
