%TF.GenerationSoftware,KiCad,Pcbnew,7.0.6*%
%TF.CreationDate,2023-08-25T16:14:01-04:00*%
%TF.ProjectId,Vault45_alpha,5661756c-7434-4355-9f61-6c7068612e6b,rev?*%
%TF.SameCoordinates,PX198c50aPY6631428*%
%TF.FileFunction,Drillmap*%
%TF.FilePolarity,Positive*%
%FSLAX45Y45*%
G04 Gerber Fmt 4.5, Leading zero omitted, Abs format (unit mm)*
G04 Created by KiCad (PCBNEW 7.0.6) date 2023-08-25 16:14:01*
%MOMM*%
%LPD*%
G01*
G04 APERTURE LIST*
%ADD10C,0.100000*%
%ADD11C,0.200000*%
%ADD12C,0.065000*%
%ADD13C,0.150000*%
%ADD14C,0.175000*%
%ADD15C,0.398780*%
G04 APERTURE END LIST*
D10*
X1369222Y7620019D02*
X327423Y7620019D01*
X3274227Y7620019D02*
X2440787Y7620019D01*
X22324275Y7620019D02*
X4345792Y7620019D01*
X23395840Y7620019D02*
X24437640Y7620019D01*
X23395840Y7620019D02*
G75*
G03*
X23127949Y7352128I0J-267891D01*
G01*
X22592166Y7352128D02*
G75*
G03*
X22324275Y7620019I-267891J0D01*
G01*
X22592166Y7352128D02*
G75*
G03*
X22860058Y7084237I267891J0D01*
G01*
X22860058Y7084237D02*
G75*
G03*
X23127949Y7352128I0J267891D01*
G01*
X1637113Y7352128D02*
G75*
G03*
X1369222Y7620019I-267891J0D01*
G01*
X2440787Y7620019D02*
G75*
G03*
X2172896Y7352128I0J-267891D01*
G01*
X1905005Y7084237D02*
G75*
G03*
X2172896Y7352128I0J267891D01*
G01*
X1637113Y7352128D02*
G75*
G03*
X1905005Y7084237I267891J0D01*
G01*
X20895521Y0D02*
X22056384Y0D01*
X4941106Y0D02*
X19823956Y0D01*
X2708679Y0D02*
X3869541Y0D01*
X3869541Y0D02*
G75*
G03*
X4137432Y267891I0J267891D01*
G01*
X4673215Y267891D02*
G75*
G03*
X4941106Y0I267891J0D01*
G01*
X4673215Y267891D02*
G75*
G03*
X4405324Y535783I-267891J0D01*
G01*
X4405324Y535783D02*
G75*
G03*
X4137432Y267891I0J-267891D01*
G01*
X19823956Y0D02*
G75*
G03*
X20091848Y267891I0J267891D01*
G01*
X20627630Y267891D02*
G75*
G03*
X20895521Y0I267891J0D01*
G01*
X20627630Y267891D02*
G75*
G03*
X20359739Y535783I-267891J0D01*
G01*
X20359739Y535783D02*
G75*
G03*
X20091848Y267891I0J-267891D01*
G01*
X3333762Y7679532D02*
G75*
G03*
X3303997Y7649767I5J-29770D01*
G01*
X24437644Y1904987D02*
X22532639Y1904987D01*
X4316038Y7649767D02*
G75*
G03*
X4286265Y7679533I-29771J-5D01*
G01*
X3333762Y7679533D02*
X4286265Y7679533D01*
X3274231Y7619992D02*
G75*
G03*
X3303997Y7649767I-4J29770D01*
G01*
X2Y2232410D02*
G75*
G03*
X327427Y1904987I327425J3D01*
G01*
X22532639Y1904989D02*
G75*
G03*
X22383810Y1756158I-2J-148827D01*
G01*
X4Y2232410D02*
X4Y7292578D01*
X2381260Y327405D02*
X2381260Y1756158D01*
X2232432Y1904987D02*
X327427Y1904987D01*
X22056388Y-21D02*
G75*
G03*
X22383810Y327405I-1J327423D01*
G01*
X24765066Y7292578D02*
G75*
G03*
X24437644Y7620001I-327419J4D01*
G01*
X24765066Y7292578D02*
X24765066Y2232410D01*
X2381252Y1756158D02*
G75*
G03*
X2232432Y1904987I-148825J4D01*
G01*
X22383810Y1756158D02*
X22383810Y327405D01*
X24437644Y1904993D02*
G75*
G03*
X24765066Y2232410I3J327419D01*
G01*
X2381267Y327405D02*
G75*
G03*
X2708683Y-18I327420J-3D01*
G01*
X4316036Y7649767D02*
G75*
G03*
X4345796Y7620001I29761J-5D01*
G01*
X327427Y7620001D02*
G75*
G03*
X4Y7292578I0J-327423D01*
G01*
D11*
D12*
X3488503Y7247881D02*
X3553503Y7182881D01*
X3553503Y7247881D02*
X3488503Y7182881D01*
X4066503Y7247881D02*
X4131503Y7182881D01*
X4131503Y7247881D02*
X4066503Y7182881D01*
D13*
X12850000Y2863560D02*
G75*
G03*
X12850000Y2863560I-75000J0D01*
G01*
D11*
X12850000Y2798560D02*
X12850000Y2928560D01*
X12850000Y2928560D02*
G75*
G03*
X12700000Y2928560I-75000J0D01*
G01*
X12700000Y2928560D02*
X12700000Y2798560D01*
X12700000Y2798560D02*
G75*
G03*
X12850000Y2798560I75000J0D01*
G01*
D13*
X13970000Y2859830D02*
G75*
G03*
X13970000Y2859830I-75000J0D01*
G01*
D11*
X13970000Y2794830D02*
X13970000Y2924830D01*
X13970000Y2924830D02*
G75*
G03*
X13820000Y2924830I-75000J0D01*
G01*
X13820000Y2924830D02*
X13820000Y2794830D01*
X13820000Y2794830D02*
G75*
G03*
X13970000Y2794830I75000J0D01*
G01*
D14*
X444500Y6755000D02*
X444500Y6580000D01*
X357000Y6667500D02*
X532000Y6667500D01*
X444500Y4850000D02*
X444500Y4675000D01*
X357000Y4762500D02*
X532000Y4762500D01*
X920750Y2945000D02*
X920750Y2770000D01*
X833250Y2857500D02*
X1008250Y2857500D01*
X1158875Y2945000D02*
X1158875Y2770000D01*
X1071375Y2857500D02*
X1246375Y2857500D01*
X1397000Y2945000D02*
X1397000Y2770000D01*
X1309500Y2857500D02*
X1484500Y2857500D01*
X1460500Y6755000D02*
X1460500Y6580000D01*
X1373000Y6667500D02*
X1548000Y6667500D01*
X1460500Y4850000D02*
X1460500Y4675000D01*
X1373000Y4762500D02*
X1548000Y4762500D01*
X1936750Y2945000D02*
X1936750Y2770000D01*
X1849250Y2857500D02*
X2024250Y2857500D01*
X2174875Y2945000D02*
X2174875Y2770000D01*
X2087375Y2857500D02*
X2262375Y2857500D01*
X2349500Y6755000D02*
X2349500Y6580000D01*
X2262000Y6667500D02*
X2437000Y6667500D01*
X2349500Y4850000D02*
X2349500Y4675000D01*
X2262000Y4762500D02*
X2437000Y4762500D01*
X2413000Y2945000D02*
X2413000Y2770000D01*
X2325500Y2857500D02*
X2500500Y2857500D01*
X3063875Y1040000D02*
X3063875Y865000D01*
X2976375Y952500D02*
X3151375Y952500D01*
X3302000Y2945000D02*
X3302000Y2770000D01*
X3214500Y2857500D02*
X3389500Y2857500D01*
X3365500Y6755000D02*
X3365500Y6580000D01*
X3278000Y6667500D02*
X3453000Y6667500D01*
X3365500Y4850000D02*
X3365500Y4675000D01*
X3278000Y4762500D02*
X3453000Y4762500D01*
X3540125Y1040000D02*
X3540125Y865000D01*
X3452625Y952500D02*
X3627625Y952500D01*
X4079875Y1040000D02*
X4079875Y865000D01*
X3992375Y952500D02*
X4167375Y952500D01*
X4254500Y6755000D02*
X4254500Y6580000D01*
X4167000Y6667500D02*
X4342000Y6667500D01*
X4254500Y4850000D02*
X4254500Y4675000D01*
X4167000Y4762500D02*
X4342000Y4762500D01*
X4318000Y2945000D02*
X4318000Y2770000D01*
X4230500Y2857500D02*
X4405500Y2857500D01*
X4556125Y1040000D02*
X4556125Y865000D01*
X4468625Y952500D02*
X4643625Y952500D01*
X5207000Y2945000D02*
X5207000Y2770000D01*
X5119500Y2857500D02*
X5294500Y2857500D01*
X5207000Y1040000D02*
X5207000Y865000D01*
X5119500Y952500D02*
X5294500Y952500D01*
X5270500Y6755000D02*
X5270500Y6580000D01*
X5183000Y6667500D02*
X5358000Y6667500D01*
X5270500Y4850000D02*
X5270500Y4675000D01*
X5183000Y4762500D02*
X5358000Y4762500D01*
X5445125Y1040000D02*
X5445125Y865000D01*
X5357625Y952500D02*
X5532625Y952500D01*
X6159500Y6755000D02*
X6159500Y6580000D01*
X6072000Y6667500D02*
X6247000Y6667500D01*
X6159500Y4850000D02*
X6159500Y4675000D01*
X6072000Y4762500D02*
X6247000Y4762500D01*
X6159500Y1040000D02*
X6159500Y865000D01*
X6072000Y952500D02*
X6247000Y952500D01*
X6223000Y2945000D02*
X6223000Y2770000D01*
X6135500Y2857500D02*
X6310500Y2857500D01*
X6223000Y1040000D02*
X6223000Y865000D01*
X6135500Y952500D02*
X6310500Y952500D01*
X6461125Y1040000D02*
X6461125Y865000D01*
X6373625Y952500D02*
X6548625Y952500D01*
X7112000Y2945000D02*
X7112000Y2770000D01*
X7024500Y2857500D02*
X7199500Y2857500D01*
X7175500Y6755000D02*
X7175500Y6580000D01*
X7088000Y6667500D02*
X7263000Y6667500D01*
X7175500Y4850000D02*
X7175500Y4675000D01*
X7088000Y4762500D02*
X7263000Y4762500D01*
X7175500Y1040000D02*
X7175500Y865000D01*
X7088000Y952500D02*
X7263000Y952500D01*
X7350125Y1040000D02*
X7350125Y865000D01*
X7262625Y952500D02*
X7437625Y952500D01*
X7588250Y1040000D02*
X7588250Y865000D01*
X7500750Y952500D02*
X7675750Y952500D01*
X8064500Y6755000D02*
X8064500Y6580000D01*
X7977000Y6667500D02*
X8152000Y6667500D01*
X8064500Y4850000D02*
X8064500Y4675000D01*
X7977000Y4762500D02*
X8152000Y4762500D01*
X8064500Y1040000D02*
X8064500Y865000D01*
X7977000Y952500D02*
X8152000Y952500D01*
X8128000Y2945000D02*
X8128000Y2770000D01*
X8040500Y2857500D02*
X8215500Y2857500D01*
X8366125Y1040000D02*
X8366125Y865000D01*
X8278625Y952500D02*
X8453625Y952500D01*
X8604250Y1040000D02*
X8604250Y865000D01*
X8516750Y952500D02*
X8691750Y952500D01*
X9017000Y2945000D02*
X9017000Y2770000D01*
X8929500Y2857500D02*
X9104500Y2857500D01*
X9080500Y6755000D02*
X9080500Y6580000D01*
X8993000Y6667500D02*
X9168000Y6667500D01*
X9080500Y4850000D02*
X9080500Y4675000D01*
X8993000Y4762500D02*
X9168000Y4762500D01*
X9080500Y1040000D02*
X9080500Y865000D01*
X8993000Y952500D02*
X9168000Y952500D01*
X9969500Y6755000D02*
X9969500Y6580000D01*
X9882000Y6667500D02*
X10057000Y6667500D01*
X9969500Y4850000D02*
X9969500Y4675000D01*
X9882000Y4762500D02*
X10057000Y4762500D01*
X10033000Y2945000D02*
X10033000Y2770000D01*
X9945500Y2857500D02*
X10120500Y2857500D01*
X10207625Y1040000D02*
X10207625Y865000D01*
X10120125Y952500D02*
X10295125Y952500D01*
X10445750Y1040000D02*
X10445750Y865000D01*
X10358250Y952500D02*
X10533250Y952500D01*
X10922000Y2945000D02*
X10922000Y2770000D01*
X10834500Y2857500D02*
X11009500Y2857500D01*
X10985500Y6755000D02*
X10985500Y6580000D01*
X10898000Y6667500D02*
X11073000Y6667500D01*
X10985500Y4850000D02*
X10985500Y4675000D01*
X10898000Y4762500D02*
X11073000Y4762500D01*
X11223625Y1040000D02*
X11223625Y865000D01*
X11136125Y952500D02*
X11311125Y952500D01*
X11461750Y1040000D02*
X11461750Y865000D01*
X11374250Y952500D02*
X11549250Y952500D01*
X11938000Y2945000D02*
X11938000Y2770000D01*
X11850500Y2857500D02*
X12025500Y2857500D01*
X12827000Y2945000D02*
X12827000Y2770000D01*
X12739500Y2857500D02*
X12914500Y2857500D01*
X13303250Y1040000D02*
X13303250Y865000D01*
X13215750Y952500D02*
X13390750Y952500D01*
X13541375Y1040000D02*
X13541375Y865000D01*
X13453875Y952500D02*
X13628875Y952500D01*
X13779500Y6755000D02*
X13779500Y6580000D01*
X13692000Y6667500D02*
X13867000Y6667500D01*
X13779500Y4850000D02*
X13779500Y4675000D01*
X13692000Y4762500D02*
X13867000Y4762500D01*
X13843000Y2945000D02*
X13843000Y2770000D01*
X13755500Y2857500D02*
X13930500Y2857500D01*
X14319250Y1040000D02*
X14319250Y865000D01*
X14231750Y952500D02*
X14406750Y952500D01*
X14557375Y1040000D02*
X14557375Y865000D01*
X14469875Y952500D02*
X14644875Y952500D01*
X14732000Y2945000D02*
X14732000Y2770000D01*
X14644500Y2857500D02*
X14819500Y2857500D01*
X14795500Y6755000D02*
X14795500Y6580000D01*
X14708000Y6667500D02*
X14883000Y6667500D01*
X14795500Y4850000D02*
X14795500Y4675000D01*
X14708000Y4762500D02*
X14883000Y4762500D01*
X15684500Y6755000D02*
X15684500Y6580000D01*
X15597000Y6667500D02*
X15772000Y6667500D01*
X15684500Y4850000D02*
X15684500Y4675000D01*
X15597000Y4762500D02*
X15772000Y4762500D01*
X15684500Y1040000D02*
X15684500Y865000D01*
X15597000Y952500D02*
X15772000Y952500D01*
X15748000Y2945000D02*
X15748000Y2770000D01*
X15660500Y2857500D02*
X15835500Y2857500D01*
X16160750Y1040000D02*
X16160750Y865000D01*
X16073250Y952500D02*
X16248250Y952500D01*
X16398875Y1040000D02*
X16398875Y865000D01*
X16311375Y952500D02*
X16486375Y952500D01*
X16637000Y2945000D02*
X16637000Y2770000D01*
X16549500Y2857500D02*
X16724500Y2857500D01*
X16700500Y6755000D02*
X16700500Y6580000D01*
X16613000Y6667500D02*
X16788000Y6667500D01*
X16700500Y4850000D02*
X16700500Y4675000D01*
X16613000Y4762500D02*
X16788000Y4762500D01*
X16700500Y1040000D02*
X16700500Y865000D01*
X16613000Y952500D02*
X16788000Y952500D01*
X17176750Y1040000D02*
X17176750Y865000D01*
X17089250Y952500D02*
X17264250Y952500D01*
X17414875Y1040000D02*
X17414875Y865000D01*
X17327375Y952500D02*
X17502375Y952500D01*
X17589500Y6755000D02*
X17589500Y6580000D01*
X17502000Y6667500D02*
X17677000Y6667500D01*
X17589500Y4850000D02*
X17589500Y4675000D01*
X17502000Y4762500D02*
X17677000Y4762500D01*
X17589500Y1040000D02*
X17589500Y865000D01*
X17502000Y952500D02*
X17677000Y952500D01*
X17653000Y2945000D02*
X17653000Y2770000D01*
X17565500Y2857500D02*
X17740500Y2857500D01*
X18303875Y1040000D02*
X18303875Y865000D01*
X18216375Y952500D02*
X18391375Y952500D01*
X18542000Y2945000D02*
X18542000Y2770000D01*
X18454500Y2857500D02*
X18629500Y2857500D01*
X18542000Y1040000D02*
X18542000Y865000D01*
X18454500Y952500D02*
X18629500Y952500D01*
X18605500Y6755000D02*
X18605500Y6580000D01*
X18518000Y6667500D02*
X18693000Y6667500D01*
X18605500Y4850000D02*
X18605500Y4675000D01*
X18518000Y4762500D02*
X18693000Y4762500D01*
X18605500Y1040000D02*
X18605500Y865000D01*
X18518000Y952500D02*
X18693000Y952500D01*
X19319875Y1040000D02*
X19319875Y865000D01*
X19232375Y952500D02*
X19407375Y952500D01*
X19494500Y6755000D02*
X19494500Y6580000D01*
X19407000Y6667500D02*
X19582000Y6667500D01*
X19494500Y4850000D02*
X19494500Y4675000D01*
X19407000Y4762500D02*
X19582000Y4762500D01*
X19558000Y2945000D02*
X19558000Y2770000D01*
X19470500Y2857500D02*
X19645500Y2857500D01*
X19558000Y1040000D02*
X19558000Y865000D01*
X19470500Y952500D02*
X19645500Y952500D01*
X20208875Y1040000D02*
X20208875Y865000D01*
X20121375Y952500D02*
X20296375Y952500D01*
X20447000Y2945000D02*
X20447000Y2770000D01*
X20359500Y2857500D02*
X20534500Y2857500D01*
X20510500Y6755000D02*
X20510500Y6580000D01*
X20423000Y6667500D02*
X20598000Y6667500D01*
X20510500Y4850000D02*
X20510500Y4675000D01*
X20423000Y4762500D02*
X20598000Y4762500D01*
X20685125Y1040000D02*
X20685125Y865000D01*
X20597625Y952500D02*
X20772625Y952500D01*
X21224875Y1040000D02*
X21224875Y865000D01*
X21137375Y952500D02*
X21312375Y952500D01*
X21399500Y6755000D02*
X21399500Y6580000D01*
X21312000Y6667500D02*
X21487000Y6667500D01*
X21399500Y4850000D02*
X21399500Y4675000D01*
X21312000Y4762500D02*
X21487000Y4762500D01*
X21463000Y2945000D02*
X21463000Y2770000D01*
X21375500Y2857500D02*
X21550500Y2857500D01*
X21701125Y1040000D02*
X21701125Y865000D01*
X21613625Y952500D02*
X21788625Y952500D01*
X22352000Y2945000D02*
X22352000Y2770000D01*
X22264500Y2857500D02*
X22439500Y2857500D01*
X22415500Y6755000D02*
X22415500Y6580000D01*
X22328000Y6667500D02*
X22503000Y6667500D01*
X22415500Y4850000D02*
X22415500Y4675000D01*
X22328000Y4762500D02*
X22503000Y4762500D01*
X22590125Y2945000D02*
X22590125Y2770000D01*
X22502625Y2857500D02*
X22677625Y2857500D01*
X22828250Y2945000D02*
X22828250Y2770000D01*
X22740750Y2857500D02*
X22915750Y2857500D01*
X23304500Y6755000D02*
X23304500Y6580000D01*
X23217000Y6667500D02*
X23392000Y6667500D01*
X23304500Y4850000D02*
X23304500Y4675000D01*
X23217000Y4762500D02*
X23392000Y4762500D01*
X23368000Y2945000D02*
X23368000Y2770000D01*
X23280500Y2857500D02*
X23455500Y2857500D01*
X23606125Y2945000D02*
X23606125Y2770000D01*
X23518625Y2857500D02*
X23693625Y2857500D01*
X23844250Y2945000D02*
X23844250Y2770000D01*
X23756750Y2857500D02*
X23931750Y2857500D01*
X24320500Y6755000D02*
X24320500Y6580000D01*
X24233000Y6667500D02*
X24408000Y6667500D01*
X24320500Y4850000D02*
X24320500Y4675000D01*
X24233000Y4762500D02*
X24408000Y4762500D01*
D15*
X1093491Y6526509D02*
X1093491Y6808491D01*
X811509Y6808491D01*
X811509Y6526509D01*
X1093491Y6526509D01*
X1093491Y4621509D02*
X1093491Y4903491D01*
X811509Y4903491D01*
X811509Y4621509D01*
X1093491Y4621509D01*
X1569741Y2716509D02*
X1569741Y2998491D01*
X1287759Y2998491D01*
X1287759Y2716509D01*
X1569741Y2716509D01*
X1807866Y2716509D02*
X1807866Y2998491D01*
X1525884Y2998491D01*
X1525884Y2716509D01*
X1807866Y2716509D01*
X2045991Y2716509D02*
X2045991Y2998491D01*
X1764009Y2998491D01*
X1764009Y2716509D01*
X2045991Y2716509D01*
X2998491Y6526509D02*
X2998491Y6808491D01*
X2716509Y6808491D01*
X2716509Y6526509D01*
X2998491Y6526509D01*
X2998491Y4621509D02*
X2998491Y4903491D01*
X2716509Y4903491D01*
X2716509Y4621509D01*
X2998491Y4621509D01*
X3712866Y811509D02*
X3712866Y1093491D01*
X3430884Y1093491D01*
X3430884Y811509D01*
X3712866Y811509D01*
X3950991Y2716509D02*
X3950991Y2998491D01*
X3669009Y2998491D01*
X3669009Y2716509D01*
X3950991Y2716509D01*
X4189116Y811509D02*
X4189116Y1093491D01*
X3907134Y1093491D01*
X3907134Y811509D01*
X4189116Y811509D01*
X4903491Y6526509D02*
X4903491Y6808491D01*
X4621509Y6808491D01*
X4621509Y6526509D01*
X4903491Y6526509D01*
X4903491Y4621509D02*
X4903491Y4903491D01*
X4621509Y4903491D01*
X4621509Y4621509D01*
X4903491Y4621509D01*
X5855991Y2716509D02*
X5855991Y2998491D01*
X5574009Y2998491D01*
X5574009Y2716509D01*
X5855991Y2716509D01*
X5855991Y811509D02*
X5855991Y1093491D01*
X5574009Y1093491D01*
X5574009Y811509D01*
X5855991Y811509D01*
X6094116Y811509D02*
X6094116Y1093491D01*
X5812134Y1093491D01*
X5812134Y811509D01*
X6094116Y811509D01*
X6808491Y6526509D02*
X6808491Y6808491D01*
X6526509Y6808491D01*
X6526509Y6526509D01*
X6808491Y6526509D01*
X6808491Y4621509D02*
X6808491Y4903491D01*
X6526509Y4903491D01*
X6526509Y4621509D01*
X6808491Y4621509D01*
X6808491Y811509D02*
X6808491Y1093491D01*
X6526509Y1093491D01*
X6526509Y811509D01*
X6808491Y811509D01*
X7760991Y2716509D02*
X7760991Y2998491D01*
X7479009Y2998491D01*
X7479009Y2716509D01*
X7760991Y2716509D01*
X7999116Y811509D02*
X7999116Y1093491D01*
X7717134Y1093491D01*
X7717134Y811509D01*
X7999116Y811509D01*
X8237241Y811509D02*
X8237241Y1093491D01*
X7955259Y1093491D01*
X7955259Y811509D01*
X8237241Y811509D01*
X8713491Y6526509D02*
X8713491Y6808491D01*
X8431509Y6808491D01*
X8431509Y6526509D01*
X8713491Y6526509D01*
X8713491Y4621509D02*
X8713491Y4903491D01*
X8431509Y4903491D01*
X8431509Y4621509D01*
X8713491Y4621509D01*
X8713491Y811509D02*
X8713491Y1093491D01*
X8431509Y1093491D01*
X8431509Y811509D01*
X8713491Y811509D01*
X9665991Y2716509D02*
X9665991Y2998491D01*
X9384009Y2998491D01*
X9384009Y2716509D01*
X9665991Y2716509D01*
X10618491Y6526509D02*
X10618491Y6808491D01*
X10336509Y6808491D01*
X10336509Y6526509D01*
X10618491Y6526509D01*
X10618491Y4621509D02*
X10618491Y4903491D01*
X10336509Y4903491D01*
X10336509Y4621509D01*
X10618491Y4621509D01*
X10856616Y811509D02*
X10856616Y1093491D01*
X10574634Y1093491D01*
X10574634Y811509D01*
X10856616Y811509D01*
X11094741Y811509D02*
X11094741Y1093491D01*
X10812759Y1093491D01*
X10812759Y811509D01*
X11094741Y811509D01*
X11570991Y2716509D02*
X11570991Y2998491D01*
X11289009Y2998491D01*
X11289009Y2716509D01*
X11570991Y2716509D01*
X13475991Y2716509D02*
X13475991Y2998491D01*
X13194009Y2998491D01*
X13194009Y2716509D01*
X13475991Y2716509D01*
X13952241Y811509D02*
X13952241Y1093491D01*
X13670259Y1093491D01*
X13670259Y811509D01*
X13952241Y811509D01*
X14190366Y811509D02*
X14190366Y1093491D01*
X13908384Y1093491D01*
X13908384Y811509D01*
X14190366Y811509D01*
X14428491Y6526509D02*
X14428491Y6808491D01*
X14146509Y6808491D01*
X14146509Y6526509D01*
X14428491Y6526509D01*
X14428491Y4621509D02*
X14428491Y4903491D01*
X14146509Y4903491D01*
X14146509Y4621509D01*
X14428491Y4621509D01*
X15380991Y2716509D02*
X15380991Y2998491D01*
X15099009Y2998491D01*
X15099009Y2716509D01*
X15380991Y2716509D01*
X16333491Y6526509D02*
X16333491Y6808491D01*
X16051509Y6808491D01*
X16051509Y6526509D01*
X16333491Y6526509D01*
X16333491Y4621509D02*
X16333491Y4903491D01*
X16051509Y4903491D01*
X16051509Y4621509D01*
X16333491Y4621509D01*
X16333491Y811509D02*
X16333491Y1093491D01*
X16051509Y1093491D01*
X16051509Y811509D01*
X16333491Y811509D01*
X16809741Y811509D02*
X16809741Y1093491D01*
X16527759Y1093491D01*
X16527759Y811509D01*
X16809741Y811509D01*
X17047866Y811509D02*
X17047866Y1093491D01*
X16765884Y1093491D01*
X16765884Y811509D01*
X17047866Y811509D01*
X17285991Y2716509D02*
X17285991Y2998491D01*
X17004009Y2998491D01*
X17004009Y2716509D01*
X17285991Y2716509D01*
X18238491Y6526509D02*
X18238491Y6808491D01*
X17956509Y6808491D01*
X17956509Y6526509D01*
X18238491Y6526509D01*
X18238491Y4621509D02*
X18238491Y4903491D01*
X17956509Y4903491D01*
X17956509Y4621509D01*
X18238491Y4621509D01*
X18238491Y811509D02*
X18238491Y1093491D01*
X17956509Y1093491D01*
X17956509Y811509D01*
X18238491Y811509D01*
X18952866Y811509D02*
X18952866Y1093491D01*
X18670884Y1093491D01*
X18670884Y811509D01*
X18952866Y811509D01*
X19190991Y2716509D02*
X19190991Y2998491D01*
X18909009Y2998491D01*
X18909009Y2716509D01*
X19190991Y2716509D01*
X19190991Y811509D02*
X19190991Y1093491D01*
X18909009Y1093491D01*
X18909009Y811509D01*
X19190991Y811509D01*
X20143491Y6526509D02*
X20143491Y6808491D01*
X19861509Y6808491D01*
X19861509Y6526509D01*
X20143491Y6526509D01*
X20143491Y4621509D02*
X20143491Y4903491D01*
X19861509Y4903491D01*
X19861509Y4621509D01*
X20143491Y4621509D01*
X20857866Y811509D02*
X20857866Y1093491D01*
X20575884Y1093491D01*
X20575884Y811509D01*
X20857866Y811509D01*
X21095991Y2716509D02*
X21095991Y2998491D01*
X20814009Y2998491D01*
X20814009Y2716509D01*
X21095991Y2716509D01*
X21334116Y811509D02*
X21334116Y1093491D01*
X21052134Y1093491D01*
X21052134Y811509D01*
X21334116Y811509D01*
X22048491Y6526509D02*
X22048491Y6808491D01*
X21766509Y6808491D01*
X21766509Y6526509D01*
X22048491Y6526509D01*
X22048491Y4621509D02*
X22048491Y4903491D01*
X21766509Y4903491D01*
X21766509Y4621509D01*
X22048491Y4621509D01*
X23000991Y2716509D02*
X23000991Y2998491D01*
X22719009Y2998491D01*
X22719009Y2716509D01*
X23000991Y2716509D01*
X23239116Y2716509D02*
X23239116Y2998491D01*
X22957134Y2998491D01*
X22957134Y2716509D01*
X23239116Y2716509D01*
X23477241Y2716509D02*
X23477241Y2998491D01*
X23195259Y2998491D01*
X23195259Y2716509D01*
X23477241Y2716509D01*
X23953491Y6526509D02*
X23953491Y6808491D01*
X23671509Y6808491D01*
X23671509Y6526509D01*
X23953491Y6526509D01*
X23953491Y4621509D02*
X23953491Y4903491D01*
X23671509Y4903491D01*
X23671509Y4621509D01*
X23953491Y4621509D01*
D11*
X255781Y-316502D02*
X255781Y-116502D01*
X255781Y-116502D02*
X303400Y-116502D01*
X303400Y-116502D02*
X331971Y-126026D01*
X331971Y-126026D02*
X351019Y-145073D01*
X351019Y-145073D02*
X360543Y-164121D01*
X360543Y-164121D02*
X370066Y-202216D01*
X370066Y-202216D02*
X370066Y-230787D01*
X370066Y-230787D02*
X360543Y-268883D01*
X360543Y-268883D02*
X351019Y-287930D01*
X351019Y-287930D02*
X331971Y-306978D01*
X331971Y-306978D02*
X303400Y-316502D01*
X303400Y-316502D02*
X255781Y-316502D01*
X455781Y-316502D02*
X455781Y-183168D01*
X455781Y-221264D02*
X465305Y-202216D01*
X465305Y-202216D02*
X474828Y-192692D01*
X474828Y-192692D02*
X493876Y-183168D01*
X493876Y-183168D02*
X512924Y-183168D01*
X579590Y-316502D02*
X579590Y-183168D01*
X579590Y-116502D02*
X570067Y-126026D01*
X570067Y-126026D02*
X579590Y-135549D01*
X579590Y-135549D02*
X589114Y-126026D01*
X589114Y-126026D02*
X579590Y-116502D01*
X579590Y-116502D02*
X579590Y-135549D01*
X703400Y-316502D02*
X684352Y-306978D01*
X684352Y-306978D02*
X674828Y-287930D01*
X674828Y-287930D02*
X674828Y-116502D01*
X808162Y-316502D02*
X789114Y-306978D01*
X789114Y-306978D02*
X779590Y-287930D01*
X779590Y-287930D02*
X779590Y-116502D01*
X1036733Y-316502D02*
X1036733Y-116502D01*
X1036733Y-116502D02*
X1103400Y-259359D01*
X1103400Y-259359D02*
X1170067Y-116502D01*
X1170067Y-116502D02*
X1170067Y-316502D01*
X1351019Y-316502D02*
X1351019Y-211740D01*
X1351019Y-211740D02*
X1341495Y-192692D01*
X1341495Y-192692D02*
X1322448Y-183168D01*
X1322448Y-183168D02*
X1284352Y-183168D01*
X1284352Y-183168D02*
X1265305Y-192692D01*
X1351019Y-306978D02*
X1331971Y-316502D01*
X1331971Y-316502D02*
X1284352Y-316502D01*
X1284352Y-316502D02*
X1265305Y-306978D01*
X1265305Y-306978D02*
X1255781Y-287930D01*
X1255781Y-287930D02*
X1255781Y-268883D01*
X1255781Y-268883D02*
X1265305Y-249835D01*
X1265305Y-249835D02*
X1284352Y-240311D01*
X1284352Y-240311D02*
X1331971Y-240311D01*
X1331971Y-240311D02*
X1351019Y-230787D01*
X1446257Y-183168D02*
X1446257Y-383168D01*
X1446257Y-192692D02*
X1465305Y-183168D01*
X1465305Y-183168D02*
X1503400Y-183168D01*
X1503400Y-183168D02*
X1522447Y-192692D01*
X1522447Y-192692D02*
X1531971Y-202216D01*
X1531971Y-202216D02*
X1541495Y-221264D01*
X1541495Y-221264D02*
X1541495Y-278407D01*
X1541495Y-278407D02*
X1531971Y-297454D01*
X1531971Y-297454D02*
X1522447Y-306978D01*
X1522447Y-306978D02*
X1503400Y-316502D01*
X1503400Y-316502D02*
X1465305Y-316502D01*
X1465305Y-316502D02*
X1446257Y-306978D01*
X1627209Y-297454D02*
X1636733Y-306978D01*
X1636733Y-306978D02*
X1627209Y-316502D01*
X1627209Y-316502D02*
X1617686Y-306978D01*
X1617686Y-306978D02*
X1627209Y-297454D01*
X1627209Y-297454D02*
X1627209Y-316502D01*
X1627209Y-192692D02*
X1636733Y-202216D01*
X1636733Y-202216D02*
X1627209Y-211740D01*
X1627209Y-211740D02*
X1617686Y-202216D01*
X1617686Y-202216D02*
X1627209Y-192692D01*
X1627209Y-192692D02*
X1627209Y-211740D01*
D12*
X-69996Y-612518D02*
X-4996Y-677518D01*
X-4996Y-612518D02*
X-69996Y-677518D01*
D11*
X293876Y-536502D02*
X312924Y-536502D01*
X312924Y-536502D02*
X331971Y-546026D01*
X331971Y-546026D02*
X341495Y-555549D01*
X341495Y-555549D02*
X351019Y-574597D01*
X351019Y-574597D02*
X360543Y-612692D01*
X360543Y-612692D02*
X360543Y-660311D01*
X360543Y-660311D02*
X351019Y-698407D01*
X351019Y-698407D02*
X341495Y-717454D01*
X341495Y-717454D02*
X331971Y-726978D01*
X331971Y-726978D02*
X312924Y-736502D01*
X312924Y-736502D02*
X293876Y-736502D01*
X293876Y-736502D02*
X274828Y-726978D01*
X274828Y-726978D02*
X265305Y-717454D01*
X265305Y-717454D02*
X255781Y-698407D01*
X255781Y-698407D02*
X246257Y-660311D01*
X246257Y-660311D02*
X246257Y-612692D01*
X246257Y-612692D02*
X255781Y-574597D01*
X255781Y-574597D02*
X265305Y-555549D01*
X265305Y-555549D02*
X274828Y-546026D01*
X274828Y-546026D02*
X293876Y-536502D01*
X446257Y-717454D02*
X455781Y-726978D01*
X455781Y-726978D02*
X446257Y-736502D01*
X446257Y-736502D02*
X436733Y-726978D01*
X436733Y-726978D02*
X446257Y-717454D01*
X446257Y-717454D02*
X446257Y-736502D01*
X627209Y-536502D02*
X589114Y-536502D01*
X589114Y-536502D02*
X570067Y-546026D01*
X570067Y-546026D02*
X560543Y-555549D01*
X560543Y-555549D02*
X541495Y-584121D01*
X541495Y-584121D02*
X531971Y-622216D01*
X531971Y-622216D02*
X531971Y-698407D01*
X531971Y-698407D02*
X541495Y-717454D01*
X541495Y-717454D02*
X551019Y-726978D01*
X551019Y-726978D02*
X570067Y-736502D01*
X570067Y-736502D02*
X608162Y-736502D01*
X608162Y-736502D02*
X627209Y-726978D01*
X627209Y-726978D02*
X636733Y-717454D01*
X636733Y-717454D02*
X646257Y-698407D01*
X646257Y-698407D02*
X646257Y-650788D01*
X646257Y-650788D02*
X636733Y-631740D01*
X636733Y-631740D02*
X627209Y-622216D01*
X627209Y-622216D02*
X608162Y-612692D01*
X608162Y-612692D02*
X570067Y-612692D01*
X570067Y-612692D02*
X551019Y-622216D01*
X551019Y-622216D02*
X541495Y-631740D01*
X541495Y-631740D02*
X531971Y-650788D01*
X827209Y-536502D02*
X731971Y-536502D01*
X731971Y-536502D02*
X722447Y-631740D01*
X722447Y-631740D02*
X731971Y-622216D01*
X731971Y-622216D02*
X751019Y-612692D01*
X751019Y-612692D02*
X798638Y-612692D01*
X798638Y-612692D02*
X817686Y-622216D01*
X817686Y-622216D02*
X827209Y-631740D01*
X827209Y-631740D02*
X836733Y-650788D01*
X836733Y-650788D02*
X836733Y-698407D01*
X836733Y-698407D02*
X827209Y-717454D01*
X827209Y-717454D02*
X817686Y-726978D01*
X817686Y-726978D02*
X798638Y-736502D01*
X798638Y-736502D02*
X751019Y-736502D01*
X751019Y-736502D02*
X731971Y-726978D01*
X731971Y-726978D02*
X722447Y-717454D01*
X960543Y-536502D02*
X979590Y-536502D01*
X979590Y-536502D02*
X998638Y-546026D01*
X998638Y-546026D02*
X1008162Y-555549D01*
X1008162Y-555549D02*
X1017686Y-574597D01*
X1017686Y-574597D02*
X1027209Y-612692D01*
X1027209Y-612692D02*
X1027209Y-660311D01*
X1027209Y-660311D02*
X1017686Y-698407D01*
X1017686Y-698407D02*
X1008162Y-717454D01*
X1008162Y-717454D02*
X998638Y-726978D01*
X998638Y-726978D02*
X979590Y-736502D01*
X979590Y-736502D02*
X960543Y-736502D01*
X960543Y-736502D02*
X941495Y-726978D01*
X941495Y-726978D02*
X931971Y-717454D01*
X931971Y-717454D02*
X922447Y-698407D01*
X922447Y-698407D02*
X912924Y-660311D01*
X912924Y-660311D02*
X912924Y-612692D01*
X912924Y-612692D02*
X922447Y-574597D01*
X922447Y-574597D02*
X931971Y-555549D01*
X931971Y-555549D02*
X941495Y-546026D01*
X941495Y-546026D02*
X960543Y-536502D01*
X1112924Y-736502D02*
X1112924Y-603168D01*
X1112924Y-622216D02*
X1122448Y-612692D01*
X1122448Y-612692D02*
X1141495Y-603168D01*
X1141495Y-603168D02*
X1170067Y-603168D01*
X1170067Y-603168D02*
X1189114Y-612692D01*
X1189114Y-612692D02*
X1198638Y-631740D01*
X1198638Y-631740D02*
X1198638Y-736502D01*
X1198638Y-631740D02*
X1208162Y-612692D01*
X1208162Y-612692D02*
X1227209Y-603168D01*
X1227209Y-603168D02*
X1255781Y-603168D01*
X1255781Y-603168D02*
X1274829Y-612692D01*
X1274829Y-612692D02*
X1284352Y-631740D01*
X1284352Y-631740D02*
X1284352Y-736502D01*
X1379590Y-736502D02*
X1379590Y-603168D01*
X1379590Y-622216D02*
X1389114Y-612692D01*
X1389114Y-612692D02*
X1408162Y-603168D01*
X1408162Y-603168D02*
X1436733Y-603168D01*
X1436733Y-603168D02*
X1455781Y-612692D01*
X1455781Y-612692D02*
X1465305Y-631740D01*
X1465305Y-631740D02*
X1465305Y-736502D01*
X1465305Y-631740D02*
X1474828Y-612692D01*
X1474828Y-612692D02*
X1493876Y-603168D01*
X1493876Y-603168D02*
X1522447Y-603168D01*
X1522447Y-603168D02*
X1541495Y-612692D01*
X1541495Y-612692D02*
X1551019Y-631740D01*
X1551019Y-631740D02*
X1551019Y-736502D01*
X1941495Y-526978D02*
X1770067Y-784121D01*
X2198638Y-536502D02*
X2217686Y-536502D01*
X2217686Y-536502D02*
X2236733Y-546026D01*
X2236733Y-546026D02*
X2246257Y-555549D01*
X2246257Y-555549D02*
X2255781Y-574597D01*
X2255781Y-574597D02*
X2265305Y-612692D01*
X2265305Y-612692D02*
X2265305Y-660311D01*
X2265305Y-660311D02*
X2255781Y-698407D01*
X2255781Y-698407D02*
X2246257Y-717454D01*
X2246257Y-717454D02*
X2236733Y-726978D01*
X2236733Y-726978D02*
X2217686Y-736502D01*
X2217686Y-736502D02*
X2198638Y-736502D01*
X2198638Y-736502D02*
X2179591Y-726978D01*
X2179591Y-726978D02*
X2170067Y-717454D01*
X2170067Y-717454D02*
X2160543Y-698407D01*
X2160543Y-698407D02*
X2151019Y-660311D01*
X2151019Y-660311D02*
X2151019Y-612692D01*
X2151019Y-612692D02*
X2160543Y-574597D01*
X2160543Y-574597D02*
X2170067Y-555549D01*
X2170067Y-555549D02*
X2179591Y-546026D01*
X2179591Y-546026D02*
X2198638Y-536502D01*
X2351019Y-717454D02*
X2360543Y-726978D01*
X2360543Y-726978D02*
X2351019Y-736502D01*
X2351019Y-736502D02*
X2341495Y-726978D01*
X2341495Y-726978D02*
X2351019Y-717454D01*
X2351019Y-717454D02*
X2351019Y-736502D01*
X2484352Y-536502D02*
X2503400Y-536502D01*
X2503400Y-536502D02*
X2522448Y-546026D01*
X2522448Y-546026D02*
X2531972Y-555549D01*
X2531972Y-555549D02*
X2541495Y-574597D01*
X2541495Y-574597D02*
X2551019Y-612692D01*
X2551019Y-612692D02*
X2551019Y-660311D01*
X2551019Y-660311D02*
X2541495Y-698407D01*
X2541495Y-698407D02*
X2531972Y-717454D01*
X2531972Y-717454D02*
X2522448Y-726978D01*
X2522448Y-726978D02*
X2503400Y-736502D01*
X2503400Y-736502D02*
X2484352Y-736502D01*
X2484352Y-736502D02*
X2465305Y-726978D01*
X2465305Y-726978D02*
X2455781Y-717454D01*
X2455781Y-717454D02*
X2446257Y-698407D01*
X2446257Y-698407D02*
X2436733Y-660311D01*
X2436733Y-660311D02*
X2436733Y-612692D01*
X2436733Y-612692D02*
X2446257Y-574597D01*
X2446257Y-574597D02*
X2455781Y-555549D01*
X2455781Y-555549D02*
X2465305Y-546026D01*
X2465305Y-546026D02*
X2484352Y-536502D01*
X2627210Y-555549D02*
X2636733Y-546026D01*
X2636733Y-546026D02*
X2655781Y-536502D01*
X2655781Y-536502D02*
X2703400Y-536502D01*
X2703400Y-536502D02*
X2722448Y-546026D01*
X2722448Y-546026D02*
X2731972Y-555549D01*
X2731972Y-555549D02*
X2741495Y-574597D01*
X2741495Y-574597D02*
X2741495Y-593645D01*
X2741495Y-593645D02*
X2731972Y-622216D01*
X2731972Y-622216D02*
X2617686Y-736502D01*
X2617686Y-736502D02*
X2741495Y-736502D01*
X2922448Y-536502D02*
X2827210Y-536502D01*
X2827210Y-536502D02*
X2817686Y-631740D01*
X2817686Y-631740D02*
X2827210Y-622216D01*
X2827210Y-622216D02*
X2846257Y-612692D01*
X2846257Y-612692D02*
X2893876Y-612692D01*
X2893876Y-612692D02*
X2912924Y-622216D01*
X2912924Y-622216D02*
X2922448Y-631740D01*
X2922448Y-631740D02*
X2931971Y-650788D01*
X2931971Y-650788D02*
X2931971Y-698407D01*
X2931971Y-698407D02*
X2922448Y-717454D01*
X2922448Y-717454D02*
X2912924Y-726978D01*
X2912924Y-726978D02*
X2893876Y-736502D01*
X2893876Y-736502D02*
X2846257Y-736502D01*
X2846257Y-736502D02*
X2827210Y-726978D01*
X2827210Y-726978D02*
X2817686Y-717454D01*
X3103400Y-536502D02*
X3065305Y-536502D01*
X3065305Y-536502D02*
X3046257Y-546026D01*
X3046257Y-546026D02*
X3036733Y-555549D01*
X3036733Y-555549D02*
X3017686Y-584121D01*
X3017686Y-584121D02*
X3008162Y-622216D01*
X3008162Y-622216D02*
X3008162Y-698407D01*
X3008162Y-698407D02*
X3017686Y-717454D01*
X3017686Y-717454D02*
X3027210Y-726978D01*
X3027210Y-726978D02*
X3046257Y-736502D01*
X3046257Y-736502D02*
X3084352Y-736502D01*
X3084352Y-736502D02*
X3103400Y-726978D01*
X3103400Y-726978D02*
X3112924Y-717454D01*
X3112924Y-717454D02*
X3122448Y-698407D01*
X3122448Y-698407D02*
X3122448Y-650788D01*
X3122448Y-650788D02*
X3112924Y-631740D01*
X3112924Y-631740D02*
X3103400Y-622216D01*
X3103400Y-622216D02*
X3084352Y-612692D01*
X3084352Y-612692D02*
X3046257Y-612692D01*
X3046257Y-612692D02*
X3027210Y-622216D01*
X3027210Y-622216D02*
X3017686Y-631740D01*
X3017686Y-631740D02*
X3008162Y-650788D01*
X3198638Y-536502D02*
X3198638Y-574597D01*
X3274829Y-536502D02*
X3274829Y-574597D01*
X3570067Y-812692D02*
X3560543Y-803168D01*
X3560543Y-803168D02*
X3541495Y-774597D01*
X3541495Y-774597D02*
X3531972Y-755549D01*
X3531972Y-755549D02*
X3522448Y-726978D01*
X3522448Y-726978D02*
X3512924Y-679359D01*
X3512924Y-679359D02*
X3512924Y-641264D01*
X3512924Y-641264D02*
X3522448Y-593645D01*
X3522448Y-593645D02*
X3531972Y-565073D01*
X3531972Y-565073D02*
X3541495Y-546026D01*
X3541495Y-546026D02*
X3560543Y-517454D01*
X3560543Y-517454D02*
X3570067Y-507930D01*
X3636733Y-555549D02*
X3646257Y-546026D01*
X3646257Y-546026D02*
X3665305Y-536502D01*
X3665305Y-536502D02*
X3712924Y-536502D01*
X3712924Y-536502D02*
X3731972Y-546026D01*
X3731972Y-546026D02*
X3741495Y-555549D01*
X3741495Y-555549D02*
X3751019Y-574597D01*
X3751019Y-574597D02*
X3751019Y-593645D01*
X3751019Y-593645D02*
X3741495Y-622216D01*
X3741495Y-622216D02*
X3627210Y-736502D01*
X3627210Y-736502D02*
X3751019Y-736502D01*
X3989114Y-736502D02*
X3989114Y-536502D01*
X4074829Y-736502D02*
X4074829Y-631740D01*
X4074829Y-631740D02*
X4065305Y-612692D01*
X4065305Y-612692D02*
X4046257Y-603168D01*
X4046257Y-603168D02*
X4017686Y-603168D01*
X4017686Y-603168D02*
X3998638Y-612692D01*
X3998638Y-612692D02*
X3989114Y-622216D01*
X4198638Y-736502D02*
X4179591Y-726978D01*
X4179591Y-726978D02*
X4170067Y-717454D01*
X4170067Y-717454D02*
X4160543Y-698407D01*
X4160543Y-698407D02*
X4160543Y-641264D01*
X4160543Y-641264D02*
X4170067Y-622216D01*
X4170067Y-622216D02*
X4179591Y-612692D01*
X4179591Y-612692D02*
X4198638Y-603168D01*
X4198638Y-603168D02*
X4227210Y-603168D01*
X4227210Y-603168D02*
X4246257Y-612692D01*
X4246257Y-612692D02*
X4255781Y-622216D01*
X4255781Y-622216D02*
X4265305Y-641264D01*
X4265305Y-641264D02*
X4265305Y-698407D01*
X4265305Y-698407D02*
X4255781Y-717454D01*
X4255781Y-717454D02*
X4246257Y-726978D01*
X4246257Y-726978D02*
X4227210Y-736502D01*
X4227210Y-736502D02*
X4198638Y-736502D01*
X4379591Y-736502D02*
X4360543Y-726978D01*
X4360543Y-726978D02*
X4351019Y-707930D01*
X4351019Y-707930D02*
X4351019Y-536502D01*
X4531972Y-726978D02*
X4512924Y-736502D01*
X4512924Y-736502D02*
X4474829Y-736502D01*
X4474829Y-736502D02*
X4455781Y-726978D01*
X4455781Y-726978D02*
X4446257Y-707930D01*
X4446257Y-707930D02*
X4446257Y-631740D01*
X4446257Y-631740D02*
X4455781Y-612692D01*
X4455781Y-612692D02*
X4474829Y-603168D01*
X4474829Y-603168D02*
X4512924Y-603168D01*
X4512924Y-603168D02*
X4531972Y-612692D01*
X4531972Y-612692D02*
X4541496Y-631740D01*
X4541496Y-631740D02*
X4541496Y-650788D01*
X4541496Y-650788D02*
X4446257Y-669835D01*
X4617686Y-726978D02*
X4636734Y-736502D01*
X4636734Y-736502D02*
X4674829Y-736502D01*
X4674829Y-736502D02*
X4693877Y-726978D01*
X4693877Y-726978D02*
X4703400Y-707930D01*
X4703400Y-707930D02*
X4703400Y-698407D01*
X4703400Y-698407D02*
X4693877Y-679359D01*
X4693877Y-679359D02*
X4674829Y-669835D01*
X4674829Y-669835D02*
X4646257Y-669835D01*
X4646257Y-669835D02*
X4627210Y-660311D01*
X4627210Y-660311D02*
X4617686Y-641264D01*
X4617686Y-641264D02*
X4617686Y-631740D01*
X4617686Y-631740D02*
X4627210Y-612692D01*
X4627210Y-612692D02*
X4646257Y-603168D01*
X4646257Y-603168D02*
X4674829Y-603168D01*
X4674829Y-603168D02*
X4693877Y-612692D01*
X4770067Y-812692D02*
X4779591Y-803168D01*
X4779591Y-803168D02*
X4798638Y-774597D01*
X4798638Y-774597D02*
X4808162Y-755549D01*
X4808162Y-755549D02*
X4817686Y-726978D01*
X4817686Y-726978D02*
X4827210Y-679359D01*
X4827210Y-679359D02*
X4827210Y-641264D01*
X4827210Y-641264D02*
X4817686Y-593645D01*
X4817686Y-593645D02*
X4808162Y-565073D01*
X4808162Y-565073D02*
X4798638Y-546026D01*
X4798638Y-546026D02*
X4779591Y-517454D01*
X4779591Y-517454D02*
X4770067Y-507930D01*
X5131972Y-812692D02*
X5122448Y-803168D01*
X5122448Y-803168D02*
X5103400Y-774597D01*
X5103400Y-774597D02*
X5093877Y-755549D01*
X5093877Y-755549D02*
X5084353Y-726978D01*
X5084353Y-726978D02*
X5074829Y-679359D01*
X5074829Y-679359D02*
X5074829Y-641264D01*
X5074829Y-641264D02*
X5084353Y-593645D01*
X5084353Y-593645D02*
X5093877Y-565073D01*
X5093877Y-565073D02*
X5103400Y-546026D01*
X5103400Y-546026D02*
X5122448Y-517454D01*
X5122448Y-517454D02*
X5131972Y-507930D01*
X5208162Y-603168D02*
X5208162Y-736502D01*
X5208162Y-622216D02*
X5217686Y-612692D01*
X5217686Y-612692D02*
X5236734Y-603168D01*
X5236734Y-603168D02*
X5265305Y-603168D01*
X5265305Y-603168D02*
X5284353Y-612692D01*
X5284353Y-612692D02*
X5293877Y-631740D01*
X5293877Y-631740D02*
X5293877Y-736502D01*
X5417686Y-736502D02*
X5398638Y-726978D01*
X5398638Y-726978D02*
X5389115Y-717454D01*
X5389115Y-717454D02*
X5379591Y-698407D01*
X5379591Y-698407D02*
X5379591Y-641264D01*
X5379591Y-641264D02*
X5389115Y-622216D01*
X5389115Y-622216D02*
X5398638Y-612692D01*
X5398638Y-612692D02*
X5417686Y-603168D01*
X5417686Y-603168D02*
X5446258Y-603168D01*
X5446258Y-603168D02*
X5465305Y-612692D01*
X5465305Y-612692D02*
X5474829Y-622216D01*
X5474829Y-622216D02*
X5484353Y-641264D01*
X5484353Y-641264D02*
X5484353Y-698407D01*
X5484353Y-698407D02*
X5474829Y-717454D01*
X5474829Y-717454D02*
X5465305Y-726978D01*
X5465305Y-726978D02*
X5446258Y-736502D01*
X5446258Y-736502D02*
X5417686Y-736502D01*
X5541496Y-603168D02*
X5617686Y-603168D01*
X5570067Y-536502D02*
X5570067Y-707930D01*
X5570067Y-707930D02*
X5579591Y-726978D01*
X5579591Y-726978D02*
X5598638Y-736502D01*
X5598638Y-736502D02*
X5617686Y-736502D01*
X5836734Y-603168D02*
X5836734Y-803168D01*
X5836734Y-612692D02*
X5855781Y-603168D01*
X5855781Y-603168D02*
X5893877Y-603168D01*
X5893877Y-603168D02*
X5912924Y-612692D01*
X5912924Y-612692D02*
X5922448Y-622216D01*
X5922448Y-622216D02*
X5931972Y-641264D01*
X5931972Y-641264D02*
X5931972Y-698407D01*
X5931972Y-698407D02*
X5922448Y-717454D01*
X5922448Y-717454D02*
X5912924Y-726978D01*
X5912924Y-726978D02*
X5893877Y-736502D01*
X5893877Y-736502D02*
X5855781Y-736502D01*
X5855781Y-736502D02*
X5836734Y-726978D01*
X6046257Y-736502D02*
X6027210Y-726978D01*
X6027210Y-726978D02*
X6017686Y-707930D01*
X6017686Y-707930D02*
X6017686Y-536502D01*
X6208162Y-736502D02*
X6208162Y-631740D01*
X6208162Y-631740D02*
X6198638Y-612692D01*
X6198638Y-612692D02*
X6179591Y-603168D01*
X6179591Y-603168D02*
X6141496Y-603168D01*
X6141496Y-603168D02*
X6122448Y-612692D01*
X6208162Y-726978D02*
X6189115Y-736502D01*
X6189115Y-736502D02*
X6141496Y-736502D01*
X6141496Y-736502D02*
X6122448Y-726978D01*
X6122448Y-726978D02*
X6112924Y-707930D01*
X6112924Y-707930D02*
X6112924Y-688883D01*
X6112924Y-688883D02*
X6122448Y-669835D01*
X6122448Y-669835D02*
X6141496Y-660311D01*
X6141496Y-660311D02*
X6189115Y-660311D01*
X6189115Y-660311D02*
X6208162Y-650788D01*
X6274829Y-603168D02*
X6351019Y-603168D01*
X6303400Y-536502D02*
X6303400Y-707930D01*
X6303400Y-707930D02*
X6312924Y-726978D01*
X6312924Y-726978D02*
X6331972Y-736502D01*
X6331972Y-736502D02*
X6351019Y-736502D01*
X6493877Y-726978D02*
X6474829Y-736502D01*
X6474829Y-736502D02*
X6436734Y-736502D01*
X6436734Y-736502D02*
X6417686Y-726978D01*
X6417686Y-726978D02*
X6408162Y-707930D01*
X6408162Y-707930D02*
X6408162Y-631740D01*
X6408162Y-631740D02*
X6417686Y-612692D01*
X6417686Y-612692D02*
X6436734Y-603168D01*
X6436734Y-603168D02*
X6474829Y-603168D01*
X6474829Y-603168D02*
X6493877Y-612692D01*
X6493877Y-612692D02*
X6503400Y-631740D01*
X6503400Y-631740D02*
X6503400Y-650788D01*
X6503400Y-650788D02*
X6408162Y-669835D01*
X6674829Y-736502D02*
X6674829Y-536502D01*
X6674829Y-726978D02*
X6655781Y-736502D01*
X6655781Y-736502D02*
X6617686Y-736502D01*
X6617686Y-736502D02*
X6598638Y-726978D01*
X6598638Y-726978D02*
X6589115Y-717454D01*
X6589115Y-717454D02*
X6579591Y-698407D01*
X6579591Y-698407D02*
X6579591Y-641264D01*
X6579591Y-641264D02*
X6589115Y-622216D01*
X6589115Y-622216D02*
X6598638Y-612692D01*
X6598638Y-612692D02*
X6617686Y-603168D01*
X6617686Y-603168D02*
X6655781Y-603168D01*
X6655781Y-603168D02*
X6674829Y-612692D01*
X6751019Y-812692D02*
X6760543Y-803168D01*
X6760543Y-803168D02*
X6779591Y-774597D01*
X6779591Y-774597D02*
X6789115Y-755549D01*
X6789115Y-755549D02*
X6798638Y-726978D01*
X6798638Y-726978D02*
X6808162Y-679359D01*
X6808162Y-679359D02*
X6808162Y-641264D01*
X6808162Y-641264D02*
X6798638Y-593645D01*
X6798638Y-593645D02*
X6789115Y-565073D01*
X6789115Y-565073D02*
X6779591Y-546026D01*
X6779591Y-546026D02*
X6760543Y-517454D01*
X6760543Y-517454D02*
X6751019Y-507930D01*
D13*
X-4996Y-909018D02*
G75*
G03*
X-4996Y-909018I-75000J0D01*
G01*
D11*
X360543Y-1000502D02*
X246257Y-1000502D01*
X303400Y-1000502D02*
X303400Y-800502D01*
X303400Y-800502D02*
X284352Y-829073D01*
X284352Y-829073D02*
X265305Y-848121D01*
X265305Y-848121D02*
X246257Y-857645D01*
X446257Y-981454D02*
X455781Y-990978D01*
X455781Y-990978D02*
X446257Y-1000502D01*
X446257Y-1000502D02*
X436733Y-990978D01*
X436733Y-990978D02*
X446257Y-981454D01*
X446257Y-981454D02*
X446257Y-1000502D01*
X636733Y-800502D02*
X541495Y-800502D01*
X541495Y-800502D02*
X531971Y-895740D01*
X531971Y-895740D02*
X541495Y-886216D01*
X541495Y-886216D02*
X560543Y-876692D01*
X560543Y-876692D02*
X608162Y-876692D01*
X608162Y-876692D02*
X627209Y-886216D01*
X627209Y-886216D02*
X636733Y-895740D01*
X636733Y-895740D02*
X646257Y-914787D01*
X646257Y-914787D02*
X646257Y-962406D01*
X646257Y-962406D02*
X636733Y-981454D01*
X636733Y-981454D02*
X627209Y-990978D01*
X627209Y-990978D02*
X608162Y-1000502D01*
X608162Y-1000502D02*
X560543Y-1000502D01*
X560543Y-1000502D02*
X541495Y-990978D01*
X541495Y-990978D02*
X531971Y-981454D01*
X770066Y-800502D02*
X789114Y-800502D01*
X789114Y-800502D02*
X808162Y-810026D01*
X808162Y-810026D02*
X817686Y-819549D01*
X817686Y-819549D02*
X827209Y-838597D01*
X827209Y-838597D02*
X836733Y-876692D01*
X836733Y-876692D02*
X836733Y-924311D01*
X836733Y-924311D02*
X827209Y-962406D01*
X827209Y-962406D02*
X817686Y-981454D01*
X817686Y-981454D02*
X808162Y-990978D01*
X808162Y-990978D02*
X789114Y-1000502D01*
X789114Y-1000502D02*
X770066Y-1000502D01*
X770066Y-1000502D02*
X751019Y-990978D01*
X751019Y-990978D02*
X741495Y-981454D01*
X741495Y-981454D02*
X731971Y-962406D01*
X731971Y-962406D02*
X722447Y-924311D01*
X722447Y-924311D02*
X722447Y-876692D01*
X722447Y-876692D02*
X731971Y-838597D01*
X731971Y-838597D02*
X741495Y-819549D01*
X741495Y-819549D02*
X751019Y-810026D01*
X751019Y-810026D02*
X770066Y-800502D01*
X960543Y-800502D02*
X979590Y-800502D01*
X979590Y-800502D02*
X998638Y-810026D01*
X998638Y-810026D02*
X1008162Y-819549D01*
X1008162Y-819549D02*
X1017686Y-838597D01*
X1017686Y-838597D02*
X1027209Y-876692D01*
X1027209Y-876692D02*
X1027209Y-924311D01*
X1027209Y-924311D02*
X1017686Y-962406D01*
X1017686Y-962406D02*
X1008162Y-981454D01*
X1008162Y-981454D02*
X998638Y-990978D01*
X998638Y-990978D02*
X979590Y-1000502D01*
X979590Y-1000502D02*
X960543Y-1000502D01*
X960543Y-1000502D02*
X941495Y-990978D01*
X941495Y-990978D02*
X931971Y-981454D01*
X931971Y-981454D02*
X922447Y-962406D01*
X922447Y-962406D02*
X912924Y-924311D01*
X912924Y-924311D02*
X912924Y-876692D01*
X912924Y-876692D02*
X922447Y-838597D01*
X922447Y-838597D02*
X931971Y-819549D01*
X931971Y-819549D02*
X941495Y-810026D01*
X941495Y-810026D02*
X960543Y-800502D01*
X1112924Y-1000502D02*
X1112924Y-867168D01*
X1112924Y-886216D02*
X1122448Y-876692D01*
X1122448Y-876692D02*
X1141495Y-867168D01*
X1141495Y-867168D02*
X1170067Y-867168D01*
X1170067Y-867168D02*
X1189114Y-876692D01*
X1189114Y-876692D02*
X1198638Y-895740D01*
X1198638Y-895740D02*
X1198638Y-1000502D01*
X1198638Y-895740D02*
X1208162Y-876692D01*
X1208162Y-876692D02*
X1227209Y-867168D01*
X1227209Y-867168D02*
X1255781Y-867168D01*
X1255781Y-867168D02*
X1274829Y-876692D01*
X1274829Y-876692D02*
X1284352Y-895740D01*
X1284352Y-895740D02*
X1284352Y-1000502D01*
X1379590Y-1000502D02*
X1379590Y-867168D01*
X1379590Y-886216D02*
X1389114Y-876692D01*
X1389114Y-876692D02*
X1408162Y-867168D01*
X1408162Y-867168D02*
X1436733Y-867168D01*
X1436733Y-867168D02*
X1455781Y-876692D01*
X1455781Y-876692D02*
X1465305Y-895740D01*
X1465305Y-895740D02*
X1465305Y-1000502D01*
X1465305Y-895740D02*
X1474828Y-876692D01*
X1474828Y-876692D02*
X1493876Y-867168D01*
X1493876Y-867168D02*
X1522447Y-867168D01*
X1522447Y-867168D02*
X1541495Y-876692D01*
X1541495Y-876692D02*
X1551019Y-895740D01*
X1551019Y-895740D02*
X1551019Y-1000502D01*
X1941495Y-790978D02*
X1770067Y-1048121D01*
X2198638Y-800502D02*
X2217686Y-800502D01*
X2217686Y-800502D02*
X2236733Y-810026D01*
X2236733Y-810026D02*
X2246257Y-819549D01*
X2246257Y-819549D02*
X2255781Y-838597D01*
X2255781Y-838597D02*
X2265305Y-876692D01*
X2265305Y-876692D02*
X2265305Y-924311D01*
X2265305Y-924311D02*
X2255781Y-962406D01*
X2255781Y-962406D02*
X2246257Y-981454D01*
X2246257Y-981454D02*
X2236733Y-990978D01*
X2236733Y-990978D02*
X2217686Y-1000502D01*
X2217686Y-1000502D02*
X2198638Y-1000502D01*
X2198638Y-1000502D02*
X2179591Y-990978D01*
X2179591Y-990978D02*
X2170067Y-981454D01*
X2170067Y-981454D02*
X2160543Y-962406D01*
X2160543Y-962406D02*
X2151019Y-924311D01*
X2151019Y-924311D02*
X2151019Y-876692D01*
X2151019Y-876692D02*
X2160543Y-838597D01*
X2160543Y-838597D02*
X2170067Y-819549D01*
X2170067Y-819549D02*
X2179591Y-810026D01*
X2179591Y-810026D02*
X2198638Y-800502D01*
X2351019Y-981454D02*
X2360543Y-990978D01*
X2360543Y-990978D02*
X2351019Y-1000502D01*
X2351019Y-1000502D02*
X2341495Y-990978D01*
X2341495Y-990978D02*
X2351019Y-981454D01*
X2351019Y-981454D02*
X2351019Y-1000502D01*
X2484352Y-800502D02*
X2503400Y-800502D01*
X2503400Y-800502D02*
X2522448Y-810026D01*
X2522448Y-810026D02*
X2531972Y-819549D01*
X2531972Y-819549D02*
X2541495Y-838597D01*
X2541495Y-838597D02*
X2551019Y-876692D01*
X2551019Y-876692D02*
X2551019Y-924311D01*
X2551019Y-924311D02*
X2541495Y-962406D01*
X2541495Y-962406D02*
X2531972Y-981454D01*
X2531972Y-981454D02*
X2522448Y-990978D01*
X2522448Y-990978D02*
X2503400Y-1000502D01*
X2503400Y-1000502D02*
X2484352Y-1000502D01*
X2484352Y-1000502D02*
X2465305Y-990978D01*
X2465305Y-990978D02*
X2455781Y-981454D01*
X2455781Y-981454D02*
X2446257Y-962406D01*
X2446257Y-962406D02*
X2436733Y-924311D01*
X2436733Y-924311D02*
X2436733Y-876692D01*
X2436733Y-876692D02*
X2446257Y-838597D01*
X2446257Y-838597D02*
X2455781Y-819549D01*
X2455781Y-819549D02*
X2465305Y-810026D01*
X2465305Y-810026D02*
X2484352Y-800502D01*
X2731972Y-800502D02*
X2636733Y-800502D01*
X2636733Y-800502D02*
X2627210Y-895740D01*
X2627210Y-895740D02*
X2636733Y-886216D01*
X2636733Y-886216D02*
X2655781Y-876692D01*
X2655781Y-876692D02*
X2703400Y-876692D01*
X2703400Y-876692D02*
X2722448Y-886216D01*
X2722448Y-886216D02*
X2731972Y-895740D01*
X2731972Y-895740D02*
X2741495Y-914787D01*
X2741495Y-914787D02*
X2741495Y-962406D01*
X2741495Y-962406D02*
X2731972Y-981454D01*
X2731972Y-981454D02*
X2722448Y-990978D01*
X2722448Y-990978D02*
X2703400Y-1000502D01*
X2703400Y-1000502D02*
X2655781Y-1000502D01*
X2655781Y-1000502D02*
X2636733Y-990978D01*
X2636733Y-990978D02*
X2627210Y-981454D01*
X2836733Y-1000502D02*
X2874829Y-1000502D01*
X2874829Y-1000502D02*
X2893876Y-990978D01*
X2893876Y-990978D02*
X2903400Y-981454D01*
X2903400Y-981454D02*
X2922448Y-952883D01*
X2922448Y-952883D02*
X2931971Y-914787D01*
X2931971Y-914787D02*
X2931971Y-838597D01*
X2931971Y-838597D02*
X2922448Y-819549D01*
X2922448Y-819549D02*
X2912924Y-810026D01*
X2912924Y-810026D02*
X2893876Y-800502D01*
X2893876Y-800502D02*
X2855781Y-800502D01*
X2855781Y-800502D02*
X2836733Y-810026D01*
X2836733Y-810026D02*
X2827210Y-819549D01*
X2827210Y-819549D02*
X2817686Y-838597D01*
X2817686Y-838597D02*
X2817686Y-886216D01*
X2817686Y-886216D02*
X2827210Y-905264D01*
X2827210Y-905264D02*
X2836733Y-914787D01*
X2836733Y-914787D02*
X2855781Y-924311D01*
X2855781Y-924311D02*
X2893876Y-924311D01*
X2893876Y-924311D02*
X2912924Y-914787D01*
X2912924Y-914787D02*
X2922448Y-905264D01*
X2922448Y-905264D02*
X2931971Y-886216D01*
X3122448Y-1000502D02*
X3008162Y-1000502D01*
X3065305Y-1000502D02*
X3065305Y-800502D01*
X3065305Y-800502D02*
X3046257Y-829073D01*
X3046257Y-829073D02*
X3027210Y-848121D01*
X3027210Y-848121D02*
X3008162Y-857645D01*
X3198638Y-800502D02*
X3198638Y-838597D01*
X3274829Y-800502D02*
X3274829Y-838597D01*
X3570067Y-1076692D02*
X3560543Y-1067168D01*
X3560543Y-1067168D02*
X3541495Y-1038597D01*
X3541495Y-1038597D02*
X3531972Y-1019549D01*
X3531972Y-1019549D02*
X3522448Y-990978D01*
X3522448Y-990978D02*
X3512924Y-943359D01*
X3512924Y-943359D02*
X3512924Y-905264D01*
X3512924Y-905264D02*
X3522448Y-857645D01*
X3522448Y-857645D02*
X3531972Y-829073D01*
X3531972Y-829073D02*
X3541495Y-810026D01*
X3541495Y-810026D02*
X3560543Y-781454D01*
X3560543Y-781454D02*
X3570067Y-771930D01*
X3684352Y-800502D02*
X3703400Y-800502D01*
X3703400Y-800502D02*
X3722448Y-810026D01*
X3722448Y-810026D02*
X3731972Y-819549D01*
X3731972Y-819549D02*
X3741495Y-838597D01*
X3741495Y-838597D02*
X3751019Y-876692D01*
X3751019Y-876692D02*
X3751019Y-924311D01*
X3751019Y-924311D02*
X3741495Y-962406D01*
X3741495Y-962406D02*
X3731972Y-981454D01*
X3731972Y-981454D02*
X3722448Y-990978D01*
X3722448Y-990978D02*
X3703400Y-1000502D01*
X3703400Y-1000502D02*
X3684352Y-1000502D01*
X3684352Y-1000502D02*
X3665305Y-990978D01*
X3665305Y-990978D02*
X3655781Y-981454D01*
X3655781Y-981454D02*
X3646257Y-962406D01*
X3646257Y-962406D02*
X3636733Y-924311D01*
X3636733Y-924311D02*
X3636733Y-876692D01*
X3636733Y-876692D02*
X3646257Y-838597D01*
X3646257Y-838597D02*
X3655781Y-819549D01*
X3655781Y-819549D02*
X3665305Y-810026D01*
X3665305Y-810026D02*
X3684352Y-800502D01*
X3989114Y-1000502D02*
X3989114Y-800502D01*
X4074829Y-1000502D02*
X4074829Y-895740D01*
X4074829Y-895740D02*
X4065305Y-876692D01*
X4065305Y-876692D02*
X4046257Y-867168D01*
X4046257Y-867168D02*
X4017686Y-867168D01*
X4017686Y-867168D02*
X3998638Y-876692D01*
X3998638Y-876692D02*
X3989114Y-886216D01*
X4198638Y-1000502D02*
X4179591Y-990978D01*
X4179591Y-990978D02*
X4170067Y-981454D01*
X4170067Y-981454D02*
X4160543Y-962406D01*
X4160543Y-962406D02*
X4160543Y-905264D01*
X4160543Y-905264D02*
X4170067Y-886216D01*
X4170067Y-886216D02*
X4179591Y-876692D01*
X4179591Y-876692D02*
X4198638Y-867168D01*
X4198638Y-867168D02*
X4227210Y-867168D01*
X4227210Y-867168D02*
X4246257Y-876692D01*
X4246257Y-876692D02*
X4255781Y-886216D01*
X4255781Y-886216D02*
X4265305Y-905264D01*
X4265305Y-905264D02*
X4265305Y-962406D01*
X4265305Y-962406D02*
X4255781Y-981454D01*
X4255781Y-981454D02*
X4246257Y-990978D01*
X4246257Y-990978D02*
X4227210Y-1000502D01*
X4227210Y-1000502D02*
X4198638Y-1000502D01*
X4379591Y-1000502D02*
X4360543Y-990978D01*
X4360543Y-990978D02*
X4351019Y-971930D01*
X4351019Y-971930D02*
X4351019Y-800502D01*
X4531972Y-990978D02*
X4512924Y-1000502D01*
X4512924Y-1000502D02*
X4474829Y-1000502D01*
X4474829Y-1000502D02*
X4455781Y-990978D01*
X4455781Y-990978D02*
X4446257Y-971930D01*
X4446257Y-971930D02*
X4446257Y-895740D01*
X4446257Y-895740D02*
X4455781Y-876692D01*
X4455781Y-876692D02*
X4474829Y-867168D01*
X4474829Y-867168D02*
X4512924Y-867168D01*
X4512924Y-867168D02*
X4531972Y-876692D01*
X4531972Y-876692D02*
X4541496Y-895740D01*
X4541496Y-895740D02*
X4541496Y-914787D01*
X4541496Y-914787D02*
X4446257Y-933835D01*
X4617686Y-990978D02*
X4636734Y-1000502D01*
X4636734Y-1000502D02*
X4674829Y-1000502D01*
X4674829Y-1000502D02*
X4693877Y-990978D01*
X4693877Y-990978D02*
X4703400Y-971930D01*
X4703400Y-971930D02*
X4703400Y-962406D01*
X4703400Y-962406D02*
X4693877Y-943359D01*
X4693877Y-943359D02*
X4674829Y-933835D01*
X4674829Y-933835D02*
X4646257Y-933835D01*
X4646257Y-933835D02*
X4627210Y-924311D01*
X4627210Y-924311D02*
X4617686Y-905264D01*
X4617686Y-905264D02*
X4617686Y-895740D01*
X4617686Y-895740D02*
X4627210Y-876692D01*
X4627210Y-876692D02*
X4646257Y-867168D01*
X4646257Y-867168D02*
X4674829Y-867168D01*
X4674829Y-867168D02*
X4693877Y-876692D01*
X4941496Y-924311D02*
X5093877Y-924311D01*
X5017686Y-1000502D02*
X5017686Y-848121D01*
X5331972Y-819549D02*
X5341496Y-810026D01*
X5341496Y-810026D02*
X5360543Y-800502D01*
X5360543Y-800502D02*
X5408162Y-800502D01*
X5408162Y-800502D02*
X5427210Y-810026D01*
X5427210Y-810026D02*
X5436734Y-819549D01*
X5436734Y-819549D02*
X5446258Y-838597D01*
X5446258Y-838597D02*
X5446258Y-857645D01*
X5446258Y-857645D02*
X5436734Y-886216D01*
X5436734Y-886216D02*
X5322448Y-1000502D01*
X5322448Y-1000502D02*
X5446258Y-1000502D01*
X5674829Y-990978D02*
X5693877Y-1000502D01*
X5693877Y-1000502D02*
X5731972Y-1000502D01*
X5731972Y-1000502D02*
X5751019Y-990978D01*
X5751019Y-990978D02*
X5760543Y-971930D01*
X5760543Y-971930D02*
X5760543Y-962406D01*
X5760543Y-962406D02*
X5751019Y-943359D01*
X5751019Y-943359D02*
X5731972Y-933835D01*
X5731972Y-933835D02*
X5703400Y-933835D01*
X5703400Y-933835D02*
X5684353Y-924311D01*
X5684353Y-924311D02*
X5674829Y-905264D01*
X5674829Y-905264D02*
X5674829Y-895740D01*
X5674829Y-895740D02*
X5684353Y-876692D01*
X5684353Y-876692D02*
X5703400Y-867168D01*
X5703400Y-867168D02*
X5731972Y-867168D01*
X5731972Y-867168D02*
X5751019Y-876692D01*
X5874829Y-1000502D02*
X5855781Y-990978D01*
X5855781Y-990978D02*
X5846258Y-971930D01*
X5846258Y-971930D02*
X5846258Y-800502D01*
X5979591Y-1000502D02*
X5960543Y-990978D01*
X5960543Y-990978D02*
X5951019Y-981454D01*
X5951019Y-981454D02*
X5941496Y-962406D01*
X5941496Y-962406D02*
X5941496Y-905264D01*
X5941496Y-905264D02*
X5951019Y-886216D01*
X5951019Y-886216D02*
X5960543Y-876692D01*
X5960543Y-876692D02*
X5979591Y-867168D01*
X5979591Y-867168D02*
X6008162Y-867168D01*
X6008162Y-867168D02*
X6027210Y-876692D01*
X6027210Y-876692D02*
X6036734Y-886216D01*
X6036734Y-886216D02*
X6046258Y-905264D01*
X6046258Y-905264D02*
X6046258Y-962406D01*
X6046258Y-962406D02*
X6036734Y-981454D01*
X6036734Y-981454D02*
X6027210Y-990978D01*
X6027210Y-990978D02*
X6008162Y-1000502D01*
X6008162Y-1000502D02*
X5979591Y-1000502D01*
X6103400Y-867168D02*
X6179591Y-867168D01*
X6131972Y-800502D02*
X6131972Y-971930D01*
X6131972Y-971930D02*
X6141496Y-990978D01*
X6141496Y-990978D02*
X6160543Y-1000502D01*
X6160543Y-1000502D02*
X6179591Y-1000502D01*
X6236734Y-990978D02*
X6255781Y-1000502D01*
X6255781Y-1000502D02*
X6293877Y-1000502D01*
X6293877Y-1000502D02*
X6312924Y-990978D01*
X6312924Y-990978D02*
X6322448Y-971930D01*
X6322448Y-971930D02*
X6322448Y-962406D01*
X6322448Y-962406D02*
X6312924Y-943359D01*
X6312924Y-943359D02*
X6293877Y-933835D01*
X6293877Y-933835D02*
X6265305Y-933835D01*
X6265305Y-933835D02*
X6246258Y-924311D01*
X6246258Y-924311D02*
X6236734Y-905264D01*
X6236734Y-905264D02*
X6236734Y-895740D01*
X6236734Y-895740D02*
X6246258Y-876692D01*
X6246258Y-876692D02*
X6265305Y-867168D01*
X6265305Y-867168D02*
X6293877Y-867168D01*
X6293877Y-867168D02*
X6312924Y-876692D01*
X6389115Y-1076692D02*
X6398639Y-1067168D01*
X6398639Y-1067168D02*
X6417686Y-1038597D01*
X6417686Y-1038597D02*
X6427210Y-1019549D01*
X6427210Y-1019549D02*
X6436734Y-990978D01*
X6436734Y-990978D02*
X6446258Y-943359D01*
X6446258Y-943359D02*
X6446258Y-905264D01*
X6446258Y-905264D02*
X6436734Y-857645D01*
X6436734Y-857645D02*
X6427210Y-829073D01*
X6427210Y-829073D02*
X6417686Y-810026D01*
X6417686Y-810026D02*
X6398639Y-781454D01*
X6398639Y-781454D02*
X6389115Y-771930D01*
X6751020Y-1076692D02*
X6741496Y-1067168D01*
X6741496Y-1067168D02*
X6722448Y-1038597D01*
X6722448Y-1038597D02*
X6712924Y-1019549D01*
X6712924Y-1019549D02*
X6703400Y-990978D01*
X6703400Y-990978D02*
X6693877Y-943359D01*
X6693877Y-943359D02*
X6693877Y-905264D01*
X6693877Y-905264D02*
X6703400Y-857645D01*
X6703400Y-857645D02*
X6712924Y-829073D01*
X6712924Y-829073D02*
X6722448Y-810026D01*
X6722448Y-810026D02*
X6741496Y-781454D01*
X6741496Y-781454D02*
X6751020Y-771930D01*
X6827210Y-867168D02*
X6827210Y-1000502D01*
X6827210Y-886216D02*
X6836734Y-876692D01*
X6836734Y-876692D02*
X6855781Y-867168D01*
X6855781Y-867168D02*
X6884353Y-867168D01*
X6884353Y-867168D02*
X6903400Y-876692D01*
X6903400Y-876692D02*
X6912924Y-895740D01*
X6912924Y-895740D02*
X6912924Y-1000502D01*
X7036734Y-1000502D02*
X7017686Y-990978D01*
X7017686Y-990978D02*
X7008162Y-981454D01*
X7008162Y-981454D02*
X6998639Y-962406D01*
X6998639Y-962406D02*
X6998639Y-905264D01*
X6998639Y-905264D02*
X7008162Y-886216D01*
X7008162Y-886216D02*
X7017686Y-876692D01*
X7017686Y-876692D02*
X7036734Y-867168D01*
X7036734Y-867168D02*
X7065305Y-867168D01*
X7065305Y-867168D02*
X7084353Y-876692D01*
X7084353Y-876692D02*
X7093877Y-886216D01*
X7093877Y-886216D02*
X7103400Y-905264D01*
X7103400Y-905264D02*
X7103400Y-962406D01*
X7103400Y-962406D02*
X7093877Y-981454D01*
X7093877Y-981454D02*
X7084353Y-990978D01*
X7084353Y-990978D02*
X7065305Y-1000502D01*
X7065305Y-1000502D02*
X7036734Y-1000502D01*
X7160543Y-867168D02*
X7236734Y-867168D01*
X7189115Y-800502D02*
X7189115Y-971930D01*
X7189115Y-971930D02*
X7198639Y-990978D01*
X7198639Y-990978D02*
X7217686Y-1000502D01*
X7217686Y-1000502D02*
X7236734Y-1000502D01*
X7455781Y-867168D02*
X7455781Y-1067168D01*
X7455781Y-876692D02*
X7474829Y-867168D01*
X7474829Y-867168D02*
X7512924Y-867168D01*
X7512924Y-867168D02*
X7531972Y-876692D01*
X7531972Y-876692D02*
X7541496Y-886216D01*
X7541496Y-886216D02*
X7551020Y-905264D01*
X7551020Y-905264D02*
X7551020Y-962406D01*
X7551020Y-962406D02*
X7541496Y-981454D01*
X7541496Y-981454D02*
X7531972Y-990978D01*
X7531972Y-990978D02*
X7512924Y-1000502D01*
X7512924Y-1000502D02*
X7474829Y-1000502D01*
X7474829Y-1000502D02*
X7455781Y-990978D01*
X7665305Y-1000502D02*
X7646258Y-990978D01*
X7646258Y-990978D02*
X7636734Y-971930D01*
X7636734Y-971930D02*
X7636734Y-800502D01*
X7827210Y-1000502D02*
X7827210Y-895740D01*
X7827210Y-895740D02*
X7817686Y-876692D01*
X7817686Y-876692D02*
X7798639Y-867168D01*
X7798639Y-867168D02*
X7760543Y-867168D01*
X7760543Y-867168D02*
X7741496Y-876692D01*
X7827210Y-990978D02*
X7808162Y-1000502D01*
X7808162Y-1000502D02*
X7760543Y-1000502D01*
X7760543Y-1000502D02*
X7741496Y-990978D01*
X7741496Y-990978D02*
X7731972Y-971930D01*
X7731972Y-971930D02*
X7731972Y-952883D01*
X7731972Y-952883D02*
X7741496Y-933835D01*
X7741496Y-933835D02*
X7760543Y-924311D01*
X7760543Y-924311D02*
X7808162Y-924311D01*
X7808162Y-924311D02*
X7827210Y-914787D01*
X7893877Y-867168D02*
X7970067Y-867168D01*
X7922448Y-800502D02*
X7922448Y-971930D01*
X7922448Y-971930D02*
X7931972Y-990978D01*
X7931972Y-990978D02*
X7951020Y-1000502D01*
X7951020Y-1000502D02*
X7970067Y-1000502D01*
X8112924Y-990978D02*
X8093877Y-1000502D01*
X8093877Y-1000502D02*
X8055781Y-1000502D01*
X8055781Y-1000502D02*
X8036734Y-990978D01*
X8036734Y-990978D02*
X8027210Y-971930D01*
X8027210Y-971930D02*
X8027210Y-895740D01*
X8027210Y-895740D02*
X8036734Y-876692D01*
X8036734Y-876692D02*
X8055781Y-867168D01*
X8055781Y-867168D02*
X8093877Y-867168D01*
X8093877Y-867168D02*
X8112924Y-876692D01*
X8112924Y-876692D02*
X8122448Y-895740D01*
X8122448Y-895740D02*
X8122448Y-914787D01*
X8122448Y-914787D02*
X8027210Y-933835D01*
X8293877Y-1000502D02*
X8293877Y-800502D01*
X8293877Y-990978D02*
X8274829Y-1000502D01*
X8274829Y-1000502D02*
X8236734Y-1000502D01*
X8236734Y-1000502D02*
X8217686Y-990978D01*
X8217686Y-990978D02*
X8208162Y-981454D01*
X8208162Y-981454D02*
X8198639Y-962406D01*
X8198639Y-962406D02*
X8198639Y-905264D01*
X8198639Y-905264D02*
X8208162Y-886216D01*
X8208162Y-886216D02*
X8217686Y-876692D01*
X8217686Y-876692D02*
X8236734Y-867168D01*
X8236734Y-867168D02*
X8274829Y-867168D01*
X8274829Y-867168D02*
X8293877Y-876692D01*
X8370067Y-1076692D02*
X8379591Y-1067168D01*
X8379591Y-1067168D02*
X8398639Y-1038597D01*
X8398639Y-1038597D02*
X8408163Y-1019549D01*
X8408163Y-1019549D02*
X8417686Y-990978D01*
X8417686Y-990978D02*
X8427210Y-943359D01*
X8427210Y-943359D02*
X8427210Y-905264D01*
X8427210Y-905264D02*
X8417686Y-857645D01*
X8417686Y-857645D02*
X8408163Y-829073D01*
X8408163Y-829073D02*
X8398639Y-810026D01*
X8398639Y-810026D02*
X8379591Y-781454D01*
X8379591Y-781454D02*
X8370067Y-771930D01*
D14*
X-92496Y-1091518D02*
X-92496Y-1266518D01*
X-179996Y-1179018D02*
X-4996Y-1179018D01*
D11*
X360543Y-1270502D02*
X246257Y-1270502D01*
X303400Y-1270502D02*
X303400Y-1070502D01*
X303400Y-1070502D02*
X284352Y-1099073D01*
X284352Y-1099073D02*
X265305Y-1118121D01*
X265305Y-1118121D02*
X246257Y-1127645D01*
X446257Y-1251454D02*
X455781Y-1260978D01*
X455781Y-1260978D02*
X446257Y-1270502D01*
X446257Y-1270502D02*
X436733Y-1260978D01*
X436733Y-1260978D02*
X446257Y-1251454D01*
X446257Y-1251454D02*
X446257Y-1270502D01*
X522447Y-1070502D02*
X655781Y-1070502D01*
X655781Y-1070502D02*
X570067Y-1270502D01*
X827209Y-1070502D02*
X731971Y-1070502D01*
X731971Y-1070502D02*
X722447Y-1165740D01*
X722447Y-1165740D02*
X731971Y-1156216D01*
X731971Y-1156216D02*
X751019Y-1146692D01*
X751019Y-1146692D02*
X798638Y-1146692D01*
X798638Y-1146692D02*
X817686Y-1156216D01*
X817686Y-1156216D02*
X827209Y-1165740D01*
X827209Y-1165740D02*
X836733Y-1184788D01*
X836733Y-1184788D02*
X836733Y-1232407D01*
X836733Y-1232407D02*
X827209Y-1251454D01*
X827209Y-1251454D02*
X817686Y-1260978D01*
X817686Y-1260978D02*
X798638Y-1270502D01*
X798638Y-1270502D02*
X751019Y-1270502D01*
X751019Y-1270502D02*
X731971Y-1260978D01*
X731971Y-1260978D02*
X722447Y-1251454D01*
X960543Y-1070502D02*
X979590Y-1070502D01*
X979590Y-1070502D02*
X998638Y-1080026D01*
X998638Y-1080026D02*
X1008162Y-1089549D01*
X1008162Y-1089549D02*
X1017686Y-1108597D01*
X1017686Y-1108597D02*
X1027209Y-1146692D01*
X1027209Y-1146692D02*
X1027209Y-1194311D01*
X1027209Y-1194311D02*
X1017686Y-1232407D01*
X1017686Y-1232407D02*
X1008162Y-1251454D01*
X1008162Y-1251454D02*
X998638Y-1260978D01*
X998638Y-1260978D02*
X979590Y-1270502D01*
X979590Y-1270502D02*
X960543Y-1270502D01*
X960543Y-1270502D02*
X941495Y-1260978D01*
X941495Y-1260978D02*
X931971Y-1251454D01*
X931971Y-1251454D02*
X922447Y-1232407D01*
X922447Y-1232407D02*
X912924Y-1194311D01*
X912924Y-1194311D02*
X912924Y-1146692D01*
X912924Y-1146692D02*
X922447Y-1108597D01*
X922447Y-1108597D02*
X931971Y-1089549D01*
X931971Y-1089549D02*
X941495Y-1080026D01*
X941495Y-1080026D02*
X960543Y-1070502D01*
X1112924Y-1270502D02*
X1112924Y-1137168D01*
X1112924Y-1156216D02*
X1122448Y-1146692D01*
X1122448Y-1146692D02*
X1141495Y-1137168D01*
X1141495Y-1137168D02*
X1170067Y-1137168D01*
X1170067Y-1137168D02*
X1189114Y-1146692D01*
X1189114Y-1146692D02*
X1198638Y-1165740D01*
X1198638Y-1165740D02*
X1198638Y-1270502D01*
X1198638Y-1165740D02*
X1208162Y-1146692D01*
X1208162Y-1146692D02*
X1227209Y-1137168D01*
X1227209Y-1137168D02*
X1255781Y-1137168D01*
X1255781Y-1137168D02*
X1274829Y-1146692D01*
X1274829Y-1146692D02*
X1284352Y-1165740D01*
X1284352Y-1165740D02*
X1284352Y-1270502D01*
X1379590Y-1270502D02*
X1379590Y-1137168D01*
X1379590Y-1156216D02*
X1389114Y-1146692D01*
X1389114Y-1146692D02*
X1408162Y-1137168D01*
X1408162Y-1137168D02*
X1436733Y-1137168D01*
X1436733Y-1137168D02*
X1455781Y-1146692D01*
X1455781Y-1146692D02*
X1465305Y-1165740D01*
X1465305Y-1165740D02*
X1465305Y-1270502D01*
X1465305Y-1165740D02*
X1474828Y-1146692D01*
X1474828Y-1146692D02*
X1493876Y-1137168D01*
X1493876Y-1137168D02*
X1522447Y-1137168D01*
X1522447Y-1137168D02*
X1541495Y-1146692D01*
X1541495Y-1146692D02*
X1551019Y-1165740D01*
X1551019Y-1165740D02*
X1551019Y-1270502D01*
X1941495Y-1060978D02*
X1770067Y-1318121D01*
X2198638Y-1070502D02*
X2217686Y-1070502D01*
X2217686Y-1070502D02*
X2236733Y-1080026D01*
X2236733Y-1080026D02*
X2246257Y-1089549D01*
X2246257Y-1089549D02*
X2255781Y-1108597D01*
X2255781Y-1108597D02*
X2265305Y-1146692D01*
X2265305Y-1146692D02*
X2265305Y-1194311D01*
X2265305Y-1194311D02*
X2255781Y-1232407D01*
X2255781Y-1232407D02*
X2246257Y-1251454D01*
X2246257Y-1251454D02*
X2236733Y-1260978D01*
X2236733Y-1260978D02*
X2217686Y-1270502D01*
X2217686Y-1270502D02*
X2198638Y-1270502D01*
X2198638Y-1270502D02*
X2179591Y-1260978D01*
X2179591Y-1260978D02*
X2170067Y-1251454D01*
X2170067Y-1251454D02*
X2160543Y-1232407D01*
X2160543Y-1232407D02*
X2151019Y-1194311D01*
X2151019Y-1194311D02*
X2151019Y-1146692D01*
X2151019Y-1146692D02*
X2160543Y-1108597D01*
X2160543Y-1108597D02*
X2170067Y-1089549D01*
X2170067Y-1089549D02*
X2179591Y-1080026D01*
X2179591Y-1080026D02*
X2198638Y-1070502D01*
X2351019Y-1251454D02*
X2360543Y-1260978D01*
X2360543Y-1260978D02*
X2351019Y-1270502D01*
X2351019Y-1270502D02*
X2341495Y-1260978D01*
X2341495Y-1260978D02*
X2351019Y-1251454D01*
X2351019Y-1251454D02*
X2351019Y-1270502D01*
X2484352Y-1070502D02*
X2503400Y-1070502D01*
X2503400Y-1070502D02*
X2522448Y-1080026D01*
X2522448Y-1080026D02*
X2531972Y-1089549D01*
X2531972Y-1089549D02*
X2541495Y-1108597D01*
X2541495Y-1108597D02*
X2551019Y-1146692D01*
X2551019Y-1146692D02*
X2551019Y-1194311D01*
X2551019Y-1194311D02*
X2541495Y-1232407D01*
X2541495Y-1232407D02*
X2531972Y-1251454D01*
X2531972Y-1251454D02*
X2522448Y-1260978D01*
X2522448Y-1260978D02*
X2503400Y-1270502D01*
X2503400Y-1270502D02*
X2484352Y-1270502D01*
X2484352Y-1270502D02*
X2465305Y-1260978D01*
X2465305Y-1260978D02*
X2455781Y-1251454D01*
X2455781Y-1251454D02*
X2446257Y-1232407D01*
X2446257Y-1232407D02*
X2436733Y-1194311D01*
X2436733Y-1194311D02*
X2436733Y-1146692D01*
X2436733Y-1146692D02*
X2446257Y-1108597D01*
X2446257Y-1108597D02*
X2455781Y-1089549D01*
X2455781Y-1089549D02*
X2465305Y-1080026D01*
X2465305Y-1080026D02*
X2484352Y-1070502D01*
X2722448Y-1070502D02*
X2684352Y-1070502D01*
X2684352Y-1070502D02*
X2665305Y-1080026D01*
X2665305Y-1080026D02*
X2655781Y-1089549D01*
X2655781Y-1089549D02*
X2636733Y-1118121D01*
X2636733Y-1118121D02*
X2627210Y-1156216D01*
X2627210Y-1156216D02*
X2627210Y-1232407D01*
X2627210Y-1232407D02*
X2636733Y-1251454D01*
X2636733Y-1251454D02*
X2646257Y-1260978D01*
X2646257Y-1260978D02*
X2665305Y-1270502D01*
X2665305Y-1270502D02*
X2703400Y-1270502D01*
X2703400Y-1270502D02*
X2722448Y-1260978D01*
X2722448Y-1260978D02*
X2731972Y-1251454D01*
X2731972Y-1251454D02*
X2741495Y-1232407D01*
X2741495Y-1232407D02*
X2741495Y-1184788D01*
X2741495Y-1184788D02*
X2731972Y-1165740D01*
X2731972Y-1165740D02*
X2722448Y-1156216D01*
X2722448Y-1156216D02*
X2703400Y-1146692D01*
X2703400Y-1146692D02*
X2665305Y-1146692D01*
X2665305Y-1146692D02*
X2646257Y-1156216D01*
X2646257Y-1156216D02*
X2636733Y-1165740D01*
X2636733Y-1165740D02*
X2627210Y-1184788D01*
X2855781Y-1156216D02*
X2836733Y-1146692D01*
X2836733Y-1146692D02*
X2827210Y-1137168D01*
X2827210Y-1137168D02*
X2817686Y-1118121D01*
X2817686Y-1118121D02*
X2817686Y-1108597D01*
X2817686Y-1108597D02*
X2827210Y-1089549D01*
X2827210Y-1089549D02*
X2836733Y-1080026D01*
X2836733Y-1080026D02*
X2855781Y-1070502D01*
X2855781Y-1070502D02*
X2893876Y-1070502D01*
X2893876Y-1070502D02*
X2912924Y-1080026D01*
X2912924Y-1080026D02*
X2922448Y-1089549D01*
X2922448Y-1089549D02*
X2931971Y-1108597D01*
X2931971Y-1108597D02*
X2931971Y-1118121D01*
X2931971Y-1118121D02*
X2922448Y-1137168D01*
X2922448Y-1137168D02*
X2912924Y-1146692D01*
X2912924Y-1146692D02*
X2893876Y-1156216D01*
X2893876Y-1156216D02*
X2855781Y-1156216D01*
X2855781Y-1156216D02*
X2836733Y-1165740D01*
X2836733Y-1165740D02*
X2827210Y-1175264D01*
X2827210Y-1175264D02*
X2817686Y-1194311D01*
X2817686Y-1194311D02*
X2817686Y-1232407D01*
X2817686Y-1232407D02*
X2827210Y-1251454D01*
X2827210Y-1251454D02*
X2836733Y-1260978D01*
X2836733Y-1260978D02*
X2855781Y-1270502D01*
X2855781Y-1270502D02*
X2893876Y-1270502D01*
X2893876Y-1270502D02*
X2912924Y-1260978D01*
X2912924Y-1260978D02*
X2922448Y-1251454D01*
X2922448Y-1251454D02*
X2931971Y-1232407D01*
X2931971Y-1232407D02*
X2931971Y-1194311D01*
X2931971Y-1194311D02*
X2922448Y-1175264D01*
X2922448Y-1175264D02*
X2912924Y-1165740D01*
X2912924Y-1165740D02*
X2893876Y-1156216D01*
X3027210Y-1270502D02*
X3065305Y-1270502D01*
X3065305Y-1270502D02*
X3084352Y-1260978D01*
X3084352Y-1260978D02*
X3093876Y-1251454D01*
X3093876Y-1251454D02*
X3112924Y-1222883D01*
X3112924Y-1222883D02*
X3122448Y-1184788D01*
X3122448Y-1184788D02*
X3122448Y-1108597D01*
X3122448Y-1108597D02*
X3112924Y-1089549D01*
X3112924Y-1089549D02*
X3103400Y-1080026D01*
X3103400Y-1080026D02*
X3084352Y-1070502D01*
X3084352Y-1070502D02*
X3046257Y-1070502D01*
X3046257Y-1070502D02*
X3027210Y-1080026D01*
X3027210Y-1080026D02*
X3017686Y-1089549D01*
X3017686Y-1089549D02*
X3008162Y-1108597D01*
X3008162Y-1108597D02*
X3008162Y-1156216D01*
X3008162Y-1156216D02*
X3017686Y-1175264D01*
X3017686Y-1175264D02*
X3027210Y-1184788D01*
X3027210Y-1184788D02*
X3046257Y-1194311D01*
X3046257Y-1194311D02*
X3084352Y-1194311D01*
X3084352Y-1194311D02*
X3103400Y-1184788D01*
X3103400Y-1184788D02*
X3112924Y-1175264D01*
X3112924Y-1175264D02*
X3122448Y-1156216D01*
X3198638Y-1070502D02*
X3198638Y-1108597D01*
X3274829Y-1070502D02*
X3274829Y-1108597D01*
X3570067Y-1346692D02*
X3560543Y-1337168D01*
X3560543Y-1337168D02*
X3541495Y-1308597D01*
X3541495Y-1308597D02*
X3531972Y-1289549D01*
X3531972Y-1289549D02*
X3522448Y-1260978D01*
X3522448Y-1260978D02*
X3512924Y-1213359D01*
X3512924Y-1213359D02*
X3512924Y-1175264D01*
X3512924Y-1175264D02*
X3522448Y-1127645D01*
X3522448Y-1127645D02*
X3531972Y-1099073D01*
X3531972Y-1099073D02*
X3541495Y-1080026D01*
X3541495Y-1080026D02*
X3560543Y-1051454D01*
X3560543Y-1051454D02*
X3570067Y-1041930D01*
X3751019Y-1270502D02*
X3636733Y-1270502D01*
X3693876Y-1270502D02*
X3693876Y-1070502D01*
X3693876Y-1070502D02*
X3674829Y-1099073D01*
X3674829Y-1099073D02*
X3655781Y-1118121D01*
X3655781Y-1118121D02*
X3636733Y-1127645D01*
X3827210Y-1089549D02*
X3836733Y-1080026D01*
X3836733Y-1080026D02*
X3855781Y-1070502D01*
X3855781Y-1070502D02*
X3903400Y-1070502D01*
X3903400Y-1070502D02*
X3922448Y-1080026D01*
X3922448Y-1080026D02*
X3931972Y-1089549D01*
X3931972Y-1089549D02*
X3941495Y-1108597D01*
X3941495Y-1108597D02*
X3941495Y-1127645D01*
X3941495Y-1127645D02*
X3931972Y-1156216D01*
X3931972Y-1156216D02*
X3817686Y-1270502D01*
X3817686Y-1270502D02*
X3941495Y-1270502D01*
X4065305Y-1070502D02*
X4084353Y-1070502D01*
X4084353Y-1070502D02*
X4103400Y-1080026D01*
X4103400Y-1080026D02*
X4112924Y-1089549D01*
X4112924Y-1089549D02*
X4122448Y-1108597D01*
X4122448Y-1108597D02*
X4131972Y-1146692D01*
X4131972Y-1146692D02*
X4131972Y-1194311D01*
X4131972Y-1194311D02*
X4122448Y-1232407D01*
X4122448Y-1232407D02*
X4112924Y-1251454D01*
X4112924Y-1251454D02*
X4103400Y-1260978D01*
X4103400Y-1260978D02*
X4084353Y-1270502D01*
X4084353Y-1270502D02*
X4065305Y-1270502D01*
X4065305Y-1270502D02*
X4046257Y-1260978D01*
X4046257Y-1260978D02*
X4036733Y-1251454D01*
X4036733Y-1251454D02*
X4027210Y-1232407D01*
X4027210Y-1232407D02*
X4017686Y-1194311D01*
X4017686Y-1194311D02*
X4017686Y-1146692D01*
X4017686Y-1146692D02*
X4027210Y-1108597D01*
X4027210Y-1108597D02*
X4036733Y-1089549D01*
X4036733Y-1089549D02*
X4046257Y-1080026D01*
X4046257Y-1080026D02*
X4065305Y-1070502D01*
X4370067Y-1270502D02*
X4370067Y-1070502D01*
X4455781Y-1270502D02*
X4455781Y-1165740D01*
X4455781Y-1165740D02*
X4446257Y-1146692D01*
X4446257Y-1146692D02*
X4427210Y-1137168D01*
X4427210Y-1137168D02*
X4398638Y-1137168D01*
X4398638Y-1137168D02*
X4379591Y-1146692D01*
X4379591Y-1146692D02*
X4370067Y-1156216D01*
X4579591Y-1270502D02*
X4560543Y-1260978D01*
X4560543Y-1260978D02*
X4551019Y-1251454D01*
X4551019Y-1251454D02*
X4541496Y-1232407D01*
X4541496Y-1232407D02*
X4541496Y-1175264D01*
X4541496Y-1175264D02*
X4551019Y-1156216D01*
X4551019Y-1156216D02*
X4560543Y-1146692D01*
X4560543Y-1146692D02*
X4579591Y-1137168D01*
X4579591Y-1137168D02*
X4608162Y-1137168D01*
X4608162Y-1137168D02*
X4627210Y-1146692D01*
X4627210Y-1146692D02*
X4636734Y-1156216D01*
X4636734Y-1156216D02*
X4646257Y-1175264D01*
X4646257Y-1175264D02*
X4646257Y-1232407D01*
X4646257Y-1232407D02*
X4636734Y-1251454D01*
X4636734Y-1251454D02*
X4627210Y-1260978D01*
X4627210Y-1260978D02*
X4608162Y-1270502D01*
X4608162Y-1270502D02*
X4579591Y-1270502D01*
X4760543Y-1270502D02*
X4741496Y-1260978D01*
X4741496Y-1260978D02*
X4731972Y-1241930D01*
X4731972Y-1241930D02*
X4731972Y-1070502D01*
X4912924Y-1260978D02*
X4893877Y-1270502D01*
X4893877Y-1270502D02*
X4855781Y-1270502D01*
X4855781Y-1270502D02*
X4836734Y-1260978D01*
X4836734Y-1260978D02*
X4827210Y-1241930D01*
X4827210Y-1241930D02*
X4827210Y-1165740D01*
X4827210Y-1165740D02*
X4836734Y-1146692D01*
X4836734Y-1146692D02*
X4855781Y-1137168D01*
X4855781Y-1137168D02*
X4893877Y-1137168D01*
X4893877Y-1137168D02*
X4912924Y-1146692D01*
X4912924Y-1146692D02*
X4922448Y-1165740D01*
X4922448Y-1165740D02*
X4922448Y-1184788D01*
X4922448Y-1184788D02*
X4827210Y-1203835D01*
X4998638Y-1260978D02*
X5017686Y-1270502D01*
X5017686Y-1270502D02*
X5055781Y-1270502D01*
X5055781Y-1270502D02*
X5074829Y-1260978D01*
X5074829Y-1260978D02*
X5084353Y-1241930D01*
X5084353Y-1241930D02*
X5084353Y-1232407D01*
X5084353Y-1232407D02*
X5074829Y-1213359D01*
X5074829Y-1213359D02*
X5055781Y-1203835D01*
X5055781Y-1203835D02*
X5027210Y-1203835D01*
X5027210Y-1203835D02*
X5008162Y-1194311D01*
X5008162Y-1194311D02*
X4998638Y-1175264D01*
X4998638Y-1175264D02*
X4998638Y-1165740D01*
X4998638Y-1165740D02*
X5008162Y-1146692D01*
X5008162Y-1146692D02*
X5027210Y-1137168D01*
X5027210Y-1137168D02*
X5055781Y-1137168D01*
X5055781Y-1137168D02*
X5074829Y-1146692D01*
X5151019Y-1346692D02*
X5160543Y-1337168D01*
X5160543Y-1337168D02*
X5179591Y-1308597D01*
X5179591Y-1308597D02*
X5189115Y-1289549D01*
X5189115Y-1289549D02*
X5198638Y-1260978D01*
X5198638Y-1260978D02*
X5208162Y-1213359D01*
X5208162Y-1213359D02*
X5208162Y-1175264D01*
X5208162Y-1175264D02*
X5198638Y-1127645D01*
X5198638Y-1127645D02*
X5189115Y-1099073D01*
X5189115Y-1099073D02*
X5179591Y-1080026D01*
X5179591Y-1080026D02*
X5160543Y-1051454D01*
X5160543Y-1051454D02*
X5151019Y-1041930D01*
X5512924Y-1346692D02*
X5503400Y-1337168D01*
X5503400Y-1337168D02*
X5484353Y-1308597D01*
X5484353Y-1308597D02*
X5474829Y-1289549D01*
X5474829Y-1289549D02*
X5465305Y-1260978D01*
X5465305Y-1260978D02*
X5455781Y-1213359D01*
X5455781Y-1213359D02*
X5455781Y-1175264D01*
X5455781Y-1175264D02*
X5465305Y-1127645D01*
X5465305Y-1127645D02*
X5474829Y-1099073D01*
X5474829Y-1099073D02*
X5484353Y-1080026D01*
X5484353Y-1080026D02*
X5503400Y-1051454D01*
X5503400Y-1051454D02*
X5512924Y-1041930D01*
X5589115Y-1137168D02*
X5589115Y-1270502D01*
X5589115Y-1156216D02*
X5598638Y-1146692D01*
X5598638Y-1146692D02*
X5617686Y-1137168D01*
X5617686Y-1137168D02*
X5646257Y-1137168D01*
X5646257Y-1137168D02*
X5665305Y-1146692D01*
X5665305Y-1146692D02*
X5674829Y-1165740D01*
X5674829Y-1165740D02*
X5674829Y-1270502D01*
X5798638Y-1270502D02*
X5779591Y-1260978D01*
X5779591Y-1260978D02*
X5770067Y-1251454D01*
X5770067Y-1251454D02*
X5760543Y-1232407D01*
X5760543Y-1232407D02*
X5760543Y-1175264D01*
X5760543Y-1175264D02*
X5770067Y-1156216D01*
X5770067Y-1156216D02*
X5779591Y-1146692D01*
X5779591Y-1146692D02*
X5798638Y-1137168D01*
X5798638Y-1137168D02*
X5827210Y-1137168D01*
X5827210Y-1137168D02*
X5846257Y-1146692D01*
X5846257Y-1146692D02*
X5855781Y-1156216D01*
X5855781Y-1156216D02*
X5865305Y-1175264D01*
X5865305Y-1175264D02*
X5865305Y-1232407D01*
X5865305Y-1232407D02*
X5855781Y-1251454D01*
X5855781Y-1251454D02*
X5846257Y-1260978D01*
X5846257Y-1260978D02*
X5827210Y-1270502D01*
X5827210Y-1270502D02*
X5798638Y-1270502D01*
X5922448Y-1137168D02*
X5998638Y-1137168D01*
X5951019Y-1070502D02*
X5951019Y-1241930D01*
X5951019Y-1241930D02*
X5960543Y-1260978D01*
X5960543Y-1260978D02*
X5979591Y-1270502D01*
X5979591Y-1270502D02*
X5998638Y-1270502D01*
X6217686Y-1137168D02*
X6217686Y-1337168D01*
X6217686Y-1146692D02*
X6236734Y-1137168D01*
X6236734Y-1137168D02*
X6274829Y-1137168D01*
X6274829Y-1137168D02*
X6293877Y-1146692D01*
X6293877Y-1146692D02*
X6303400Y-1156216D01*
X6303400Y-1156216D02*
X6312924Y-1175264D01*
X6312924Y-1175264D02*
X6312924Y-1232407D01*
X6312924Y-1232407D02*
X6303400Y-1251454D01*
X6303400Y-1251454D02*
X6293877Y-1260978D01*
X6293877Y-1260978D02*
X6274829Y-1270502D01*
X6274829Y-1270502D02*
X6236734Y-1270502D01*
X6236734Y-1270502D02*
X6217686Y-1260978D01*
X6427210Y-1270502D02*
X6408162Y-1260978D01*
X6408162Y-1260978D02*
X6398638Y-1241930D01*
X6398638Y-1241930D02*
X6398638Y-1070502D01*
X6589115Y-1270502D02*
X6589115Y-1165740D01*
X6589115Y-1165740D02*
X6579591Y-1146692D01*
X6579591Y-1146692D02*
X6560543Y-1137168D01*
X6560543Y-1137168D02*
X6522448Y-1137168D01*
X6522448Y-1137168D02*
X6503400Y-1146692D01*
X6589115Y-1260978D02*
X6570067Y-1270502D01*
X6570067Y-1270502D02*
X6522448Y-1270502D01*
X6522448Y-1270502D02*
X6503400Y-1260978D01*
X6503400Y-1260978D02*
X6493877Y-1241930D01*
X6493877Y-1241930D02*
X6493877Y-1222883D01*
X6493877Y-1222883D02*
X6503400Y-1203835D01*
X6503400Y-1203835D02*
X6522448Y-1194311D01*
X6522448Y-1194311D02*
X6570067Y-1194311D01*
X6570067Y-1194311D02*
X6589115Y-1184788D01*
X6655781Y-1137168D02*
X6731972Y-1137168D01*
X6684353Y-1070502D02*
X6684353Y-1241930D01*
X6684353Y-1241930D02*
X6693877Y-1260978D01*
X6693877Y-1260978D02*
X6712924Y-1270502D01*
X6712924Y-1270502D02*
X6731972Y-1270502D01*
X6874829Y-1260978D02*
X6855781Y-1270502D01*
X6855781Y-1270502D02*
X6817686Y-1270502D01*
X6817686Y-1270502D02*
X6798638Y-1260978D01*
X6798638Y-1260978D02*
X6789115Y-1241930D01*
X6789115Y-1241930D02*
X6789115Y-1165740D01*
X6789115Y-1165740D02*
X6798638Y-1146692D01*
X6798638Y-1146692D02*
X6817686Y-1137168D01*
X6817686Y-1137168D02*
X6855781Y-1137168D01*
X6855781Y-1137168D02*
X6874829Y-1146692D01*
X6874829Y-1146692D02*
X6884353Y-1165740D01*
X6884353Y-1165740D02*
X6884353Y-1184788D01*
X6884353Y-1184788D02*
X6789115Y-1203835D01*
X7055781Y-1270502D02*
X7055781Y-1070502D01*
X7055781Y-1260978D02*
X7036734Y-1270502D01*
X7036734Y-1270502D02*
X6998638Y-1270502D01*
X6998638Y-1270502D02*
X6979591Y-1260978D01*
X6979591Y-1260978D02*
X6970067Y-1251454D01*
X6970067Y-1251454D02*
X6960543Y-1232407D01*
X6960543Y-1232407D02*
X6960543Y-1175264D01*
X6960543Y-1175264D02*
X6970067Y-1156216D01*
X6970067Y-1156216D02*
X6979591Y-1146692D01*
X6979591Y-1146692D02*
X6998638Y-1137168D01*
X6998638Y-1137168D02*
X7036734Y-1137168D01*
X7036734Y-1137168D02*
X7055781Y-1146692D01*
X7131972Y-1346692D02*
X7141496Y-1337168D01*
X7141496Y-1337168D02*
X7160543Y-1308597D01*
X7160543Y-1308597D02*
X7170067Y-1289549D01*
X7170067Y-1289549D02*
X7179591Y-1260978D01*
X7179591Y-1260978D02*
X7189115Y-1213359D01*
X7189115Y-1213359D02*
X7189115Y-1175264D01*
X7189115Y-1175264D02*
X7179591Y-1127645D01*
X7179591Y-1127645D02*
X7170067Y-1099073D01*
X7170067Y-1099073D02*
X7160543Y-1080026D01*
X7160543Y-1080026D02*
X7141496Y-1051454D01*
X7141496Y-1051454D02*
X7131972Y-1041930D01*
X-34285Y-1544729D02*
X-34285Y-1403307D01*
X-175707Y-1403307D01*
X-175707Y-1544729D01*
X-34285Y-1544729D01*
X236733Y-1365502D02*
X360543Y-1365502D01*
X360543Y-1365502D02*
X293876Y-1441692D01*
X293876Y-1441692D02*
X322448Y-1441692D01*
X322448Y-1441692D02*
X341495Y-1451216D01*
X341495Y-1451216D02*
X351019Y-1460740D01*
X351019Y-1460740D02*
X360543Y-1479787D01*
X360543Y-1479787D02*
X360543Y-1527406D01*
X360543Y-1527406D02*
X351019Y-1546454D01*
X351019Y-1546454D02*
X341495Y-1555978D01*
X341495Y-1555978D02*
X322448Y-1565502D01*
X322448Y-1565502D02*
X265305Y-1565502D01*
X265305Y-1565502D02*
X246257Y-1555978D01*
X246257Y-1555978D02*
X236733Y-1546454D01*
X446257Y-1546454D02*
X455781Y-1555978D01*
X455781Y-1555978D02*
X446257Y-1565502D01*
X446257Y-1565502D02*
X436733Y-1555978D01*
X436733Y-1555978D02*
X446257Y-1546454D01*
X446257Y-1546454D02*
X446257Y-1565502D01*
X551019Y-1565502D02*
X589114Y-1565502D01*
X589114Y-1565502D02*
X608162Y-1555978D01*
X608162Y-1555978D02*
X617686Y-1546454D01*
X617686Y-1546454D02*
X636733Y-1517883D01*
X636733Y-1517883D02*
X646257Y-1479787D01*
X646257Y-1479787D02*
X646257Y-1403597D01*
X646257Y-1403597D02*
X636733Y-1384549D01*
X636733Y-1384549D02*
X627209Y-1375026D01*
X627209Y-1375026D02*
X608162Y-1365502D01*
X608162Y-1365502D02*
X570067Y-1365502D01*
X570067Y-1365502D02*
X551019Y-1375026D01*
X551019Y-1375026D02*
X541495Y-1384549D01*
X541495Y-1384549D02*
X531971Y-1403597D01*
X531971Y-1403597D02*
X531971Y-1451216D01*
X531971Y-1451216D02*
X541495Y-1470264D01*
X541495Y-1470264D02*
X551019Y-1479787D01*
X551019Y-1479787D02*
X570067Y-1489311D01*
X570067Y-1489311D02*
X608162Y-1489311D01*
X608162Y-1489311D02*
X627209Y-1479787D01*
X627209Y-1479787D02*
X636733Y-1470264D01*
X636733Y-1470264D02*
X646257Y-1451216D01*
X760543Y-1451216D02*
X741495Y-1441692D01*
X741495Y-1441692D02*
X731971Y-1432168D01*
X731971Y-1432168D02*
X722447Y-1413121D01*
X722447Y-1413121D02*
X722447Y-1403597D01*
X722447Y-1403597D02*
X731971Y-1384549D01*
X731971Y-1384549D02*
X741495Y-1375026D01*
X741495Y-1375026D02*
X760543Y-1365502D01*
X760543Y-1365502D02*
X798638Y-1365502D01*
X798638Y-1365502D02*
X817686Y-1375026D01*
X817686Y-1375026D02*
X827209Y-1384549D01*
X827209Y-1384549D02*
X836733Y-1403597D01*
X836733Y-1403597D02*
X836733Y-1413121D01*
X836733Y-1413121D02*
X827209Y-1432168D01*
X827209Y-1432168D02*
X817686Y-1441692D01*
X817686Y-1441692D02*
X798638Y-1451216D01*
X798638Y-1451216D02*
X760543Y-1451216D01*
X760543Y-1451216D02*
X741495Y-1460740D01*
X741495Y-1460740D02*
X731971Y-1470264D01*
X731971Y-1470264D02*
X722447Y-1489311D01*
X722447Y-1489311D02*
X722447Y-1527406D01*
X722447Y-1527406D02*
X731971Y-1546454D01*
X731971Y-1546454D02*
X741495Y-1555978D01*
X741495Y-1555978D02*
X760543Y-1565502D01*
X760543Y-1565502D02*
X798638Y-1565502D01*
X798638Y-1565502D02*
X817686Y-1555978D01*
X817686Y-1555978D02*
X827209Y-1546454D01*
X827209Y-1546454D02*
X836733Y-1527406D01*
X836733Y-1527406D02*
X836733Y-1489311D01*
X836733Y-1489311D02*
X827209Y-1470264D01*
X827209Y-1470264D02*
X817686Y-1460740D01*
X817686Y-1460740D02*
X798638Y-1451216D01*
X951019Y-1451216D02*
X931971Y-1441692D01*
X931971Y-1441692D02*
X922447Y-1432168D01*
X922447Y-1432168D02*
X912924Y-1413121D01*
X912924Y-1413121D02*
X912924Y-1403597D01*
X912924Y-1403597D02*
X922447Y-1384549D01*
X922447Y-1384549D02*
X931971Y-1375026D01*
X931971Y-1375026D02*
X951019Y-1365502D01*
X951019Y-1365502D02*
X989114Y-1365502D01*
X989114Y-1365502D02*
X1008162Y-1375026D01*
X1008162Y-1375026D02*
X1017686Y-1384549D01*
X1017686Y-1384549D02*
X1027209Y-1403597D01*
X1027209Y-1403597D02*
X1027209Y-1413121D01*
X1027209Y-1413121D02*
X1017686Y-1432168D01*
X1017686Y-1432168D02*
X1008162Y-1441692D01*
X1008162Y-1441692D02*
X989114Y-1451216D01*
X989114Y-1451216D02*
X951019Y-1451216D01*
X951019Y-1451216D02*
X931971Y-1460740D01*
X931971Y-1460740D02*
X922447Y-1470264D01*
X922447Y-1470264D02*
X912924Y-1489311D01*
X912924Y-1489311D02*
X912924Y-1527406D01*
X912924Y-1527406D02*
X922447Y-1546454D01*
X922447Y-1546454D02*
X931971Y-1555978D01*
X931971Y-1555978D02*
X951019Y-1565502D01*
X951019Y-1565502D02*
X989114Y-1565502D01*
X989114Y-1565502D02*
X1008162Y-1555978D01*
X1008162Y-1555978D02*
X1017686Y-1546454D01*
X1017686Y-1546454D02*
X1027209Y-1527406D01*
X1027209Y-1527406D02*
X1027209Y-1489311D01*
X1027209Y-1489311D02*
X1017686Y-1470264D01*
X1017686Y-1470264D02*
X1008162Y-1460740D01*
X1008162Y-1460740D02*
X989114Y-1451216D01*
X1112924Y-1565502D02*
X1112924Y-1432168D01*
X1112924Y-1451216D02*
X1122448Y-1441692D01*
X1122448Y-1441692D02*
X1141495Y-1432168D01*
X1141495Y-1432168D02*
X1170067Y-1432168D01*
X1170067Y-1432168D02*
X1189114Y-1441692D01*
X1189114Y-1441692D02*
X1198638Y-1460740D01*
X1198638Y-1460740D02*
X1198638Y-1565502D01*
X1198638Y-1460740D02*
X1208162Y-1441692D01*
X1208162Y-1441692D02*
X1227209Y-1432168D01*
X1227209Y-1432168D02*
X1255781Y-1432168D01*
X1255781Y-1432168D02*
X1274829Y-1441692D01*
X1274829Y-1441692D02*
X1284352Y-1460740D01*
X1284352Y-1460740D02*
X1284352Y-1565502D01*
X1379590Y-1565502D02*
X1379590Y-1432168D01*
X1379590Y-1451216D02*
X1389114Y-1441692D01*
X1389114Y-1441692D02*
X1408162Y-1432168D01*
X1408162Y-1432168D02*
X1436733Y-1432168D01*
X1436733Y-1432168D02*
X1455781Y-1441692D01*
X1455781Y-1441692D02*
X1465305Y-1460740D01*
X1465305Y-1460740D02*
X1465305Y-1565502D01*
X1465305Y-1460740D02*
X1474828Y-1441692D01*
X1474828Y-1441692D02*
X1493876Y-1432168D01*
X1493876Y-1432168D02*
X1522447Y-1432168D01*
X1522447Y-1432168D02*
X1541495Y-1441692D01*
X1541495Y-1441692D02*
X1551019Y-1460740D01*
X1551019Y-1460740D02*
X1551019Y-1565502D01*
X1941495Y-1355978D02*
X1770067Y-1613121D01*
X2198638Y-1365502D02*
X2217686Y-1365502D01*
X2217686Y-1365502D02*
X2236733Y-1375026D01*
X2236733Y-1375026D02*
X2246257Y-1384549D01*
X2246257Y-1384549D02*
X2255781Y-1403597D01*
X2255781Y-1403597D02*
X2265305Y-1441692D01*
X2265305Y-1441692D02*
X2265305Y-1489311D01*
X2265305Y-1489311D02*
X2255781Y-1527406D01*
X2255781Y-1527406D02*
X2246257Y-1546454D01*
X2246257Y-1546454D02*
X2236733Y-1555978D01*
X2236733Y-1555978D02*
X2217686Y-1565502D01*
X2217686Y-1565502D02*
X2198638Y-1565502D01*
X2198638Y-1565502D02*
X2179591Y-1555978D01*
X2179591Y-1555978D02*
X2170067Y-1546454D01*
X2170067Y-1546454D02*
X2160543Y-1527406D01*
X2160543Y-1527406D02*
X2151019Y-1489311D01*
X2151019Y-1489311D02*
X2151019Y-1441692D01*
X2151019Y-1441692D02*
X2160543Y-1403597D01*
X2160543Y-1403597D02*
X2170067Y-1384549D01*
X2170067Y-1384549D02*
X2179591Y-1375026D01*
X2179591Y-1375026D02*
X2198638Y-1365502D01*
X2351019Y-1546454D02*
X2360543Y-1555978D01*
X2360543Y-1555978D02*
X2351019Y-1565502D01*
X2351019Y-1565502D02*
X2341495Y-1555978D01*
X2341495Y-1555978D02*
X2351019Y-1546454D01*
X2351019Y-1546454D02*
X2351019Y-1565502D01*
X2551019Y-1565502D02*
X2436733Y-1565502D01*
X2493876Y-1565502D02*
X2493876Y-1365502D01*
X2493876Y-1365502D02*
X2474829Y-1394073D01*
X2474829Y-1394073D02*
X2455781Y-1413121D01*
X2455781Y-1413121D02*
X2436733Y-1422645D01*
X2731972Y-1365502D02*
X2636733Y-1365502D01*
X2636733Y-1365502D02*
X2627210Y-1460740D01*
X2627210Y-1460740D02*
X2636733Y-1451216D01*
X2636733Y-1451216D02*
X2655781Y-1441692D01*
X2655781Y-1441692D02*
X2703400Y-1441692D01*
X2703400Y-1441692D02*
X2722448Y-1451216D01*
X2722448Y-1451216D02*
X2731972Y-1460740D01*
X2731972Y-1460740D02*
X2741495Y-1479787D01*
X2741495Y-1479787D02*
X2741495Y-1527406D01*
X2741495Y-1527406D02*
X2731972Y-1546454D01*
X2731972Y-1546454D02*
X2722448Y-1555978D01*
X2722448Y-1555978D02*
X2703400Y-1565502D01*
X2703400Y-1565502D02*
X2655781Y-1565502D01*
X2655781Y-1565502D02*
X2636733Y-1555978D01*
X2636733Y-1555978D02*
X2627210Y-1546454D01*
X2808162Y-1365502D02*
X2941495Y-1365502D01*
X2941495Y-1365502D02*
X2855781Y-1565502D01*
X3055781Y-1365502D02*
X3074829Y-1365502D01*
X3074829Y-1365502D02*
X3093876Y-1375026D01*
X3093876Y-1375026D02*
X3103400Y-1384549D01*
X3103400Y-1384549D02*
X3112924Y-1403597D01*
X3112924Y-1403597D02*
X3122448Y-1441692D01*
X3122448Y-1441692D02*
X3122448Y-1489311D01*
X3122448Y-1489311D02*
X3112924Y-1527406D01*
X3112924Y-1527406D02*
X3103400Y-1546454D01*
X3103400Y-1546454D02*
X3093876Y-1555978D01*
X3093876Y-1555978D02*
X3074829Y-1565502D01*
X3074829Y-1565502D02*
X3055781Y-1565502D01*
X3055781Y-1565502D02*
X3036733Y-1555978D01*
X3036733Y-1555978D02*
X3027210Y-1546454D01*
X3027210Y-1546454D02*
X3017686Y-1527406D01*
X3017686Y-1527406D02*
X3008162Y-1489311D01*
X3008162Y-1489311D02*
X3008162Y-1441692D01*
X3008162Y-1441692D02*
X3017686Y-1403597D01*
X3017686Y-1403597D02*
X3027210Y-1384549D01*
X3027210Y-1384549D02*
X3036733Y-1375026D01*
X3036733Y-1375026D02*
X3055781Y-1365502D01*
X3198638Y-1365502D02*
X3198638Y-1403597D01*
X3274829Y-1365502D02*
X3274829Y-1403597D01*
X3570067Y-1641692D02*
X3560543Y-1632168D01*
X3560543Y-1632168D02*
X3541495Y-1603597D01*
X3541495Y-1603597D02*
X3531972Y-1584549D01*
X3531972Y-1584549D02*
X3522448Y-1555978D01*
X3522448Y-1555978D02*
X3512924Y-1508359D01*
X3512924Y-1508359D02*
X3512924Y-1470264D01*
X3512924Y-1470264D02*
X3522448Y-1422645D01*
X3522448Y-1422645D02*
X3531972Y-1394073D01*
X3531972Y-1394073D02*
X3541495Y-1375026D01*
X3541495Y-1375026D02*
X3560543Y-1346454D01*
X3560543Y-1346454D02*
X3570067Y-1336930D01*
X3731972Y-1365502D02*
X3693876Y-1365502D01*
X3693876Y-1365502D02*
X3674829Y-1375026D01*
X3674829Y-1375026D02*
X3665305Y-1384549D01*
X3665305Y-1384549D02*
X3646257Y-1413121D01*
X3646257Y-1413121D02*
X3636733Y-1451216D01*
X3636733Y-1451216D02*
X3636733Y-1527406D01*
X3636733Y-1527406D02*
X3646257Y-1546454D01*
X3646257Y-1546454D02*
X3655781Y-1555978D01*
X3655781Y-1555978D02*
X3674829Y-1565502D01*
X3674829Y-1565502D02*
X3712924Y-1565502D01*
X3712924Y-1565502D02*
X3731972Y-1555978D01*
X3731972Y-1555978D02*
X3741495Y-1546454D01*
X3741495Y-1546454D02*
X3751019Y-1527406D01*
X3751019Y-1527406D02*
X3751019Y-1479787D01*
X3751019Y-1479787D02*
X3741495Y-1460740D01*
X3741495Y-1460740D02*
X3731972Y-1451216D01*
X3731972Y-1451216D02*
X3712924Y-1441692D01*
X3712924Y-1441692D02*
X3674829Y-1441692D01*
X3674829Y-1441692D02*
X3655781Y-1451216D01*
X3655781Y-1451216D02*
X3646257Y-1460740D01*
X3646257Y-1460740D02*
X3636733Y-1479787D01*
X3874829Y-1365502D02*
X3893876Y-1365502D01*
X3893876Y-1365502D02*
X3912924Y-1375026D01*
X3912924Y-1375026D02*
X3922448Y-1384549D01*
X3922448Y-1384549D02*
X3931972Y-1403597D01*
X3931972Y-1403597D02*
X3941495Y-1441692D01*
X3941495Y-1441692D02*
X3941495Y-1489311D01*
X3941495Y-1489311D02*
X3931972Y-1527406D01*
X3931972Y-1527406D02*
X3922448Y-1546454D01*
X3922448Y-1546454D02*
X3912924Y-1555978D01*
X3912924Y-1555978D02*
X3893876Y-1565502D01*
X3893876Y-1565502D02*
X3874829Y-1565502D01*
X3874829Y-1565502D02*
X3855781Y-1555978D01*
X3855781Y-1555978D02*
X3846257Y-1546454D01*
X3846257Y-1546454D02*
X3836733Y-1527406D01*
X3836733Y-1527406D02*
X3827210Y-1489311D01*
X3827210Y-1489311D02*
X3827210Y-1441692D01*
X3827210Y-1441692D02*
X3836733Y-1403597D01*
X3836733Y-1403597D02*
X3846257Y-1384549D01*
X3846257Y-1384549D02*
X3855781Y-1375026D01*
X3855781Y-1375026D02*
X3874829Y-1365502D01*
X4179591Y-1565502D02*
X4179591Y-1365502D01*
X4265305Y-1565502D02*
X4265305Y-1460740D01*
X4265305Y-1460740D02*
X4255781Y-1441692D01*
X4255781Y-1441692D02*
X4236734Y-1432168D01*
X4236734Y-1432168D02*
X4208162Y-1432168D01*
X4208162Y-1432168D02*
X4189114Y-1441692D01*
X4189114Y-1441692D02*
X4179591Y-1451216D01*
X4389115Y-1565502D02*
X4370067Y-1555978D01*
X4370067Y-1555978D02*
X4360543Y-1546454D01*
X4360543Y-1546454D02*
X4351019Y-1527406D01*
X4351019Y-1527406D02*
X4351019Y-1470264D01*
X4351019Y-1470264D02*
X4360543Y-1451216D01*
X4360543Y-1451216D02*
X4370067Y-1441692D01*
X4370067Y-1441692D02*
X4389115Y-1432168D01*
X4389115Y-1432168D02*
X4417686Y-1432168D01*
X4417686Y-1432168D02*
X4436734Y-1441692D01*
X4436734Y-1441692D02*
X4446257Y-1451216D01*
X4446257Y-1451216D02*
X4455781Y-1470264D01*
X4455781Y-1470264D02*
X4455781Y-1527406D01*
X4455781Y-1527406D02*
X4446257Y-1546454D01*
X4446257Y-1546454D02*
X4436734Y-1555978D01*
X4436734Y-1555978D02*
X4417686Y-1565502D01*
X4417686Y-1565502D02*
X4389115Y-1565502D01*
X4570067Y-1565502D02*
X4551019Y-1555978D01*
X4551019Y-1555978D02*
X4541496Y-1536930D01*
X4541496Y-1536930D02*
X4541496Y-1365502D01*
X4722448Y-1555978D02*
X4703400Y-1565502D01*
X4703400Y-1565502D02*
X4665305Y-1565502D01*
X4665305Y-1565502D02*
X4646257Y-1555978D01*
X4646257Y-1555978D02*
X4636734Y-1536930D01*
X4636734Y-1536930D02*
X4636734Y-1460740D01*
X4636734Y-1460740D02*
X4646257Y-1441692D01*
X4646257Y-1441692D02*
X4665305Y-1432168D01*
X4665305Y-1432168D02*
X4703400Y-1432168D01*
X4703400Y-1432168D02*
X4722448Y-1441692D01*
X4722448Y-1441692D02*
X4731972Y-1460740D01*
X4731972Y-1460740D02*
X4731972Y-1479787D01*
X4731972Y-1479787D02*
X4636734Y-1498835D01*
X4808162Y-1555978D02*
X4827210Y-1565502D01*
X4827210Y-1565502D02*
X4865305Y-1565502D01*
X4865305Y-1565502D02*
X4884353Y-1555978D01*
X4884353Y-1555978D02*
X4893877Y-1536930D01*
X4893877Y-1536930D02*
X4893877Y-1527406D01*
X4893877Y-1527406D02*
X4884353Y-1508359D01*
X4884353Y-1508359D02*
X4865305Y-1498835D01*
X4865305Y-1498835D02*
X4836734Y-1498835D01*
X4836734Y-1498835D02*
X4817686Y-1489311D01*
X4817686Y-1489311D02*
X4808162Y-1470264D01*
X4808162Y-1470264D02*
X4808162Y-1460740D01*
X4808162Y-1460740D02*
X4817686Y-1441692D01*
X4817686Y-1441692D02*
X4836734Y-1432168D01*
X4836734Y-1432168D02*
X4865305Y-1432168D01*
X4865305Y-1432168D02*
X4884353Y-1441692D01*
X4960543Y-1641692D02*
X4970067Y-1632168D01*
X4970067Y-1632168D02*
X4989115Y-1603597D01*
X4989115Y-1603597D02*
X4998638Y-1584549D01*
X4998638Y-1584549D02*
X5008162Y-1555978D01*
X5008162Y-1555978D02*
X5017686Y-1508359D01*
X5017686Y-1508359D02*
X5017686Y-1470264D01*
X5017686Y-1470264D02*
X5008162Y-1422645D01*
X5008162Y-1422645D02*
X4998638Y-1394073D01*
X4998638Y-1394073D02*
X4989115Y-1375026D01*
X4989115Y-1375026D02*
X4970067Y-1346454D01*
X4970067Y-1346454D02*
X4960543Y-1336930D01*
X5322448Y-1641692D02*
X5312924Y-1632168D01*
X5312924Y-1632168D02*
X5293877Y-1603597D01*
X5293877Y-1603597D02*
X5284353Y-1584549D01*
X5284353Y-1584549D02*
X5274829Y-1555978D01*
X5274829Y-1555978D02*
X5265305Y-1508359D01*
X5265305Y-1508359D02*
X5265305Y-1470264D01*
X5265305Y-1470264D02*
X5274829Y-1422645D01*
X5274829Y-1422645D02*
X5284353Y-1394073D01*
X5284353Y-1394073D02*
X5293877Y-1375026D01*
X5293877Y-1375026D02*
X5312924Y-1346454D01*
X5312924Y-1346454D02*
X5322448Y-1336930D01*
X5398638Y-1432168D02*
X5398638Y-1565502D01*
X5398638Y-1451216D02*
X5408162Y-1441692D01*
X5408162Y-1441692D02*
X5427210Y-1432168D01*
X5427210Y-1432168D02*
X5455781Y-1432168D01*
X5455781Y-1432168D02*
X5474829Y-1441692D01*
X5474829Y-1441692D02*
X5484353Y-1460740D01*
X5484353Y-1460740D02*
X5484353Y-1565502D01*
X5608162Y-1565502D02*
X5589115Y-1555978D01*
X5589115Y-1555978D02*
X5579591Y-1546454D01*
X5579591Y-1546454D02*
X5570067Y-1527406D01*
X5570067Y-1527406D02*
X5570067Y-1470264D01*
X5570067Y-1470264D02*
X5579591Y-1451216D01*
X5579591Y-1451216D02*
X5589115Y-1441692D01*
X5589115Y-1441692D02*
X5608162Y-1432168D01*
X5608162Y-1432168D02*
X5636734Y-1432168D01*
X5636734Y-1432168D02*
X5655781Y-1441692D01*
X5655781Y-1441692D02*
X5665305Y-1451216D01*
X5665305Y-1451216D02*
X5674829Y-1470264D01*
X5674829Y-1470264D02*
X5674829Y-1527406D01*
X5674829Y-1527406D02*
X5665305Y-1546454D01*
X5665305Y-1546454D02*
X5655781Y-1555978D01*
X5655781Y-1555978D02*
X5636734Y-1565502D01*
X5636734Y-1565502D02*
X5608162Y-1565502D01*
X5731972Y-1432168D02*
X5808162Y-1432168D01*
X5760543Y-1365502D02*
X5760543Y-1536930D01*
X5760543Y-1536930D02*
X5770067Y-1555978D01*
X5770067Y-1555978D02*
X5789115Y-1565502D01*
X5789115Y-1565502D02*
X5808162Y-1565502D01*
X6027210Y-1432168D02*
X6027210Y-1632168D01*
X6027210Y-1441692D02*
X6046257Y-1432168D01*
X6046257Y-1432168D02*
X6084353Y-1432168D01*
X6084353Y-1432168D02*
X6103400Y-1441692D01*
X6103400Y-1441692D02*
X6112924Y-1451216D01*
X6112924Y-1451216D02*
X6122448Y-1470264D01*
X6122448Y-1470264D02*
X6122448Y-1527406D01*
X6122448Y-1527406D02*
X6112924Y-1546454D01*
X6112924Y-1546454D02*
X6103400Y-1555978D01*
X6103400Y-1555978D02*
X6084353Y-1565502D01*
X6084353Y-1565502D02*
X6046257Y-1565502D01*
X6046257Y-1565502D02*
X6027210Y-1555978D01*
X6236734Y-1565502D02*
X6217686Y-1555978D01*
X6217686Y-1555978D02*
X6208162Y-1536930D01*
X6208162Y-1536930D02*
X6208162Y-1365502D01*
X6398638Y-1565502D02*
X6398638Y-1460740D01*
X6398638Y-1460740D02*
X6389115Y-1441692D01*
X6389115Y-1441692D02*
X6370067Y-1432168D01*
X6370067Y-1432168D02*
X6331972Y-1432168D01*
X6331972Y-1432168D02*
X6312924Y-1441692D01*
X6398638Y-1555978D02*
X6379591Y-1565502D01*
X6379591Y-1565502D02*
X6331972Y-1565502D01*
X6331972Y-1565502D02*
X6312924Y-1555978D01*
X6312924Y-1555978D02*
X6303400Y-1536930D01*
X6303400Y-1536930D02*
X6303400Y-1517883D01*
X6303400Y-1517883D02*
X6312924Y-1498835D01*
X6312924Y-1498835D02*
X6331972Y-1489311D01*
X6331972Y-1489311D02*
X6379591Y-1489311D01*
X6379591Y-1489311D02*
X6398638Y-1479787D01*
X6465305Y-1432168D02*
X6541496Y-1432168D01*
X6493877Y-1365502D02*
X6493877Y-1536930D01*
X6493877Y-1536930D02*
X6503400Y-1555978D01*
X6503400Y-1555978D02*
X6522448Y-1565502D01*
X6522448Y-1565502D02*
X6541496Y-1565502D01*
X6684353Y-1555978D02*
X6665305Y-1565502D01*
X6665305Y-1565502D02*
X6627210Y-1565502D01*
X6627210Y-1565502D02*
X6608162Y-1555978D01*
X6608162Y-1555978D02*
X6598638Y-1536930D01*
X6598638Y-1536930D02*
X6598638Y-1460740D01*
X6598638Y-1460740D02*
X6608162Y-1441692D01*
X6608162Y-1441692D02*
X6627210Y-1432168D01*
X6627210Y-1432168D02*
X6665305Y-1432168D01*
X6665305Y-1432168D02*
X6684353Y-1441692D01*
X6684353Y-1441692D02*
X6693877Y-1460740D01*
X6693877Y-1460740D02*
X6693877Y-1479787D01*
X6693877Y-1479787D02*
X6598638Y-1498835D01*
X6865305Y-1565502D02*
X6865305Y-1365502D01*
X6865305Y-1555978D02*
X6846258Y-1565502D01*
X6846258Y-1565502D02*
X6808162Y-1565502D01*
X6808162Y-1565502D02*
X6789115Y-1555978D01*
X6789115Y-1555978D02*
X6779591Y-1546454D01*
X6779591Y-1546454D02*
X6770067Y-1527406D01*
X6770067Y-1527406D02*
X6770067Y-1470264D01*
X6770067Y-1470264D02*
X6779591Y-1451216D01*
X6779591Y-1451216D02*
X6789115Y-1441692D01*
X6789115Y-1441692D02*
X6808162Y-1432168D01*
X6808162Y-1432168D02*
X6846258Y-1432168D01*
X6846258Y-1432168D02*
X6865305Y-1441692D01*
X6941496Y-1641692D02*
X6951019Y-1632168D01*
X6951019Y-1632168D02*
X6970067Y-1603597D01*
X6970067Y-1603597D02*
X6979591Y-1584549D01*
X6979591Y-1584549D02*
X6989115Y-1555978D01*
X6989115Y-1555978D02*
X6998638Y-1508359D01*
X6998638Y-1508359D02*
X6998638Y-1470264D01*
X6998638Y-1470264D02*
X6989115Y-1422645D01*
X6989115Y-1422645D02*
X6979591Y-1394073D01*
X6979591Y-1394073D02*
X6970067Y-1375026D01*
X6970067Y-1375026D02*
X6951019Y-1346454D01*
X6951019Y-1346454D02*
X6941496Y-1336930D01*
M02*
