%TF.GenerationSoftware,KiCad,Pcbnew,7.0.6*%
%TF.CreationDate,2023-09-02T22:40:47-04:00*%
%TF.ProjectId,Vault45_alpha,5661756c-7434-4355-9f61-6c7068612e6b,rev?*%
%TF.SameCoordinates,PX18faf56PY663131a*%
%TF.FileFunction,Drillmap*%
%TF.FilePolarity,Positive*%
%FSLAX45Y45*%
G04 Gerber Fmt 4.5, Leading zero omitted, Abs format (unit mm)*
G04 Created by KiCad (PCBNEW 7.0.6) date 2023-09-02 22:40:47*
%MOMM*%
%LPD*%
G01*
G04 APERTURE LIST*
%ADD10C,0.100000*%
%ADD11C,0.200000*%
%ADD12C,0.065000*%
%ADD13C,0.150000*%
%ADD14C,0.175000*%
%ADD15C,0.304800*%
%ADD16C,0.398780*%
G04 APERTURE END LIST*
D10*
X1905005Y7084209D02*
G75*
G03*
X2172896Y7352101I-1J267892D01*
G01*
X24437644Y1904960D02*
X22532639Y1904960D01*
X20627633Y267864D02*
G75*
G03*
X20895521Y-27I267882J-9D01*
G01*
X2440787Y7619992D02*
G75*
G03*
X2172896Y7352101I0J-267891D01*
G01*
X1369222Y7619992D02*
X327423Y7619992D01*
X20359739Y535753D02*
G75*
G03*
X20091848Y267864I-4J-267888D01*
G01*
X0Y2232383D02*
G75*
G03*
X327427Y1904960I327425J3D01*
G01*
X20895521Y-27D02*
X22056384Y-27D01*
X22532639Y1904960D02*
G75*
G03*
X22383810Y1756131I-4J-148825D01*
G01*
X2708679Y-27D02*
X3869541Y-27D01*
X3869541Y-22D02*
G75*
G03*
X4137432Y267864I4J267887D01*
G01*
X4Y2232383D02*
X4Y7292551D01*
X2381260Y327378D02*
X2381260Y1756131D01*
X1637112Y7352101D02*
G75*
G03*
X1369222Y7619992I-267887J4D01*
G01*
X4673216Y267864D02*
G75*
G03*
X4405324Y535756I-267891J1D01*
G01*
X20627626Y267864D02*
G75*
G03*
X20359739Y535756I-267891J1D01*
G01*
X23395840Y7619991D02*
G75*
G03*
X23127949Y7352101I-5J-267886D01*
G01*
X2232432Y1904960D02*
X327427Y1904960D01*
X22056388Y-40D02*
G75*
G03*
X22383810Y327378I7J327415D01*
G01*
X22592162Y7352101D02*
G75*
G03*
X22324275Y7619992I-267887J4D01*
G01*
X22324233Y7619997D02*
X2440779Y7619997D01*
X1637110Y7352101D02*
G75*
G03*
X1905005Y7084210I267895J4D01*
G01*
X24765064Y7292551D02*
G75*
G03*
X24437644Y7619974I-327419J4D01*
G01*
X24765066Y7292551D02*
X24765066Y2232383D01*
X4941106Y-27D02*
X19823956Y-27D01*
X2381260Y1756131D02*
G75*
G03*
X2232432Y1904960I-148835J-6D01*
G01*
X22383810Y1756131D02*
X22383810Y327378D01*
X24437644Y1904954D02*
G75*
G03*
X24765066Y2232383I-9J327431D01*
G01*
X22860058Y7084211D02*
G75*
G03*
X23127949Y7352101I-3J267894D01*
G01*
X23395840Y7619992D02*
X24437640Y7619992D01*
X19823956Y-27D02*
G75*
G03*
X20091848Y267864I-1J267893D01*
G01*
X22592170Y7352101D02*
G75*
G03*
X22860058Y7084210I267885J-6D01*
G01*
X2381265Y327378D02*
G75*
G03*
X2708683Y-45I327430J7D01*
G01*
X327427Y7619974D02*
G75*
G03*
X4Y7292551I0J-327423D01*
G01*
X4673213Y267864D02*
G75*
G03*
X4941106Y-27I267892J1D01*
G01*
X4405324Y535758D02*
G75*
G03*
X4137432Y267864I1J-267893D01*
G01*
D11*
D12*
X3488503Y7206091D02*
X3553503Y7141091D01*
X3553503Y7206091D02*
X3488503Y7141091D01*
X4066503Y7206091D02*
X4131503Y7141091D01*
X4131503Y7206091D02*
X4066503Y7141091D01*
D13*
X13410000Y2297473D02*
G75*
G03*
X13410000Y2297473I-75000J0D01*
G01*
D11*
X13270000Y2222473D02*
X13400000Y2222473D01*
X13400000Y2222473D02*
G75*
G03*
X13400000Y2372473I0J75000D01*
G01*
X13400000Y2372473D02*
X13270000Y2372473D01*
X13270000Y2372473D02*
G75*
G03*
X13270000Y2222473I0J-75000D01*
G01*
D13*
X13413730Y3417473D02*
G75*
G03*
X13413730Y3417473I-75000J0D01*
G01*
D11*
X13273730Y3342473D02*
X13403730Y3342473D01*
X13403730Y3342473D02*
G75*
G03*
X13403730Y3492473I0J75000D01*
G01*
X13403730Y3492473D02*
X13273730Y3492473D01*
X13273730Y3492473D02*
G75*
G03*
X13273730Y3342473I0J-75000D01*
G01*
D14*
X444500Y6754973D02*
X444500Y6579973D01*
X357000Y6667473D02*
X532000Y6667473D01*
X444500Y4849973D02*
X444500Y4674973D01*
X357000Y4762473D02*
X532000Y4762473D01*
X920747Y2944993D02*
X920747Y2769993D01*
X833247Y2857493D02*
X1008247Y2857493D01*
X1460500Y6754973D02*
X1460500Y6579973D01*
X1373000Y6667473D02*
X1548000Y6667473D01*
X1460500Y4849973D02*
X1460500Y4674973D01*
X1373000Y4762473D02*
X1548000Y4762473D01*
X1936747Y2944993D02*
X1936747Y2769993D01*
X1849247Y2857493D02*
X2024247Y2857493D01*
X2349500Y6754973D02*
X2349500Y6579973D01*
X2262000Y6667473D02*
X2437000Y6667473D01*
X2349500Y4849973D02*
X2349500Y4674973D01*
X2262000Y4762473D02*
X2437000Y4762473D01*
X2825750Y1040000D02*
X2825750Y865000D01*
X2738250Y952500D02*
X2913250Y952500D01*
X3302000Y2944973D02*
X3302000Y2769973D01*
X3214500Y2857473D02*
X3389500Y2857473D01*
X3365500Y6754973D02*
X3365500Y6579973D01*
X3278000Y6667473D02*
X3453000Y6667473D01*
X3365500Y4849973D02*
X3365500Y4674973D01*
X3278000Y4762473D02*
X3453000Y4762473D01*
X3841750Y1040000D02*
X3841750Y865000D01*
X3754250Y952500D02*
X3929250Y952500D01*
X4254500Y6754973D02*
X4254500Y6579973D01*
X4167000Y6667473D02*
X4342000Y6667473D01*
X4254500Y4849973D02*
X4254500Y4674973D01*
X4167000Y4762473D02*
X4342000Y4762473D01*
X4318000Y2944973D02*
X4318000Y2769973D01*
X4230500Y2857473D02*
X4405500Y2857473D01*
X4968875Y1039973D02*
X4968875Y864973D01*
X4881375Y952473D02*
X5056375Y952473D01*
X5207000Y2944973D02*
X5207000Y2769973D01*
X5119500Y2857473D02*
X5294500Y2857473D01*
X5270500Y6754973D02*
X5270500Y6579973D01*
X5183000Y6667473D02*
X5358000Y6667473D01*
X5270500Y4849973D02*
X5270500Y4674973D01*
X5183000Y4762473D02*
X5358000Y4762473D01*
X5984875Y1039973D02*
X5984875Y864973D01*
X5897375Y952473D02*
X6072375Y952473D01*
X6159500Y6754973D02*
X6159500Y6579973D01*
X6072000Y6667473D02*
X6247000Y6667473D01*
X6159500Y4849973D02*
X6159500Y4674973D01*
X6072000Y4762473D02*
X6247000Y4762473D01*
X6223000Y2944973D02*
X6223000Y2769973D01*
X6135500Y2857473D02*
X6310500Y2857473D01*
X7112000Y2944973D02*
X7112000Y2769973D01*
X7024500Y2857473D02*
X7199500Y2857473D01*
X7112000Y1039973D02*
X7112000Y864973D01*
X7024500Y952473D02*
X7199500Y952473D01*
X7175500Y6754973D02*
X7175500Y6579973D01*
X7088000Y6667473D02*
X7263000Y6667473D01*
X7175500Y4849973D02*
X7175500Y4674973D01*
X7088000Y4762473D02*
X7263000Y4762473D01*
X7350125Y1040000D02*
X7350125Y865000D01*
X7262625Y952500D02*
X7437625Y952500D01*
X8064500Y6754973D02*
X8064500Y6579973D01*
X7977000Y6667473D02*
X8152000Y6667473D01*
X8064500Y4849973D02*
X8064500Y4674973D01*
X7977000Y4762473D02*
X8152000Y4762473D01*
X8128000Y2944973D02*
X8128000Y2769973D01*
X8040500Y2857473D02*
X8215500Y2857473D01*
X8128000Y1039973D02*
X8128000Y864973D01*
X8040500Y952473D02*
X8215500Y952473D01*
X8366125Y1040000D02*
X8366125Y865000D01*
X8278625Y952500D02*
X8453625Y952500D01*
X9017000Y2944973D02*
X9017000Y2769973D01*
X8929500Y2857473D02*
X9104500Y2857473D01*
X9017010Y1039992D02*
X9017010Y864992D01*
X8929510Y952492D02*
X9104510Y952492D01*
X9080500Y6754973D02*
X9080500Y6579973D01*
X8993000Y6667473D02*
X9168000Y6667473D01*
X9080500Y4849973D02*
X9080500Y4674973D01*
X8993000Y4762473D02*
X9168000Y4762473D01*
X9969500Y6754973D02*
X9969500Y6579973D01*
X9882000Y6667473D02*
X10057000Y6667473D01*
X9969500Y4849973D02*
X9969500Y4674973D01*
X9882000Y4762473D02*
X10057000Y4762473D01*
X9969500Y1039973D02*
X9969500Y864973D01*
X9882000Y952473D02*
X10057000Y952473D01*
X10033000Y2944973D02*
X10033000Y2769973D01*
X9945500Y2857473D02*
X10120500Y2857473D01*
X10033010Y1039992D02*
X10033010Y864992D01*
X9945510Y952492D02*
X10120510Y952492D01*
X10207625Y1040000D02*
X10207625Y865000D01*
X10120125Y952500D02*
X10295125Y952500D01*
X10922000Y2944973D02*
X10922000Y2769973D01*
X10834500Y2857473D02*
X11009500Y2857473D01*
X10985500Y6754973D02*
X10985500Y6579973D01*
X10898000Y6667473D02*
X11073000Y6667473D01*
X10985500Y4849973D02*
X10985500Y4674973D01*
X10898000Y4762473D02*
X11073000Y4762473D01*
X10985500Y1039973D02*
X10985500Y864973D01*
X10898000Y952473D02*
X11073000Y952473D01*
X11223625Y1040000D02*
X11223625Y865000D01*
X11136125Y952500D02*
X11311125Y952500D01*
X11874513Y1039992D02*
X11874513Y864992D01*
X11787013Y952492D02*
X11962013Y952492D01*
X11938000Y2944973D02*
X11938000Y2769973D01*
X11850500Y2857473D02*
X12025500Y2857473D01*
X12827000Y2944973D02*
X12827000Y2769973D01*
X12739500Y2857473D02*
X12914500Y2857473D01*
X12890513Y1039992D02*
X12890513Y864992D01*
X12803013Y952492D02*
X12978013Y952492D01*
X13541375Y1039973D02*
X13541375Y864973D01*
X13453875Y952473D02*
X13628875Y952473D01*
X13779500Y6754973D02*
X13779500Y6579973D01*
X13692000Y6667473D02*
X13867000Y6667473D01*
X13779500Y4849973D02*
X13779500Y4674973D01*
X13692000Y4762473D02*
X13867000Y4762473D01*
X13779500Y1040000D02*
X13779500Y865000D01*
X13692000Y952500D02*
X13867000Y952500D01*
X13843000Y2944973D02*
X13843000Y2769973D01*
X13755500Y2857473D02*
X13930500Y2857473D01*
X14557375Y1039973D02*
X14557375Y864973D01*
X14469875Y952473D02*
X14644875Y952473D01*
X14732000Y2944973D02*
X14732000Y2769973D01*
X14644500Y2857473D02*
X14819500Y2857473D01*
X14732015Y1039992D02*
X14732015Y864992D01*
X14644515Y952492D02*
X14819515Y952492D01*
X14795500Y6754973D02*
X14795500Y6579973D01*
X14708000Y6667473D02*
X14883000Y6667473D01*
X14795500Y4849973D02*
X14795500Y4674973D01*
X14708000Y4762473D02*
X14883000Y4762473D01*
X14795500Y1040000D02*
X14795500Y865000D01*
X14708000Y952500D02*
X14883000Y952500D01*
X15684500Y6754973D02*
X15684500Y6579973D01*
X15597000Y6667473D02*
X15772000Y6667473D01*
X15684500Y4849973D02*
X15684500Y4674973D01*
X15597000Y4762473D02*
X15772000Y4762473D01*
X15748000Y2944973D02*
X15748000Y2769973D01*
X15660500Y2857473D02*
X15835500Y2857473D01*
X15748015Y1039992D02*
X15748015Y864992D01*
X15660515Y952492D02*
X15835515Y952492D01*
X16398875Y1039992D02*
X16398875Y864992D01*
X16311375Y952492D02*
X16486375Y952492D01*
X16637000Y2944973D02*
X16637000Y2769973D01*
X16549500Y2857473D02*
X16724500Y2857473D01*
X16637017Y1039992D02*
X16637017Y864992D01*
X16549517Y952492D02*
X16724517Y952492D01*
X16700500Y6754973D02*
X16700500Y6579973D01*
X16613000Y6667473D02*
X16788000Y6667473D01*
X16700500Y4849973D02*
X16700500Y4674973D01*
X16613000Y4762473D02*
X16788000Y4762473D01*
X17414875Y1039992D02*
X17414875Y864992D01*
X17327375Y952492D02*
X17502375Y952492D01*
X17589500Y6754973D02*
X17589500Y6579973D01*
X17502000Y6667473D02*
X17677000Y6667473D01*
X17589500Y4849973D02*
X17589500Y4674973D01*
X17502000Y4762473D02*
X17677000Y4762473D01*
X17653000Y2944973D02*
X17653000Y2769973D01*
X17565500Y2857473D02*
X17740500Y2857473D01*
X17653017Y1039992D02*
X17653017Y864992D01*
X17565517Y952492D02*
X17740517Y952492D01*
X18542000Y2944973D02*
X18542000Y2769973D01*
X18454500Y2857473D02*
X18629500Y2857473D01*
X18605500Y6754973D02*
X18605500Y6579973D01*
X18518000Y6667473D02*
X18693000Y6667473D01*
X18605500Y4849973D02*
X18605500Y4674973D01*
X18518000Y4762473D02*
X18693000Y4762473D01*
X18780143Y1039992D02*
X18780143Y864992D01*
X18692643Y952492D02*
X18867643Y952492D01*
X19494500Y6754973D02*
X19494500Y6579973D01*
X19407000Y6667473D02*
X19582000Y6667473D01*
X19494500Y4849973D02*
X19494500Y4674973D01*
X19407000Y4762473D02*
X19582000Y4762473D01*
X19558000Y2944973D02*
X19558000Y2769973D01*
X19470500Y2857473D02*
X19645500Y2857473D01*
X19796143Y1039992D02*
X19796143Y864992D01*
X19708643Y952492D02*
X19883643Y952492D01*
X20447000Y2944973D02*
X20447000Y2769973D01*
X20359500Y2857473D02*
X20534500Y2857473D01*
X20510500Y6754973D02*
X20510500Y6579973D01*
X20423000Y6667473D02*
X20598000Y6667473D01*
X20510500Y4849973D02*
X20510500Y4674973D01*
X20423000Y4762473D02*
X20598000Y4762473D01*
X20923270Y1039992D02*
X20923270Y864992D01*
X20835770Y952492D02*
X21010770Y952492D01*
X21399500Y6754973D02*
X21399500Y6579973D01*
X21312000Y6667473D02*
X21487000Y6667473D01*
X21399500Y4849973D02*
X21399500Y4674973D01*
X21312000Y4762473D02*
X21487000Y4762473D01*
X21463000Y2944973D02*
X21463000Y2769973D01*
X21375500Y2857473D02*
X21550500Y2857473D01*
X21939270Y1039992D02*
X21939270Y864992D01*
X21851770Y952492D02*
X22026770Y952492D01*
X22415500Y6754973D02*
X22415500Y6579973D01*
X22328000Y6667473D02*
X22503000Y6667473D01*
X22415500Y4849973D02*
X22415500Y4674973D01*
X22328000Y4762473D02*
X22503000Y4762473D01*
X22828250Y2944973D02*
X22828250Y2769973D01*
X22740750Y2857473D02*
X22915750Y2857473D01*
X23304500Y6754973D02*
X23304500Y6579973D01*
X23217000Y6667473D02*
X23392000Y6667473D01*
X23304500Y4849973D02*
X23304500Y4674973D01*
X23217000Y4762473D02*
X23392000Y4762473D01*
X23844250Y2944973D02*
X23844250Y2769973D01*
X23756750Y2857473D02*
X23931750Y2857473D01*
X24320500Y6754973D02*
X24320500Y6579973D01*
X24233000Y6667473D02*
X24408000Y6667473D01*
X24320500Y4849973D02*
X24320500Y4674973D01*
X24233000Y4762473D02*
X24408000Y4762473D01*
D15*
X7727774Y146228D02*
X7727774Y361756D01*
X7512246Y361756D01*
X7512246Y146228D01*
X7727774Y146228D01*
X9394639Y146209D02*
X9394639Y361737D01*
X9179111Y361737D01*
X9179111Y146209D01*
X9394639Y146209D01*
X9632777Y146228D02*
X9632777Y361756D01*
X9417249Y361756D01*
X9417249Y146228D01*
X9632777Y146228D01*
X11537774Y146228D02*
X11537774Y361756D01*
X11322246Y361756D01*
X11322246Y146228D01*
X11537774Y146228D01*
X11775889Y146209D02*
X11775889Y361737D01*
X11560361Y361737D01*
X11560361Y146209D01*
X11775889Y146209D01*
X13204639Y146236D02*
X13204639Y361764D01*
X12989111Y361764D01*
X12989111Y146236D01*
X13204639Y146236D01*
X13442779Y146228D02*
X13442779Y361756D01*
X13227251Y361756D01*
X13227251Y146228D01*
X13442779Y146228D01*
X15347777Y146228D02*
X15347777Y361756D01*
X15132248Y361756D01*
X15132248Y146228D01*
X15347777Y146228D01*
X15585889Y146236D02*
X15585889Y361764D01*
X15370361Y361764D01*
X15370361Y146236D01*
X15585889Y146236D01*
X17252779Y146228D02*
X17252779Y361756D01*
X17037251Y361756D01*
X17037251Y146228D01*
X17252779Y146228D01*
D16*
X952500Y6468083D02*
X1151890Y6667473D01*
X952500Y6866863D01*
X753110Y6667473D01*
X952500Y6468083D01*
X952500Y4563083D02*
X1151890Y4762473D01*
X952500Y4961863D01*
X753110Y4762473D01*
X952500Y4563083D01*
X1428747Y2658103D02*
X1628137Y2857493D01*
X1428747Y3056883D01*
X1229357Y2857493D01*
X1428747Y2658103D01*
X2857500Y6468083D02*
X3056890Y6667473D01*
X2857500Y6866863D01*
X2658110Y6667473D01*
X2857500Y6468083D01*
X2857500Y4563083D02*
X3056890Y4762473D01*
X2857500Y4961863D01*
X2658110Y4762473D01*
X2857500Y4563083D01*
X3333750Y753110D02*
X3533140Y952500D01*
X3333750Y1151890D01*
X3134360Y952500D01*
X3333750Y753110D01*
X3810000Y2658083D02*
X4009390Y2857473D01*
X3810000Y3056863D01*
X3610610Y2857473D01*
X3810000Y2658083D01*
X4762500Y6468083D02*
X4961890Y6667473D01*
X4762500Y6866863D01*
X4563110Y6667473D01*
X4762500Y6468083D01*
X4762500Y4563083D02*
X4961890Y4762473D01*
X4762500Y4961863D01*
X4563110Y4762473D01*
X4762500Y4563083D01*
X5476875Y753083D02*
X5676265Y952473D01*
X5476875Y1151863D01*
X5277485Y952473D01*
X5476875Y753083D01*
X5715000Y2658083D02*
X5914390Y2857473D01*
X5715000Y3056863D01*
X5515610Y2857473D01*
X5715000Y2658083D01*
X6667500Y6468083D02*
X6866890Y6667473D01*
X6667500Y6866863D01*
X6468110Y6667473D01*
X6667500Y6468083D01*
X6667500Y4563083D02*
X6866890Y4762473D01*
X6667500Y4961863D01*
X6468110Y4762473D01*
X6667500Y4563083D01*
X7620000Y2658083D02*
X7819390Y2857473D01*
X7620000Y3056863D01*
X7420610Y2857473D01*
X7620000Y2658083D01*
X7620000Y753083D02*
X7819390Y952473D01*
X7620000Y1151863D01*
X7420610Y952473D01*
X7620000Y753083D01*
X7620010Y1578602D02*
X7819400Y1777992D01*
X7620010Y1977382D01*
X7420620Y1777992D01*
X7620010Y1578602D01*
X7858125Y753110D02*
X8057515Y952500D01*
X7858125Y1151890D01*
X7658735Y952500D01*
X7858125Y753110D01*
X8572500Y6468083D02*
X8771890Y6667473D01*
X8572500Y6866863D01*
X8373110Y6667473D01*
X8572500Y6468083D01*
X8572500Y4563083D02*
X8771890Y4762473D01*
X8572500Y4961863D01*
X8373110Y4762473D01*
X8572500Y4563083D01*
X9286875Y1578583D02*
X9486265Y1777973D01*
X9286875Y1977363D01*
X9087485Y1777973D01*
X9286875Y1578583D01*
X9525000Y2658083D02*
X9724390Y2857473D01*
X9525000Y3056863D01*
X9325610Y2857473D01*
X9525000Y2658083D01*
X9525010Y753102D02*
X9724400Y952492D01*
X9525010Y1151882D01*
X9325620Y952492D01*
X9525010Y753102D01*
X9525013Y1578602D02*
X9724403Y1777992D01*
X9525013Y1977382D01*
X9325623Y1777992D01*
X9525013Y1578602D01*
X10477500Y6468083D02*
X10676890Y6667473D01*
X10477500Y6866863D01*
X10278110Y6667473D01*
X10477500Y6468083D01*
X10477500Y4563083D02*
X10676890Y4762473D01*
X10477500Y4961863D01*
X10278110Y4762473D01*
X10477500Y4563083D01*
X10477500Y753083D02*
X10676890Y952473D01*
X10477500Y1151863D01*
X10278110Y952473D01*
X10477500Y753083D01*
X10715625Y753110D02*
X10915015Y952500D01*
X10715625Y1151890D01*
X10516235Y952500D01*
X10715625Y753110D01*
X11430000Y2658083D02*
X11629390Y2857473D01*
X11430000Y3056863D01*
X11230610Y2857473D01*
X11430000Y2658083D01*
X11430010Y1578602D02*
X11629400Y1777992D01*
X11430010Y1977382D01*
X11230620Y1777992D01*
X11430010Y1578602D01*
X11668125Y1578583D02*
X11867515Y1777973D01*
X11668125Y1977363D01*
X11468735Y1777973D01*
X11668125Y1578583D01*
X12382513Y753102D02*
X12581903Y952492D01*
X12382513Y1151882D01*
X12183123Y952492D01*
X12382513Y753102D01*
X13096875Y1578610D02*
X13296265Y1778000D01*
X13096875Y1977390D01*
X12897485Y1778000D01*
X13096875Y1578610D01*
X13335000Y2658083D02*
X13534390Y2857473D01*
X13335000Y3056863D01*
X13135610Y2857473D01*
X13335000Y2658083D01*
X13335015Y1578602D02*
X13534405Y1777992D01*
X13335015Y1977382D01*
X13135625Y1777992D01*
X13335015Y1578602D01*
X14049375Y753083D02*
X14248765Y952473D01*
X14049375Y1151863D01*
X13849985Y952473D01*
X14049375Y753083D01*
X14287500Y6468083D02*
X14486890Y6667473D01*
X14287500Y6866863D01*
X14088110Y6667473D01*
X14287500Y6468083D01*
X14287500Y4563083D02*
X14486890Y4762473D01*
X14287500Y4961863D01*
X14088110Y4762473D01*
X14287500Y4563083D01*
X14287500Y753110D02*
X14486890Y952500D01*
X14287500Y1151890D01*
X14088110Y952500D01*
X14287500Y753110D01*
X15240000Y2658083D02*
X15439390Y2857473D01*
X15240000Y3056863D01*
X15040610Y2857473D01*
X15240000Y2658083D01*
X15240013Y1578602D02*
X15439403Y1777992D01*
X15240013Y1977382D01*
X15040623Y1777992D01*
X15240013Y1578602D01*
X15240015Y753102D02*
X15439405Y952492D01*
X15240015Y1151882D01*
X15040625Y952492D01*
X15240015Y753102D01*
X15478125Y1578610D02*
X15677515Y1778000D01*
X15478125Y1977390D01*
X15278735Y1778000D01*
X15478125Y1578610D01*
X16192500Y6468083D02*
X16391890Y6667473D01*
X16192500Y6866863D01*
X15993110Y6667473D01*
X16192500Y6468083D01*
X16192500Y4563083D02*
X16391890Y4762473D01*
X16192500Y4961863D01*
X15993110Y4762473D01*
X16192500Y4563083D01*
X16906875Y753102D02*
X17106265Y952492D01*
X16906875Y1151882D01*
X16707485Y952492D01*
X16906875Y753102D01*
X17145000Y2658083D02*
X17344390Y2857473D01*
X17145000Y3056863D01*
X16945610Y2857473D01*
X17145000Y2658083D01*
X17145015Y1578602D02*
X17344405Y1777992D01*
X17145015Y1977382D01*
X16945625Y1777992D01*
X17145015Y1578602D01*
X17145017Y753102D02*
X17344407Y952492D01*
X17145017Y1151882D01*
X16945627Y952492D01*
X17145017Y753102D01*
X18097500Y6468083D02*
X18296890Y6667473D01*
X18097500Y6866863D01*
X17898110Y6667473D01*
X18097500Y6468083D01*
X18097500Y4563083D02*
X18296890Y4762473D01*
X18097500Y4961863D01*
X17898110Y4762473D01*
X18097500Y4563083D01*
X19050000Y2658083D02*
X19249390Y2857473D01*
X19050000Y3056863D01*
X18850610Y2857473D01*
X19050000Y2658083D01*
X19288143Y753102D02*
X19487533Y952492D01*
X19288143Y1151882D01*
X19088753Y952492D01*
X19288143Y753102D01*
X20002500Y6468083D02*
X20201890Y6667473D01*
X20002500Y6866863D01*
X19803110Y6667473D01*
X20002500Y6468083D01*
X20002500Y4563083D02*
X20201890Y4762473D01*
X20002500Y4961863D01*
X19803110Y4762473D01*
X20002500Y4563083D01*
X20955000Y2658083D02*
X21154390Y2857473D01*
X20955000Y3056863D01*
X20755610Y2857473D01*
X20955000Y2658083D01*
X21431270Y753102D02*
X21630660Y952492D01*
X21431270Y1151882D01*
X21231880Y952492D01*
X21431270Y753102D01*
X21907500Y6468083D02*
X22106890Y6667473D01*
X21907500Y6866863D01*
X21708110Y6667473D01*
X21907500Y6468083D01*
X21907500Y4563083D02*
X22106890Y4762473D01*
X21907500Y4961863D01*
X21708110Y4762473D01*
X21907500Y4563083D01*
X23336250Y2658083D02*
X23535640Y2857473D01*
X23336250Y3056863D01*
X23136860Y2857473D01*
X23336250Y2658083D01*
X23812500Y6468083D02*
X24011890Y6667473D01*
X23812500Y6866863D01*
X23613110Y6667473D01*
X23812500Y6468083D01*
X23812500Y4563083D02*
X24011890Y4762473D01*
X23812500Y4961863D01*
X23613110Y4762473D01*
X23812500Y4563083D01*
D11*
X255781Y-316529D02*
X255781Y-116529D01*
X255781Y-116529D02*
X303400Y-116529D01*
X303400Y-116529D02*
X331971Y-126053D01*
X331971Y-126053D02*
X351019Y-145100D01*
X351019Y-145100D02*
X360543Y-164148D01*
X360543Y-164148D02*
X370066Y-202243D01*
X370066Y-202243D02*
X370066Y-230814D01*
X370066Y-230814D02*
X360543Y-268910D01*
X360543Y-268910D02*
X351019Y-287957D01*
X351019Y-287957D02*
X331971Y-307005D01*
X331971Y-307005D02*
X303400Y-316529D01*
X303400Y-316529D02*
X255781Y-316529D01*
X455781Y-316529D02*
X455781Y-183195D01*
X455781Y-221291D02*
X465305Y-202243D01*
X465305Y-202243D02*
X474828Y-192719D01*
X474828Y-192719D02*
X493876Y-183195D01*
X493876Y-183195D02*
X512924Y-183195D01*
X579590Y-316529D02*
X579590Y-183195D01*
X579590Y-116529D02*
X570067Y-126053D01*
X570067Y-126053D02*
X579590Y-135576D01*
X579590Y-135576D02*
X589114Y-126053D01*
X589114Y-126053D02*
X579590Y-116529D01*
X579590Y-116529D02*
X579590Y-135576D01*
X703400Y-316529D02*
X684352Y-307005D01*
X684352Y-307005D02*
X674828Y-287957D01*
X674828Y-287957D02*
X674828Y-116529D01*
X808162Y-316529D02*
X789114Y-307005D01*
X789114Y-307005D02*
X779590Y-287957D01*
X779590Y-287957D02*
X779590Y-116529D01*
X1036733Y-316529D02*
X1036733Y-116529D01*
X1036733Y-116529D02*
X1103400Y-259386D01*
X1103400Y-259386D02*
X1170067Y-116529D01*
X1170067Y-116529D02*
X1170067Y-316529D01*
X1351019Y-316529D02*
X1351019Y-211767D01*
X1351019Y-211767D02*
X1341495Y-192719D01*
X1341495Y-192719D02*
X1322448Y-183195D01*
X1322448Y-183195D02*
X1284352Y-183195D01*
X1284352Y-183195D02*
X1265305Y-192719D01*
X1351019Y-307005D02*
X1331971Y-316529D01*
X1331971Y-316529D02*
X1284352Y-316529D01*
X1284352Y-316529D02*
X1265305Y-307005D01*
X1265305Y-307005D02*
X1255781Y-287957D01*
X1255781Y-287957D02*
X1255781Y-268910D01*
X1255781Y-268910D02*
X1265305Y-249862D01*
X1265305Y-249862D02*
X1284352Y-240338D01*
X1284352Y-240338D02*
X1331971Y-240338D01*
X1331971Y-240338D02*
X1351019Y-230814D01*
X1446257Y-183195D02*
X1446257Y-383195D01*
X1446257Y-192719D02*
X1465305Y-183195D01*
X1465305Y-183195D02*
X1503400Y-183195D01*
X1503400Y-183195D02*
X1522447Y-192719D01*
X1522447Y-192719D02*
X1531971Y-202243D01*
X1531971Y-202243D02*
X1541495Y-221291D01*
X1541495Y-221291D02*
X1541495Y-278434D01*
X1541495Y-278434D02*
X1531971Y-297481D01*
X1531971Y-297481D02*
X1522447Y-307005D01*
X1522447Y-307005D02*
X1503400Y-316529D01*
X1503400Y-316529D02*
X1465305Y-316529D01*
X1465305Y-316529D02*
X1446257Y-307005D01*
X1627209Y-297481D02*
X1636733Y-307005D01*
X1636733Y-307005D02*
X1627209Y-316529D01*
X1627209Y-316529D02*
X1617686Y-307005D01*
X1617686Y-307005D02*
X1627209Y-297481D01*
X1627209Y-297481D02*
X1627209Y-316529D01*
X1627209Y-192719D02*
X1636733Y-202243D01*
X1636733Y-202243D02*
X1627209Y-211767D01*
X1627209Y-211767D02*
X1617686Y-202243D01*
X1617686Y-202243D02*
X1627209Y-192719D01*
X1627209Y-192719D02*
X1627209Y-211767D01*
D12*
X-69996Y-612545D02*
X-4996Y-677545D01*
X-4996Y-612545D02*
X-69996Y-677545D01*
D11*
X293876Y-536529D02*
X312924Y-536529D01*
X312924Y-536529D02*
X331971Y-546053D01*
X331971Y-546053D02*
X341495Y-555576D01*
X341495Y-555576D02*
X351019Y-574624D01*
X351019Y-574624D02*
X360543Y-612719D01*
X360543Y-612719D02*
X360543Y-660338D01*
X360543Y-660338D02*
X351019Y-698434D01*
X351019Y-698434D02*
X341495Y-717481D01*
X341495Y-717481D02*
X331971Y-727005D01*
X331971Y-727005D02*
X312924Y-736529D01*
X312924Y-736529D02*
X293876Y-736529D01*
X293876Y-736529D02*
X274828Y-727005D01*
X274828Y-727005D02*
X265305Y-717481D01*
X265305Y-717481D02*
X255781Y-698434D01*
X255781Y-698434D02*
X246257Y-660338D01*
X246257Y-660338D02*
X246257Y-612719D01*
X246257Y-612719D02*
X255781Y-574624D01*
X255781Y-574624D02*
X265305Y-555576D01*
X265305Y-555576D02*
X274828Y-546053D01*
X274828Y-546053D02*
X293876Y-536529D01*
X446257Y-717481D02*
X455781Y-727005D01*
X455781Y-727005D02*
X446257Y-736529D01*
X446257Y-736529D02*
X436733Y-727005D01*
X436733Y-727005D02*
X446257Y-717481D01*
X446257Y-717481D02*
X446257Y-736529D01*
X627209Y-536529D02*
X589114Y-536529D01*
X589114Y-536529D02*
X570067Y-546053D01*
X570067Y-546053D02*
X560543Y-555576D01*
X560543Y-555576D02*
X541495Y-584148D01*
X541495Y-584148D02*
X531971Y-622243D01*
X531971Y-622243D02*
X531971Y-698434D01*
X531971Y-698434D02*
X541495Y-717481D01*
X541495Y-717481D02*
X551019Y-727005D01*
X551019Y-727005D02*
X570067Y-736529D01*
X570067Y-736529D02*
X608162Y-736529D01*
X608162Y-736529D02*
X627209Y-727005D01*
X627209Y-727005D02*
X636733Y-717481D01*
X636733Y-717481D02*
X646257Y-698434D01*
X646257Y-698434D02*
X646257Y-650815D01*
X646257Y-650815D02*
X636733Y-631767D01*
X636733Y-631767D02*
X627209Y-622243D01*
X627209Y-622243D02*
X608162Y-612719D01*
X608162Y-612719D02*
X570067Y-612719D01*
X570067Y-612719D02*
X551019Y-622243D01*
X551019Y-622243D02*
X541495Y-631767D01*
X541495Y-631767D02*
X531971Y-650815D01*
X827209Y-536529D02*
X731971Y-536529D01*
X731971Y-536529D02*
X722447Y-631767D01*
X722447Y-631767D02*
X731971Y-622243D01*
X731971Y-622243D02*
X751019Y-612719D01*
X751019Y-612719D02*
X798638Y-612719D01*
X798638Y-612719D02*
X817686Y-622243D01*
X817686Y-622243D02*
X827209Y-631767D01*
X827209Y-631767D02*
X836733Y-650815D01*
X836733Y-650815D02*
X836733Y-698434D01*
X836733Y-698434D02*
X827209Y-717481D01*
X827209Y-717481D02*
X817686Y-727005D01*
X817686Y-727005D02*
X798638Y-736529D01*
X798638Y-736529D02*
X751019Y-736529D01*
X751019Y-736529D02*
X731971Y-727005D01*
X731971Y-727005D02*
X722447Y-717481D01*
X960543Y-536529D02*
X979590Y-536529D01*
X979590Y-536529D02*
X998638Y-546053D01*
X998638Y-546053D02*
X1008162Y-555576D01*
X1008162Y-555576D02*
X1017686Y-574624D01*
X1017686Y-574624D02*
X1027209Y-612719D01*
X1027209Y-612719D02*
X1027209Y-660338D01*
X1027209Y-660338D02*
X1017686Y-698434D01*
X1017686Y-698434D02*
X1008162Y-717481D01*
X1008162Y-717481D02*
X998638Y-727005D01*
X998638Y-727005D02*
X979590Y-736529D01*
X979590Y-736529D02*
X960543Y-736529D01*
X960543Y-736529D02*
X941495Y-727005D01*
X941495Y-727005D02*
X931971Y-717481D01*
X931971Y-717481D02*
X922447Y-698434D01*
X922447Y-698434D02*
X912924Y-660338D01*
X912924Y-660338D02*
X912924Y-612719D01*
X912924Y-612719D02*
X922447Y-574624D01*
X922447Y-574624D02*
X931971Y-555576D01*
X931971Y-555576D02*
X941495Y-546053D01*
X941495Y-546053D02*
X960543Y-536529D01*
X1112924Y-736529D02*
X1112924Y-603195D01*
X1112924Y-622243D02*
X1122448Y-612719D01*
X1122448Y-612719D02*
X1141495Y-603195D01*
X1141495Y-603195D02*
X1170067Y-603195D01*
X1170067Y-603195D02*
X1189114Y-612719D01*
X1189114Y-612719D02*
X1198638Y-631767D01*
X1198638Y-631767D02*
X1198638Y-736529D01*
X1198638Y-631767D02*
X1208162Y-612719D01*
X1208162Y-612719D02*
X1227209Y-603195D01*
X1227209Y-603195D02*
X1255781Y-603195D01*
X1255781Y-603195D02*
X1274829Y-612719D01*
X1274829Y-612719D02*
X1284352Y-631767D01*
X1284352Y-631767D02*
X1284352Y-736529D01*
X1379590Y-736529D02*
X1379590Y-603195D01*
X1379590Y-622243D02*
X1389114Y-612719D01*
X1389114Y-612719D02*
X1408162Y-603195D01*
X1408162Y-603195D02*
X1436733Y-603195D01*
X1436733Y-603195D02*
X1455781Y-612719D01*
X1455781Y-612719D02*
X1465305Y-631767D01*
X1465305Y-631767D02*
X1465305Y-736529D01*
X1465305Y-631767D02*
X1474828Y-612719D01*
X1474828Y-612719D02*
X1493876Y-603195D01*
X1493876Y-603195D02*
X1522447Y-603195D01*
X1522447Y-603195D02*
X1541495Y-612719D01*
X1541495Y-612719D02*
X1551019Y-631767D01*
X1551019Y-631767D02*
X1551019Y-736529D01*
X1941495Y-527005D02*
X1770067Y-784148D01*
X2198638Y-536529D02*
X2217686Y-536529D01*
X2217686Y-536529D02*
X2236733Y-546053D01*
X2236733Y-546053D02*
X2246257Y-555576D01*
X2246257Y-555576D02*
X2255781Y-574624D01*
X2255781Y-574624D02*
X2265305Y-612719D01*
X2265305Y-612719D02*
X2265305Y-660338D01*
X2265305Y-660338D02*
X2255781Y-698434D01*
X2255781Y-698434D02*
X2246257Y-717481D01*
X2246257Y-717481D02*
X2236733Y-727005D01*
X2236733Y-727005D02*
X2217686Y-736529D01*
X2217686Y-736529D02*
X2198638Y-736529D01*
X2198638Y-736529D02*
X2179591Y-727005D01*
X2179591Y-727005D02*
X2170067Y-717481D01*
X2170067Y-717481D02*
X2160543Y-698434D01*
X2160543Y-698434D02*
X2151019Y-660338D01*
X2151019Y-660338D02*
X2151019Y-612719D01*
X2151019Y-612719D02*
X2160543Y-574624D01*
X2160543Y-574624D02*
X2170067Y-555576D01*
X2170067Y-555576D02*
X2179591Y-546053D01*
X2179591Y-546053D02*
X2198638Y-536529D01*
X2351019Y-717481D02*
X2360543Y-727005D01*
X2360543Y-727005D02*
X2351019Y-736529D01*
X2351019Y-736529D02*
X2341495Y-727005D01*
X2341495Y-727005D02*
X2351019Y-717481D01*
X2351019Y-717481D02*
X2351019Y-736529D01*
X2484352Y-536529D02*
X2503400Y-536529D01*
X2503400Y-536529D02*
X2522448Y-546053D01*
X2522448Y-546053D02*
X2531972Y-555576D01*
X2531972Y-555576D02*
X2541495Y-574624D01*
X2541495Y-574624D02*
X2551019Y-612719D01*
X2551019Y-612719D02*
X2551019Y-660338D01*
X2551019Y-660338D02*
X2541495Y-698434D01*
X2541495Y-698434D02*
X2531972Y-717481D01*
X2531972Y-717481D02*
X2522448Y-727005D01*
X2522448Y-727005D02*
X2503400Y-736529D01*
X2503400Y-736529D02*
X2484352Y-736529D01*
X2484352Y-736529D02*
X2465305Y-727005D01*
X2465305Y-727005D02*
X2455781Y-717481D01*
X2455781Y-717481D02*
X2446257Y-698434D01*
X2446257Y-698434D02*
X2436733Y-660338D01*
X2436733Y-660338D02*
X2436733Y-612719D01*
X2436733Y-612719D02*
X2446257Y-574624D01*
X2446257Y-574624D02*
X2455781Y-555576D01*
X2455781Y-555576D02*
X2465305Y-546053D01*
X2465305Y-546053D02*
X2484352Y-536529D01*
X2627210Y-555576D02*
X2636733Y-546053D01*
X2636733Y-546053D02*
X2655781Y-536529D01*
X2655781Y-536529D02*
X2703400Y-536529D01*
X2703400Y-536529D02*
X2722448Y-546053D01*
X2722448Y-546053D02*
X2731972Y-555576D01*
X2731972Y-555576D02*
X2741495Y-574624D01*
X2741495Y-574624D02*
X2741495Y-593672D01*
X2741495Y-593672D02*
X2731972Y-622243D01*
X2731972Y-622243D02*
X2617686Y-736529D01*
X2617686Y-736529D02*
X2741495Y-736529D01*
X2922448Y-536529D02*
X2827210Y-536529D01*
X2827210Y-536529D02*
X2817686Y-631767D01*
X2817686Y-631767D02*
X2827210Y-622243D01*
X2827210Y-622243D02*
X2846257Y-612719D01*
X2846257Y-612719D02*
X2893876Y-612719D01*
X2893876Y-612719D02*
X2912924Y-622243D01*
X2912924Y-622243D02*
X2922448Y-631767D01*
X2922448Y-631767D02*
X2931971Y-650815D01*
X2931971Y-650815D02*
X2931971Y-698434D01*
X2931971Y-698434D02*
X2922448Y-717481D01*
X2922448Y-717481D02*
X2912924Y-727005D01*
X2912924Y-727005D02*
X2893876Y-736529D01*
X2893876Y-736529D02*
X2846257Y-736529D01*
X2846257Y-736529D02*
X2827210Y-727005D01*
X2827210Y-727005D02*
X2817686Y-717481D01*
X3103400Y-536529D02*
X3065305Y-536529D01*
X3065305Y-536529D02*
X3046257Y-546053D01*
X3046257Y-546053D02*
X3036733Y-555576D01*
X3036733Y-555576D02*
X3017686Y-584148D01*
X3017686Y-584148D02*
X3008162Y-622243D01*
X3008162Y-622243D02*
X3008162Y-698434D01*
X3008162Y-698434D02*
X3017686Y-717481D01*
X3017686Y-717481D02*
X3027210Y-727005D01*
X3027210Y-727005D02*
X3046257Y-736529D01*
X3046257Y-736529D02*
X3084352Y-736529D01*
X3084352Y-736529D02*
X3103400Y-727005D01*
X3103400Y-727005D02*
X3112924Y-717481D01*
X3112924Y-717481D02*
X3122448Y-698434D01*
X3122448Y-698434D02*
X3122448Y-650815D01*
X3122448Y-650815D02*
X3112924Y-631767D01*
X3112924Y-631767D02*
X3103400Y-622243D01*
X3103400Y-622243D02*
X3084352Y-612719D01*
X3084352Y-612719D02*
X3046257Y-612719D01*
X3046257Y-612719D02*
X3027210Y-622243D01*
X3027210Y-622243D02*
X3017686Y-631767D01*
X3017686Y-631767D02*
X3008162Y-650815D01*
X3198638Y-536529D02*
X3198638Y-574624D01*
X3274829Y-536529D02*
X3274829Y-574624D01*
X3570067Y-812719D02*
X3560543Y-803195D01*
X3560543Y-803195D02*
X3541495Y-774624D01*
X3541495Y-774624D02*
X3531972Y-755576D01*
X3531972Y-755576D02*
X3522448Y-727005D01*
X3522448Y-727005D02*
X3512924Y-679386D01*
X3512924Y-679386D02*
X3512924Y-641291D01*
X3512924Y-641291D02*
X3522448Y-593672D01*
X3522448Y-593672D02*
X3531972Y-565100D01*
X3531972Y-565100D02*
X3541495Y-546053D01*
X3541495Y-546053D02*
X3560543Y-517481D01*
X3560543Y-517481D02*
X3570067Y-507957D01*
X3636733Y-555576D02*
X3646257Y-546053D01*
X3646257Y-546053D02*
X3665305Y-536529D01*
X3665305Y-536529D02*
X3712924Y-536529D01*
X3712924Y-536529D02*
X3731972Y-546053D01*
X3731972Y-546053D02*
X3741495Y-555576D01*
X3741495Y-555576D02*
X3751019Y-574624D01*
X3751019Y-574624D02*
X3751019Y-593672D01*
X3751019Y-593672D02*
X3741495Y-622243D01*
X3741495Y-622243D02*
X3627210Y-736529D01*
X3627210Y-736529D02*
X3751019Y-736529D01*
X3989114Y-736529D02*
X3989114Y-536529D01*
X4074829Y-736529D02*
X4074829Y-631767D01*
X4074829Y-631767D02*
X4065305Y-612719D01*
X4065305Y-612719D02*
X4046257Y-603195D01*
X4046257Y-603195D02*
X4017686Y-603195D01*
X4017686Y-603195D02*
X3998638Y-612719D01*
X3998638Y-612719D02*
X3989114Y-622243D01*
X4198638Y-736529D02*
X4179591Y-727005D01*
X4179591Y-727005D02*
X4170067Y-717481D01*
X4170067Y-717481D02*
X4160543Y-698434D01*
X4160543Y-698434D02*
X4160543Y-641291D01*
X4160543Y-641291D02*
X4170067Y-622243D01*
X4170067Y-622243D02*
X4179591Y-612719D01*
X4179591Y-612719D02*
X4198638Y-603195D01*
X4198638Y-603195D02*
X4227210Y-603195D01*
X4227210Y-603195D02*
X4246257Y-612719D01*
X4246257Y-612719D02*
X4255781Y-622243D01*
X4255781Y-622243D02*
X4265305Y-641291D01*
X4265305Y-641291D02*
X4265305Y-698434D01*
X4265305Y-698434D02*
X4255781Y-717481D01*
X4255781Y-717481D02*
X4246257Y-727005D01*
X4246257Y-727005D02*
X4227210Y-736529D01*
X4227210Y-736529D02*
X4198638Y-736529D01*
X4379591Y-736529D02*
X4360543Y-727005D01*
X4360543Y-727005D02*
X4351019Y-707957D01*
X4351019Y-707957D02*
X4351019Y-536529D01*
X4531972Y-727005D02*
X4512924Y-736529D01*
X4512924Y-736529D02*
X4474829Y-736529D01*
X4474829Y-736529D02*
X4455781Y-727005D01*
X4455781Y-727005D02*
X4446257Y-707957D01*
X4446257Y-707957D02*
X4446257Y-631767D01*
X4446257Y-631767D02*
X4455781Y-612719D01*
X4455781Y-612719D02*
X4474829Y-603195D01*
X4474829Y-603195D02*
X4512924Y-603195D01*
X4512924Y-603195D02*
X4531972Y-612719D01*
X4531972Y-612719D02*
X4541496Y-631767D01*
X4541496Y-631767D02*
X4541496Y-650815D01*
X4541496Y-650815D02*
X4446257Y-669862D01*
X4617686Y-727005D02*
X4636734Y-736529D01*
X4636734Y-736529D02*
X4674829Y-736529D01*
X4674829Y-736529D02*
X4693877Y-727005D01*
X4693877Y-727005D02*
X4703400Y-707957D01*
X4703400Y-707957D02*
X4703400Y-698434D01*
X4703400Y-698434D02*
X4693877Y-679386D01*
X4693877Y-679386D02*
X4674829Y-669862D01*
X4674829Y-669862D02*
X4646257Y-669862D01*
X4646257Y-669862D02*
X4627210Y-660338D01*
X4627210Y-660338D02*
X4617686Y-641291D01*
X4617686Y-641291D02*
X4617686Y-631767D01*
X4617686Y-631767D02*
X4627210Y-612719D01*
X4627210Y-612719D02*
X4646257Y-603195D01*
X4646257Y-603195D02*
X4674829Y-603195D01*
X4674829Y-603195D02*
X4693877Y-612719D01*
X4770067Y-812719D02*
X4779591Y-803195D01*
X4779591Y-803195D02*
X4798638Y-774624D01*
X4798638Y-774624D02*
X4808162Y-755576D01*
X4808162Y-755576D02*
X4817686Y-727005D01*
X4817686Y-727005D02*
X4827210Y-679386D01*
X4827210Y-679386D02*
X4827210Y-641291D01*
X4827210Y-641291D02*
X4817686Y-593672D01*
X4817686Y-593672D02*
X4808162Y-565100D01*
X4808162Y-565100D02*
X4798638Y-546053D01*
X4798638Y-546053D02*
X4779591Y-517481D01*
X4779591Y-517481D02*
X4770067Y-507957D01*
X5131972Y-812719D02*
X5122448Y-803195D01*
X5122448Y-803195D02*
X5103400Y-774624D01*
X5103400Y-774624D02*
X5093877Y-755576D01*
X5093877Y-755576D02*
X5084353Y-727005D01*
X5084353Y-727005D02*
X5074829Y-679386D01*
X5074829Y-679386D02*
X5074829Y-641291D01*
X5074829Y-641291D02*
X5084353Y-593672D01*
X5084353Y-593672D02*
X5093877Y-565100D01*
X5093877Y-565100D02*
X5103400Y-546053D01*
X5103400Y-546053D02*
X5122448Y-517481D01*
X5122448Y-517481D02*
X5131972Y-507957D01*
X5208162Y-603195D02*
X5208162Y-736529D01*
X5208162Y-622243D02*
X5217686Y-612719D01*
X5217686Y-612719D02*
X5236734Y-603195D01*
X5236734Y-603195D02*
X5265305Y-603195D01*
X5265305Y-603195D02*
X5284353Y-612719D01*
X5284353Y-612719D02*
X5293877Y-631767D01*
X5293877Y-631767D02*
X5293877Y-736529D01*
X5417686Y-736529D02*
X5398638Y-727005D01*
X5398638Y-727005D02*
X5389115Y-717481D01*
X5389115Y-717481D02*
X5379591Y-698434D01*
X5379591Y-698434D02*
X5379591Y-641291D01*
X5379591Y-641291D02*
X5389115Y-622243D01*
X5389115Y-622243D02*
X5398638Y-612719D01*
X5398638Y-612719D02*
X5417686Y-603195D01*
X5417686Y-603195D02*
X5446258Y-603195D01*
X5446258Y-603195D02*
X5465305Y-612719D01*
X5465305Y-612719D02*
X5474829Y-622243D01*
X5474829Y-622243D02*
X5484353Y-641291D01*
X5484353Y-641291D02*
X5484353Y-698434D01*
X5484353Y-698434D02*
X5474829Y-717481D01*
X5474829Y-717481D02*
X5465305Y-727005D01*
X5465305Y-727005D02*
X5446258Y-736529D01*
X5446258Y-736529D02*
X5417686Y-736529D01*
X5541496Y-603195D02*
X5617686Y-603195D01*
X5570067Y-536529D02*
X5570067Y-707957D01*
X5570067Y-707957D02*
X5579591Y-727005D01*
X5579591Y-727005D02*
X5598638Y-736529D01*
X5598638Y-736529D02*
X5617686Y-736529D01*
X5836734Y-603195D02*
X5836734Y-803195D01*
X5836734Y-612719D02*
X5855781Y-603195D01*
X5855781Y-603195D02*
X5893877Y-603195D01*
X5893877Y-603195D02*
X5912924Y-612719D01*
X5912924Y-612719D02*
X5922448Y-622243D01*
X5922448Y-622243D02*
X5931972Y-641291D01*
X5931972Y-641291D02*
X5931972Y-698434D01*
X5931972Y-698434D02*
X5922448Y-717481D01*
X5922448Y-717481D02*
X5912924Y-727005D01*
X5912924Y-727005D02*
X5893877Y-736529D01*
X5893877Y-736529D02*
X5855781Y-736529D01*
X5855781Y-736529D02*
X5836734Y-727005D01*
X6046257Y-736529D02*
X6027210Y-727005D01*
X6027210Y-727005D02*
X6017686Y-707957D01*
X6017686Y-707957D02*
X6017686Y-536529D01*
X6208162Y-736529D02*
X6208162Y-631767D01*
X6208162Y-631767D02*
X6198638Y-612719D01*
X6198638Y-612719D02*
X6179591Y-603195D01*
X6179591Y-603195D02*
X6141496Y-603195D01*
X6141496Y-603195D02*
X6122448Y-612719D01*
X6208162Y-727005D02*
X6189115Y-736529D01*
X6189115Y-736529D02*
X6141496Y-736529D01*
X6141496Y-736529D02*
X6122448Y-727005D01*
X6122448Y-727005D02*
X6112924Y-707957D01*
X6112924Y-707957D02*
X6112924Y-688910D01*
X6112924Y-688910D02*
X6122448Y-669862D01*
X6122448Y-669862D02*
X6141496Y-660338D01*
X6141496Y-660338D02*
X6189115Y-660338D01*
X6189115Y-660338D02*
X6208162Y-650815D01*
X6274829Y-603195D02*
X6351019Y-603195D01*
X6303400Y-536529D02*
X6303400Y-707957D01*
X6303400Y-707957D02*
X6312924Y-727005D01*
X6312924Y-727005D02*
X6331972Y-736529D01*
X6331972Y-736529D02*
X6351019Y-736529D01*
X6493877Y-727005D02*
X6474829Y-736529D01*
X6474829Y-736529D02*
X6436734Y-736529D01*
X6436734Y-736529D02*
X6417686Y-727005D01*
X6417686Y-727005D02*
X6408162Y-707957D01*
X6408162Y-707957D02*
X6408162Y-631767D01*
X6408162Y-631767D02*
X6417686Y-612719D01*
X6417686Y-612719D02*
X6436734Y-603195D01*
X6436734Y-603195D02*
X6474829Y-603195D01*
X6474829Y-603195D02*
X6493877Y-612719D01*
X6493877Y-612719D02*
X6503400Y-631767D01*
X6503400Y-631767D02*
X6503400Y-650815D01*
X6503400Y-650815D02*
X6408162Y-669862D01*
X6674829Y-736529D02*
X6674829Y-536529D01*
X6674829Y-727005D02*
X6655781Y-736529D01*
X6655781Y-736529D02*
X6617686Y-736529D01*
X6617686Y-736529D02*
X6598638Y-727005D01*
X6598638Y-727005D02*
X6589115Y-717481D01*
X6589115Y-717481D02*
X6579591Y-698434D01*
X6579591Y-698434D02*
X6579591Y-641291D01*
X6579591Y-641291D02*
X6589115Y-622243D01*
X6589115Y-622243D02*
X6598638Y-612719D01*
X6598638Y-612719D02*
X6617686Y-603195D01*
X6617686Y-603195D02*
X6655781Y-603195D01*
X6655781Y-603195D02*
X6674829Y-612719D01*
X6751019Y-812719D02*
X6760543Y-803195D01*
X6760543Y-803195D02*
X6779591Y-774624D01*
X6779591Y-774624D02*
X6789115Y-755576D01*
X6789115Y-755576D02*
X6798638Y-727005D01*
X6798638Y-727005D02*
X6808162Y-679386D01*
X6808162Y-679386D02*
X6808162Y-641291D01*
X6808162Y-641291D02*
X6798638Y-593672D01*
X6798638Y-593672D02*
X6789115Y-565100D01*
X6789115Y-565100D02*
X6779591Y-546053D01*
X6779591Y-546053D02*
X6760543Y-517481D01*
X6760543Y-517481D02*
X6751019Y-507957D01*
D13*
X-4996Y-909045D02*
G75*
G03*
X-4996Y-909045I-75000J0D01*
G01*
D11*
X360543Y-1000529D02*
X246257Y-1000529D01*
X303400Y-1000529D02*
X303400Y-800529D01*
X303400Y-800529D02*
X284352Y-829100D01*
X284352Y-829100D02*
X265305Y-848148D01*
X265305Y-848148D02*
X246257Y-857672D01*
X446257Y-981481D02*
X455781Y-991005D01*
X455781Y-991005D02*
X446257Y-1000529D01*
X446257Y-1000529D02*
X436733Y-991005D01*
X436733Y-991005D02*
X446257Y-981481D01*
X446257Y-981481D02*
X446257Y-1000529D01*
X636733Y-800529D02*
X541495Y-800529D01*
X541495Y-800529D02*
X531971Y-895767D01*
X531971Y-895767D02*
X541495Y-886243D01*
X541495Y-886243D02*
X560543Y-876719D01*
X560543Y-876719D02*
X608162Y-876719D01*
X608162Y-876719D02*
X627209Y-886243D01*
X627209Y-886243D02*
X636733Y-895767D01*
X636733Y-895767D02*
X646257Y-914814D01*
X646257Y-914814D02*
X646257Y-962433D01*
X646257Y-962433D02*
X636733Y-981481D01*
X636733Y-981481D02*
X627209Y-991005D01*
X627209Y-991005D02*
X608162Y-1000529D01*
X608162Y-1000529D02*
X560543Y-1000529D01*
X560543Y-1000529D02*
X541495Y-991005D01*
X541495Y-991005D02*
X531971Y-981481D01*
X770066Y-800529D02*
X789114Y-800529D01*
X789114Y-800529D02*
X808162Y-810053D01*
X808162Y-810053D02*
X817686Y-819576D01*
X817686Y-819576D02*
X827209Y-838624D01*
X827209Y-838624D02*
X836733Y-876719D01*
X836733Y-876719D02*
X836733Y-924338D01*
X836733Y-924338D02*
X827209Y-962433D01*
X827209Y-962433D02*
X817686Y-981481D01*
X817686Y-981481D02*
X808162Y-991005D01*
X808162Y-991005D02*
X789114Y-1000529D01*
X789114Y-1000529D02*
X770066Y-1000529D01*
X770066Y-1000529D02*
X751019Y-991005D01*
X751019Y-991005D02*
X741495Y-981481D01*
X741495Y-981481D02*
X731971Y-962433D01*
X731971Y-962433D02*
X722447Y-924338D01*
X722447Y-924338D02*
X722447Y-876719D01*
X722447Y-876719D02*
X731971Y-838624D01*
X731971Y-838624D02*
X741495Y-819576D01*
X741495Y-819576D02*
X751019Y-810053D01*
X751019Y-810053D02*
X770066Y-800529D01*
X960543Y-800529D02*
X979590Y-800529D01*
X979590Y-800529D02*
X998638Y-810053D01*
X998638Y-810053D02*
X1008162Y-819576D01*
X1008162Y-819576D02*
X1017686Y-838624D01*
X1017686Y-838624D02*
X1027209Y-876719D01*
X1027209Y-876719D02*
X1027209Y-924338D01*
X1027209Y-924338D02*
X1017686Y-962433D01*
X1017686Y-962433D02*
X1008162Y-981481D01*
X1008162Y-981481D02*
X998638Y-991005D01*
X998638Y-991005D02*
X979590Y-1000529D01*
X979590Y-1000529D02*
X960543Y-1000529D01*
X960543Y-1000529D02*
X941495Y-991005D01*
X941495Y-991005D02*
X931971Y-981481D01*
X931971Y-981481D02*
X922447Y-962433D01*
X922447Y-962433D02*
X912924Y-924338D01*
X912924Y-924338D02*
X912924Y-876719D01*
X912924Y-876719D02*
X922447Y-838624D01*
X922447Y-838624D02*
X931971Y-819576D01*
X931971Y-819576D02*
X941495Y-810053D01*
X941495Y-810053D02*
X960543Y-800529D01*
X1112924Y-1000529D02*
X1112924Y-867195D01*
X1112924Y-886243D02*
X1122448Y-876719D01*
X1122448Y-876719D02*
X1141495Y-867195D01*
X1141495Y-867195D02*
X1170067Y-867195D01*
X1170067Y-867195D02*
X1189114Y-876719D01*
X1189114Y-876719D02*
X1198638Y-895767D01*
X1198638Y-895767D02*
X1198638Y-1000529D01*
X1198638Y-895767D02*
X1208162Y-876719D01*
X1208162Y-876719D02*
X1227209Y-867195D01*
X1227209Y-867195D02*
X1255781Y-867195D01*
X1255781Y-867195D02*
X1274829Y-876719D01*
X1274829Y-876719D02*
X1284352Y-895767D01*
X1284352Y-895767D02*
X1284352Y-1000529D01*
X1379590Y-1000529D02*
X1379590Y-867195D01*
X1379590Y-886243D02*
X1389114Y-876719D01*
X1389114Y-876719D02*
X1408162Y-867195D01*
X1408162Y-867195D02*
X1436733Y-867195D01*
X1436733Y-867195D02*
X1455781Y-876719D01*
X1455781Y-876719D02*
X1465305Y-895767D01*
X1465305Y-895767D02*
X1465305Y-1000529D01*
X1465305Y-895767D02*
X1474828Y-876719D01*
X1474828Y-876719D02*
X1493876Y-867195D01*
X1493876Y-867195D02*
X1522447Y-867195D01*
X1522447Y-867195D02*
X1541495Y-876719D01*
X1541495Y-876719D02*
X1551019Y-895767D01*
X1551019Y-895767D02*
X1551019Y-1000529D01*
X1941495Y-791005D02*
X1770067Y-1048148D01*
X2198638Y-800529D02*
X2217686Y-800529D01*
X2217686Y-800529D02*
X2236733Y-810053D01*
X2236733Y-810053D02*
X2246257Y-819576D01*
X2246257Y-819576D02*
X2255781Y-838624D01*
X2255781Y-838624D02*
X2265305Y-876719D01*
X2265305Y-876719D02*
X2265305Y-924338D01*
X2265305Y-924338D02*
X2255781Y-962433D01*
X2255781Y-962433D02*
X2246257Y-981481D01*
X2246257Y-981481D02*
X2236733Y-991005D01*
X2236733Y-991005D02*
X2217686Y-1000529D01*
X2217686Y-1000529D02*
X2198638Y-1000529D01*
X2198638Y-1000529D02*
X2179591Y-991005D01*
X2179591Y-991005D02*
X2170067Y-981481D01*
X2170067Y-981481D02*
X2160543Y-962433D01*
X2160543Y-962433D02*
X2151019Y-924338D01*
X2151019Y-924338D02*
X2151019Y-876719D01*
X2151019Y-876719D02*
X2160543Y-838624D01*
X2160543Y-838624D02*
X2170067Y-819576D01*
X2170067Y-819576D02*
X2179591Y-810053D01*
X2179591Y-810053D02*
X2198638Y-800529D01*
X2351019Y-981481D02*
X2360543Y-991005D01*
X2360543Y-991005D02*
X2351019Y-1000529D01*
X2351019Y-1000529D02*
X2341495Y-991005D01*
X2341495Y-991005D02*
X2351019Y-981481D01*
X2351019Y-981481D02*
X2351019Y-1000529D01*
X2484352Y-800529D02*
X2503400Y-800529D01*
X2503400Y-800529D02*
X2522448Y-810053D01*
X2522448Y-810053D02*
X2531972Y-819576D01*
X2531972Y-819576D02*
X2541495Y-838624D01*
X2541495Y-838624D02*
X2551019Y-876719D01*
X2551019Y-876719D02*
X2551019Y-924338D01*
X2551019Y-924338D02*
X2541495Y-962433D01*
X2541495Y-962433D02*
X2531972Y-981481D01*
X2531972Y-981481D02*
X2522448Y-991005D01*
X2522448Y-991005D02*
X2503400Y-1000529D01*
X2503400Y-1000529D02*
X2484352Y-1000529D01*
X2484352Y-1000529D02*
X2465305Y-991005D01*
X2465305Y-991005D02*
X2455781Y-981481D01*
X2455781Y-981481D02*
X2446257Y-962433D01*
X2446257Y-962433D02*
X2436733Y-924338D01*
X2436733Y-924338D02*
X2436733Y-876719D01*
X2436733Y-876719D02*
X2446257Y-838624D01*
X2446257Y-838624D02*
X2455781Y-819576D01*
X2455781Y-819576D02*
X2465305Y-810053D01*
X2465305Y-810053D02*
X2484352Y-800529D01*
X2731972Y-800529D02*
X2636733Y-800529D01*
X2636733Y-800529D02*
X2627210Y-895767D01*
X2627210Y-895767D02*
X2636733Y-886243D01*
X2636733Y-886243D02*
X2655781Y-876719D01*
X2655781Y-876719D02*
X2703400Y-876719D01*
X2703400Y-876719D02*
X2722448Y-886243D01*
X2722448Y-886243D02*
X2731972Y-895767D01*
X2731972Y-895767D02*
X2741495Y-914814D01*
X2741495Y-914814D02*
X2741495Y-962433D01*
X2741495Y-962433D02*
X2731972Y-981481D01*
X2731972Y-981481D02*
X2722448Y-991005D01*
X2722448Y-991005D02*
X2703400Y-1000529D01*
X2703400Y-1000529D02*
X2655781Y-1000529D01*
X2655781Y-1000529D02*
X2636733Y-991005D01*
X2636733Y-991005D02*
X2627210Y-981481D01*
X2836733Y-1000529D02*
X2874829Y-1000529D01*
X2874829Y-1000529D02*
X2893876Y-991005D01*
X2893876Y-991005D02*
X2903400Y-981481D01*
X2903400Y-981481D02*
X2922448Y-952910D01*
X2922448Y-952910D02*
X2931971Y-914814D01*
X2931971Y-914814D02*
X2931971Y-838624D01*
X2931971Y-838624D02*
X2922448Y-819576D01*
X2922448Y-819576D02*
X2912924Y-810053D01*
X2912924Y-810053D02*
X2893876Y-800529D01*
X2893876Y-800529D02*
X2855781Y-800529D01*
X2855781Y-800529D02*
X2836733Y-810053D01*
X2836733Y-810053D02*
X2827210Y-819576D01*
X2827210Y-819576D02*
X2817686Y-838624D01*
X2817686Y-838624D02*
X2817686Y-886243D01*
X2817686Y-886243D02*
X2827210Y-905291D01*
X2827210Y-905291D02*
X2836733Y-914814D01*
X2836733Y-914814D02*
X2855781Y-924338D01*
X2855781Y-924338D02*
X2893876Y-924338D01*
X2893876Y-924338D02*
X2912924Y-914814D01*
X2912924Y-914814D02*
X2922448Y-905291D01*
X2922448Y-905291D02*
X2931971Y-886243D01*
X3122448Y-1000529D02*
X3008162Y-1000529D01*
X3065305Y-1000529D02*
X3065305Y-800529D01*
X3065305Y-800529D02*
X3046257Y-829100D01*
X3046257Y-829100D02*
X3027210Y-848148D01*
X3027210Y-848148D02*
X3008162Y-857672D01*
X3198638Y-800529D02*
X3198638Y-838624D01*
X3274829Y-800529D02*
X3274829Y-838624D01*
X3570067Y-1076719D02*
X3560543Y-1067195D01*
X3560543Y-1067195D02*
X3541495Y-1038624D01*
X3541495Y-1038624D02*
X3531972Y-1019576D01*
X3531972Y-1019576D02*
X3522448Y-991005D01*
X3522448Y-991005D02*
X3512924Y-943386D01*
X3512924Y-943386D02*
X3512924Y-905291D01*
X3512924Y-905291D02*
X3522448Y-857672D01*
X3522448Y-857672D02*
X3531972Y-829100D01*
X3531972Y-829100D02*
X3541495Y-810053D01*
X3541495Y-810053D02*
X3560543Y-781481D01*
X3560543Y-781481D02*
X3570067Y-771957D01*
X3684352Y-800529D02*
X3703400Y-800529D01*
X3703400Y-800529D02*
X3722448Y-810053D01*
X3722448Y-810053D02*
X3731972Y-819576D01*
X3731972Y-819576D02*
X3741495Y-838624D01*
X3741495Y-838624D02*
X3751019Y-876719D01*
X3751019Y-876719D02*
X3751019Y-924338D01*
X3751019Y-924338D02*
X3741495Y-962433D01*
X3741495Y-962433D02*
X3731972Y-981481D01*
X3731972Y-981481D02*
X3722448Y-991005D01*
X3722448Y-991005D02*
X3703400Y-1000529D01*
X3703400Y-1000529D02*
X3684352Y-1000529D01*
X3684352Y-1000529D02*
X3665305Y-991005D01*
X3665305Y-991005D02*
X3655781Y-981481D01*
X3655781Y-981481D02*
X3646257Y-962433D01*
X3646257Y-962433D02*
X3636733Y-924338D01*
X3636733Y-924338D02*
X3636733Y-876719D01*
X3636733Y-876719D02*
X3646257Y-838624D01*
X3646257Y-838624D02*
X3655781Y-819576D01*
X3655781Y-819576D02*
X3665305Y-810053D01*
X3665305Y-810053D02*
X3684352Y-800529D01*
X3989114Y-1000529D02*
X3989114Y-800529D01*
X4074829Y-1000529D02*
X4074829Y-895767D01*
X4074829Y-895767D02*
X4065305Y-876719D01*
X4065305Y-876719D02*
X4046257Y-867195D01*
X4046257Y-867195D02*
X4017686Y-867195D01*
X4017686Y-867195D02*
X3998638Y-876719D01*
X3998638Y-876719D02*
X3989114Y-886243D01*
X4198638Y-1000529D02*
X4179591Y-991005D01*
X4179591Y-991005D02*
X4170067Y-981481D01*
X4170067Y-981481D02*
X4160543Y-962433D01*
X4160543Y-962433D02*
X4160543Y-905291D01*
X4160543Y-905291D02*
X4170067Y-886243D01*
X4170067Y-886243D02*
X4179591Y-876719D01*
X4179591Y-876719D02*
X4198638Y-867195D01*
X4198638Y-867195D02*
X4227210Y-867195D01*
X4227210Y-867195D02*
X4246257Y-876719D01*
X4246257Y-876719D02*
X4255781Y-886243D01*
X4255781Y-886243D02*
X4265305Y-905291D01*
X4265305Y-905291D02*
X4265305Y-962433D01*
X4265305Y-962433D02*
X4255781Y-981481D01*
X4255781Y-981481D02*
X4246257Y-991005D01*
X4246257Y-991005D02*
X4227210Y-1000529D01*
X4227210Y-1000529D02*
X4198638Y-1000529D01*
X4379591Y-1000529D02*
X4360543Y-991005D01*
X4360543Y-991005D02*
X4351019Y-971957D01*
X4351019Y-971957D02*
X4351019Y-800529D01*
X4531972Y-991005D02*
X4512924Y-1000529D01*
X4512924Y-1000529D02*
X4474829Y-1000529D01*
X4474829Y-1000529D02*
X4455781Y-991005D01*
X4455781Y-991005D02*
X4446257Y-971957D01*
X4446257Y-971957D02*
X4446257Y-895767D01*
X4446257Y-895767D02*
X4455781Y-876719D01*
X4455781Y-876719D02*
X4474829Y-867195D01*
X4474829Y-867195D02*
X4512924Y-867195D01*
X4512924Y-867195D02*
X4531972Y-876719D01*
X4531972Y-876719D02*
X4541496Y-895767D01*
X4541496Y-895767D02*
X4541496Y-914814D01*
X4541496Y-914814D02*
X4446257Y-933862D01*
X4617686Y-991005D02*
X4636734Y-1000529D01*
X4636734Y-1000529D02*
X4674829Y-1000529D01*
X4674829Y-1000529D02*
X4693877Y-991005D01*
X4693877Y-991005D02*
X4703400Y-971957D01*
X4703400Y-971957D02*
X4703400Y-962433D01*
X4703400Y-962433D02*
X4693877Y-943386D01*
X4693877Y-943386D02*
X4674829Y-933862D01*
X4674829Y-933862D02*
X4646257Y-933862D01*
X4646257Y-933862D02*
X4627210Y-924338D01*
X4627210Y-924338D02*
X4617686Y-905291D01*
X4617686Y-905291D02*
X4617686Y-895767D01*
X4617686Y-895767D02*
X4627210Y-876719D01*
X4627210Y-876719D02*
X4646257Y-867195D01*
X4646257Y-867195D02*
X4674829Y-867195D01*
X4674829Y-867195D02*
X4693877Y-876719D01*
X4941496Y-924338D02*
X5093877Y-924338D01*
X5017686Y-1000529D02*
X5017686Y-848148D01*
X5331972Y-819576D02*
X5341496Y-810053D01*
X5341496Y-810053D02*
X5360543Y-800529D01*
X5360543Y-800529D02*
X5408162Y-800529D01*
X5408162Y-800529D02*
X5427210Y-810053D01*
X5427210Y-810053D02*
X5436734Y-819576D01*
X5436734Y-819576D02*
X5446258Y-838624D01*
X5446258Y-838624D02*
X5446258Y-857672D01*
X5446258Y-857672D02*
X5436734Y-886243D01*
X5436734Y-886243D02*
X5322448Y-1000529D01*
X5322448Y-1000529D02*
X5446258Y-1000529D01*
X5674829Y-991005D02*
X5693877Y-1000529D01*
X5693877Y-1000529D02*
X5731972Y-1000529D01*
X5731972Y-1000529D02*
X5751019Y-991005D01*
X5751019Y-991005D02*
X5760543Y-971957D01*
X5760543Y-971957D02*
X5760543Y-962433D01*
X5760543Y-962433D02*
X5751019Y-943386D01*
X5751019Y-943386D02*
X5731972Y-933862D01*
X5731972Y-933862D02*
X5703400Y-933862D01*
X5703400Y-933862D02*
X5684353Y-924338D01*
X5684353Y-924338D02*
X5674829Y-905291D01*
X5674829Y-905291D02*
X5674829Y-895767D01*
X5674829Y-895767D02*
X5684353Y-876719D01*
X5684353Y-876719D02*
X5703400Y-867195D01*
X5703400Y-867195D02*
X5731972Y-867195D01*
X5731972Y-867195D02*
X5751019Y-876719D01*
X5874829Y-1000529D02*
X5855781Y-991005D01*
X5855781Y-991005D02*
X5846258Y-971957D01*
X5846258Y-971957D02*
X5846258Y-800529D01*
X5979591Y-1000529D02*
X5960543Y-991005D01*
X5960543Y-991005D02*
X5951019Y-981481D01*
X5951019Y-981481D02*
X5941496Y-962433D01*
X5941496Y-962433D02*
X5941496Y-905291D01*
X5941496Y-905291D02*
X5951019Y-886243D01*
X5951019Y-886243D02*
X5960543Y-876719D01*
X5960543Y-876719D02*
X5979591Y-867195D01*
X5979591Y-867195D02*
X6008162Y-867195D01*
X6008162Y-867195D02*
X6027210Y-876719D01*
X6027210Y-876719D02*
X6036734Y-886243D01*
X6036734Y-886243D02*
X6046258Y-905291D01*
X6046258Y-905291D02*
X6046258Y-962433D01*
X6046258Y-962433D02*
X6036734Y-981481D01*
X6036734Y-981481D02*
X6027210Y-991005D01*
X6027210Y-991005D02*
X6008162Y-1000529D01*
X6008162Y-1000529D02*
X5979591Y-1000529D01*
X6103400Y-867195D02*
X6179591Y-867195D01*
X6131972Y-800529D02*
X6131972Y-971957D01*
X6131972Y-971957D02*
X6141496Y-991005D01*
X6141496Y-991005D02*
X6160543Y-1000529D01*
X6160543Y-1000529D02*
X6179591Y-1000529D01*
X6236734Y-991005D02*
X6255781Y-1000529D01*
X6255781Y-1000529D02*
X6293877Y-1000529D01*
X6293877Y-1000529D02*
X6312924Y-991005D01*
X6312924Y-991005D02*
X6322448Y-971957D01*
X6322448Y-971957D02*
X6322448Y-962433D01*
X6322448Y-962433D02*
X6312924Y-943386D01*
X6312924Y-943386D02*
X6293877Y-933862D01*
X6293877Y-933862D02*
X6265305Y-933862D01*
X6265305Y-933862D02*
X6246258Y-924338D01*
X6246258Y-924338D02*
X6236734Y-905291D01*
X6236734Y-905291D02*
X6236734Y-895767D01*
X6236734Y-895767D02*
X6246258Y-876719D01*
X6246258Y-876719D02*
X6265305Y-867195D01*
X6265305Y-867195D02*
X6293877Y-867195D01*
X6293877Y-867195D02*
X6312924Y-876719D01*
X6389115Y-1076719D02*
X6398639Y-1067195D01*
X6398639Y-1067195D02*
X6417686Y-1038624D01*
X6417686Y-1038624D02*
X6427210Y-1019576D01*
X6427210Y-1019576D02*
X6436734Y-991005D01*
X6436734Y-991005D02*
X6446258Y-943386D01*
X6446258Y-943386D02*
X6446258Y-905291D01*
X6446258Y-905291D02*
X6436734Y-857672D01*
X6436734Y-857672D02*
X6427210Y-829100D01*
X6427210Y-829100D02*
X6417686Y-810053D01*
X6417686Y-810053D02*
X6398639Y-781481D01*
X6398639Y-781481D02*
X6389115Y-771957D01*
X6751020Y-1076719D02*
X6741496Y-1067195D01*
X6741496Y-1067195D02*
X6722448Y-1038624D01*
X6722448Y-1038624D02*
X6712924Y-1019576D01*
X6712924Y-1019576D02*
X6703400Y-991005D01*
X6703400Y-991005D02*
X6693877Y-943386D01*
X6693877Y-943386D02*
X6693877Y-905291D01*
X6693877Y-905291D02*
X6703400Y-857672D01*
X6703400Y-857672D02*
X6712924Y-829100D01*
X6712924Y-829100D02*
X6722448Y-810053D01*
X6722448Y-810053D02*
X6741496Y-781481D01*
X6741496Y-781481D02*
X6751020Y-771957D01*
X6827210Y-867195D02*
X6827210Y-1000529D01*
X6827210Y-886243D02*
X6836734Y-876719D01*
X6836734Y-876719D02*
X6855781Y-867195D01*
X6855781Y-867195D02*
X6884353Y-867195D01*
X6884353Y-867195D02*
X6903400Y-876719D01*
X6903400Y-876719D02*
X6912924Y-895767D01*
X6912924Y-895767D02*
X6912924Y-1000529D01*
X7036734Y-1000529D02*
X7017686Y-991005D01*
X7017686Y-991005D02*
X7008162Y-981481D01*
X7008162Y-981481D02*
X6998639Y-962433D01*
X6998639Y-962433D02*
X6998639Y-905291D01*
X6998639Y-905291D02*
X7008162Y-886243D01*
X7008162Y-886243D02*
X7017686Y-876719D01*
X7017686Y-876719D02*
X7036734Y-867195D01*
X7036734Y-867195D02*
X7065305Y-867195D01*
X7065305Y-867195D02*
X7084353Y-876719D01*
X7084353Y-876719D02*
X7093877Y-886243D01*
X7093877Y-886243D02*
X7103400Y-905291D01*
X7103400Y-905291D02*
X7103400Y-962433D01*
X7103400Y-962433D02*
X7093877Y-981481D01*
X7093877Y-981481D02*
X7084353Y-991005D01*
X7084353Y-991005D02*
X7065305Y-1000529D01*
X7065305Y-1000529D02*
X7036734Y-1000529D01*
X7160543Y-867195D02*
X7236734Y-867195D01*
X7189115Y-800529D02*
X7189115Y-971957D01*
X7189115Y-971957D02*
X7198639Y-991005D01*
X7198639Y-991005D02*
X7217686Y-1000529D01*
X7217686Y-1000529D02*
X7236734Y-1000529D01*
X7455781Y-867195D02*
X7455781Y-1067195D01*
X7455781Y-876719D02*
X7474829Y-867195D01*
X7474829Y-867195D02*
X7512924Y-867195D01*
X7512924Y-867195D02*
X7531972Y-876719D01*
X7531972Y-876719D02*
X7541496Y-886243D01*
X7541496Y-886243D02*
X7551020Y-905291D01*
X7551020Y-905291D02*
X7551020Y-962433D01*
X7551020Y-962433D02*
X7541496Y-981481D01*
X7541496Y-981481D02*
X7531972Y-991005D01*
X7531972Y-991005D02*
X7512924Y-1000529D01*
X7512924Y-1000529D02*
X7474829Y-1000529D01*
X7474829Y-1000529D02*
X7455781Y-991005D01*
X7665305Y-1000529D02*
X7646258Y-991005D01*
X7646258Y-991005D02*
X7636734Y-971957D01*
X7636734Y-971957D02*
X7636734Y-800529D01*
X7827210Y-1000529D02*
X7827210Y-895767D01*
X7827210Y-895767D02*
X7817686Y-876719D01*
X7817686Y-876719D02*
X7798639Y-867195D01*
X7798639Y-867195D02*
X7760543Y-867195D01*
X7760543Y-867195D02*
X7741496Y-876719D01*
X7827210Y-991005D02*
X7808162Y-1000529D01*
X7808162Y-1000529D02*
X7760543Y-1000529D01*
X7760543Y-1000529D02*
X7741496Y-991005D01*
X7741496Y-991005D02*
X7731972Y-971957D01*
X7731972Y-971957D02*
X7731972Y-952910D01*
X7731972Y-952910D02*
X7741496Y-933862D01*
X7741496Y-933862D02*
X7760543Y-924338D01*
X7760543Y-924338D02*
X7808162Y-924338D01*
X7808162Y-924338D02*
X7827210Y-914814D01*
X7893877Y-867195D02*
X7970067Y-867195D01*
X7922448Y-800529D02*
X7922448Y-971957D01*
X7922448Y-971957D02*
X7931972Y-991005D01*
X7931972Y-991005D02*
X7951020Y-1000529D01*
X7951020Y-1000529D02*
X7970067Y-1000529D01*
X8112924Y-991005D02*
X8093877Y-1000529D01*
X8093877Y-1000529D02*
X8055781Y-1000529D01*
X8055781Y-1000529D02*
X8036734Y-991005D01*
X8036734Y-991005D02*
X8027210Y-971957D01*
X8027210Y-971957D02*
X8027210Y-895767D01*
X8027210Y-895767D02*
X8036734Y-876719D01*
X8036734Y-876719D02*
X8055781Y-867195D01*
X8055781Y-867195D02*
X8093877Y-867195D01*
X8093877Y-867195D02*
X8112924Y-876719D01*
X8112924Y-876719D02*
X8122448Y-895767D01*
X8122448Y-895767D02*
X8122448Y-914814D01*
X8122448Y-914814D02*
X8027210Y-933862D01*
X8293877Y-1000529D02*
X8293877Y-800529D01*
X8293877Y-991005D02*
X8274829Y-1000529D01*
X8274829Y-1000529D02*
X8236734Y-1000529D01*
X8236734Y-1000529D02*
X8217686Y-991005D01*
X8217686Y-991005D02*
X8208162Y-981481D01*
X8208162Y-981481D02*
X8198639Y-962433D01*
X8198639Y-962433D02*
X8198639Y-905291D01*
X8198639Y-905291D02*
X8208162Y-886243D01*
X8208162Y-886243D02*
X8217686Y-876719D01*
X8217686Y-876719D02*
X8236734Y-867195D01*
X8236734Y-867195D02*
X8274829Y-867195D01*
X8274829Y-867195D02*
X8293877Y-876719D01*
X8370067Y-1076719D02*
X8379591Y-1067195D01*
X8379591Y-1067195D02*
X8398639Y-1038624D01*
X8398639Y-1038624D02*
X8408163Y-1019576D01*
X8408163Y-1019576D02*
X8417686Y-991005D01*
X8417686Y-991005D02*
X8427210Y-943386D01*
X8427210Y-943386D02*
X8427210Y-905291D01*
X8427210Y-905291D02*
X8417686Y-857672D01*
X8417686Y-857672D02*
X8408163Y-829100D01*
X8408163Y-829100D02*
X8398639Y-810053D01*
X8398639Y-810053D02*
X8379591Y-781481D01*
X8379591Y-781481D02*
X8370067Y-771957D01*
D14*
X-92496Y-1091545D02*
X-92496Y-1266545D01*
X-179996Y-1179045D02*
X-4996Y-1179045D01*
D11*
X360543Y-1270529D02*
X246257Y-1270529D01*
X303400Y-1270529D02*
X303400Y-1070529D01*
X303400Y-1070529D02*
X284352Y-1099100D01*
X284352Y-1099100D02*
X265305Y-1118148D01*
X265305Y-1118148D02*
X246257Y-1127672D01*
X446257Y-1251481D02*
X455781Y-1261005D01*
X455781Y-1261005D02*
X446257Y-1270529D01*
X446257Y-1270529D02*
X436733Y-1261005D01*
X436733Y-1261005D02*
X446257Y-1251481D01*
X446257Y-1251481D02*
X446257Y-1270529D01*
X522447Y-1070529D02*
X655781Y-1070529D01*
X655781Y-1070529D02*
X570067Y-1270529D01*
X827209Y-1070529D02*
X731971Y-1070529D01*
X731971Y-1070529D02*
X722447Y-1165767D01*
X722447Y-1165767D02*
X731971Y-1156243D01*
X731971Y-1156243D02*
X751019Y-1146719D01*
X751019Y-1146719D02*
X798638Y-1146719D01*
X798638Y-1146719D02*
X817686Y-1156243D01*
X817686Y-1156243D02*
X827209Y-1165767D01*
X827209Y-1165767D02*
X836733Y-1184815D01*
X836733Y-1184815D02*
X836733Y-1232434D01*
X836733Y-1232434D02*
X827209Y-1251481D01*
X827209Y-1251481D02*
X817686Y-1261005D01*
X817686Y-1261005D02*
X798638Y-1270529D01*
X798638Y-1270529D02*
X751019Y-1270529D01*
X751019Y-1270529D02*
X731971Y-1261005D01*
X731971Y-1261005D02*
X722447Y-1251481D01*
X960543Y-1070529D02*
X979590Y-1070529D01*
X979590Y-1070529D02*
X998638Y-1080053D01*
X998638Y-1080053D02*
X1008162Y-1089576D01*
X1008162Y-1089576D02*
X1017686Y-1108624D01*
X1017686Y-1108624D02*
X1027209Y-1146719D01*
X1027209Y-1146719D02*
X1027209Y-1194338D01*
X1027209Y-1194338D02*
X1017686Y-1232434D01*
X1017686Y-1232434D02*
X1008162Y-1251481D01*
X1008162Y-1251481D02*
X998638Y-1261005D01*
X998638Y-1261005D02*
X979590Y-1270529D01*
X979590Y-1270529D02*
X960543Y-1270529D01*
X960543Y-1270529D02*
X941495Y-1261005D01*
X941495Y-1261005D02*
X931971Y-1251481D01*
X931971Y-1251481D02*
X922447Y-1232434D01*
X922447Y-1232434D02*
X912924Y-1194338D01*
X912924Y-1194338D02*
X912924Y-1146719D01*
X912924Y-1146719D02*
X922447Y-1108624D01*
X922447Y-1108624D02*
X931971Y-1089576D01*
X931971Y-1089576D02*
X941495Y-1080053D01*
X941495Y-1080053D02*
X960543Y-1070529D01*
X1112924Y-1270529D02*
X1112924Y-1137195D01*
X1112924Y-1156243D02*
X1122448Y-1146719D01*
X1122448Y-1146719D02*
X1141495Y-1137195D01*
X1141495Y-1137195D02*
X1170067Y-1137195D01*
X1170067Y-1137195D02*
X1189114Y-1146719D01*
X1189114Y-1146719D02*
X1198638Y-1165767D01*
X1198638Y-1165767D02*
X1198638Y-1270529D01*
X1198638Y-1165767D02*
X1208162Y-1146719D01*
X1208162Y-1146719D02*
X1227209Y-1137195D01*
X1227209Y-1137195D02*
X1255781Y-1137195D01*
X1255781Y-1137195D02*
X1274829Y-1146719D01*
X1274829Y-1146719D02*
X1284352Y-1165767D01*
X1284352Y-1165767D02*
X1284352Y-1270529D01*
X1379590Y-1270529D02*
X1379590Y-1137195D01*
X1379590Y-1156243D02*
X1389114Y-1146719D01*
X1389114Y-1146719D02*
X1408162Y-1137195D01*
X1408162Y-1137195D02*
X1436733Y-1137195D01*
X1436733Y-1137195D02*
X1455781Y-1146719D01*
X1455781Y-1146719D02*
X1465305Y-1165767D01*
X1465305Y-1165767D02*
X1465305Y-1270529D01*
X1465305Y-1165767D02*
X1474828Y-1146719D01*
X1474828Y-1146719D02*
X1493876Y-1137195D01*
X1493876Y-1137195D02*
X1522447Y-1137195D01*
X1522447Y-1137195D02*
X1541495Y-1146719D01*
X1541495Y-1146719D02*
X1551019Y-1165767D01*
X1551019Y-1165767D02*
X1551019Y-1270529D01*
X1941495Y-1061005D02*
X1770067Y-1318148D01*
X2198638Y-1070529D02*
X2217686Y-1070529D01*
X2217686Y-1070529D02*
X2236733Y-1080053D01*
X2236733Y-1080053D02*
X2246257Y-1089576D01*
X2246257Y-1089576D02*
X2255781Y-1108624D01*
X2255781Y-1108624D02*
X2265305Y-1146719D01*
X2265305Y-1146719D02*
X2265305Y-1194338D01*
X2265305Y-1194338D02*
X2255781Y-1232434D01*
X2255781Y-1232434D02*
X2246257Y-1251481D01*
X2246257Y-1251481D02*
X2236733Y-1261005D01*
X2236733Y-1261005D02*
X2217686Y-1270529D01*
X2217686Y-1270529D02*
X2198638Y-1270529D01*
X2198638Y-1270529D02*
X2179591Y-1261005D01*
X2179591Y-1261005D02*
X2170067Y-1251481D01*
X2170067Y-1251481D02*
X2160543Y-1232434D01*
X2160543Y-1232434D02*
X2151019Y-1194338D01*
X2151019Y-1194338D02*
X2151019Y-1146719D01*
X2151019Y-1146719D02*
X2160543Y-1108624D01*
X2160543Y-1108624D02*
X2170067Y-1089576D01*
X2170067Y-1089576D02*
X2179591Y-1080053D01*
X2179591Y-1080053D02*
X2198638Y-1070529D01*
X2351019Y-1251481D02*
X2360543Y-1261005D01*
X2360543Y-1261005D02*
X2351019Y-1270529D01*
X2351019Y-1270529D02*
X2341495Y-1261005D01*
X2341495Y-1261005D02*
X2351019Y-1251481D01*
X2351019Y-1251481D02*
X2351019Y-1270529D01*
X2484352Y-1070529D02*
X2503400Y-1070529D01*
X2503400Y-1070529D02*
X2522448Y-1080053D01*
X2522448Y-1080053D02*
X2531972Y-1089576D01*
X2531972Y-1089576D02*
X2541495Y-1108624D01*
X2541495Y-1108624D02*
X2551019Y-1146719D01*
X2551019Y-1146719D02*
X2551019Y-1194338D01*
X2551019Y-1194338D02*
X2541495Y-1232434D01*
X2541495Y-1232434D02*
X2531972Y-1251481D01*
X2531972Y-1251481D02*
X2522448Y-1261005D01*
X2522448Y-1261005D02*
X2503400Y-1270529D01*
X2503400Y-1270529D02*
X2484352Y-1270529D01*
X2484352Y-1270529D02*
X2465305Y-1261005D01*
X2465305Y-1261005D02*
X2455781Y-1251481D01*
X2455781Y-1251481D02*
X2446257Y-1232434D01*
X2446257Y-1232434D02*
X2436733Y-1194338D01*
X2436733Y-1194338D02*
X2436733Y-1146719D01*
X2436733Y-1146719D02*
X2446257Y-1108624D01*
X2446257Y-1108624D02*
X2455781Y-1089576D01*
X2455781Y-1089576D02*
X2465305Y-1080053D01*
X2465305Y-1080053D02*
X2484352Y-1070529D01*
X2722448Y-1070529D02*
X2684352Y-1070529D01*
X2684352Y-1070529D02*
X2665305Y-1080053D01*
X2665305Y-1080053D02*
X2655781Y-1089576D01*
X2655781Y-1089576D02*
X2636733Y-1118148D01*
X2636733Y-1118148D02*
X2627210Y-1156243D01*
X2627210Y-1156243D02*
X2627210Y-1232434D01*
X2627210Y-1232434D02*
X2636733Y-1251481D01*
X2636733Y-1251481D02*
X2646257Y-1261005D01*
X2646257Y-1261005D02*
X2665305Y-1270529D01*
X2665305Y-1270529D02*
X2703400Y-1270529D01*
X2703400Y-1270529D02*
X2722448Y-1261005D01*
X2722448Y-1261005D02*
X2731972Y-1251481D01*
X2731972Y-1251481D02*
X2741495Y-1232434D01*
X2741495Y-1232434D02*
X2741495Y-1184815D01*
X2741495Y-1184815D02*
X2731972Y-1165767D01*
X2731972Y-1165767D02*
X2722448Y-1156243D01*
X2722448Y-1156243D02*
X2703400Y-1146719D01*
X2703400Y-1146719D02*
X2665305Y-1146719D01*
X2665305Y-1146719D02*
X2646257Y-1156243D01*
X2646257Y-1156243D02*
X2636733Y-1165767D01*
X2636733Y-1165767D02*
X2627210Y-1184815D01*
X2855781Y-1156243D02*
X2836733Y-1146719D01*
X2836733Y-1146719D02*
X2827210Y-1137195D01*
X2827210Y-1137195D02*
X2817686Y-1118148D01*
X2817686Y-1118148D02*
X2817686Y-1108624D01*
X2817686Y-1108624D02*
X2827210Y-1089576D01*
X2827210Y-1089576D02*
X2836733Y-1080053D01*
X2836733Y-1080053D02*
X2855781Y-1070529D01*
X2855781Y-1070529D02*
X2893876Y-1070529D01*
X2893876Y-1070529D02*
X2912924Y-1080053D01*
X2912924Y-1080053D02*
X2922448Y-1089576D01*
X2922448Y-1089576D02*
X2931971Y-1108624D01*
X2931971Y-1108624D02*
X2931971Y-1118148D01*
X2931971Y-1118148D02*
X2922448Y-1137195D01*
X2922448Y-1137195D02*
X2912924Y-1146719D01*
X2912924Y-1146719D02*
X2893876Y-1156243D01*
X2893876Y-1156243D02*
X2855781Y-1156243D01*
X2855781Y-1156243D02*
X2836733Y-1165767D01*
X2836733Y-1165767D02*
X2827210Y-1175291D01*
X2827210Y-1175291D02*
X2817686Y-1194338D01*
X2817686Y-1194338D02*
X2817686Y-1232434D01*
X2817686Y-1232434D02*
X2827210Y-1251481D01*
X2827210Y-1251481D02*
X2836733Y-1261005D01*
X2836733Y-1261005D02*
X2855781Y-1270529D01*
X2855781Y-1270529D02*
X2893876Y-1270529D01*
X2893876Y-1270529D02*
X2912924Y-1261005D01*
X2912924Y-1261005D02*
X2922448Y-1251481D01*
X2922448Y-1251481D02*
X2931971Y-1232434D01*
X2931971Y-1232434D02*
X2931971Y-1194338D01*
X2931971Y-1194338D02*
X2922448Y-1175291D01*
X2922448Y-1175291D02*
X2912924Y-1165767D01*
X2912924Y-1165767D02*
X2893876Y-1156243D01*
X3027210Y-1270529D02*
X3065305Y-1270529D01*
X3065305Y-1270529D02*
X3084352Y-1261005D01*
X3084352Y-1261005D02*
X3093876Y-1251481D01*
X3093876Y-1251481D02*
X3112924Y-1222910D01*
X3112924Y-1222910D02*
X3122448Y-1184815D01*
X3122448Y-1184815D02*
X3122448Y-1108624D01*
X3122448Y-1108624D02*
X3112924Y-1089576D01*
X3112924Y-1089576D02*
X3103400Y-1080053D01*
X3103400Y-1080053D02*
X3084352Y-1070529D01*
X3084352Y-1070529D02*
X3046257Y-1070529D01*
X3046257Y-1070529D02*
X3027210Y-1080053D01*
X3027210Y-1080053D02*
X3017686Y-1089576D01*
X3017686Y-1089576D02*
X3008162Y-1108624D01*
X3008162Y-1108624D02*
X3008162Y-1156243D01*
X3008162Y-1156243D02*
X3017686Y-1175291D01*
X3017686Y-1175291D02*
X3027210Y-1184815D01*
X3027210Y-1184815D02*
X3046257Y-1194338D01*
X3046257Y-1194338D02*
X3084352Y-1194338D01*
X3084352Y-1194338D02*
X3103400Y-1184815D01*
X3103400Y-1184815D02*
X3112924Y-1175291D01*
X3112924Y-1175291D02*
X3122448Y-1156243D01*
X3198638Y-1070529D02*
X3198638Y-1108624D01*
X3274829Y-1070529D02*
X3274829Y-1108624D01*
X3570067Y-1346719D02*
X3560543Y-1337195D01*
X3560543Y-1337195D02*
X3541495Y-1308624D01*
X3541495Y-1308624D02*
X3531972Y-1289576D01*
X3531972Y-1289576D02*
X3522448Y-1261005D01*
X3522448Y-1261005D02*
X3512924Y-1213386D01*
X3512924Y-1213386D02*
X3512924Y-1175291D01*
X3512924Y-1175291D02*
X3522448Y-1127672D01*
X3522448Y-1127672D02*
X3531972Y-1099100D01*
X3531972Y-1099100D02*
X3541495Y-1080053D01*
X3541495Y-1080053D02*
X3560543Y-1051481D01*
X3560543Y-1051481D02*
X3570067Y-1041957D01*
X3751019Y-1270529D02*
X3636733Y-1270529D01*
X3693876Y-1270529D02*
X3693876Y-1070529D01*
X3693876Y-1070529D02*
X3674829Y-1099100D01*
X3674829Y-1099100D02*
X3655781Y-1118148D01*
X3655781Y-1118148D02*
X3636733Y-1127672D01*
X3874829Y-1070529D02*
X3893876Y-1070529D01*
X3893876Y-1070529D02*
X3912924Y-1080053D01*
X3912924Y-1080053D02*
X3922448Y-1089576D01*
X3922448Y-1089576D02*
X3931972Y-1108624D01*
X3931972Y-1108624D02*
X3941495Y-1146719D01*
X3941495Y-1146719D02*
X3941495Y-1194338D01*
X3941495Y-1194338D02*
X3931972Y-1232434D01*
X3931972Y-1232434D02*
X3922448Y-1251481D01*
X3922448Y-1251481D02*
X3912924Y-1261005D01*
X3912924Y-1261005D02*
X3893876Y-1270529D01*
X3893876Y-1270529D02*
X3874829Y-1270529D01*
X3874829Y-1270529D02*
X3855781Y-1261005D01*
X3855781Y-1261005D02*
X3846257Y-1251481D01*
X3846257Y-1251481D02*
X3836733Y-1232434D01*
X3836733Y-1232434D02*
X3827210Y-1194338D01*
X3827210Y-1194338D02*
X3827210Y-1146719D01*
X3827210Y-1146719D02*
X3836733Y-1108624D01*
X3836733Y-1108624D02*
X3846257Y-1089576D01*
X3846257Y-1089576D02*
X3855781Y-1080053D01*
X3855781Y-1080053D02*
X3874829Y-1070529D01*
X4017686Y-1089576D02*
X4027210Y-1080053D01*
X4027210Y-1080053D02*
X4046257Y-1070529D01*
X4046257Y-1070529D02*
X4093876Y-1070529D01*
X4093876Y-1070529D02*
X4112924Y-1080053D01*
X4112924Y-1080053D02*
X4122448Y-1089576D01*
X4122448Y-1089576D02*
X4131972Y-1108624D01*
X4131972Y-1108624D02*
X4131972Y-1127672D01*
X4131972Y-1127672D02*
X4122448Y-1156243D01*
X4122448Y-1156243D02*
X4008162Y-1270529D01*
X4008162Y-1270529D02*
X4131972Y-1270529D01*
X4370067Y-1270529D02*
X4370067Y-1070529D01*
X4455781Y-1270529D02*
X4455781Y-1165767D01*
X4455781Y-1165767D02*
X4446257Y-1146719D01*
X4446257Y-1146719D02*
X4427210Y-1137195D01*
X4427210Y-1137195D02*
X4398638Y-1137195D01*
X4398638Y-1137195D02*
X4379591Y-1146719D01*
X4379591Y-1146719D02*
X4370067Y-1156243D01*
X4579591Y-1270529D02*
X4560543Y-1261005D01*
X4560543Y-1261005D02*
X4551019Y-1251481D01*
X4551019Y-1251481D02*
X4541496Y-1232434D01*
X4541496Y-1232434D02*
X4541496Y-1175291D01*
X4541496Y-1175291D02*
X4551019Y-1156243D01*
X4551019Y-1156243D02*
X4560543Y-1146719D01*
X4560543Y-1146719D02*
X4579591Y-1137195D01*
X4579591Y-1137195D02*
X4608162Y-1137195D01*
X4608162Y-1137195D02*
X4627210Y-1146719D01*
X4627210Y-1146719D02*
X4636734Y-1156243D01*
X4636734Y-1156243D02*
X4646257Y-1175291D01*
X4646257Y-1175291D02*
X4646257Y-1232434D01*
X4646257Y-1232434D02*
X4636734Y-1251481D01*
X4636734Y-1251481D02*
X4627210Y-1261005D01*
X4627210Y-1261005D02*
X4608162Y-1270529D01*
X4608162Y-1270529D02*
X4579591Y-1270529D01*
X4760543Y-1270529D02*
X4741496Y-1261005D01*
X4741496Y-1261005D02*
X4731972Y-1241957D01*
X4731972Y-1241957D02*
X4731972Y-1070529D01*
X4912924Y-1261005D02*
X4893877Y-1270529D01*
X4893877Y-1270529D02*
X4855781Y-1270529D01*
X4855781Y-1270529D02*
X4836734Y-1261005D01*
X4836734Y-1261005D02*
X4827210Y-1241957D01*
X4827210Y-1241957D02*
X4827210Y-1165767D01*
X4827210Y-1165767D02*
X4836734Y-1146719D01*
X4836734Y-1146719D02*
X4855781Y-1137195D01*
X4855781Y-1137195D02*
X4893877Y-1137195D01*
X4893877Y-1137195D02*
X4912924Y-1146719D01*
X4912924Y-1146719D02*
X4922448Y-1165767D01*
X4922448Y-1165767D02*
X4922448Y-1184815D01*
X4922448Y-1184815D02*
X4827210Y-1203862D01*
X4998638Y-1261005D02*
X5017686Y-1270529D01*
X5017686Y-1270529D02*
X5055781Y-1270529D01*
X5055781Y-1270529D02*
X5074829Y-1261005D01*
X5074829Y-1261005D02*
X5084353Y-1241957D01*
X5084353Y-1241957D02*
X5084353Y-1232434D01*
X5084353Y-1232434D02*
X5074829Y-1213386D01*
X5074829Y-1213386D02*
X5055781Y-1203862D01*
X5055781Y-1203862D02*
X5027210Y-1203862D01*
X5027210Y-1203862D02*
X5008162Y-1194338D01*
X5008162Y-1194338D02*
X4998638Y-1175291D01*
X4998638Y-1175291D02*
X4998638Y-1165767D01*
X4998638Y-1165767D02*
X5008162Y-1146719D01*
X5008162Y-1146719D02*
X5027210Y-1137195D01*
X5027210Y-1137195D02*
X5055781Y-1137195D01*
X5055781Y-1137195D02*
X5074829Y-1146719D01*
X5151019Y-1346719D02*
X5160543Y-1337195D01*
X5160543Y-1337195D02*
X5179591Y-1308624D01*
X5179591Y-1308624D02*
X5189115Y-1289576D01*
X5189115Y-1289576D02*
X5198638Y-1261005D01*
X5198638Y-1261005D02*
X5208162Y-1213386D01*
X5208162Y-1213386D02*
X5208162Y-1175291D01*
X5208162Y-1175291D02*
X5198638Y-1127672D01*
X5198638Y-1127672D02*
X5189115Y-1099100D01*
X5189115Y-1099100D02*
X5179591Y-1080053D01*
X5179591Y-1080053D02*
X5160543Y-1051481D01*
X5160543Y-1051481D02*
X5151019Y-1041957D01*
X5512924Y-1346719D02*
X5503400Y-1337195D01*
X5503400Y-1337195D02*
X5484353Y-1308624D01*
X5484353Y-1308624D02*
X5474829Y-1289576D01*
X5474829Y-1289576D02*
X5465305Y-1261005D01*
X5465305Y-1261005D02*
X5455781Y-1213386D01*
X5455781Y-1213386D02*
X5455781Y-1175291D01*
X5455781Y-1175291D02*
X5465305Y-1127672D01*
X5465305Y-1127672D02*
X5474829Y-1099100D01*
X5474829Y-1099100D02*
X5484353Y-1080053D01*
X5484353Y-1080053D02*
X5503400Y-1051481D01*
X5503400Y-1051481D02*
X5512924Y-1041957D01*
X5589115Y-1137195D02*
X5589115Y-1270529D01*
X5589115Y-1156243D02*
X5598638Y-1146719D01*
X5598638Y-1146719D02*
X5617686Y-1137195D01*
X5617686Y-1137195D02*
X5646257Y-1137195D01*
X5646257Y-1137195D02*
X5665305Y-1146719D01*
X5665305Y-1146719D02*
X5674829Y-1165767D01*
X5674829Y-1165767D02*
X5674829Y-1270529D01*
X5798638Y-1270529D02*
X5779591Y-1261005D01*
X5779591Y-1261005D02*
X5770067Y-1251481D01*
X5770067Y-1251481D02*
X5760543Y-1232434D01*
X5760543Y-1232434D02*
X5760543Y-1175291D01*
X5760543Y-1175291D02*
X5770067Y-1156243D01*
X5770067Y-1156243D02*
X5779591Y-1146719D01*
X5779591Y-1146719D02*
X5798638Y-1137195D01*
X5798638Y-1137195D02*
X5827210Y-1137195D01*
X5827210Y-1137195D02*
X5846257Y-1146719D01*
X5846257Y-1146719D02*
X5855781Y-1156243D01*
X5855781Y-1156243D02*
X5865305Y-1175291D01*
X5865305Y-1175291D02*
X5865305Y-1232434D01*
X5865305Y-1232434D02*
X5855781Y-1251481D01*
X5855781Y-1251481D02*
X5846257Y-1261005D01*
X5846257Y-1261005D02*
X5827210Y-1270529D01*
X5827210Y-1270529D02*
X5798638Y-1270529D01*
X5922448Y-1137195D02*
X5998638Y-1137195D01*
X5951019Y-1070529D02*
X5951019Y-1241957D01*
X5951019Y-1241957D02*
X5960543Y-1261005D01*
X5960543Y-1261005D02*
X5979591Y-1270529D01*
X5979591Y-1270529D02*
X5998638Y-1270529D01*
X6217686Y-1137195D02*
X6217686Y-1337195D01*
X6217686Y-1146719D02*
X6236734Y-1137195D01*
X6236734Y-1137195D02*
X6274829Y-1137195D01*
X6274829Y-1137195D02*
X6293877Y-1146719D01*
X6293877Y-1146719D02*
X6303400Y-1156243D01*
X6303400Y-1156243D02*
X6312924Y-1175291D01*
X6312924Y-1175291D02*
X6312924Y-1232434D01*
X6312924Y-1232434D02*
X6303400Y-1251481D01*
X6303400Y-1251481D02*
X6293877Y-1261005D01*
X6293877Y-1261005D02*
X6274829Y-1270529D01*
X6274829Y-1270529D02*
X6236734Y-1270529D01*
X6236734Y-1270529D02*
X6217686Y-1261005D01*
X6427210Y-1270529D02*
X6408162Y-1261005D01*
X6408162Y-1261005D02*
X6398638Y-1241957D01*
X6398638Y-1241957D02*
X6398638Y-1070529D01*
X6589115Y-1270529D02*
X6589115Y-1165767D01*
X6589115Y-1165767D02*
X6579591Y-1146719D01*
X6579591Y-1146719D02*
X6560543Y-1137195D01*
X6560543Y-1137195D02*
X6522448Y-1137195D01*
X6522448Y-1137195D02*
X6503400Y-1146719D01*
X6589115Y-1261005D02*
X6570067Y-1270529D01*
X6570067Y-1270529D02*
X6522448Y-1270529D01*
X6522448Y-1270529D02*
X6503400Y-1261005D01*
X6503400Y-1261005D02*
X6493877Y-1241957D01*
X6493877Y-1241957D02*
X6493877Y-1222910D01*
X6493877Y-1222910D02*
X6503400Y-1203862D01*
X6503400Y-1203862D02*
X6522448Y-1194338D01*
X6522448Y-1194338D02*
X6570067Y-1194338D01*
X6570067Y-1194338D02*
X6589115Y-1184815D01*
X6655781Y-1137195D02*
X6731972Y-1137195D01*
X6684353Y-1070529D02*
X6684353Y-1241957D01*
X6684353Y-1241957D02*
X6693877Y-1261005D01*
X6693877Y-1261005D02*
X6712924Y-1270529D01*
X6712924Y-1270529D02*
X6731972Y-1270529D01*
X6874829Y-1261005D02*
X6855781Y-1270529D01*
X6855781Y-1270529D02*
X6817686Y-1270529D01*
X6817686Y-1270529D02*
X6798638Y-1261005D01*
X6798638Y-1261005D02*
X6789115Y-1241957D01*
X6789115Y-1241957D02*
X6789115Y-1165767D01*
X6789115Y-1165767D02*
X6798638Y-1146719D01*
X6798638Y-1146719D02*
X6817686Y-1137195D01*
X6817686Y-1137195D02*
X6855781Y-1137195D01*
X6855781Y-1137195D02*
X6874829Y-1146719D01*
X6874829Y-1146719D02*
X6884353Y-1165767D01*
X6884353Y-1165767D02*
X6884353Y-1184815D01*
X6884353Y-1184815D02*
X6789115Y-1203862D01*
X7055781Y-1270529D02*
X7055781Y-1070529D01*
X7055781Y-1261005D02*
X7036734Y-1270529D01*
X7036734Y-1270529D02*
X6998638Y-1270529D01*
X6998638Y-1270529D02*
X6979591Y-1261005D01*
X6979591Y-1261005D02*
X6970067Y-1251481D01*
X6970067Y-1251481D02*
X6960543Y-1232434D01*
X6960543Y-1232434D02*
X6960543Y-1175291D01*
X6960543Y-1175291D02*
X6970067Y-1156243D01*
X6970067Y-1156243D02*
X6979591Y-1146719D01*
X6979591Y-1146719D02*
X6998638Y-1137195D01*
X6998638Y-1137195D02*
X7036734Y-1137195D01*
X7036734Y-1137195D02*
X7055781Y-1146719D01*
X7131972Y-1346719D02*
X7141496Y-1337195D01*
X7141496Y-1337195D02*
X7160543Y-1308624D01*
X7160543Y-1308624D02*
X7170067Y-1289576D01*
X7170067Y-1289576D02*
X7179591Y-1261005D01*
X7179591Y-1261005D02*
X7189115Y-1213386D01*
X7189115Y-1213386D02*
X7189115Y-1175291D01*
X7189115Y-1175291D02*
X7179591Y-1127672D01*
X7179591Y-1127672D02*
X7170067Y-1099100D01*
X7170067Y-1099100D02*
X7160543Y-1080053D01*
X7160543Y-1080053D02*
X7141496Y-1051481D01*
X7141496Y-1051481D02*
X7131972Y-1041957D01*
X-34285Y-1544756D02*
X-34285Y-1403334D01*
X-175707Y-1403334D01*
X-175707Y-1544756D01*
X-34285Y-1544756D01*
X236733Y-1365529D02*
X360543Y-1365529D01*
X360543Y-1365529D02*
X293876Y-1441719D01*
X293876Y-1441719D02*
X322448Y-1441719D01*
X322448Y-1441719D02*
X341495Y-1451243D01*
X341495Y-1451243D02*
X351019Y-1460767D01*
X351019Y-1460767D02*
X360543Y-1479814D01*
X360543Y-1479814D02*
X360543Y-1527433D01*
X360543Y-1527433D02*
X351019Y-1546481D01*
X351019Y-1546481D02*
X341495Y-1556005D01*
X341495Y-1556005D02*
X322448Y-1565529D01*
X322448Y-1565529D02*
X265305Y-1565529D01*
X265305Y-1565529D02*
X246257Y-1556005D01*
X246257Y-1556005D02*
X236733Y-1546481D01*
X446257Y-1546481D02*
X455781Y-1556005D01*
X455781Y-1556005D02*
X446257Y-1565529D01*
X446257Y-1565529D02*
X436733Y-1556005D01*
X436733Y-1556005D02*
X446257Y-1546481D01*
X446257Y-1546481D02*
X446257Y-1565529D01*
X579590Y-1365529D02*
X598638Y-1365529D01*
X598638Y-1365529D02*
X617686Y-1375053D01*
X617686Y-1375053D02*
X627209Y-1384576D01*
X627209Y-1384576D02*
X636733Y-1403624D01*
X636733Y-1403624D02*
X646257Y-1441719D01*
X646257Y-1441719D02*
X646257Y-1489338D01*
X646257Y-1489338D02*
X636733Y-1527433D01*
X636733Y-1527433D02*
X627209Y-1546481D01*
X627209Y-1546481D02*
X617686Y-1556005D01*
X617686Y-1556005D02*
X598638Y-1565529D01*
X598638Y-1565529D02*
X579590Y-1565529D01*
X579590Y-1565529D02*
X560543Y-1556005D01*
X560543Y-1556005D02*
X551019Y-1546481D01*
X551019Y-1546481D02*
X541495Y-1527433D01*
X541495Y-1527433D02*
X531971Y-1489338D01*
X531971Y-1489338D02*
X531971Y-1441719D01*
X531971Y-1441719D02*
X541495Y-1403624D01*
X541495Y-1403624D02*
X551019Y-1384576D01*
X551019Y-1384576D02*
X560543Y-1375053D01*
X560543Y-1375053D02*
X579590Y-1365529D01*
X817686Y-1432195D02*
X817686Y-1565529D01*
X770066Y-1356005D02*
X722447Y-1498862D01*
X722447Y-1498862D02*
X846257Y-1498862D01*
X951019Y-1451243D02*
X931971Y-1441719D01*
X931971Y-1441719D02*
X922447Y-1432195D01*
X922447Y-1432195D02*
X912924Y-1413148D01*
X912924Y-1413148D02*
X912924Y-1403624D01*
X912924Y-1403624D02*
X922447Y-1384576D01*
X922447Y-1384576D02*
X931971Y-1375053D01*
X931971Y-1375053D02*
X951019Y-1365529D01*
X951019Y-1365529D02*
X989114Y-1365529D01*
X989114Y-1365529D02*
X1008162Y-1375053D01*
X1008162Y-1375053D02*
X1017686Y-1384576D01*
X1017686Y-1384576D02*
X1027209Y-1403624D01*
X1027209Y-1403624D02*
X1027209Y-1413148D01*
X1027209Y-1413148D02*
X1017686Y-1432195D01*
X1017686Y-1432195D02*
X1008162Y-1441719D01*
X1008162Y-1441719D02*
X989114Y-1451243D01*
X989114Y-1451243D02*
X951019Y-1451243D01*
X951019Y-1451243D02*
X931971Y-1460767D01*
X931971Y-1460767D02*
X922447Y-1470291D01*
X922447Y-1470291D02*
X912924Y-1489338D01*
X912924Y-1489338D02*
X912924Y-1527433D01*
X912924Y-1527433D02*
X922447Y-1546481D01*
X922447Y-1546481D02*
X931971Y-1556005D01*
X931971Y-1556005D02*
X951019Y-1565529D01*
X951019Y-1565529D02*
X989114Y-1565529D01*
X989114Y-1565529D02*
X1008162Y-1556005D01*
X1008162Y-1556005D02*
X1017686Y-1546481D01*
X1017686Y-1546481D02*
X1027209Y-1527433D01*
X1027209Y-1527433D02*
X1027209Y-1489338D01*
X1027209Y-1489338D02*
X1017686Y-1470291D01*
X1017686Y-1470291D02*
X1008162Y-1460767D01*
X1008162Y-1460767D02*
X989114Y-1451243D01*
X1112924Y-1565529D02*
X1112924Y-1432195D01*
X1112924Y-1451243D02*
X1122448Y-1441719D01*
X1122448Y-1441719D02*
X1141495Y-1432195D01*
X1141495Y-1432195D02*
X1170067Y-1432195D01*
X1170067Y-1432195D02*
X1189114Y-1441719D01*
X1189114Y-1441719D02*
X1198638Y-1460767D01*
X1198638Y-1460767D02*
X1198638Y-1565529D01*
X1198638Y-1460767D02*
X1208162Y-1441719D01*
X1208162Y-1441719D02*
X1227209Y-1432195D01*
X1227209Y-1432195D02*
X1255781Y-1432195D01*
X1255781Y-1432195D02*
X1274829Y-1441719D01*
X1274829Y-1441719D02*
X1284352Y-1460767D01*
X1284352Y-1460767D02*
X1284352Y-1565529D01*
X1379590Y-1565529D02*
X1379590Y-1432195D01*
X1379590Y-1451243D02*
X1389114Y-1441719D01*
X1389114Y-1441719D02*
X1408162Y-1432195D01*
X1408162Y-1432195D02*
X1436733Y-1432195D01*
X1436733Y-1432195D02*
X1455781Y-1441719D01*
X1455781Y-1441719D02*
X1465305Y-1460767D01*
X1465305Y-1460767D02*
X1465305Y-1565529D01*
X1465305Y-1460767D02*
X1474828Y-1441719D01*
X1474828Y-1441719D02*
X1493876Y-1432195D01*
X1493876Y-1432195D02*
X1522447Y-1432195D01*
X1522447Y-1432195D02*
X1541495Y-1441719D01*
X1541495Y-1441719D02*
X1551019Y-1460767D01*
X1551019Y-1460767D02*
X1551019Y-1565529D01*
X1941495Y-1356005D02*
X1770067Y-1613148D01*
X2198638Y-1365529D02*
X2217686Y-1365529D01*
X2217686Y-1365529D02*
X2236733Y-1375053D01*
X2236733Y-1375053D02*
X2246257Y-1384576D01*
X2246257Y-1384576D02*
X2255781Y-1403624D01*
X2255781Y-1403624D02*
X2265305Y-1441719D01*
X2265305Y-1441719D02*
X2265305Y-1489338D01*
X2265305Y-1489338D02*
X2255781Y-1527433D01*
X2255781Y-1527433D02*
X2246257Y-1546481D01*
X2246257Y-1546481D02*
X2236733Y-1556005D01*
X2236733Y-1556005D02*
X2217686Y-1565529D01*
X2217686Y-1565529D02*
X2198638Y-1565529D01*
X2198638Y-1565529D02*
X2179591Y-1556005D01*
X2179591Y-1556005D02*
X2170067Y-1546481D01*
X2170067Y-1546481D02*
X2160543Y-1527433D01*
X2160543Y-1527433D02*
X2151019Y-1489338D01*
X2151019Y-1489338D02*
X2151019Y-1441719D01*
X2151019Y-1441719D02*
X2160543Y-1403624D01*
X2160543Y-1403624D02*
X2170067Y-1384576D01*
X2170067Y-1384576D02*
X2179591Y-1375053D01*
X2179591Y-1375053D02*
X2198638Y-1365529D01*
X2351019Y-1546481D02*
X2360543Y-1556005D01*
X2360543Y-1556005D02*
X2351019Y-1565529D01*
X2351019Y-1565529D02*
X2341495Y-1556005D01*
X2341495Y-1556005D02*
X2351019Y-1546481D01*
X2351019Y-1546481D02*
X2351019Y-1565529D01*
X2551019Y-1565529D02*
X2436733Y-1565529D01*
X2493876Y-1565529D02*
X2493876Y-1365529D01*
X2493876Y-1365529D02*
X2474829Y-1394100D01*
X2474829Y-1394100D02*
X2455781Y-1413148D01*
X2455781Y-1413148D02*
X2436733Y-1422672D01*
X2627210Y-1384576D02*
X2636733Y-1375053D01*
X2636733Y-1375053D02*
X2655781Y-1365529D01*
X2655781Y-1365529D02*
X2703400Y-1365529D01*
X2703400Y-1365529D02*
X2722448Y-1375053D01*
X2722448Y-1375053D02*
X2731972Y-1384576D01*
X2731972Y-1384576D02*
X2741495Y-1403624D01*
X2741495Y-1403624D02*
X2741495Y-1422672D01*
X2741495Y-1422672D02*
X2731972Y-1451243D01*
X2731972Y-1451243D02*
X2617686Y-1565529D01*
X2617686Y-1565529D02*
X2741495Y-1565529D01*
X2865305Y-1365529D02*
X2884352Y-1365529D01*
X2884352Y-1365529D02*
X2903400Y-1375053D01*
X2903400Y-1375053D02*
X2912924Y-1384576D01*
X2912924Y-1384576D02*
X2922448Y-1403624D01*
X2922448Y-1403624D02*
X2931971Y-1441719D01*
X2931971Y-1441719D02*
X2931971Y-1489338D01*
X2931971Y-1489338D02*
X2922448Y-1527433D01*
X2922448Y-1527433D02*
X2912924Y-1546481D01*
X2912924Y-1546481D02*
X2903400Y-1556005D01*
X2903400Y-1556005D02*
X2884352Y-1565529D01*
X2884352Y-1565529D02*
X2865305Y-1565529D01*
X2865305Y-1565529D02*
X2846257Y-1556005D01*
X2846257Y-1556005D02*
X2836733Y-1546481D01*
X2836733Y-1546481D02*
X2827210Y-1527433D01*
X2827210Y-1527433D02*
X2817686Y-1489338D01*
X2817686Y-1489338D02*
X2817686Y-1441719D01*
X2817686Y-1441719D02*
X2827210Y-1403624D01*
X2827210Y-1403624D02*
X2836733Y-1384576D01*
X2836733Y-1384576D02*
X2846257Y-1375053D01*
X2846257Y-1375053D02*
X2865305Y-1365529D01*
X3055781Y-1365529D02*
X3074829Y-1365529D01*
X3074829Y-1365529D02*
X3093876Y-1375053D01*
X3093876Y-1375053D02*
X3103400Y-1384576D01*
X3103400Y-1384576D02*
X3112924Y-1403624D01*
X3112924Y-1403624D02*
X3122448Y-1441719D01*
X3122448Y-1441719D02*
X3122448Y-1489338D01*
X3122448Y-1489338D02*
X3112924Y-1527433D01*
X3112924Y-1527433D02*
X3103400Y-1546481D01*
X3103400Y-1546481D02*
X3093876Y-1556005D01*
X3093876Y-1556005D02*
X3074829Y-1565529D01*
X3074829Y-1565529D02*
X3055781Y-1565529D01*
X3055781Y-1565529D02*
X3036733Y-1556005D01*
X3036733Y-1556005D02*
X3027210Y-1546481D01*
X3027210Y-1546481D02*
X3017686Y-1527433D01*
X3017686Y-1527433D02*
X3008162Y-1489338D01*
X3008162Y-1489338D02*
X3008162Y-1441719D01*
X3008162Y-1441719D02*
X3017686Y-1403624D01*
X3017686Y-1403624D02*
X3027210Y-1384576D01*
X3027210Y-1384576D02*
X3036733Y-1375053D01*
X3036733Y-1375053D02*
X3055781Y-1365529D01*
X3198638Y-1365529D02*
X3198638Y-1403624D01*
X3274829Y-1365529D02*
X3274829Y-1403624D01*
X3570067Y-1641719D02*
X3560543Y-1632195D01*
X3560543Y-1632195D02*
X3541495Y-1603624D01*
X3541495Y-1603624D02*
X3531972Y-1584576D01*
X3531972Y-1584576D02*
X3522448Y-1556005D01*
X3522448Y-1556005D02*
X3512924Y-1508386D01*
X3512924Y-1508386D02*
X3512924Y-1470291D01*
X3512924Y-1470291D02*
X3522448Y-1422672D01*
X3522448Y-1422672D02*
X3531972Y-1394100D01*
X3531972Y-1394100D02*
X3541495Y-1375053D01*
X3541495Y-1375053D02*
X3560543Y-1346481D01*
X3560543Y-1346481D02*
X3570067Y-1336957D01*
X3751019Y-1565529D02*
X3636733Y-1565529D01*
X3693876Y-1565529D02*
X3693876Y-1365529D01*
X3693876Y-1365529D02*
X3674829Y-1394100D01*
X3674829Y-1394100D02*
X3655781Y-1413148D01*
X3655781Y-1413148D02*
X3636733Y-1422672D01*
X3874829Y-1365529D02*
X3893876Y-1365529D01*
X3893876Y-1365529D02*
X3912924Y-1375053D01*
X3912924Y-1375053D02*
X3922448Y-1384576D01*
X3922448Y-1384576D02*
X3931972Y-1403624D01*
X3931972Y-1403624D02*
X3941495Y-1441719D01*
X3941495Y-1441719D02*
X3941495Y-1489338D01*
X3941495Y-1489338D02*
X3931972Y-1527433D01*
X3931972Y-1527433D02*
X3922448Y-1546481D01*
X3922448Y-1546481D02*
X3912924Y-1556005D01*
X3912924Y-1556005D02*
X3893876Y-1565529D01*
X3893876Y-1565529D02*
X3874829Y-1565529D01*
X3874829Y-1565529D02*
X3855781Y-1556005D01*
X3855781Y-1556005D02*
X3846257Y-1546481D01*
X3846257Y-1546481D02*
X3836733Y-1527433D01*
X3836733Y-1527433D02*
X3827210Y-1489338D01*
X3827210Y-1489338D02*
X3827210Y-1441719D01*
X3827210Y-1441719D02*
X3836733Y-1403624D01*
X3836733Y-1403624D02*
X3846257Y-1384576D01*
X3846257Y-1384576D02*
X3855781Y-1375053D01*
X3855781Y-1375053D02*
X3874829Y-1365529D01*
X4179591Y-1565529D02*
X4179591Y-1365529D01*
X4265305Y-1565529D02*
X4265305Y-1460767D01*
X4265305Y-1460767D02*
X4255781Y-1441719D01*
X4255781Y-1441719D02*
X4236734Y-1432195D01*
X4236734Y-1432195D02*
X4208162Y-1432195D01*
X4208162Y-1432195D02*
X4189114Y-1441719D01*
X4189114Y-1441719D02*
X4179591Y-1451243D01*
X4389115Y-1565529D02*
X4370067Y-1556005D01*
X4370067Y-1556005D02*
X4360543Y-1546481D01*
X4360543Y-1546481D02*
X4351019Y-1527433D01*
X4351019Y-1527433D02*
X4351019Y-1470291D01*
X4351019Y-1470291D02*
X4360543Y-1451243D01*
X4360543Y-1451243D02*
X4370067Y-1441719D01*
X4370067Y-1441719D02*
X4389115Y-1432195D01*
X4389115Y-1432195D02*
X4417686Y-1432195D01*
X4417686Y-1432195D02*
X4436734Y-1441719D01*
X4436734Y-1441719D02*
X4446257Y-1451243D01*
X4446257Y-1451243D02*
X4455781Y-1470291D01*
X4455781Y-1470291D02*
X4455781Y-1527433D01*
X4455781Y-1527433D02*
X4446257Y-1546481D01*
X4446257Y-1546481D02*
X4436734Y-1556005D01*
X4436734Y-1556005D02*
X4417686Y-1565529D01*
X4417686Y-1565529D02*
X4389115Y-1565529D01*
X4570067Y-1565529D02*
X4551019Y-1556005D01*
X4551019Y-1556005D02*
X4541496Y-1536957D01*
X4541496Y-1536957D02*
X4541496Y-1365529D01*
X4722448Y-1556005D02*
X4703400Y-1565529D01*
X4703400Y-1565529D02*
X4665305Y-1565529D01*
X4665305Y-1565529D02*
X4646257Y-1556005D01*
X4646257Y-1556005D02*
X4636734Y-1536957D01*
X4636734Y-1536957D02*
X4636734Y-1460767D01*
X4636734Y-1460767D02*
X4646257Y-1441719D01*
X4646257Y-1441719D02*
X4665305Y-1432195D01*
X4665305Y-1432195D02*
X4703400Y-1432195D01*
X4703400Y-1432195D02*
X4722448Y-1441719D01*
X4722448Y-1441719D02*
X4731972Y-1460767D01*
X4731972Y-1460767D02*
X4731972Y-1479814D01*
X4731972Y-1479814D02*
X4636734Y-1498862D01*
X4808162Y-1556005D02*
X4827210Y-1565529D01*
X4827210Y-1565529D02*
X4865305Y-1565529D01*
X4865305Y-1565529D02*
X4884353Y-1556005D01*
X4884353Y-1556005D02*
X4893877Y-1536957D01*
X4893877Y-1536957D02*
X4893877Y-1527433D01*
X4893877Y-1527433D02*
X4884353Y-1508386D01*
X4884353Y-1508386D02*
X4865305Y-1498862D01*
X4865305Y-1498862D02*
X4836734Y-1498862D01*
X4836734Y-1498862D02*
X4817686Y-1489338D01*
X4817686Y-1489338D02*
X4808162Y-1470291D01*
X4808162Y-1470291D02*
X4808162Y-1460767D01*
X4808162Y-1460767D02*
X4817686Y-1441719D01*
X4817686Y-1441719D02*
X4836734Y-1432195D01*
X4836734Y-1432195D02*
X4865305Y-1432195D01*
X4865305Y-1432195D02*
X4884353Y-1441719D01*
X4960543Y-1641719D02*
X4970067Y-1632195D01*
X4970067Y-1632195D02*
X4989115Y-1603624D01*
X4989115Y-1603624D02*
X4998638Y-1584576D01*
X4998638Y-1584576D02*
X5008162Y-1556005D01*
X5008162Y-1556005D02*
X5017686Y-1508386D01*
X5017686Y-1508386D02*
X5017686Y-1470291D01*
X5017686Y-1470291D02*
X5008162Y-1422672D01*
X5008162Y-1422672D02*
X4998638Y-1394100D01*
X4998638Y-1394100D02*
X4989115Y-1375053D01*
X4989115Y-1375053D02*
X4970067Y-1346481D01*
X4970067Y-1346481D02*
X4960543Y-1336957D01*
X5322448Y-1641719D02*
X5312924Y-1632195D01*
X5312924Y-1632195D02*
X5293877Y-1603624D01*
X5293877Y-1603624D02*
X5284353Y-1584576D01*
X5284353Y-1584576D02*
X5274829Y-1556005D01*
X5274829Y-1556005D02*
X5265305Y-1508386D01*
X5265305Y-1508386D02*
X5265305Y-1470291D01*
X5265305Y-1470291D02*
X5274829Y-1422672D01*
X5274829Y-1422672D02*
X5284353Y-1394100D01*
X5284353Y-1394100D02*
X5293877Y-1375053D01*
X5293877Y-1375053D02*
X5312924Y-1346481D01*
X5312924Y-1346481D02*
X5322448Y-1336957D01*
X5398638Y-1432195D02*
X5398638Y-1565529D01*
X5398638Y-1451243D02*
X5408162Y-1441719D01*
X5408162Y-1441719D02*
X5427210Y-1432195D01*
X5427210Y-1432195D02*
X5455781Y-1432195D01*
X5455781Y-1432195D02*
X5474829Y-1441719D01*
X5474829Y-1441719D02*
X5484353Y-1460767D01*
X5484353Y-1460767D02*
X5484353Y-1565529D01*
X5608162Y-1565529D02*
X5589115Y-1556005D01*
X5589115Y-1556005D02*
X5579591Y-1546481D01*
X5579591Y-1546481D02*
X5570067Y-1527433D01*
X5570067Y-1527433D02*
X5570067Y-1470291D01*
X5570067Y-1470291D02*
X5579591Y-1451243D01*
X5579591Y-1451243D02*
X5589115Y-1441719D01*
X5589115Y-1441719D02*
X5608162Y-1432195D01*
X5608162Y-1432195D02*
X5636734Y-1432195D01*
X5636734Y-1432195D02*
X5655781Y-1441719D01*
X5655781Y-1441719D02*
X5665305Y-1451243D01*
X5665305Y-1451243D02*
X5674829Y-1470291D01*
X5674829Y-1470291D02*
X5674829Y-1527433D01*
X5674829Y-1527433D02*
X5665305Y-1546481D01*
X5665305Y-1546481D02*
X5655781Y-1556005D01*
X5655781Y-1556005D02*
X5636734Y-1565529D01*
X5636734Y-1565529D02*
X5608162Y-1565529D01*
X5731972Y-1432195D02*
X5808162Y-1432195D01*
X5760543Y-1365529D02*
X5760543Y-1536957D01*
X5760543Y-1536957D02*
X5770067Y-1556005D01*
X5770067Y-1556005D02*
X5789115Y-1565529D01*
X5789115Y-1565529D02*
X5808162Y-1565529D01*
X6027210Y-1432195D02*
X6027210Y-1632195D01*
X6027210Y-1441719D02*
X6046257Y-1432195D01*
X6046257Y-1432195D02*
X6084353Y-1432195D01*
X6084353Y-1432195D02*
X6103400Y-1441719D01*
X6103400Y-1441719D02*
X6112924Y-1451243D01*
X6112924Y-1451243D02*
X6122448Y-1470291D01*
X6122448Y-1470291D02*
X6122448Y-1527433D01*
X6122448Y-1527433D02*
X6112924Y-1546481D01*
X6112924Y-1546481D02*
X6103400Y-1556005D01*
X6103400Y-1556005D02*
X6084353Y-1565529D01*
X6084353Y-1565529D02*
X6046257Y-1565529D01*
X6046257Y-1565529D02*
X6027210Y-1556005D01*
X6236734Y-1565529D02*
X6217686Y-1556005D01*
X6217686Y-1556005D02*
X6208162Y-1536957D01*
X6208162Y-1536957D02*
X6208162Y-1365529D01*
X6398638Y-1565529D02*
X6398638Y-1460767D01*
X6398638Y-1460767D02*
X6389115Y-1441719D01*
X6389115Y-1441719D02*
X6370067Y-1432195D01*
X6370067Y-1432195D02*
X6331972Y-1432195D01*
X6331972Y-1432195D02*
X6312924Y-1441719D01*
X6398638Y-1556005D02*
X6379591Y-1565529D01*
X6379591Y-1565529D02*
X6331972Y-1565529D01*
X6331972Y-1565529D02*
X6312924Y-1556005D01*
X6312924Y-1556005D02*
X6303400Y-1536957D01*
X6303400Y-1536957D02*
X6303400Y-1517910D01*
X6303400Y-1517910D02*
X6312924Y-1498862D01*
X6312924Y-1498862D02*
X6331972Y-1489338D01*
X6331972Y-1489338D02*
X6379591Y-1489338D01*
X6379591Y-1489338D02*
X6398638Y-1479814D01*
X6465305Y-1432195D02*
X6541496Y-1432195D01*
X6493877Y-1365529D02*
X6493877Y-1536957D01*
X6493877Y-1536957D02*
X6503400Y-1556005D01*
X6503400Y-1556005D02*
X6522448Y-1565529D01*
X6522448Y-1565529D02*
X6541496Y-1565529D01*
X6684353Y-1556005D02*
X6665305Y-1565529D01*
X6665305Y-1565529D02*
X6627210Y-1565529D01*
X6627210Y-1565529D02*
X6608162Y-1556005D01*
X6608162Y-1556005D02*
X6598638Y-1536957D01*
X6598638Y-1536957D02*
X6598638Y-1460767D01*
X6598638Y-1460767D02*
X6608162Y-1441719D01*
X6608162Y-1441719D02*
X6627210Y-1432195D01*
X6627210Y-1432195D02*
X6665305Y-1432195D01*
X6665305Y-1432195D02*
X6684353Y-1441719D01*
X6684353Y-1441719D02*
X6693877Y-1460767D01*
X6693877Y-1460767D02*
X6693877Y-1479814D01*
X6693877Y-1479814D02*
X6598638Y-1498862D01*
X6865305Y-1565529D02*
X6865305Y-1365529D01*
X6865305Y-1556005D02*
X6846258Y-1565529D01*
X6846258Y-1565529D02*
X6808162Y-1565529D01*
X6808162Y-1565529D02*
X6789115Y-1556005D01*
X6789115Y-1556005D02*
X6779591Y-1546481D01*
X6779591Y-1546481D02*
X6770067Y-1527433D01*
X6770067Y-1527433D02*
X6770067Y-1470291D01*
X6770067Y-1470291D02*
X6779591Y-1451243D01*
X6779591Y-1451243D02*
X6789115Y-1441719D01*
X6789115Y-1441719D02*
X6808162Y-1432195D01*
X6808162Y-1432195D02*
X6846258Y-1432195D01*
X6846258Y-1432195D02*
X6865305Y-1441719D01*
X6941496Y-1641719D02*
X6951019Y-1632195D01*
X6951019Y-1632195D02*
X6970067Y-1603624D01*
X6970067Y-1603624D02*
X6979591Y-1584576D01*
X6979591Y-1584576D02*
X6989115Y-1556005D01*
X6989115Y-1556005D02*
X6998638Y-1508386D01*
X6998638Y-1508386D02*
X6998638Y-1470291D01*
X6998638Y-1470291D02*
X6989115Y-1422672D01*
X6989115Y-1422672D02*
X6979591Y-1394100D01*
X6979591Y-1394100D02*
X6970067Y-1375053D01*
X6970067Y-1375053D02*
X6951019Y-1346481D01*
X6951019Y-1346481D02*
X6941496Y-1336957D01*
X-104996Y-1894045D02*
X-4996Y-1794045D01*
X-104996Y-1694045D01*
X-204996Y-1794045D01*
X-104996Y-1894045D01*
X236733Y-1685529D02*
X360543Y-1685529D01*
X360543Y-1685529D02*
X293876Y-1761719D01*
X293876Y-1761719D02*
X322448Y-1761719D01*
X322448Y-1761719D02*
X341495Y-1771243D01*
X341495Y-1771243D02*
X351019Y-1780767D01*
X351019Y-1780767D02*
X360543Y-1799814D01*
X360543Y-1799814D02*
X360543Y-1847433D01*
X360543Y-1847433D02*
X351019Y-1866481D01*
X351019Y-1866481D02*
X341495Y-1876005D01*
X341495Y-1876005D02*
X322448Y-1885529D01*
X322448Y-1885529D02*
X265305Y-1885529D01*
X265305Y-1885529D02*
X246257Y-1876005D01*
X246257Y-1876005D02*
X236733Y-1866481D01*
X446257Y-1866481D02*
X455781Y-1876005D01*
X455781Y-1876005D02*
X446257Y-1885529D01*
X446257Y-1885529D02*
X436733Y-1876005D01*
X436733Y-1876005D02*
X446257Y-1866481D01*
X446257Y-1866481D02*
X446257Y-1885529D01*
X551019Y-1885529D02*
X589114Y-1885529D01*
X589114Y-1885529D02*
X608162Y-1876005D01*
X608162Y-1876005D02*
X617686Y-1866481D01*
X617686Y-1866481D02*
X636733Y-1837910D01*
X636733Y-1837910D02*
X646257Y-1799814D01*
X646257Y-1799814D02*
X646257Y-1723624D01*
X646257Y-1723624D02*
X636733Y-1704576D01*
X636733Y-1704576D02*
X627209Y-1695053D01*
X627209Y-1695053D02*
X608162Y-1685529D01*
X608162Y-1685529D02*
X570067Y-1685529D01*
X570067Y-1685529D02*
X551019Y-1695053D01*
X551019Y-1695053D02*
X541495Y-1704576D01*
X541495Y-1704576D02*
X531971Y-1723624D01*
X531971Y-1723624D02*
X531971Y-1771243D01*
X531971Y-1771243D02*
X541495Y-1790291D01*
X541495Y-1790291D02*
X551019Y-1799814D01*
X551019Y-1799814D02*
X570067Y-1809338D01*
X570067Y-1809338D02*
X608162Y-1809338D01*
X608162Y-1809338D02*
X627209Y-1799814D01*
X627209Y-1799814D02*
X636733Y-1790291D01*
X636733Y-1790291D02*
X646257Y-1771243D01*
X760543Y-1771243D02*
X741495Y-1761719D01*
X741495Y-1761719D02*
X731971Y-1752195D01*
X731971Y-1752195D02*
X722447Y-1733148D01*
X722447Y-1733148D02*
X722447Y-1723624D01*
X722447Y-1723624D02*
X731971Y-1704576D01*
X731971Y-1704576D02*
X741495Y-1695053D01*
X741495Y-1695053D02*
X760543Y-1685529D01*
X760543Y-1685529D02*
X798638Y-1685529D01*
X798638Y-1685529D02*
X817686Y-1695053D01*
X817686Y-1695053D02*
X827209Y-1704576D01*
X827209Y-1704576D02*
X836733Y-1723624D01*
X836733Y-1723624D02*
X836733Y-1733148D01*
X836733Y-1733148D02*
X827209Y-1752195D01*
X827209Y-1752195D02*
X817686Y-1761719D01*
X817686Y-1761719D02*
X798638Y-1771243D01*
X798638Y-1771243D02*
X760543Y-1771243D01*
X760543Y-1771243D02*
X741495Y-1780767D01*
X741495Y-1780767D02*
X731971Y-1790291D01*
X731971Y-1790291D02*
X722447Y-1809338D01*
X722447Y-1809338D02*
X722447Y-1847433D01*
X722447Y-1847433D02*
X731971Y-1866481D01*
X731971Y-1866481D02*
X741495Y-1876005D01*
X741495Y-1876005D02*
X760543Y-1885529D01*
X760543Y-1885529D02*
X798638Y-1885529D01*
X798638Y-1885529D02*
X817686Y-1876005D01*
X817686Y-1876005D02*
X827209Y-1866481D01*
X827209Y-1866481D02*
X836733Y-1847433D01*
X836733Y-1847433D02*
X836733Y-1809338D01*
X836733Y-1809338D02*
X827209Y-1790291D01*
X827209Y-1790291D02*
X817686Y-1780767D01*
X817686Y-1780767D02*
X798638Y-1771243D01*
X951019Y-1771243D02*
X931971Y-1761719D01*
X931971Y-1761719D02*
X922447Y-1752195D01*
X922447Y-1752195D02*
X912924Y-1733148D01*
X912924Y-1733148D02*
X912924Y-1723624D01*
X912924Y-1723624D02*
X922447Y-1704576D01*
X922447Y-1704576D02*
X931971Y-1695053D01*
X931971Y-1695053D02*
X951019Y-1685529D01*
X951019Y-1685529D02*
X989114Y-1685529D01*
X989114Y-1685529D02*
X1008162Y-1695053D01*
X1008162Y-1695053D02*
X1017686Y-1704576D01*
X1017686Y-1704576D02*
X1027209Y-1723624D01*
X1027209Y-1723624D02*
X1027209Y-1733148D01*
X1027209Y-1733148D02*
X1017686Y-1752195D01*
X1017686Y-1752195D02*
X1008162Y-1761719D01*
X1008162Y-1761719D02*
X989114Y-1771243D01*
X989114Y-1771243D02*
X951019Y-1771243D01*
X951019Y-1771243D02*
X931971Y-1780767D01*
X931971Y-1780767D02*
X922447Y-1790291D01*
X922447Y-1790291D02*
X912924Y-1809338D01*
X912924Y-1809338D02*
X912924Y-1847433D01*
X912924Y-1847433D02*
X922447Y-1866481D01*
X922447Y-1866481D02*
X931971Y-1876005D01*
X931971Y-1876005D02*
X951019Y-1885529D01*
X951019Y-1885529D02*
X989114Y-1885529D01*
X989114Y-1885529D02*
X1008162Y-1876005D01*
X1008162Y-1876005D02*
X1017686Y-1866481D01*
X1017686Y-1866481D02*
X1027209Y-1847433D01*
X1027209Y-1847433D02*
X1027209Y-1809338D01*
X1027209Y-1809338D02*
X1017686Y-1790291D01*
X1017686Y-1790291D02*
X1008162Y-1780767D01*
X1008162Y-1780767D02*
X989114Y-1771243D01*
X1112924Y-1885529D02*
X1112924Y-1752195D01*
X1112924Y-1771243D02*
X1122448Y-1761719D01*
X1122448Y-1761719D02*
X1141495Y-1752195D01*
X1141495Y-1752195D02*
X1170067Y-1752195D01*
X1170067Y-1752195D02*
X1189114Y-1761719D01*
X1189114Y-1761719D02*
X1198638Y-1780767D01*
X1198638Y-1780767D02*
X1198638Y-1885529D01*
X1198638Y-1780767D02*
X1208162Y-1761719D01*
X1208162Y-1761719D02*
X1227209Y-1752195D01*
X1227209Y-1752195D02*
X1255781Y-1752195D01*
X1255781Y-1752195D02*
X1274829Y-1761719D01*
X1274829Y-1761719D02*
X1284352Y-1780767D01*
X1284352Y-1780767D02*
X1284352Y-1885529D01*
X1379590Y-1885529D02*
X1379590Y-1752195D01*
X1379590Y-1771243D02*
X1389114Y-1761719D01*
X1389114Y-1761719D02*
X1408162Y-1752195D01*
X1408162Y-1752195D02*
X1436733Y-1752195D01*
X1436733Y-1752195D02*
X1455781Y-1761719D01*
X1455781Y-1761719D02*
X1465305Y-1780767D01*
X1465305Y-1780767D02*
X1465305Y-1885529D01*
X1465305Y-1780767D02*
X1474828Y-1761719D01*
X1474828Y-1761719D02*
X1493876Y-1752195D01*
X1493876Y-1752195D02*
X1522447Y-1752195D01*
X1522447Y-1752195D02*
X1541495Y-1761719D01*
X1541495Y-1761719D02*
X1551019Y-1780767D01*
X1551019Y-1780767D02*
X1551019Y-1885529D01*
X1941495Y-1676005D02*
X1770067Y-1933148D01*
X2198638Y-1685529D02*
X2217686Y-1685529D01*
X2217686Y-1685529D02*
X2236733Y-1695053D01*
X2236733Y-1695053D02*
X2246257Y-1704576D01*
X2246257Y-1704576D02*
X2255781Y-1723624D01*
X2255781Y-1723624D02*
X2265305Y-1761719D01*
X2265305Y-1761719D02*
X2265305Y-1809338D01*
X2265305Y-1809338D02*
X2255781Y-1847433D01*
X2255781Y-1847433D02*
X2246257Y-1866481D01*
X2246257Y-1866481D02*
X2236733Y-1876005D01*
X2236733Y-1876005D02*
X2217686Y-1885529D01*
X2217686Y-1885529D02*
X2198638Y-1885529D01*
X2198638Y-1885529D02*
X2179591Y-1876005D01*
X2179591Y-1876005D02*
X2170067Y-1866481D01*
X2170067Y-1866481D02*
X2160543Y-1847433D01*
X2160543Y-1847433D02*
X2151019Y-1809338D01*
X2151019Y-1809338D02*
X2151019Y-1761719D01*
X2151019Y-1761719D02*
X2160543Y-1723624D01*
X2160543Y-1723624D02*
X2170067Y-1704576D01*
X2170067Y-1704576D02*
X2179591Y-1695053D01*
X2179591Y-1695053D02*
X2198638Y-1685529D01*
X2351019Y-1866481D02*
X2360543Y-1876005D01*
X2360543Y-1876005D02*
X2351019Y-1885529D01*
X2351019Y-1885529D02*
X2341495Y-1876005D01*
X2341495Y-1876005D02*
X2351019Y-1866481D01*
X2351019Y-1866481D02*
X2351019Y-1885529D01*
X2551019Y-1885529D02*
X2436733Y-1885529D01*
X2493876Y-1885529D02*
X2493876Y-1685529D01*
X2493876Y-1685529D02*
X2474829Y-1714100D01*
X2474829Y-1714100D02*
X2455781Y-1733148D01*
X2455781Y-1733148D02*
X2436733Y-1742672D01*
X2731972Y-1685529D02*
X2636733Y-1685529D01*
X2636733Y-1685529D02*
X2627210Y-1780767D01*
X2627210Y-1780767D02*
X2636733Y-1771243D01*
X2636733Y-1771243D02*
X2655781Y-1761719D01*
X2655781Y-1761719D02*
X2703400Y-1761719D01*
X2703400Y-1761719D02*
X2722448Y-1771243D01*
X2722448Y-1771243D02*
X2731972Y-1780767D01*
X2731972Y-1780767D02*
X2741495Y-1799814D01*
X2741495Y-1799814D02*
X2741495Y-1847433D01*
X2741495Y-1847433D02*
X2731972Y-1866481D01*
X2731972Y-1866481D02*
X2722448Y-1876005D01*
X2722448Y-1876005D02*
X2703400Y-1885529D01*
X2703400Y-1885529D02*
X2655781Y-1885529D01*
X2655781Y-1885529D02*
X2636733Y-1876005D01*
X2636733Y-1876005D02*
X2627210Y-1866481D01*
X2808162Y-1685529D02*
X2941495Y-1685529D01*
X2941495Y-1685529D02*
X2855781Y-1885529D01*
X3055781Y-1685529D02*
X3074829Y-1685529D01*
X3074829Y-1685529D02*
X3093876Y-1695053D01*
X3093876Y-1695053D02*
X3103400Y-1704576D01*
X3103400Y-1704576D02*
X3112924Y-1723624D01*
X3112924Y-1723624D02*
X3122448Y-1761719D01*
X3122448Y-1761719D02*
X3122448Y-1809338D01*
X3122448Y-1809338D02*
X3112924Y-1847433D01*
X3112924Y-1847433D02*
X3103400Y-1866481D01*
X3103400Y-1866481D02*
X3093876Y-1876005D01*
X3093876Y-1876005D02*
X3074829Y-1885529D01*
X3074829Y-1885529D02*
X3055781Y-1885529D01*
X3055781Y-1885529D02*
X3036733Y-1876005D01*
X3036733Y-1876005D02*
X3027210Y-1866481D01*
X3027210Y-1866481D02*
X3017686Y-1847433D01*
X3017686Y-1847433D02*
X3008162Y-1809338D01*
X3008162Y-1809338D02*
X3008162Y-1761719D01*
X3008162Y-1761719D02*
X3017686Y-1723624D01*
X3017686Y-1723624D02*
X3027210Y-1704576D01*
X3027210Y-1704576D02*
X3036733Y-1695053D01*
X3036733Y-1695053D02*
X3055781Y-1685529D01*
X3198638Y-1685529D02*
X3198638Y-1723624D01*
X3274829Y-1685529D02*
X3274829Y-1723624D01*
X3570067Y-1961719D02*
X3560543Y-1952195D01*
X3560543Y-1952195D02*
X3541495Y-1923624D01*
X3541495Y-1923624D02*
X3531972Y-1904576D01*
X3531972Y-1904576D02*
X3522448Y-1876005D01*
X3522448Y-1876005D02*
X3512924Y-1828386D01*
X3512924Y-1828386D02*
X3512924Y-1790291D01*
X3512924Y-1790291D02*
X3522448Y-1742672D01*
X3522448Y-1742672D02*
X3531972Y-1714100D01*
X3531972Y-1714100D02*
X3541495Y-1695053D01*
X3541495Y-1695053D02*
X3560543Y-1666481D01*
X3560543Y-1666481D02*
X3570067Y-1656957D01*
X3731972Y-1685529D02*
X3693876Y-1685529D01*
X3693876Y-1685529D02*
X3674829Y-1695053D01*
X3674829Y-1695053D02*
X3665305Y-1704576D01*
X3665305Y-1704576D02*
X3646257Y-1733148D01*
X3646257Y-1733148D02*
X3636733Y-1771243D01*
X3636733Y-1771243D02*
X3636733Y-1847433D01*
X3636733Y-1847433D02*
X3646257Y-1866481D01*
X3646257Y-1866481D02*
X3655781Y-1876005D01*
X3655781Y-1876005D02*
X3674829Y-1885529D01*
X3674829Y-1885529D02*
X3712924Y-1885529D01*
X3712924Y-1885529D02*
X3731972Y-1876005D01*
X3731972Y-1876005D02*
X3741495Y-1866481D01*
X3741495Y-1866481D02*
X3751019Y-1847433D01*
X3751019Y-1847433D02*
X3751019Y-1799814D01*
X3751019Y-1799814D02*
X3741495Y-1780767D01*
X3741495Y-1780767D02*
X3731972Y-1771243D01*
X3731972Y-1771243D02*
X3712924Y-1761719D01*
X3712924Y-1761719D02*
X3674829Y-1761719D01*
X3674829Y-1761719D02*
X3655781Y-1771243D01*
X3655781Y-1771243D02*
X3646257Y-1780767D01*
X3646257Y-1780767D02*
X3636733Y-1799814D01*
X3941495Y-1885529D02*
X3827210Y-1885529D01*
X3884352Y-1885529D02*
X3884352Y-1685529D01*
X3884352Y-1685529D02*
X3865305Y-1714100D01*
X3865305Y-1714100D02*
X3846257Y-1733148D01*
X3846257Y-1733148D02*
X3827210Y-1742672D01*
X4179591Y-1885529D02*
X4179591Y-1685529D01*
X4265305Y-1885529D02*
X4265305Y-1780767D01*
X4265305Y-1780767D02*
X4255781Y-1761719D01*
X4255781Y-1761719D02*
X4236734Y-1752195D01*
X4236734Y-1752195D02*
X4208162Y-1752195D01*
X4208162Y-1752195D02*
X4189114Y-1761719D01*
X4189114Y-1761719D02*
X4179591Y-1771243D01*
X4389115Y-1885529D02*
X4370067Y-1876005D01*
X4370067Y-1876005D02*
X4360543Y-1866481D01*
X4360543Y-1866481D02*
X4351019Y-1847433D01*
X4351019Y-1847433D02*
X4351019Y-1790291D01*
X4351019Y-1790291D02*
X4360543Y-1771243D01*
X4360543Y-1771243D02*
X4370067Y-1761719D01*
X4370067Y-1761719D02*
X4389115Y-1752195D01*
X4389115Y-1752195D02*
X4417686Y-1752195D01*
X4417686Y-1752195D02*
X4436734Y-1761719D01*
X4436734Y-1761719D02*
X4446257Y-1771243D01*
X4446257Y-1771243D02*
X4455781Y-1790291D01*
X4455781Y-1790291D02*
X4455781Y-1847433D01*
X4455781Y-1847433D02*
X4446257Y-1866481D01*
X4446257Y-1866481D02*
X4436734Y-1876005D01*
X4436734Y-1876005D02*
X4417686Y-1885529D01*
X4417686Y-1885529D02*
X4389115Y-1885529D01*
X4570067Y-1885529D02*
X4551019Y-1876005D01*
X4551019Y-1876005D02*
X4541496Y-1856957D01*
X4541496Y-1856957D02*
X4541496Y-1685529D01*
X4722448Y-1876005D02*
X4703400Y-1885529D01*
X4703400Y-1885529D02*
X4665305Y-1885529D01*
X4665305Y-1885529D02*
X4646257Y-1876005D01*
X4646257Y-1876005D02*
X4636734Y-1856957D01*
X4636734Y-1856957D02*
X4636734Y-1780767D01*
X4636734Y-1780767D02*
X4646257Y-1761719D01*
X4646257Y-1761719D02*
X4665305Y-1752195D01*
X4665305Y-1752195D02*
X4703400Y-1752195D01*
X4703400Y-1752195D02*
X4722448Y-1761719D01*
X4722448Y-1761719D02*
X4731972Y-1780767D01*
X4731972Y-1780767D02*
X4731972Y-1799814D01*
X4731972Y-1799814D02*
X4636734Y-1818862D01*
X4808162Y-1876005D02*
X4827210Y-1885529D01*
X4827210Y-1885529D02*
X4865305Y-1885529D01*
X4865305Y-1885529D02*
X4884353Y-1876005D01*
X4884353Y-1876005D02*
X4893877Y-1856957D01*
X4893877Y-1856957D02*
X4893877Y-1847433D01*
X4893877Y-1847433D02*
X4884353Y-1828386D01*
X4884353Y-1828386D02*
X4865305Y-1818862D01*
X4865305Y-1818862D02*
X4836734Y-1818862D01*
X4836734Y-1818862D02*
X4817686Y-1809338D01*
X4817686Y-1809338D02*
X4808162Y-1790291D01*
X4808162Y-1790291D02*
X4808162Y-1780767D01*
X4808162Y-1780767D02*
X4817686Y-1761719D01*
X4817686Y-1761719D02*
X4836734Y-1752195D01*
X4836734Y-1752195D02*
X4865305Y-1752195D01*
X4865305Y-1752195D02*
X4884353Y-1761719D01*
X4960543Y-1961719D02*
X4970067Y-1952195D01*
X4970067Y-1952195D02*
X4989115Y-1923624D01*
X4989115Y-1923624D02*
X4998638Y-1904576D01*
X4998638Y-1904576D02*
X5008162Y-1876005D01*
X5008162Y-1876005D02*
X5017686Y-1828386D01*
X5017686Y-1828386D02*
X5017686Y-1790291D01*
X5017686Y-1790291D02*
X5008162Y-1742672D01*
X5008162Y-1742672D02*
X4998638Y-1714100D01*
X4998638Y-1714100D02*
X4989115Y-1695053D01*
X4989115Y-1695053D02*
X4970067Y-1666481D01*
X4970067Y-1666481D02*
X4960543Y-1656957D01*
X5322448Y-1961719D02*
X5312924Y-1952195D01*
X5312924Y-1952195D02*
X5293877Y-1923624D01*
X5293877Y-1923624D02*
X5284353Y-1904576D01*
X5284353Y-1904576D02*
X5274829Y-1876005D01*
X5274829Y-1876005D02*
X5265305Y-1828386D01*
X5265305Y-1828386D02*
X5265305Y-1790291D01*
X5265305Y-1790291D02*
X5274829Y-1742672D01*
X5274829Y-1742672D02*
X5284353Y-1714100D01*
X5284353Y-1714100D02*
X5293877Y-1695053D01*
X5293877Y-1695053D02*
X5312924Y-1666481D01*
X5312924Y-1666481D02*
X5322448Y-1656957D01*
X5398638Y-1752195D02*
X5398638Y-1885529D01*
X5398638Y-1771243D02*
X5408162Y-1761719D01*
X5408162Y-1761719D02*
X5427210Y-1752195D01*
X5427210Y-1752195D02*
X5455781Y-1752195D01*
X5455781Y-1752195D02*
X5474829Y-1761719D01*
X5474829Y-1761719D02*
X5484353Y-1780767D01*
X5484353Y-1780767D02*
X5484353Y-1885529D01*
X5608162Y-1885529D02*
X5589115Y-1876005D01*
X5589115Y-1876005D02*
X5579591Y-1866481D01*
X5579591Y-1866481D02*
X5570067Y-1847433D01*
X5570067Y-1847433D02*
X5570067Y-1790291D01*
X5570067Y-1790291D02*
X5579591Y-1771243D01*
X5579591Y-1771243D02*
X5589115Y-1761719D01*
X5589115Y-1761719D02*
X5608162Y-1752195D01*
X5608162Y-1752195D02*
X5636734Y-1752195D01*
X5636734Y-1752195D02*
X5655781Y-1761719D01*
X5655781Y-1761719D02*
X5665305Y-1771243D01*
X5665305Y-1771243D02*
X5674829Y-1790291D01*
X5674829Y-1790291D02*
X5674829Y-1847433D01*
X5674829Y-1847433D02*
X5665305Y-1866481D01*
X5665305Y-1866481D02*
X5655781Y-1876005D01*
X5655781Y-1876005D02*
X5636734Y-1885529D01*
X5636734Y-1885529D02*
X5608162Y-1885529D01*
X5731972Y-1752195D02*
X5808162Y-1752195D01*
X5760543Y-1685529D02*
X5760543Y-1856957D01*
X5760543Y-1856957D02*
X5770067Y-1876005D01*
X5770067Y-1876005D02*
X5789115Y-1885529D01*
X5789115Y-1885529D02*
X5808162Y-1885529D01*
X6027210Y-1752195D02*
X6027210Y-1952195D01*
X6027210Y-1761719D02*
X6046257Y-1752195D01*
X6046257Y-1752195D02*
X6084353Y-1752195D01*
X6084353Y-1752195D02*
X6103400Y-1761719D01*
X6103400Y-1761719D02*
X6112924Y-1771243D01*
X6112924Y-1771243D02*
X6122448Y-1790291D01*
X6122448Y-1790291D02*
X6122448Y-1847433D01*
X6122448Y-1847433D02*
X6112924Y-1866481D01*
X6112924Y-1866481D02*
X6103400Y-1876005D01*
X6103400Y-1876005D02*
X6084353Y-1885529D01*
X6084353Y-1885529D02*
X6046257Y-1885529D01*
X6046257Y-1885529D02*
X6027210Y-1876005D01*
X6236734Y-1885529D02*
X6217686Y-1876005D01*
X6217686Y-1876005D02*
X6208162Y-1856957D01*
X6208162Y-1856957D02*
X6208162Y-1685529D01*
X6398638Y-1885529D02*
X6398638Y-1780767D01*
X6398638Y-1780767D02*
X6389115Y-1761719D01*
X6389115Y-1761719D02*
X6370067Y-1752195D01*
X6370067Y-1752195D02*
X6331972Y-1752195D01*
X6331972Y-1752195D02*
X6312924Y-1761719D01*
X6398638Y-1876005D02*
X6379591Y-1885529D01*
X6379591Y-1885529D02*
X6331972Y-1885529D01*
X6331972Y-1885529D02*
X6312924Y-1876005D01*
X6312924Y-1876005D02*
X6303400Y-1856957D01*
X6303400Y-1856957D02*
X6303400Y-1837910D01*
X6303400Y-1837910D02*
X6312924Y-1818862D01*
X6312924Y-1818862D02*
X6331972Y-1809338D01*
X6331972Y-1809338D02*
X6379591Y-1809338D01*
X6379591Y-1809338D02*
X6398638Y-1799814D01*
X6465305Y-1752195D02*
X6541496Y-1752195D01*
X6493877Y-1685529D02*
X6493877Y-1856957D01*
X6493877Y-1856957D02*
X6503400Y-1876005D01*
X6503400Y-1876005D02*
X6522448Y-1885529D01*
X6522448Y-1885529D02*
X6541496Y-1885529D01*
X6684353Y-1876005D02*
X6665305Y-1885529D01*
X6665305Y-1885529D02*
X6627210Y-1885529D01*
X6627210Y-1885529D02*
X6608162Y-1876005D01*
X6608162Y-1876005D02*
X6598638Y-1856957D01*
X6598638Y-1856957D02*
X6598638Y-1780767D01*
X6598638Y-1780767D02*
X6608162Y-1761719D01*
X6608162Y-1761719D02*
X6627210Y-1752195D01*
X6627210Y-1752195D02*
X6665305Y-1752195D01*
X6665305Y-1752195D02*
X6684353Y-1761719D01*
X6684353Y-1761719D02*
X6693877Y-1780767D01*
X6693877Y-1780767D02*
X6693877Y-1799814D01*
X6693877Y-1799814D02*
X6598638Y-1818862D01*
X6865305Y-1885529D02*
X6865305Y-1685529D01*
X6865305Y-1876005D02*
X6846258Y-1885529D01*
X6846258Y-1885529D02*
X6808162Y-1885529D01*
X6808162Y-1885529D02*
X6789115Y-1876005D01*
X6789115Y-1876005D02*
X6779591Y-1866481D01*
X6779591Y-1866481D02*
X6770067Y-1847433D01*
X6770067Y-1847433D02*
X6770067Y-1790291D01*
X6770067Y-1790291D02*
X6779591Y-1771243D01*
X6779591Y-1771243D02*
X6789115Y-1761719D01*
X6789115Y-1761719D02*
X6808162Y-1752195D01*
X6808162Y-1752195D02*
X6846258Y-1752195D01*
X6846258Y-1752195D02*
X6865305Y-1761719D01*
X6941496Y-1961719D02*
X6951019Y-1952195D01*
X6951019Y-1952195D02*
X6970067Y-1923624D01*
X6970067Y-1923624D02*
X6979591Y-1904576D01*
X6979591Y-1904576D02*
X6989115Y-1876005D01*
X6989115Y-1876005D02*
X6998638Y-1828386D01*
X6998638Y-1828386D02*
X6998638Y-1790291D01*
X6998638Y-1790291D02*
X6989115Y-1742672D01*
X6989115Y-1742672D02*
X6979591Y-1714100D01*
X6979591Y-1714100D02*
X6970067Y-1695053D01*
X6970067Y-1695053D02*
X6951019Y-1666481D01*
X6951019Y-1666481D02*
X6941496Y-1656957D01*
M02*
