%TF.GenerationSoftware,KiCad,Pcbnew,7.0.6*%
%TF.CreationDate,2023-08-25T16:13:21-04:00*%
%TF.ProjectId,Vault45_alpha,5661756c-7434-4355-9f61-6c7068612e6b,rev?*%
%TF.SameCoordinates,PX198c50aPY6631428*%
%TF.FileFunction,Legend,Bot*%
%TF.FilePolarity,Positive*%
%FSLAX46Y46*%
G04 Gerber Fmt 4.6, Leading zero omitted, Abs format (unit mm)*
G04 Created by KiCad (PCBNEW 7.0.6) date 2023-08-25 16:13:21*
%MOMM*%
%LPD*%
G01*
G04 APERTURE LIST*
G04 Aperture macros list*
%AMRoundRect*
0 Rectangle with rounded corners*
0 $1 Rounding radius*
0 $2 $3 $4 $5 $6 $7 $8 $9 X,Y pos of 4 corners*
0 Add a 4 corners polygon primitive as box body*
4,1,4,$2,$3,$4,$5,$6,$7,$8,$9,$2,$3,0*
0 Add four circle primitives for the rounded corners*
1,1,$1+$1,$2,$3*
1,1,$1+$1,$4,$5*
1,1,$1+$1,$6,$7*
1,1,$1+$1,$8,$9*
0 Add four rect primitives between the rounded corners*
20,1,$1+$1,$2,$3,$4,$5,0*
20,1,$1+$1,$4,$5,$6,$7,0*
20,1,$1+$1,$6,$7,$8,$9,0*
20,1,$1+$1,$8,$9,$2,$3,0*%
%AMRotRect*
0 Rectangle, with rotation*
0 The origin of the aperture is its center*
0 $1 length*
0 $2 width*
0 $3 Rotation angle, in degrees counterclockwise*
0 Add horizontal line*
21,1,$1,$2,0,0,$3*%
G04 Aperture macros list end*
%ADD10C,0.150000*%
%ADD11C,0.125000*%
%ADD12C,0.120000*%
%ADD13C,1.750000*%
%ADD14C,3.987800*%
%ADD15C,2.250000*%
%ADD16O,1.500000X2.800000*%
%ADD17R,2.000000X2.000000*%
%ADD18C,2.000000*%
%ADD19R,1.000000X1.000000*%
%ADD20C,1.397000*%
%ADD21R,1.200000X0.900000*%
%ADD22RoundRect,0.250000X-0.350000X-0.450000X0.350000X-0.450000X0.350000X0.450000X-0.350000X0.450000X0*%
%ADD23RotRect,2.100000X1.800000X225.000000*%
%ADD24RoundRect,0.250000X0.475000X-0.337500X0.475000X0.337500X-0.475000X0.337500X-0.475000X-0.337500X0*%
%ADD25RoundRect,0.250000X-0.337500X-0.475000X0.337500X-0.475000X0.337500X0.475000X-0.337500X0.475000X0*%
%ADD26RoundRect,0.250000X0.350000X0.450000X-0.350000X0.450000X-0.350000X-0.450000X0.350000X-0.450000X0*%
%ADD27RoundRect,0.062500X-0.475000X-0.062500X0.475000X-0.062500X0.475000X0.062500X-0.475000X0.062500X0*%
%ADD28RoundRect,0.062500X-0.062500X-0.475000X0.062500X-0.475000X0.062500X0.475000X-0.062500X0.475000X0*%
%ADD29R,5.200000X5.200000*%
%ADD30R,1.100000X1.800000*%
%ADD31RoundRect,0.250000X0.097227X-0.574524X0.574524X-0.097227X-0.097227X0.574524X-0.574524X0.097227X0*%
%ADD32RoundRect,0.250000X0.337500X0.475000X-0.337500X0.475000X-0.337500X-0.475000X0.337500X-0.475000X0*%
%ADD33RoundRect,0.250000X-0.450000X0.350000X-0.450000X-0.350000X0.450000X-0.350000X0.450000X0.350000X0*%
%ADD34RoundRect,0.250000X-0.475000X0.337500X-0.475000X-0.337500X0.475000X-0.337500X0.475000X0.337500X0*%
%ADD35C,0.650000*%
%ADD36R,0.600000X2.450000*%
%ADD37R,0.300000X2.450000*%
%ADD38RoundRect,0.250000X-0.600000X-0.600000X0.600000X-0.600000X0.600000X0.600000X-0.600000X0.600000X0*%
%ADD39C,1.700000*%
%ADD40R,1.560000X0.650000*%
%ADD41RoundRect,0.250000X0.574524X0.097227X0.097227X0.574524X-0.574524X-0.097227X-0.097227X-0.574524X0*%
%ADD42RoundRect,0.210527X-0.389473X-0.664473X0.389473X-0.664473X0.389473X0.664473X-0.389473X0.664473X0*%
%ADD43RoundRect,0.250000X0.450000X-0.350000X0.450000X0.350000X-0.450000X0.350000X-0.450000X-0.350000X0*%
G04 APERTURE END LIST*
D10*
X120178629Y73739837D02*
X120250058Y73775551D01*
X120250058Y73775551D02*
X120357200Y73775551D01*
X120357200Y73775551D02*
X120464343Y73739837D01*
X120464343Y73739837D02*
X120535772Y73668408D01*
X120535772Y73668408D02*
X120571486Y73596980D01*
X120571486Y73596980D02*
X120607200Y73454123D01*
X120607200Y73454123D02*
X120607200Y73346980D01*
X120607200Y73346980D02*
X120571486Y73204123D01*
X120571486Y73204123D02*
X120535772Y73132694D01*
X120535772Y73132694D02*
X120464343Y73061265D01*
X120464343Y73061265D02*
X120357200Y73025551D01*
X120357200Y73025551D02*
X120285772Y73025551D01*
X120285772Y73025551D02*
X120178629Y73061265D01*
X120178629Y73061265D02*
X120142915Y73096980D01*
X120142915Y73096980D02*
X120142915Y73346980D01*
X120142915Y73346980D02*
X120285772Y73346980D01*
X119821486Y73025551D02*
X119821486Y73775551D01*
X119821486Y73775551D02*
X119392915Y73025551D01*
X119392915Y73025551D02*
X119392915Y73775551D01*
X119035772Y73025551D02*
X119035772Y73775551D01*
X119035772Y73775551D02*
X118857201Y73775551D01*
X118857201Y73775551D02*
X118750058Y73739837D01*
X118750058Y73739837D02*
X118678629Y73668408D01*
X118678629Y73668408D02*
X118642915Y73596980D01*
X118642915Y73596980D02*
X118607201Y73454123D01*
X118607201Y73454123D02*
X118607201Y73346980D01*
X118607201Y73346980D02*
X118642915Y73204123D01*
X118642915Y73204123D02*
X118678629Y73132694D01*
X118678629Y73132694D02*
X118750058Y73061265D01*
X118750058Y73061265D02*
X118857201Y73025551D01*
X118857201Y73025551D02*
X119035772Y73025551D01*
X120380244Y70025795D02*
X119976183Y69621734D01*
X120380244Y69621734D02*
X119976183Y70025795D01*
X119142807Y69444957D02*
X119395346Y69697495D01*
X119395346Y69697495D02*
X119673138Y69470211D01*
X119673138Y69470211D02*
X119622630Y69470211D01*
X119622630Y69470211D02*
X119546869Y69444957D01*
X119546869Y69444957D02*
X119420599Y69318688D01*
X119420599Y69318688D02*
X119395346Y69242927D01*
X119395346Y69242927D02*
X119395346Y69192419D01*
X119395346Y69192419D02*
X119420599Y69116658D01*
X119420599Y69116658D02*
X119546869Y68990388D01*
X119546869Y68990388D02*
X119622630Y68965135D01*
X119622630Y68965135D02*
X119673138Y68965135D01*
X119673138Y68965135D02*
X119748899Y68990388D01*
X119748899Y68990388D02*
X119875168Y69116658D01*
X119875168Y69116658D02*
X119900422Y69192419D01*
X119900422Y69192419D02*
X119900422Y69242927D01*
X118966031Y69268180D02*
X119319584Y68561073D01*
X119319584Y68561073D02*
X118612477Y68914627D01*
X120869143Y70941952D02*
X120869143Y71691952D01*
X120869143Y71691952D02*
X120619143Y71156238D01*
X120619143Y71156238D02*
X120369143Y71691952D01*
X120369143Y71691952D02*
X120369143Y70941952D01*
X119869143Y71691952D02*
X119726286Y71691952D01*
X119726286Y71691952D02*
X119654857Y71656238D01*
X119654857Y71656238D02*
X119583429Y71584809D01*
X119583429Y71584809D02*
X119547714Y71441952D01*
X119547714Y71441952D02*
X119547714Y71191952D01*
X119547714Y71191952D02*
X119583429Y71049095D01*
X119583429Y71049095D02*
X119654857Y70977666D01*
X119654857Y70977666D02*
X119726286Y70941952D01*
X119726286Y70941952D02*
X119869143Y70941952D01*
X119869143Y70941952D02*
X119940572Y70977666D01*
X119940572Y70977666D02*
X120012000Y71049095D01*
X120012000Y71049095D02*
X120047714Y71191952D01*
X120047714Y71191952D02*
X120047714Y71441952D01*
X120047714Y71441952D02*
X120012000Y71584809D01*
X120012000Y71584809D02*
X119940572Y71656238D01*
X119940572Y71656238D02*
X119869143Y71691952D01*
X119262000Y70977666D02*
X119154858Y70941952D01*
X119154858Y70941952D02*
X118976286Y70941952D01*
X118976286Y70941952D02*
X118904858Y70977666D01*
X118904858Y70977666D02*
X118869143Y71013381D01*
X118869143Y71013381D02*
X118833429Y71084809D01*
X118833429Y71084809D02*
X118833429Y71156238D01*
X118833429Y71156238D02*
X118869143Y71227666D01*
X118869143Y71227666D02*
X118904858Y71263381D01*
X118904858Y71263381D02*
X118976286Y71299095D01*
X118976286Y71299095D02*
X119119143Y71334809D01*
X119119143Y71334809D02*
X119190572Y71370524D01*
X119190572Y71370524D02*
X119226286Y71406238D01*
X119226286Y71406238D02*
X119262000Y71477666D01*
X119262000Y71477666D02*
X119262000Y71549095D01*
X119262000Y71549095D02*
X119226286Y71620524D01*
X119226286Y71620524D02*
X119190572Y71656238D01*
X119190572Y71656238D02*
X119119143Y71691952D01*
X119119143Y71691952D02*
X118940572Y71691952D01*
X118940572Y71691952D02*
X118833429Y71656238D01*
X118512000Y70941952D02*
X118512000Y71691952D01*
X113130061Y68263039D02*
X113130061Y69013039D01*
X113130061Y69013039D02*
X112880061Y68477325D01*
X112880061Y68477325D02*
X112630061Y69013039D01*
X112630061Y69013039D02*
X112630061Y68263039D01*
X112272918Y68263039D02*
X112272918Y69013039D01*
X111951489Y68298753D02*
X111844347Y68263039D01*
X111844347Y68263039D02*
X111665775Y68263039D01*
X111665775Y68263039D02*
X111594347Y68298753D01*
X111594347Y68298753D02*
X111558632Y68334468D01*
X111558632Y68334468D02*
X111522918Y68405896D01*
X111522918Y68405896D02*
X111522918Y68477325D01*
X111522918Y68477325D02*
X111558632Y68548753D01*
X111558632Y68548753D02*
X111594347Y68584468D01*
X111594347Y68584468D02*
X111665775Y68620182D01*
X111665775Y68620182D02*
X111808632Y68655896D01*
X111808632Y68655896D02*
X111880061Y68691611D01*
X111880061Y68691611D02*
X111915775Y68727325D01*
X111915775Y68727325D02*
X111951489Y68798753D01*
X111951489Y68798753D02*
X111951489Y68870182D01*
X111951489Y68870182D02*
X111915775Y68941611D01*
X111915775Y68941611D02*
X111880061Y68977325D01*
X111880061Y68977325D02*
X111808632Y69013039D01*
X111808632Y69013039D02*
X111630061Y69013039D01*
X111630061Y69013039D02*
X111522918Y68977325D01*
X111058632Y69013039D02*
X110915775Y69013039D01*
X110915775Y69013039D02*
X110844346Y68977325D01*
X110844346Y68977325D02*
X110772918Y68905896D01*
X110772918Y68905896D02*
X110737203Y68763039D01*
X110737203Y68763039D02*
X110737203Y68513039D01*
X110737203Y68513039D02*
X110772918Y68370182D01*
X110772918Y68370182D02*
X110844346Y68298753D01*
X110844346Y68298753D02*
X110915775Y68263039D01*
X110915775Y68263039D02*
X111058632Y68263039D01*
X111058632Y68263039D02*
X111130061Y68298753D01*
X111130061Y68298753D02*
X111201489Y68370182D01*
X111201489Y68370182D02*
X111237203Y68513039D01*
X111237203Y68513039D02*
X111237203Y68763039D01*
X111237203Y68763039D02*
X111201489Y68905896D01*
X111201489Y68905896D02*
X111130061Y68977325D01*
X111130061Y68977325D02*
X111058632Y69013039D01*
X113165775Y70977666D02*
X113058633Y70941952D01*
X113058633Y70941952D02*
X112880061Y70941952D01*
X112880061Y70941952D02*
X112808633Y70977666D01*
X112808633Y70977666D02*
X112772918Y71013381D01*
X112772918Y71013381D02*
X112737204Y71084809D01*
X112737204Y71084809D02*
X112737204Y71156238D01*
X112737204Y71156238D02*
X112772918Y71227666D01*
X112772918Y71227666D02*
X112808633Y71263381D01*
X112808633Y71263381D02*
X112880061Y71299095D01*
X112880061Y71299095D02*
X113022918Y71334809D01*
X113022918Y71334809D02*
X113094347Y71370524D01*
X113094347Y71370524D02*
X113130061Y71406238D01*
X113130061Y71406238D02*
X113165775Y71477666D01*
X113165775Y71477666D02*
X113165775Y71549095D01*
X113165775Y71549095D02*
X113130061Y71620524D01*
X113130061Y71620524D02*
X113094347Y71656238D01*
X113094347Y71656238D02*
X113022918Y71691952D01*
X113022918Y71691952D02*
X112844347Y71691952D01*
X112844347Y71691952D02*
X112737204Y71656238D01*
X111987204Y71013381D02*
X112022918Y70977666D01*
X112022918Y70977666D02*
X112130061Y70941952D01*
X112130061Y70941952D02*
X112201489Y70941952D01*
X112201489Y70941952D02*
X112308632Y70977666D01*
X112308632Y70977666D02*
X112380061Y71049095D01*
X112380061Y71049095D02*
X112415775Y71120524D01*
X112415775Y71120524D02*
X112451489Y71263381D01*
X112451489Y71263381D02*
X112451489Y71370524D01*
X112451489Y71370524D02*
X112415775Y71513381D01*
X112415775Y71513381D02*
X112380061Y71584809D01*
X112380061Y71584809D02*
X112308632Y71656238D01*
X112308632Y71656238D02*
X112201489Y71691952D01*
X112201489Y71691952D02*
X112130061Y71691952D01*
X112130061Y71691952D02*
X112022918Y71656238D01*
X112022918Y71656238D02*
X111987204Y71620524D01*
X111665775Y70941952D02*
X111665775Y71691952D01*
X111237204Y70941952D02*
X111558632Y71370524D01*
X111237204Y71691952D02*
X111665775Y71263381D01*
X112701490Y73620865D02*
X112951490Y73978008D01*
X113130061Y73620865D02*
X113130061Y74370865D01*
X113130061Y74370865D02*
X112844347Y74370865D01*
X112844347Y74370865D02*
X112772918Y74335151D01*
X112772918Y74335151D02*
X112737204Y74299437D01*
X112737204Y74299437D02*
X112701490Y74228008D01*
X112701490Y74228008D02*
X112701490Y74120865D01*
X112701490Y74120865D02*
X112737204Y74049437D01*
X112737204Y74049437D02*
X112772918Y74013722D01*
X112772918Y74013722D02*
X112844347Y73978008D01*
X112844347Y73978008D02*
X113130061Y73978008D01*
X112415775Y73656579D02*
X112308633Y73620865D01*
X112308633Y73620865D02*
X112130061Y73620865D01*
X112130061Y73620865D02*
X112058633Y73656579D01*
X112058633Y73656579D02*
X112022918Y73692294D01*
X112022918Y73692294D02*
X111987204Y73763722D01*
X111987204Y73763722D02*
X111987204Y73835151D01*
X111987204Y73835151D02*
X112022918Y73906579D01*
X112022918Y73906579D02*
X112058633Y73942294D01*
X112058633Y73942294D02*
X112130061Y73978008D01*
X112130061Y73978008D02*
X112272918Y74013722D01*
X112272918Y74013722D02*
X112344347Y74049437D01*
X112344347Y74049437D02*
X112380061Y74085151D01*
X112380061Y74085151D02*
X112415775Y74156579D01*
X112415775Y74156579D02*
X112415775Y74228008D01*
X112415775Y74228008D02*
X112380061Y74299437D01*
X112380061Y74299437D02*
X112344347Y74335151D01*
X112344347Y74335151D02*
X112272918Y74370865D01*
X112272918Y74370865D02*
X112094347Y74370865D01*
X112094347Y74370865D02*
X111987204Y74335151D01*
X111772918Y74370865D02*
X111344347Y74370865D01*
X111558632Y73620865D02*
X111558632Y74370865D01*
X106870535Y5895181D02*
X107441963Y5895181D01*
X107156249Y5895181D02*
X107156249Y6895181D01*
X107156249Y6895181D02*
X107251487Y6752324D01*
X107251487Y6752324D02*
X107346725Y6657086D01*
X107346725Y6657086D02*
X107441963Y6609467D01*
X35433035Y5895181D02*
X36004463Y5895181D01*
X35718749Y5895181D02*
X35718749Y6895181D01*
X35718749Y6895181D02*
X35813987Y6752324D01*
X35813987Y6752324D02*
X35909225Y6657086D01*
X35909225Y6657086D02*
X36004463Y6609467D01*
X107441963Y5212443D02*
X107394344Y5260062D01*
X107394344Y5260062D02*
X107299106Y5307681D01*
X107299106Y5307681D02*
X107061011Y5307681D01*
X107061011Y5307681D02*
X106965773Y5260062D01*
X106965773Y5260062D02*
X106918154Y5212443D01*
X106918154Y5212443D02*
X106870535Y5117205D01*
X106870535Y5117205D02*
X106870535Y5021967D01*
X106870535Y5021967D02*
X106918154Y4879110D01*
X106918154Y4879110D02*
X107489582Y4307681D01*
X107489582Y4307681D02*
X106870535Y4307681D01*
X86058332Y7026431D02*
X85439285Y7026431D01*
X85439285Y7026431D02*
X85772618Y6645479D01*
X85772618Y6645479D02*
X85629761Y6645479D01*
X85629761Y6645479D02*
X85534523Y6597860D01*
X85534523Y6597860D02*
X85486904Y6550241D01*
X85486904Y6550241D02*
X85439285Y6455003D01*
X85439285Y6455003D02*
X85439285Y6216908D01*
X85439285Y6216908D02*
X85486904Y6121670D01*
X85486904Y6121670D02*
X85534523Y6074050D01*
X85534523Y6074050D02*
X85629761Y6026431D01*
X85629761Y6026431D02*
X85915475Y6026431D01*
X85915475Y6026431D02*
X86010713Y6074050D01*
X86010713Y6074050D02*
X86058332Y6121670D01*
X17123569Y25169643D02*
X17123569Y25741071D01*
X17123569Y25455357D02*
X16123569Y25455357D01*
X16123569Y25455357D02*
X16266426Y25550595D01*
X16266426Y25550595D02*
X16361664Y25645833D01*
X16361664Y25645833D02*
X16409283Y25741071D01*
X17028330Y24741071D02*
X17075950Y24693452D01*
X17075950Y24693452D02*
X17123569Y24741071D01*
X17123569Y24741071D02*
X17075950Y24788690D01*
X17075950Y24788690D02*
X17028330Y24741071D01*
X17028330Y24741071D02*
X17123569Y24741071D01*
X16218807Y24312500D02*
X16171188Y24264881D01*
X16171188Y24264881D02*
X16123569Y24169643D01*
X16123569Y24169643D02*
X16123569Y23931548D01*
X16123569Y23931548D02*
X16171188Y23836310D01*
X16171188Y23836310D02*
X16218807Y23788691D01*
X16218807Y23788691D02*
X16314045Y23741072D01*
X16314045Y23741072D02*
X16409283Y23741072D01*
X16409283Y23741072D02*
X16552140Y23788691D01*
X16552140Y23788691D02*
X17123569Y24360119D01*
X17123569Y24360119D02*
X17123569Y23741072D01*
X16123569Y22836310D02*
X16123569Y23312500D01*
X16123569Y23312500D02*
X16599759Y23360119D01*
X16599759Y23360119D02*
X16552140Y23312500D01*
X16552140Y23312500D02*
X16504521Y23217262D01*
X16504521Y23217262D02*
X16504521Y22979167D01*
X16504521Y22979167D02*
X16552140Y22883929D01*
X16552140Y22883929D02*
X16599759Y22836310D01*
X16599759Y22836310D02*
X16694997Y22788691D01*
X16694997Y22788691D02*
X16933092Y22788691D01*
X16933092Y22788691D02*
X17028330Y22836310D01*
X17028330Y22836310D02*
X17075950Y22883929D01*
X17075950Y22883929D02*
X17123569Y22979167D01*
X17123569Y22979167D02*
X17123569Y23217262D01*
X17123569Y23217262D02*
X17075950Y23312500D01*
X17075950Y23312500D02*
X17028330Y23360119D01*
X16456902Y21931548D02*
X17123569Y21931548D01*
X16456902Y22360119D02*
X16980711Y22360119D01*
X16980711Y22360119D02*
X17075950Y22312500D01*
X17075950Y22312500D02*
X17123569Y22217262D01*
X17123569Y22217262D02*
X17123569Y22074405D01*
X17123569Y22074405D02*
X17075950Y21979167D01*
X17075950Y21979167D02*
X17028330Y21931548D01*
X78866963Y6799943D02*
X78819344Y6847562D01*
X78819344Y6847562D02*
X78724106Y6895181D01*
X78724106Y6895181D02*
X78486011Y6895181D01*
X78486011Y6895181D02*
X78390773Y6847562D01*
X78390773Y6847562D02*
X78343154Y6799943D01*
X78343154Y6799943D02*
X78295535Y6704705D01*
X78295535Y6704705D02*
X78295535Y6609467D01*
X78295535Y6609467D02*
X78343154Y6466610D01*
X78343154Y6466610D02*
X78914582Y5895181D01*
X78914582Y5895181D02*
X78295535Y5895181D01*
X36004463Y5212443D02*
X35956844Y5260062D01*
X35956844Y5260062D02*
X35861606Y5307681D01*
X35861606Y5307681D02*
X35623511Y5307681D01*
X35623511Y5307681D02*
X35528273Y5260062D01*
X35528273Y5260062D02*
X35480654Y5212443D01*
X35480654Y5212443D02*
X35433035Y5117205D01*
X35433035Y5117205D02*
X35433035Y5021967D01*
X35433035Y5021967D02*
X35480654Y4879110D01*
X35480654Y4879110D02*
X36052082Y4307681D01*
X36052082Y4307681D02*
X35433035Y4307681D01*
X80676785Y5895181D02*
X81248213Y5895181D01*
X80962499Y5895181D02*
X80962499Y6895181D01*
X80962499Y6895181D02*
X81057737Y6752324D01*
X81057737Y6752324D02*
X81152975Y6657086D01*
X81152975Y6657086D02*
X81248213Y6609467D01*
X190785713Y6799943D02*
X190738094Y6847562D01*
X190738094Y6847562D02*
X190642856Y6895181D01*
X190642856Y6895181D02*
X190404761Y6895181D01*
X190404761Y6895181D02*
X190309523Y6847562D01*
X190309523Y6847562D02*
X190261904Y6799943D01*
X190261904Y6799943D02*
X190214285Y6704705D01*
X190214285Y6704705D02*
X190214285Y6609467D01*
X190214285Y6609467D02*
X190261904Y6466610D01*
X190261904Y6466610D02*
X190833332Y5895181D01*
X190833332Y5895181D02*
X190214285Y5895181D01*
X59245535Y5895181D02*
X59816963Y5895181D01*
X59531249Y5895181D02*
X59531249Y6895181D01*
X59531249Y6895181D02*
X59626487Y6752324D01*
X59626487Y6752324D02*
X59721725Y6657086D01*
X59721725Y6657086D02*
X59816963Y6609467D01*
X162258332Y6895181D02*
X161639285Y6895181D01*
X161639285Y6895181D02*
X161972618Y6514229D01*
X161972618Y6514229D02*
X161829761Y6514229D01*
X161829761Y6514229D02*
X161734523Y6466610D01*
X161734523Y6466610D02*
X161686904Y6418991D01*
X161686904Y6418991D02*
X161639285Y6323753D01*
X161639285Y6323753D02*
X161639285Y6085658D01*
X161639285Y6085658D02*
X161686904Y5990420D01*
X161686904Y5990420D02*
X161734523Y5942800D01*
X161734523Y5942800D02*
X161829761Y5895181D01*
X161829761Y5895181D02*
X162115475Y5895181D01*
X162115475Y5895181D02*
X162210713Y5942800D01*
X162210713Y5942800D02*
X162258332Y5990420D01*
X233817319Y25169644D02*
X233817319Y25741072D01*
X233817319Y25455358D02*
X232817319Y25455358D01*
X232817319Y25455358D02*
X232960176Y25550596D01*
X232960176Y25550596D02*
X233055414Y25645834D01*
X233055414Y25645834D02*
X233103033Y25741072D01*
X233722080Y24741072D02*
X233769700Y24693453D01*
X233769700Y24693453D02*
X233817319Y24741072D01*
X233817319Y24741072D02*
X233769700Y24788691D01*
X233769700Y24788691D02*
X233722080Y24741072D01*
X233722080Y24741072D02*
X233817319Y24741072D01*
X232817319Y23788692D02*
X232817319Y24264882D01*
X232817319Y24264882D02*
X233293509Y24312501D01*
X233293509Y24312501D02*
X233245890Y24264882D01*
X233245890Y24264882D02*
X233198271Y24169644D01*
X233198271Y24169644D02*
X233198271Y23931549D01*
X233198271Y23931549D02*
X233245890Y23836311D01*
X233245890Y23836311D02*
X233293509Y23788692D01*
X233293509Y23788692D02*
X233388747Y23741073D01*
X233388747Y23741073D02*
X233626842Y23741073D01*
X233626842Y23741073D02*
X233722080Y23788692D01*
X233722080Y23788692D02*
X233769700Y23836311D01*
X233769700Y23836311D02*
X233817319Y23931549D01*
X233817319Y23931549D02*
X233817319Y24169644D01*
X233817319Y24169644D02*
X233769700Y24264882D01*
X233769700Y24264882D02*
X233722080Y24312501D01*
X233150652Y22883930D02*
X233817319Y22883930D01*
X233150652Y23312501D02*
X233674461Y23312501D01*
X233674461Y23312501D02*
X233769700Y23264882D01*
X233769700Y23264882D02*
X233817319Y23169644D01*
X233817319Y23169644D02*
X233817319Y23026787D01*
X233817319Y23026787D02*
X233769700Y22931549D01*
X233769700Y22931549D02*
X233722080Y22883930D01*
X14742319Y25169644D02*
X14742319Y25741072D01*
X14742319Y25455358D02*
X13742319Y25455358D01*
X13742319Y25455358D02*
X13885176Y25550596D01*
X13885176Y25550596D02*
X13980414Y25645834D01*
X13980414Y25645834D02*
X14028033Y25741072D01*
X14647080Y24741072D02*
X14694700Y24693453D01*
X14694700Y24693453D02*
X14742319Y24741072D01*
X14742319Y24741072D02*
X14694700Y24788691D01*
X14694700Y24788691D02*
X14647080Y24741072D01*
X14647080Y24741072D02*
X14742319Y24741072D01*
X13742319Y23788692D02*
X13742319Y24264882D01*
X13742319Y24264882D02*
X14218509Y24312501D01*
X14218509Y24312501D02*
X14170890Y24264882D01*
X14170890Y24264882D02*
X14123271Y24169644D01*
X14123271Y24169644D02*
X14123271Y23931549D01*
X14123271Y23931549D02*
X14170890Y23836311D01*
X14170890Y23836311D02*
X14218509Y23788692D01*
X14218509Y23788692D02*
X14313747Y23741073D01*
X14313747Y23741073D02*
X14551842Y23741073D01*
X14551842Y23741073D02*
X14647080Y23788692D01*
X14647080Y23788692D02*
X14694700Y23836311D01*
X14694700Y23836311D02*
X14742319Y23931549D01*
X14742319Y23931549D02*
X14742319Y24169644D01*
X14742319Y24169644D02*
X14694700Y24264882D01*
X14694700Y24264882D02*
X14647080Y24312501D01*
X14075652Y22883930D02*
X14742319Y22883930D01*
X14075652Y23312501D02*
X14599461Y23312501D01*
X14599461Y23312501D02*
X14694700Y23264882D01*
X14694700Y23264882D02*
X14742319Y23169644D01*
X14742319Y23169644D02*
X14742319Y23026787D01*
X14742319Y23026787D02*
X14694700Y22931549D01*
X14694700Y22931549D02*
X14647080Y22883930D01*
X231436069Y25169643D02*
X231436069Y25741071D01*
X231436069Y25455357D02*
X230436069Y25455357D01*
X230436069Y25455357D02*
X230578926Y25550595D01*
X230578926Y25550595D02*
X230674164Y25645833D01*
X230674164Y25645833D02*
X230721783Y25741071D01*
X231340830Y24741071D02*
X231388450Y24693452D01*
X231388450Y24693452D02*
X231436069Y24741071D01*
X231436069Y24741071D02*
X231388450Y24788690D01*
X231388450Y24788690D02*
X231340830Y24741071D01*
X231340830Y24741071D02*
X231436069Y24741071D01*
X230531307Y24312500D02*
X230483688Y24264881D01*
X230483688Y24264881D02*
X230436069Y24169643D01*
X230436069Y24169643D02*
X230436069Y23931548D01*
X230436069Y23931548D02*
X230483688Y23836310D01*
X230483688Y23836310D02*
X230531307Y23788691D01*
X230531307Y23788691D02*
X230626545Y23741072D01*
X230626545Y23741072D02*
X230721783Y23741072D01*
X230721783Y23741072D02*
X230864640Y23788691D01*
X230864640Y23788691D02*
X231436069Y24360119D01*
X231436069Y24360119D02*
X231436069Y23741072D01*
X230436069Y22836310D02*
X230436069Y23312500D01*
X230436069Y23312500D02*
X230912259Y23360119D01*
X230912259Y23360119D02*
X230864640Y23312500D01*
X230864640Y23312500D02*
X230817021Y23217262D01*
X230817021Y23217262D02*
X230817021Y22979167D01*
X230817021Y22979167D02*
X230864640Y22883929D01*
X230864640Y22883929D02*
X230912259Y22836310D01*
X230912259Y22836310D02*
X231007497Y22788691D01*
X231007497Y22788691D02*
X231245592Y22788691D01*
X231245592Y22788691D02*
X231340830Y22836310D01*
X231340830Y22836310D02*
X231388450Y22883929D01*
X231388450Y22883929D02*
X231436069Y22979167D01*
X231436069Y22979167D02*
X231436069Y23217262D01*
X231436069Y23217262D02*
X231388450Y23312500D01*
X231388450Y23312500D02*
X231340830Y23360119D01*
X230769402Y21931548D02*
X231436069Y21931548D01*
X230769402Y22360119D02*
X231293211Y22360119D01*
X231293211Y22360119D02*
X231388450Y22312500D01*
X231388450Y22312500D02*
X231436069Y22217262D01*
X231436069Y22217262D02*
X231436069Y22074405D01*
X231436069Y22074405D02*
X231388450Y21979167D01*
X231388450Y21979167D02*
X231340830Y21931548D01*
X211645535Y5895181D02*
X212216963Y5895181D01*
X211931249Y5895181D02*
X211931249Y6895181D01*
X211931249Y6895181D02*
X212026487Y6752324D01*
X212026487Y6752324D02*
X212121725Y6657086D01*
X212121725Y6657086D02*
X212216963Y6609467D01*
X109870832Y6895181D02*
X109251785Y6895181D01*
X109251785Y6895181D02*
X109585118Y6514229D01*
X109585118Y6514229D02*
X109442261Y6514229D01*
X109442261Y6514229D02*
X109347023Y6466610D01*
X109347023Y6466610D02*
X109299404Y6418991D01*
X109299404Y6418991D02*
X109251785Y6323753D01*
X109251785Y6323753D02*
X109251785Y6085658D01*
X109251785Y6085658D02*
X109299404Y5990420D01*
X109299404Y5990420D02*
X109347023Y5942800D01*
X109347023Y5942800D02*
X109442261Y5895181D01*
X109442261Y5895181D02*
X109727975Y5895181D01*
X109727975Y5895181D02*
X109823213Y5942800D01*
X109823213Y5942800D02*
X109870832Y5990420D01*
X181308332Y6895181D02*
X180689285Y6895181D01*
X180689285Y6895181D02*
X181022618Y6514229D01*
X181022618Y6514229D02*
X180879761Y6514229D01*
X180879761Y6514229D02*
X180784523Y6466610D01*
X180784523Y6466610D02*
X180736904Y6418991D01*
X180736904Y6418991D02*
X180689285Y6323753D01*
X180689285Y6323753D02*
X180689285Y6085658D01*
X180689285Y6085658D02*
X180736904Y5990420D01*
X180736904Y5990420D02*
X180784523Y5942800D01*
X180784523Y5942800D02*
X180879761Y5895181D01*
X180879761Y5895181D02*
X181165475Y5895181D01*
X181165475Y5895181D02*
X181260713Y5942800D01*
X181260713Y5942800D02*
X181308332Y5990420D01*
X207502082Y6895181D02*
X206883035Y6895181D01*
X206883035Y6895181D02*
X207216368Y6514229D01*
X207216368Y6514229D02*
X207073511Y6514229D01*
X207073511Y6514229D02*
X206978273Y6466610D01*
X206978273Y6466610D02*
X206930654Y6418991D01*
X206930654Y6418991D02*
X206883035Y6323753D01*
X206883035Y6323753D02*
X206883035Y6085658D01*
X206883035Y6085658D02*
X206930654Y5990420D01*
X206930654Y5990420D02*
X206978273Y5942800D01*
X206978273Y5942800D02*
X207073511Y5895181D01*
X207073511Y5895181D02*
X207359225Y5895181D01*
X207359225Y5895181D02*
X207454463Y5942800D01*
X207454463Y5942800D02*
X207502082Y5990420D01*
X140208035Y5895181D02*
X140779463Y5895181D01*
X140493749Y5895181D02*
X140493749Y6895181D01*
X140493749Y6895181D02*
X140588987Y6752324D01*
X140588987Y6752324D02*
X140684225Y6657086D01*
X140684225Y6657086D02*
X140779463Y6609467D01*
X166401785Y5895181D02*
X166973213Y5895181D01*
X166687499Y5895181D02*
X166687499Y6895181D01*
X166687499Y6895181D02*
X166782737Y6752324D01*
X166782737Y6752324D02*
X166877975Y6657086D01*
X166877975Y6657086D02*
X166973213Y6609467D01*
X187833035Y5895181D02*
X188404463Y5895181D01*
X188118749Y5895181D02*
X188118749Y6895181D01*
X188118749Y6895181D02*
X188213987Y6752324D01*
X188213987Y6752324D02*
X188309225Y6657086D01*
X188309225Y6657086D02*
X188404463Y6609467D01*
X138445832Y6895181D02*
X137826785Y6895181D01*
X137826785Y6895181D02*
X138160118Y6514229D01*
X138160118Y6514229D02*
X138017261Y6514229D01*
X138017261Y6514229D02*
X137922023Y6466610D01*
X137922023Y6466610D02*
X137874404Y6418991D01*
X137874404Y6418991D02*
X137826785Y6323753D01*
X137826785Y6323753D02*
X137826785Y6085658D01*
X137826785Y6085658D02*
X137874404Y5990420D01*
X137874404Y5990420D02*
X137922023Y5942800D01*
X137922023Y5942800D02*
X138017261Y5895181D01*
X138017261Y5895181D02*
X138302975Y5895181D01*
X138302975Y5895181D02*
X138398213Y5942800D01*
X138398213Y5942800D02*
X138445832Y5990420D01*
X19504819Y25169643D02*
X19504819Y25741071D01*
X19504819Y25455357D02*
X18504819Y25455357D01*
X18504819Y25455357D02*
X18647676Y25550595D01*
X18647676Y25550595D02*
X18742914Y25645833D01*
X18742914Y25645833D02*
X18790533Y25741071D01*
X18838152Y24312500D02*
X19504819Y24312500D01*
X18838152Y24741071D02*
X19361961Y24741071D01*
X19361961Y24741071D02*
X19457200Y24693452D01*
X19457200Y24693452D02*
X19504819Y24598214D01*
X19504819Y24598214D02*
X19504819Y24455357D01*
X19504819Y24455357D02*
X19457200Y24360119D01*
X19457200Y24360119D02*
X19409580Y24312500D01*
X229054819Y25169643D02*
X229054819Y25741071D01*
X229054819Y25455357D02*
X228054819Y25455357D01*
X228054819Y25455357D02*
X228197676Y25550595D01*
X228197676Y25550595D02*
X228292914Y25645833D01*
X228292914Y25645833D02*
X228340533Y25741071D01*
X228388152Y24312500D02*
X229054819Y24312500D01*
X228388152Y24741071D02*
X228911961Y24741071D01*
X228911961Y24741071D02*
X229007200Y24693452D01*
X229007200Y24693452D02*
X229054819Y24598214D01*
X229054819Y24598214D02*
X229054819Y24455357D01*
X229054819Y24455357D02*
X229007200Y24360119D01*
X229007200Y24360119D02*
X228959580Y24312500D01*
X140779463Y5212443D02*
X140731844Y5260062D01*
X140731844Y5260062D02*
X140636606Y5307681D01*
X140636606Y5307681D02*
X140398511Y5307681D01*
X140398511Y5307681D02*
X140303273Y5260062D01*
X140303273Y5260062D02*
X140255654Y5212443D01*
X140255654Y5212443D02*
X140208035Y5117205D01*
X140208035Y5117205D02*
X140208035Y5021967D01*
X140208035Y5021967D02*
X140255654Y4879110D01*
X140255654Y4879110D02*
X140827082Y4307681D01*
X140827082Y4307681D02*
X140208035Y4307681D01*
X67008332Y6895181D02*
X66389285Y6895181D01*
X66389285Y6895181D02*
X66722618Y6514229D01*
X66722618Y6514229D02*
X66579761Y6514229D01*
X66579761Y6514229D02*
X66484523Y6466610D01*
X66484523Y6466610D02*
X66436904Y6418991D01*
X66436904Y6418991D02*
X66389285Y6323753D01*
X66389285Y6323753D02*
X66389285Y6085658D01*
X66389285Y6085658D02*
X66436904Y5990420D01*
X66436904Y5990420D02*
X66484523Y5942800D01*
X66484523Y5942800D02*
X66579761Y5895181D01*
X66579761Y5895181D02*
X66865475Y5895181D01*
X66865475Y5895181D02*
X66960713Y5942800D01*
X66960713Y5942800D02*
X67008332Y5990420D01*
X212216963Y5212443D02*
X212169344Y5260062D01*
X212169344Y5260062D02*
X212074106Y5307681D01*
X212074106Y5307681D02*
X211836011Y5307681D01*
X211836011Y5307681D02*
X211740773Y5260062D01*
X211740773Y5260062D02*
X211693154Y5212443D01*
X211693154Y5212443D02*
X211645535Y5117205D01*
X211645535Y5117205D02*
X211645535Y5021967D01*
X211645535Y5021967D02*
X211693154Y4879110D01*
X211693154Y4879110D02*
X212264582Y4307681D01*
X212264582Y4307681D02*
X211645535Y4307681D01*
X169354463Y6799943D02*
X169306844Y6847562D01*
X169306844Y6847562D02*
X169211606Y6895181D01*
X169211606Y6895181D02*
X168973511Y6895181D01*
X168973511Y6895181D02*
X168878273Y6847562D01*
X168878273Y6847562D02*
X168830654Y6799943D01*
X168830654Y6799943D02*
X168783035Y6704705D01*
X168783035Y6704705D02*
X168783035Y6609467D01*
X168783035Y6609467D02*
X168830654Y6466610D01*
X168830654Y6466610D02*
X169402082Y5895181D01*
X169402082Y5895181D02*
X168783035Y5895181D01*
X40814582Y6895181D02*
X40195535Y6895181D01*
X40195535Y6895181D02*
X40528868Y6514229D01*
X40528868Y6514229D02*
X40386011Y6514229D01*
X40386011Y6514229D02*
X40290773Y6466610D01*
X40290773Y6466610D02*
X40243154Y6418991D01*
X40243154Y6418991D02*
X40195535Y6323753D01*
X40195535Y6323753D02*
X40195535Y6085658D01*
X40195535Y6085658D02*
X40243154Y5990420D01*
X40243154Y5990420D02*
X40290773Y5942800D01*
X40290773Y5942800D02*
X40386011Y5895181D01*
X40386011Y5895181D02*
X40671725Y5895181D01*
X40671725Y5895181D02*
X40766963Y5942800D01*
X40766963Y5942800D02*
X40814582Y5990420D01*
X57435713Y6799943D02*
X57388094Y6847562D01*
X57388094Y6847562D02*
X57292856Y6895181D01*
X57292856Y6895181D02*
X57054761Y6895181D01*
X57054761Y6895181D02*
X56959523Y6847562D01*
X56959523Y6847562D02*
X56911904Y6799943D01*
X56911904Y6799943D02*
X56864285Y6704705D01*
X56864285Y6704705D02*
X56864285Y6609467D01*
X56864285Y6609467D02*
X56911904Y6466610D01*
X56911904Y6466610D02*
X57483332Y5895181D01*
X57483332Y5895181D02*
X56864285Y5895181D01*
X123279819Y49815476D02*
X123279819Y49244048D01*
X124279819Y49529762D02*
X123279819Y49529762D01*
X124279819Y48910714D02*
X123279819Y48910714D01*
X123279819Y48910714D02*
X123279819Y48529762D01*
X123279819Y48529762D02*
X123327438Y48434524D01*
X123327438Y48434524D02*
X123375057Y48386905D01*
X123375057Y48386905D02*
X123470295Y48339286D01*
X123470295Y48339286D02*
X123613152Y48339286D01*
X123613152Y48339286D02*
X123708390Y48386905D01*
X123708390Y48386905D02*
X123756009Y48434524D01*
X123756009Y48434524D02*
X123803628Y48529762D01*
X123803628Y48529762D02*
X123803628Y48910714D01*
X124184580Y47339286D02*
X124232200Y47386905D01*
X124232200Y47386905D02*
X124279819Y47529762D01*
X124279819Y47529762D02*
X124279819Y47625000D01*
X124279819Y47625000D02*
X124232200Y47767857D01*
X124232200Y47767857D02*
X124136961Y47863095D01*
X124136961Y47863095D02*
X124041723Y47910714D01*
X124041723Y47910714D02*
X123851247Y47958333D01*
X123851247Y47958333D02*
X123708390Y47958333D01*
X123708390Y47958333D02*
X123517914Y47910714D01*
X123517914Y47910714D02*
X123422676Y47863095D01*
X123422676Y47863095D02*
X123327438Y47767857D01*
X123327438Y47767857D02*
X123279819Y47625000D01*
X123279819Y47625000D02*
X123279819Y47529762D01*
X123279819Y47529762D02*
X123327438Y47386905D01*
X123327438Y47386905D02*
X123375057Y47339286D01*
X124279819Y46434524D02*
X124279819Y46910714D01*
X124279819Y46910714D02*
X123279819Y46910714D01*
X124279819Y46101190D02*
X123279819Y46101190D01*
X124279819Y45529762D02*
X123708390Y45958333D01*
X123279819Y45529762D02*
X123851247Y46101190D01*
X120898569Y49934524D02*
X120898569Y49363096D01*
X121898569Y49648810D02*
X120898569Y49648810D01*
X121898569Y49029762D02*
X120898569Y49029762D01*
X120898569Y49029762D02*
X120898569Y48648810D01*
X120898569Y48648810D02*
X120946188Y48553572D01*
X120946188Y48553572D02*
X120993807Y48505953D01*
X120993807Y48505953D02*
X121089045Y48458334D01*
X121089045Y48458334D02*
X121231902Y48458334D01*
X121231902Y48458334D02*
X121327140Y48505953D01*
X121327140Y48505953D02*
X121374759Y48553572D01*
X121374759Y48553572D02*
X121422378Y48648810D01*
X121422378Y48648810D02*
X121422378Y49029762D01*
X120946188Y47505953D02*
X120898569Y47601191D01*
X120898569Y47601191D02*
X120898569Y47744048D01*
X120898569Y47744048D02*
X120946188Y47886905D01*
X120946188Y47886905D02*
X121041426Y47982143D01*
X121041426Y47982143D02*
X121136664Y48029762D01*
X121136664Y48029762D02*
X121327140Y48077381D01*
X121327140Y48077381D02*
X121469997Y48077381D01*
X121469997Y48077381D02*
X121660473Y48029762D01*
X121660473Y48029762D02*
X121755711Y47982143D01*
X121755711Y47982143D02*
X121850950Y47886905D01*
X121850950Y47886905D02*
X121898569Y47744048D01*
X121898569Y47744048D02*
X121898569Y47648810D01*
X121898569Y47648810D02*
X121850950Y47505953D01*
X121850950Y47505953D02*
X121803330Y47458334D01*
X121803330Y47458334D02*
X121469997Y47458334D01*
X121469997Y47458334D02*
X121469997Y47648810D01*
X121898569Y47029762D02*
X120898569Y47029762D01*
X120898569Y47029762D02*
X121898569Y46458334D01*
X121898569Y46458334D02*
X120898569Y46458334D01*
X121898569Y45982143D02*
X120898569Y45982143D01*
X120898569Y45982143D02*
X120898569Y45744048D01*
X120898569Y45744048D02*
X120946188Y45601191D01*
X120946188Y45601191D02*
X121041426Y45505953D01*
X121041426Y45505953D02*
X121136664Y45458334D01*
X121136664Y45458334D02*
X121327140Y45410715D01*
X121327140Y45410715D02*
X121469997Y45410715D01*
X121469997Y45410715D02*
X121660473Y45458334D01*
X121660473Y45458334D02*
X121755711Y45505953D01*
X121755711Y45505953D02*
X121850950Y45601191D01*
X121850950Y45601191D02*
X121898569Y45744048D01*
X121898569Y45744048D02*
X121898569Y45982143D01*
X118101785Y44995181D02*
X117530357Y44995181D01*
X117816071Y43995181D02*
X117816071Y44995181D01*
X117197023Y43995181D02*
X117197023Y44995181D01*
X117197023Y44995181D02*
X116816071Y44995181D01*
X116816071Y44995181D02*
X116720833Y44947562D01*
X116720833Y44947562D02*
X116673214Y44899943D01*
X116673214Y44899943D02*
X116625595Y44804705D01*
X116625595Y44804705D02*
X116625595Y44661848D01*
X116625595Y44661848D02*
X116673214Y44566610D01*
X116673214Y44566610D02*
X116720833Y44518991D01*
X116720833Y44518991D02*
X116816071Y44471372D01*
X116816071Y44471372D02*
X117197023Y44471372D01*
X116339880Y44995181D02*
X116006547Y43995181D01*
X116006547Y43995181D02*
X115673214Y44995181D01*
X114768452Y44090420D02*
X114816071Y44042800D01*
X114816071Y44042800D02*
X114958928Y43995181D01*
X114958928Y43995181D02*
X115054166Y43995181D01*
X115054166Y43995181D02*
X115197023Y44042800D01*
X115197023Y44042800D02*
X115292261Y44138039D01*
X115292261Y44138039D02*
X115339880Y44233277D01*
X115339880Y44233277D02*
X115387499Y44423753D01*
X115387499Y44423753D02*
X115387499Y44566610D01*
X115387499Y44566610D02*
X115339880Y44757086D01*
X115339880Y44757086D02*
X115292261Y44852324D01*
X115292261Y44852324D02*
X115197023Y44947562D01*
X115197023Y44947562D02*
X115054166Y44995181D01*
X115054166Y44995181D02*
X114958928Y44995181D01*
X114958928Y44995181D02*
X114816071Y44947562D01*
X114816071Y44947562D02*
X114768452Y44899943D01*
X113768452Y44090420D02*
X113816071Y44042800D01*
X113816071Y44042800D02*
X113958928Y43995181D01*
X113958928Y43995181D02*
X114054166Y43995181D01*
X114054166Y43995181D02*
X114197023Y44042800D01*
X114197023Y44042800D02*
X114292261Y44138039D01*
X114292261Y44138039D02*
X114339880Y44233277D01*
X114339880Y44233277D02*
X114387499Y44423753D01*
X114387499Y44423753D02*
X114387499Y44566610D01*
X114387499Y44566610D02*
X114339880Y44757086D01*
X114339880Y44757086D02*
X114292261Y44852324D01*
X114292261Y44852324D02*
X114197023Y44947562D01*
X114197023Y44947562D02*
X114054166Y44995181D01*
X114054166Y44995181D02*
X113958928Y44995181D01*
X113958928Y44995181D02*
X113816071Y44947562D01*
X113816071Y44947562D02*
X113768452Y44899943D01*
X125661069Y49767857D02*
X125661069Y49196429D01*
X126661069Y49482143D02*
X125661069Y49482143D01*
X126661069Y48863095D02*
X125661069Y48863095D01*
X125661069Y48863095D02*
X125661069Y48482143D01*
X125661069Y48482143D02*
X125708688Y48386905D01*
X125708688Y48386905D02*
X125756307Y48339286D01*
X125756307Y48339286D02*
X125851545Y48291667D01*
X125851545Y48291667D02*
X125994402Y48291667D01*
X125994402Y48291667D02*
X126089640Y48339286D01*
X126089640Y48339286D02*
X126137259Y48386905D01*
X126137259Y48386905D02*
X126184878Y48482143D01*
X126184878Y48482143D02*
X126184878Y48863095D01*
X126661069Y47291667D02*
X126184878Y47625000D01*
X126661069Y47863095D02*
X125661069Y47863095D01*
X125661069Y47863095D02*
X125661069Y47482143D01*
X125661069Y47482143D02*
X125708688Y47386905D01*
X125708688Y47386905D02*
X125756307Y47339286D01*
X125756307Y47339286D02*
X125851545Y47291667D01*
X125851545Y47291667D02*
X125994402Y47291667D01*
X125994402Y47291667D02*
X126089640Y47339286D01*
X126089640Y47339286D02*
X126137259Y47386905D01*
X126137259Y47386905D02*
X126184878Y47482143D01*
X126184878Y47482143D02*
X126184878Y47863095D01*
X126613450Y46910714D02*
X126661069Y46767857D01*
X126661069Y46767857D02*
X126661069Y46529762D01*
X126661069Y46529762D02*
X126613450Y46434524D01*
X126613450Y46434524D02*
X126565830Y46386905D01*
X126565830Y46386905D02*
X126470592Y46339286D01*
X126470592Y46339286D02*
X126375354Y46339286D01*
X126375354Y46339286D02*
X126280116Y46386905D01*
X126280116Y46386905D02*
X126232497Y46434524D01*
X126232497Y46434524D02*
X126184878Y46529762D01*
X126184878Y46529762D02*
X126137259Y46720238D01*
X126137259Y46720238D02*
X126089640Y46815476D01*
X126089640Y46815476D02*
X126042021Y46863095D01*
X126042021Y46863095D02*
X125946783Y46910714D01*
X125946783Y46910714D02*
X125851545Y46910714D01*
X125851545Y46910714D02*
X125756307Y46863095D01*
X125756307Y46863095D02*
X125708688Y46815476D01*
X125708688Y46815476D02*
X125661069Y46720238D01*
X125661069Y46720238D02*
X125661069Y46482143D01*
X125661069Y46482143D02*
X125708688Y46339286D01*
X125661069Y46053571D02*
X125661069Y45482143D01*
X126661069Y45767857D02*
X125661069Y45767857D01*
X135080059Y44995181D02*
X134508631Y44995181D01*
X134794345Y43995181D02*
X134794345Y44995181D01*
X134175297Y43995181D02*
X134175297Y44995181D01*
X134175297Y44995181D02*
X133794345Y44995181D01*
X133794345Y44995181D02*
X133699107Y44947562D01*
X133699107Y44947562D02*
X133651488Y44899943D01*
X133651488Y44899943D02*
X133603869Y44804705D01*
X133603869Y44804705D02*
X133603869Y44661848D01*
X133603869Y44661848D02*
X133651488Y44566610D01*
X133651488Y44566610D02*
X133699107Y44518991D01*
X133699107Y44518991D02*
X133794345Y44471372D01*
X133794345Y44471372D02*
X134175297Y44471372D01*
X133175297Y43995181D02*
X133175297Y44995181D01*
X133175297Y44995181D02*
X132937202Y44995181D01*
X132937202Y44995181D02*
X132794345Y44947562D01*
X132794345Y44947562D02*
X132699107Y44852324D01*
X132699107Y44852324D02*
X132651488Y44757086D01*
X132651488Y44757086D02*
X132603869Y44566610D01*
X132603869Y44566610D02*
X132603869Y44423753D01*
X132603869Y44423753D02*
X132651488Y44233277D01*
X132651488Y44233277D02*
X132699107Y44138039D01*
X132699107Y44138039D02*
X132794345Y44042800D01*
X132794345Y44042800D02*
X132937202Y43995181D01*
X132937202Y43995181D02*
X133175297Y43995181D01*
X132222916Y44280896D02*
X131746726Y44280896D01*
X132318154Y43995181D02*
X131984821Y44995181D01*
X131984821Y44995181D02*
X131651488Y43995181D01*
X131461011Y44995181D02*
X130889583Y44995181D01*
X131175297Y43995181D02*
X131175297Y44995181D01*
X130603868Y44280896D02*
X130127678Y44280896D01*
X130699106Y43995181D02*
X130365773Y44995181D01*
X130365773Y44995181D02*
X130032440Y43995181D01*
X113280163Y58398178D02*
X113280163Y57588655D01*
X113280163Y57588655D02*
X113232544Y57493417D01*
X113232544Y57493417D02*
X113184925Y57445797D01*
X113184925Y57445797D02*
X113089687Y57398178D01*
X113089687Y57398178D02*
X112899211Y57398178D01*
X112899211Y57398178D02*
X112803973Y57445797D01*
X112803973Y57445797D02*
X112756354Y57493417D01*
X112756354Y57493417D02*
X112708735Y57588655D01*
X112708735Y57588655D02*
X112708735Y58398178D01*
X111661116Y57398178D02*
X111994449Y57874369D01*
X112232544Y57398178D02*
X112232544Y58398178D01*
X112232544Y58398178D02*
X111851592Y58398178D01*
X111851592Y58398178D02*
X111756354Y58350559D01*
X111756354Y58350559D02*
X111708735Y58302940D01*
X111708735Y58302940D02*
X111661116Y58207702D01*
X111661116Y58207702D02*
X111661116Y58064845D01*
X111661116Y58064845D02*
X111708735Y57969607D01*
X111708735Y57969607D02*
X111756354Y57921988D01*
X111756354Y57921988D02*
X111851592Y57874369D01*
X111851592Y57874369D02*
X112232544Y57874369D01*
X111280163Y58302940D02*
X111232544Y58350559D01*
X111232544Y58350559D02*
X111137306Y58398178D01*
X111137306Y58398178D02*
X110899211Y58398178D01*
X110899211Y58398178D02*
X110803973Y58350559D01*
X110803973Y58350559D02*
X110756354Y58302940D01*
X110756354Y58302940D02*
X110708735Y58207702D01*
X110708735Y58207702D02*
X110708735Y58112464D01*
X110708735Y58112464D02*
X110756354Y57969607D01*
X110756354Y57969607D02*
X111327782Y57398178D01*
X111327782Y57398178D02*
X110708735Y57398178D01*
X126393168Y65251671D02*
X126628870Y64073160D01*
X125921764Y64780267D02*
X127100275Y64544565D01*
X125989107Y63433397D02*
X126393168Y63837458D01*
X126191138Y63635427D02*
X125484031Y64342534D01*
X125484031Y64342534D02*
X125652390Y64308862D01*
X125652390Y64308862D02*
X125787077Y64308862D01*
X125787077Y64308862D02*
X125888092Y64342534D01*
D11*
X120176689Y66094638D02*
X119957823Y65875771D01*
X119957823Y65875771D02*
X120210361Y65858935D01*
X120210361Y65858935D02*
X120159854Y65808428D01*
X120159854Y65808428D02*
X120143018Y65757920D01*
X120143018Y65757920D02*
X120143018Y65724248D01*
X120143018Y65724248D02*
X120159854Y65673741D01*
X120159854Y65673741D02*
X120244033Y65589561D01*
X120244033Y65589561D02*
X120294541Y65572725D01*
X120294541Y65572725D02*
X120328212Y65572725D01*
X120328212Y65572725D02*
X120378720Y65589561D01*
X120378720Y65589561D02*
X120479735Y65690576D01*
X120479735Y65690576D02*
X120496571Y65741084D01*
X120496571Y65741084D02*
X120496571Y65774756D01*
X124574201Y70256447D02*
X124809903Y70020744D01*
X124523693Y70475313D02*
X124860411Y70306954D01*
X124860411Y70306954D02*
X124641544Y70088088D01*
X127636187Y67078744D02*
X127838218Y67280774D01*
X127737203Y67179759D02*
X127383649Y67533312D01*
X127383649Y67533312D02*
X127467829Y67516477D01*
X127467829Y67516477D02*
X127535172Y67516477D01*
X127535172Y67516477D02*
X127585680Y67533312D01*
D10*
X45461063Y75468255D02*
X45508682Y75420635D01*
X45508682Y75420635D02*
X45651539Y75373016D01*
X45651539Y75373016D02*
X45746777Y75373016D01*
X45746777Y75373016D02*
X45889634Y75420635D01*
X45889634Y75420635D02*
X45984872Y75515874D01*
X45984872Y75515874D02*
X46032491Y75611112D01*
X46032491Y75611112D02*
X46080110Y75801588D01*
X46080110Y75801588D02*
X46080110Y75944445D01*
X46080110Y75944445D02*
X46032491Y76134921D01*
X46032491Y76134921D02*
X45984872Y76230159D01*
X45984872Y76230159D02*
X45889634Y76325397D01*
X45889634Y76325397D02*
X45746777Y76373016D01*
X45746777Y76373016D02*
X45651539Y76373016D01*
X45651539Y76373016D02*
X45508682Y76325397D01*
X45508682Y76325397D02*
X45461063Y76277778D01*
X44842015Y76373016D02*
X44746777Y76373016D01*
X44746777Y76373016D02*
X44651539Y76325397D01*
X44651539Y76325397D02*
X44603920Y76277778D01*
X44603920Y76277778D02*
X44556301Y76182540D01*
X44556301Y76182540D02*
X44508682Y75992064D01*
X44508682Y75992064D02*
X44508682Y75753969D01*
X44508682Y75753969D02*
X44556301Y75563493D01*
X44556301Y75563493D02*
X44603920Y75468255D01*
X44603920Y75468255D02*
X44651539Y75420635D01*
X44651539Y75420635D02*
X44746777Y75373016D01*
X44746777Y75373016D02*
X44842015Y75373016D01*
X44842015Y75373016D02*
X44937253Y75420635D01*
X44937253Y75420635D02*
X44984872Y75468255D01*
X44984872Y75468255D02*
X45032491Y75563493D01*
X45032491Y75563493D02*
X45080110Y75753969D01*
X45080110Y75753969D02*
X45080110Y75992064D01*
X45080110Y75992064D02*
X45032491Y76182540D01*
X45032491Y76182540D02*
X44984872Y76277778D01*
X44984872Y76277778D02*
X44937253Y76325397D01*
X44937253Y76325397D02*
X44842015Y76373016D01*
X120572916Y50347920D02*
X120620535Y50300300D01*
X120620535Y50300300D02*
X120763392Y50252681D01*
X120763392Y50252681D02*
X120858630Y50252681D01*
X120858630Y50252681D02*
X121001487Y50300300D01*
X121001487Y50300300D02*
X121096725Y50395539D01*
X121096725Y50395539D02*
X121144344Y50490777D01*
X121144344Y50490777D02*
X121191963Y50681253D01*
X121191963Y50681253D02*
X121191963Y50824110D01*
X121191963Y50824110D02*
X121144344Y51014586D01*
X121144344Y51014586D02*
X121096725Y51109824D01*
X121096725Y51109824D02*
X121001487Y51205062D01*
X121001487Y51205062D02*
X120858630Y51252681D01*
X120858630Y51252681D02*
X120763392Y51252681D01*
X120763392Y51252681D02*
X120620535Y51205062D01*
X120620535Y51205062D02*
X120572916Y51157443D01*
X120191963Y51157443D02*
X120144344Y51205062D01*
X120144344Y51205062D02*
X120049106Y51252681D01*
X120049106Y51252681D02*
X119811011Y51252681D01*
X119811011Y51252681D02*
X119715773Y51205062D01*
X119715773Y51205062D02*
X119668154Y51157443D01*
X119668154Y51157443D02*
X119620535Y51062205D01*
X119620535Y51062205D02*
X119620535Y50966967D01*
X119620535Y50966967D02*
X119668154Y50824110D01*
X119668154Y50824110D02*
X120239582Y50252681D01*
X120239582Y50252681D02*
X119620535Y50252681D01*
X130090457Y55752846D02*
X130423790Y56229037D01*
X130661885Y55752846D02*
X130661885Y56752846D01*
X130661885Y56752846D02*
X130280933Y56752846D01*
X130280933Y56752846D02*
X130185695Y56705227D01*
X130185695Y56705227D02*
X130138076Y56657608D01*
X130138076Y56657608D02*
X130090457Y56562370D01*
X130090457Y56562370D02*
X130090457Y56419513D01*
X130090457Y56419513D02*
X130138076Y56324275D01*
X130138076Y56324275D02*
X130185695Y56276656D01*
X130185695Y56276656D02*
X130280933Y56229037D01*
X130280933Y56229037D02*
X130661885Y56229037D01*
X129709504Y56657608D02*
X129661885Y56705227D01*
X129661885Y56705227D02*
X129566647Y56752846D01*
X129566647Y56752846D02*
X129328552Y56752846D01*
X129328552Y56752846D02*
X129233314Y56705227D01*
X129233314Y56705227D02*
X129185695Y56657608D01*
X129185695Y56657608D02*
X129138076Y56562370D01*
X129138076Y56562370D02*
X129138076Y56467132D01*
X129138076Y56467132D02*
X129185695Y56324275D01*
X129185695Y56324275D02*
X129757123Y55752846D01*
X129757123Y55752846D02*
X129138076Y55752846D01*
X121339404Y63251431D02*
X121339404Y62441908D01*
X121339404Y62441908D02*
X121291785Y62346670D01*
X121291785Y62346670D02*
X121244166Y62299050D01*
X121244166Y62299050D02*
X121148928Y62251431D01*
X121148928Y62251431D02*
X120958452Y62251431D01*
X120958452Y62251431D02*
X120863214Y62299050D01*
X120863214Y62299050D02*
X120815595Y62346670D01*
X120815595Y62346670D02*
X120767976Y62441908D01*
X120767976Y62441908D02*
X120767976Y63251431D01*
X120339404Y63156193D02*
X120291785Y63203812D01*
X120291785Y63203812D02*
X120196547Y63251431D01*
X120196547Y63251431D02*
X119958452Y63251431D01*
X119958452Y63251431D02*
X119863214Y63203812D01*
X119863214Y63203812D02*
X119815595Y63156193D01*
X119815595Y63156193D02*
X119767976Y63060955D01*
X119767976Y63060955D02*
X119767976Y62965717D01*
X119767976Y62965717D02*
X119815595Y62822860D01*
X119815595Y62822860D02*
X120387023Y62251431D01*
X120387023Y62251431D02*
X119767976Y62251431D01*
X58483332Y68053791D02*
X58340475Y68006172D01*
X58340475Y68006172D02*
X58102380Y68006172D01*
X58102380Y68006172D02*
X58007142Y68053791D01*
X58007142Y68053791D02*
X57959523Y68101411D01*
X57959523Y68101411D02*
X57911904Y68196649D01*
X57911904Y68196649D02*
X57911904Y68291887D01*
X57911904Y68291887D02*
X57959523Y68387125D01*
X57959523Y68387125D02*
X58007142Y68434744D01*
X58007142Y68434744D02*
X58102380Y68482363D01*
X58102380Y68482363D02*
X58292856Y68529982D01*
X58292856Y68529982D02*
X58388094Y68577601D01*
X58388094Y68577601D02*
X58435713Y68625220D01*
X58435713Y68625220D02*
X58483332Y68720458D01*
X58483332Y68720458D02*
X58483332Y68815696D01*
X58483332Y68815696D02*
X58435713Y68910934D01*
X58435713Y68910934D02*
X58388094Y68958553D01*
X58388094Y68958553D02*
X58292856Y69006172D01*
X58292856Y69006172D02*
X58054761Y69006172D01*
X58054761Y69006172D02*
X57911904Y68958553D01*
X57578570Y69006172D02*
X57340475Y68006172D01*
X57340475Y68006172D02*
X57149999Y68720458D01*
X57149999Y68720458D02*
X56959523Y68006172D01*
X56959523Y68006172D02*
X56721428Y69006172D01*
X55816666Y68006172D02*
X56388094Y68006172D01*
X56102380Y68006172D02*
X56102380Y69006172D01*
X56102380Y69006172D02*
X56197618Y68863315D01*
X56197618Y68863315D02*
X56292856Y68768077D01*
X56292856Y68768077D02*
X56388094Y68720458D01*
X123899767Y71003612D02*
X123967111Y71003612D01*
X123967111Y71003612D02*
X124101798Y71070956D01*
X124101798Y71070956D02*
X124169141Y71138299D01*
X124169141Y71138299D02*
X124236485Y71272986D01*
X124236485Y71272986D02*
X124236485Y71407673D01*
X124236485Y71407673D02*
X124202813Y71508688D01*
X124202813Y71508688D02*
X124101798Y71677047D01*
X124101798Y71677047D02*
X124000783Y71778062D01*
X124000783Y71778062D02*
X123832424Y71879078D01*
X123832424Y71879078D02*
X123731409Y71912749D01*
X123731409Y71912749D02*
X123596722Y71912749D01*
X123596722Y71912749D02*
X123462035Y71845406D01*
X123462035Y71845406D02*
X123394691Y71778062D01*
X123394691Y71778062D02*
X123327348Y71643375D01*
X123327348Y71643375D02*
X123327348Y71576032D01*
X123158989Y70936269D02*
X123192661Y71037284D01*
X123192661Y71037284D02*
X123192661Y71104627D01*
X123192661Y71104627D02*
X123158989Y71205643D01*
X123158989Y71205643D02*
X123125317Y71239314D01*
X123125317Y71239314D02*
X123024302Y71272986D01*
X123024302Y71272986D02*
X122956958Y71272986D01*
X122956958Y71272986D02*
X122855943Y71239314D01*
X122855943Y71239314D02*
X122721256Y71104627D01*
X122721256Y71104627D02*
X122687584Y71003612D01*
X122687584Y71003612D02*
X122687584Y70936269D01*
X122687584Y70936269D02*
X122721256Y70835253D01*
X122721256Y70835253D02*
X122754928Y70801582D01*
X122754928Y70801582D02*
X122855943Y70767910D01*
X122855943Y70767910D02*
X122923287Y70767910D01*
X122923287Y70767910D02*
X123024302Y70801582D01*
X123024302Y70801582D02*
X123158989Y70936269D01*
X123158989Y70936269D02*
X123260004Y70969940D01*
X123260004Y70969940D02*
X123327348Y70969940D01*
X123327348Y70969940D02*
X123428363Y70936269D01*
X123428363Y70936269D02*
X123563050Y70801582D01*
X123563050Y70801582D02*
X123596722Y70700566D01*
X123596722Y70700566D02*
X123596722Y70633223D01*
X123596722Y70633223D02*
X123563050Y70532208D01*
X123563050Y70532208D02*
X123428363Y70397521D01*
X123428363Y70397521D02*
X123327348Y70363849D01*
X123327348Y70363849D02*
X123260004Y70363849D01*
X123260004Y70363849D02*
X123158989Y70397521D01*
X123158989Y70397521D02*
X123024302Y70532208D01*
X123024302Y70532208D02*
X122990630Y70633223D01*
X122990630Y70633223D02*
X122990630Y70700566D01*
X122990630Y70700566D02*
X123024302Y70801582D01*
X115359925Y60851670D02*
X115407544Y60804050D01*
X115407544Y60804050D02*
X115550401Y60756431D01*
X115550401Y60756431D02*
X115645639Y60756431D01*
X115645639Y60756431D02*
X115788496Y60804050D01*
X115788496Y60804050D02*
X115883734Y60899289D01*
X115883734Y60899289D02*
X115931353Y60994527D01*
X115931353Y60994527D02*
X115978972Y61185003D01*
X115978972Y61185003D02*
X115978972Y61327860D01*
X115978972Y61327860D02*
X115931353Y61518336D01*
X115931353Y61518336D02*
X115883734Y61613574D01*
X115883734Y61613574D02*
X115788496Y61708812D01*
X115788496Y61708812D02*
X115645639Y61756431D01*
X115645639Y61756431D02*
X115550401Y61756431D01*
X115550401Y61756431D02*
X115407544Y61708812D01*
X115407544Y61708812D02*
X115359925Y61661193D01*
X114502782Y61756431D02*
X114693258Y61756431D01*
X114693258Y61756431D02*
X114788496Y61708812D01*
X114788496Y61708812D02*
X114836115Y61661193D01*
X114836115Y61661193D02*
X114931353Y61518336D01*
X114931353Y61518336D02*
X114978972Y61327860D01*
X114978972Y61327860D02*
X114978972Y60946908D01*
X114978972Y60946908D02*
X114931353Y60851670D01*
X114931353Y60851670D02*
X114883734Y60804050D01*
X114883734Y60804050D02*
X114788496Y60756431D01*
X114788496Y60756431D02*
X114598020Y60756431D01*
X114598020Y60756431D02*
X114502782Y60804050D01*
X114502782Y60804050D02*
X114455163Y60851670D01*
X114455163Y60851670D02*
X114407544Y60946908D01*
X114407544Y60946908D02*
X114407544Y61185003D01*
X114407544Y61185003D02*
X114455163Y61280241D01*
X114455163Y61280241D02*
X114502782Y61327860D01*
X114502782Y61327860D02*
X114598020Y61375479D01*
X114598020Y61375479D02*
X114788496Y61375479D01*
X114788496Y61375479D02*
X114883734Y61327860D01*
X114883734Y61327860D02*
X114931353Y61280241D01*
X114931353Y61280241D02*
X114978972Y61185003D01*
X48895101Y71170176D02*
X48895101Y70360653D01*
X48895101Y70360653D02*
X48847482Y70265415D01*
X48847482Y70265415D02*
X48799863Y70217795D01*
X48799863Y70217795D02*
X48704625Y70170176D01*
X48704625Y70170176D02*
X48514149Y70170176D01*
X48514149Y70170176D02*
X48418911Y70217795D01*
X48418911Y70217795D02*
X48371292Y70265415D01*
X48371292Y70265415D02*
X48323673Y70360653D01*
X48323673Y70360653D02*
X48323673Y71170176D01*
X47276054Y70170176D02*
X47609387Y70646367D01*
X47847482Y70170176D02*
X47847482Y71170176D01*
X47847482Y71170176D02*
X47466530Y71170176D01*
X47466530Y71170176D02*
X47371292Y71122557D01*
X47371292Y71122557D02*
X47323673Y71074938D01*
X47323673Y71074938D02*
X47276054Y70979700D01*
X47276054Y70979700D02*
X47276054Y70836843D01*
X47276054Y70836843D02*
X47323673Y70741605D01*
X47323673Y70741605D02*
X47371292Y70693986D01*
X47371292Y70693986D02*
X47466530Y70646367D01*
X47466530Y70646367D02*
X47847482Y70646367D01*
X46942720Y71170176D02*
X46323673Y71170176D01*
X46323673Y71170176D02*
X46657006Y70789224D01*
X46657006Y70789224D02*
X46514149Y70789224D01*
X46514149Y70789224D02*
X46418911Y70741605D01*
X46418911Y70741605D02*
X46371292Y70693986D01*
X46371292Y70693986D02*
X46323673Y70598748D01*
X46323673Y70598748D02*
X46323673Y70360653D01*
X46323673Y70360653D02*
X46371292Y70265415D01*
X46371292Y70265415D02*
X46418911Y70217795D01*
X46418911Y70217795D02*
X46514149Y70170176D01*
X46514149Y70170176D02*
X46799863Y70170176D01*
X46799863Y70170176D02*
X46895101Y70217795D01*
X46895101Y70217795D02*
X46942720Y70265415D01*
X131405129Y61620363D02*
X131452749Y61667982D01*
X131452749Y61667982D02*
X131500368Y61810839D01*
X131500368Y61810839D02*
X131500368Y61906077D01*
X131500368Y61906077D02*
X131452749Y62048934D01*
X131452749Y62048934D02*
X131357510Y62144172D01*
X131357510Y62144172D02*
X131262272Y62191791D01*
X131262272Y62191791D02*
X131071796Y62239410D01*
X131071796Y62239410D02*
X130928939Y62239410D01*
X130928939Y62239410D02*
X130738463Y62191791D01*
X130738463Y62191791D02*
X130643225Y62144172D01*
X130643225Y62144172D02*
X130547987Y62048934D01*
X130547987Y62048934D02*
X130500368Y61906077D01*
X130500368Y61906077D02*
X130500368Y61810839D01*
X130500368Y61810839D02*
X130547987Y61667982D01*
X130547987Y61667982D02*
X130595606Y61620363D01*
X130833701Y60763220D02*
X131500368Y60763220D01*
X130452749Y61001315D02*
X131167034Y61239410D01*
X131167034Y61239410D02*
X131167034Y60620363D01*
X51662437Y62079219D02*
X51710057Y62126838D01*
X51710057Y62126838D02*
X51757676Y62269695D01*
X51757676Y62269695D02*
X51757676Y62364933D01*
X51757676Y62364933D02*
X51710057Y62507790D01*
X51710057Y62507790D02*
X51614818Y62603028D01*
X51614818Y62603028D02*
X51519580Y62650647D01*
X51519580Y62650647D02*
X51329104Y62698266D01*
X51329104Y62698266D02*
X51186247Y62698266D01*
X51186247Y62698266D02*
X50995771Y62650647D01*
X50995771Y62650647D02*
X50900533Y62603028D01*
X50900533Y62603028D02*
X50805295Y62507790D01*
X50805295Y62507790D02*
X50757676Y62364933D01*
X50757676Y62364933D02*
X50757676Y62269695D01*
X50757676Y62269695D02*
X50805295Y62126838D01*
X50805295Y62126838D02*
X50852914Y62079219D01*
X51757676Y61126838D02*
X51757676Y61698266D01*
X51757676Y61412552D02*
X50757676Y61412552D01*
X50757676Y61412552D02*
X50900533Y61507790D01*
X50900533Y61507790D02*
X50995771Y61603028D01*
X50995771Y61603028D02*
X51043390Y61698266D01*
X28837016Y75120966D02*
X28837016Y74311443D01*
X28837016Y74311443D02*
X28789397Y74216205D01*
X28789397Y74216205D02*
X28741778Y74168585D01*
X28741778Y74168585D02*
X28646540Y74120966D01*
X28646540Y74120966D02*
X28456064Y74120966D01*
X28456064Y74120966D02*
X28360826Y74168585D01*
X28360826Y74168585D02*
X28313207Y74216205D01*
X28313207Y74216205D02*
X28265588Y74311443D01*
X28265588Y74311443D02*
X28265588Y75120966D01*
X27217969Y74120966D02*
X27551302Y74597157D01*
X27789397Y74120966D02*
X27789397Y75120966D01*
X27789397Y75120966D02*
X27408445Y75120966D01*
X27408445Y75120966D02*
X27313207Y75073347D01*
X27313207Y75073347D02*
X27265588Y75025728D01*
X27265588Y75025728D02*
X27217969Y74930490D01*
X27217969Y74930490D02*
X27217969Y74787633D01*
X27217969Y74787633D02*
X27265588Y74692395D01*
X27265588Y74692395D02*
X27313207Y74644776D01*
X27313207Y74644776D02*
X27408445Y74597157D01*
X27408445Y74597157D02*
X27789397Y74597157D01*
X26360826Y74787633D02*
X26360826Y74120966D01*
X26598921Y75168585D02*
X26837016Y74454300D01*
X26837016Y74454300D02*
X26217969Y74454300D01*
X122404166Y38534170D02*
X122451785Y38486550D01*
X122451785Y38486550D02*
X122594642Y38438931D01*
X122594642Y38438931D02*
X122689880Y38438931D01*
X122689880Y38438931D02*
X122832737Y38486550D01*
X122832737Y38486550D02*
X122927975Y38581789D01*
X122927975Y38581789D02*
X122975594Y38677027D01*
X122975594Y38677027D02*
X123023213Y38867503D01*
X123023213Y38867503D02*
X123023213Y39010360D01*
X123023213Y39010360D02*
X122975594Y39200836D01*
X122975594Y39200836D02*
X122927975Y39296074D01*
X122927975Y39296074D02*
X122832737Y39391312D01*
X122832737Y39391312D02*
X122689880Y39438931D01*
X122689880Y39438931D02*
X122594642Y39438931D01*
X122594642Y39438931D02*
X122451785Y39391312D01*
X122451785Y39391312D02*
X122404166Y39343693D01*
X121927975Y38438931D02*
X121737499Y38438931D01*
X121737499Y38438931D02*
X121642261Y38486550D01*
X121642261Y38486550D02*
X121594642Y38534170D01*
X121594642Y38534170D02*
X121499404Y38677027D01*
X121499404Y38677027D02*
X121451785Y38867503D01*
X121451785Y38867503D02*
X121451785Y39248455D01*
X121451785Y39248455D02*
X121499404Y39343693D01*
X121499404Y39343693D02*
X121547023Y39391312D01*
X121547023Y39391312D02*
X121642261Y39438931D01*
X121642261Y39438931D02*
X121832737Y39438931D01*
X121832737Y39438931D02*
X121927975Y39391312D01*
X121927975Y39391312D02*
X121975594Y39343693D01*
X121975594Y39343693D02*
X122023213Y39248455D01*
X122023213Y39248455D02*
X122023213Y39010360D01*
X122023213Y39010360D02*
X121975594Y38915122D01*
X121975594Y38915122D02*
X121927975Y38867503D01*
X121927975Y38867503D02*
X121832737Y38819884D01*
X121832737Y38819884D02*
X121642261Y38819884D01*
X121642261Y38819884D02*
X121547023Y38867503D01*
X121547023Y38867503D02*
X121499404Y38915122D01*
X121499404Y38915122D02*
X121451785Y39010360D01*
X126674404Y39438931D02*
X126674404Y38629408D01*
X126674404Y38629408D02*
X126626785Y38534170D01*
X126626785Y38534170D02*
X126579166Y38486550D01*
X126579166Y38486550D02*
X126483928Y38438931D01*
X126483928Y38438931D02*
X126293452Y38438931D01*
X126293452Y38438931D02*
X126198214Y38486550D01*
X126198214Y38486550D02*
X126150595Y38534170D01*
X126150595Y38534170D02*
X126102976Y38629408D01*
X126102976Y38629408D02*
X126102976Y39438931D01*
X125055357Y38438931D02*
X125388690Y38915122D01*
X125626785Y38438931D02*
X125626785Y39438931D01*
X125626785Y39438931D02*
X125245833Y39438931D01*
X125245833Y39438931D02*
X125150595Y39391312D01*
X125150595Y39391312D02*
X125102976Y39343693D01*
X125102976Y39343693D02*
X125055357Y39248455D01*
X125055357Y39248455D02*
X125055357Y39105598D01*
X125055357Y39105598D02*
X125102976Y39010360D01*
X125102976Y39010360D02*
X125150595Y38962741D01*
X125150595Y38962741D02*
X125245833Y38915122D01*
X125245833Y38915122D02*
X125626785Y38915122D01*
X124483928Y39010360D02*
X124579166Y39057979D01*
X124579166Y39057979D02*
X124626785Y39105598D01*
X124626785Y39105598D02*
X124674404Y39200836D01*
X124674404Y39200836D02*
X124674404Y39248455D01*
X124674404Y39248455D02*
X124626785Y39343693D01*
X124626785Y39343693D02*
X124579166Y39391312D01*
X124579166Y39391312D02*
X124483928Y39438931D01*
X124483928Y39438931D02*
X124293452Y39438931D01*
X124293452Y39438931D02*
X124198214Y39391312D01*
X124198214Y39391312D02*
X124150595Y39343693D01*
X124150595Y39343693D02*
X124102976Y39248455D01*
X124102976Y39248455D02*
X124102976Y39200836D01*
X124102976Y39200836D02*
X124150595Y39105598D01*
X124150595Y39105598D02*
X124198214Y39057979D01*
X124198214Y39057979D02*
X124293452Y39010360D01*
X124293452Y39010360D02*
X124483928Y39010360D01*
X124483928Y39010360D02*
X124579166Y38962741D01*
X124579166Y38962741D02*
X124626785Y38915122D01*
X124626785Y38915122D02*
X124674404Y38819884D01*
X124674404Y38819884D02*
X124674404Y38629408D01*
X124674404Y38629408D02*
X124626785Y38534170D01*
X124626785Y38534170D02*
X124579166Y38486550D01*
X124579166Y38486550D02*
X124483928Y38438931D01*
X124483928Y38438931D02*
X124293452Y38438931D01*
X124293452Y38438931D02*
X124198214Y38486550D01*
X124198214Y38486550D02*
X124150595Y38534170D01*
X124150595Y38534170D02*
X124102976Y38629408D01*
X124102976Y38629408D02*
X124102976Y38819884D01*
X124102976Y38819884D02*
X124150595Y38915122D01*
X124150595Y38915122D02*
X124198214Y38962741D01*
X124198214Y38962741D02*
X124293452Y39010360D01*
X24458007Y75973812D02*
X25267530Y75973812D01*
X25267530Y75973812D02*
X25362768Y75926193D01*
X25362768Y75926193D02*
X25410388Y75878574D01*
X25410388Y75878574D02*
X25458007Y75783336D01*
X25458007Y75783336D02*
X25458007Y75592860D01*
X25458007Y75592860D02*
X25410388Y75497622D01*
X25410388Y75497622D02*
X25362768Y75450003D01*
X25362768Y75450003D02*
X25267530Y75402384D01*
X25267530Y75402384D02*
X24458007Y75402384D01*
X25458007Y74354765D02*
X24981816Y74688098D01*
X25458007Y74926193D02*
X24458007Y74926193D01*
X24458007Y74926193D02*
X24458007Y74545241D01*
X24458007Y74545241D02*
X24505626Y74450003D01*
X24505626Y74450003D02*
X24553245Y74402384D01*
X24553245Y74402384D02*
X24648483Y74354765D01*
X24648483Y74354765D02*
X24791340Y74354765D01*
X24791340Y74354765D02*
X24886578Y74402384D01*
X24886578Y74402384D02*
X24934197Y74450003D01*
X24934197Y74450003D02*
X24981816Y74545241D01*
X24981816Y74545241D02*
X24981816Y74926193D01*
X24458007Y73450003D02*
X24458007Y73926193D01*
X24458007Y73926193D02*
X24934197Y73973812D01*
X24934197Y73973812D02*
X24886578Y73926193D01*
X24886578Y73926193D02*
X24838959Y73830955D01*
X24838959Y73830955D02*
X24838959Y73592860D01*
X24838959Y73592860D02*
X24886578Y73497622D01*
X24886578Y73497622D02*
X24934197Y73450003D01*
X24934197Y73450003D02*
X25029435Y73402384D01*
X25029435Y73402384D02*
X25267530Y73402384D01*
X25267530Y73402384D02*
X25362768Y73450003D01*
X25362768Y73450003D02*
X25410388Y73497622D01*
X25410388Y73497622D02*
X25458007Y73592860D01*
X25458007Y73592860D02*
X25458007Y73830955D01*
X25458007Y73830955D02*
X25410388Y73926193D01*
X25410388Y73926193D02*
X25362768Y73973812D01*
X39838126Y68748993D02*
X39838126Y67939470D01*
X39838126Y67939470D02*
X39790507Y67844232D01*
X39790507Y67844232D02*
X39742888Y67796612D01*
X39742888Y67796612D02*
X39647650Y67748993D01*
X39647650Y67748993D02*
X39457174Y67748993D01*
X39457174Y67748993D02*
X39361936Y67796612D01*
X39361936Y67796612D02*
X39314317Y67844232D01*
X39314317Y67844232D02*
X39266698Y67939470D01*
X39266698Y67939470D02*
X39266698Y68748993D01*
X38838126Y67796612D02*
X38695269Y67748993D01*
X38695269Y67748993D02*
X38457174Y67748993D01*
X38457174Y67748993D02*
X38361936Y67796612D01*
X38361936Y67796612D02*
X38314317Y67844232D01*
X38314317Y67844232D02*
X38266698Y67939470D01*
X38266698Y67939470D02*
X38266698Y68034708D01*
X38266698Y68034708D02*
X38314317Y68129946D01*
X38314317Y68129946D02*
X38361936Y68177565D01*
X38361936Y68177565D02*
X38457174Y68225184D01*
X38457174Y68225184D02*
X38647650Y68272803D01*
X38647650Y68272803D02*
X38742888Y68320422D01*
X38742888Y68320422D02*
X38790507Y68368041D01*
X38790507Y68368041D02*
X38838126Y68463279D01*
X38838126Y68463279D02*
X38838126Y68558517D01*
X38838126Y68558517D02*
X38790507Y68653755D01*
X38790507Y68653755D02*
X38742888Y68701374D01*
X38742888Y68701374D02*
X38647650Y68748993D01*
X38647650Y68748993D02*
X38409555Y68748993D01*
X38409555Y68748993D02*
X38266698Y68701374D01*
X37504793Y68272803D02*
X37361936Y68225184D01*
X37361936Y68225184D02*
X37314317Y68177565D01*
X37314317Y68177565D02*
X37266698Y68082327D01*
X37266698Y68082327D02*
X37266698Y67939470D01*
X37266698Y67939470D02*
X37314317Y67844232D01*
X37314317Y67844232D02*
X37361936Y67796612D01*
X37361936Y67796612D02*
X37457174Y67748993D01*
X37457174Y67748993D02*
X37838126Y67748993D01*
X37838126Y67748993D02*
X37838126Y68748993D01*
X37838126Y68748993D02*
X37504793Y68748993D01*
X37504793Y68748993D02*
X37409555Y68701374D01*
X37409555Y68701374D02*
X37361936Y68653755D01*
X37361936Y68653755D02*
X37314317Y68558517D01*
X37314317Y68558517D02*
X37314317Y68463279D01*
X37314317Y68463279D02*
X37361936Y68368041D01*
X37361936Y68368041D02*
X37409555Y68320422D01*
X37409555Y68320422D02*
X37504793Y68272803D01*
X37504793Y68272803D02*
X37838126Y68272803D01*
X36314317Y67748993D02*
X36885745Y67748993D01*
X36600031Y67748993D02*
X36600031Y68748993D01*
X36600031Y68748993D02*
X36695269Y68606136D01*
X36695269Y68606136D02*
X36790507Y68510898D01*
X36790507Y68510898D02*
X36885745Y68463279D01*
D11*
X42053222Y69581826D02*
X41767508Y69581826D01*
X41910365Y69581826D02*
X41910365Y69081826D01*
X41910365Y69081826D02*
X41862746Y69153255D01*
X41862746Y69153255D02*
X41815127Y69200874D01*
X41815127Y69200874D02*
X41767508Y69224683D01*
X42243698Y69129445D02*
X42267507Y69105636D01*
X42267507Y69105636D02*
X42315126Y69081826D01*
X42315126Y69081826D02*
X42434174Y69081826D01*
X42434174Y69081826D02*
X42481793Y69105636D01*
X42481793Y69105636D02*
X42505602Y69129445D01*
X42505602Y69129445D02*
X42529412Y69177064D01*
X42529412Y69177064D02*
X42529412Y69224683D01*
X42529412Y69224683D02*
X42505602Y69296112D01*
X42505602Y69296112D02*
X42219888Y69581826D01*
X42219888Y69581826D02*
X42529412Y69581826D01*
X34098642Y69624202D02*
X33812928Y69624202D01*
X33955785Y69624202D02*
X33955785Y69124202D01*
X33955785Y69124202D02*
X33908166Y69195631D01*
X33908166Y69195631D02*
X33860547Y69243250D01*
X33860547Y69243250D02*
X33812928Y69267059D01*
D10*
X38839036Y60595233D02*
X38839036Y59785710D01*
X38839036Y59785710D02*
X38791417Y59690472D01*
X38791417Y59690472D02*
X38743798Y59642852D01*
X38743798Y59642852D02*
X38648560Y59595233D01*
X38648560Y59595233D02*
X38458084Y59595233D01*
X38458084Y59595233D02*
X38362846Y59642852D01*
X38362846Y59642852D02*
X38315227Y59690472D01*
X38315227Y59690472D02*
X38267608Y59785710D01*
X38267608Y59785710D02*
X38267608Y60595233D01*
X37267608Y59595233D02*
X37839036Y59595233D01*
X37553322Y59595233D02*
X37553322Y60595233D01*
X37553322Y60595233D02*
X37648560Y60452376D01*
X37648560Y60452376D02*
X37743798Y60357138D01*
X37743798Y60357138D02*
X37839036Y60309519D01*
X131436904Y41026431D02*
X131436904Y40216908D01*
X131436904Y40216908D02*
X131389285Y40121670D01*
X131389285Y40121670D02*
X131341666Y40074050D01*
X131341666Y40074050D02*
X131246428Y40026431D01*
X131246428Y40026431D02*
X131055952Y40026431D01*
X131055952Y40026431D02*
X130960714Y40074050D01*
X130960714Y40074050D02*
X130913095Y40121670D01*
X130913095Y40121670D02*
X130865476Y40216908D01*
X130865476Y40216908D02*
X130865476Y41026431D01*
X129817857Y40026431D02*
X130151190Y40502622D01*
X130389285Y40026431D02*
X130389285Y41026431D01*
X130389285Y41026431D02*
X130008333Y41026431D01*
X130008333Y41026431D02*
X129913095Y40978812D01*
X129913095Y40978812D02*
X129865476Y40931193D01*
X129865476Y40931193D02*
X129817857Y40835955D01*
X129817857Y40835955D02*
X129817857Y40693098D01*
X129817857Y40693098D02*
X129865476Y40597860D01*
X129865476Y40597860D02*
X129913095Y40550241D01*
X129913095Y40550241D02*
X130008333Y40502622D01*
X130008333Y40502622D02*
X130389285Y40502622D01*
X129484523Y41026431D02*
X128817857Y41026431D01*
X128817857Y41026431D02*
X129246428Y40026431D01*
X127853409Y70169908D02*
X127853409Y70102564D01*
X127853409Y70102564D02*
X127920753Y69967877D01*
X127920753Y69967877D02*
X127988096Y69900534D01*
X127988096Y69900534D02*
X128122783Y69833190D01*
X128122783Y69833190D02*
X128257470Y69833190D01*
X128257470Y69833190D02*
X128358485Y69866862D01*
X128358485Y69866862D02*
X128526844Y69967877D01*
X128526844Y69967877D02*
X128627859Y70068892D01*
X128627859Y70068892D02*
X128728875Y70237251D01*
X128728875Y70237251D02*
X128762546Y70338266D01*
X128762546Y70338266D02*
X128762546Y70472953D01*
X128762546Y70472953D02*
X128695203Y70607640D01*
X128695203Y70607640D02*
X128627859Y70674984D01*
X128627859Y70674984D02*
X128493172Y70742327D01*
X128493172Y70742327D02*
X128425829Y70742327D01*
X128257470Y71045373D02*
X127786066Y71516778D01*
X127786066Y71516778D02*
X127382005Y70506625D01*
X43480249Y63019043D02*
X43813582Y63019043D01*
X43813582Y62495233D02*
X43813582Y63495233D01*
X43813582Y63495233D02*
X43337392Y63495233D01*
X42432630Y62495233D02*
X43004058Y62495233D01*
X42718344Y62495233D02*
X42718344Y63495233D01*
X42718344Y63495233D02*
X42813582Y63352376D01*
X42813582Y63352376D02*
X42908820Y63257138D01*
X42908820Y63257138D02*
X43004058Y63209519D01*
X116455163Y54366928D02*
X116455163Y53557405D01*
X116455163Y53557405D02*
X116407544Y53462167D01*
X116407544Y53462167D02*
X116359925Y53414547D01*
X116359925Y53414547D02*
X116264687Y53366928D01*
X116264687Y53366928D02*
X116074211Y53366928D01*
X116074211Y53366928D02*
X115978973Y53414547D01*
X115978973Y53414547D02*
X115931354Y53462167D01*
X115931354Y53462167D02*
X115883735Y53557405D01*
X115883735Y53557405D02*
X115883735Y54366928D01*
X114836116Y53366928D02*
X115169449Y53843119D01*
X115407544Y53366928D02*
X115407544Y54366928D01*
X115407544Y54366928D02*
X115026592Y54366928D01*
X115026592Y54366928D02*
X114931354Y54319309D01*
X114931354Y54319309D02*
X114883735Y54271690D01*
X114883735Y54271690D02*
X114836116Y54176452D01*
X114836116Y54176452D02*
X114836116Y54033595D01*
X114836116Y54033595D02*
X114883735Y53938357D01*
X114883735Y53938357D02*
X114931354Y53890738D01*
X114931354Y53890738D02*
X115026592Y53843119D01*
X115026592Y53843119D02*
X115407544Y53843119D01*
X113883735Y53366928D02*
X114455163Y53366928D01*
X114169449Y53366928D02*
X114169449Y54366928D01*
X114169449Y54366928D02*
X114264687Y54224071D01*
X114264687Y54224071D02*
X114359925Y54128833D01*
X114359925Y54128833D02*
X114455163Y54081214D01*
X61529602Y64987929D02*
X61053411Y65321262D01*
X61529602Y65559357D02*
X60529602Y65559357D01*
X60529602Y65559357D02*
X60529602Y65178405D01*
X60529602Y65178405D02*
X60577221Y65083167D01*
X60577221Y65083167D02*
X60624840Y65035548D01*
X60624840Y65035548D02*
X60720078Y64987929D01*
X60720078Y64987929D02*
X60862935Y64987929D01*
X60862935Y64987929D02*
X60958173Y65035548D01*
X60958173Y65035548D02*
X61005792Y65083167D01*
X61005792Y65083167D02*
X61053411Y65178405D01*
X61053411Y65178405D02*
X61053411Y65559357D01*
X61529602Y64035548D02*
X61529602Y64606976D01*
X61529602Y64321262D02*
X60529602Y64321262D01*
X60529602Y64321262D02*
X60672459Y64416500D01*
X60672459Y64416500D02*
X60767697Y64511738D01*
X60767697Y64511738D02*
X60815316Y64606976D01*
X118736904Y41026431D02*
X118736904Y40216908D01*
X118736904Y40216908D02*
X118689285Y40121670D01*
X118689285Y40121670D02*
X118641666Y40074050D01*
X118641666Y40074050D02*
X118546428Y40026431D01*
X118546428Y40026431D02*
X118355952Y40026431D01*
X118355952Y40026431D02*
X118260714Y40074050D01*
X118260714Y40074050D02*
X118213095Y40121670D01*
X118213095Y40121670D02*
X118165476Y40216908D01*
X118165476Y40216908D02*
X118165476Y41026431D01*
X117117857Y40026431D02*
X117451190Y40502622D01*
X117689285Y40026431D02*
X117689285Y41026431D01*
X117689285Y41026431D02*
X117308333Y41026431D01*
X117308333Y41026431D02*
X117213095Y40978812D01*
X117213095Y40978812D02*
X117165476Y40931193D01*
X117165476Y40931193D02*
X117117857Y40835955D01*
X117117857Y40835955D02*
X117117857Y40693098D01*
X117117857Y40693098D02*
X117165476Y40597860D01*
X117165476Y40597860D02*
X117213095Y40550241D01*
X117213095Y40550241D02*
X117308333Y40502622D01*
X117308333Y40502622D02*
X117689285Y40502622D01*
X116260714Y41026431D02*
X116451190Y41026431D01*
X116451190Y41026431D02*
X116546428Y40978812D01*
X116546428Y40978812D02*
X116594047Y40931193D01*
X116594047Y40931193D02*
X116689285Y40788336D01*
X116689285Y40788336D02*
X116736904Y40597860D01*
X116736904Y40597860D02*
X116736904Y40216908D01*
X116736904Y40216908D02*
X116689285Y40121670D01*
X116689285Y40121670D02*
X116641666Y40074050D01*
X116641666Y40074050D02*
X116546428Y40026431D01*
X116546428Y40026431D02*
X116355952Y40026431D01*
X116355952Y40026431D02*
X116260714Y40074050D01*
X116260714Y40074050D02*
X116213095Y40121670D01*
X116213095Y40121670D02*
X116165476Y40216908D01*
X116165476Y40216908D02*
X116165476Y40455003D01*
X116165476Y40455003D02*
X116213095Y40550241D01*
X116213095Y40550241D02*
X116260714Y40597860D01*
X116260714Y40597860D02*
X116355952Y40645479D01*
X116355952Y40645479D02*
X116546428Y40645479D01*
X116546428Y40645479D02*
X116641666Y40597860D01*
X116641666Y40597860D02*
X116689285Y40550241D01*
X116689285Y40550241D02*
X116736904Y40455003D01*
X116465888Y66570244D02*
X116465888Y66502900D01*
X116465888Y66502900D02*
X116533232Y66368213D01*
X116533232Y66368213D02*
X116600575Y66300870D01*
X116600575Y66300870D02*
X116735262Y66233526D01*
X116735262Y66233526D02*
X116869949Y66233526D01*
X116869949Y66233526D02*
X116970964Y66267198D01*
X116970964Y66267198D02*
X117139323Y66368213D01*
X117139323Y66368213D02*
X117240338Y66469228D01*
X117240338Y66469228D02*
X117341354Y66637587D01*
X117341354Y66637587D02*
X117375025Y66738602D01*
X117375025Y66738602D02*
X117375025Y66873289D01*
X117375025Y66873289D02*
X117307682Y67007976D01*
X117307682Y67007976D02*
X117240338Y67075320D01*
X117240338Y67075320D02*
X117105651Y67142663D01*
X117105651Y67142663D02*
X117038308Y67142663D01*
X116465888Y67849770D02*
X116802606Y67513053D01*
X116802606Y67513053D02*
X116499560Y67142663D01*
X116499560Y67142663D02*
X116499560Y67210007D01*
X116499560Y67210007D02*
X116465888Y67311022D01*
X116465888Y67311022D02*
X116297529Y67479381D01*
X116297529Y67479381D02*
X116196514Y67513053D01*
X116196514Y67513053D02*
X116129171Y67513053D01*
X116129171Y67513053D02*
X116028155Y67479381D01*
X116028155Y67479381D02*
X115859797Y67311022D01*
X115859797Y67311022D02*
X115826125Y67210007D01*
X115826125Y67210007D02*
X115826125Y67142663D01*
X115826125Y67142663D02*
X115859797Y67041648D01*
X115859797Y67041648D02*
X116028155Y66873289D01*
X116028155Y66873289D02*
X116129171Y66839618D01*
X116129171Y66839618D02*
X116196514Y66839618D01*
X128432071Y50258818D02*
X128479690Y50211198D01*
X128479690Y50211198D02*
X128622547Y50163579D01*
X128622547Y50163579D02*
X128717785Y50163579D01*
X128717785Y50163579D02*
X128860642Y50211198D01*
X128860642Y50211198D02*
X128955880Y50306437D01*
X128955880Y50306437D02*
X129003499Y50401675D01*
X129003499Y50401675D02*
X129051118Y50592151D01*
X129051118Y50592151D02*
X129051118Y50735008D01*
X129051118Y50735008D02*
X129003499Y50925484D01*
X129003499Y50925484D02*
X128955880Y51020722D01*
X128955880Y51020722D02*
X128860642Y51115960D01*
X128860642Y51115960D02*
X128717785Y51163579D01*
X128717785Y51163579D02*
X128622547Y51163579D01*
X128622547Y51163579D02*
X128479690Y51115960D01*
X128479690Y51115960D02*
X128432071Y51068341D01*
X128098737Y51163579D02*
X127479690Y51163579D01*
X127479690Y51163579D02*
X127813023Y50782627D01*
X127813023Y50782627D02*
X127670166Y50782627D01*
X127670166Y50782627D02*
X127574928Y50735008D01*
X127574928Y50735008D02*
X127527309Y50687389D01*
X127527309Y50687389D02*
X127479690Y50592151D01*
X127479690Y50592151D02*
X127479690Y50354056D01*
X127479690Y50354056D02*
X127527309Y50258818D01*
X127527309Y50258818D02*
X127574928Y50211198D01*
X127574928Y50211198D02*
X127670166Y50163579D01*
X127670166Y50163579D02*
X127955880Y50163579D01*
X127955880Y50163579D02*
X128051118Y50211198D01*
X128051118Y50211198D02*
X128098737Y50258818D01*
D12*
X59250630Y25531250D02*
X59250630Y29431250D01*
X61250630Y25531250D02*
X59250630Y25531250D01*
X61250630Y25531250D02*
X61250630Y29431250D01*
X114966195Y58238747D02*
X115420323Y58238747D01*
X114966195Y56768747D02*
X115420323Y56768747D01*
X127325179Y66993198D02*
X123506802Y63174821D01*
X124143198Y70175179D02*
X127325179Y66993198D01*
X44508910Y73069219D02*
X44508910Y73591723D01*
X45978910Y73069219D02*
X45978910Y73591723D01*
X78301418Y25531250D02*
X78301418Y29431250D01*
X80301418Y25531250D02*
X78301418Y25531250D01*
X80301418Y25531250D02*
X80301418Y29431250D01*
X146637500Y6481250D02*
X146637500Y10381250D01*
X148637500Y6481250D02*
X146637500Y6481250D01*
X148637500Y6481250D02*
X148637500Y10381250D01*
X240226512Y44581250D02*
X240226512Y48481250D01*
X242226512Y44581250D02*
X240226512Y44581250D01*
X242226512Y44581250D02*
X242226512Y48481250D01*
X164026512Y44581250D02*
X164026512Y48481250D01*
X166026512Y44581250D02*
X164026512Y44581250D01*
X166026512Y44581250D02*
X166026512Y48481250D01*
X49718439Y44581250D02*
X49718439Y48481250D01*
X51718439Y44581250D02*
X49718439Y44581250D01*
X51718439Y44581250D02*
X51718439Y48481250D01*
X240226512Y63631250D02*
X240226512Y67531250D01*
X242226512Y63631250D02*
X240226512Y63631250D01*
X242226512Y63631250D02*
X242226512Y67531250D01*
X115681250Y6481250D02*
X115681250Y10381250D01*
X117681250Y6481250D02*
X115681250Y6481250D01*
X117681250Y6481250D02*
X117681250Y10381250D01*
X153781250Y6481250D02*
X153781250Y10381250D01*
X155781250Y6481250D02*
X153781250Y6481250D01*
X155781250Y6481250D02*
X155781250Y10381250D01*
X120144998Y53122500D02*
X120667502Y53122500D01*
X120144998Y51652500D02*
X120667502Y51652500D01*
X130150855Y53822665D02*
X129696727Y53822665D01*
X130150855Y55292665D02*
X129696727Y55292665D01*
X221176512Y44581250D02*
X221176512Y48481250D01*
X223176512Y44581250D02*
X221176512Y44581250D01*
X223176512Y44581250D02*
X223176512Y48481250D01*
X120215000Y61395178D02*
X120215000Y60670178D01*
X120940000Y61395178D02*
X120215000Y61395178D01*
X120940000Y54175178D02*
X120215000Y54175178D01*
X126710000Y61395178D02*
X127435000Y61395178D01*
X126710000Y54175178D02*
X127435000Y54175178D01*
X127435000Y61395178D02*
X127435000Y60670178D01*
X127435000Y54175178D02*
X127435000Y54900178D01*
X40199842Y25531250D02*
X40199842Y29431250D01*
X42199842Y25531250D02*
X40199842Y25531250D01*
X42199842Y25531250D02*
X42199842Y29431250D01*
X239506250Y25531250D02*
X239506250Y29431250D01*
X241506250Y25531250D02*
X239506250Y25531250D01*
X241506250Y25531250D02*
X241506250Y29431250D01*
X58190000Y66418491D02*
X56110000Y66418491D01*
X59870000Y65148491D02*
X59380000Y65638491D01*
X59870000Y65148491D02*
X59870000Y62248491D01*
X54430000Y65148491D02*
X54920000Y65638491D01*
X54430000Y65148491D02*
X54430000Y62248491D01*
X59870000Y62248491D02*
X59380000Y61758491D01*
X54430000Y62248491D02*
X54920000Y61758491D01*
X58190000Y60978491D02*
X56110000Y60978491D01*
X121778740Y68351793D02*
X122148207Y68721260D01*
X120739293Y69391240D02*
X121108760Y69760707D01*
X30669135Y63631250D02*
X30669135Y67531250D01*
X32669135Y63631250D02*
X30669135Y63631250D01*
X32669135Y63631250D02*
X32669135Y67531250D01*
X115454511Y58796250D02*
X114932007Y58796250D01*
X115454511Y60266250D02*
X114932007Y60266250D01*
X11619831Y44581250D02*
X11619831Y48481250D01*
X13619831Y44581250D02*
X11619831Y44581250D01*
X13619831Y44581250D02*
X13619831Y48481250D01*
X48360160Y73557535D02*
X48360160Y73103407D01*
X46890160Y73557535D02*
X46890160Y73103407D01*
X196643750Y6481250D02*
X196643750Y10381250D01*
X198643750Y6481250D02*
X196643750Y6481250D01*
X198643750Y6481250D02*
X198643750Y10381250D01*
X202126512Y63631250D02*
X202126512Y67531250D01*
X204126512Y63631250D02*
X202126512Y63631250D01*
X204126512Y63631250D02*
X204126512Y67531250D01*
X128630549Y61192444D02*
X128630549Y61714948D01*
X130100549Y61192444D02*
X130100549Y61714948D01*
X68767743Y63631250D02*
X68767743Y67531250D01*
X70767743Y63631250D02*
X68767743Y63631250D01*
X70767743Y63631250D02*
X70767743Y67531250D01*
X144976512Y63631250D02*
X144976512Y67531250D01*
X146976512Y63631250D02*
X144976512Y63631250D01*
X146976512Y63631250D02*
X146976512Y67531250D01*
X53717857Y62173804D02*
X53717857Y61651300D01*
X52247857Y62173804D02*
X52247857Y61651300D01*
X106866352Y44581250D02*
X106866352Y48481250D01*
X108866352Y44581250D02*
X106866352Y44581250D01*
X108866352Y44581250D02*
X108866352Y48481250D01*
X87823659Y6481250D02*
X87823659Y10381250D01*
X89823659Y6481250D02*
X87823659Y6481250D01*
X89823659Y6481250D02*
X89823659Y10381250D01*
X27802176Y72190785D02*
X27348048Y72190785D01*
X27802176Y73660785D02*
X27348048Y73660785D01*
X221176512Y63631250D02*
X221176512Y67531250D01*
X223176512Y63631250D02*
X221176512Y63631250D01*
X223176512Y63631250D02*
X223176512Y67531250D01*
X183076512Y44581250D02*
X183076512Y48481250D01*
X185076512Y44581250D02*
X183076512Y44581250D01*
X185076512Y44581250D02*
X185076512Y48481250D01*
X121870590Y41013748D02*
X121870590Y41536252D01*
X123340590Y41013748D02*
X123340590Y41536252D01*
X125721840Y41502064D02*
X125721840Y41047936D01*
X124251840Y41502064D02*
X124251840Y41047936D01*
X135453782Y25531250D02*
X135453782Y29431250D01*
X137453782Y25531250D02*
X135453782Y25531250D01*
X137453782Y25531250D02*
X137453782Y29431250D01*
X173555358Y25531250D02*
X173555358Y29431250D01*
X175555358Y25531250D02*
X173555358Y25531250D01*
X175555358Y25531250D02*
X175555358Y29431250D01*
X27802176Y74274384D02*
X27348048Y74274384D01*
X27802176Y75744384D02*
X27348048Y75744384D01*
X116402994Y25531250D02*
X116402994Y29431250D01*
X118402994Y25531250D02*
X116402994Y25531250D01*
X118402994Y25531250D02*
X118402994Y29431250D01*
X49718439Y63631250D02*
X49718439Y67531250D01*
X51718439Y63631250D02*
X49718439Y63631250D01*
X51718439Y63631250D02*
X51718439Y67531250D01*
X202126512Y44581250D02*
X202126512Y48481250D01*
X204126512Y44581250D02*
X202126512Y44581250D01*
X204126512Y44581250D02*
X204126512Y48481250D01*
X97352206Y25531250D02*
X97352206Y29431250D01*
X99352206Y25531250D02*
X97352206Y25531250D01*
X99352206Y25531250D02*
X99352206Y29431250D01*
X192606146Y25531250D02*
X192606146Y29431250D01*
X194606146Y25531250D02*
X192606146Y25531250D01*
X194606146Y25531250D02*
X194606146Y29431250D01*
X37177132Y64560052D02*
X38977132Y64560052D01*
X38977132Y61340052D02*
X36027132Y61340052D01*
X128528750Y41502064D02*
X128528750Y41047936D01*
X127058750Y41502064D02*
X127058750Y41047936D01*
X126466892Y68649624D02*
X126097425Y69019091D01*
X127506339Y69689071D02*
X127136872Y70058538D01*
X211656940Y25531250D02*
X211656940Y29431250D01*
X213656940Y25531250D02*
X211656940Y25531250D01*
X213656940Y25531250D02*
X213656940Y29431250D01*
X183076512Y63631250D02*
X183076512Y67531250D01*
X185076512Y63631250D02*
X183076512Y63631250D01*
X185076512Y63631250D02*
X185076512Y67531250D01*
X106866352Y63631250D02*
X106866352Y67531250D01*
X108866352Y63631250D02*
X106866352Y63631250D01*
X108866352Y63631250D02*
X108866352Y67531250D01*
X46513602Y63860052D02*
X47717730Y63860052D01*
X46513602Y62040052D02*
X47717730Y62040052D01*
X87817047Y63631250D02*
X87817047Y67531250D01*
X89817047Y63631250D02*
X87817047Y63631250D01*
X89817047Y63631250D02*
X89817047Y67531250D01*
X25193750Y25531250D02*
X25193750Y29431250D01*
X27193750Y25531250D02*
X25193750Y25531250D01*
X27193750Y25531250D02*
X27193750Y29431250D01*
X68785728Y6481250D02*
X68785728Y10381250D01*
X70785728Y6481250D02*
X68785728Y6481250D01*
X70785728Y6481250D02*
X70785728Y10381250D01*
X154504570Y25531250D02*
X154504570Y29431250D01*
X156504570Y25531250D02*
X154504570Y25531250D01*
X156504570Y25531250D02*
X156504570Y29431250D01*
X144976512Y44581250D02*
X144976512Y48481250D01*
X146976512Y44581250D02*
X144976512Y44581250D01*
X146976512Y44581250D02*
X146976512Y48481250D01*
X87817047Y44581250D02*
X87817047Y48481250D01*
X89817047Y44581250D02*
X87817047Y44581250D01*
X89817047Y44581250D02*
X89817047Y48481250D01*
X164026512Y63631250D02*
X164026512Y67531250D01*
X166026512Y63631250D02*
X164026512Y63631250D01*
X166026512Y63631250D02*
X166026512Y67531250D01*
X114966195Y56206747D02*
X115420323Y56206747D01*
X114966195Y54736747D02*
X115420323Y54736747D01*
X60383750Y61722988D02*
X60383750Y62177116D01*
X61853750Y61722988D02*
X61853750Y62177116D01*
X68767743Y44581250D02*
X68767743Y48481250D01*
X70767743Y44581250D02*
X68767743Y44581250D01*
X70767743Y44581250D02*
X70767743Y48481250D01*
X30669135Y44581250D02*
X30669135Y48481250D01*
X32669135Y44581250D02*
X30669135Y44581250D01*
X32669135Y44581250D02*
X32669135Y48481250D01*
X119327500Y41047936D02*
X119327500Y41502064D01*
X120797500Y41047936D02*
X120797500Y41502064D01*
X11619831Y63631250D02*
X11619831Y67531250D01*
X13619831Y63631250D02*
X11619831Y63631250D01*
X13619831Y63631250D02*
X13619831Y67531250D01*
X118243894Y64395449D02*
X117874427Y64764916D01*
X119283341Y65434896D02*
X118913874Y65804363D01*
X128055002Y51652500D02*
X127532498Y51652500D01*
X128055002Y53122500D02*
X127532498Y53122500D01*
X42573547Y6481250D02*
X42573547Y10381250D01*
X44573547Y6481250D02*
X42573547Y6481250D01*
X44573547Y6481250D02*
X44573547Y10381250D01*
X214012720Y6481250D02*
X214012720Y10381250D01*
X216012720Y6481250D02*
X214012720Y6481250D01*
X216012720Y6481250D02*
X216012720Y10381250D01*
%LPC*%
D13*
X71120000Y28575000D03*
D14*
X76200000Y28575000D03*
D13*
X81280000Y28575000D03*
D15*
X72390000Y31115000D03*
X78740000Y33655000D03*
D13*
X30638750Y9525000D03*
D14*
X35718750Y9525000D03*
D13*
X40798750Y9525000D03*
D15*
X31908750Y12065000D03*
X38258750Y14605000D03*
D13*
X90170000Y28575000D03*
D14*
X95250000Y28575000D03*
D13*
X100330000Y28575000D03*
D15*
X91440000Y31115000D03*
X97790000Y33655000D03*
D13*
X202088750Y9525000D03*
D14*
X207168750Y9525000D03*
D13*
X212248750Y9525000D03*
D15*
X203358750Y12065000D03*
X209708750Y14605000D03*
D13*
X204470000Y28575000D03*
D14*
X209550000Y28575000D03*
D13*
X214630000Y28575000D03*
D15*
X205740000Y31115000D03*
X212090000Y33655000D03*
D13*
X156845000Y47625000D03*
D14*
X161925000Y47625000D03*
D13*
X167005000Y47625000D03*
D15*
X158115000Y50165000D03*
X164465000Y52705000D03*
D16*
X138950000Y28598299D03*
X127750000Y28635599D03*
D17*
X130850000Y21098299D03*
D18*
X135850000Y21098299D03*
X133350000Y21098299D03*
X135850000Y35598299D03*
X130850000Y35598299D03*
D13*
X194945000Y66675000D03*
D14*
X200025000Y66675000D03*
D13*
X205105000Y66675000D03*
D15*
X196215000Y69215000D03*
X202565000Y71755000D03*
D13*
X223520000Y28575000D03*
D14*
X228600000Y28575000D03*
D13*
X233680000Y28575000D03*
D15*
X224790000Y31115000D03*
X231140000Y33655000D03*
D13*
X73501250Y9525000D03*
D14*
X78581250Y9525000D03*
D13*
X83661250Y9525000D03*
D15*
X74771250Y12065000D03*
X81121250Y14605000D03*
D13*
X4445000Y66675000D03*
D14*
X9525000Y66675000D03*
D13*
X14605000Y66675000D03*
D15*
X5715000Y69215000D03*
X12065000Y71755000D03*
D13*
X185420000Y9525000D03*
D14*
X190500000Y9525000D03*
D13*
X195580000Y9525000D03*
D15*
X186690000Y12065000D03*
X193040000Y14605000D03*
D13*
X61595000Y9525000D03*
D14*
X66675000Y9525000D03*
D13*
X71755000Y9525000D03*
D15*
X62865000Y12065000D03*
X69215000Y14605000D03*
D13*
X213995000Y66675000D03*
D14*
X219075000Y66675000D03*
D13*
X224155000Y66675000D03*
D15*
X215265000Y69215000D03*
X221615000Y71755000D03*
D19*
X123825000Y44450000D03*
D13*
X54451250Y9525000D03*
D14*
X59531250Y9525000D03*
D13*
X64611250Y9525000D03*
D15*
X55721250Y12065000D03*
X62071250Y14605000D03*
D13*
X175895000Y66675000D03*
D14*
X180975000Y66675000D03*
D13*
X186055000Y66675000D03*
D15*
X177165000Y69215000D03*
X183515000Y71755000D03*
D13*
X185420000Y28575000D03*
D14*
X190500000Y28575000D03*
D13*
X195580000Y28575000D03*
D15*
X186690000Y31115000D03*
X193040000Y33655000D03*
D13*
X194945000Y47625000D03*
D14*
X200025000Y47625000D03*
D13*
X205105000Y47625000D03*
D15*
X196215000Y50165000D03*
X202565000Y52705000D03*
D13*
X156845000Y66675000D03*
D14*
X161925000Y66675000D03*
D13*
X167005000Y66675000D03*
D15*
X158115000Y69215000D03*
X164465000Y71755000D03*
D13*
X23495000Y47625000D03*
D14*
X28575000Y47625000D03*
D13*
X33655000Y47625000D03*
D15*
X24765000Y50165000D03*
X31115000Y52705000D03*
D13*
X11588750Y28575000D03*
D14*
X16668750Y28575000D03*
D13*
X21748750Y28575000D03*
D15*
X12858750Y31115000D03*
X19208750Y33655000D03*
D13*
X175895000Y9525000D03*
D14*
X180975000Y9525000D03*
D13*
X186055000Y9525000D03*
D15*
X177165000Y12065000D03*
X183515000Y14605000D03*
D13*
X35401250Y9525000D03*
D14*
X40481250Y9525000D03*
D13*
X45561250Y9525000D03*
D15*
X36671250Y12065000D03*
X43021250Y14605000D03*
D13*
X80645000Y9525000D03*
D14*
X85725000Y9525000D03*
D13*
X90805000Y9525000D03*
D15*
X81915000Y12065000D03*
X88265000Y14605000D03*
D19*
X121443750Y44450000D03*
D13*
X61595000Y47625000D03*
D14*
X66675000Y47625000D03*
D13*
X71755000Y47625000D03*
D15*
X62865000Y50165000D03*
X69215000Y52705000D03*
D13*
X128270000Y28575000D03*
D14*
X133350000Y28575000D03*
D13*
X138430000Y28575000D03*
D15*
X129540000Y31115000D03*
X135890000Y33655000D03*
D13*
X52070000Y9525000D03*
D14*
X57150000Y9525000D03*
D13*
X62230000Y9525000D03*
D15*
X53340000Y12065000D03*
X59690000Y14605000D03*
D13*
X42545000Y47625000D03*
D14*
X47625000Y47625000D03*
D13*
X52705000Y47625000D03*
D15*
X43815000Y50165000D03*
X50165000Y52705000D03*
D19*
X119062500Y44450000D03*
D13*
X213995000Y47625000D03*
D14*
X219075000Y47625000D03*
D13*
X224155000Y47625000D03*
D15*
X215265000Y50165000D03*
X221615000Y52705000D03*
D13*
X161607500Y9525000D03*
D14*
X166687500Y9525000D03*
D13*
X171767500Y9525000D03*
D15*
X162877500Y12065000D03*
X169227500Y14605000D03*
D13*
X137795000Y47625000D03*
D14*
X142875000Y47625000D03*
D13*
X147955000Y47625000D03*
D15*
X139065000Y50165000D03*
X145415000Y52705000D03*
D13*
X33020000Y28575000D03*
D14*
X38100000Y28575000D03*
D13*
X43180000Y28575000D03*
D15*
X34290000Y31115000D03*
X40640000Y33655000D03*
D19*
X126206250Y44450000D03*
D13*
X102076250Y9525000D03*
D14*
X107156250Y9525000D03*
D13*
X112236250Y9525000D03*
D15*
X103346250Y12065000D03*
X109696250Y14605000D03*
D13*
X147320000Y28575000D03*
D14*
X152400000Y28575000D03*
D13*
X157480000Y28575000D03*
D15*
X148590000Y31115000D03*
X154940000Y33655000D03*
D13*
X99695000Y66675000D03*
D14*
X104775000Y66675000D03*
D13*
X109855000Y66675000D03*
D15*
X100965000Y69215000D03*
X107315000Y71755000D03*
D13*
X4445000Y47625000D03*
D14*
X9525000Y47625000D03*
D13*
X14605000Y47625000D03*
D15*
X5715000Y50165000D03*
X12065000Y52705000D03*
D13*
X104457500Y9525000D03*
D14*
X109537500Y9525000D03*
D13*
X114617500Y9525000D03*
D15*
X105727500Y12065000D03*
X112077500Y14605000D03*
D13*
X156845000Y9525000D03*
D14*
X161925000Y9525000D03*
D13*
X167005000Y9525000D03*
D15*
X158115000Y12065000D03*
X164465000Y14605000D03*
D19*
X128587500Y44450000D03*
D13*
X9207500Y28575000D03*
D14*
X14287500Y28575000D03*
D13*
X19367500Y28575000D03*
D15*
X10477500Y31115000D03*
X16827500Y33655000D03*
D13*
X42545000Y66675000D03*
D14*
X47625000Y66675000D03*
D13*
X52705000Y66675000D03*
D15*
X43815000Y69215000D03*
X50165000Y71755000D03*
D13*
X75882500Y9525000D03*
D14*
X80962500Y9525000D03*
D13*
X86042500Y9525000D03*
D15*
X77152500Y12065000D03*
X83502500Y14605000D03*
D13*
X99695000Y47625000D03*
D14*
X104775000Y47625000D03*
D13*
X109855000Y47625000D03*
D15*
X100965000Y50165000D03*
X107315000Y52705000D03*
D13*
X233045000Y66675000D03*
D14*
X238125000Y66675000D03*
D13*
X243205000Y66675000D03*
D15*
X234315000Y69215000D03*
X240665000Y71755000D03*
D13*
X80645000Y66675000D03*
D14*
X85725000Y66675000D03*
D13*
X90805000Y66675000D03*
D15*
X81915000Y69215000D03*
X88265000Y71755000D03*
D13*
X233045000Y47625000D03*
D14*
X238125000Y47625000D03*
D13*
X243205000Y47625000D03*
D15*
X234315000Y50165000D03*
X240665000Y52705000D03*
D13*
X228282500Y28575000D03*
D14*
X233362500Y28575000D03*
D13*
X238442500Y28575000D03*
D15*
X229552500Y31115000D03*
X235902500Y33655000D03*
D13*
X166370000Y28575000D03*
D14*
X171450000Y28575000D03*
D13*
X176530000Y28575000D03*
D15*
X167640000Y31115000D03*
X173990000Y33655000D03*
D13*
X225901250Y28575000D03*
D14*
X230981250Y28575000D03*
D13*
X236061250Y28575000D03*
D15*
X227171250Y31115000D03*
X233521250Y33655000D03*
D13*
X135413750Y9525000D03*
D14*
X140493750Y9525000D03*
D13*
X145573750Y9525000D03*
D15*
X136683750Y12065000D03*
X143033750Y14605000D03*
D20*
X127635104Y74880048D03*
X125095104Y74880048D03*
X122555104Y74880048D03*
X120015104Y74880048D03*
D13*
X206851250Y9525000D03*
D14*
X211931250Y9525000D03*
D13*
X217011250Y9525000D03*
D15*
X208121250Y12065000D03*
X214471250Y14605000D03*
D13*
X80645000Y47625000D03*
D14*
X85725000Y47625000D03*
D13*
X90805000Y47625000D03*
D15*
X81915000Y50165000D03*
X88265000Y52705000D03*
D13*
X133032500Y9525000D03*
D14*
X138112500Y9525000D03*
D13*
X143192500Y9525000D03*
D15*
X134302500Y12065000D03*
X140652500Y14605000D03*
D13*
X163988750Y9525000D03*
D14*
X169068750Y9525000D03*
D13*
X174148750Y9525000D03*
D15*
X165258750Y12065000D03*
X171608750Y14605000D03*
D13*
X137795000Y66675000D03*
D14*
X142875000Y66675000D03*
D13*
X147955000Y66675000D03*
D15*
X139065000Y69215000D03*
X145415000Y71755000D03*
D13*
X13970000Y28575000D03*
D14*
X19050000Y28575000D03*
D13*
X24130000Y28575000D03*
D15*
X15240000Y31115000D03*
X21590000Y33655000D03*
D13*
X109220000Y28575000D03*
D14*
X114300000Y28575000D03*
D13*
X119380000Y28575000D03*
D15*
X110490000Y31115000D03*
X116840000Y33655000D03*
D13*
X183038750Y9525000D03*
D14*
X188118750Y9525000D03*
D13*
X193198750Y9525000D03*
D15*
X184308750Y12065000D03*
X190658750Y14605000D03*
D13*
X52070000Y28575000D03*
D14*
X57150000Y28575000D03*
D13*
X62230000Y28575000D03*
D15*
X53340000Y31115000D03*
X59690000Y33655000D03*
D13*
X175895000Y47625000D03*
D14*
X180975000Y47625000D03*
D13*
X186055000Y47625000D03*
D15*
X177165000Y50165000D03*
X183515000Y52705000D03*
D13*
X23495000Y66675000D03*
D14*
X28575000Y66675000D03*
D13*
X33655000Y66675000D03*
D15*
X24765000Y69215000D03*
X31115000Y71755000D03*
D13*
X61595000Y66675000D03*
D14*
X66675000Y66675000D03*
D13*
X71755000Y66675000D03*
D15*
X62865000Y69215000D03*
X69215000Y71755000D03*
D21*
X60250630Y26131250D03*
X60250630Y29431250D03*
D22*
X114193259Y57503747D03*
X116193259Y57503747D03*
D23*
X125663478Y66887132D03*
X123612868Y64836522D03*
X121986522Y66462868D03*
X124037132Y68513478D03*
D24*
X45243910Y72292971D03*
X45243910Y74367971D03*
D21*
X79301418Y26131250D03*
X79301418Y29431250D03*
X147637500Y7081250D03*
X147637500Y10381250D03*
X241226512Y45181250D03*
X241226512Y48481250D03*
X165026512Y45181250D03*
X165026512Y48481250D03*
X50718439Y45181250D03*
X50718439Y48481250D03*
X241226512Y64231250D03*
X241226512Y67531250D03*
X116681250Y7081250D03*
X116681250Y10381250D03*
X154781250Y7081250D03*
X154781250Y10381250D03*
D25*
X119368750Y52387500D03*
X121443750Y52387500D03*
D26*
X130923791Y54557665D03*
X128923791Y54557665D03*
D21*
X222176512Y45181250D03*
X222176512Y48481250D03*
D27*
X120487500Y55285178D03*
X120487500Y55785178D03*
X120487500Y56285178D03*
X120487500Y56785178D03*
X120487500Y57285178D03*
X120487500Y57785178D03*
X120487500Y58285178D03*
X120487500Y58785178D03*
X120487500Y59285178D03*
X120487500Y59785178D03*
X120487500Y60285178D03*
D28*
X121325000Y61122678D03*
X121825000Y61122678D03*
X122325000Y61122678D03*
X122825000Y61122678D03*
X123325000Y61122678D03*
X123825000Y61122678D03*
X124325000Y61122678D03*
X124825000Y61122678D03*
X125325000Y61122678D03*
X125825000Y61122678D03*
X126325000Y61122678D03*
D27*
X127162500Y60285178D03*
X127162500Y59785178D03*
X127162500Y59285178D03*
X127162500Y58785178D03*
X127162500Y58285178D03*
X127162500Y57785178D03*
X127162500Y57285178D03*
X127162500Y56785178D03*
X127162500Y56285178D03*
X127162500Y55785178D03*
X127162500Y55285178D03*
D28*
X126325000Y54447678D03*
X125825000Y54447678D03*
X125325000Y54447678D03*
X124825000Y54447678D03*
X124325000Y54447678D03*
X123825000Y54447678D03*
X123325000Y54447678D03*
X122825000Y54447678D03*
X122325000Y54447678D03*
X121825000Y54447678D03*
X121325000Y54447678D03*
D29*
X123825000Y57785178D03*
D21*
X41199842Y26131250D03*
X41199842Y29431250D03*
X240506250Y26131250D03*
X240506250Y29431250D03*
D30*
X55300000Y66798491D03*
X55300000Y60598491D03*
X59000000Y66798491D03*
X59000000Y60598491D03*
D31*
X122177373Y69789873D03*
X120710127Y68322627D03*
D21*
X31669135Y64231250D03*
X31669135Y67531250D03*
D32*
X116230759Y59531250D03*
X114155759Y59531250D03*
D21*
X12619831Y45181250D03*
X12619831Y48481250D03*
D33*
X47625160Y74330471D03*
X47625160Y72330471D03*
D21*
X197643750Y7081250D03*
X197643750Y10381250D03*
X203126512Y64231250D03*
X203126512Y67531250D03*
D24*
X129365549Y60416196D03*
X129365549Y62491196D03*
D21*
X69767743Y64231250D03*
X69767743Y67531250D03*
X145976512Y64231250D03*
X145976512Y67531250D03*
D34*
X52982857Y62950052D03*
X52982857Y60875052D03*
D21*
X107866352Y45181250D03*
X107866352Y48481250D03*
X88823659Y7081250D03*
X88823659Y10381250D03*
D26*
X28575112Y72925785D03*
X26575112Y72925785D03*
D21*
X222176512Y64231250D03*
X222176512Y67531250D03*
X184076512Y45181250D03*
X184076512Y48481250D03*
D24*
X122605590Y40237500D03*
X122605590Y42312500D03*
D33*
X124986840Y42275000D03*
X124986840Y40275000D03*
D21*
X136453782Y26131250D03*
X136453782Y29431250D03*
X174555358Y26131250D03*
X174555358Y29431250D03*
D26*
X28575112Y75009384D03*
X26575112Y75009384D03*
D35*
X35210032Y72153812D03*
X40990032Y72153812D03*
D36*
X34875032Y70208812D03*
X35650032Y70208812D03*
D37*
X36350032Y70208812D03*
X36850032Y70208812D03*
X37350032Y70208812D03*
X37850032Y70208812D03*
X38350032Y70208812D03*
X38850032Y70208812D03*
X39350032Y70208812D03*
X39850032Y70208812D03*
D36*
X40550032Y70208812D03*
X41325032Y70208812D03*
D21*
X117402994Y26131250D03*
X117402994Y29431250D03*
X50718439Y64231250D03*
X50718439Y67531250D03*
X203126512Y45181250D03*
X203126512Y48481250D03*
D38*
X114617500Y68897500D03*
D39*
X117157500Y68897500D03*
X114617500Y71437500D03*
X117157500Y71437500D03*
X114617500Y73977500D03*
X117157500Y73977500D03*
D21*
X98352206Y26131250D03*
X98352206Y29431250D03*
X193606146Y26131250D03*
X193606146Y29431250D03*
D40*
X36727132Y62000052D03*
X36727132Y62950052D03*
X36727132Y63900052D03*
X39427132Y63900052D03*
X39427132Y62950052D03*
X39427132Y62000052D03*
D33*
X127793750Y42275000D03*
X127793750Y40275000D03*
D41*
X127535505Y68620458D03*
X126068259Y70087704D03*
D21*
X212656940Y26131250D03*
X212656940Y29431250D03*
X184076512Y64231250D03*
X184076512Y67531250D03*
X107866352Y64231250D03*
X107866352Y67531250D03*
D42*
X45415666Y62950052D03*
X48815666Y62950052D03*
D21*
X88817047Y64231250D03*
X88817047Y67531250D03*
X26193750Y26131250D03*
X26193750Y29431250D03*
X69785728Y7081250D03*
X69785728Y10381250D03*
X155504570Y26131250D03*
X155504570Y29431250D03*
X145976512Y45181250D03*
X145976512Y48481250D03*
X88817047Y45181250D03*
X88817047Y48481250D03*
X165026512Y64231250D03*
X165026512Y67531250D03*
D22*
X114193259Y55471747D03*
X116193259Y55471747D03*
D43*
X61118750Y60950052D03*
X61118750Y62950052D03*
D21*
X69767743Y45181250D03*
X69767743Y48481250D03*
X31669135Y45181250D03*
X31669135Y48481250D03*
D43*
X120062500Y40275000D03*
X120062500Y42275000D03*
D21*
X12619831Y64231250D03*
X12619831Y67531250D03*
D41*
X119312507Y64366283D03*
X117845261Y65833529D03*
D32*
X128831250Y52387500D03*
X126756250Y52387500D03*
D21*
X43573547Y7081250D03*
X43573547Y10381250D03*
X215012720Y7081250D03*
X215012720Y10381250D03*
%LPD*%
M02*
