%TF.GenerationSoftware,KiCad,Pcbnew,7.0.6*%
%TF.CreationDate,2023-08-25T16:13:21-04:00*%
%TF.ProjectId,Vault45_alpha,5661756c-7434-4355-9f61-6c7068612e6b,rev?*%
%TF.SameCoordinates,PX198c50aPY6631428*%
%TF.FileFunction,Legend,Top*%
%TF.FilePolarity,Positive*%
%FSLAX46Y46*%
G04 Gerber Fmt 4.6, Leading zero omitted, Abs format (unit mm)*
G04 Created by KiCad (PCBNEW 7.0.6) date 2023-08-25 16:13:21*
%MOMM*%
%LPD*%
G01*
G04 APERTURE LIST*
G04 Aperture macros list*
%AMRoundRect*
0 Rectangle with rounded corners*
0 $1 Rounding radius*
0 $2 $3 $4 $5 $6 $7 $8 $9 X,Y pos of 4 corners*
0 Add a 4 corners polygon primitive as box body*
4,1,4,$2,$3,$4,$5,$6,$7,$8,$9,$2,$3,0*
0 Add four circle primitives for the rounded corners*
1,1,$1+$1,$2,$3*
1,1,$1+$1,$4,$5*
1,1,$1+$1,$6,$7*
1,1,$1+$1,$8,$9*
0 Add four rect primitives between the rounded corners*
20,1,$1+$1,$2,$3,$4,$5,0*
20,1,$1+$1,$4,$5,$6,$7,0*
20,1,$1+$1,$6,$7,$8,$9,0*
20,1,$1+$1,$8,$9,$2,$3,0*%
G04 Aperture macros list end*
%ADD10C,0.150000*%
%ADD11C,0.120000*%
%ADD12C,1.397000*%
%ADD13C,1.750000*%
%ADD14C,3.987800*%
%ADD15O,1.500000X2.800000*%
%ADD16R,2.000000X2.000000*%
%ADD17C,2.000000*%
%ADD18R,1.100000X1.800000*%
%ADD19R,1.000000X1.000000*%
%ADD20C,0.650000*%
%ADD21O,0.800000X1.600000*%
%ADD22O,1.000000X2.100000*%
%ADD23RoundRect,0.250000X-0.600000X-0.600000X0.600000X-0.600000X0.600000X0.600000X-0.600000X0.600000X0*%
%ADD24C,1.700000*%
G04 APERTURE END LIST*
D10*
X140204904Y5222955D02*
X140252523Y5270574D01*
X140252523Y5270574D02*
X140347761Y5318193D01*
X140347761Y5318193D02*
X140585856Y5318193D01*
X140585856Y5318193D02*
X140681094Y5270574D01*
X140681094Y5270574D02*
X140728713Y5222955D01*
X140728713Y5222955D02*
X140776332Y5127717D01*
X140776332Y5127717D02*
X140776332Y5032479D01*
X140776332Y5032479D02*
X140728713Y4889622D01*
X140728713Y4889622D02*
X140157285Y4318193D01*
X140157285Y4318193D02*
X140776332Y4318193D01*
X81248214Y5895181D02*
X80676786Y5895181D01*
X80962500Y5895181D02*
X80962500Y6895181D01*
X80962500Y6895181D02*
X80867262Y6752324D01*
X80867262Y6752324D02*
X80772024Y6657086D01*
X80772024Y6657086D02*
X80676786Y6609467D01*
X66340548Y6905693D02*
X66959595Y6905693D01*
X66959595Y6905693D02*
X66626262Y6524741D01*
X66626262Y6524741D02*
X66769119Y6524741D01*
X66769119Y6524741D02*
X66864357Y6477122D01*
X66864357Y6477122D02*
X66911976Y6429503D01*
X66911976Y6429503D02*
X66959595Y6334265D01*
X66959595Y6334265D02*
X66959595Y6096170D01*
X66959595Y6096170D02*
X66911976Y6000932D01*
X66911976Y6000932D02*
X66864357Y5953312D01*
X66864357Y5953312D02*
X66769119Y5905693D01*
X66769119Y5905693D02*
X66483405Y5905693D01*
X66483405Y5905693D02*
X66388167Y5953312D01*
X66388167Y5953312D02*
X66340548Y6000932D01*
X106870536Y5212443D02*
X106918155Y5260062D01*
X106918155Y5260062D02*
X107013393Y5307681D01*
X107013393Y5307681D02*
X107251488Y5307681D01*
X107251488Y5307681D02*
X107346726Y5260062D01*
X107346726Y5260062D02*
X107394345Y5212443D01*
X107394345Y5212443D02*
X107441964Y5117205D01*
X107441964Y5117205D02*
X107441964Y5021967D01*
X107441964Y5021967D02*
X107394345Y4879110D01*
X107394345Y4879110D02*
X106822917Y4307681D01*
X106822917Y4307681D02*
X107441964Y4307681D01*
X40146127Y6905693D02*
X40765174Y6905693D01*
X40765174Y6905693D02*
X40431841Y6524741D01*
X40431841Y6524741D02*
X40574698Y6524741D01*
X40574698Y6524741D02*
X40669936Y6477122D01*
X40669936Y6477122D02*
X40717555Y6429503D01*
X40717555Y6429503D02*
X40765174Y6334265D01*
X40765174Y6334265D02*
X40765174Y6096170D01*
X40765174Y6096170D02*
X40717555Y6000932D01*
X40717555Y6000932D02*
X40669936Y5953312D01*
X40669936Y5953312D02*
X40574698Y5905693D01*
X40574698Y5905693D02*
X40288984Y5905693D01*
X40288984Y5905693D02*
X40193746Y5953312D01*
X40193746Y5953312D02*
X40146127Y6000932D01*
X56855116Y6810455D02*
X56902735Y6858074D01*
X56902735Y6858074D02*
X56997973Y6905693D01*
X56997973Y6905693D02*
X57236068Y6905693D01*
X57236068Y6905693D02*
X57331306Y6858074D01*
X57331306Y6858074D02*
X57378925Y6810455D01*
X57378925Y6810455D02*
X57426544Y6715217D01*
X57426544Y6715217D02*
X57426544Y6619979D01*
X57426544Y6619979D02*
X57378925Y6477122D01*
X57378925Y6477122D02*
X56807497Y5905693D01*
X56807497Y5905693D02*
X57426544Y5905693D01*
X109204167Y6895181D02*
X109823214Y6895181D01*
X109823214Y6895181D02*
X109489881Y6514229D01*
X109489881Y6514229D02*
X109632738Y6514229D01*
X109632738Y6514229D02*
X109727976Y6466610D01*
X109727976Y6466610D02*
X109775595Y6418991D01*
X109775595Y6418991D02*
X109823214Y6323753D01*
X109823214Y6323753D02*
X109823214Y6085658D01*
X109823214Y6085658D02*
X109775595Y5990420D01*
X109775595Y5990420D02*
X109727976Y5942800D01*
X109727976Y5942800D02*
X109632738Y5895181D01*
X109632738Y5895181D02*
X109347024Y5895181D01*
X109347024Y5895181D02*
X109251786Y5942800D01*
X109251786Y5942800D02*
X109204167Y5990420D01*
X36004464Y5895181D02*
X35433036Y5895181D01*
X35718750Y5895181D02*
X35718750Y6895181D01*
X35718750Y6895181D02*
X35623512Y6752324D01*
X35623512Y6752324D02*
X35528274Y6657086D01*
X35528274Y6657086D02*
X35433036Y6609467D01*
X140776332Y5905693D02*
X140204904Y5905693D01*
X140490618Y5905693D02*
X140490618Y6905693D01*
X140490618Y6905693D02*
X140395380Y6762836D01*
X140395380Y6762836D02*
X140300142Y6667598D01*
X140300142Y6667598D02*
X140204904Y6619979D01*
X161585181Y6905693D02*
X162204228Y6905693D01*
X162204228Y6905693D02*
X161870895Y6524741D01*
X161870895Y6524741D02*
X162013752Y6524741D01*
X162013752Y6524741D02*
X162108990Y6477122D01*
X162108990Y6477122D02*
X162156609Y6429503D01*
X162156609Y6429503D02*
X162204228Y6334265D01*
X162204228Y6334265D02*
X162204228Y6096170D01*
X162204228Y6096170D02*
X162156609Y6000932D01*
X162156609Y6000932D02*
X162108990Y5953312D01*
X162108990Y5953312D02*
X162013752Y5905693D01*
X162013752Y5905693D02*
X161728038Y5905693D01*
X161728038Y5905693D02*
X161632800Y5953312D01*
X161632800Y5953312D02*
X161585181Y6000932D01*
X59816963Y5905693D02*
X59245535Y5905693D01*
X59531249Y5905693D02*
X59531249Y6905693D01*
X59531249Y6905693D02*
X59436011Y6762836D01*
X59436011Y6762836D02*
X59340773Y6667598D01*
X59340773Y6667598D02*
X59245535Y6619979D01*
X166970753Y5905693D02*
X166399325Y5905693D01*
X166685039Y5905693D02*
X166685039Y6905693D01*
X166685039Y6905693D02*
X166589801Y6762836D01*
X166589801Y6762836D02*
X166494563Y6667598D01*
X166494563Y6667598D02*
X166399325Y6619979D01*
X168775431Y6810455D02*
X168823050Y6858074D01*
X168823050Y6858074D02*
X168918288Y6905693D01*
X168918288Y6905693D02*
X169156383Y6905693D01*
X169156383Y6905693D02*
X169251621Y6858074D01*
X169251621Y6858074D02*
X169299240Y6810455D01*
X169299240Y6810455D02*
X169346859Y6715217D01*
X169346859Y6715217D02*
X169346859Y6619979D01*
X169346859Y6619979D02*
X169299240Y6477122D01*
X169299240Y6477122D02*
X168727812Y5905693D01*
X168727812Y5905693D02*
X169346859Y5905693D01*
X78295536Y6799943D02*
X78343155Y6847562D01*
X78343155Y6847562D02*
X78438393Y6895181D01*
X78438393Y6895181D02*
X78676488Y6895181D01*
X78676488Y6895181D02*
X78771726Y6847562D01*
X78771726Y6847562D02*
X78819345Y6799943D01*
X78819345Y6799943D02*
X78866964Y6704705D01*
X78866964Y6704705D02*
X78866964Y6609467D01*
X78866964Y6609467D02*
X78819345Y6466610D01*
X78819345Y6466610D02*
X78247917Y5895181D01*
X78247917Y5895181D02*
X78866964Y5895181D01*
X107441964Y5895181D02*
X106870536Y5895181D01*
X107156250Y5895181D02*
X107156250Y6895181D01*
X107156250Y6895181D02*
X107061012Y6752324D01*
X107061012Y6752324D02*
X106965774Y6657086D01*
X106965774Y6657086D02*
X106870536Y6609467D01*
X137779167Y6895181D02*
X138398214Y6895181D01*
X138398214Y6895181D02*
X138064881Y6514229D01*
X138064881Y6514229D02*
X138207738Y6514229D01*
X138207738Y6514229D02*
X138302976Y6466610D01*
X138302976Y6466610D02*
X138350595Y6418991D01*
X138350595Y6418991D02*
X138398214Y6323753D01*
X138398214Y6323753D02*
X138398214Y6085658D01*
X138398214Y6085658D02*
X138350595Y5990420D01*
X138350595Y5990420D02*
X138302976Y5942800D01*
X138302976Y5942800D02*
X138207738Y5895181D01*
X138207738Y5895181D02*
X137922024Y5895181D01*
X137922024Y5895181D02*
X137826786Y5942800D01*
X137826786Y5942800D02*
X137779167Y5990420D01*
X190214286Y6799943D02*
X190261905Y6847562D01*
X190261905Y6847562D02*
X190357143Y6895181D01*
X190357143Y6895181D02*
X190595238Y6895181D01*
X190595238Y6895181D02*
X190690476Y6847562D01*
X190690476Y6847562D02*
X190738095Y6799943D01*
X190738095Y6799943D02*
X190785714Y6704705D01*
X190785714Y6704705D02*
X190785714Y6609467D01*
X190785714Y6609467D02*
X190738095Y6466610D01*
X190738095Y6466610D02*
X190166667Y5895181D01*
X190166667Y5895181D02*
X190785714Y5895181D01*
X211645536Y5212443D02*
X211693155Y5260062D01*
X211693155Y5260062D02*
X211788393Y5307681D01*
X211788393Y5307681D02*
X212026488Y5307681D01*
X212026488Y5307681D02*
X212121726Y5260062D01*
X212121726Y5260062D02*
X212169345Y5212443D01*
X212169345Y5212443D02*
X212216964Y5117205D01*
X212216964Y5117205D02*
X212216964Y5021967D01*
X212216964Y5021967D02*
X212169345Y4879110D01*
X212169345Y4879110D02*
X211597917Y4307681D01*
X211597917Y4307681D02*
X212216964Y4307681D01*
X212216964Y5895181D02*
X211645536Y5895181D01*
X211931250Y5895181D02*
X211931250Y6895181D01*
X211931250Y6895181D02*
X211836012Y6752324D01*
X211836012Y6752324D02*
X211740774Y6657086D01*
X211740774Y6657086D02*
X211645536Y6609467D01*
X180641667Y6895181D02*
X181260714Y6895181D01*
X181260714Y6895181D02*
X180927381Y6514229D01*
X180927381Y6514229D02*
X181070238Y6514229D01*
X181070238Y6514229D02*
X181165476Y6466610D01*
X181165476Y6466610D02*
X181213095Y6418991D01*
X181213095Y6418991D02*
X181260714Y6323753D01*
X181260714Y6323753D02*
X181260714Y6085658D01*
X181260714Y6085658D02*
X181213095Y5990420D01*
X181213095Y5990420D02*
X181165476Y5942800D01*
X181165476Y5942800D02*
X181070238Y5895181D01*
X181070238Y5895181D02*
X180784524Y5895181D01*
X180784524Y5895181D02*
X180689286Y5942800D01*
X180689286Y5942800D02*
X180641667Y5990420D01*
X206835417Y6895181D02*
X207454464Y6895181D01*
X207454464Y6895181D02*
X207121131Y6514229D01*
X207121131Y6514229D02*
X207263988Y6514229D01*
X207263988Y6514229D02*
X207359226Y6466610D01*
X207359226Y6466610D02*
X207406845Y6418991D01*
X207406845Y6418991D02*
X207454464Y6323753D01*
X207454464Y6323753D02*
X207454464Y6085658D01*
X207454464Y6085658D02*
X207406845Y5990420D01*
X207406845Y5990420D02*
X207359226Y5942800D01*
X207359226Y5942800D02*
X207263988Y5895181D01*
X207263988Y5895181D02*
X206978274Y5895181D01*
X206978274Y5895181D02*
X206883036Y5942800D01*
X206883036Y5942800D02*
X206835417Y5990420D01*
X35433036Y5212443D02*
X35480655Y5260062D01*
X35480655Y5260062D02*
X35575893Y5307681D01*
X35575893Y5307681D02*
X35813988Y5307681D01*
X35813988Y5307681D02*
X35909226Y5260062D01*
X35909226Y5260062D02*
X35956845Y5212443D01*
X35956845Y5212443D02*
X36004464Y5117205D01*
X36004464Y5117205D02*
X36004464Y5021967D01*
X36004464Y5021967D02*
X35956845Y4879110D01*
X35956845Y4879110D02*
X35385417Y4307681D01*
X35385417Y4307681D02*
X36004464Y4307681D01*
X85449593Y7034518D02*
X86068640Y7034518D01*
X86068640Y7034518D02*
X85735307Y6653566D01*
X85735307Y6653566D02*
X85878164Y6653566D01*
X85878164Y6653566D02*
X85973402Y6605947D01*
X85973402Y6605947D02*
X86021021Y6558328D01*
X86021021Y6558328D02*
X86068640Y6463090D01*
X86068640Y6463090D02*
X86068640Y6224995D01*
X86068640Y6224995D02*
X86021021Y6129757D01*
X86021021Y6129757D02*
X85973402Y6082137D01*
X85973402Y6082137D02*
X85878164Y6034518D01*
X85878164Y6034518D02*
X85592450Y6034518D01*
X85592450Y6034518D02*
X85497212Y6082137D01*
X85497212Y6082137D02*
X85449593Y6129757D01*
X188404464Y5895181D02*
X187833036Y5895181D01*
X188118750Y5895181D02*
X188118750Y6895181D01*
X188118750Y6895181D02*
X188023512Y6752324D01*
X188023512Y6752324D02*
X187928274Y6657086D01*
X187928274Y6657086D02*
X187833036Y6609467D01*
X55816715Y68053791D02*
X55959572Y68006172D01*
X55959572Y68006172D02*
X56197667Y68006172D01*
X56197667Y68006172D02*
X56292905Y68053791D01*
X56292905Y68053791D02*
X56340524Y68101411D01*
X56340524Y68101411D02*
X56388143Y68196649D01*
X56388143Y68196649D02*
X56388143Y68291887D01*
X56388143Y68291887D02*
X56340524Y68387125D01*
X56340524Y68387125D02*
X56292905Y68434744D01*
X56292905Y68434744D02*
X56197667Y68482363D01*
X56197667Y68482363D02*
X56007191Y68529982D01*
X56007191Y68529982D02*
X55911953Y68577601D01*
X55911953Y68577601D02*
X55864334Y68625220D01*
X55864334Y68625220D02*
X55816715Y68720458D01*
X55816715Y68720458D02*
X55816715Y68815696D01*
X55816715Y68815696D02*
X55864334Y68910934D01*
X55864334Y68910934D02*
X55911953Y68958553D01*
X55911953Y68958553D02*
X56007191Y69006172D01*
X56007191Y69006172D02*
X56245286Y69006172D01*
X56245286Y69006172D02*
X56388143Y68958553D01*
X56721477Y69006172D02*
X56959572Y68006172D01*
X56959572Y68006172D02*
X57150048Y68720458D01*
X57150048Y68720458D02*
X57340524Y68006172D01*
X57340524Y68006172D02*
X57578620Y69006172D01*
X57911953Y68910934D02*
X57959572Y68958553D01*
X57959572Y68958553D02*
X58054810Y69006172D01*
X58054810Y69006172D02*
X58292905Y69006172D01*
X58292905Y69006172D02*
X58388143Y68958553D01*
X58388143Y68958553D02*
X58435762Y68910934D01*
X58435762Y68910934D02*
X58483381Y68815696D01*
X58483381Y68815696D02*
X58483381Y68720458D01*
X58483381Y68720458D02*
X58435762Y68577601D01*
X58435762Y68577601D02*
X57864334Y68006172D01*
X57864334Y68006172D02*
X58483381Y68006172D01*
X122372723Y73875229D02*
X122563199Y73875229D01*
X122563199Y73875229D02*
X122658437Y73827610D01*
X122658437Y73827610D02*
X122753675Y73732372D01*
X122753675Y73732372D02*
X122801294Y73541896D01*
X122801294Y73541896D02*
X122801294Y73208563D01*
X122801294Y73208563D02*
X122753675Y73018087D01*
X122753675Y73018087D02*
X122658437Y72922848D01*
X122658437Y72922848D02*
X122563199Y72875229D01*
X122563199Y72875229D02*
X122372723Y72875229D01*
X122372723Y72875229D02*
X122277485Y72922848D01*
X122277485Y72922848D02*
X122182247Y73018087D01*
X122182247Y73018087D02*
X122134628Y73208563D01*
X122134628Y73208563D02*
X122134628Y73541896D01*
X122134628Y73541896D02*
X122182247Y73732372D01*
X122182247Y73732372D02*
X122277485Y73827610D01*
X122277485Y73827610D02*
X122372723Y73875229D01*
X123706056Y72875229D02*
X123229866Y72875229D01*
X123229866Y72875229D02*
X123229866Y73875229D01*
X124039390Y73399039D02*
X124372723Y73399039D01*
X124515580Y72875229D02*
X124039390Y72875229D01*
X124039390Y72875229D02*
X124039390Y73875229D01*
X124039390Y73875229D02*
X124515580Y73875229D01*
X124944152Y72875229D02*
X124944152Y73875229D01*
X124944152Y73875229D02*
X125182247Y73875229D01*
X125182247Y73875229D02*
X125325104Y73827610D01*
X125325104Y73827610D02*
X125420342Y73732372D01*
X125420342Y73732372D02*
X125467961Y73637134D01*
X125467961Y73637134D02*
X125515580Y73446658D01*
X125515580Y73446658D02*
X125515580Y73303801D01*
X125515580Y73303801D02*
X125467961Y73113325D01*
X125467961Y73113325D02*
X125420342Y73018087D01*
X125420342Y73018087D02*
X125325104Y72922848D01*
X125325104Y72922848D02*
X125182247Y72875229D01*
X125182247Y72875229D02*
X124944152Y72875229D01*
D11*
X133350000Y28098299D02*
X133350000Y29098299D01*
X132850000Y28598299D02*
X133850000Y28598299D01*
X58190048Y60978491D02*
X56110048Y60978491D01*
X54430048Y62248491D02*
X54920048Y61758491D01*
X54430048Y62248491D02*
X54430048Y65148491D01*
X59870048Y62248491D02*
X59380048Y61758491D01*
X59870048Y62248491D02*
X59870048Y65148491D01*
X54430048Y65148491D02*
X54920048Y65638491D01*
X59870048Y65148491D02*
X59380048Y65638491D01*
X58190048Y66418491D02*
X56110048Y66418491D01*
X124525000Y43750000D02*
X123125000Y43750000D01*
X124525000Y45150000D02*
X124525000Y43750000D01*
X123125000Y43750000D02*
X123125000Y45150000D01*
X123125000Y45150000D02*
X124525000Y45150000D01*
X122143750Y43750000D02*
X120743750Y43750000D01*
X122143750Y45150000D02*
X122143750Y43750000D01*
X120743750Y43750000D02*
X120743750Y45150000D01*
X120743750Y45150000D02*
X122143750Y45150000D01*
X119762500Y43750000D02*
X118362500Y43750000D01*
X119762500Y45150000D02*
X119762500Y43750000D01*
X118362500Y43750000D02*
X118362500Y45150000D01*
X118362500Y45150000D02*
X119762500Y45150000D01*
X126906250Y43750000D02*
X125506250Y43750000D01*
X126906250Y45150000D02*
X126906250Y43750000D01*
X125506250Y43750000D02*
X125506250Y45150000D01*
X125506250Y45150000D02*
X126906250Y45150000D01*
X129287500Y43750000D02*
X127887500Y43750000D01*
X129287500Y45150000D02*
X129287500Y43750000D01*
X127887500Y43750000D02*
X127887500Y45150000D01*
X127887500Y45150000D02*
X129287500Y45150000D01*
D12*
X127635104Y74880048D03*
X125095104Y74880048D03*
X122555104Y74880048D03*
X120015104Y74880048D03*
%LPC*%
D13*
X71120000Y28575000D03*
D14*
X76200000Y28575000D03*
D13*
X81280000Y28575000D03*
X30638750Y9525000D03*
D14*
X35718750Y9525000D03*
D13*
X40798750Y9525000D03*
X90170000Y28575000D03*
D14*
X95250000Y28575000D03*
D13*
X100330000Y28575000D03*
X202088750Y9525000D03*
D14*
X207168750Y9525000D03*
D13*
X212248750Y9525000D03*
X204470000Y28575000D03*
D14*
X209550000Y28575000D03*
D13*
X214630000Y28575000D03*
X156845000Y47625000D03*
D14*
X161925000Y47625000D03*
D13*
X167005000Y47625000D03*
D15*
X138950000Y28598299D03*
X127750000Y28635599D03*
D16*
X130850000Y21098299D03*
D17*
X135850000Y21098299D03*
X133350000Y21098299D03*
X135850000Y35598299D03*
X130850000Y35598299D03*
D13*
X194945000Y66675000D03*
D14*
X200025000Y66675000D03*
D13*
X205105000Y66675000D03*
X223520000Y28575000D03*
D14*
X228600000Y28575000D03*
D13*
X233680000Y28575000D03*
X73501250Y9525000D03*
D14*
X78581250Y9525000D03*
D13*
X83661250Y9525000D03*
X4445000Y66675000D03*
D14*
X9525000Y66675000D03*
D13*
X14605000Y66675000D03*
D18*
X55300048Y60598491D03*
X55300048Y66798491D03*
X59000048Y60598491D03*
X59000048Y66798491D03*
D13*
X185420000Y9525000D03*
D14*
X190500000Y9525000D03*
D13*
X195580000Y9525000D03*
X61595000Y9525000D03*
D14*
X66675000Y9525000D03*
D13*
X71755000Y9525000D03*
X213995000Y66675000D03*
D14*
X219075000Y66675000D03*
D13*
X224155000Y66675000D03*
D19*
X123825000Y44450000D03*
D13*
X54451250Y9525000D03*
D14*
X59531250Y9525000D03*
D13*
X64611250Y9525000D03*
X175895000Y66675000D03*
D14*
X180975000Y66675000D03*
D13*
X186055000Y66675000D03*
X185420000Y28575000D03*
D14*
X190500000Y28575000D03*
D13*
X195580000Y28575000D03*
X194945000Y47625000D03*
D14*
X200025000Y47625000D03*
D13*
X205105000Y47625000D03*
X156845000Y66675000D03*
D14*
X161925000Y66675000D03*
D13*
X167005000Y66675000D03*
X23495000Y47625000D03*
D14*
X28575000Y47625000D03*
D13*
X33655000Y47625000D03*
X11588750Y28575000D03*
D14*
X16668750Y28575000D03*
D13*
X21748750Y28575000D03*
X175895000Y9525000D03*
D14*
X180975000Y9525000D03*
D13*
X186055000Y9525000D03*
X35401250Y9525000D03*
D14*
X40481250Y9525000D03*
D13*
X45561250Y9525000D03*
X80645000Y9525000D03*
D14*
X85725000Y9525000D03*
D13*
X90805000Y9525000D03*
D19*
X121443750Y44450000D03*
D13*
X61595000Y47625000D03*
D14*
X66675000Y47625000D03*
D13*
X71755000Y47625000D03*
X128270000Y28575000D03*
D14*
X133350000Y28575000D03*
D13*
X138430000Y28575000D03*
X52070000Y9525000D03*
D14*
X57150000Y9525000D03*
D13*
X62230000Y9525000D03*
X42545000Y47625000D03*
D14*
X47625000Y47625000D03*
D13*
X52705000Y47625000D03*
D19*
X119062500Y44450000D03*
D13*
X213995000Y47625000D03*
D14*
X219075000Y47625000D03*
D13*
X224155000Y47625000D03*
X161607500Y9525000D03*
D14*
X166687500Y9525000D03*
D13*
X171767500Y9525000D03*
X137795000Y47625000D03*
D14*
X142875000Y47625000D03*
D13*
X147955000Y47625000D03*
X33020000Y28575000D03*
D14*
X38100000Y28575000D03*
D13*
X43180000Y28575000D03*
D19*
X126206250Y44450000D03*
D13*
X102076250Y9525000D03*
D14*
X107156250Y9525000D03*
D13*
X112236250Y9525000D03*
X147320000Y28575000D03*
D14*
X152400000Y28575000D03*
D13*
X157480000Y28575000D03*
X99695000Y66675000D03*
D14*
X104775000Y66675000D03*
D13*
X109855000Y66675000D03*
X4445000Y47625000D03*
D14*
X9525000Y47625000D03*
D13*
X14605000Y47625000D03*
X104457500Y9525000D03*
D14*
X109537500Y9525000D03*
D13*
X114617500Y9525000D03*
X156845000Y9525000D03*
D14*
X161925000Y9525000D03*
D13*
X167005000Y9525000D03*
D19*
X128587500Y44450000D03*
D13*
X9207500Y28575000D03*
D14*
X14287500Y28575000D03*
D13*
X19367500Y28575000D03*
X42545000Y66675000D03*
D14*
X47625000Y66675000D03*
D13*
X52705000Y66675000D03*
X75882500Y9525000D03*
D14*
X80962500Y9525000D03*
D13*
X86042500Y9525000D03*
X99695000Y47625000D03*
D14*
X104775000Y47625000D03*
D13*
X109855000Y47625000D03*
X233045000Y66675000D03*
D14*
X238125000Y66675000D03*
D13*
X243205000Y66675000D03*
X80645000Y66675000D03*
D14*
X85725000Y66675000D03*
D13*
X90805000Y66675000D03*
X233045000Y47625000D03*
D14*
X238125000Y47625000D03*
D13*
X243205000Y47625000D03*
X228282500Y28575000D03*
D14*
X233362500Y28575000D03*
D13*
X238442500Y28575000D03*
X166370000Y28575000D03*
D14*
X171450000Y28575000D03*
D13*
X176530000Y28575000D03*
X225901250Y28575000D03*
D14*
X230981250Y28575000D03*
D13*
X236061250Y28575000D03*
X135413750Y9525000D03*
D14*
X140493750Y9525000D03*
D13*
X145573750Y9525000D03*
X206851250Y9525000D03*
D14*
X211931250Y9525000D03*
D13*
X217011250Y9525000D03*
X80645000Y47625000D03*
D14*
X85725000Y47625000D03*
D13*
X90805000Y47625000D03*
X133032500Y9525000D03*
D14*
X138112500Y9525000D03*
D13*
X143192500Y9525000D03*
X163988750Y9525000D03*
D14*
X169068750Y9525000D03*
D13*
X174148750Y9525000D03*
X137795000Y66675000D03*
D14*
X142875000Y66675000D03*
D13*
X147955000Y66675000D03*
X13970000Y28575000D03*
D14*
X19050000Y28575000D03*
D13*
X24130000Y28575000D03*
X109220000Y28575000D03*
D14*
X114300000Y28575000D03*
D13*
X119380000Y28575000D03*
X183038750Y9525000D03*
D14*
X188118750Y9525000D03*
D13*
X193198750Y9525000D03*
X52070000Y28575000D03*
D14*
X57150000Y28575000D03*
D13*
X62230000Y28575000D03*
X175895000Y47625000D03*
D14*
X180975000Y47625000D03*
D13*
X186055000Y47625000D03*
X23495000Y66675000D03*
D14*
X28575000Y66675000D03*
D13*
X33655000Y66675000D03*
X61595000Y66675000D03*
D14*
X66675000Y66675000D03*
D13*
X71755000Y66675000D03*
D20*
X35210032Y72153812D03*
X40990032Y72153812D03*
D21*
X33780032Y75803812D03*
D22*
X33780032Y71623812D03*
D21*
X42420032Y75803812D03*
D22*
X42420032Y71623812D03*
D23*
X114617500Y68897500D03*
D24*
X117157500Y68897500D03*
X114617500Y71437500D03*
X117157500Y71437500D03*
X114617500Y73977500D03*
X117157500Y73977500D03*
%LPD*%
M02*
