M48
; DRILL file {KiCad 7.0.6} date Fri Aug 25 16:14:00 2023
; FORMAT={-:-/ absolute / metric / decimal}
; #@! TF.CreationDate,2023-08-25T16:14:00-04:00
; #@! TF.GenerationSoftware,Kicad,Pcbnew,7.0.6
; #@! TF.FileFunction,NonPlated,1,2,NPTH
FMAT,2
METRIC
; #@! TA.AperFunction,NonPlated,NPTH,ComponentDrill
T1C0.650
; #@! TA.AperFunction,NonPlated,NPTH,ComponentDrill
T2C1.500
; #@! TA.AperFunction,NonPlated,NPTH,ComponentDrill
T3C1.750
; #@! TA.AperFunction,NonPlated,NPTH,ComponentDrill
T4C3.988
%
G90
G05
T1
X35.21Y72.154
X40.99Y72.154
T3
X4.445Y66.675
X4.445Y47.625
X9.207Y28.575
X11.589Y28.575
X13.97Y28.575
X14.605Y66.675
X14.605Y47.625
X19.367Y28.575
X21.749Y28.575
X23.495Y66.675
X23.495Y47.625
X24.13Y28.575
X30.639Y9.525
X33.02Y28.575
X33.655Y66.675
X33.655Y47.625
X35.401Y9.525
X40.799Y9.525
X42.545Y66.675
X42.545Y47.625
X43.18Y28.575
X45.561Y9.525
X52.07Y28.575
X52.07Y9.525
X52.705Y66.675
X52.705Y47.625
X54.451Y9.525
X61.595Y66.675
X61.595Y47.625
X61.595Y9.525
X62.23Y28.575
X62.23Y9.525
X64.611Y9.525
X71.12Y28.575
X71.755Y66.675
X71.755Y47.625
X71.755Y9.525
X73.501Y9.525
X75.882Y9.525
X80.645Y66.675
X80.645Y47.625
X80.645Y9.525
X81.28Y28.575
X83.661Y9.525
X86.042Y9.525
X90.17Y28.575
X90.805Y66.675
X90.805Y47.625
X90.805Y9.525
X99.695Y66.675
X99.695Y47.625
X100.33Y28.575
X102.076Y9.525
X104.457Y9.525
X109.22Y28.575
X109.855Y66.675
X109.855Y47.625
X112.236Y9.525
X114.617Y9.525
X119.38Y28.575
X128.27Y28.575
X133.032Y9.525
X135.414Y9.525
X137.795Y66.675
X137.795Y47.625
X138.43Y28.575
X143.192Y9.525
X145.574Y9.525
X147.32Y28.575
X147.955Y66.675
X147.955Y47.625
X156.845Y66.675
X156.845Y47.625
X156.845Y9.525
X157.48Y28.575
X161.607Y9.525
X163.989Y9.525
X166.37Y28.575
X167.005Y66.675
X167.005Y47.625
X167.005Y9.525
X171.767Y9.525
X174.149Y9.525
X175.895Y66.675
X175.895Y47.625
X175.895Y9.525
X176.53Y28.575
X183.039Y9.525
X185.42Y28.575
X185.42Y9.525
X186.055Y66.675
X186.055Y47.625
X186.055Y9.525
X193.199Y9.525
X194.945Y66.675
X194.945Y47.625
X195.58Y28.575
X195.58Y9.525
X202.089Y9.525
X204.47Y28.575
X205.105Y66.675
X205.105Y47.625
X206.851Y9.525
X212.249Y9.525
X213.995Y66.675
X213.995Y47.625
X214.63Y28.575
X217.011Y9.525
X223.52Y28.575
X224.155Y66.675
X224.155Y47.625
X225.901Y28.575
X228.282Y28.575
X233.045Y66.675
X233.045Y47.625
X233.68Y28.575
X236.061Y28.575
X238.442Y28.575
X243.205Y66.675
X243.205Y47.625
T4
X9.525Y66.675
X9.525Y47.625
X14.287Y28.575
X16.669Y28.575
X19.05Y28.575
X28.575Y66.675
X28.575Y47.625
X35.719Y9.525
X38.1Y28.575
X40.481Y9.525
X47.625Y66.675
X47.625Y47.625
X57.15Y28.575
X57.15Y9.525
X59.531Y9.525
X66.675Y66.675
X66.675Y47.625
X66.675Y9.525
X76.2Y28.575
X78.581Y9.525
X80.962Y9.525
X85.725Y66.675
X85.725Y47.625
X85.725Y9.525
X95.25Y28.575
X104.775Y66.675
X104.775Y47.625
X107.156Y9.525
X109.537Y9.525
X114.3Y28.575
X133.35Y28.575
X138.112Y9.525
X140.494Y9.525
X142.875Y66.675
X142.875Y47.625
X152.4Y28.575
X161.925Y66.675
X161.925Y47.625
X161.925Y9.525
X166.688Y9.525
X169.069Y9.525
X171.45Y28.575
X180.975Y66.675
X180.975Y47.625
X180.975Y9.525
X188.119Y9.525
X190.5Y28.575
X190.5Y9.525
X200.025Y66.675
X200.025Y47.625
X207.169Y9.525
X209.55Y28.575
X211.931Y9.525
X219.075Y66.675
X219.075Y47.625
X228.6Y28.575
X230.981Y28.575
X233.362Y28.575
X238.125Y66.675
X238.125Y47.625
T2
G00X127.75Y27.986
M15
G01X127.75Y29.286
M16
G05
G00X138.95Y27.948
M15
G01X138.95Y29.248
M16
G05
T0
M30
