M48
; DRILL file {KiCad 7.0.6} date Sat Sep  2 22:40:46 2023
; FORMAT={-:-/ absolute / metric / decimal}
; #@! TF.CreationDate,2023-09-02T22:40:46-04:00
; #@! TF.GenerationSoftware,Kicad,Pcbnew,7.0.6
; #@! TF.FileFunction,Plated,1,2,PTH
FMAT,2
METRIC
; #@! TA.AperFunction,Plated,PTH,ComponentDrill
T1C0.200
; #@! TA.AperFunction,Plated,PTH,ViaDrill
T2C0.300
; #@! TA.AperFunction,Plated,PTH,ViaDrill
T3C0.400
; #@! TA.AperFunction,Plated,PTH,ComponentDrill
T4C0.500
; #@! TA.AperFunction,Plated,PTH,ComponentDrill
T5C0.600
; #@! TA.AperFunction,Plated,PTH,ComponentDrill
T6C0.813
; #@! TA.AperFunction,Plated,PTH,ComponentDrill
T7C1.000
; #@! TA.AperFunction,Plated,PTH,ComponentDrill
T8C1.470
%
G90
G05
T1
X121.475Y60.135
X121.475Y58.96
X121.475Y57.785
X121.475Y56.61
X121.475Y55.435
X122.65Y60.135
X122.65Y58.96
X122.65Y57.785
X122.65Y56.61
X122.65Y55.435
X123.825Y60.135
X123.825Y58.96
X123.825Y57.785
X123.825Y56.61
X123.825Y55.435
X125.0Y60.135
X125.0Y58.96
X125.0Y57.785
X125.0Y56.61
X125.0Y55.435
X126.175Y60.135
X126.175Y58.96
X126.175Y57.785
X126.175Y56.61
X126.175Y55.435
T2
X112.514Y59.531
X116.086Y61.317
X116.681Y66.675
X117.908Y46.547
X118.164Y64.678
X119.062Y55.562
X120.364Y51.556
X121.424Y50.951
X127.794Y51.593
X130.705Y59.864
X131.021Y62.505
T3
X30.063Y75.009
X33.338Y64.231
X39.291Y67.448
X42.863Y64.231
X52.983Y59.531
X59.0Y66.798
X61.119Y59.531
X109.144Y64.229
X109.201Y45.195
X113.506Y66.675
X114.935Y45.879
X115.887Y67.865
X125.905Y46.458
X125.959Y62.91
X127.336Y62.127
X129.748Y46.458
X130.191Y69.085
X130.816Y69.722
X133.35Y65.881
X134.335Y45.922
X145.49Y26.79
X150.019Y7.081
T4
X119.062Y44.45
X121.444Y44.45
X123.825Y44.45
X126.206Y44.45
X128.588Y44.45
T6
X120.015Y74.88
X122.555Y74.88
X125.095Y74.88
X127.635Y74.88
T7
X114.617Y73.977
X114.617Y71.437
X114.617Y68.897
X117.157Y73.977
X117.157Y71.437
X117.157Y68.897
X125.85Y31.075
X125.85Y28.575
X125.85Y26.075
X140.35Y31.075
X140.35Y26.075
T8
X5.715Y69.215
X5.715Y50.165
X10.477Y31.115
X12.065Y71.755
X12.065Y52.705
X16.827Y33.655
X24.765Y69.215
X24.765Y50.165
X29.527Y12.065
X31.115Y71.755
X31.115Y52.705
X34.29Y31.115
X35.877Y14.605
X40.64Y33.655
X43.815Y69.215
X43.815Y50.165
X50.165Y71.755
X50.165Y52.705
X50.959Y12.065
X53.34Y31.115
X57.309Y14.605
X59.69Y33.655
X62.865Y69.215
X62.865Y50.165
X69.215Y71.755
X69.215Y52.705
X72.39Y31.115
X72.39Y12.065
X74.771Y12.065
X78.74Y33.655
X78.74Y14.605
X81.121Y14.605
X81.915Y69.215
X81.915Y50.165
X88.265Y71.755
X88.265Y52.705
X91.44Y31.115
X91.44Y12.065
X97.79Y33.655
X97.79Y14.605
X100.965Y69.215
X100.965Y50.165
X100.965Y12.065
X103.346Y12.065
X107.315Y71.755
X107.315Y52.705
X107.315Y14.605
X109.696Y14.605
X110.49Y31.115
X116.84Y33.655
X120.015Y12.065
X126.365Y14.605
X129.54Y31.115
X135.89Y33.655
X136.684Y12.065
X139.065Y69.215
X139.065Y50.165
X139.065Y12.065
X143.034Y14.605
X145.415Y71.755
X145.415Y52.705
X145.415Y14.605
X148.59Y31.115
X148.59Y12.065
X154.94Y33.655
X154.94Y14.605
X158.115Y69.215
X158.115Y50.165
X164.465Y71.755
X164.465Y52.705
X165.259Y12.065
X167.64Y31.115
X167.64Y12.065
X171.609Y14.605
X173.99Y33.655
X173.99Y14.605
X177.165Y69.215
X177.165Y50.165
X183.515Y71.755
X183.515Y52.705
X186.69Y31.115
X189.071Y12.065
X193.04Y33.655
X195.421Y14.605
X196.215Y69.215
X196.215Y50.165
X202.565Y71.755
X202.565Y52.705
X205.74Y31.115
X210.503Y12.065
X212.09Y33.655
X215.265Y69.215
X215.265Y50.165
X216.853Y14.605
X221.615Y71.755
X221.615Y52.705
X229.552Y31.115
X234.315Y69.215
X234.315Y50.165
X235.903Y33.655
X240.665Y71.755
X240.665Y52.705
T4
G00X33.78Y75.736
M15
G01X33.78Y75.036
M16
G05
G00X42.42Y75.736
M15
G01X42.42Y75.036
M16
G05
T5
G00X33.78Y71.756
M15
G01X33.78Y70.656
M16
G05
G00X42.42Y71.756
M15
G01X42.42Y70.656
M16
G05
T0
M30
