%TF.GenerationSoftware,KiCad,Pcbnew,7.0.6*%
%TF.CreationDate,2023-09-02T22:40:38-04:00*%
%TF.ProjectId,Vault45_alpha,5661756c-7434-4355-9f61-6c7068612e6b,rev?*%
%TF.SameCoordinates,PX18faf56PY663131a*%
%TF.FileFunction,Other,User*%
%FSLAX46Y46*%
G04 Gerber Fmt 4.6, Leading zero omitted, Abs format (unit mm)*
G04 Created by KiCad (PCBNEW 7.0.6) date 2023-09-02 22:40:38*
%MOMM*%
%LPD*%
G01*
G04 APERTURE LIST*
%ADD10C,0.050000*%
G04 APERTURE END LIST*
D10*
X141850000Y21474730D02*
X141850000Y35674730D01*
X141850000Y21474730D02*
X124350000Y21474730D01*
X124350000Y35674730D02*
X141850000Y35674730D01*
X124350000Y35674730D02*
X124350000Y21474730D01*
X54300048Y59448221D02*
X60000048Y59448221D01*
X60000048Y59448221D02*
X60000048Y67948221D01*
X54300048Y67948221D02*
X54300048Y59448221D01*
X60000048Y67948221D02*
X54300048Y67948221D01*
X124825000Y43449730D02*
X124825000Y45449730D01*
X124825000Y43449730D02*
X122825000Y43449730D01*
X122825000Y45449730D02*
X124825000Y45449730D01*
X122825000Y45449730D02*
X122825000Y43449730D01*
X122443750Y43449730D02*
X122443750Y45449730D01*
X122443750Y43449730D02*
X120443750Y43449730D01*
X120443750Y45449730D02*
X122443750Y45449730D01*
X120443750Y45449730D02*
X120443750Y43449730D01*
X120062500Y43449730D02*
X120062500Y45449730D01*
X120062500Y43449730D02*
X118062500Y43449730D01*
X118062500Y45449730D02*
X120062500Y45449730D01*
X118062500Y45449730D02*
X118062500Y43449730D01*
X127206250Y43449730D02*
X127206250Y45449730D01*
X127206250Y43449730D02*
X125206250Y43449730D01*
X125206250Y45449730D02*
X127206250Y45449730D01*
X125206250Y45449730D02*
X125206250Y43449730D01*
X129587500Y43449730D02*
X129587500Y45449730D01*
X129587500Y43449730D02*
X127587500Y43449730D01*
X127587500Y45449730D02*
X129587500Y45449730D01*
X127587500Y45449730D02*
X127587500Y43449730D01*
M02*
