%TF.GenerationSoftware,KiCad,Pcbnew,7.0.6*%
%TF.CreationDate,2023-08-25T16:13:21-04:00*%
%TF.ProjectId,Vault45_alpha,5661756c-7434-4355-9f61-6c7068612e6b,rev?*%
%TF.SameCoordinates,PX198c50aPY6631428*%
%TF.FileFunction,Paste,Bot*%
%TF.FilePolarity,Positive*%
%FSLAX46Y46*%
G04 Gerber Fmt 4.6, Leading zero omitted, Abs format (unit mm)*
G04 Created by KiCad (PCBNEW 7.0.6) date 2023-08-25 16:13:21*
%MOMM*%
%LPD*%
G01*
G04 APERTURE LIST*
G04 Aperture macros list*
%AMRoundRect*
0 Rectangle with rounded corners*
0 $1 Rounding radius*
0 $2 $3 $4 $5 $6 $7 $8 $9 X,Y pos of 4 corners*
0 Add a 4 corners polygon primitive as box body*
4,1,4,$2,$3,$4,$5,$6,$7,$8,$9,$2,$3,0*
0 Add four circle primitives for the rounded corners*
1,1,$1+$1,$2,$3*
1,1,$1+$1,$4,$5*
1,1,$1+$1,$6,$7*
1,1,$1+$1,$8,$9*
0 Add four rect primitives between the rounded corners*
20,1,$1+$1,$2,$3,$4,$5,0*
20,1,$1+$1,$4,$5,$6,$7,0*
20,1,$1+$1,$6,$7,$8,$9,0*
20,1,$1+$1,$8,$9,$2,$3,0*%
%AMRotRect*
0 Rectangle, with rotation*
0 The origin of the aperture is its center*
0 $1 length*
0 $2 width*
0 $3 Rotation angle, in degrees counterclockwise*
0 Add horizontal line*
21,1,$1,$2,0,0,$3*%
G04 Aperture macros list end*
%ADD10R,1.200000X0.900000*%
%ADD11RoundRect,0.250000X-0.350000X-0.450000X0.350000X-0.450000X0.350000X0.450000X-0.350000X0.450000X0*%
%ADD12RotRect,2.100000X1.800000X225.000000*%
%ADD13RoundRect,0.250000X0.475000X-0.337500X0.475000X0.337500X-0.475000X0.337500X-0.475000X-0.337500X0*%
%ADD14RoundRect,0.250000X-0.337500X-0.475000X0.337500X-0.475000X0.337500X0.475000X-0.337500X0.475000X0*%
%ADD15RoundRect,0.250000X0.350000X0.450000X-0.350000X0.450000X-0.350000X-0.450000X0.350000X-0.450000X0*%
%ADD16RoundRect,0.250000X-0.253488X-0.253488X0.253488X-0.253488X0.253488X0.253488X-0.253488X0.253488X0*%
%ADD17RoundRect,0.062500X-0.475000X-0.062500X0.475000X-0.062500X0.475000X0.062500X-0.475000X0.062500X0*%
%ADD18RoundRect,0.062500X-0.062500X-0.475000X0.062500X-0.475000X0.062500X0.475000X-0.062500X0.475000X0*%
%ADD19R,1.100000X1.800000*%
%ADD20RoundRect,0.250000X0.097227X-0.574524X0.574524X-0.097227X-0.097227X0.574524X-0.574524X0.097227X0*%
%ADD21RoundRect,0.250000X0.337500X0.475000X-0.337500X0.475000X-0.337500X-0.475000X0.337500X-0.475000X0*%
%ADD22RoundRect,0.250000X-0.450000X0.350000X-0.450000X-0.350000X0.450000X-0.350000X0.450000X0.350000X0*%
%ADD23RoundRect,0.250000X-0.475000X0.337500X-0.475000X-0.337500X0.475000X-0.337500X0.475000X0.337500X0*%
%ADD24R,0.600000X2.450000*%
%ADD25R,0.300000X2.450000*%
%ADD26R,1.560000X0.650000*%
%ADD27RoundRect,0.250000X0.574524X0.097227X0.097227X0.574524X-0.574524X-0.097227X-0.097227X-0.574524X0*%
%ADD28RoundRect,0.210527X-0.389473X-0.664473X0.389473X-0.664473X0.389473X0.664473X-0.389473X0.664473X0*%
%ADD29RoundRect,0.250000X0.450000X-0.350000X0.450000X0.350000X-0.450000X0.350000X-0.450000X-0.350000X0*%
G04 APERTURE END LIST*
D10*
X60250630Y26131250D03*
X60250630Y29431250D03*
D11*
X114193259Y57503747D03*
X116193259Y57503747D03*
D12*
X125663478Y66887132D03*
X123612868Y64836522D03*
X121986522Y66462868D03*
X124037132Y68513478D03*
D13*
X45243910Y72292971D03*
X45243910Y74367971D03*
D10*
X79301418Y26131250D03*
X79301418Y29431250D03*
X147637500Y7081250D03*
X147637500Y10381250D03*
X241226512Y45181250D03*
X241226512Y48481250D03*
X165026512Y45181250D03*
X165026512Y48481250D03*
X50718439Y45181250D03*
X50718439Y48481250D03*
X241226512Y64231250D03*
X241226512Y67531250D03*
X116681250Y7081250D03*
X116681250Y10381250D03*
X154781250Y7081250D03*
X154781250Y10381250D03*
D14*
X119368750Y52387500D03*
X121443750Y52387500D03*
D15*
X130923791Y54557665D03*
X128923791Y54557665D03*
D10*
X222176512Y45181250D03*
X222176512Y48481250D03*
D16*
X122062500Y59547678D03*
X122062500Y58372678D03*
X122062500Y57197678D03*
X122062500Y56022678D03*
X123237500Y59547678D03*
X123237500Y58372678D03*
X123237500Y57197678D03*
X123237500Y56022678D03*
X124412500Y59547678D03*
X124412500Y58372678D03*
X124412500Y57197678D03*
X124412500Y56022678D03*
X125587500Y59547678D03*
X125587500Y58372678D03*
X125587500Y57197678D03*
X125587500Y56022678D03*
D17*
X120487500Y55285178D03*
X120487500Y55785178D03*
X120487500Y56285178D03*
X120487500Y56785178D03*
X120487500Y57285178D03*
X120487500Y57785178D03*
X120487500Y58285178D03*
X120487500Y58785178D03*
X120487500Y59285178D03*
X120487500Y59785178D03*
X120487500Y60285178D03*
D18*
X121325000Y61122678D03*
X121825000Y61122678D03*
X122325000Y61122678D03*
X122825000Y61122678D03*
X123325000Y61122678D03*
X123825000Y61122678D03*
X124325000Y61122678D03*
X124825000Y61122678D03*
X125325000Y61122678D03*
X125825000Y61122678D03*
X126325000Y61122678D03*
D17*
X127162500Y60285178D03*
X127162500Y59785178D03*
X127162500Y59285178D03*
X127162500Y58785178D03*
X127162500Y58285178D03*
X127162500Y57785178D03*
X127162500Y57285178D03*
X127162500Y56785178D03*
X127162500Y56285178D03*
X127162500Y55785178D03*
X127162500Y55285178D03*
D18*
X126325000Y54447678D03*
X125825000Y54447678D03*
X125325000Y54447678D03*
X124825000Y54447678D03*
X124325000Y54447678D03*
X123825000Y54447678D03*
X123325000Y54447678D03*
X122825000Y54447678D03*
X122325000Y54447678D03*
X121825000Y54447678D03*
X121325000Y54447678D03*
D10*
X41199842Y26131250D03*
X41199842Y29431250D03*
X240506250Y26131250D03*
X240506250Y29431250D03*
D19*
X55300000Y66798491D03*
X55300000Y60598491D03*
X59000000Y66798491D03*
X59000000Y60598491D03*
D20*
X122177373Y69789873D03*
X120710127Y68322627D03*
D10*
X31669135Y64231250D03*
X31669135Y67531250D03*
D21*
X116230759Y59531250D03*
X114155759Y59531250D03*
D10*
X12619831Y45181250D03*
X12619831Y48481250D03*
D22*
X47625160Y74330471D03*
X47625160Y72330471D03*
D10*
X197643750Y7081250D03*
X197643750Y10381250D03*
X203126512Y64231250D03*
X203126512Y67531250D03*
D13*
X129365549Y60416196D03*
X129365549Y62491196D03*
D10*
X69767743Y64231250D03*
X69767743Y67531250D03*
X145976512Y64231250D03*
X145976512Y67531250D03*
D23*
X52982857Y62950052D03*
X52982857Y60875052D03*
D10*
X107866352Y45181250D03*
X107866352Y48481250D03*
X88823659Y7081250D03*
X88823659Y10381250D03*
D15*
X28575112Y72925785D03*
X26575112Y72925785D03*
D10*
X222176512Y64231250D03*
X222176512Y67531250D03*
X184076512Y45181250D03*
X184076512Y48481250D03*
D13*
X122605590Y40237500D03*
X122605590Y42312500D03*
D22*
X124986840Y42275000D03*
X124986840Y40275000D03*
D10*
X136453782Y26131250D03*
X136453782Y29431250D03*
X174555358Y26131250D03*
X174555358Y29431250D03*
D15*
X28575112Y75009384D03*
X26575112Y75009384D03*
D24*
X34875032Y70208812D03*
X35650032Y70208812D03*
D25*
X36350032Y70208812D03*
X36850032Y70208812D03*
X37350032Y70208812D03*
X37850032Y70208812D03*
X38350032Y70208812D03*
X38850032Y70208812D03*
X39350032Y70208812D03*
X39850032Y70208812D03*
D24*
X40550032Y70208812D03*
X41325032Y70208812D03*
D10*
X117402994Y26131250D03*
X117402994Y29431250D03*
X50718439Y64231250D03*
X50718439Y67531250D03*
X203126512Y45181250D03*
X203126512Y48481250D03*
X98352206Y26131250D03*
X98352206Y29431250D03*
X193606146Y26131250D03*
X193606146Y29431250D03*
D26*
X36727132Y62000052D03*
X36727132Y62950052D03*
X36727132Y63900052D03*
X39427132Y63900052D03*
X39427132Y62950052D03*
X39427132Y62000052D03*
D22*
X127793750Y42275000D03*
X127793750Y40275000D03*
D27*
X127535505Y68620458D03*
X126068259Y70087704D03*
D10*
X212656940Y26131250D03*
X212656940Y29431250D03*
X184076512Y64231250D03*
X184076512Y67531250D03*
X107866352Y64231250D03*
X107866352Y67531250D03*
D28*
X45415666Y62950052D03*
X48815666Y62950052D03*
D10*
X88817047Y64231250D03*
X88817047Y67531250D03*
X26193750Y26131250D03*
X26193750Y29431250D03*
X69785728Y7081250D03*
X69785728Y10381250D03*
X155504570Y26131250D03*
X155504570Y29431250D03*
X145976512Y45181250D03*
X145976512Y48481250D03*
X88817047Y45181250D03*
X88817047Y48481250D03*
X165026512Y64231250D03*
X165026512Y67531250D03*
D11*
X114193259Y55471747D03*
X116193259Y55471747D03*
D29*
X61118750Y60950052D03*
X61118750Y62950052D03*
D10*
X69767743Y45181250D03*
X69767743Y48481250D03*
X31669135Y45181250D03*
X31669135Y48481250D03*
D29*
X120062500Y40275000D03*
X120062500Y42275000D03*
D10*
X12619831Y64231250D03*
X12619831Y67531250D03*
D27*
X119312507Y64366283D03*
X117845261Y65833529D03*
D21*
X128831250Y52387500D03*
X126756250Y52387500D03*
D10*
X43573547Y7081250D03*
X43573547Y10381250D03*
X215012720Y7081250D03*
X215012720Y10381250D03*
M02*
