%TF.GenerationSoftware,KiCad,Pcbnew,7.0.6*%
%TF.CreationDate,2023-08-26T01:37:11-04:00*%
%TF.ProjectId,Vault45_alpha,5661756c-7434-4355-9f61-6c7068612e6b,rev?*%
%TF.SameCoordinates,PX18faf56PY663131a*%
%TF.FileFunction,Paste,Bot*%
%TF.FilePolarity,Positive*%
%FSLAX46Y46*%
G04 Gerber Fmt 4.6, Leading zero omitted, Abs format (unit mm)*
G04 Created by KiCad (PCBNEW 7.0.6) date 2023-08-26 01:37:11*
%MOMM*%
%LPD*%
G01*
G04 APERTURE LIST*
G04 Aperture macros list*
%AMRoundRect*
0 Rectangle with rounded corners*
0 $1 Rounding radius*
0 $2 $3 $4 $5 $6 $7 $8 $9 X,Y pos of 4 corners*
0 Add a 4 corners polygon primitive as box body*
4,1,4,$2,$3,$4,$5,$6,$7,$8,$9,$2,$3,0*
0 Add four circle primitives for the rounded corners*
1,1,$1+$1,$2,$3*
1,1,$1+$1,$4,$5*
1,1,$1+$1,$6,$7*
1,1,$1+$1,$8,$9*
0 Add four rect primitives between the rounded corners*
20,1,$1+$1,$2,$3,$4,$5,0*
20,1,$1+$1,$4,$5,$6,$7,0*
20,1,$1+$1,$6,$7,$8,$9,0*
20,1,$1+$1,$8,$9,$2,$3,0*%
%AMRotRect*
0 Rectangle, with rotation*
0 The origin of the aperture is its center*
0 $1 length*
0 $2 width*
0 $3 Rotation angle, in degrees counterclockwise*
0 Add horizontal line*
21,1,$1,$2,0,0,$3*%
G04 Aperture macros list end*
%ADD10R,1.200000X0.900000*%
%ADD11RoundRect,0.250000X-0.350000X-0.450000X0.350000X-0.450000X0.350000X0.450000X-0.350000X0.450000X0*%
%ADD12RotRect,2.100000X1.800000X225.000000*%
%ADD13RoundRect,0.250000X0.475000X-0.337500X0.475000X0.337500X-0.475000X0.337500X-0.475000X-0.337500X0*%
%ADD14RoundRect,0.250000X-0.337500X-0.475000X0.337500X-0.475000X0.337500X0.475000X-0.337500X0.475000X0*%
%ADD15RoundRect,0.250000X0.350000X0.450000X-0.350000X0.450000X-0.350000X-0.450000X0.350000X-0.450000X0*%
%ADD16RoundRect,0.250000X-0.253488X-0.253488X0.253488X-0.253488X0.253488X0.253488X-0.253488X0.253488X0*%
%ADD17RoundRect,0.062500X-0.475000X-0.062500X0.475000X-0.062500X0.475000X0.062500X-0.475000X0.062500X0*%
%ADD18RoundRect,0.062500X-0.062500X-0.475000X0.062500X-0.475000X0.062500X0.475000X-0.062500X0.475000X0*%
%ADD19R,1.100000X1.800000*%
%ADD20RoundRect,0.250000X0.097227X-0.574524X0.574524X-0.097227X-0.097227X0.574524X-0.574524X0.097227X0*%
%ADD21RoundRect,0.250000X0.337500X0.475000X-0.337500X0.475000X-0.337500X-0.475000X0.337500X-0.475000X0*%
%ADD22RoundRect,0.250000X-0.450000X0.350000X-0.450000X-0.350000X0.450000X-0.350000X0.450000X0.350000X0*%
%ADD23RoundRect,0.250000X-0.475000X0.337500X-0.475000X-0.337500X0.475000X-0.337500X0.475000X0.337500X0*%
%ADD24R,0.600000X2.450000*%
%ADD25R,0.300000X2.450000*%
%ADD26R,1.560000X0.650000*%
%ADD27RoundRect,0.250000X0.574524X0.097227X0.097227X0.574524X-0.574524X-0.097227X-0.097227X-0.574524X0*%
%ADD28RoundRect,0.210527X-0.389473X-0.664473X0.389473X-0.664473X0.389473X0.664473X-0.389473X0.664473X0*%
%ADD29RoundRect,0.250000X0.450000X-0.350000X0.450000X0.350000X-0.450000X0.350000X-0.450000X-0.350000X0*%
G04 APERTURE END LIST*
D10*
X60250630Y26130980D03*
X60250630Y29430980D03*
D11*
X114193259Y57503477D03*
X116193259Y57503477D03*
D12*
X125663478Y66886862D03*
X123612868Y64836252D03*
X121986522Y66462598D03*
X124037132Y68513208D03*
D13*
X45243910Y72292701D03*
X45243910Y74367701D03*
D10*
X79301418Y26130980D03*
X79301418Y29430980D03*
X158948593Y7080980D03*
X158948593Y10380980D03*
X241226512Y45180980D03*
X241226512Y48480980D03*
X165026512Y45180980D03*
X165026512Y48480980D03*
X50718439Y45180980D03*
X50718439Y48480980D03*
X241226512Y64230980D03*
X241226512Y67530980D03*
X120848561Y7080980D03*
X120848561Y10380980D03*
X179784548Y7080980D03*
X179784548Y10380980D03*
D14*
X119368750Y52387230D03*
X121443750Y52387230D03*
D15*
X130923791Y54557395D03*
X128923791Y54557395D03*
D10*
X222176512Y45180980D03*
X222176512Y48480980D03*
D16*
X122062500Y59547408D03*
X122062500Y58372408D03*
X122062500Y57197408D03*
X122062500Y56022408D03*
X123237500Y59547408D03*
X123237500Y58372408D03*
X123237500Y57197408D03*
X123237500Y56022408D03*
X124412500Y59547408D03*
X124412500Y58372408D03*
X124412500Y57197408D03*
X124412500Y56022408D03*
X125587500Y59547408D03*
X125587500Y58372408D03*
X125587500Y57197408D03*
X125587500Y56022408D03*
D17*
X120487500Y55284908D03*
X120487500Y55784908D03*
X120487500Y56284908D03*
X120487500Y56784908D03*
X120487500Y57284908D03*
X120487500Y57784908D03*
X120487500Y58284908D03*
X120487500Y58784908D03*
X120487500Y59284908D03*
X120487500Y59784908D03*
X120487500Y60284908D03*
D18*
X121325000Y61122408D03*
X121825000Y61122408D03*
X122325000Y61122408D03*
X122825000Y61122408D03*
X123325000Y61122408D03*
X123825000Y61122408D03*
X124325000Y61122408D03*
X124825000Y61122408D03*
X125325000Y61122408D03*
X125825000Y61122408D03*
X126325000Y61122408D03*
D17*
X127162500Y60284908D03*
X127162500Y59784908D03*
X127162500Y59284908D03*
X127162500Y58784908D03*
X127162500Y58284908D03*
X127162500Y57784908D03*
X127162500Y57284908D03*
X127162500Y56784908D03*
X127162500Y56284908D03*
X127162500Y55784908D03*
X127162500Y55284908D03*
D18*
X126325000Y54447408D03*
X125825000Y54447408D03*
X125325000Y54447408D03*
X124825000Y54447408D03*
X124325000Y54447408D03*
X123825000Y54447408D03*
X123325000Y54447408D03*
X122825000Y54447408D03*
X122325000Y54447408D03*
X121825000Y54447408D03*
X121325000Y54447408D03*
D10*
X41199842Y26130980D03*
X41199842Y29430980D03*
X236339216Y26130980D03*
X236339216Y29430980D03*
D19*
X55300000Y66798221D03*
X55300000Y60598221D03*
X59000000Y66798221D03*
X59000000Y60598221D03*
D20*
X120710127Y68322357D03*
X122177373Y69789603D03*
D10*
X31669135Y64230980D03*
X31669135Y67530980D03*
D21*
X116230759Y59530980D03*
X114155759Y59530980D03*
D10*
X12619831Y45180980D03*
X12619831Y48480980D03*
D22*
X47625160Y74330201D03*
X47625160Y72330201D03*
D10*
X195857999Y7080980D03*
X195857999Y10380980D03*
X203126512Y64230980D03*
X203126512Y67530980D03*
D13*
X129365549Y60415926D03*
X129365549Y62490926D03*
D10*
X69767743Y64230980D03*
X69767743Y67530980D03*
X145976512Y64230980D03*
X145976512Y67530980D03*
D23*
X52982857Y62949782D03*
X52982857Y60874782D03*
D10*
X107866352Y45180980D03*
X107866352Y48480980D03*
X86915720Y7080980D03*
X86915720Y10380980D03*
D15*
X28575112Y72925515D03*
X26575112Y72925515D03*
D10*
X222176512Y64230980D03*
X222176512Y67530980D03*
X184076512Y45180980D03*
X184076512Y48480980D03*
D13*
X122605590Y40237230D03*
X122605590Y42312230D03*
D22*
X124986840Y42274730D03*
X124986840Y40274730D03*
D10*
X136453782Y26130980D03*
X136453782Y29430980D03*
X174555358Y26130980D03*
X174555358Y29430980D03*
D15*
X28575112Y75009114D03*
X26575112Y75009114D03*
D24*
X34875032Y69790913D03*
X35650032Y69790913D03*
D25*
X36350032Y69790913D03*
X36850032Y69790913D03*
X37350032Y69790913D03*
X37850032Y69790913D03*
X38350032Y69790913D03*
X38850032Y69790913D03*
X39350032Y69790913D03*
X39850032Y69790913D03*
D24*
X40550032Y69790913D03*
X41325032Y69790913D03*
D10*
X117402994Y26130980D03*
X117402994Y29430980D03*
X50718439Y64230980D03*
X50718439Y67530980D03*
X203126512Y45180980D03*
X203126512Y48480980D03*
X98352206Y26130980D03*
X98352206Y29430980D03*
X193606146Y26130980D03*
X193606146Y29430980D03*
D26*
X36727132Y61999782D03*
X36727132Y62949782D03*
X36727132Y63899782D03*
X39427132Y63899782D03*
X39427132Y62949782D03*
X39427132Y61999782D03*
D22*
X127793750Y42274730D03*
X127793750Y40274730D03*
D27*
X127535505Y68620188D03*
X126068259Y70087434D03*
D10*
X212656940Y26130980D03*
X212656940Y29430980D03*
X184076512Y64230980D03*
X184076512Y67530980D03*
X107866352Y64230980D03*
X107866352Y67530980D03*
D28*
X45415666Y62949782D03*
X48815666Y62949782D03*
D10*
X88817047Y64230980D03*
X88817047Y67530980D03*
X17264032Y26130980D03*
X17264032Y29430980D03*
X57745383Y7080980D03*
X57745383Y10380980D03*
X155504570Y26130980D03*
X155504570Y29430980D03*
X145976512Y45180980D03*
X145976512Y48480980D03*
X88817047Y45180980D03*
X88817047Y48480980D03*
X165026512Y64230980D03*
X165026512Y67530980D03*
D11*
X114193259Y55471477D03*
X116193259Y55471477D03*
D29*
X61118750Y60949782D03*
X61118750Y62949782D03*
D10*
X69767743Y45180980D03*
X69767743Y48480980D03*
X31669135Y45180980D03*
X31669135Y48480980D03*
D29*
X120062500Y40274730D03*
X120062500Y42274730D03*
D10*
X12619831Y64230980D03*
X12619831Y67530980D03*
D27*
X119312507Y64366013D03*
X117845261Y65833259D03*
D21*
X128831250Y52387230D03*
X126756250Y52387230D03*
D10*
X36314115Y7080980D03*
X36314115Y10380980D03*
X217289267Y7080980D03*
X217289267Y10380980D03*
M02*
