%TF.GenerationSoftware,KiCad,Pcbnew,7.0.6*%
%TF.CreationDate,2023-08-25T16:14:01-04:00*%
%TF.ProjectId,Vault45_alpha,5661756c-7434-4355-9f61-6c7068612e6b,rev?*%
%TF.SameCoordinates,PX198c50aPY6631428*%
%TF.FileFunction,Drillmap*%
%TF.FilePolarity,Positive*%
%FSLAX45Y45*%
G04 Gerber Fmt 4.5, Leading zero omitted, Abs format (unit mm)*
G04 Created by KiCad (PCBNEW 7.0.6) date 2023-08-25 16:14:01*
%MOMM*%
%LPD*%
G01*
G04 APERTURE LIST*
%ADD10C,0.100000*%
%ADD11C,0.200000*%
%ADD12C,0.020000*%
%ADD13C,0.030000*%
%ADD14C,0.040000*%
%ADD15C,0.050000*%
%ADD16C,0.060000*%
%ADD17C,0.081280*%
%ADD18C,0.147000*%
G04 APERTURE END LIST*
D10*
X1369222Y7620019D02*
X327423Y7620019D01*
X3274227Y7620019D02*
X2440787Y7620019D01*
X22324275Y7620019D02*
X4345792Y7620019D01*
X23395840Y7620019D02*
X24437640Y7620019D01*
X23395840Y7620019D02*
G75*
G03*
X23127949Y7352128I0J-267891D01*
G01*
X22592166Y7352128D02*
G75*
G03*
X22324275Y7620019I-267891J0D01*
G01*
X22592166Y7352128D02*
G75*
G03*
X22860058Y7084237I267891J0D01*
G01*
X22860058Y7084237D02*
G75*
G03*
X23127949Y7352128I0J267891D01*
G01*
X1637113Y7352128D02*
G75*
G03*
X1369222Y7620019I-267891J0D01*
G01*
X2440787Y7620019D02*
G75*
G03*
X2172896Y7352128I0J-267891D01*
G01*
X1905005Y7084237D02*
G75*
G03*
X2172896Y7352128I0J267891D01*
G01*
X1637113Y7352128D02*
G75*
G03*
X1905005Y7084237I267891J0D01*
G01*
X20895521Y0D02*
X22056384Y0D01*
X4941106Y0D02*
X19823956Y0D01*
X2708679Y0D02*
X3869541Y0D01*
X3869541Y0D02*
G75*
G03*
X4137432Y267891I0J267891D01*
G01*
X4673215Y267891D02*
G75*
G03*
X4941106Y0I267891J0D01*
G01*
X4673215Y267891D02*
G75*
G03*
X4405324Y535783I-267891J0D01*
G01*
X4405324Y535783D02*
G75*
G03*
X4137432Y267891I0J-267891D01*
G01*
X19823956Y0D02*
G75*
G03*
X20091848Y267891I0J267891D01*
G01*
X20627630Y267891D02*
G75*
G03*
X20895521Y0I267891J0D01*
G01*
X20627630Y267891D02*
G75*
G03*
X20359739Y535783I-267891J0D01*
G01*
X20359739Y535783D02*
G75*
G03*
X20091848Y267891I0J-267891D01*
G01*
X3333762Y7679532D02*
G75*
G03*
X3303997Y7649767I5J-29770D01*
G01*
X24437644Y1904987D02*
X22532639Y1904987D01*
X4316038Y7649767D02*
G75*
G03*
X4286265Y7679533I-29771J-5D01*
G01*
X3333762Y7679533D02*
X4286265Y7679533D01*
X3274231Y7619992D02*
G75*
G03*
X3303997Y7649767I-4J29770D01*
G01*
X2Y2232410D02*
G75*
G03*
X327427Y1904987I327425J3D01*
G01*
X22532639Y1904989D02*
G75*
G03*
X22383810Y1756158I-2J-148827D01*
G01*
X4Y2232410D02*
X4Y7292578D01*
X2381260Y327405D02*
X2381260Y1756158D01*
X2232432Y1904987D02*
X327427Y1904987D01*
X22056388Y-21D02*
G75*
G03*
X22383810Y327405I-1J327423D01*
G01*
X24765066Y7292578D02*
G75*
G03*
X24437644Y7620001I-327419J4D01*
G01*
X24765066Y7292578D02*
X24765066Y2232410D01*
X2381252Y1756158D02*
G75*
G03*
X2232432Y1904987I-148825J4D01*
G01*
X22383810Y1756158D02*
X22383810Y327405D01*
X24437644Y1904993D02*
G75*
G03*
X24765066Y2232410I3J327419D01*
G01*
X2381267Y327405D02*
G75*
G03*
X2708683Y-18I327420J-3D01*
G01*
X4316036Y7649767D02*
G75*
G03*
X4345796Y7620001I29761J-5D01*
G01*
X327427Y7620001D02*
G75*
G03*
X4Y7292578I0J-327423D01*
G01*
D11*
D12*
X12137500Y6023518D02*
X12157500Y6003518D01*
X12157500Y6023518D02*
X12137500Y6003518D01*
X12137500Y5906018D02*
X12157500Y5886018D01*
X12157500Y5906018D02*
X12137500Y5886018D01*
X12137500Y5788518D02*
X12157500Y5768518D01*
X12157500Y5788518D02*
X12137500Y5768518D01*
X12137500Y5671018D02*
X12157500Y5651018D01*
X12157500Y5671018D02*
X12137500Y5651018D01*
X12137500Y5553518D02*
X12157500Y5533518D01*
X12157500Y5553518D02*
X12137500Y5533518D01*
X12255000Y6023518D02*
X12275000Y6003518D01*
X12275000Y6023518D02*
X12255000Y6003518D01*
X12255000Y5906018D02*
X12275000Y5886018D01*
X12275000Y5906018D02*
X12255000Y5886018D01*
X12255000Y5788518D02*
X12275000Y5768518D01*
X12275000Y5788518D02*
X12255000Y5768518D01*
X12255000Y5671018D02*
X12275000Y5651018D01*
X12275000Y5671018D02*
X12255000Y5651018D01*
X12255000Y5553518D02*
X12275000Y5533518D01*
X12275000Y5553518D02*
X12255000Y5533518D01*
X12372500Y6023518D02*
X12392500Y6003518D01*
X12392500Y6023518D02*
X12372500Y6003518D01*
X12372500Y5906018D02*
X12392500Y5886018D01*
X12392500Y5906018D02*
X12372500Y5886018D01*
X12372500Y5788518D02*
X12392500Y5768518D01*
X12392500Y5788518D02*
X12372500Y5768518D01*
X12372500Y5671018D02*
X12392500Y5651018D01*
X12392500Y5671018D02*
X12372500Y5651018D01*
X12372500Y5553518D02*
X12392500Y5533518D01*
X12392500Y5553518D02*
X12372500Y5533518D01*
X12490000Y6023518D02*
X12510000Y6003518D01*
X12510000Y6023518D02*
X12490000Y6003518D01*
X12490000Y5906018D02*
X12510000Y5886018D01*
X12510000Y5906018D02*
X12490000Y5886018D01*
X12490000Y5788518D02*
X12510000Y5768518D01*
X12510000Y5788518D02*
X12490000Y5768518D01*
X12490000Y5671018D02*
X12510000Y5651018D01*
X12510000Y5671018D02*
X12490000Y5651018D01*
X12490000Y5553518D02*
X12510000Y5533518D01*
X12510000Y5553518D02*
X12490000Y5533518D01*
X12607500Y6023518D02*
X12627500Y6003518D01*
X12627500Y6023518D02*
X12607500Y6003518D01*
X12607500Y5906018D02*
X12627500Y5886018D01*
X12627500Y5906018D02*
X12607500Y5886018D01*
X12607500Y5788518D02*
X12627500Y5768518D01*
X12627500Y5788518D02*
X12607500Y5768518D01*
X12607500Y5671018D02*
X12627500Y5651018D01*
X12627500Y5671018D02*
X12607500Y5651018D01*
X12607500Y5553518D02*
X12627500Y5533518D01*
X12627500Y5553518D02*
X12607500Y5533518D01*
D13*
X11266435Y5953140D02*
G75*
G03*
X11266435Y5953140I-15000J0D01*
G01*
X11623603Y6131724D02*
G75*
G03*
X11623603Y6131724I-15000J0D01*
G01*
X11683125Y6667500D02*
G75*
G03*
X11683125Y6667500I-15000J0D01*
G01*
X11805764Y4654690D02*
G75*
G03*
X11805764Y4654690I-15000J0D01*
G01*
X11831408Y6467870D02*
G75*
G03*
X11831408Y6467870I-15000J0D01*
G01*
X11921250Y5556250D02*
G75*
G03*
X11921250Y5556250I-15000J0D01*
G01*
X12051429Y5155595D02*
G75*
G03*
X12051429Y5155595I-15000J0D01*
G01*
X12157378Y5095135D02*
G75*
G03*
X12157378Y5095135I-15000J0D01*
G01*
X12514094Y3894899D02*
G75*
G03*
X12514094Y3894899I-15000J0D01*
G01*
X12794375Y5159375D02*
G75*
G03*
X12794375Y5159375I-15000J0D01*
G01*
X13085533Y5986408D02*
G75*
G03*
X13085533Y5986408I-15000J0D01*
G01*
X13117136Y6250568D02*
G75*
G03*
X13117136Y6250568I-15000J0D01*
G01*
D14*
X3006340Y7520938D02*
X3006340Y7480938D01*
X2986340Y7500938D02*
X3026340Y7500938D01*
X3333753Y6443125D02*
X3333753Y6403125D01*
X3313753Y6423125D02*
X3353753Y6423125D01*
X3929076Y6806562D02*
X3929076Y6766562D01*
X3909076Y6786562D02*
X3949076Y6786562D01*
X4286254Y6443125D02*
X4286254Y6403125D01*
X4266254Y6423125D02*
X4306254Y6423125D01*
X5298299Y5973122D02*
X5298299Y5933122D01*
X5278299Y5953122D02*
X5318299Y5953122D01*
X5900005Y6699849D02*
X5900005Y6659849D01*
X5880005Y6679849D02*
X5920005Y6679849D01*
X6111875Y5973130D02*
X6111875Y5933130D01*
X6091875Y5953130D02*
X6131875Y5953130D01*
X10914432Y6442914D02*
X10914432Y6402914D01*
X10894432Y6422914D02*
X10934432Y6422914D01*
X10920080Y4539481D02*
X10920080Y4499481D01*
X10900080Y4519481D02*
X10940080Y4519481D01*
X11350625Y6687500D02*
X11350625Y6647500D01*
X11330625Y6667500D02*
X11370625Y6667500D01*
X11493519Y4607894D02*
X11493519Y4567894D01*
X11473519Y4587894D02*
X11513519Y4587894D01*
X11588748Y6806568D02*
X11588748Y6766568D01*
X11568748Y6786568D02*
X11608748Y6786568D01*
X12590499Y4665784D02*
X12590499Y4625784D01*
X12570499Y4645784D02*
X12610499Y4645784D01*
X12595888Y6311038D02*
X12595888Y6271038D01*
X12575888Y6291038D02*
X12615888Y6291038D01*
X12733570Y6232735D02*
X12733570Y6192735D01*
X12713570Y6212735D02*
X12753570Y6212735D01*
X12974760Y4665784D02*
X12974760Y4625784D01*
X12954760Y4645784D02*
X12994760Y4645784D01*
X13019135Y6928500D02*
X13019135Y6888500D01*
X12999135Y6908500D02*
X13039135Y6908500D01*
X13081575Y6992181D02*
X13081575Y6952181D01*
X13061575Y6972181D02*
X13101575Y6972181D01*
X13176250Y4226875D02*
X13176250Y4186875D01*
X13156250Y4206875D02*
X13196250Y4206875D01*
X13255625Y5496875D02*
X13255625Y5456875D01*
X13235625Y5476875D02*
X13275625Y5476875D01*
X13335000Y6608125D02*
X13335000Y6568125D01*
X13315000Y6588125D02*
X13355000Y6588125D01*
X13433482Y4612236D02*
X13433482Y4572236D01*
X13413482Y4592236D02*
X13453482Y4592236D01*
X14548958Y2699073D02*
X14548958Y2659073D01*
X14528958Y2679073D02*
X14568958Y2679073D01*
X15008125Y728125D02*
X15008125Y688125D01*
X14988125Y708125D02*
X15028125Y708125D01*
D15*
X3395681Y7562703D02*
X3395681Y7598059D01*
X3360325Y7598059D01*
X3360325Y7562703D01*
X3395681Y7562703D01*
D11*
X3353003Y7615381D02*
X3353003Y7545381D01*
X3353003Y7545381D02*
G75*
G03*
X3403003Y7545381I25000J0D01*
G01*
X3403003Y7545381D02*
X3403003Y7615381D01*
X3403003Y7615381D02*
G75*
G03*
X3353003Y7615381I-25000J0D01*
G01*
D15*
X4259681Y7562703D02*
X4259681Y7598059D01*
X4224325Y7598059D01*
X4224325Y7562703D01*
X4259681Y7562703D01*
D11*
X4217003Y7615381D02*
X4217003Y7545381D01*
X4217003Y7545381D02*
G75*
G03*
X4267003Y7545381I25000J0D01*
G01*
X4267003Y7545381D02*
X4267003Y7615381D01*
X4267003Y7615381D02*
G75*
G03*
X4217003Y7615381I-25000J0D01*
G01*
D15*
X11923928Y4427322D02*
X11923928Y4462678D01*
X11888572Y4462678D01*
X11888572Y4427322D01*
X11923928Y4427322D01*
X12162053Y4427322D02*
X12162053Y4462678D01*
X12126697Y4462678D01*
X12126697Y4427322D01*
X12162053Y4427322D01*
X12400178Y4427322D02*
X12400178Y4462678D01*
X12364822Y4462678D01*
X12364822Y4427322D01*
X12400178Y4427322D01*
X12638303Y4427322D02*
X12638303Y4462678D01*
X12602947Y4462678D01*
X12602947Y4427322D01*
X12638303Y4427322D01*
X12876428Y4427322D02*
X12876428Y4462678D01*
X12841072Y4462678D01*
X12841072Y4427322D01*
X12876428Y4427322D01*
D16*
X3378003Y7132381D02*
X3408003Y7162381D01*
X3378003Y7192381D01*
X3348003Y7162381D01*
X3378003Y7132381D01*
D11*
X3348003Y7217381D02*
X3348003Y7107381D01*
X3348003Y7107381D02*
G75*
G03*
X3408003Y7107381I30000J0D01*
G01*
X3408003Y7107381D02*
X3408003Y7217381D01*
X3408003Y7217381D02*
G75*
G03*
X3348003Y7217381I-30000J0D01*
G01*
D16*
X4242003Y7132381D02*
X4272003Y7162381D01*
X4242003Y7192381D01*
X4212003Y7162381D01*
X4242003Y7132381D01*
D11*
X4212003Y7217381D02*
X4212003Y7107381D01*
X4212003Y7107381D02*
G75*
G03*
X4272003Y7107381I30000J0D01*
G01*
X4272003Y7107381D02*
X4272003Y7217381D01*
X4272003Y7217381D02*
G75*
G03*
X4212003Y7217381I-30000J0D01*
G01*
D17*
X11960870Y7528645D02*
X12042150Y7447365D01*
X12042150Y7528645D02*
X11960870Y7447365D01*
X12042150Y7488005D02*
G75*
G03*
X12042150Y7488005I-40640J0D01*
G01*
X12214870Y7528645D02*
X12296150Y7447365D01*
X12296150Y7528645D02*
X12214870Y7447365D01*
X12296150Y7488005D02*
G75*
G03*
X12296150Y7488005I-40640J0D01*
G01*
X12468870Y7528645D02*
X12550150Y7447365D01*
X12550150Y7528645D02*
X12468870Y7447365D01*
X12550150Y7488005D02*
G75*
G03*
X12550150Y7488005I-40640J0D01*
G01*
X12722870Y7528645D02*
X12804150Y7447365D01*
X12804150Y7528645D02*
X12722870Y7447365D01*
X12804150Y7488005D02*
G75*
G03*
X12804150Y7488005I-40640J0D01*
G01*
D10*
X11411750Y7447750D02*
X11511750Y7347750D01*
X11511750Y7447750D02*
X11411750Y7347750D01*
X11461750Y7447750D02*
X11461750Y7347750D01*
X11411750Y7397750D02*
X11511750Y7397750D01*
X11411750Y7193750D02*
X11511750Y7093750D01*
X11511750Y7193750D02*
X11411750Y7093750D01*
X11461750Y7193750D02*
X11461750Y7093750D01*
X11411750Y7143750D02*
X11511750Y7143750D01*
X11411750Y6939750D02*
X11511750Y6839750D01*
X11511750Y6939750D02*
X11411750Y6839750D01*
X11461750Y6939750D02*
X11461750Y6839750D01*
X11411750Y6889750D02*
X11511750Y6889750D01*
X11665750Y7447750D02*
X11765750Y7347750D01*
X11765750Y7447750D02*
X11665750Y7347750D01*
X11715750Y7447750D02*
X11715750Y7347750D01*
X11665750Y7397750D02*
X11765750Y7397750D01*
X11665750Y7193750D02*
X11765750Y7093750D01*
X11765750Y7193750D02*
X11665750Y7093750D01*
X11715750Y7193750D02*
X11715750Y7093750D01*
X11665750Y7143750D02*
X11765750Y7143750D01*
X11665750Y6939750D02*
X11765750Y6839750D01*
X11765750Y6939750D02*
X11665750Y6839750D01*
X11715750Y6939750D02*
X11715750Y6839750D01*
X11665750Y6889750D02*
X11765750Y6889750D01*
X13035000Y3609830D02*
X13135000Y3509830D01*
X13135000Y3609830D02*
X13035000Y3509830D01*
X13085000Y3609830D02*
X13085000Y3509830D01*
X13035000Y3559830D02*
X13135000Y3559830D01*
X13035000Y2159830D02*
X13135000Y2059830D01*
X13135000Y2159830D02*
X13035000Y2059830D01*
X13085000Y2159830D02*
X13085000Y2059830D01*
X13035000Y2109830D02*
X13135000Y2109830D01*
X13285000Y2159830D02*
X13385000Y2059830D01*
X13385000Y2159830D02*
X13285000Y2059830D01*
X13335000Y2159830D02*
X13335000Y2059830D01*
X13285000Y2109830D02*
X13385000Y2109830D01*
X13535000Y3609830D02*
X13635000Y3509830D01*
X13635000Y3609830D02*
X13535000Y3509830D01*
X13585000Y3609830D02*
X13585000Y3509830D01*
X13535000Y3559830D02*
X13635000Y3559830D01*
X13535000Y2159830D02*
X13635000Y2059830D01*
X13635000Y2159830D02*
X13535000Y2059830D01*
X13585000Y2159830D02*
X13585000Y2059830D01*
X13535000Y2109830D02*
X13635000Y2109830D01*
D18*
X498000Y6995000D02*
X645000Y6848000D01*
X645000Y6995000D02*
X498000Y6848000D01*
X623473Y6869527D02*
X623473Y6973473D01*
X519527Y6973473D01*
X519527Y6869527D01*
X623473Y6869527D01*
X498000Y5090000D02*
X645000Y4943000D01*
X645000Y5090000D02*
X498000Y4943000D01*
X623473Y4964527D02*
X623473Y5068473D01*
X519527Y5068473D01*
X519527Y4964527D01*
X623473Y4964527D01*
X974250Y3185000D02*
X1121250Y3038000D01*
X1121250Y3185000D02*
X974250Y3038000D01*
X1099723Y3059527D02*
X1099723Y3163473D01*
X995777Y3163473D01*
X995777Y3059527D01*
X1099723Y3059527D01*
X1133000Y7249000D02*
X1280000Y7102000D01*
X1280000Y7249000D02*
X1133000Y7102000D01*
X1258473Y7123527D02*
X1258473Y7227473D01*
X1154527Y7227473D01*
X1154527Y7123527D01*
X1258473Y7123527D01*
X1133000Y5344000D02*
X1280000Y5197000D01*
X1280000Y5344000D02*
X1133000Y5197000D01*
X1258473Y5218527D02*
X1258473Y5322473D01*
X1154527Y5322473D01*
X1154527Y5218527D01*
X1258473Y5218527D01*
X1212375Y3185000D02*
X1359375Y3038000D01*
X1359375Y3185000D02*
X1212375Y3038000D01*
X1337848Y3059527D02*
X1337848Y3163473D01*
X1233902Y3163473D01*
X1233902Y3059527D01*
X1337848Y3059527D01*
X1450500Y3185000D02*
X1597500Y3038000D01*
X1597500Y3185000D02*
X1450500Y3038000D01*
X1575973Y3059527D02*
X1575973Y3163473D01*
X1472027Y3163473D01*
X1472027Y3059527D01*
X1575973Y3059527D01*
X1609250Y3439000D02*
X1756250Y3292000D01*
X1756250Y3439000D02*
X1609250Y3292000D01*
X1734723Y3313527D02*
X1734723Y3417473D01*
X1630777Y3417473D01*
X1630777Y3313527D01*
X1734723Y3313527D01*
X1847375Y3439000D02*
X1994375Y3292000D01*
X1994375Y3439000D02*
X1847375Y3292000D01*
X1972848Y3313527D02*
X1972848Y3417473D01*
X1868902Y3417473D01*
X1868902Y3313527D01*
X1972848Y3313527D01*
X2085500Y3439000D02*
X2232500Y3292000D01*
X2232500Y3439000D02*
X2085500Y3292000D01*
X2210973Y3313527D02*
X2210973Y3417473D01*
X2107027Y3417473D01*
X2107027Y3313527D01*
X2210973Y3313527D01*
X2403000Y6995000D02*
X2550000Y6848000D01*
X2550000Y6995000D02*
X2403000Y6848000D01*
X2528473Y6869527D02*
X2528473Y6973473D01*
X2424527Y6973473D01*
X2424527Y6869527D01*
X2528473Y6869527D01*
X2403000Y5090000D02*
X2550000Y4943000D01*
X2550000Y5090000D02*
X2403000Y4943000D01*
X2528473Y4964527D02*
X2528473Y5068473D01*
X2424527Y5068473D01*
X2424527Y4964527D01*
X2528473Y4964527D01*
X3038000Y7249000D02*
X3185000Y7102000D01*
X3185000Y7249000D02*
X3038000Y7102000D01*
X3163473Y7123527D02*
X3163473Y7227473D01*
X3059527Y7227473D01*
X3059527Y7123527D01*
X3163473Y7123527D01*
X3038000Y5344000D02*
X3185000Y5197000D01*
X3185000Y5344000D02*
X3038000Y5197000D01*
X3163473Y5218527D02*
X3163473Y5322473D01*
X3059527Y5322473D01*
X3059527Y5218527D01*
X3163473Y5218527D01*
X3117375Y1280000D02*
X3264375Y1133000D01*
X3264375Y1280000D02*
X3117375Y1133000D01*
X3242848Y1154527D02*
X3242848Y1258473D01*
X3138902Y1258473D01*
X3138902Y1154527D01*
X3242848Y1154527D01*
X3355500Y3185000D02*
X3502500Y3038000D01*
X3502500Y3185000D02*
X3355500Y3038000D01*
X3480973Y3059527D02*
X3480973Y3163473D01*
X3377027Y3163473D01*
X3377027Y3059527D01*
X3480973Y3059527D01*
X3593625Y1280000D02*
X3740625Y1133000D01*
X3740625Y1280000D02*
X3593625Y1133000D01*
X3719098Y1154527D02*
X3719098Y1258473D01*
X3615152Y1258473D01*
X3615152Y1154527D01*
X3719098Y1154527D01*
X3752375Y1534000D02*
X3899375Y1387000D01*
X3899375Y1534000D02*
X3752375Y1387000D01*
X3877848Y1408527D02*
X3877848Y1512473D01*
X3773902Y1512473D01*
X3773902Y1408527D01*
X3877848Y1408527D01*
X3990500Y3439000D02*
X4137500Y3292000D01*
X4137500Y3439000D02*
X3990500Y3292000D01*
X4115973Y3313527D02*
X4115973Y3417473D01*
X4012027Y3417473D01*
X4012027Y3313527D01*
X4115973Y3313527D01*
X4228625Y1534000D02*
X4375625Y1387000D01*
X4375625Y1534000D02*
X4228625Y1387000D01*
X4354098Y1408527D02*
X4354098Y1512473D01*
X4250152Y1512473D01*
X4250152Y1408527D01*
X4354098Y1408527D01*
X4308000Y6995000D02*
X4455000Y6848000D01*
X4455000Y6995000D02*
X4308000Y6848000D01*
X4433473Y6869527D02*
X4433473Y6973473D01*
X4329527Y6973473D01*
X4329527Y6869527D01*
X4433473Y6869527D01*
X4308000Y5090000D02*
X4455000Y4943000D01*
X4455000Y5090000D02*
X4308000Y4943000D01*
X4433473Y4964527D02*
X4433473Y5068473D01*
X4329527Y5068473D01*
X4329527Y4964527D01*
X4433473Y4964527D01*
X4943000Y7249000D02*
X5090000Y7102000D01*
X5090000Y7249000D02*
X4943000Y7102000D01*
X5068473Y7123527D02*
X5068473Y7227473D01*
X4964527Y7227473D01*
X4964527Y7123527D01*
X5068473Y7123527D01*
X4943000Y5344000D02*
X5090000Y5197000D01*
X5090000Y5344000D02*
X4943000Y5197000D01*
X5068473Y5218527D02*
X5068473Y5322473D01*
X4964527Y5322473D01*
X4964527Y5218527D01*
X5068473Y5218527D01*
X5260500Y3185000D02*
X5407500Y3038000D01*
X5407500Y3185000D02*
X5260500Y3038000D01*
X5385973Y3059527D02*
X5385973Y3163473D01*
X5282027Y3163473D01*
X5282027Y3059527D01*
X5385973Y3059527D01*
X5260500Y1280000D02*
X5407500Y1133000D01*
X5407500Y1280000D02*
X5260500Y1133000D01*
X5385973Y1154527D02*
X5385973Y1258473D01*
X5282027Y1258473D01*
X5282027Y1154527D01*
X5385973Y1154527D01*
X5498625Y1280000D02*
X5645625Y1133000D01*
X5645625Y1280000D02*
X5498625Y1133000D01*
X5624098Y1154527D02*
X5624098Y1258473D01*
X5520152Y1258473D01*
X5520152Y1154527D01*
X5624098Y1154527D01*
X5895500Y3439000D02*
X6042500Y3292000D01*
X6042500Y3439000D02*
X5895500Y3292000D01*
X6020973Y3313527D02*
X6020973Y3417473D01*
X5917027Y3417473D01*
X5917027Y3313527D01*
X6020973Y3313527D01*
X5895500Y1534000D02*
X6042500Y1387000D01*
X6042500Y1534000D02*
X5895500Y1387000D01*
X6020973Y1408527D02*
X6020973Y1512473D01*
X5917027Y1512473D01*
X5917027Y1408527D01*
X6020973Y1408527D01*
X6133625Y1534000D02*
X6280625Y1387000D01*
X6280625Y1534000D02*
X6133625Y1387000D01*
X6259098Y1408527D02*
X6259098Y1512473D01*
X6155152Y1512473D01*
X6155152Y1408527D01*
X6259098Y1408527D01*
X6213000Y6995000D02*
X6360000Y6848000D01*
X6360000Y6995000D02*
X6213000Y6848000D01*
X6338473Y6869527D02*
X6338473Y6973473D01*
X6234527Y6973473D01*
X6234527Y6869527D01*
X6338473Y6869527D01*
X6213000Y5090000D02*
X6360000Y4943000D01*
X6360000Y5090000D02*
X6213000Y4943000D01*
X6338473Y4964527D02*
X6338473Y5068473D01*
X6234527Y5068473D01*
X6234527Y4964527D01*
X6338473Y4964527D01*
X6213000Y1280000D02*
X6360000Y1133000D01*
X6360000Y1280000D02*
X6213000Y1133000D01*
X6338473Y1154527D02*
X6338473Y1258473D01*
X6234527Y1258473D01*
X6234527Y1154527D01*
X6338473Y1154527D01*
X6848000Y7249000D02*
X6995000Y7102000D01*
X6995000Y7249000D02*
X6848000Y7102000D01*
X6973473Y7123527D02*
X6973473Y7227473D01*
X6869527Y7227473D01*
X6869527Y7123527D01*
X6973473Y7123527D01*
X6848000Y5344000D02*
X6995000Y5197000D01*
X6995000Y5344000D02*
X6848000Y5197000D01*
X6973473Y5218527D02*
X6973473Y5322473D01*
X6869527Y5322473D01*
X6869527Y5218527D01*
X6973473Y5218527D01*
X6848000Y1534000D02*
X6995000Y1387000D01*
X6995000Y1534000D02*
X6848000Y1387000D01*
X6973473Y1408527D02*
X6973473Y1512473D01*
X6869527Y1512473D01*
X6869527Y1408527D01*
X6973473Y1408527D01*
X7165500Y3185000D02*
X7312500Y3038000D01*
X7312500Y3185000D02*
X7165500Y3038000D01*
X7290973Y3059527D02*
X7290973Y3163473D01*
X7187027Y3163473D01*
X7187027Y3059527D01*
X7290973Y3059527D01*
X7403625Y1280000D02*
X7550625Y1133000D01*
X7550625Y1280000D02*
X7403625Y1133000D01*
X7529098Y1154527D02*
X7529098Y1258473D01*
X7425152Y1258473D01*
X7425152Y1154527D01*
X7529098Y1154527D01*
X7641750Y1280000D02*
X7788750Y1133000D01*
X7788750Y1280000D02*
X7641750Y1133000D01*
X7767223Y1154527D02*
X7767223Y1258473D01*
X7663277Y1258473D01*
X7663277Y1154527D01*
X7767223Y1154527D01*
X7800500Y3439000D02*
X7947500Y3292000D01*
X7947500Y3439000D02*
X7800500Y3292000D01*
X7925973Y3313527D02*
X7925973Y3417473D01*
X7822027Y3417473D01*
X7822027Y3313527D01*
X7925973Y3313527D01*
X8038625Y1534000D02*
X8185625Y1387000D01*
X8185625Y1534000D02*
X8038625Y1387000D01*
X8164098Y1408527D02*
X8164098Y1512473D01*
X8060152Y1512473D01*
X8060152Y1408527D01*
X8164098Y1408527D01*
X8118000Y6995000D02*
X8265000Y6848000D01*
X8265000Y6995000D02*
X8118000Y6848000D01*
X8243473Y6869527D02*
X8243473Y6973473D01*
X8139527Y6973473D01*
X8139527Y6869527D01*
X8243473Y6869527D01*
X8118000Y5090000D02*
X8265000Y4943000D01*
X8265000Y5090000D02*
X8118000Y4943000D01*
X8243473Y4964527D02*
X8243473Y5068473D01*
X8139527Y5068473D01*
X8139527Y4964527D01*
X8243473Y4964527D01*
X8118000Y1280000D02*
X8265000Y1133000D01*
X8265000Y1280000D02*
X8118000Y1133000D01*
X8243473Y1154527D02*
X8243473Y1258473D01*
X8139527Y1258473D01*
X8139527Y1154527D01*
X8243473Y1154527D01*
X8276750Y1534000D02*
X8423750Y1387000D01*
X8423750Y1534000D02*
X8276750Y1387000D01*
X8402223Y1408527D02*
X8402223Y1512473D01*
X8298277Y1512473D01*
X8298277Y1408527D01*
X8402223Y1408527D01*
X8753000Y7249000D02*
X8900000Y7102000D01*
X8900000Y7249000D02*
X8753000Y7102000D01*
X8878473Y7123527D02*
X8878473Y7227473D01*
X8774527Y7227473D01*
X8774527Y7123527D01*
X8878473Y7123527D01*
X8753000Y5344000D02*
X8900000Y5197000D01*
X8900000Y5344000D02*
X8753000Y5197000D01*
X8878473Y5218527D02*
X8878473Y5322473D01*
X8774527Y5322473D01*
X8774527Y5218527D01*
X8878473Y5218527D01*
X8753000Y1534000D02*
X8900000Y1387000D01*
X8900000Y1534000D02*
X8753000Y1387000D01*
X8878473Y1408527D02*
X8878473Y1512473D01*
X8774527Y1512473D01*
X8774527Y1408527D01*
X8878473Y1408527D01*
X9070500Y3185000D02*
X9217500Y3038000D01*
X9217500Y3185000D02*
X9070500Y3038000D01*
X9195973Y3059527D02*
X9195973Y3163473D01*
X9092027Y3163473D01*
X9092027Y3059527D01*
X9195973Y3059527D01*
X9705500Y3439000D02*
X9852500Y3292000D01*
X9852500Y3439000D02*
X9705500Y3292000D01*
X9830973Y3313527D02*
X9830973Y3417473D01*
X9727027Y3417473D01*
X9727027Y3313527D01*
X9830973Y3313527D01*
X10023000Y6995000D02*
X10170000Y6848000D01*
X10170000Y6995000D02*
X10023000Y6848000D01*
X10148473Y6869527D02*
X10148473Y6973473D01*
X10044527Y6973473D01*
X10044527Y6869527D01*
X10148473Y6869527D01*
X10023000Y5090000D02*
X10170000Y4943000D01*
X10170000Y5090000D02*
X10023000Y4943000D01*
X10148473Y4964527D02*
X10148473Y5068473D01*
X10044527Y5068473D01*
X10044527Y4964527D01*
X10148473Y4964527D01*
X10261125Y1280000D02*
X10408125Y1133000D01*
X10408125Y1280000D02*
X10261125Y1133000D01*
X10386598Y1154527D02*
X10386598Y1258473D01*
X10282652Y1258473D01*
X10282652Y1154527D01*
X10386598Y1154527D01*
X10499250Y1280000D02*
X10646250Y1133000D01*
X10646250Y1280000D02*
X10499250Y1133000D01*
X10624723Y1154527D02*
X10624723Y1258473D01*
X10520777Y1258473D01*
X10520777Y1154527D01*
X10624723Y1154527D01*
X10658000Y7249000D02*
X10805000Y7102000D01*
X10805000Y7249000D02*
X10658000Y7102000D01*
X10783473Y7123527D02*
X10783473Y7227473D01*
X10679527Y7227473D01*
X10679527Y7123527D01*
X10783473Y7123527D01*
X10658000Y5344000D02*
X10805000Y5197000D01*
X10805000Y5344000D02*
X10658000Y5197000D01*
X10783473Y5218527D02*
X10783473Y5322473D01*
X10679527Y5322473D01*
X10679527Y5218527D01*
X10783473Y5218527D01*
X10896125Y1534000D02*
X11043125Y1387000D01*
X11043125Y1534000D02*
X10896125Y1387000D01*
X11021598Y1408527D02*
X11021598Y1512473D01*
X10917652Y1512473D01*
X10917652Y1408527D01*
X11021598Y1408527D01*
X10975500Y3185000D02*
X11122500Y3038000D01*
X11122500Y3185000D02*
X10975500Y3038000D01*
X11100973Y3059527D02*
X11100973Y3163473D01*
X10997027Y3163473D01*
X10997027Y3059527D01*
X11100973Y3059527D01*
X11134250Y1534000D02*
X11281250Y1387000D01*
X11281250Y1534000D02*
X11134250Y1387000D01*
X11259723Y1408527D02*
X11259723Y1512473D01*
X11155777Y1512473D01*
X11155777Y1408527D01*
X11259723Y1408527D01*
X11610500Y3439000D02*
X11757500Y3292000D01*
X11757500Y3439000D02*
X11610500Y3292000D01*
X11735973Y3313527D02*
X11735973Y3417473D01*
X11632027Y3417473D01*
X11632027Y3313527D01*
X11735973Y3313527D01*
X12880500Y3185000D02*
X13027500Y3038000D01*
X13027500Y3185000D02*
X12880500Y3038000D01*
X13005973Y3059527D02*
X13005973Y3163473D01*
X12902027Y3163473D01*
X12902027Y3059527D01*
X13005973Y3059527D01*
X13356750Y1280000D02*
X13503750Y1133000D01*
X13503750Y1280000D02*
X13356750Y1133000D01*
X13482223Y1154527D02*
X13482223Y1258473D01*
X13378277Y1258473D01*
X13378277Y1154527D01*
X13482223Y1154527D01*
X13515500Y3439000D02*
X13662500Y3292000D01*
X13662500Y3439000D02*
X13515500Y3292000D01*
X13640973Y3313527D02*
X13640973Y3417473D01*
X13537027Y3417473D01*
X13537027Y3313527D01*
X13640973Y3313527D01*
X13594875Y1280000D02*
X13741875Y1133000D01*
X13741875Y1280000D02*
X13594875Y1133000D01*
X13720348Y1154527D02*
X13720348Y1258473D01*
X13616402Y1258473D01*
X13616402Y1154527D01*
X13720348Y1154527D01*
X13833000Y6995000D02*
X13980000Y6848000D01*
X13980000Y6995000D02*
X13833000Y6848000D01*
X13958473Y6869527D02*
X13958473Y6973473D01*
X13854527Y6973473D01*
X13854527Y6869527D01*
X13958473Y6869527D01*
X13833000Y5090000D02*
X13980000Y4943000D01*
X13980000Y5090000D02*
X13833000Y4943000D01*
X13958473Y4964527D02*
X13958473Y5068473D01*
X13854527Y5068473D01*
X13854527Y4964527D01*
X13958473Y4964527D01*
X13991750Y1534000D02*
X14138750Y1387000D01*
X14138750Y1534000D02*
X13991750Y1387000D01*
X14117223Y1408527D02*
X14117223Y1512473D01*
X14013277Y1512473D01*
X14013277Y1408527D01*
X14117223Y1408527D01*
X14229875Y1534000D02*
X14376875Y1387000D01*
X14376875Y1534000D02*
X14229875Y1387000D01*
X14355348Y1408527D02*
X14355348Y1512473D01*
X14251402Y1512473D01*
X14251402Y1408527D01*
X14355348Y1408527D01*
X14468000Y7249000D02*
X14615000Y7102000D01*
X14615000Y7249000D02*
X14468000Y7102000D01*
X14593473Y7123527D02*
X14593473Y7227473D01*
X14489527Y7227473D01*
X14489527Y7123527D01*
X14593473Y7123527D01*
X14468000Y5344000D02*
X14615000Y5197000D01*
X14615000Y5344000D02*
X14468000Y5197000D01*
X14593473Y5218527D02*
X14593473Y5322473D01*
X14489527Y5322473D01*
X14489527Y5218527D01*
X14593473Y5218527D01*
X14785500Y3185000D02*
X14932500Y3038000D01*
X14932500Y3185000D02*
X14785500Y3038000D01*
X14910973Y3059527D02*
X14910973Y3163473D01*
X14807027Y3163473D01*
X14807027Y3059527D01*
X14910973Y3059527D01*
X15420500Y3439000D02*
X15567500Y3292000D01*
X15567500Y3439000D02*
X15420500Y3292000D01*
X15545973Y3313527D02*
X15545973Y3417473D01*
X15442027Y3417473D01*
X15442027Y3313527D01*
X15545973Y3313527D01*
X15738000Y6995000D02*
X15885000Y6848000D01*
X15885000Y6995000D02*
X15738000Y6848000D01*
X15863473Y6869527D02*
X15863473Y6973473D01*
X15759527Y6973473D01*
X15759527Y6869527D01*
X15863473Y6869527D01*
X15738000Y5090000D02*
X15885000Y4943000D01*
X15885000Y5090000D02*
X15738000Y4943000D01*
X15863473Y4964527D02*
X15863473Y5068473D01*
X15759527Y5068473D01*
X15759527Y4964527D01*
X15863473Y4964527D01*
X15738000Y1280000D02*
X15885000Y1133000D01*
X15885000Y1280000D02*
X15738000Y1133000D01*
X15863473Y1154527D02*
X15863473Y1258473D01*
X15759527Y1258473D01*
X15759527Y1154527D01*
X15863473Y1154527D01*
X16214250Y1280000D02*
X16361250Y1133000D01*
X16361250Y1280000D02*
X16214250Y1133000D01*
X16339723Y1154527D02*
X16339723Y1258473D01*
X16235777Y1258473D01*
X16235777Y1154527D01*
X16339723Y1154527D01*
X16373000Y7249000D02*
X16520000Y7102000D01*
X16520000Y7249000D02*
X16373000Y7102000D01*
X16498473Y7123527D02*
X16498473Y7227473D01*
X16394527Y7227473D01*
X16394527Y7123527D01*
X16498473Y7123527D01*
X16373000Y5344000D02*
X16520000Y5197000D01*
X16520000Y5344000D02*
X16373000Y5197000D01*
X16498473Y5218527D02*
X16498473Y5322473D01*
X16394527Y5322473D01*
X16394527Y5218527D01*
X16498473Y5218527D01*
X16373000Y1534000D02*
X16520000Y1387000D01*
X16520000Y1534000D02*
X16373000Y1387000D01*
X16498473Y1408527D02*
X16498473Y1512473D01*
X16394527Y1512473D01*
X16394527Y1408527D01*
X16498473Y1408527D01*
X16452375Y1280000D02*
X16599375Y1133000D01*
X16599375Y1280000D02*
X16452375Y1133000D01*
X16577848Y1154527D02*
X16577848Y1258473D01*
X16473902Y1258473D01*
X16473902Y1154527D01*
X16577848Y1154527D01*
X16690500Y3185000D02*
X16837500Y3038000D01*
X16837500Y3185000D02*
X16690500Y3038000D01*
X16815973Y3059527D02*
X16815973Y3163473D01*
X16712027Y3163473D01*
X16712027Y3059527D01*
X16815973Y3059527D01*
X16849250Y1534000D02*
X16996250Y1387000D01*
X16996250Y1534000D02*
X16849250Y1387000D01*
X16974723Y1408527D02*
X16974723Y1512473D01*
X16870777Y1512473D01*
X16870777Y1408527D01*
X16974723Y1408527D01*
X17087375Y1534000D02*
X17234375Y1387000D01*
X17234375Y1534000D02*
X17087375Y1387000D01*
X17212848Y1408527D02*
X17212848Y1512473D01*
X17108902Y1512473D01*
X17108902Y1408527D01*
X17212848Y1408527D01*
X17325500Y3439000D02*
X17472500Y3292000D01*
X17472500Y3439000D02*
X17325500Y3292000D01*
X17450973Y3313527D02*
X17450973Y3417473D01*
X17347027Y3417473D01*
X17347027Y3313527D01*
X17450973Y3313527D01*
X17643000Y6995000D02*
X17790000Y6848000D01*
X17790000Y6995000D02*
X17643000Y6848000D01*
X17768473Y6869527D02*
X17768473Y6973473D01*
X17664527Y6973473D01*
X17664527Y6869527D01*
X17768473Y6869527D01*
X17643000Y5090000D02*
X17790000Y4943000D01*
X17790000Y5090000D02*
X17643000Y4943000D01*
X17768473Y4964527D02*
X17768473Y5068473D01*
X17664527Y5068473D01*
X17664527Y4964527D01*
X17768473Y4964527D01*
X17643000Y1280000D02*
X17790000Y1133000D01*
X17790000Y1280000D02*
X17643000Y1133000D01*
X17768473Y1154527D02*
X17768473Y1258473D01*
X17664527Y1258473D01*
X17664527Y1154527D01*
X17768473Y1154527D01*
X18278000Y7249000D02*
X18425000Y7102000D01*
X18425000Y7249000D02*
X18278000Y7102000D01*
X18403473Y7123527D02*
X18403473Y7227473D01*
X18299527Y7227473D01*
X18299527Y7123527D01*
X18403473Y7123527D01*
X18278000Y5344000D02*
X18425000Y5197000D01*
X18425000Y5344000D02*
X18278000Y5197000D01*
X18403473Y5218527D02*
X18403473Y5322473D01*
X18299527Y5322473D01*
X18299527Y5218527D01*
X18403473Y5218527D01*
X18278000Y1534000D02*
X18425000Y1387000D01*
X18425000Y1534000D02*
X18278000Y1387000D01*
X18403473Y1408527D02*
X18403473Y1512473D01*
X18299527Y1512473D01*
X18299527Y1408527D01*
X18403473Y1408527D01*
X18357375Y1280000D02*
X18504375Y1133000D01*
X18504375Y1280000D02*
X18357375Y1133000D01*
X18482848Y1154527D02*
X18482848Y1258473D01*
X18378902Y1258473D01*
X18378902Y1154527D01*
X18482848Y1154527D01*
X18595500Y3185000D02*
X18742500Y3038000D01*
X18742500Y3185000D02*
X18595500Y3038000D01*
X18720973Y3059527D02*
X18720973Y3163473D01*
X18617027Y3163473D01*
X18617027Y3059527D01*
X18720973Y3059527D01*
X18595500Y1280000D02*
X18742500Y1133000D01*
X18742500Y1280000D02*
X18595500Y1133000D01*
X18720973Y1154527D02*
X18720973Y1258473D01*
X18617027Y1258473D01*
X18617027Y1154527D01*
X18720973Y1154527D01*
X18992375Y1534000D02*
X19139375Y1387000D01*
X19139375Y1534000D02*
X18992375Y1387000D01*
X19117848Y1408527D02*
X19117848Y1512473D01*
X19013902Y1512473D01*
X19013902Y1408527D01*
X19117848Y1408527D01*
X19230500Y3439000D02*
X19377500Y3292000D01*
X19377500Y3439000D02*
X19230500Y3292000D01*
X19355973Y3313527D02*
X19355973Y3417473D01*
X19252027Y3417473D01*
X19252027Y3313527D01*
X19355973Y3313527D01*
X19230500Y1534000D02*
X19377500Y1387000D01*
X19377500Y1534000D02*
X19230500Y1387000D01*
X19355973Y1408527D02*
X19355973Y1512473D01*
X19252027Y1512473D01*
X19252027Y1408527D01*
X19355973Y1408527D01*
X19548000Y6995000D02*
X19695000Y6848000D01*
X19695000Y6995000D02*
X19548000Y6848000D01*
X19673473Y6869527D02*
X19673473Y6973473D01*
X19569527Y6973473D01*
X19569527Y6869527D01*
X19673473Y6869527D01*
X19548000Y5090000D02*
X19695000Y4943000D01*
X19695000Y5090000D02*
X19548000Y4943000D01*
X19673473Y4964527D02*
X19673473Y5068473D01*
X19569527Y5068473D01*
X19569527Y4964527D01*
X19673473Y4964527D01*
X20183000Y7249000D02*
X20330000Y7102000D01*
X20330000Y7249000D02*
X20183000Y7102000D01*
X20308473Y7123527D02*
X20308473Y7227473D01*
X20204527Y7227473D01*
X20204527Y7123527D01*
X20308473Y7123527D01*
X20183000Y5344000D02*
X20330000Y5197000D01*
X20330000Y5344000D02*
X20183000Y5197000D01*
X20308473Y5218527D02*
X20308473Y5322473D01*
X20204527Y5322473D01*
X20204527Y5218527D01*
X20308473Y5218527D01*
X20262375Y1280000D02*
X20409375Y1133000D01*
X20409375Y1280000D02*
X20262375Y1133000D01*
X20387848Y1154527D02*
X20387848Y1258473D01*
X20283902Y1258473D01*
X20283902Y1154527D01*
X20387848Y1154527D01*
X20500500Y3185000D02*
X20647500Y3038000D01*
X20647500Y3185000D02*
X20500500Y3038000D01*
X20625973Y3059527D02*
X20625973Y3163473D01*
X20522027Y3163473D01*
X20522027Y3059527D01*
X20625973Y3059527D01*
X20738625Y1280000D02*
X20885625Y1133000D01*
X20885625Y1280000D02*
X20738625Y1133000D01*
X20864098Y1154527D02*
X20864098Y1258473D01*
X20760152Y1258473D01*
X20760152Y1154527D01*
X20864098Y1154527D01*
X20897375Y1534000D02*
X21044375Y1387000D01*
X21044375Y1534000D02*
X20897375Y1387000D01*
X21022848Y1408527D02*
X21022848Y1512473D01*
X20918902Y1512473D01*
X20918902Y1408527D01*
X21022848Y1408527D01*
X21135500Y3439000D02*
X21282500Y3292000D01*
X21282500Y3439000D02*
X21135500Y3292000D01*
X21260973Y3313527D02*
X21260973Y3417473D01*
X21157027Y3417473D01*
X21157027Y3313527D01*
X21260973Y3313527D01*
X21373625Y1534000D02*
X21520625Y1387000D01*
X21520625Y1534000D02*
X21373625Y1387000D01*
X21499098Y1408527D02*
X21499098Y1512473D01*
X21395152Y1512473D01*
X21395152Y1408527D01*
X21499098Y1408527D01*
X21453000Y6995000D02*
X21600000Y6848000D01*
X21600000Y6995000D02*
X21453000Y6848000D01*
X21578473Y6869527D02*
X21578473Y6973473D01*
X21474527Y6973473D01*
X21474527Y6869527D01*
X21578473Y6869527D01*
X21453000Y5090000D02*
X21600000Y4943000D01*
X21600000Y5090000D02*
X21453000Y4943000D01*
X21578473Y4964527D02*
X21578473Y5068473D01*
X21474527Y5068473D01*
X21474527Y4964527D01*
X21578473Y4964527D01*
X22088000Y7249000D02*
X22235000Y7102000D01*
X22235000Y7249000D02*
X22088000Y7102000D01*
X22213473Y7123527D02*
X22213473Y7227473D01*
X22109527Y7227473D01*
X22109527Y7123527D01*
X22213473Y7123527D01*
X22088000Y5344000D02*
X22235000Y5197000D01*
X22235000Y5344000D02*
X22088000Y5197000D01*
X22213473Y5218527D02*
X22213473Y5322473D01*
X22109527Y5322473D01*
X22109527Y5218527D01*
X22213473Y5218527D01*
X22405500Y3185000D02*
X22552500Y3038000D01*
X22552500Y3185000D02*
X22405500Y3038000D01*
X22530973Y3059527D02*
X22530973Y3163473D01*
X22427027Y3163473D01*
X22427027Y3059527D01*
X22530973Y3059527D01*
X22643625Y3185000D02*
X22790625Y3038000D01*
X22790625Y3185000D02*
X22643625Y3038000D01*
X22769098Y3059527D02*
X22769098Y3163473D01*
X22665152Y3163473D01*
X22665152Y3059527D01*
X22769098Y3059527D01*
X22881750Y3185000D02*
X23028750Y3038000D01*
X23028750Y3185000D02*
X22881750Y3038000D01*
X23007223Y3059527D02*
X23007223Y3163473D01*
X22903277Y3163473D01*
X22903277Y3059527D01*
X23007223Y3059527D01*
X23040500Y3439000D02*
X23187500Y3292000D01*
X23187500Y3439000D02*
X23040500Y3292000D01*
X23165973Y3313527D02*
X23165973Y3417473D01*
X23062027Y3417473D01*
X23062027Y3313527D01*
X23165973Y3313527D01*
X23278625Y3439000D02*
X23425625Y3292000D01*
X23425625Y3439000D02*
X23278625Y3292000D01*
X23404098Y3313527D02*
X23404098Y3417473D01*
X23300152Y3417473D01*
X23300152Y3313527D01*
X23404098Y3313527D01*
X23358000Y6995000D02*
X23505000Y6848000D01*
X23505000Y6995000D02*
X23358000Y6848000D01*
X23483473Y6869527D02*
X23483473Y6973473D01*
X23379527Y6973473D01*
X23379527Y6869527D01*
X23483473Y6869527D01*
X23358000Y5090000D02*
X23505000Y4943000D01*
X23505000Y5090000D02*
X23358000Y4943000D01*
X23483473Y4964527D02*
X23483473Y5068473D01*
X23379527Y5068473D01*
X23379527Y4964527D01*
X23483473Y4964527D01*
X23516750Y3439000D02*
X23663750Y3292000D01*
X23663750Y3439000D02*
X23516750Y3292000D01*
X23642223Y3313527D02*
X23642223Y3417473D01*
X23538277Y3417473D01*
X23538277Y3313527D01*
X23642223Y3313527D01*
X23993000Y7249000D02*
X24140000Y7102000D01*
X24140000Y7249000D02*
X23993000Y7102000D01*
X24118473Y7123527D02*
X24118473Y7227473D01*
X24014527Y7227473D01*
X24014527Y7123527D01*
X24118473Y7123527D01*
X23993000Y5344000D02*
X24140000Y5197000D01*
X24140000Y5344000D02*
X23993000Y5197000D01*
X24118473Y5218527D02*
X24118473Y5322473D01*
X24014527Y5322473D01*
X24014527Y5218527D01*
X24118473Y5218527D01*
D11*
X255781Y-316502D02*
X255781Y-116502D01*
X255781Y-116502D02*
X303400Y-116502D01*
X303400Y-116502D02*
X331971Y-126026D01*
X331971Y-126026D02*
X351019Y-145073D01*
X351019Y-145073D02*
X360543Y-164121D01*
X360543Y-164121D02*
X370066Y-202216D01*
X370066Y-202216D02*
X370066Y-230787D01*
X370066Y-230787D02*
X360543Y-268883D01*
X360543Y-268883D02*
X351019Y-287930D01*
X351019Y-287930D02*
X331971Y-306978D01*
X331971Y-306978D02*
X303400Y-316502D01*
X303400Y-316502D02*
X255781Y-316502D01*
X455781Y-316502D02*
X455781Y-183168D01*
X455781Y-221264D02*
X465305Y-202216D01*
X465305Y-202216D02*
X474828Y-192692D01*
X474828Y-192692D02*
X493876Y-183168D01*
X493876Y-183168D02*
X512924Y-183168D01*
X579590Y-316502D02*
X579590Y-183168D01*
X579590Y-116502D02*
X570067Y-126026D01*
X570067Y-126026D02*
X579590Y-135549D01*
X579590Y-135549D02*
X589114Y-126026D01*
X589114Y-126026D02*
X579590Y-116502D01*
X579590Y-116502D02*
X579590Y-135549D01*
X703400Y-316502D02*
X684352Y-306978D01*
X684352Y-306978D02*
X674828Y-287930D01*
X674828Y-287930D02*
X674828Y-116502D01*
X808162Y-316502D02*
X789114Y-306978D01*
X789114Y-306978D02*
X779590Y-287930D01*
X779590Y-287930D02*
X779590Y-116502D01*
X1036733Y-316502D02*
X1036733Y-116502D01*
X1036733Y-116502D02*
X1103400Y-259359D01*
X1103400Y-259359D02*
X1170067Y-116502D01*
X1170067Y-116502D02*
X1170067Y-316502D01*
X1351019Y-316502D02*
X1351019Y-211740D01*
X1351019Y-211740D02*
X1341495Y-192692D01*
X1341495Y-192692D02*
X1322448Y-183168D01*
X1322448Y-183168D02*
X1284352Y-183168D01*
X1284352Y-183168D02*
X1265305Y-192692D01*
X1351019Y-306978D02*
X1331971Y-316502D01*
X1331971Y-316502D02*
X1284352Y-316502D01*
X1284352Y-316502D02*
X1265305Y-306978D01*
X1265305Y-306978D02*
X1255781Y-287930D01*
X1255781Y-287930D02*
X1255781Y-268883D01*
X1255781Y-268883D02*
X1265305Y-249835D01*
X1265305Y-249835D02*
X1284352Y-240311D01*
X1284352Y-240311D02*
X1331971Y-240311D01*
X1331971Y-240311D02*
X1351019Y-230787D01*
X1446257Y-183168D02*
X1446257Y-383168D01*
X1446257Y-192692D02*
X1465305Y-183168D01*
X1465305Y-183168D02*
X1503400Y-183168D01*
X1503400Y-183168D02*
X1522447Y-192692D01*
X1522447Y-192692D02*
X1531971Y-202216D01*
X1531971Y-202216D02*
X1541495Y-221264D01*
X1541495Y-221264D02*
X1541495Y-278407D01*
X1541495Y-278407D02*
X1531971Y-297454D01*
X1531971Y-297454D02*
X1522447Y-306978D01*
X1522447Y-306978D02*
X1503400Y-316502D01*
X1503400Y-316502D02*
X1465305Y-316502D01*
X1465305Y-316502D02*
X1446257Y-306978D01*
X1627209Y-297454D02*
X1636733Y-306978D01*
X1636733Y-306978D02*
X1627209Y-316502D01*
X1627209Y-316502D02*
X1617686Y-306978D01*
X1617686Y-306978D02*
X1627209Y-297454D01*
X1627209Y-297454D02*
X1627209Y-316502D01*
X1627209Y-192692D02*
X1636733Y-202216D01*
X1636733Y-202216D02*
X1627209Y-211740D01*
X1627209Y-211740D02*
X1617686Y-202216D01*
X1617686Y-202216D02*
X1627209Y-192692D01*
X1627209Y-192692D02*
X1627209Y-211740D01*
D12*
X-24996Y-635018D02*
X-4996Y-655018D01*
X-4996Y-635018D02*
X-24996Y-655018D01*
D11*
X293876Y-536502D02*
X312924Y-536502D01*
X312924Y-536502D02*
X331971Y-546026D01*
X331971Y-546026D02*
X341495Y-555549D01*
X341495Y-555549D02*
X351019Y-574597D01*
X351019Y-574597D02*
X360543Y-612692D01*
X360543Y-612692D02*
X360543Y-660311D01*
X360543Y-660311D02*
X351019Y-698407D01*
X351019Y-698407D02*
X341495Y-717454D01*
X341495Y-717454D02*
X331971Y-726978D01*
X331971Y-726978D02*
X312924Y-736502D01*
X312924Y-736502D02*
X293876Y-736502D01*
X293876Y-736502D02*
X274828Y-726978D01*
X274828Y-726978D02*
X265305Y-717454D01*
X265305Y-717454D02*
X255781Y-698407D01*
X255781Y-698407D02*
X246257Y-660311D01*
X246257Y-660311D02*
X246257Y-612692D01*
X246257Y-612692D02*
X255781Y-574597D01*
X255781Y-574597D02*
X265305Y-555549D01*
X265305Y-555549D02*
X274828Y-546026D01*
X274828Y-546026D02*
X293876Y-536502D01*
X446257Y-717454D02*
X455781Y-726978D01*
X455781Y-726978D02*
X446257Y-736502D01*
X446257Y-736502D02*
X436733Y-726978D01*
X436733Y-726978D02*
X446257Y-717454D01*
X446257Y-717454D02*
X446257Y-736502D01*
X531971Y-555549D02*
X541495Y-546026D01*
X541495Y-546026D02*
X560543Y-536502D01*
X560543Y-536502D02*
X608162Y-536502D01*
X608162Y-536502D02*
X627209Y-546026D01*
X627209Y-546026D02*
X636733Y-555549D01*
X636733Y-555549D02*
X646257Y-574597D01*
X646257Y-574597D02*
X646257Y-593645D01*
X646257Y-593645D02*
X636733Y-622216D01*
X636733Y-622216D02*
X522447Y-736502D01*
X522447Y-736502D02*
X646257Y-736502D01*
X770066Y-536502D02*
X789114Y-536502D01*
X789114Y-536502D02*
X808162Y-546026D01*
X808162Y-546026D02*
X817686Y-555549D01*
X817686Y-555549D02*
X827209Y-574597D01*
X827209Y-574597D02*
X836733Y-612692D01*
X836733Y-612692D02*
X836733Y-660311D01*
X836733Y-660311D02*
X827209Y-698407D01*
X827209Y-698407D02*
X817686Y-717454D01*
X817686Y-717454D02*
X808162Y-726978D01*
X808162Y-726978D02*
X789114Y-736502D01*
X789114Y-736502D02*
X770066Y-736502D01*
X770066Y-736502D02*
X751019Y-726978D01*
X751019Y-726978D02*
X741495Y-717454D01*
X741495Y-717454D02*
X731971Y-698407D01*
X731971Y-698407D02*
X722447Y-660311D01*
X722447Y-660311D02*
X722447Y-612692D01*
X722447Y-612692D02*
X731971Y-574597D01*
X731971Y-574597D02*
X741495Y-555549D01*
X741495Y-555549D02*
X751019Y-546026D01*
X751019Y-546026D02*
X770066Y-536502D01*
X960543Y-536502D02*
X979590Y-536502D01*
X979590Y-536502D02*
X998638Y-546026D01*
X998638Y-546026D02*
X1008162Y-555549D01*
X1008162Y-555549D02*
X1017686Y-574597D01*
X1017686Y-574597D02*
X1027209Y-612692D01*
X1027209Y-612692D02*
X1027209Y-660311D01*
X1027209Y-660311D02*
X1017686Y-698407D01*
X1017686Y-698407D02*
X1008162Y-717454D01*
X1008162Y-717454D02*
X998638Y-726978D01*
X998638Y-726978D02*
X979590Y-736502D01*
X979590Y-736502D02*
X960543Y-736502D01*
X960543Y-736502D02*
X941495Y-726978D01*
X941495Y-726978D02*
X931971Y-717454D01*
X931971Y-717454D02*
X922447Y-698407D01*
X922447Y-698407D02*
X912924Y-660311D01*
X912924Y-660311D02*
X912924Y-612692D01*
X912924Y-612692D02*
X922447Y-574597D01*
X922447Y-574597D02*
X931971Y-555549D01*
X931971Y-555549D02*
X941495Y-546026D01*
X941495Y-546026D02*
X960543Y-536502D01*
X1112924Y-736502D02*
X1112924Y-603168D01*
X1112924Y-622216D02*
X1122448Y-612692D01*
X1122448Y-612692D02*
X1141495Y-603168D01*
X1141495Y-603168D02*
X1170067Y-603168D01*
X1170067Y-603168D02*
X1189114Y-612692D01*
X1189114Y-612692D02*
X1198638Y-631740D01*
X1198638Y-631740D02*
X1198638Y-736502D01*
X1198638Y-631740D02*
X1208162Y-612692D01*
X1208162Y-612692D02*
X1227209Y-603168D01*
X1227209Y-603168D02*
X1255781Y-603168D01*
X1255781Y-603168D02*
X1274829Y-612692D01*
X1274829Y-612692D02*
X1284352Y-631740D01*
X1284352Y-631740D02*
X1284352Y-736502D01*
X1379590Y-736502D02*
X1379590Y-603168D01*
X1379590Y-622216D02*
X1389114Y-612692D01*
X1389114Y-612692D02*
X1408162Y-603168D01*
X1408162Y-603168D02*
X1436733Y-603168D01*
X1436733Y-603168D02*
X1455781Y-612692D01*
X1455781Y-612692D02*
X1465305Y-631740D01*
X1465305Y-631740D02*
X1465305Y-736502D01*
X1465305Y-631740D02*
X1474828Y-612692D01*
X1474828Y-612692D02*
X1493876Y-603168D01*
X1493876Y-603168D02*
X1522447Y-603168D01*
X1522447Y-603168D02*
X1541495Y-612692D01*
X1541495Y-612692D02*
X1551019Y-631740D01*
X1551019Y-631740D02*
X1551019Y-736502D01*
X1941495Y-526978D02*
X1770067Y-784121D01*
X2198638Y-536502D02*
X2217686Y-536502D01*
X2217686Y-536502D02*
X2236733Y-546026D01*
X2236733Y-546026D02*
X2246257Y-555549D01*
X2246257Y-555549D02*
X2255781Y-574597D01*
X2255781Y-574597D02*
X2265305Y-612692D01*
X2265305Y-612692D02*
X2265305Y-660311D01*
X2265305Y-660311D02*
X2255781Y-698407D01*
X2255781Y-698407D02*
X2246257Y-717454D01*
X2246257Y-717454D02*
X2236733Y-726978D01*
X2236733Y-726978D02*
X2217686Y-736502D01*
X2217686Y-736502D02*
X2198638Y-736502D01*
X2198638Y-736502D02*
X2179591Y-726978D01*
X2179591Y-726978D02*
X2170067Y-717454D01*
X2170067Y-717454D02*
X2160543Y-698407D01*
X2160543Y-698407D02*
X2151019Y-660311D01*
X2151019Y-660311D02*
X2151019Y-612692D01*
X2151019Y-612692D02*
X2160543Y-574597D01*
X2160543Y-574597D02*
X2170067Y-555549D01*
X2170067Y-555549D02*
X2179591Y-546026D01*
X2179591Y-546026D02*
X2198638Y-536502D01*
X2351019Y-717454D02*
X2360543Y-726978D01*
X2360543Y-726978D02*
X2351019Y-736502D01*
X2351019Y-736502D02*
X2341495Y-726978D01*
X2341495Y-726978D02*
X2351019Y-717454D01*
X2351019Y-717454D02*
X2351019Y-736502D01*
X2484352Y-536502D02*
X2503400Y-536502D01*
X2503400Y-536502D02*
X2522448Y-546026D01*
X2522448Y-546026D02*
X2531972Y-555549D01*
X2531972Y-555549D02*
X2541495Y-574597D01*
X2541495Y-574597D02*
X2551019Y-612692D01*
X2551019Y-612692D02*
X2551019Y-660311D01*
X2551019Y-660311D02*
X2541495Y-698407D01*
X2541495Y-698407D02*
X2531972Y-717454D01*
X2531972Y-717454D02*
X2522448Y-726978D01*
X2522448Y-726978D02*
X2503400Y-736502D01*
X2503400Y-736502D02*
X2484352Y-736502D01*
X2484352Y-736502D02*
X2465305Y-726978D01*
X2465305Y-726978D02*
X2455781Y-717454D01*
X2455781Y-717454D02*
X2446257Y-698407D01*
X2446257Y-698407D02*
X2436733Y-660311D01*
X2436733Y-660311D02*
X2436733Y-612692D01*
X2436733Y-612692D02*
X2446257Y-574597D01*
X2446257Y-574597D02*
X2455781Y-555549D01*
X2455781Y-555549D02*
X2465305Y-546026D01*
X2465305Y-546026D02*
X2484352Y-536502D01*
X2674829Y-536502D02*
X2693876Y-536502D01*
X2693876Y-536502D02*
X2712924Y-546026D01*
X2712924Y-546026D02*
X2722448Y-555549D01*
X2722448Y-555549D02*
X2731972Y-574597D01*
X2731972Y-574597D02*
X2741495Y-612692D01*
X2741495Y-612692D02*
X2741495Y-660311D01*
X2741495Y-660311D02*
X2731972Y-698407D01*
X2731972Y-698407D02*
X2722448Y-717454D01*
X2722448Y-717454D02*
X2712924Y-726978D01*
X2712924Y-726978D02*
X2693876Y-736502D01*
X2693876Y-736502D02*
X2674829Y-736502D01*
X2674829Y-736502D02*
X2655781Y-726978D01*
X2655781Y-726978D02*
X2646257Y-717454D01*
X2646257Y-717454D02*
X2636733Y-698407D01*
X2636733Y-698407D02*
X2627210Y-660311D01*
X2627210Y-660311D02*
X2627210Y-612692D01*
X2627210Y-612692D02*
X2636733Y-574597D01*
X2636733Y-574597D02*
X2646257Y-555549D01*
X2646257Y-555549D02*
X2655781Y-546026D01*
X2655781Y-546026D02*
X2674829Y-536502D01*
X2808162Y-536502D02*
X2941495Y-536502D01*
X2941495Y-536502D02*
X2855781Y-736502D01*
X3027210Y-736502D02*
X3065305Y-736502D01*
X3065305Y-736502D02*
X3084352Y-726978D01*
X3084352Y-726978D02*
X3093876Y-717454D01*
X3093876Y-717454D02*
X3112924Y-688883D01*
X3112924Y-688883D02*
X3122448Y-650788D01*
X3122448Y-650788D02*
X3122448Y-574597D01*
X3122448Y-574597D02*
X3112924Y-555549D01*
X3112924Y-555549D02*
X3103400Y-546026D01*
X3103400Y-546026D02*
X3084352Y-536502D01*
X3084352Y-536502D02*
X3046257Y-536502D01*
X3046257Y-536502D02*
X3027210Y-546026D01*
X3027210Y-546026D02*
X3017686Y-555549D01*
X3017686Y-555549D02*
X3008162Y-574597D01*
X3008162Y-574597D02*
X3008162Y-622216D01*
X3008162Y-622216D02*
X3017686Y-641264D01*
X3017686Y-641264D02*
X3027210Y-650788D01*
X3027210Y-650788D02*
X3046257Y-660311D01*
X3046257Y-660311D02*
X3084352Y-660311D01*
X3084352Y-660311D02*
X3103400Y-650788D01*
X3103400Y-650788D02*
X3112924Y-641264D01*
X3112924Y-641264D02*
X3122448Y-622216D01*
X3198638Y-536502D02*
X3198638Y-574597D01*
X3274829Y-536502D02*
X3274829Y-574597D01*
X3570067Y-812692D02*
X3560543Y-803168D01*
X3560543Y-803168D02*
X3541495Y-774597D01*
X3541495Y-774597D02*
X3531972Y-755549D01*
X3531972Y-755549D02*
X3522448Y-726978D01*
X3522448Y-726978D02*
X3512924Y-679359D01*
X3512924Y-679359D02*
X3512924Y-641264D01*
X3512924Y-641264D02*
X3522448Y-593645D01*
X3522448Y-593645D02*
X3531972Y-565073D01*
X3531972Y-565073D02*
X3541495Y-546026D01*
X3541495Y-546026D02*
X3560543Y-517454D01*
X3560543Y-517454D02*
X3570067Y-507930D01*
X3636733Y-555549D02*
X3646257Y-546026D01*
X3646257Y-546026D02*
X3665305Y-536502D01*
X3665305Y-536502D02*
X3712924Y-536502D01*
X3712924Y-536502D02*
X3731972Y-546026D01*
X3731972Y-546026D02*
X3741495Y-555549D01*
X3741495Y-555549D02*
X3751019Y-574597D01*
X3751019Y-574597D02*
X3751019Y-593645D01*
X3751019Y-593645D02*
X3741495Y-622216D01*
X3741495Y-622216D02*
X3627210Y-736502D01*
X3627210Y-736502D02*
X3751019Y-736502D01*
X3931972Y-536502D02*
X3836733Y-536502D01*
X3836733Y-536502D02*
X3827210Y-631740D01*
X3827210Y-631740D02*
X3836733Y-622216D01*
X3836733Y-622216D02*
X3855781Y-612692D01*
X3855781Y-612692D02*
X3903400Y-612692D01*
X3903400Y-612692D02*
X3922448Y-622216D01*
X3922448Y-622216D02*
X3931972Y-631740D01*
X3931972Y-631740D02*
X3941495Y-650788D01*
X3941495Y-650788D02*
X3941495Y-698407D01*
X3941495Y-698407D02*
X3931972Y-717454D01*
X3931972Y-717454D02*
X3922448Y-726978D01*
X3922448Y-726978D02*
X3903400Y-736502D01*
X3903400Y-736502D02*
X3855781Y-736502D01*
X3855781Y-736502D02*
X3836733Y-726978D01*
X3836733Y-726978D02*
X3827210Y-717454D01*
X4179591Y-736502D02*
X4179591Y-536502D01*
X4265305Y-736502D02*
X4265305Y-631740D01*
X4265305Y-631740D02*
X4255781Y-612692D01*
X4255781Y-612692D02*
X4236734Y-603168D01*
X4236734Y-603168D02*
X4208162Y-603168D01*
X4208162Y-603168D02*
X4189114Y-612692D01*
X4189114Y-612692D02*
X4179591Y-622216D01*
X4389115Y-736502D02*
X4370067Y-726978D01*
X4370067Y-726978D02*
X4360543Y-717454D01*
X4360543Y-717454D02*
X4351019Y-698407D01*
X4351019Y-698407D02*
X4351019Y-641264D01*
X4351019Y-641264D02*
X4360543Y-622216D01*
X4360543Y-622216D02*
X4370067Y-612692D01*
X4370067Y-612692D02*
X4389115Y-603168D01*
X4389115Y-603168D02*
X4417686Y-603168D01*
X4417686Y-603168D02*
X4436734Y-612692D01*
X4436734Y-612692D02*
X4446257Y-622216D01*
X4446257Y-622216D02*
X4455781Y-641264D01*
X4455781Y-641264D02*
X4455781Y-698407D01*
X4455781Y-698407D02*
X4446257Y-717454D01*
X4446257Y-717454D02*
X4436734Y-726978D01*
X4436734Y-726978D02*
X4417686Y-736502D01*
X4417686Y-736502D02*
X4389115Y-736502D01*
X4570067Y-736502D02*
X4551019Y-726978D01*
X4551019Y-726978D02*
X4541496Y-707930D01*
X4541496Y-707930D02*
X4541496Y-536502D01*
X4722448Y-726978D02*
X4703400Y-736502D01*
X4703400Y-736502D02*
X4665305Y-736502D01*
X4665305Y-736502D02*
X4646257Y-726978D01*
X4646257Y-726978D02*
X4636734Y-707930D01*
X4636734Y-707930D02*
X4636734Y-631740D01*
X4636734Y-631740D02*
X4646257Y-612692D01*
X4646257Y-612692D02*
X4665305Y-603168D01*
X4665305Y-603168D02*
X4703400Y-603168D01*
X4703400Y-603168D02*
X4722448Y-612692D01*
X4722448Y-612692D02*
X4731972Y-631740D01*
X4731972Y-631740D02*
X4731972Y-650788D01*
X4731972Y-650788D02*
X4636734Y-669835D01*
X4808162Y-726978D02*
X4827210Y-736502D01*
X4827210Y-736502D02*
X4865305Y-736502D01*
X4865305Y-736502D02*
X4884353Y-726978D01*
X4884353Y-726978D02*
X4893877Y-707930D01*
X4893877Y-707930D02*
X4893877Y-698407D01*
X4893877Y-698407D02*
X4884353Y-679359D01*
X4884353Y-679359D02*
X4865305Y-669835D01*
X4865305Y-669835D02*
X4836734Y-669835D01*
X4836734Y-669835D02*
X4817686Y-660311D01*
X4817686Y-660311D02*
X4808162Y-641264D01*
X4808162Y-641264D02*
X4808162Y-631740D01*
X4808162Y-631740D02*
X4817686Y-612692D01*
X4817686Y-612692D02*
X4836734Y-603168D01*
X4836734Y-603168D02*
X4865305Y-603168D01*
X4865305Y-603168D02*
X4884353Y-612692D01*
X4960543Y-812692D02*
X4970067Y-803168D01*
X4970067Y-803168D02*
X4989115Y-774597D01*
X4989115Y-774597D02*
X4998638Y-755549D01*
X4998638Y-755549D02*
X5008162Y-726978D01*
X5008162Y-726978D02*
X5017686Y-679359D01*
X5017686Y-679359D02*
X5017686Y-641264D01*
X5017686Y-641264D02*
X5008162Y-593645D01*
X5008162Y-593645D02*
X4998638Y-565073D01*
X4998638Y-565073D02*
X4989115Y-546026D01*
X4989115Y-546026D02*
X4970067Y-517454D01*
X4970067Y-517454D02*
X4960543Y-507930D01*
D13*
X-4996Y-909018D02*
G75*
G03*
X-4996Y-909018I-15000J0D01*
G01*
D11*
X293876Y-800502D02*
X312924Y-800502D01*
X312924Y-800502D02*
X331971Y-810026D01*
X331971Y-810026D02*
X341495Y-819549D01*
X341495Y-819549D02*
X351019Y-838597D01*
X351019Y-838597D02*
X360543Y-876692D01*
X360543Y-876692D02*
X360543Y-924311D01*
X360543Y-924311D02*
X351019Y-962406D01*
X351019Y-962406D02*
X341495Y-981454D01*
X341495Y-981454D02*
X331971Y-990978D01*
X331971Y-990978D02*
X312924Y-1000502D01*
X312924Y-1000502D02*
X293876Y-1000502D01*
X293876Y-1000502D02*
X274828Y-990978D01*
X274828Y-990978D02*
X265305Y-981454D01*
X265305Y-981454D02*
X255781Y-962406D01*
X255781Y-962406D02*
X246257Y-924311D01*
X246257Y-924311D02*
X246257Y-876692D01*
X246257Y-876692D02*
X255781Y-838597D01*
X255781Y-838597D02*
X265305Y-819549D01*
X265305Y-819549D02*
X274828Y-810026D01*
X274828Y-810026D02*
X293876Y-800502D01*
X446257Y-981454D02*
X455781Y-990978D01*
X455781Y-990978D02*
X446257Y-1000502D01*
X446257Y-1000502D02*
X436733Y-990978D01*
X436733Y-990978D02*
X446257Y-981454D01*
X446257Y-981454D02*
X446257Y-1000502D01*
X522447Y-800502D02*
X646257Y-800502D01*
X646257Y-800502D02*
X579590Y-876692D01*
X579590Y-876692D02*
X608162Y-876692D01*
X608162Y-876692D02*
X627209Y-886216D01*
X627209Y-886216D02*
X636733Y-895740D01*
X636733Y-895740D02*
X646257Y-914787D01*
X646257Y-914787D02*
X646257Y-962406D01*
X646257Y-962406D02*
X636733Y-981454D01*
X636733Y-981454D02*
X627209Y-990978D01*
X627209Y-990978D02*
X608162Y-1000502D01*
X608162Y-1000502D02*
X551019Y-1000502D01*
X551019Y-1000502D02*
X531971Y-990978D01*
X531971Y-990978D02*
X522447Y-981454D01*
X770066Y-800502D02*
X789114Y-800502D01*
X789114Y-800502D02*
X808162Y-810026D01*
X808162Y-810026D02*
X817686Y-819549D01*
X817686Y-819549D02*
X827209Y-838597D01*
X827209Y-838597D02*
X836733Y-876692D01*
X836733Y-876692D02*
X836733Y-924311D01*
X836733Y-924311D02*
X827209Y-962406D01*
X827209Y-962406D02*
X817686Y-981454D01*
X817686Y-981454D02*
X808162Y-990978D01*
X808162Y-990978D02*
X789114Y-1000502D01*
X789114Y-1000502D02*
X770066Y-1000502D01*
X770066Y-1000502D02*
X751019Y-990978D01*
X751019Y-990978D02*
X741495Y-981454D01*
X741495Y-981454D02*
X731971Y-962406D01*
X731971Y-962406D02*
X722447Y-924311D01*
X722447Y-924311D02*
X722447Y-876692D01*
X722447Y-876692D02*
X731971Y-838597D01*
X731971Y-838597D02*
X741495Y-819549D01*
X741495Y-819549D02*
X751019Y-810026D01*
X751019Y-810026D02*
X770066Y-800502D01*
X960543Y-800502D02*
X979590Y-800502D01*
X979590Y-800502D02*
X998638Y-810026D01*
X998638Y-810026D02*
X1008162Y-819549D01*
X1008162Y-819549D02*
X1017686Y-838597D01*
X1017686Y-838597D02*
X1027209Y-876692D01*
X1027209Y-876692D02*
X1027209Y-924311D01*
X1027209Y-924311D02*
X1017686Y-962406D01*
X1017686Y-962406D02*
X1008162Y-981454D01*
X1008162Y-981454D02*
X998638Y-990978D01*
X998638Y-990978D02*
X979590Y-1000502D01*
X979590Y-1000502D02*
X960543Y-1000502D01*
X960543Y-1000502D02*
X941495Y-990978D01*
X941495Y-990978D02*
X931971Y-981454D01*
X931971Y-981454D02*
X922447Y-962406D01*
X922447Y-962406D02*
X912924Y-924311D01*
X912924Y-924311D02*
X912924Y-876692D01*
X912924Y-876692D02*
X922447Y-838597D01*
X922447Y-838597D02*
X931971Y-819549D01*
X931971Y-819549D02*
X941495Y-810026D01*
X941495Y-810026D02*
X960543Y-800502D01*
X1112924Y-1000502D02*
X1112924Y-867168D01*
X1112924Y-886216D02*
X1122448Y-876692D01*
X1122448Y-876692D02*
X1141495Y-867168D01*
X1141495Y-867168D02*
X1170067Y-867168D01*
X1170067Y-867168D02*
X1189114Y-876692D01*
X1189114Y-876692D02*
X1198638Y-895740D01*
X1198638Y-895740D02*
X1198638Y-1000502D01*
X1198638Y-895740D02*
X1208162Y-876692D01*
X1208162Y-876692D02*
X1227209Y-867168D01*
X1227209Y-867168D02*
X1255781Y-867168D01*
X1255781Y-867168D02*
X1274829Y-876692D01*
X1274829Y-876692D02*
X1284352Y-895740D01*
X1284352Y-895740D02*
X1284352Y-1000502D01*
X1379590Y-1000502D02*
X1379590Y-867168D01*
X1379590Y-886216D02*
X1389114Y-876692D01*
X1389114Y-876692D02*
X1408162Y-867168D01*
X1408162Y-867168D02*
X1436733Y-867168D01*
X1436733Y-867168D02*
X1455781Y-876692D01*
X1455781Y-876692D02*
X1465305Y-895740D01*
X1465305Y-895740D02*
X1465305Y-1000502D01*
X1465305Y-895740D02*
X1474828Y-876692D01*
X1474828Y-876692D02*
X1493876Y-867168D01*
X1493876Y-867168D02*
X1522447Y-867168D01*
X1522447Y-867168D02*
X1541495Y-876692D01*
X1541495Y-876692D02*
X1551019Y-895740D01*
X1551019Y-895740D02*
X1551019Y-1000502D01*
X1941495Y-790978D02*
X1770067Y-1048121D01*
X2198638Y-800502D02*
X2217686Y-800502D01*
X2217686Y-800502D02*
X2236733Y-810026D01*
X2236733Y-810026D02*
X2246257Y-819549D01*
X2246257Y-819549D02*
X2255781Y-838597D01*
X2255781Y-838597D02*
X2265305Y-876692D01*
X2265305Y-876692D02*
X2265305Y-924311D01*
X2265305Y-924311D02*
X2255781Y-962406D01*
X2255781Y-962406D02*
X2246257Y-981454D01*
X2246257Y-981454D02*
X2236733Y-990978D01*
X2236733Y-990978D02*
X2217686Y-1000502D01*
X2217686Y-1000502D02*
X2198638Y-1000502D01*
X2198638Y-1000502D02*
X2179591Y-990978D01*
X2179591Y-990978D02*
X2170067Y-981454D01*
X2170067Y-981454D02*
X2160543Y-962406D01*
X2160543Y-962406D02*
X2151019Y-924311D01*
X2151019Y-924311D02*
X2151019Y-876692D01*
X2151019Y-876692D02*
X2160543Y-838597D01*
X2160543Y-838597D02*
X2170067Y-819549D01*
X2170067Y-819549D02*
X2179591Y-810026D01*
X2179591Y-810026D02*
X2198638Y-800502D01*
X2351019Y-981454D02*
X2360543Y-990978D01*
X2360543Y-990978D02*
X2351019Y-1000502D01*
X2351019Y-1000502D02*
X2341495Y-990978D01*
X2341495Y-990978D02*
X2351019Y-981454D01*
X2351019Y-981454D02*
X2351019Y-1000502D01*
X2484352Y-800502D02*
X2503400Y-800502D01*
X2503400Y-800502D02*
X2522448Y-810026D01*
X2522448Y-810026D02*
X2531972Y-819549D01*
X2531972Y-819549D02*
X2541495Y-838597D01*
X2541495Y-838597D02*
X2551019Y-876692D01*
X2551019Y-876692D02*
X2551019Y-924311D01*
X2551019Y-924311D02*
X2541495Y-962406D01*
X2541495Y-962406D02*
X2531972Y-981454D01*
X2531972Y-981454D02*
X2522448Y-990978D01*
X2522448Y-990978D02*
X2503400Y-1000502D01*
X2503400Y-1000502D02*
X2484352Y-1000502D01*
X2484352Y-1000502D02*
X2465305Y-990978D01*
X2465305Y-990978D02*
X2455781Y-981454D01*
X2455781Y-981454D02*
X2446257Y-962406D01*
X2446257Y-962406D02*
X2436733Y-924311D01*
X2436733Y-924311D02*
X2436733Y-876692D01*
X2436733Y-876692D02*
X2446257Y-838597D01*
X2446257Y-838597D02*
X2455781Y-819549D01*
X2455781Y-819549D02*
X2465305Y-810026D01*
X2465305Y-810026D02*
X2484352Y-800502D01*
X2741495Y-1000502D02*
X2627210Y-1000502D01*
X2684352Y-1000502D02*
X2684352Y-800502D01*
X2684352Y-800502D02*
X2665305Y-829073D01*
X2665305Y-829073D02*
X2646257Y-848121D01*
X2646257Y-848121D02*
X2627210Y-857645D01*
X2931971Y-1000502D02*
X2817686Y-1000502D01*
X2874829Y-1000502D02*
X2874829Y-800502D01*
X2874829Y-800502D02*
X2855781Y-829073D01*
X2855781Y-829073D02*
X2836733Y-848121D01*
X2836733Y-848121D02*
X2817686Y-857645D01*
X3046257Y-886216D02*
X3027210Y-876692D01*
X3027210Y-876692D02*
X3017686Y-867168D01*
X3017686Y-867168D02*
X3008162Y-848121D01*
X3008162Y-848121D02*
X3008162Y-838597D01*
X3008162Y-838597D02*
X3017686Y-819549D01*
X3017686Y-819549D02*
X3027210Y-810026D01*
X3027210Y-810026D02*
X3046257Y-800502D01*
X3046257Y-800502D02*
X3084352Y-800502D01*
X3084352Y-800502D02*
X3103400Y-810026D01*
X3103400Y-810026D02*
X3112924Y-819549D01*
X3112924Y-819549D02*
X3122448Y-838597D01*
X3122448Y-838597D02*
X3122448Y-848121D01*
X3122448Y-848121D02*
X3112924Y-867168D01*
X3112924Y-867168D02*
X3103400Y-876692D01*
X3103400Y-876692D02*
X3084352Y-886216D01*
X3084352Y-886216D02*
X3046257Y-886216D01*
X3046257Y-886216D02*
X3027210Y-895740D01*
X3027210Y-895740D02*
X3017686Y-905264D01*
X3017686Y-905264D02*
X3008162Y-924311D01*
X3008162Y-924311D02*
X3008162Y-962406D01*
X3008162Y-962406D02*
X3017686Y-981454D01*
X3017686Y-981454D02*
X3027210Y-990978D01*
X3027210Y-990978D02*
X3046257Y-1000502D01*
X3046257Y-1000502D02*
X3084352Y-1000502D01*
X3084352Y-1000502D02*
X3103400Y-990978D01*
X3103400Y-990978D02*
X3112924Y-981454D01*
X3112924Y-981454D02*
X3122448Y-962406D01*
X3122448Y-962406D02*
X3122448Y-924311D01*
X3122448Y-924311D02*
X3112924Y-905264D01*
X3112924Y-905264D02*
X3103400Y-895740D01*
X3103400Y-895740D02*
X3084352Y-886216D01*
X3198638Y-800502D02*
X3198638Y-838597D01*
X3274829Y-800502D02*
X3274829Y-838597D01*
X3570067Y-1076692D02*
X3560543Y-1067168D01*
X3560543Y-1067168D02*
X3541495Y-1038597D01*
X3541495Y-1038597D02*
X3531972Y-1019549D01*
X3531972Y-1019549D02*
X3522448Y-990978D01*
X3522448Y-990978D02*
X3512924Y-943359D01*
X3512924Y-943359D02*
X3512924Y-905264D01*
X3512924Y-905264D02*
X3522448Y-857645D01*
X3522448Y-857645D02*
X3531972Y-829073D01*
X3531972Y-829073D02*
X3541495Y-810026D01*
X3541495Y-810026D02*
X3560543Y-781454D01*
X3560543Y-781454D02*
X3570067Y-771930D01*
X3751019Y-1000502D02*
X3636733Y-1000502D01*
X3693876Y-1000502D02*
X3693876Y-800502D01*
X3693876Y-800502D02*
X3674829Y-829073D01*
X3674829Y-829073D02*
X3655781Y-848121D01*
X3655781Y-848121D02*
X3636733Y-857645D01*
X3827210Y-819549D02*
X3836733Y-810026D01*
X3836733Y-810026D02*
X3855781Y-800502D01*
X3855781Y-800502D02*
X3903400Y-800502D01*
X3903400Y-800502D02*
X3922448Y-810026D01*
X3922448Y-810026D02*
X3931972Y-819549D01*
X3931972Y-819549D02*
X3941495Y-838597D01*
X3941495Y-838597D02*
X3941495Y-857645D01*
X3941495Y-857645D02*
X3931972Y-886216D01*
X3931972Y-886216D02*
X3817686Y-1000502D01*
X3817686Y-1000502D02*
X3941495Y-1000502D01*
X4179591Y-1000502D02*
X4179591Y-800502D01*
X4265305Y-1000502D02*
X4265305Y-895740D01*
X4265305Y-895740D02*
X4255781Y-876692D01*
X4255781Y-876692D02*
X4236734Y-867168D01*
X4236734Y-867168D02*
X4208162Y-867168D01*
X4208162Y-867168D02*
X4189114Y-876692D01*
X4189114Y-876692D02*
X4179591Y-886216D01*
X4389115Y-1000502D02*
X4370067Y-990978D01*
X4370067Y-990978D02*
X4360543Y-981454D01*
X4360543Y-981454D02*
X4351019Y-962406D01*
X4351019Y-962406D02*
X4351019Y-905264D01*
X4351019Y-905264D02*
X4360543Y-886216D01*
X4360543Y-886216D02*
X4370067Y-876692D01*
X4370067Y-876692D02*
X4389115Y-867168D01*
X4389115Y-867168D02*
X4417686Y-867168D01*
X4417686Y-867168D02*
X4436734Y-876692D01*
X4436734Y-876692D02*
X4446257Y-886216D01*
X4446257Y-886216D02*
X4455781Y-905264D01*
X4455781Y-905264D02*
X4455781Y-962406D01*
X4455781Y-962406D02*
X4446257Y-981454D01*
X4446257Y-981454D02*
X4436734Y-990978D01*
X4436734Y-990978D02*
X4417686Y-1000502D01*
X4417686Y-1000502D02*
X4389115Y-1000502D01*
X4570067Y-1000502D02*
X4551019Y-990978D01*
X4551019Y-990978D02*
X4541496Y-971930D01*
X4541496Y-971930D02*
X4541496Y-800502D01*
X4722448Y-990978D02*
X4703400Y-1000502D01*
X4703400Y-1000502D02*
X4665305Y-1000502D01*
X4665305Y-1000502D02*
X4646257Y-990978D01*
X4646257Y-990978D02*
X4636734Y-971930D01*
X4636734Y-971930D02*
X4636734Y-895740D01*
X4636734Y-895740D02*
X4646257Y-876692D01*
X4646257Y-876692D02*
X4665305Y-867168D01*
X4665305Y-867168D02*
X4703400Y-867168D01*
X4703400Y-867168D02*
X4722448Y-876692D01*
X4722448Y-876692D02*
X4731972Y-895740D01*
X4731972Y-895740D02*
X4731972Y-914787D01*
X4731972Y-914787D02*
X4636734Y-933835D01*
X4808162Y-990978D02*
X4827210Y-1000502D01*
X4827210Y-1000502D02*
X4865305Y-1000502D01*
X4865305Y-1000502D02*
X4884353Y-990978D01*
X4884353Y-990978D02*
X4893877Y-971930D01*
X4893877Y-971930D02*
X4893877Y-962406D01*
X4893877Y-962406D02*
X4884353Y-943359D01*
X4884353Y-943359D02*
X4865305Y-933835D01*
X4865305Y-933835D02*
X4836734Y-933835D01*
X4836734Y-933835D02*
X4817686Y-924311D01*
X4817686Y-924311D02*
X4808162Y-905264D01*
X4808162Y-905264D02*
X4808162Y-895740D01*
X4808162Y-895740D02*
X4817686Y-876692D01*
X4817686Y-876692D02*
X4836734Y-867168D01*
X4836734Y-867168D02*
X4865305Y-867168D01*
X4865305Y-867168D02*
X4884353Y-876692D01*
X4960543Y-1076692D02*
X4970067Y-1067168D01*
X4970067Y-1067168D02*
X4989115Y-1038597D01*
X4989115Y-1038597D02*
X4998638Y-1019549D01*
X4998638Y-1019549D02*
X5008162Y-990978D01*
X5008162Y-990978D02*
X5017686Y-943359D01*
X5017686Y-943359D02*
X5017686Y-905264D01*
X5017686Y-905264D02*
X5008162Y-857645D01*
X5008162Y-857645D02*
X4998638Y-829073D01*
X4998638Y-829073D02*
X4989115Y-810026D01*
X4989115Y-810026D02*
X4970067Y-781454D01*
X4970067Y-781454D02*
X4960543Y-771930D01*
D14*
X-24996Y-1153018D02*
X-24996Y-1193018D01*
X-44996Y-1173018D02*
X-4996Y-1173018D01*
D11*
X293876Y-1064502D02*
X312924Y-1064502D01*
X312924Y-1064502D02*
X331971Y-1074026D01*
X331971Y-1074026D02*
X341495Y-1083549D01*
X341495Y-1083549D02*
X351019Y-1102597D01*
X351019Y-1102597D02*
X360543Y-1140692D01*
X360543Y-1140692D02*
X360543Y-1188311D01*
X360543Y-1188311D02*
X351019Y-1226407D01*
X351019Y-1226407D02*
X341495Y-1245454D01*
X341495Y-1245454D02*
X331971Y-1254978D01*
X331971Y-1254978D02*
X312924Y-1264502D01*
X312924Y-1264502D02*
X293876Y-1264502D01*
X293876Y-1264502D02*
X274828Y-1254978D01*
X274828Y-1254978D02*
X265305Y-1245454D01*
X265305Y-1245454D02*
X255781Y-1226407D01*
X255781Y-1226407D02*
X246257Y-1188311D01*
X246257Y-1188311D02*
X246257Y-1140692D01*
X246257Y-1140692D02*
X255781Y-1102597D01*
X255781Y-1102597D02*
X265305Y-1083549D01*
X265305Y-1083549D02*
X274828Y-1074026D01*
X274828Y-1074026D02*
X293876Y-1064502D01*
X446257Y-1245454D02*
X455781Y-1254978D01*
X455781Y-1254978D02*
X446257Y-1264502D01*
X446257Y-1264502D02*
X436733Y-1254978D01*
X436733Y-1254978D02*
X446257Y-1245454D01*
X446257Y-1245454D02*
X446257Y-1264502D01*
X627209Y-1131168D02*
X627209Y-1264502D01*
X579590Y-1054978D02*
X531971Y-1197835D01*
X531971Y-1197835D02*
X655781Y-1197835D01*
X770066Y-1064502D02*
X789114Y-1064502D01*
X789114Y-1064502D02*
X808162Y-1074026D01*
X808162Y-1074026D02*
X817686Y-1083549D01*
X817686Y-1083549D02*
X827209Y-1102597D01*
X827209Y-1102597D02*
X836733Y-1140692D01*
X836733Y-1140692D02*
X836733Y-1188311D01*
X836733Y-1188311D02*
X827209Y-1226407D01*
X827209Y-1226407D02*
X817686Y-1245454D01*
X817686Y-1245454D02*
X808162Y-1254978D01*
X808162Y-1254978D02*
X789114Y-1264502D01*
X789114Y-1264502D02*
X770066Y-1264502D01*
X770066Y-1264502D02*
X751019Y-1254978D01*
X751019Y-1254978D02*
X741495Y-1245454D01*
X741495Y-1245454D02*
X731971Y-1226407D01*
X731971Y-1226407D02*
X722447Y-1188311D01*
X722447Y-1188311D02*
X722447Y-1140692D01*
X722447Y-1140692D02*
X731971Y-1102597D01*
X731971Y-1102597D02*
X741495Y-1083549D01*
X741495Y-1083549D02*
X751019Y-1074026D01*
X751019Y-1074026D02*
X770066Y-1064502D01*
X960543Y-1064502D02*
X979590Y-1064502D01*
X979590Y-1064502D02*
X998638Y-1074026D01*
X998638Y-1074026D02*
X1008162Y-1083549D01*
X1008162Y-1083549D02*
X1017686Y-1102597D01*
X1017686Y-1102597D02*
X1027209Y-1140692D01*
X1027209Y-1140692D02*
X1027209Y-1188311D01*
X1027209Y-1188311D02*
X1017686Y-1226407D01*
X1017686Y-1226407D02*
X1008162Y-1245454D01*
X1008162Y-1245454D02*
X998638Y-1254978D01*
X998638Y-1254978D02*
X979590Y-1264502D01*
X979590Y-1264502D02*
X960543Y-1264502D01*
X960543Y-1264502D02*
X941495Y-1254978D01*
X941495Y-1254978D02*
X931971Y-1245454D01*
X931971Y-1245454D02*
X922447Y-1226407D01*
X922447Y-1226407D02*
X912924Y-1188311D01*
X912924Y-1188311D02*
X912924Y-1140692D01*
X912924Y-1140692D02*
X922447Y-1102597D01*
X922447Y-1102597D02*
X931971Y-1083549D01*
X931971Y-1083549D02*
X941495Y-1074026D01*
X941495Y-1074026D02*
X960543Y-1064502D01*
X1112924Y-1264502D02*
X1112924Y-1131168D01*
X1112924Y-1150216D02*
X1122448Y-1140692D01*
X1122448Y-1140692D02*
X1141495Y-1131168D01*
X1141495Y-1131168D02*
X1170067Y-1131168D01*
X1170067Y-1131168D02*
X1189114Y-1140692D01*
X1189114Y-1140692D02*
X1198638Y-1159740D01*
X1198638Y-1159740D02*
X1198638Y-1264502D01*
X1198638Y-1159740D02*
X1208162Y-1140692D01*
X1208162Y-1140692D02*
X1227209Y-1131168D01*
X1227209Y-1131168D02*
X1255781Y-1131168D01*
X1255781Y-1131168D02*
X1274829Y-1140692D01*
X1274829Y-1140692D02*
X1284352Y-1159740D01*
X1284352Y-1159740D02*
X1284352Y-1264502D01*
X1379590Y-1264502D02*
X1379590Y-1131168D01*
X1379590Y-1150216D02*
X1389114Y-1140692D01*
X1389114Y-1140692D02*
X1408162Y-1131168D01*
X1408162Y-1131168D02*
X1436733Y-1131168D01*
X1436733Y-1131168D02*
X1455781Y-1140692D01*
X1455781Y-1140692D02*
X1465305Y-1159740D01*
X1465305Y-1159740D02*
X1465305Y-1264502D01*
X1465305Y-1159740D02*
X1474828Y-1140692D01*
X1474828Y-1140692D02*
X1493876Y-1131168D01*
X1493876Y-1131168D02*
X1522447Y-1131168D01*
X1522447Y-1131168D02*
X1541495Y-1140692D01*
X1541495Y-1140692D02*
X1551019Y-1159740D01*
X1551019Y-1159740D02*
X1551019Y-1264502D01*
X1941495Y-1054978D02*
X1770067Y-1312121D01*
X2198638Y-1064502D02*
X2217686Y-1064502D01*
X2217686Y-1064502D02*
X2236733Y-1074026D01*
X2236733Y-1074026D02*
X2246257Y-1083549D01*
X2246257Y-1083549D02*
X2255781Y-1102597D01*
X2255781Y-1102597D02*
X2265305Y-1140692D01*
X2265305Y-1140692D02*
X2265305Y-1188311D01*
X2265305Y-1188311D02*
X2255781Y-1226407D01*
X2255781Y-1226407D02*
X2246257Y-1245454D01*
X2246257Y-1245454D02*
X2236733Y-1254978D01*
X2236733Y-1254978D02*
X2217686Y-1264502D01*
X2217686Y-1264502D02*
X2198638Y-1264502D01*
X2198638Y-1264502D02*
X2179591Y-1254978D01*
X2179591Y-1254978D02*
X2170067Y-1245454D01*
X2170067Y-1245454D02*
X2160543Y-1226407D01*
X2160543Y-1226407D02*
X2151019Y-1188311D01*
X2151019Y-1188311D02*
X2151019Y-1140692D01*
X2151019Y-1140692D02*
X2160543Y-1102597D01*
X2160543Y-1102597D02*
X2170067Y-1083549D01*
X2170067Y-1083549D02*
X2179591Y-1074026D01*
X2179591Y-1074026D02*
X2198638Y-1064502D01*
X2351019Y-1245454D02*
X2360543Y-1254978D01*
X2360543Y-1254978D02*
X2351019Y-1264502D01*
X2351019Y-1264502D02*
X2341495Y-1254978D01*
X2341495Y-1254978D02*
X2351019Y-1245454D01*
X2351019Y-1245454D02*
X2351019Y-1264502D01*
X2484352Y-1064502D02*
X2503400Y-1064502D01*
X2503400Y-1064502D02*
X2522448Y-1074026D01*
X2522448Y-1074026D02*
X2531972Y-1083549D01*
X2531972Y-1083549D02*
X2541495Y-1102597D01*
X2541495Y-1102597D02*
X2551019Y-1140692D01*
X2551019Y-1140692D02*
X2551019Y-1188311D01*
X2551019Y-1188311D02*
X2541495Y-1226407D01*
X2541495Y-1226407D02*
X2531972Y-1245454D01*
X2531972Y-1245454D02*
X2522448Y-1254978D01*
X2522448Y-1254978D02*
X2503400Y-1264502D01*
X2503400Y-1264502D02*
X2484352Y-1264502D01*
X2484352Y-1264502D02*
X2465305Y-1254978D01*
X2465305Y-1254978D02*
X2455781Y-1245454D01*
X2455781Y-1245454D02*
X2446257Y-1226407D01*
X2446257Y-1226407D02*
X2436733Y-1188311D01*
X2436733Y-1188311D02*
X2436733Y-1140692D01*
X2436733Y-1140692D02*
X2446257Y-1102597D01*
X2446257Y-1102597D02*
X2455781Y-1083549D01*
X2455781Y-1083549D02*
X2465305Y-1074026D01*
X2465305Y-1074026D02*
X2484352Y-1064502D01*
X2741495Y-1264502D02*
X2627210Y-1264502D01*
X2684352Y-1264502D02*
X2684352Y-1064502D01*
X2684352Y-1064502D02*
X2665305Y-1093073D01*
X2665305Y-1093073D02*
X2646257Y-1112121D01*
X2646257Y-1112121D02*
X2627210Y-1121645D01*
X2922448Y-1064502D02*
X2827210Y-1064502D01*
X2827210Y-1064502D02*
X2817686Y-1159740D01*
X2817686Y-1159740D02*
X2827210Y-1150216D01*
X2827210Y-1150216D02*
X2846257Y-1140692D01*
X2846257Y-1140692D02*
X2893876Y-1140692D01*
X2893876Y-1140692D02*
X2912924Y-1150216D01*
X2912924Y-1150216D02*
X2922448Y-1159740D01*
X2922448Y-1159740D02*
X2931971Y-1178788D01*
X2931971Y-1178788D02*
X2931971Y-1226407D01*
X2931971Y-1226407D02*
X2922448Y-1245454D01*
X2922448Y-1245454D02*
X2912924Y-1254978D01*
X2912924Y-1254978D02*
X2893876Y-1264502D01*
X2893876Y-1264502D02*
X2846257Y-1264502D01*
X2846257Y-1264502D02*
X2827210Y-1254978D01*
X2827210Y-1254978D02*
X2817686Y-1245454D01*
X2998638Y-1064502D02*
X3131971Y-1064502D01*
X3131971Y-1064502D02*
X3046257Y-1264502D01*
X3198638Y-1064502D02*
X3198638Y-1102597D01*
X3274829Y-1064502D02*
X3274829Y-1102597D01*
X3570067Y-1340692D02*
X3560543Y-1331168D01*
X3560543Y-1331168D02*
X3541495Y-1302597D01*
X3541495Y-1302597D02*
X3531972Y-1283549D01*
X3531972Y-1283549D02*
X3522448Y-1254978D01*
X3522448Y-1254978D02*
X3512924Y-1207359D01*
X3512924Y-1207359D02*
X3512924Y-1169264D01*
X3512924Y-1169264D02*
X3522448Y-1121645D01*
X3522448Y-1121645D02*
X3531972Y-1093073D01*
X3531972Y-1093073D02*
X3541495Y-1074026D01*
X3541495Y-1074026D02*
X3560543Y-1045454D01*
X3560543Y-1045454D02*
X3570067Y-1035930D01*
X3636733Y-1083549D02*
X3646257Y-1074026D01*
X3646257Y-1074026D02*
X3665305Y-1064502D01*
X3665305Y-1064502D02*
X3712924Y-1064502D01*
X3712924Y-1064502D02*
X3731972Y-1074026D01*
X3731972Y-1074026D02*
X3741495Y-1083549D01*
X3741495Y-1083549D02*
X3751019Y-1102597D01*
X3751019Y-1102597D02*
X3751019Y-1121645D01*
X3751019Y-1121645D02*
X3741495Y-1150216D01*
X3741495Y-1150216D02*
X3627210Y-1264502D01*
X3627210Y-1264502D02*
X3751019Y-1264502D01*
X3922448Y-1131168D02*
X3922448Y-1264502D01*
X3874829Y-1054978D02*
X3827210Y-1197835D01*
X3827210Y-1197835D02*
X3951019Y-1197835D01*
X4179591Y-1264502D02*
X4179591Y-1064502D01*
X4265305Y-1264502D02*
X4265305Y-1159740D01*
X4265305Y-1159740D02*
X4255781Y-1140692D01*
X4255781Y-1140692D02*
X4236734Y-1131168D01*
X4236734Y-1131168D02*
X4208162Y-1131168D01*
X4208162Y-1131168D02*
X4189114Y-1140692D01*
X4189114Y-1140692D02*
X4179591Y-1150216D01*
X4389115Y-1264502D02*
X4370067Y-1254978D01*
X4370067Y-1254978D02*
X4360543Y-1245454D01*
X4360543Y-1245454D02*
X4351019Y-1226407D01*
X4351019Y-1226407D02*
X4351019Y-1169264D01*
X4351019Y-1169264D02*
X4360543Y-1150216D01*
X4360543Y-1150216D02*
X4370067Y-1140692D01*
X4370067Y-1140692D02*
X4389115Y-1131168D01*
X4389115Y-1131168D02*
X4417686Y-1131168D01*
X4417686Y-1131168D02*
X4436734Y-1140692D01*
X4436734Y-1140692D02*
X4446257Y-1150216D01*
X4446257Y-1150216D02*
X4455781Y-1169264D01*
X4455781Y-1169264D02*
X4455781Y-1226407D01*
X4455781Y-1226407D02*
X4446257Y-1245454D01*
X4446257Y-1245454D02*
X4436734Y-1254978D01*
X4436734Y-1254978D02*
X4417686Y-1264502D01*
X4417686Y-1264502D02*
X4389115Y-1264502D01*
X4570067Y-1264502D02*
X4551019Y-1254978D01*
X4551019Y-1254978D02*
X4541496Y-1235930D01*
X4541496Y-1235930D02*
X4541496Y-1064502D01*
X4722448Y-1254978D02*
X4703400Y-1264502D01*
X4703400Y-1264502D02*
X4665305Y-1264502D01*
X4665305Y-1264502D02*
X4646257Y-1254978D01*
X4646257Y-1254978D02*
X4636734Y-1235930D01*
X4636734Y-1235930D02*
X4636734Y-1159740D01*
X4636734Y-1159740D02*
X4646257Y-1140692D01*
X4646257Y-1140692D02*
X4665305Y-1131168D01*
X4665305Y-1131168D02*
X4703400Y-1131168D01*
X4703400Y-1131168D02*
X4722448Y-1140692D01*
X4722448Y-1140692D02*
X4731972Y-1159740D01*
X4731972Y-1159740D02*
X4731972Y-1178788D01*
X4731972Y-1178788D02*
X4636734Y-1197835D01*
X4808162Y-1254978D02*
X4827210Y-1264502D01*
X4827210Y-1264502D02*
X4865305Y-1264502D01*
X4865305Y-1264502D02*
X4884353Y-1254978D01*
X4884353Y-1254978D02*
X4893877Y-1235930D01*
X4893877Y-1235930D02*
X4893877Y-1226407D01*
X4893877Y-1226407D02*
X4884353Y-1207359D01*
X4884353Y-1207359D02*
X4865305Y-1197835D01*
X4865305Y-1197835D02*
X4836734Y-1197835D01*
X4836734Y-1197835D02*
X4817686Y-1188311D01*
X4817686Y-1188311D02*
X4808162Y-1169264D01*
X4808162Y-1169264D02*
X4808162Y-1159740D01*
X4808162Y-1159740D02*
X4817686Y-1140692D01*
X4817686Y-1140692D02*
X4836734Y-1131168D01*
X4836734Y-1131168D02*
X4865305Y-1131168D01*
X4865305Y-1131168D02*
X4884353Y-1140692D01*
X4960543Y-1340692D02*
X4970067Y-1331168D01*
X4970067Y-1331168D02*
X4989115Y-1302597D01*
X4989115Y-1302597D02*
X4998638Y-1283549D01*
X4998638Y-1283549D02*
X5008162Y-1254978D01*
X5008162Y-1254978D02*
X5017686Y-1207359D01*
X5017686Y-1207359D02*
X5017686Y-1169264D01*
X5017686Y-1169264D02*
X5008162Y-1121645D01*
X5008162Y-1121645D02*
X4998638Y-1093073D01*
X4998638Y-1093073D02*
X4989115Y-1074026D01*
X4989115Y-1074026D02*
X4970067Y-1045454D01*
X4970067Y-1045454D02*
X4960543Y-1035930D01*
D15*
X-12318Y-1454696D02*
X-12318Y-1419340D01*
X-47674Y-1419340D01*
X-47674Y-1454696D01*
X-12318Y-1454696D01*
D11*
X293876Y-1328502D02*
X312924Y-1328502D01*
X312924Y-1328502D02*
X331971Y-1338026D01*
X331971Y-1338026D02*
X341495Y-1347549D01*
X341495Y-1347549D02*
X351019Y-1366597D01*
X351019Y-1366597D02*
X360543Y-1404692D01*
X360543Y-1404692D02*
X360543Y-1452311D01*
X360543Y-1452311D02*
X351019Y-1490406D01*
X351019Y-1490406D02*
X341495Y-1509454D01*
X341495Y-1509454D02*
X331971Y-1518978D01*
X331971Y-1518978D02*
X312924Y-1528502D01*
X312924Y-1528502D02*
X293876Y-1528502D01*
X293876Y-1528502D02*
X274828Y-1518978D01*
X274828Y-1518978D02*
X265305Y-1509454D01*
X265305Y-1509454D02*
X255781Y-1490406D01*
X255781Y-1490406D02*
X246257Y-1452311D01*
X246257Y-1452311D02*
X246257Y-1404692D01*
X246257Y-1404692D02*
X255781Y-1366597D01*
X255781Y-1366597D02*
X265305Y-1347549D01*
X265305Y-1347549D02*
X274828Y-1338026D01*
X274828Y-1338026D02*
X293876Y-1328502D01*
X446257Y-1509454D02*
X455781Y-1518978D01*
X455781Y-1518978D02*
X446257Y-1528502D01*
X446257Y-1528502D02*
X436733Y-1518978D01*
X436733Y-1518978D02*
X446257Y-1509454D01*
X446257Y-1509454D02*
X446257Y-1528502D01*
X636733Y-1328502D02*
X541495Y-1328502D01*
X541495Y-1328502D02*
X531971Y-1423740D01*
X531971Y-1423740D02*
X541495Y-1414216D01*
X541495Y-1414216D02*
X560543Y-1404692D01*
X560543Y-1404692D02*
X608162Y-1404692D01*
X608162Y-1404692D02*
X627209Y-1414216D01*
X627209Y-1414216D02*
X636733Y-1423740D01*
X636733Y-1423740D02*
X646257Y-1442787D01*
X646257Y-1442787D02*
X646257Y-1490406D01*
X646257Y-1490406D02*
X636733Y-1509454D01*
X636733Y-1509454D02*
X627209Y-1518978D01*
X627209Y-1518978D02*
X608162Y-1528502D01*
X608162Y-1528502D02*
X560543Y-1528502D01*
X560543Y-1528502D02*
X541495Y-1518978D01*
X541495Y-1518978D02*
X531971Y-1509454D01*
X770066Y-1328502D02*
X789114Y-1328502D01*
X789114Y-1328502D02*
X808162Y-1338026D01*
X808162Y-1338026D02*
X817686Y-1347549D01*
X817686Y-1347549D02*
X827209Y-1366597D01*
X827209Y-1366597D02*
X836733Y-1404692D01*
X836733Y-1404692D02*
X836733Y-1452311D01*
X836733Y-1452311D02*
X827209Y-1490406D01*
X827209Y-1490406D02*
X817686Y-1509454D01*
X817686Y-1509454D02*
X808162Y-1518978D01*
X808162Y-1518978D02*
X789114Y-1528502D01*
X789114Y-1528502D02*
X770066Y-1528502D01*
X770066Y-1528502D02*
X751019Y-1518978D01*
X751019Y-1518978D02*
X741495Y-1509454D01*
X741495Y-1509454D02*
X731971Y-1490406D01*
X731971Y-1490406D02*
X722447Y-1452311D01*
X722447Y-1452311D02*
X722447Y-1404692D01*
X722447Y-1404692D02*
X731971Y-1366597D01*
X731971Y-1366597D02*
X741495Y-1347549D01*
X741495Y-1347549D02*
X751019Y-1338026D01*
X751019Y-1338026D02*
X770066Y-1328502D01*
X960543Y-1328502D02*
X979590Y-1328502D01*
X979590Y-1328502D02*
X998638Y-1338026D01*
X998638Y-1338026D02*
X1008162Y-1347549D01*
X1008162Y-1347549D02*
X1017686Y-1366597D01*
X1017686Y-1366597D02*
X1027209Y-1404692D01*
X1027209Y-1404692D02*
X1027209Y-1452311D01*
X1027209Y-1452311D02*
X1017686Y-1490406D01*
X1017686Y-1490406D02*
X1008162Y-1509454D01*
X1008162Y-1509454D02*
X998638Y-1518978D01*
X998638Y-1518978D02*
X979590Y-1528502D01*
X979590Y-1528502D02*
X960543Y-1528502D01*
X960543Y-1528502D02*
X941495Y-1518978D01*
X941495Y-1518978D02*
X931971Y-1509454D01*
X931971Y-1509454D02*
X922447Y-1490406D01*
X922447Y-1490406D02*
X912924Y-1452311D01*
X912924Y-1452311D02*
X912924Y-1404692D01*
X912924Y-1404692D02*
X922447Y-1366597D01*
X922447Y-1366597D02*
X931971Y-1347549D01*
X931971Y-1347549D02*
X941495Y-1338026D01*
X941495Y-1338026D02*
X960543Y-1328502D01*
X1112924Y-1528502D02*
X1112924Y-1395168D01*
X1112924Y-1414216D02*
X1122448Y-1404692D01*
X1122448Y-1404692D02*
X1141495Y-1395168D01*
X1141495Y-1395168D02*
X1170067Y-1395168D01*
X1170067Y-1395168D02*
X1189114Y-1404692D01*
X1189114Y-1404692D02*
X1198638Y-1423740D01*
X1198638Y-1423740D02*
X1198638Y-1528502D01*
X1198638Y-1423740D02*
X1208162Y-1404692D01*
X1208162Y-1404692D02*
X1227209Y-1395168D01*
X1227209Y-1395168D02*
X1255781Y-1395168D01*
X1255781Y-1395168D02*
X1274829Y-1404692D01*
X1274829Y-1404692D02*
X1284352Y-1423740D01*
X1284352Y-1423740D02*
X1284352Y-1528502D01*
X1379590Y-1528502D02*
X1379590Y-1395168D01*
X1379590Y-1414216D02*
X1389114Y-1404692D01*
X1389114Y-1404692D02*
X1408162Y-1395168D01*
X1408162Y-1395168D02*
X1436733Y-1395168D01*
X1436733Y-1395168D02*
X1455781Y-1404692D01*
X1455781Y-1404692D02*
X1465305Y-1423740D01*
X1465305Y-1423740D02*
X1465305Y-1528502D01*
X1465305Y-1423740D02*
X1474828Y-1404692D01*
X1474828Y-1404692D02*
X1493876Y-1395168D01*
X1493876Y-1395168D02*
X1522447Y-1395168D01*
X1522447Y-1395168D02*
X1541495Y-1404692D01*
X1541495Y-1404692D02*
X1551019Y-1423740D01*
X1551019Y-1423740D02*
X1551019Y-1528502D01*
X1941495Y-1318978D02*
X1770067Y-1576121D01*
X2198638Y-1328502D02*
X2217686Y-1328502D01*
X2217686Y-1328502D02*
X2236733Y-1338026D01*
X2236733Y-1338026D02*
X2246257Y-1347549D01*
X2246257Y-1347549D02*
X2255781Y-1366597D01*
X2255781Y-1366597D02*
X2265305Y-1404692D01*
X2265305Y-1404692D02*
X2265305Y-1452311D01*
X2265305Y-1452311D02*
X2255781Y-1490406D01*
X2255781Y-1490406D02*
X2246257Y-1509454D01*
X2246257Y-1509454D02*
X2236733Y-1518978D01*
X2236733Y-1518978D02*
X2217686Y-1528502D01*
X2217686Y-1528502D02*
X2198638Y-1528502D01*
X2198638Y-1528502D02*
X2179591Y-1518978D01*
X2179591Y-1518978D02*
X2170067Y-1509454D01*
X2170067Y-1509454D02*
X2160543Y-1490406D01*
X2160543Y-1490406D02*
X2151019Y-1452311D01*
X2151019Y-1452311D02*
X2151019Y-1404692D01*
X2151019Y-1404692D02*
X2160543Y-1366597D01*
X2160543Y-1366597D02*
X2170067Y-1347549D01*
X2170067Y-1347549D02*
X2179591Y-1338026D01*
X2179591Y-1338026D02*
X2198638Y-1328502D01*
X2351019Y-1509454D02*
X2360543Y-1518978D01*
X2360543Y-1518978D02*
X2351019Y-1528502D01*
X2351019Y-1528502D02*
X2341495Y-1518978D01*
X2341495Y-1518978D02*
X2351019Y-1509454D01*
X2351019Y-1509454D02*
X2351019Y-1528502D01*
X2484352Y-1328502D02*
X2503400Y-1328502D01*
X2503400Y-1328502D02*
X2522448Y-1338026D01*
X2522448Y-1338026D02*
X2531972Y-1347549D01*
X2531972Y-1347549D02*
X2541495Y-1366597D01*
X2541495Y-1366597D02*
X2551019Y-1404692D01*
X2551019Y-1404692D02*
X2551019Y-1452311D01*
X2551019Y-1452311D02*
X2541495Y-1490406D01*
X2541495Y-1490406D02*
X2531972Y-1509454D01*
X2531972Y-1509454D02*
X2522448Y-1518978D01*
X2522448Y-1518978D02*
X2503400Y-1528502D01*
X2503400Y-1528502D02*
X2484352Y-1528502D01*
X2484352Y-1528502D02*
X2465305Y-1518978D01*
X2465305Y-1518978D02*
X2455781Y-1509454D01*
X2455781Y-1509454D02*
X2446257Y-1490406D01*
X2446257Y-1490406D02*
X2436733Y-1452311D01*
X2436733Y-1452311D02*
X2436733Y-1404692D01*
X2436733Y-1404692D02*
X2446257Y-1366597D01*
X2446257Y-1366597D02*
X2455781Y-1347549D01*
X2455781Y-1347549D02*
X2465305Y-1338026D01*
X2465305Y-1338026D02*
X2484352Y-1328502D01*
X2741495Y-1528502D02*
X2627210Y-1528502D01*
X2684352Y-1528502D02*
X2684352Y-1328502D01*
X2684352Y-1328502D02*
X2665305Y-1357073D01*
X2665305Y-1357073D02*
X2646257Y-1376121D01*
X2646257Y-1376121D02*
X2627210Y-1385645D01*
X2836733Y-1528502D02*
X2874829Y-1528502D01*
X2874829Y-1528502D02*
X2893876Y-1518978D01*
X2893876Y-1518978D02*
X2903400Y-1509454D01*
X2903400Y-1509454D02*
X2922448Y-1480883D01*
X2922448Y-1480883D02*
X2931971Y-1442787D01*
X2931971Y-1442787D02*
X2931971Y-1366597D01*
X2931971Y-1366597D02*
X2922448Y-1347549D01*
X2922448Y-1347549D02*
X2912924Y-1338026D01*
X2912924Y-1338026D02*
X2893876Y-1328502D01*
X2893876Y-1328502D02*
X2855781Y-1328502D01*
X2855781Y-1328502D02*
X2836733Y-1338026D01*
X2836733Y-1338026D02*
X2827210Y-1347549D01*
X2827210Y-1347549D02*
X2817686Y-1366597D01*
X2817686Y-1366597D02*
X2817686Y-1414216D01*
X2817686Y-1414216D02*
X2827210Y-1433264D01*
X2827210Y-1433264D02*
X2836733Y-1442787D01*
X2836733Y-1442787D02*
X2855781Y-1452311D01*
X2855781Y-1452311D02*
X2893876Y-1452311D01*
X2893876Y-1452311D02*
X2912924Y-1442787D01*
X2912924Y-1442787D02*
X2922448Y-1433264D01*
X2922448Y-1433264D02*
X2931971Y-1414216D01*
X2998638Y-1328502D02*
X3131971Y-1328502D01*
X3131971Y-1328502D02*
X3046257Y-1528502D01*
X3198638Y-1328502D02*
X3198638Y-1366597D01*
X3274829Y-1328502D02*
X3274829Y-1366597D01*
X3570067Y-1604692D02*
X3560543Y-1595168D01*
X3560543Y-1595168D02*
X3541495Y-1566597D01*
X3541495Y-1566597D02*
X3531972Y-1547549D01*
X3531972Y-1547549D02*
X3522448Y-1518978D01*
X3522448Y-1518978D02*
X3512924Y-1471359D01*
X3512924Y-1471359D02*
X3512924Y-1433264D01*
X3512924Y-1433264D02*
X3522448Y-1385645D01*
X3522448Y-1385645D02*
X3531972Y-1357073D01*
X3531972Y-1357073D02*
X3541495Y-1338026D01*
X3541495Y-1338026D02*
X3560543Y-1309454D01*
X3560543Y-1309454D02*
X3570067Y-1299930D01*
X3741495Y-1328502D02*
X3646257Y-1328502D01*
X3646257Y-1328502D02*
X3636733Y-1423740D01*
X3636733Y-1423740D02*
X3646257Y-1414216D01*
X3646257Y-1414216D02*
X3665305Y-1404692D01*
X3665305Y-1404692D02*
X3712924Y-1404692D01*
X3712924Y-1404692D02*
X3731972Y-1414216D01*
X3731972Y-1414216D02*
X3741495Y-1423740D01*
X3741495Y-1423740D02*
X3751019Y-1442787D01*
X3751019Y-1442787D02*
X3751019Y-1490406D01*
X3751019Y-1490406D02*
X3741495Y-1509454D01*
X3741495Y-1509454D02*
X3731972Y-1518978D01*
X3731972Y-1518978D02*
X3712924Y-1528502D01*
X3712924Y-1528502D02*
X3665305Y-1528502D01*
X3665305Y-1528502D02*
X3646257Y-1518978D01*
X3646257Y-1518978D02*
X3636733Y-1509454D01*
X3989114Y-1528502D02*
X3989114Y-1328502D01*
X4074829Y-1528502D02*
X4074829Y-1423740D01*
X4074829Y-1423740D02*
X4065305Y-1404692D01*
X4065305Y-1404692D02*
X4046257Y-1395168D01*
X4046257Y-1395168D02*
X4017686Y-1395168D01*
X4017686Y-1395168D02*
X3998638Y-1404692D01*
X3998638Y-1404692D02*
X3989114Y-1414216D01*
X4198638Y-1528502D02*
X4179591Y-1518978D01*
X4179591Y-1518978D02*
X4170067Y-1509454D01*
X4170067Y-1509454D02*
X4160543Y-1490406D01*
X4160543Y-1490406D02*
X4160543Y-1433264D01*
X4160543Y-1433264D02*
X4170067Y-1414216D01*
X4170067Y-1414216D02*
X4179591Y-1404692D01*
X4179591Y-1404692D02*
X4198638Y-1395168D01*
X4198638Y-1395168D02*
X4227210Y-1395168D01*
X4227210Y-1395168D02*
X4246257Y-1404692D01*
X4246257Y-1404692D02*
X4255781Y-1414216D01*
X4255781Y-1414216D02*
X4265305Y-1433264D01*
X4265305Y-1433264D02*
X4265305Y-1490406D01*
X4265305Y-1490406D02*
X4255781Y-1509454D01*
X4255781Y-1509454D02*
X4246257Y-1518978D01*
X4246257Y-1518978D02*
X4227210Y-1528502D01*
X4227210Y-1528502D02*
X4198638Y-1528502D01*
X4379591Y-1528502D02*
X4360543Y-1518978D01*
X4360543Y-1518978D02*
X4351019Y-1499930D01*
X4351019Y-1499930D02*
X4351019Y-1328502D01*
X4531972Y-1518978D02*
X4512924Y-1528502D01*
X4512924Y-1528502D02*
X4474829Y-1528502D01*
X4474829Y-1528502D02*
X4455781Y-1518978D01*
X4455781Y-1518978D02*
X4446257Y-1499930D01*
X4446257Y-1499930D02*
X4446257Y-1423740D01*
X4446257Y-1423740D02*
X4455781Y-1404692D01*
X4455781Y-1404692D02*
X4474829Y-1395168D01*
X4474829Y-1395168D02*
X4512924Y-1395168D01*
X4512924Y-1395168D02*
X4531972Y-1404692D01*
X4531972Y-1404692D02*
X4541496Y-1423740D01*
X4541496Y-1423740D02*
X4541496Y-1442787D01*
X4541496Y-1442787D02*
X4446257Y-1461835D01*
X4617686Y-1518978D02*
X4636734Y-1528502D01*
X4636734Y-1528502D02*
X4674829Y-1528502D01*
X4674829Y-1528502D02*
X4693877Y-1518978D01*
X4693877Y-1518978D02*
X4703400Y-1499930D01*
X4703400Y-1499930D02*
X4703400Y-1490406D01*
X4703400Y-1490406D02*
X4693877Y-1471359D01*
X4693877Y-1471359D02*
X4674829Y-1461835D01*
X4674829Y-1461835D02*
X4646257Y-1461835D01*
X4646257Y-1461835D02*
X4627210Y-1452311D01*
X4627210Y-1452311D02*
X4617686Y-1433264D01*
X4617686Y-1433264D02*
X4617686Y-1423740D01*
X4617686Y-1423740D02*
X4627210Y-1404692D01*
X4627210Y-1404692D02*
X4646257Y-1395168D01*
X4646257Y-1395168D02*
X4674829Y-1395168D01*
X4674829Y-1395168D02*
X4693877Y-1404692D01*
X4941496Y-1452311D02*
X5093877Y-1452311D01*
X5017686Y-1528502D02*
X5017686Y-1376121D01*
X5331972Y-1347549D02*
X5341496Y-1338026D01*
X5341496Y-1338026D02*
X5360543Y-1328502D01*
X5360543Y-1328502D02*
X5408162Y-1328502D01*
X5408162Y-1328502D02*
X5427210Y-1338026D01*
X5427210Y-1338026D02*
X5436734Y-1347549D01*
X5436734Y-1347549D02*
X5446258Y-1366597D01*
X5446258Y-1366597D02*
X5446258Y-1385645D01*
X5446258Y-1385645D02*
X5436734Y-1414216D01*
X5436734Y-1414216D02*
X5322448Y-1528502D01*
X5322448Y-1528502D02*
X5446258Y-1528502D01*
X5674829Y-1518978D02*
X5693877Y-1528502D01*
X5693877Y-1528502D02*
X5731972Y-1528502D01*
X5731972Y-1528502D02*
X5751019Y-1518978D01*
X5751019Y-1518978D02*
X5760543Y-1499930D01*
X5760543Y-1499930D02*
X5760543Y-1490406D01*
X5760543Y-1490406D02*
X5751019Y-1471359D01*
X5751019Y-1471359D02*
X5731972Y-1461835D01*
X5731972Y-1461835D02*
X5703400Y-1461835D01*
X5703400Y-1461835D02*
X5684353Y-1452311D01*
X5684353Y-1452311D02*
X5674829Y-1433264D01*
X5674829Y-1433264D02*
X5674829Y-1423740D01*
X5674829Y-1423740D02*
X5684353Y-1404692D01*
X5684353Y-1404692D02*
X5703400Y-1395168D01*
X5703400Y-1395168D02*
X5731972Y-1395168D01*
X5731972Y-1395168D02*
X5751019Y-1404692D01*
X5874829Y-1528502D02*
X5855781Y-1518978D01*
X5855781Y-1518978D02*
X5846258Y-1499930D01*
X5846258Y-1499930D02*
X5846258Y-1328502D01*
X5979591Y-1528502D02*
X5960543Y-1518978D01*
X5960543Y-1518978D02*
X5951019Y-1509454D01*
X5951019Y-1509454D02*
X5941496Y-1490406D01*
X5941496Y-1490406D02*
X5941496Y-1433264D01*
X5941496Y-1433264D02*
X5951019Y-1414216D01*
X5951019Y-1414216D02*
X5960543Y-1404692D01*
X5960543Y-1404692D02*
X5979591Y-1395168D01*
X5979591Y-1395168D02*
X6008162Y-1395168D01*
X6008162Y-1395168D02*
X6027210Y-1404692D01*
X6027210Y-1404692D02*
X6036734Y-1414216D01*
X6036734Y-1414216D02*
X6046258Y-1433264D01*
X6046258Y-1433264D02*
X6046258Y-1490406D01*
X6046258Y-1490406D02*
X6036734Y-1509454D01*
X6036734Y-1509454D02*
X6027210Y-1518978D01*
X6027210Y-1518978D02*
X6008162Y-1528502D01*
X6008162Y-1528502D02*
X5979591Y-1528502D01*
X6103400Y-1395168D02*
X6179591Y-1395168D01*
X6131972Y-1328502D02*
X6131972Y-1499930D01*
X6131972Y-1499930D02*
X6141496Y-1518978D01*
X6141496Y-1518978D02*
X6160543Y-1528502D01*
X6160543Y-1528502D02*
X6179591Y-1528502D01*
X6236734Y-1518978D02*
X6255781Y-1528502D01*
X6255781Y-1528502D02*
X6293877Y-1528502D01*
X6293877Y-1528502D02*
X6312924Y-1518978D01*
X6312924Y-1518978D02*
X6322448Y-1499930D01*
X6322448Y-1499930D02*
X6322448Y-1490406D01*
X6322448Y-1490406D02*
X6312924Y-1471359D01*
X6312924Y-1471359D02*
X6293877Y-1461835D01*
X6293877Y-1461835D02*
X6265305Y-1461835D01*
X6265305Y-1461835D02*
X6246258Y-1452311D01*
X6246258Y-1452311D02*
X6236734Y-1433264D01*
X6236734Y-1433264D02*
X6236734Y-1423740D01*
X6236734Y-1423740D02*
X6246258Y-1404692D01*
X6246258Y-1404692D02*
X6265305Y-1395168D01*
X6265305Y-1395168D02*
X6293877Y-1395168D01*
X6293877Y-1395168D02*
X6312924Y-1404692D01*
X6389115Y-1604692D02*
X6398639Y-1595168D01*
X6398639Y-1595168D02*
X6417686Y-1566597D01*
X6417686Y-1566597D02*
X6427210Y-1547549D01*
X6427210Y-1547549D02*
X6436734Y-1518978D01*
X6436734Y-1518978D02*
X6446258Y-1471359D01*
X6446258Y-1471359D02*
X6446258Y-1433264D01*
X6446258Y-1433264D02*
X6436734Y-1385645D01*
X6436734Y-1385645D02*
X6427210Y-1357073D01*
X6427210Y-1357073D02*
X6417686Y-1338026D01*
X6417686Y-1338026D02*
X6398639Y-1309454D01*
X6398639Y-1309454D02*
X6389115Y-1299930D01*
D16*
X-34996Y-1731018D02*
X-4996Y-1701018D01*
X-34996Y-1671018D01*
X-64996Y-1701018D01*
X-34996Y-1731018D01*
D11*
X293876Y-1592502D02*
X312924Y-1592502D01*
X312924Y-1592502D02*
X331971Y-1602026D01*
X331971Y-1602026D02*
X341495Y-1611549D01*
X341495Y-1611549D02*
X351019Y-1630597D01*
X351019Y-1630597D02*
X360543Y-1668692D01*
X360543Y-1668692D02*
X360543Y-1716311D01*
X360543Y-1716311D02*
X351019Y-1754406D01*
X351019Y-1754406D02*
X341495Y-1773454D01*
X341495Y-1773454D02*
X331971Y-1782978D01*
X331971Y-1782978D02*
X312924Y-1792502D01*
X312924Y-1792502D02*
X293876Y-1792502D01*
X293876Y-1792502D02*
X274828Y-1782978D01*
X274828Y-1782978D02*
X265305Y-1773454D01*
X265305Y-1773454D02*
X255781Y-1754406D01*
X255781Y-1754406D02*
X246257Y-1716311D01*
X246257Y-1716311D02*
X246257Y-1668692D01*
X246257Y-1668692D02*
X255781Y-1630597D01*
X255781Y-1630597D02*
X265305Y-1611549D01*
X265305Y-1611549D02*
X274828Y-1602026D01*
X274828Y-1602026D02*
X293876Y-1592502D01*
X446257Y-1773454D02*
X455781Y-1782978D01*
X455781Y-1782978D02*
X446257Y-1792502D01*
X446257Y-1792502D02*
X436733Y-1782978D01*
X436733Y-1782978D02*
X446257Y-1773454D01*
X446257Y-1773454D02*
X446257Y-1792502D01*
X627209Y-1592502D02*
X589114Y-1592502D01*
X589114Y-1592502D02*
X570067Y-1602026D01*
X570067Y-1602026D02*
X560543Y-1611549D01*
X560543Y-1611549D02*
X541495Y-1640121D01*
X541495Y-1640121D02*
X531971Y-1678216D01*
X531971Y-1678216D02*
X531971Y-1754406D01*
X531971Y-1754406D02*
X541495Y-1773454D01*
X541495Y-1773454D02*
X551019Y-1782978D01*
X551019Y-1782978D02*
X570067Y-1792502D01*
X570067Y-1792502D02*
X608162Y-1792502D01*
X608162Y-1792502D02*
X627209Y-1782978D01*
X627209Y-1782978D02*
X636733Y-1773454D01*
X636733Y-1773454D02*
X646257Y-1754406D01*
X646257Y-1754406D02*
X646257Y-1706787D01*
X646257Y-1706787D02*
X636733Y-1687740D01*
X636733Y-1687740D02*
X627209Y-1678216D01*
X627209Y-1678216D02*
X608162Y-1668692D01*
X608162Y-1668692D02*
X570067Y-1668692D01*
X570067Y-1668692D02*
X551019Y-1678216D01*
X551019Y-1678216D02*
X541495Y-1687740D01*
X541495Y-1687740D02*
X531971Y-1706787D01*
X770066Y-1592502D02*
X789114Y-1592502D01*
X789114Y-1592502D02*
X808162Y-1602026D01*
X808162Y-1602026D02*
X817686Y-1611549D01*
X817686Y-1611549D02*
X827209Y-1630597D01*
X827209Y-1630597D02*
X836733Y-1668692D01*
X836733Y-1668692D02*
X836733Y-1716311D01*
X836733Y-1716311D02*
X827209Y-1754406D01*
X827209Y-1754406D02*
X817686Y-1773454D01*
X817686Y-1773454D02*
X808162Y-1782978D01*
X808162Y-1782978D02*
X789114Y-1792502D01*
X789114Y-1792502D02*
X770066Y-1792502D01*
X770066Y-1792502D02*
X751019Y-1782978D01*
X751019Y-1782978D02*
X741495Y-1773454D01*
X741495Y-1773454D02*
X731971Y-1754406D01*
X731971Y-1754406D02*
X722447Y-1716311D01*
X722447Y-1716311D02*
X722447Y-1668692D01*
X722447Y-1668692D02*
X731971Y-1630597D01*
X731971Y-1630597D02*
X741495Y-1611549D01*
X741495Y-1611549D02*
X751019Y-1602026D01*
X751019Y-1602026D02*
X770066Y-1592502D01*
X960543Y-1592502D02*
X979590Y-1592502D01*
X979590Y-1592502D02*
X998638Y-1602026D01*
X998638Y-1602026D02*
X1008162Y-1611549D01*
X1008162Y-1611549D02*
X1017686Y-1630597D01*
X1017686Y-1630597D02*
X1027209Y-1668692D01*
X1027209Y-1668692D02*
X1027209Y-1716311D01*
X1027209Y-1716311D02*
X1017686Y-1754406D01*
X1017686Y-1754406D02*
X1008162Y-1773454D01*
X1008162Y-1773454D02*
X998638Y-1782978D01*
X998638Y-1782978D02*
X979590Y-1792502D01*
X979590Y-1792502D02*
X960543Y-1792502D01*
X960543Y-1792502D02*
X941495Y-1782978D01*
X941495Y-1782978D02*
X931971Y-1773454D01*
X931971Y-1773454D02*
X922447Y-1754406D01*
X922447Y-1754406D02*
X912924Y-1716311D01*
X912924Y-1716311D02*
X912924Y-1668692D01*
X912924Y-1668692D02*
X922447Y-1630597D01*
X922447Y-1630597D02*
X931971Y-1611549D01*
X931971Y-1611549D02*
X941495Y-1602026D01*
X941495Y-1602026D02*
X960543Y-1592502D01*
X1112924Y-1792502D02*
X1112924Y-1659168D01*
X1112924Y-1678216D02*
X1122448Y-1668692D01*
X1122448Y-1668692D02*
X1141495Y-1659168D01*
X1141495Y-1659168D02*
X1170067Y-1659168D01*
X1170067Y-1659168D02*
X1189114Y-1668692D01*
X1189114Y-1668692D02*
X1198638Y-1687740D01*
X1198638Y-1687740D02*
X1198638Y-1792502D01*
X1198638Y-1687740D02*
X1208162Y-1668692D01*
X1208162Y-1668692D02*
X1227209Y-1659168D01*
X1227209Y-1659168D02*
X1255781Y-1659168D01*
X1255781Y-1659168D02*
X1274829Y-1668692D01*
X1274829Y-1668692D02*
X1284352Y-1687740D01*
X1284352Y-1687740D02*
X1284352Y-1792502D01*
X1379590Y-1792502D02*
X1379590Y-1659168D01*
X1379590Y-1678216D02*
X1389114Y-1668692D01*
X1389114Y-1668692D02*
X1408162Y-1659168D01*
X1408162Y-1659168D02*
X1436733Y-1659168D01*
X1436733Y-1659168D02*
X1455781Y-1668692D01*
X1455781Y-1668692D02*
X1465305Y-1687740D01*
X1465305Y-1687740D02*
X1465305Y-1792502D01*
X1465305Y-1687740D02*
X1474828Y-1668692D01*
X1474828Y-1668692D02*
X1493876Y-1659168D01*
X1493876Y-1659168D02*
X1522447Y-1659168D01*
X1522447Y-1659168D02*
X1541495Y-1668692D01*
X1541495Y-1668692D02*
X1551019Y-1687740D01*
X1551019Y-1687740D02*
X1551019Y-1792502D01*
X1941495Y-1582978D02*
X1770067Y-1840121D01*
X2198638Y-1592502D02*
X2217686Y-1592502D01*
X2217686Y-1592502D02*
X2236733Y-1602026D01*
X2236733Y-1602026D02*
X2246257Y-1611549D01*
X2246257Y-1611549D02*
X2255781Y-1630597D01*
X2255781Y-1630597D02*
X2265305Y-1668692D01*
X2265305Y-1668692D02*
X2265305Y-1716311D01*
X2265305Y-1716311D02*
X2255781Y-1754406D01*
X2255781Y-1754406D02*
X2246257Y-1773454D01*
X2246257Y-1773454D02*
X2236733Y-1782978D01*
X2236733Y-1782978D02*
X2217686Y-1792502D01*
X2217686Y-1792502D02*
X2198638Y-1792502D01*
X2198638Y-1792502D02*
X2179591Y-1782978D01*
X2179591Y-1782978D02*
X2170067Y-1773454D01*
X2170067Y-1773454D02*
X2160543Y-1754406D01*
X2160543Y-1754406D02*
X2151019Y-1716311D01*
X2151019Y-1716311D02*
X2151019Y-1668692D01*
X2151019Y-1668692D02*
X2160543Y-1630597D01*
X2160543Y-1630597D02*
X2170067Y-1611549D01*
X2170067Y-1611549D02*
X2179591Y-1602026D01*
X2179591Y-1602026D02*
X2198638Y-1592502D01*
X2351019Y-1773454D02*
X2360543Y-1782978D01*
X2360543Y-1782978D02*
X2351019Y-1792502D01*
X2351019Y-1792502D02*
X2341495Y-1782978D01*
X2341495Y-1782978D02*
X2351019Y-1773454D01*
X2351019Y-1773454D02*
X2351019Y-1792502D01*
X2484352Y-1592502D02*
X2503400Y-1592502D01*
X2503400Y-1592502D02*
X2522448Y-1602026D01*
X2522448Y-1602026D02*
X2531972Y-1611549D01*
X2531972Y-1611549D02*
X2541495Y-1630597D01*
X2541495Y-1630597D02*
X2551019Y-1668692D01*
X2551019Y-1668692D02*
X2551019Y-1716311D01*
X2551019Y-1716311D02*
X2541495Y-1754406D01*
X2541495Y-1754406D02*
X2531972Y-1773454D01*
X2531972Y-1773454D02*
X2522448Y-1782978D01*
X2522448Y-1782978D02*
X2503400Y-1792502D01*
X2503400Y-1792502D02*
X2484352Y-1792502D01*
X2484352Y-1792502D02*
X2465305Y-1782978D01*
X2465305Y-1782978D02*
X2455781Y-1773454D01*
X2455781Y-1773454D02*
X2446257Y-1754406D01*
X2446257Y-1754406D02*
X2436733Y-1716311D01*
X2436733Y-1716311D02*
X2436733Y-1668692D01*
X2436733Y-1668692D02*
X2446257Y-1630597D01*
X2446257Y-1630597D02*
X2455781Y-1611549D01*
X2455781Y-1611549D02*
X2465305Y-1602026D01*
X2465305Y-1602026D02*
X2484352Y-1592502D01*
X2627210Y-1611549D02*
X2636733Y-1602026D01*
X2636733Y-1602026D02*
X2655781Y-1592502D01*
X2655781Y-1592502D02*
X2703400Y-1592502D01*
X2703400Y-1592502D02*
X2722448Y-1602026D01*
X2722448Y-1602026D02*
X2731972Y-1611549D01*
X2731972Y-1611549D02*
X2741495Y-1630597D01*
X2741495Y-1630597D02*
X2741495Y-1649645D01*
X2741495Y-1649645D02*
X2731972Y-1678216D01*
X2731972Y-1678216D02*
X2617686Y-1792502D01*
X2617686Y-1792502D02*
X2741495Y-1792502D01*
X2808162Y-1592502D02*
X2931971Y-1592502D01*
X2931971Y-1592502D02*
X2865305Y-1668692D01*
X2865305Y-1668692D02*
X2893876Y-1668692D01*
X2893876Y-1668692D02*
X2912924Y-1678216D01*
X2912924Y-1678216D02*
X2922448Y-1687740D01*
X2922448Y-1687740D02*
X2931971Y-1706787D01*
X2931971Y-1706787D02*
X2931971Y-1754406D01*
X2931971Y-1754406D02*
X2922448Y-1773454D01*
X2922448Y-1773454D02*
X2912924Y-1782978D01*
X2912924Y-1782978D02*
X2893876Y-1792502D01*
X2893876Y-1792502D02*
X2836733Y-1792502D01*
X2836733Y-1792502D02*
X2817686Y-1782978D01*
X2817686Y-1782978D02*
X2808162Y-1773454D01*
X3103400Y-1592502D02*
X3065305Y-1592502D01*
X3065305Y-1592502D02*
X3046257Y-1602026D01*
X3046257Y-1602026D02*
X3036733Y-1611549D01*
X3036733Y-1611549D02*
X3017686Y-1640121D01*
X3017686Y-1640121D02*
X3008162Y-1678216D01*
X3008162Y-1678216D02*
X3008162Y-1754406D01*
X3008162Y-1754406D02*
X3017686Y-1773454D01*
X3017686Y-1773454D02*
X3027210Y-1782978D01*
X3027210Y-1782978D02*
X3046257Y-1792502D01*
X3046257Y-1792502D02*
X3084352Y-1792502D01*
X3084352Y-1792502D02*
X3103400Y-1782978D01*
X3103400Y-1782978D02*
X3112924Y-1773454D01*
X3112924Y-1773454D02*
X3122448Y-1754406D01*
X3122448Y-1754406D02*
X3122448Y-1706787D01*
X3122448Y-1706787D02*
X3112924Y-1687740D01*
X3112924Y-1687740D02*
X3103400Y-1678216D01*
X3103400Y-1678216D02*
X3084352Y-1668692D01*
X3084352Y-1668692D02*
X3046257Y-1668692D01*
X3046257Y-1668692D02*
X3027210Y-1678216D01*
X3027210Y-1678216D02*
X3017686Y-1687740D01*
X3017686Y-1687740D02*
X3008162Y-1706787D01*
X3198638Y-1592502D02*
X3198638Y-1630597D01*
X3274829Y-1592502D02*
X3274829Y-1630597D01*
X3570067Y-1868692D02*
X3560543Y-1859168D01*
X3560543Y-1859168D02*
X3541495Y-1830597D01*
X3541495Y-1830597D02*
X3531972Y-1811549D01*
X3531972Y-1811549D02*
X3522448Y-1782978D01*
X3522448Y-1782978D02*
X3512924Y-1735359D01*
X3512924Y-1735359D02*
X3512924Y-1697264D01*
X3512924Y-1697264D02*
X3522448Y-1649645D01*
X3522448Y-1649645D02*
X3531972Y-1621073D01*
X3531972Y-1621073D02*
X3541495Y-1602026D01*
X3541495Y-1602026D02*
X3560543Y-1573454D01*
X3560543Y-1573454D02*
X3570067Y-1563930D01*
X3684352Y-1592502D02*
X3703400Y-1592502D01*
X3703400Y-1592502D02*
X3722448Y-1602026D01*
X3722448Y-1602026D02*
X3731972Y-1611549D01*
X3731972Y-1611549D02*
X3741495Y-1630597D01*
X3741495Y-1630597D02*
X3751019Y-1668692D01*
X3751019Y-1668692D02*
X3751019Y-1716311D01*
X3751019Y-1716311D02*
X3741495Y-1754406D01*
X3741495Y-1754406D02*
X3731972Y-1773454D01*
X3731972Y-1773454D02*
X3722448Y-1782978D01*
X3722448Y-1782978D02*
X3703400Y-1792502D01*
X3703400Y-1792502D02*
X3684352Y-1792502D01*
X3684352Y-1792502D02*
X3665305Y-1782978D01*
X3665305Y-1782978D02*
X3655781Y-1773454D01*
X3655781Y-1773454D02*
X3646257Y-1754406D01*
X3646257Y-1754406D02*
X3636733Y-1716311D01*
X3636733Y-1716311D02*
X3636733Y-1668692D01*
X3636733Y-1668692D02*
X3646257Y-1630597D01*
X3646257Y-1630597D02*
X3655781Y-1611549D01*
X3655781Y-1611549D02*
X3665305Y-1602026D01*
X3665305Y-1602026D02*
X3684352Y-1592502D01*
X3989114Y-1792502D02*
X3989114Y-1592502D01*
X4074829Y-1792502D02*
X4074829Y-1687740D01*
X4074829Y-1687740D02*
X4065305Y-1668692D01*
X4065305Y-1668692D02*
X4046257Y-1659168D01*
X4046257Y-1659168D02*
X4017686Y-1659168D01*
X4017686Y-1659168D02*
X3998638Y-1668692D01*
X3998638Y-1668692D02*
X3989114Y-1678216D01*
X4198638Y-1792502D02*
X4179591Y-1782978D01*
X4179591Y-1782978D02*
X4170067Y-1773454D01*
X4170067Y-1773454D02*
X4160543Y-1754406D01*
X4160543Y-1754406D02*
X4160543Y-1697264D01*
X4160543Y-1697264D02*
X4170067Y-1678216D01*
X4170067Y-1678216D02*
X4179591Y-1668692D01*
X4179591Y-1668692D02*
X4198638Y-1659168D01*
X4198638Y-1659168D02*
X4227210Y-1659168D01*
X4227210Y-1659168D02*
X4246257Y-1668692D01*
X4246257Y-1668692D02*
X4255781Y-1678216D01*
X4255781Y-1678216D02*
X4265305Y-1697264D01*
X4265305Y-1697264D02*
X4265305Y-1754406D01*
X4265305Y-1754406D02*
X4255781Y-1773454D01*
X4255781Y-1773454D02*
X4246257Y-1782978D01*
X4246257Y-1782978D02*
X4227210Y-1792502D01*
X4227210Y-1792502D02*
X4198638Y-1792502D01*
X4379591Y-1792502D02*
X4360543Y-1782978D01*
X4360543Y-1782978D02*
X4351019Y-1763930D01*
X4351019Y-1763930D02*
X4351019Y-1592502D01*
X4531972Y-1782978D02*
X4512924Y-1792502D01*
X4512924Y-1792502D02*
X4474829Y-1792502D01*
X4474829Y-1792502D02*
X4455781Y-1782978D01*
X4455781Y-1782978D02*
X4446257Y-1763930D01*
X4446257Y-1763930D02*
X4446257Y-1687740D01*
X4446257Y-1687740D02*
X4455781Y-1668692D01*
X4455781Y-1668692D02*
X4474829Y-1659168D01*
X4474829Y-1659168D02*
X4512924Y-1659168D01*
X4512924Y-1659168D02*
X4531972Y-1668692D01*
X4531972Y-1668692D02*
X4541496Y-1687740D01*
X4541496Y-1687740D02*
X4541496Y-1706787D01*
X4541496Y-1706787D02*
X4446257Y-1725835D01*
X4617686Y-1782978D02*
X4636734Y-1792502D01*
X4636734Y-1792502D02*
X4674829Y-1792502D01*
X4674829Y-1792502D02*
X4693877Y-1782978D01*
X4693877Y-1782978D02*
X4703400Y-1763930D01*
X4703400Y-1763930D02*
X4703400Y-1754406D01*
X4703400Y-1754406D02*
X4693877Y-1735359D01*
X4693877Y-1735359D02*
X4674829Y-1725835D01*
X4674829Y-1725835D02*
X4646257Y-1725835D01*
X4646257Y-1725835D02*
X4627210Y-1716311D01*
X4627210Y-1716311D02*
X4617686Y-1697264D01*
X4617686Y-1697264D02*
X4617686Y-1687740D01*
X4617686Y-1687740D02*
X4627210Y-1668692D01*
X4627210Y-1668692D02*
X4646257Y-1659168D01*
X4646257Y-1659168D02*
X4674829Y-1659168D01*
X4674829Y-1659168D02*
X4693877Y-1668692D01*
X4941496Y-1716311D02*
X5093877Y-1716311D01*
X5017686Y-1792502D02*
X5017686Y-1640121D01*
X5331972Y-1611549D02*
X5341496Y-1602026D01*
X5341496Y-1602026D02*
X5360543Y-1592502D01*
X5360543Y-1592502D02*
X5408162Y-1592502D01*
X5408162Y-1592502D02*
X5427210Y-1602026D01*
X5427210Y-1602026D02*
X5436734Y-1611549D01*
X5436734Y-1611549D02*
X5446258Y-1630597D01*
X5446258Y-1630597D02*
X5446258Y-1649645D01*
X5446258Y-1649645D02*
X5436734Y-1678216D01*
X5436734Y-1678216D02*
X5322448Y-1792502D01*
X5322448Y-1792502D02*
X5446258Y-1792502D01*
X5674829Y-1782978D02*
X5693877Y-1792502D01*
X5693877Y-1792502D02*
X5731972Y-1792502D01*
X5731972Y-1792502D02*
X5751019Y-1782978D01*
X5751019Y-1782978D02*
X5760543Y-1763930D01*
X5760543Y-1763930D02*
X5760543Y-1754406D01*
X5760543Y-1754406D02*
X5751019Y-1735359D01*
X5751019Y-1735359D02*
X5731972Y-1725835D01*
X5731972Y-1725835D02*
X5703400Y-1725835D01*
X5703400Y-1725835D02*
X5684353Y-1716311D01*
X5684353Y-1716311D02*
X5674829Y-1697264D01*
X5674829Y-1697264D02*
X5674829Y-1687740D01*
X5674829Y-1687740D02*
X5684353Y-1668692D01*
X5684353Y-1668692D02*
X5703400Y-1659168D01*
X5703400Y-1659168D02*
X5731972Y-1659168D01*
X5731972Y-1659168D02*
X5751019Y-1668692D01*
X5874829Y-1792502D02*
X5855781Y-1782978D01*
X5855781Y-1782978D02*
X5846258Y-1763930D01*
X5846258Y-1763930D02*
X5846258Y-1592502D01*
X5979591Y-1792502D02*
X5960543Y-1782978D01*
X5960543Y-1782978D02*
X5951019Y-1773454D01*
X5951019Y-1773454D02*
X5941496Y-1754406D01*
X5941496Y-1754406D02*
X5941496Y-1697264D01*
X5941496Y-1697264D02*
X5951019Y-1678216D01*
X5951019Y-1678216D02*
X5960543Y-1668692D01*
X5960543Y-1668692D02*
X5979591Y-1659168D01*
X5979591Y-1659168D02*
X6008162Y-1659168D01*
X6008162Y-1659168D02*
X6027210Y-1668692D01*
X6027210Y-1668692D02*
X6036734Y-1678216D01*
X6036734Y-1678216D02*
X6046258Y-1697264D01*
X6046258Y-1697264D02*
X6046258Y-1754406D01*
X6046258Y-1754406D02*
X6036734Y-1773454D01*
X6036734Y-1773454D02*
X6027210Y-1782978D01*
X6027210Y-1782978D02*
X6008162Y-1792502D01*
X6008162Y-1792502D02*
X5979591Y-1792502D01*
X6103400Y-1659168D02*
X6179591Y-1659168D01*
X6131972Y-1592502D02*
X6131972Y-1763930D01*
X6131972Y-1763930D02*
X6141496Y-1782978D01*
X6141496Y-1782978D02*
X6160543Y-1792502D01*
X6160543Y-1792502D02*
X6179591Y-1792502D01*
X6236734Y-1782978D02*
X6255781Y-1792502D01*
X6255781Y-1792502D02*
X6293877Y-1792502D01*
X6293877Y-1792502D02*
X6312924Y-1782978D01*
X6312924Y-1782978D02*
X6322448Y-1763930D01*
X6322448Y-1763930D02*
X6322448Y-1754406D01*
X6322448Y-1754406D02*
X6312924Y-1735359D01*
X6312924Y-1735359D02*
X6293877Y-1725835D01*
X6293877Y-1725835D02*
X6265305Y-1725835D01*
X6265305Y-1725835D02*
X6246258Y-1716311D01*
X6246258Y-1716311D02*
X6236734Y-1697264D01*
X6236734Y-1697264D02*
X6236734Y-1687740D01*
X6236734Y-1687740D02*
X6246258Y-1668692D01*
X6246258Y-1668692D02*
X6265305Y-1659168D01*
X6265305Y-1659168D02*
X6293877Y-1659168D01*
X6293877Y-1659168D02*
X6312924Y-1668692D01*
X6389115Y-1868692D02*
X6398639Y-1859168D01*
X6398639Y-1859168D02*
X6417686Y-1830597D01*
X6417686Y-1830597D02*
X6427210Y-1811549D01*
X6427210Y-1811549D02*
X6436734Y-1782978D01*
X6436734Y-1782978D02*
X6446258Y-1735359D01*
X6446258Y-1735359D02*
X6446258Y-1697264D01*
X6446258Y-1697264D02*
X6436734Y-1649645D01*
X6436734Y-1649645D02*
X6427210Y-1621073D01*
X6427210Y-1621073D02*
X6417686Y-1602026D01*
X6417686Y-1602026D02*
X6398639Y-1573454D01*
X6398639Y-1573454D02*
X6389115Y-1563930D01*
D17*
X-86276Y-1924378D02*
X-4996Y-2005658D01*
X-4996Y-1924378D02*
X-86276Y-2005658D01*
X-4996Y-1965018D02*
G75*
G03*
X-4996Y-1965018I-40640J0D01*
G01*
D11*
X293876Y-1856502D02*
X312924Y-1856502D01*
X312924Y-1856502D02*
X331971Y-1866026D01*
X331971Y-1866026D02*
X341495Y-1875549D01*
X341495Y-1875549D02*
X351019Y-1894597D01*
X351019Y-1894597D02*
X360543Y-1932692D01*
X360543Y-1932692D02*
X360543Y-1980311D01*
X360543Y-1980311D02*
X351019Y-2018406D01*
X351019Y-2018406D02*
X341495Y-2037454D01*
X341495Y-2037454D02*
X331971Y-2046978D01*
X331971Y-2046978D02*
X312924Y-2056502D01*
X312924Y-2056502D02*
X293876Y-2056502D01*
X293876Y-2056502D02*
X274828Y-2046978D01*
X274828Y-2046978D02*
X265305Y-2037454D01*
X265305Y-2037454D02*
X255781Y-2018406D01*
X255781Y-2018406D02*
X246257Y-1980311D01*
X246257Y-1980311D02*
X246257Y-1932692D01*
X246257Y-1932692D02*
X255781Y-1894597D01*
X255781Y-1894597D02*
X265305Y-1875549D01*
X265305Y-1875549D02*
X274828Y-1866026D01*
X274828Y-1866026D02*
X293876Y-1856502D01*
X446257Y-2037454D02*
X455781Y-2046978D01*
X455781Y-2046978D02*
X446257Y-2056502D01*
X446257Y-2056502D02*
X436733Y-2046978D01*
X436733Y-2046978D02*
X446257Y-2037454D01*
X446257Y-2037454D02*
X446257Y-2056502D01*
X570067Y-1942216D02*
X551019Y-1932692D01*
X551019Y-1932692D02*
X541495Y-1923168D01*
X541495Y-1923168D02*
X531971Y-1904121D01*
X531971Y-1904121D02*
X531971Y-1894597D01*
X531971Y-1894597D02*
X541495Y-1875549D01*
X541495Y-1875549D02*
X551019Y-1866026D01*
X551019Y-1866026D02*
X570067Y-1856502D01*
X570067Y-1856502D02*
X608162Y-1856502D01*
X608162Y-1856502D02*
X627209Y-1866026D01*
X627209Y-1866026D02*
X636733Y-1875549D01*
X636733Y-1875549D02*
X646257Y-1894597D01*
X646257Y-1894597D02*
X646257Y-1904121D01*
X646257Y-1904121D02*
X636733Y-1923168D01*
X636733Y-1923168D02*
X627209Y-1932692D01*
X627209Y-1932692D02*
X608162Y-1942216D01*
X608162Y-1942216D02*
X570067Y-1942216D01*
X570067Y-1942216D02*
X551019Y-1951740D01*
X551019Y-1951740D02*
X541495Y-1961264D01*
X541495Y-1961264D02*
X531971Y-1980311D01*
X531971Y-1980311D02*
X531971Y-2018406D01*
X531971Y-2018406D02*
X541495Y-2037454D01*
X541495Y-2037454D02*
X551019Y-2046978D01*
X551019Y-2046978D02*
X570067Y-2056502D01*
X570067Y-2056502D02*
X608162Y-2056502D01*
X608162Y-2056502D02*
X627209Y-2046978D01*
X627209Y-2046978D02*
X636733Y-2037454D01*
X636733Y-2037454D02*
X646257Y-2018406D01*
X646257Y-2018406D02*
X646257Y-1980311D01*
X646257Y-1980311D02*
X636733Y-1961264D01*
X636733Y-1961264D02*
X627209Y-1951740D01*
X627209Y-1951740D02*
X608162Y-1942216D01*
X836733Y-2056502D02*
X722447Y-2056502D01*
X779590Y-2056502D02*
X779590Y-1856502D01*
X779590Y-1856502D02*
X760543Y-1885073D01*
X760543Y-1885073D02*
X741495Y-1904121D01*
X741495Y-1904121D02*
X722447Y-1913645D01*
X903400Y-1856502D02*
X1027209Y-1856502D01*
X1027209Y-1856502D02*
X960543Y-1932692D01*
X960543Y-1932692D02*
X989114Y-1932692D01*
X989114Y-1932692D02*
X1008162Y-1942216D01*
X1008162Y-1942216D02*
X1017686Y-1951740D01*
X1017686Y-1951740D02*
X1027209Y-1970787D01*
X1027209Y-1970787D02*
X1027209Y-2018406D01*
X1027209Y-2018406D02*
X1017686Y-2037454D01*
X1017686Y-2037454D02*
X1008162Y-2046978D01*
X1008162Y-2046978D02*
X989114Y-2056502D01*
X989114Y-2056502D02*
X931971Y-2056502D01*
X931971Y-2056502D02*
X912924Y-2046978D01*
X912924Y-2046978D02*
X903400Y-2037454D01*
X1112924Y-2056502D02*
X1112924Y-1923168D01*
X1112924Y-1942216D02*
X1122448Y-1932692D01*
X1122448Y-1932692D02*
X1141495Y-1923168D01*
X1141495Y-1923168D02*
X1170067Y-1923168D01*
X1170067Y-1923168D02*
X1189114Y-1932692D01*
X1189114Y-1932692D02*
X1198638Y-1951740D01*
X1198638Y-1951740D02*
X1198638Y-2056502D01*
X1198638Y-1951740D02*
X1208162Y-1932692D01*
X1208162Y-1932692D02*
X1227209Y-1923168D01*
X1227209Y-1923168D02*
X1255781Y-1923168D01*
X1255781Y-1923168D02*
X1274829Y-1932692D01*
X1274829Y-1932692D02*
X1284352Y-1951740D01*
X1284352Y-1951740D02*
X1284352Y-2056502D01*
X1379590Y-2056502D02*
X1379590Y-1923168D01*
X1379590Y-1942216D02*
X1389114Y-1932692D01*
X1389114Y-1932692D02*
X1408162Y-1923168D01*
X1408162Y-1923168D02*
X1436733Y-1923168D01*
X1436733Y-1923168D02*
X1455781Y-1932692D01*
X1455781Y-1932692D02*
X1465305Y-1951740D01*
X1465305Y-1951740D02*
X1465305Y-2056502D01*
X1465305Y-1951740D02*
X1474828Y-1932692D01*
X1474828Y-1932692D02*
X1493876Y-1923168D01*
X1493876Y-1923168D02*
X1522447Y-1923168D01*
X1522447Y-1923168D02*
X1541495Y-1932692D01*
X1541495Y-1932692D02*
X1551019Y-1951740D01*
X1551019Y-1951740D02*
X1551019Y-2056502D01*
X1941495Y-1846978D02*
X1770067Y-2104121D01*
X2198638Y-1856502D02*
X2217686Y-1856502D01*
X2217686Y-1856502D02*
X2236733Y-1866026D01*
X2236733Y-1866026D02*
X2246257Y-1875549D01*
X2246257Y-1875549D02*
X2255781Y-1894597D01*
X2255781Y-1894597D02*
X2265305Y-1932692D01*
X2265305Y-1932692D02*
X2265305Y-1980311D01*
X2265305Y-1980311D02*
X2255781Y-2018406D01*
X2255781Y-2018406D02*
X2246257Y-2037454D01*
X2246257Y-2037454D02*
X2236733Y-2046978D01*
X2236733Y-2046978D02*
X2217686Y-2056502D01*
X2217686Y-2056502D02*
X2198638Y-2056502D01*
X2198638Y-2056502D02*
X2179591Y-2046978D01*
X2179591Y-2046978D02*
X2170067Y-2037454D01*
X2170067Y-2037454D02*
X2160543Y-2018406D01*
X2160543Y-2018406D02*
X2151019Y-1980311D01*
X2151019Y-1980311D02*
X2151019Y-1932692D01*
X2151019Y-1932692D02*
X2160543Y-1894597D01*
X2160543Y-1894597D02*
X2170067Y-1875549D01*
X2170067Y-1875549D02*
X2179591Y-1866026D01*
X2179591Y-1866026D02*
X2198638Y-1856502D01*
X2351019Y-2037454D02*
X2360543Y-2046978D01*
X2360543Y-2046978D02*
X2351019Y-2056502D01*
X2351019Y-2056502D02*
X2341495Y-2046978D01*
X2341495Y-2046978D02*
X2351019Y-2037454D01*
X2351019Y-2037454D02*
X2351019Y-2056502D01*
X2484352Y-1856502D02*
X2503400Y-1856502D01*
X2503400Y-1856502D02*
X2522448Y-1866026D01*
X2522448Y-1866026D02*
X2531972Y-1875549D01*
X2531972Y-1875549D02*
X2541495Y-1894597D01*
X2541495Y-1894597D02*
X2551019Y-1932692D01*
X2551019Y-1932692D02*
X2551019Y-1980311D01*
X2551019Y-1980311D02*
X2541495Y-2018406D01*
X2541495Y-2018406D02*
X2531972Y-2037454D01*
X2531972Y-2037454D02*
X2522448Y-2046978D01*
X2522448Y-2046978D02*
X2503400Y-2056502D01*
X2503400Y-2056502D02*
X2484352Y-2056502D01*
X2484352Y-2056502D02*
X2465305Y-2046978D01*
X2465305Y-2046978D02*
X2455781Y-2037454D01*
X2455781Y-2037454D02*
X2446257Y-2018406D01*
X2446257Y-2018406D02*
X2436733Y-1980311D01*
X2436733Y-1980311D02*
X2436733Y-1932692D01*
X2436733Y-1932692D02*
X2446257Y-1894597D01*
X2446257Y-1894597D02*
X2455781Y-1875549D01*
X2455781Y-1875549D02*
X2465305Y-1866026D01*
X2465305Y-1866026D02*
X2484352Y-1856502D01*
X2617686Y-1856502D02*
X2741495Y-1856502D01*
X2741495Y-1856502D02*
X2674829Y-1932692D01*
X2674829Y-1932692D02*
X2703400Y-1932692D01*
X2703400Y-1932692D02*
X2722448Y-1942216D01*
X2722448Y-1942216D02*
X2731972Y-1951740D01*
X2731972Y-1951740D02*
X2741495Y-1970787D01*
X2741495Y-1970787D02*
X2741495Y-2018406D01*
X2741495Y-2018406D02*
X2731972Y-2037454D01*
X2731972Y-2037454D02*
X2722448Y-2046978D01*
X2722448Y-2046978D02*
X2703400Y-2056502D01*
X2703400Y-2056502D02*
X2646257Y-2056502D01*
X2646257Y-2056502D02*
X2627210Y-2046978D01*
X2627210Y-2046978D02*
X2617686Y-2037454D01*
X2817686Y-1875549D02*
X2827210Y-1866026D01*
X2827210Y-1866026D02*
X2846257Y-1856502D01*
X2846257Y-1856502D02*
X2893876Y-1856502D01*
X2893876Y-1856502D02*
X2912924Y-1866026D01*
X2912924Y-1866026D02*
X2922448Y-1875549D01*
X2922448Y-1875549D02*
X2931971Y-1894597D01*
X2931971Y-1894597D02*
X2931971Y-1913645D01*
X2931971Y-1913645D02*
X2922448Y-1942216D01*
X2922448Y-1942216D02*
X2808162Y-2056502D01*
X2808162Y-2056502D02*
X2931971Y-2056502D01*
X3055781Y-1856502D02*
X3074829Y-1856502D01*
X3074829Y-1856502D02*
X3093876Y-1866026D01*
X3093876Y-1866026D02*
X3103400Y-1875549D01*
X3103400Y-1875549D02*
X3112924Y-1894597D01*
X3112924Y-1894597D02*
X3122448Y-1932692D01*
X3122448Y-1932692D02*
X3122448Y-1980311D01*
X3122448Y-1980311D02*
X3112924Y-2018406D01*
X3112924Y-2018406D02*
X3103400Y-2037454D01*
X3103400Y-2037454D02*
X3093876Y-2046978D01*
X3093876Y-2046978D02*
X3074829Y-2056502D01*
X3074829Y-2056502D02*
X3055781Y-2056502D01*
X3055781Y-2056502D02*
X3036733Y-2046978D01*
X3036733Y-2046978D02*
X3027210Y-2037454D01*
X3027210Y-2037454D02*
X3017686Y-2018406D01*
X3017686Y-2018406D02*
X3008162Y-1980311D01*
X3008162Y-1980311D02*
X3008162Y-1932692D01*
X3008162Y-1932692D02*
X3017686Y-1894597D01*
X3017686Y-1894597D02*
X3027210Y-1875549D01*
X3027210Y-1875549D02*
X3036733Y-1866026D01*
X3036733Y-1866026D02*
X3055781Y-1856502D01*
X3198638Y-1856502D02*
X3198638Y-1894597D01*
X3274829Y-1856502D02*
X3274829Y-1894597D01*
X3570067Y-2132692D02*
X3560543Y-2123168D01*
X3560543Y-2123168D02*
X3541495Y-2094597D01*
X3541495Y-2094597D02*
X3531972Y-2075549D01*
X3531972Y-2075549D02*
X3522448Y-2046978D01*
X3522448Y-2046978D02*
X3512924Y-1999359D01*
X3512924Y-1999359D02*
X3512924Y-1961264D01*
X3512924Y-1961264D02*
X3522448Y-1913645D01*
X3522448Y-1913645D02*
X3531972Y-1885073D01*
X3531972Y-1885073D02*
X3541495Y-1866026D01*
X3541495Y-1866026D02*
X3560543Y-1837454D01*
X3560543Y-1837454D02*
X3570067Y-1827930D01*
X3731972Y-1923168D02*
X3731972Y-2056502D01*
X3684352Y-1846978D02*
X3636733Y-1989835D01*
X3636733Y-1989835D02*
X3760543Y-1989835D01*
X3989114Y-2056502D02*
X3989114Y-1856502D01*
X4074829Y-2056502D02*
X4074829Y-1951740D01*
X4074829Y-1951740D02*
X4065305Y-1932692D01*
X4065305Y-1932692D02*
X4046257Y-1923168D01*
X4046257Y-1923168D02*
X4017686Y-1923168D01*
X4017686Y-1923168D02*
X3998638Y-1932692D01*
X3998638Y-1932692D02*
X3989114Y-1942216D01*
X4198638Y-2056502D02*
X4179591Y-2046978D01*
X4179591Y-2046978D02*
X4170067Y-2037454D01*
X4170067Y-2037454D02*
X4160543Y-2018406D01*
X4160543Y-2018406D02*
X4160543Y-1961264D01*
X4160543Y-1961264D02*
X4170067Y-1942216D01*
X4170067Y-1942216D02*
X4179591Y-1932692D01*
X4179591Y-1932692D02*
X4198638Y-1923168D01*
X4198638Y-1923168D02*
X4227210Y-1923168D01*
X4227210Y-1923168D02*
X4246257Y-1932692D01*
X4246257Y-1932692D02*
X4255781Y-1942216D01*
X4255781Y-1942216D02*
X4265305Y-1961264D01*
X4265305Y-1961264D02*
X4265305Y-2018406D01*
X4265305Y-2018406D02*
X4255781Y-2037454D01*
X4255781Y-2037454D02*
X4246257Y-2046978D01*
X4246257Y-2046978D02*
X4227210Y-2056502D01*
X4227210Y-2056502D02*
X4198638Y-2056502D01*
X4379591Y-2056502D02*
X4360543Y-2046978D01*
X4360543Y-2046978D02*
X4351019Y-2027930D01*
X4351019Y-2027930D02*
X4351019Y-1856502D01*
X4531972Y-2046978D02*
X4512924Y-2056502D01*
X4512924Y-2056502D02*
X4474829Y-2056502D01*
X4474829Y-2056502D02*
X4455781Y-2046978D01*
X4455781Y-2046978D02*
X4446257Y-2027930D01*
X4446257Y-2027930D02*
X4446257Y-1951740D01*
X4446257Y-1951740D02*
X4455781Y-1932692D01*
X4455781Y-1932692D02*
X4474829Y-1923168D01*
X4474829Y-1923168D02*
X4512924Y-1923168D01*
X4512924Y-1923168D02*
X4531972Y-1932692D01*
X4531972Y-1932692D02*
X4541496Y-1951740D01*
X4541496Y-1951740D02*
X4541496Y-1970787D01*
X4541496Y-1970787D02*
X4446257Y-1989835D01*
X4617686Y-2046978D02*
X4636734Y-2056502D01*
X4636734Y-2056502D02*
X4674829Y-2056502D01*
X4674829Y-2056502D02*
X4693877Y-2046978D01*
X4693877Y-2046978D02*
X4703400Y-2027930D01*
X4703400Y-2027930D02*
X4703400Y-2018406D01*
X4703400Y-2018406D02*
X4693877Y-1999359D01*
X4693877Y-1999359D02*
X4674829Y-1989835D01*
X4674829Y-1989835D02*
X4646257Y-1989835D01*
X4646257Y-1989835D02*
X4627210Y-1980311D01*
X4627210Y-1980311D02*
X4617686Y-1961264D01*
X4617686Y-1961264D02*
X4617686Y-1951740D01*
X4617686Y-1951740D02*
X4627210Y-1932692D01*
X4627210Y-1932692D02*
X4646257Y-1923168D01*
X4646257Y-1923168D02*
X4674829Y-1923168D01*
X4674829Y-1923168D02*
X4693877Y-1932692D01*
X4770067Y-2132692D02*
X4779591Y-2123168D01*
X4779591Y-2123168D02*
X4798638Y-2094597D01*
X4798638Y-2094597D02*
X4808162Y-2075549D01*
X4808162Y-2075549D02*
X4817686Y-2046978D01*
X4817686Y-2046978D02*
X4827210Y-1999359D01*
X4827210Y-1999359D02*
X4827210Y-1961264D01*
X4827210Y-1961264D02*
X4817686Y-1913645D01*
X4817686Y-1913645D02*
X4808162Y-1885073D01*
X4808162Y-1885073D02*
X4798638Y-1866026D01*
X4798638Y-1866026D02*
X4779591Y-1837454D01*
X4779591Y-1837454D02*
X4770067Y-1827930D01*
D10*
X-104996Y-2179018D02*
X-4996Y-2279018D01*
X-4996Y-2179018D02*
X-104996Y-2279018D01*
X-54996Y-2179018D02*
X-54996Y-2279018D01*
X-104996Y-2229018D02*
X-4996Y-2229018D01*
D11*
X360543Y-2320502D02*
X246257Y-2320502D01*
X303400Y-2320502D02*
X303400Y-2120502D01*
X303400Y-2120502D02*
X284352Y-2149073D01*
X284352Y-2149073D02*
X265305Y-2168121D01*
X265305Y-2168121D02*
X246257Y-2177645D01*
X446257Y-2301454D02*
X455781Y-2310978D01*
X455781Y-2310978D02*
X446257Y-2320502D01*
X446257Y-2320502D02*
X436733Y-2310978D01*
X436733Y-2310978D02*
X446257Y-2301454D01*
X446257Y-2301454D02*
X446257Y-2320502D01*
X579590Y-2120502D02*
X598638Y-2120502D01*
X598638Y-2120502D02*
X617686Y-2130026D01*
X617686Y-2130026D02*
X627209Y-2139549D01*
X627209Y-2139549D02*
X636733Y-2158597D01*
X636733Y-2158597D02*
X646257Y-2196692D01*
X646257Y-2196692D02*
X646257Y-2244311D01*
X646257Y-2244311D02*
X636733Y-2282407D01*
X636733Y-2282407D02*
X627209Y-2301454D01*
X627209Y-2301454D02*
X617686Y-2310978D01*
X617686Y-2310978D02*
X598638Y-2320502D01*
X598638Y-2320502D02*
X579590Y-2320502D01*
X579590Y-2320502D02*
X560543Y-2310978D01*
X560543Y-2310978D02*
X551019Y-2301454D01*
X551019Y-2301454D02*
X541495Y-2282407D01*
X541495Y-2282407D02*
X531971Y-2244311D01*
X531971Y-2244311D02*
X531971Y-2196692D01*
X531971Y-2196692D02*
X541495Y-2158597D01*
X541495Y-2158597D02*
X551019Y-2139549D01*
X551019Y-2139549D02*
X560543Y-2130026D01*
X560543Y-2130026D02*
X579590Y-2120502D01*
X770066Y-2120502D02*
X789114Y-2120502D01*
X789114Y-2120502D02*
X808162Y-2130026D01*
X808162Y-2130026D02*
X817686Y-2139549D01*
X817686Y-2139549D02*
X827209Y-2158597D01*
X827209Y-2158597D02*
X836733Y-2196692D01*
X836733Y-2196692D02*
X836733Y-2244311D01*
X836733Y-2244311D02*
X827209Y-2282407D01*
X827209Y-2282407D02*
X817686Y-2301454D01*
X817686Y-2301454D02*
X808162Y-2310978D01*
X808162Y-2310978D02*
X789114Y-2320502D01*
X789114Y-2320502D02*
X770066Y-2320502D01*
X770066Y-2320502D02*
X751019Y-2310978D01*
X751019Y-2310978D02*
X741495Y-2301454D01*
X741495Y-2301454D02*
X731971Y-2282407D01*
X731971Y-2282407D02*
X722447Y-2244311D01*
X722447Y-2244311D02*
X722447Y-2196692D01*
X722447Y-2196692D02*
X731971Y-2158597D01*
X731971Y-2158597D02*
X741495Y-2139549D01*
X741495Y-2139549D02*
X751019Y-2130026D01*
X751019Y-2130026D02*
X770066Y-2120502D01*
X960543Y-2120502D02*
X979590Y-2120502D01*
X979590Y-2120502D02*
X998638Y-2130026D01*
X998638Y-2130026D02*
X1008162Y-2139549D01*
X1008162Y-2139549D02*
X1017686Y-2158597D01*
X1017686Y-2158597D02*
X1027209Y-2196692D01*
X1027209Y-2196692D02*
X1027209Y-2244311D01*
X1027209Y-2244311D02*
X1017686Y-2282407D01*
X1017686Y-2282407D02*
X1008162Y-2301454D01*
X1008162Y-2301454D02*
X998638Y-2310978D01*
X998638Y-2310978D02*
X979590Y-2320502D01*
X979590Y-2320502D02*
X960543Y-2320502D01*
X960543Y-2320502D02*
X941495Y-2310978D01*
X941495Y-2310978D02*
X931971Y-2301454D01*
X931971Y-2301454D02*
X922447Y-2282407D01*
X922447Y-2282407D02*
X912924Y-2244311D01*
X912924Y-2244311D02*
X912924Y-2196692D01*
X912924Y-2196692D02*
X922447Y-2158597D01*
X922447Y-2158597D02*
X931971Y-2139549D01*
X931971Y-2139549D02*
X941495Y-2130026D01*
X941495Y-2130026D02*
X960543Y-2120502D01*
X1112924Y-2320502D02*
X1112924Y-2187168D01*
X1112924Y-2206216D02*
X1122448Y-2196692D01*
X1122448Y-2196692D02*
X1141495Y-2187168D01*
X1141495Y-2187168D02*
X1170067Y-2187168D01*
X1170067Y-2187168D02*
X1189114Y-2196692D01*
X1189114Y-2196692D02*
X1198638Y-2215740D01*
X1198638Y-2215740D02*
X1198638Y-2320502D01*
X1198638Y-2215740D02*
X1208162Y-2196692D01*
X1208162Y-2196692D02*
X1227209Y-2187168D01*
X1227209Y-2187168D02*
X1255781Y-2187168D01*
X1255781Y-2187168D02*
X1274829Y-2196692D01*
X1274829Y-2196692D02*
X1284352Y-2215740D01*
X1284352Y-2215740D02*
X1284352Y-2320502D01*
X1379590Y-2320502D02*
X1379590Y-2187168D01*
X1379590Y-2206216D02*
X1389114Y-2196692D01*
X1389114Y-2196692D02*
X1408162Y-2187168D01*
X1408162Y-2187168D02*
X1436733Y-2187168D01*
X1436733Y-2187168D02*
X1455781Y-2196692D01*
X1455781Y-2196692D02*
X1465305Y-2215740D01*
X1465305Y-2215740D02*
X1465305Y-2320502D01*
X1465305Y-2215740D02*
X1474828Y-2196692D01*
X1474828Y-2196692D02*
X1493876Y-2187168D01*
X1493876Y-2187168D02*
X1522447Y-2187168D01*
X1522447Y-2187168D02*
X1541495Y-2196692D01*
X1541495Y-2196692D02*
X1551019Y-2215740D01*
X1551019Y-2215740D02*
X1551019Y-2320502D01*
X1941495Y-2110978D02*
X1770067Y-2368121D01*
X2198638Y-2120502D02*
X2217686Y-2120502D01*
X2217686Y-2120502D02*
X2236733Y-2130026D01*
X2236733Y-2130026D02*
X2246257Y-2139549D01*
X2246257Y-2139549D02*
X2255781Y-2158597D01*
X2255781Y-2158597D02*
X2265305Y-2196692D01*
X2265305Y-2196692D02*
X2265305Y-2244311D01*
X2265305Y-2244311D02*
X2255781Y-2282407D01*
X2255781Y-2282407D02*
X2246257Y-2301454D01*
X2246257Y-2301454D02*
X2236733Y-2310978D01*
X2236733Y-2310978D02*
X2217686Y-2320502D01*
X2217686Y-2320502D02*
X2198638Y-2320502D01*
X2198638Y-2320502D02*
X2179591Y-2310978D01*
X2179591Y-2310978D02*
X2170067Y-2301454D01*
X2170067Y-2301454D02*
X2160543Y-2282407D01*
X2160543Y-2282407D02*
X2151019Y-2244311D01*
X2151019Y-2244311D02*
X2151019Y-2196692D01*
X2151019Y-2196692D02*
X2160543Y-2158597D01*
X2160543Y-2158597D02*
X2170067Y-2139549D01*
X2170067Y-2139549D02*
X2179591Y-2130026D01*
X2179591Y-2130026D02*
X2198638Y-2120502D01*
X2351019Y-2301454D02*
X2360543Y-2310978D01*
X2360543Y-2310978D02*
X2351019Y-2320502D01*
X2351019Y-2320502D02*
X2341495Y-2310978D01*
X2341495Y-2310978D02*
X2351019Y-2301454D01*
X2351019Y-2301454D02*
X2351019Y-2320502D01*
X2484352Y-2120502D02*
X2503400Y-2120502D01*
X2503400Y-2120502D02*
X2522448Y-2130026D01*
X2522448Y-2130026D02*
X2531972Y-2139549D01*
X2531972Y-2139549D02*
X2541495Y-2158597D01*
X2541495Y-2158597D02*
X2551019Y-2196692D01*
X2551019Y-2196692D02*
X2551019Y-2244311D01*
X2551019Y-2244311D02*
X2541495Y-2282407D01*
X2541495Y-2282407D02*
X2531972Y-2301454D01*
X2531972Y-2301454D02*
X2522448Y-2310978D01*
X2522448Y-2310978D02*
X2503400Y-2320502D01*
X2503400Y-2320502D02*
X2484352Y-2320502D01*
X2484352Y-2320502D02*
X2465305Y-2310978D01*
X2465305Y-2310978D02*
X2455781Y-2301454D01*
X2455781Y-2301454D02*
X2446257Y-2282407D01*
X2446257Y-2282407D02*
X2436733Y-2244311D01*
X2436733Y-2244311D02*
X2436733Y-2196692D01*
X2436733Y-2196692D02*
X2446257Y-2158597D01*
X2446257Y-2158597D02*
X2455781Y-2139549D01*
X2455781Y-2139549D02*
X2465305Y-2130026D01*
X2465305Y-2130026D02*
X2484352Y-2120502D01*
X2617686Y-2120502D02*
X2741495Y-2120502D01*
X2741495Y-2120502D02*
X2674829Y-2196692D01*
X2674829Y-2196692D02*
X2703400Y-2196692D01*
X2703400Y-2196692D02*
X2722448Y-2206216D01*
X2722448Y-2206216D02*
X2731972Y-2215740D01*
X2731972Y-2215740D02*
X2741495Y-2234788D01*
X2741495Y-2234788D02*
X2741495Y-2282407D01*
X2741495Y-2282407D02*
X2731972Y-2301454D01*
X2731972Y-2301454D02*
X2722448Y-2310978D01*
X2722448Y-2310978D02*
X2703400Y-2320502D01*
X2703400Y-2320502D02*
X2646257Y-2320502D01*
X2646257Y-2320502D02*
X2627210Y-2310978D01*
X2627210Y-2310978D02*
X2617686Y-2301454D01*
X2836733Y-2320502D02*
X2874829Y-2320502D01*
X2874829Y-2320502D02*
X2893876Y-2310978D01*
X2893876Y-2310978D02*
X2903400Y-2301454D01*
X2903400Y-2301454D02*
X2922448Y-2272883D01*
X2922448Y-2272883D02*
X2931971Y-2234788D01*
X2931971Y-2234788D02*
X2931971Y-2158597D01*
X2931971Y-2158597D02*
X2922448Y-2139549D01*
X2922448Y-2139549D02*
X2912924Y-2130026D01*
X2912924Y-2130026D02*
X2893876Y-2120502D01*
X2893876Y-2120502D02*
X2855781Y-2120502D01*
X2855781Y-2120502D02*
X2836733Y-2130026D01*
X2836733Y-2130026D02*
X2827210Y-2139549D01*
X2827210Y-2139549D02*
X2817686Y-2158597D01*
X2817686Y-2158597D02*
X2817686Y-2206216D01*
X2817686Y-2206216D02*
X2827210Y-2225264D01*
X2827210Y-2225264D02*
X2836733Y-2234788D01*
X2836733Y-2234788D02*
X2855781Y-2244311D01*
X2855781Y-2244311D02*
X2893876Y-2244311D01*
X2893876Y-2244311D02*
X2912924Y-2234788D01*
X2912924Y-2234788D02*
X2922448Y-2225264D01*
X2922448Y-2225264D02*
X2931971Y-2206216D01*
X3103400Y-2187168D02*
X3103400Y-2320502D01*
X3055781Y-2110978D02*
X3008162Y-2253835D01*
X3008162Y-2253835D02*
X3131971Y-2253835D01*
X3198638Y-2120502D02*
X3198638Y-2158597D01*
X3274829Y-2120502D02*
X3274829Y-2158597D01*
X3570067Y-2396692D02*
X3560543Y-2387168D01*
X3560543Y-2387168D02*
X3541495Y-2358597D01*
X3541495Y-2358597D02*
X3531972Y-2339549D01*
X3531972Y-2339549D02*
X3522448Y-2310978D01*
X3522448Y-2310978D02*
X3512924Y-2263359D01*
X3512924Y-2263359D02*
X3512924Y-2225264D01*
X3512924Y-2225264D02*
X3522448Y-2177645D01*
X3522448Y-2177645D02*
X3531972Y-2149073D01*
X3531972Y-2149073D02*
X3541495Y-2130026D01*
X3541495Y-2130026D02*
X3560543Y-2101454D01*
X3560543Y-2101454D02*
X3570067Y-2091930D01*
X3751019Y-2320502D02*
X3636733Y-2320502D01*
X3693876Y-2320502D02*
X3693876Y-2120502D01*
X3693876Y-2120502D02*
X3674829Y-2149073D01*
X3674829Y-2149073D02*
X3655781Y-2168121D01*
X3655781Y-2168121D02*
X3636733Y-2177645D01*
X3941495Y-2320502D02*
X3827210Y-2320502D01*
X3884352Y-2320502D02*
X3884352Y-2120502D01*
X3884352Y-2120502D02*
X3865305Y-2149073D01*
X3865305Y-2149073D02*
X3846257Y-2168121D01*
X3846257Y-2168121D02*
X3827210Y-2177645D01*
X4179591Y-2320502D02*
X4179591Y-2120502D01*
X4265305Y-2320502D02*
X4265305Y-2215740D01*
X4265305Y-2215740D02*
X4255781Y-2196692D01*
X4255781Y-2196692D02*
X4236734Y-2187168D01*
X4236734Y-2187168D02*
X4208162Y-2187168D01*
X4208162Y-2187168D02*
X4189114Y-2196692D01*
X4189114Y-2196692D02*
X4179591Y-2206216D01*
X4389115Y-2320502D02*
X4370067Y-2310978D01*
X4370067Y-2310978D02*
X4360543Y-2301454D01*
X4360543Y-2301454D02*
X4351019Y-2282407D01*
X4351019Y-2282407D02*
X4351019Y-2225264D01*
X4351019Y-2225264D02*
X4360543Y-2206216D01*
X4360543Y-2206216D02*
X4370067Y-2196692D01*
X4370067Y-2196692D02*
X4389115Y-2187168D01*
X4389115Y-2187168D02*
X4417686Y-2187168D01*
X4417686Y-2187168D02*
X4436734Y-2196692D01*
X4436734Y-2196692D02*
X4446257Y-2206216D01*
X4446257Y-2206216D02*
X4455781Y-2225264D01*
X4455781Y-2225264D02*
X4455781Y-2282407D01*
X4455781Y-2282407D02*
X4446257Y-2301454D01*
X4446257Y-2301454D02*
X4436734Y-2310978D01*
X4436734Y-2310978D02*
X4417686Y-2320502D01*
X4417686Y-2320502D02*
X4389115Y-2320502D01*
X4570067Y-2320502D02*
X4551019Y-2310978D01*
X4551019Y-2310978D02*
X4541496Y-2291930D01*
X4541496Y-2291930D02*
X4541496Y-2120502D01*
X4722448Y-2310978D02*
X4703400Y-2320502D01*
X4703400Y-2320502D02*
X4665305Y-2320502D01*
X4665305Y-2320502D02*
X4646257Y-2310978D01*
X4646257Y-2310978D02*
X4636734Y-2291930D01*
X4636734Y-2291930D02*
X4636734Y-2215740D01*
X4636734Y-2215740D02*
X4646257Y-2196692D01*
X4646257Y-2196692D02*
X4665305Y-2187168D01*
X4665305Y-2187168D02*
X4703400Y-2187168D01*
X4703400Y-2187168D02*
X4722448Y-2196692D01*
X4722448Y-2196692D02*
X4731972Y-2215740D01*
X4731972Y-2215740D02*
X4731972Y-2234788D01*
X4731972Y-2234788D02*
X4636734Y-2253835D01*
X4808162Y-2310978D02*
X4827210Y-2320502D01*
X4827210Y-2320502D02*
X4865305Y-2320502D01*
X4865305Y-2320502D02*
X4884353Y-2310978D01*
X4884353Y-2310978D02*
X4893877Y-2291930D01*
X4893877Y-2291930D02*
X4893877Y-2282407D01*
X4893877Y-2282407D02*
X4884353Y-2263359D01*
X4884353Y-2263359D02*
X4865305Y-2253835D01*
X4865305Y-2253835D02*
X4836734Y-2253835D01*
X4836734Y-2253835D02*
X4817686Y-2244311D01*
X4817686Y-2244311D02*
X4808162Y-2225264D01*
X4808162Y-2225264D02*
X4808162Y-2215740D01*
X4808162Y-2215740D02*
X4817686Y-2196692D01*
X4817686Y-2196692D02*
X4836734Y-2187168D01*
X4836734Y-2187168D02*
X4865305Y-2187168D01*
X4865305Y-2187168D02*
X4884353Y-2196692D01*
X4960543Y-2396692D02*
X4970067Y-2387168D01*
X4970067Y-2387168D02*
X4989115Y-2358597D01*
X4989115Y-2358597D02*
X4998638Y-2339549D01*
X4998638Y-2339549D02*
X5008162Y-2310978D01*
X5008162Y-2310978D02*
X5017686Y-2263359D01*
X5017686Y-2263359D02*
X5017686Y-2225264D01*
X5017686Y-2225264D02*
X5008162Y-2177645D01*
X5008162Y-2177645D02*
X4998638Y-2149073D01*
X4998638Y-2149073D02*
X4989115Y-2130026D01*
X4989115Y-2130026D02*
X4970067Y-2101454D01*
X4970067Y-2101454D02*
X4960543Y-2091930D01*
D18*
X-151996Y-2419518D02*
X-4996Y-2566518D01*
X-4996Y-2419518D02*
X-151996Y-2566518D01*
X-26523Y-2544991D02*
X-26523Y-2441045D01*
X-130469Y-2441045D01*
X-130469Y-2544991D01*
X-26523Y-2544991D01*
D11*
X360543Y-2584502D02*
X246257Y-2584502D01*
X303400Y-2584502D02*
X303400Y-2384502D01*
X303400Y-2384502D02*
X284352Y-2413073D01*
X284352Y-2413073D02*
X265305Y-2432121D01*
X265305Y-2432121D02*
X246257Y-2441645D01*
X446257Y-2565454D02*
X455781Y-2574978D01*
X455781Y-2574978D02*
X446257Y-2584502D01*
X446257Y-2584502D02*
X436733Y-2574978D01*
X436733Y-2574978D02*
X446257Y-2565454D01*
X446257Y-2565454D02*
X446257Y-2584502D01*
X627209Y-2451168D02*
X627209Y-2584502D01*
X579590Y-2374978D02*
X531971Y-2517835D01*
X531971Y-2517835D02*
X655781Y-2517835D01*
X712924Y-2384502D02*
X846257Y-2384502D01*
X846257Y-2384502D02*
X760543Y-2584502D01*
X960543Y-2384502D02*
X979590Y-2384502D01*
X979590Y-2384502D02*
X998638Y-2394026D01*
X998638Y-2394026D02*
X1008162Y-2403549D01*
X1008162Y-2403549D02*
X1017686Y-2422597D01*
X1017686Y-2422597D02*
X1027209Y-2460692D01*
X1027209Y-2460692D02*
X1027209Y-2508311D01*
X1027209Y-2508311D02*
X1017686Y-2546407D01*
X1017686Y-2546407D02*
X1008162Y-2565454D01*
X1008162Y-2565454D02*
X998638Y-2574978D01*
X998638Y-2574978D02*
X979590Y-2584502D01*
X979590Y-2584502D02*
X960543Y-2584502D01*
X960543Y-2584502D02*
X941495Y-2574978D01*
X941495Y-2574978D02*
X931971Y-2565454D01*
X931971Y-2565454D02*
X922447Y-2546407D01*
X922447Y-2546407D02*
X912924Y-2508311D01*
X912924Y-2508311D02*
X912924Y-2460692D01*
X912924Y-2460692D02*
X922447Y-2422597D01*
X922447Y-2422597D02*
X931971Y-2403549D01*
X931971Y-2403549D02*
X941495Y-2394026D01*
X941495Y-2394026D02*
X960543Y-2384502D01*
X1112924Y-2584502D02*
X1112924Y-2451168D01*
X1112924Y-2470216D02*
X1122448Y-2460692D01*
X1122448Y-2460692D02*
X1141495Y-2451168D01*
X1141495Y-2451168D02*
X1170067Y-2451168D01*
X1170067Y-2451168D02*
X1189114Y-2460692D01*
X1189114Y-2460692D02*
X1198638Y-2479740D01*
X1198638Y-2479740D02*
X1198638Y-2584502D01*
X1198638Y-2479740D02*
X1208162Y-2460692D01*
X1208162Y-2460692D02*
X1227209Y-2451168D01*
X1227209Y-2451168D02*
X1255781Y-2451168D01*
X1255781Y-2451168D02*
X1274829Y-2460692D01*
X1274829Y-2460692D02*
X1284352Y-2479740D01*
X1284352Y-2479740D02*
X1284352Y-2584502D01*
X1379590Y-2584502D02*
X1379590Y-2451168D01*
X1379590Y-2470216D02*
X1389114Y-2460692D01*
X1389114Y-2460692D02*
X1408162Y-2451168D01*
X1408162Y-2451168D02*
X1436733Y-2451168D01*
X1436733Y-2451168D02*
X1455781Y-2460692D01*
X1455781Y-2460692D02*
X1465305Y-2479740D01*
X1465305Y-2479740D02*
X1465305Y-2584502D01*
X1465305Y-2479740D02*
X1474828Y-2460692D01*
X1474828Y-2460692D02*
X1493876Y-2451168D01*
X1493876Y-2451168D02*
X1522447Y-2451168D01*
X1522447Y-2451168D02*
X1541495Y-2460692D01*
X1541495Y-2460692D02*
X1551019Y-2479740D01*
X1551019Y-2479740D02*
X1551019Y-2584502D01*
X1941495Y-2374978D02*
X1770067Y-2632121D01*
X2198638Y-2384502D02*
X2217686Y-2384502D01*
X2217686Y-2384502D02*
X2236733Y-2394026D01*
X2236733Y-2394026D02*
X2246257Y-2403549D01*
X2246257Y-2403549D02*
X2255781Y-2422597D01*
X2255781Y-2422597D02*
X2265305Y-2460692D01*
X2265305Y-2460692D02*
X2265305Y-2508311D01*
X2265305Y-2508311D02*
X2255781Y-2546407D01*
X2255781Y-2546407D02*
X2246257Y-2565454D01*
X2246257Y-2565454D02*
X2236733Y-2574978D01*
X2236733Y-2574978D02*
X2217686Y-2584502D01*
X2217686Y-2584502D02*
X2198638Y-2584502D01*
X2198638Y-2584502D02*
X2179591Y-2574978D01*
X2179591Y-2574978D02*
X2170067Y-2565454D01*
X2170067Y-2565454D02*
X2160543Y-2546407D01*
X2160543Y-2546407D02*
X2151019Y-2508311D01*
X2151019Y-2508311D02*
X2151019Y-2460692D01*
X2151019Y-2460692D02*
X2160543Y-2422597D01*
X2160543Y-2422597D02*
X2170067Y-2403549D01*
X2170067Y-2403549D02*
X2179591Y-2394026D01*
X2179591Y-2394026D02*
X2198638Y-2384502D01*
X2351019Y-2565454D02*
X2360543Y-2574978D01*
X2360543Y-2574978D02*
X2351019Y-2584502D01*
X2351019Y-2584502D02*
X2341495Y-2574978D01*
X2341495Y-2574978D02*
X2351019Y-2565454D01*
X2351019Y-2565454D02*
X2351019Y-2584502D01*
X2484352Y-2384502D02*
X2503400Y-2384502D01*
X2503400Y-2384502D02*
X2522448Y-2394026D01*
X2522448Y-2394026D02*
X2531972Y-2403549D01*
X2531972Y-2403549D02*
X2541495Y-2422597D01*
X2541495Y-2422597D02*
X2551019Y-2460692D01*
X2551019Y-2460692D02*
X2551019Y-2508311D01*
X2551019Y-2508311D02*
X2541495Y-2546407D01*
X2541495Y-2546407D02*
X2531972Y-2565454D01*
X2531972Y-2565454D02*
X2522448Y-2574978D01*
X2522448Y-2574978D02*
X2503400Y-2584502D01*
X2503400Y-2584502D02*
X2484352Y-2584502D01*
X2484352Y-2584502D02*
X2465305Y-2574978D01*
X2465305Y-2574978D02*
X2455781Y-2565454D01*
X2455781Y-2565454D02*
X2446257Y-2546407D01*
X2446257Y-2546407D02*
X2436733Y-2508311D01*
X2436733Y-2508311D02*
X2436733Y-2460692D01*
X2436733Y-2460692D02*
X2446257Y-2422597D01*
X2446257Y-2422597D02*
X2455781Y-2403549D01*
X2455781Y-2403549D02*
X2465305Y-2394026D01*
X2465305Y-2394026D02*
X2484352Y-2384502D01*
X2731972Y-2384502D02*
X2636733Y-2384502D01*
X2636733Y-2384502D02*
X2627210Y-2479740D01*
X2627210Y-2479740D02*
X2636733Y-2470216D01*
X2636733Y-2470216D02*
X2655781Y-2460692D01*
X2655781Y-2460692D02*
X2703400Y-2460692D01*
X2703400Y-2460692D02*
X2722448Y-2470216D01*
X2722448Y-2470216D02*
X2731972Y-2479740D01*
X2731972Y-2479740D02*
X2741495Y-2498788D01*
X2741495Y-2498788D02*
X2741495Y-2546407D01*
X2741495Y-2546407D02*
X2731972Y-2565454D01*
X2731972Y-2565454D02*
X2722448Y-2574978D01*
X2722448Y-2574978D02*
X2703400Y-2584502D01*
X2703400Y-2584502D02*
X2655781Y-2584502D01*
X2655781Y-2584502D02*
X2636733Y-2574978D01*
X2636733Y-2574978D02*
X2627210Y-2565454D01*
X2808162Y-2384502D02*
X2941495Y-2384502D01*
X2941495Y-2384502D02*
X2855781Y-2584502D01*
X3027210Y-2584502D02*
X3065305Y-2584502D01*
X3065305Y-2584502D02*
X3084352Y-2574978D01*
X3084352Y-2574978D02*
X3093876Y-2565454D01*
X3093876Y-2565454D02*
X3112924Y-2536883D01*
X3112924Y-2536883D02*
X3122448Y-2498788D01*
X3122448Y-2498788D02*
X3122448Y-2422597D01*
X3122448Y-2422597D02*
X3112924Y-2403549D01*
X3112924Y-2403549D02*
X3103400Y-2394026D01*
X3103400Y-2394026D02*
X3084352Y-2384502D01*
X3084352Y-2384502D02*
X3046257Y-2384502D01*
X3046257Y-2384502D02*
X3027210Y-2394026D01*
X3027210Y-2394026D02*
X3017686Y-2403549D01*
X3017686Y-2403549D02*
X3008162Y-2422597D01*
X3008162Y-2422597D02*
X3008162Y-2470216D01*
X3008162Y-2470216D02*
X3017686Y-2489264D01*
X3017686Y-2489264D02*
X3027210Y-2498788D01*
X3027210Y-2498788D02*
X3046257Y-2508311D01*
X3046257Y-2508311D02*
X3084352Y-2508311D01*
X3084352Y-2508311D02*
X3103400Y-2498788D01*
X3103400Y-2498788D02*
X3112924Y-2489264D01*
X3112924Y-2489264D02*
X3122448Y-2470216D01*
X3198638Y-2384502D02*
X3198638Y-2422597D01*
X3274829Y-2384502D02*
X3274829Y-2422597D01*
X3570067Y-2660692D02*
X3560543Y-2651168D01*
X3560543Y-2651168D02*
X3541495Y-2622597D01*
X3541495Y-2622597D02*
X3531972Y-2603549D01*
X3531972Y-2603549D02*
X3522448Y-2574978D01*
X3522448Y-2574978D02*
X3512924Y-2527359D01*
X3512924Y-2527359D02*
X3512924Y-2489264D01*
X3512924Y-2489264D02*
X3522448Y-2441645D01*
X3522448Y-2441645D02*
X3531972Y-2413073D01*
X3531972Y-2413073D02*
X3541495Y-2394026D01*
X3541495Y-2394026D02*
X3560543Y-2365454D01*
X3560543Y-2365454D02*
X3570067Y-2355930D01*
X3751019Y-2584502D02*
X3636733Y-2584502D01*
X3693876Y-2584502D02*
X3693876Y-2384502D01*
X3693876Y-2384502D02*
X3674829Y-2413073D01*
X3674829Y-2413073D02*
X3655781Y-2432121D01*
X3655781Y-2432121D02*
X3636733Y-2441645D01*
X3827210Y-2403549D02*
X3836733Y-2394026D01*
X3836733Y-2394026D02*
X3855781Y-2384502D01*
X3855781Y-2384502D02*
X3903400Y-2384502D01*
X3903400Y-2384502D02*
X3922448Y-2394026D01*
X3922448Y-2394026D02*
X3931972Y-2403549D01*
X3931972Y-2403549D02*
X3941495Y-2422597D01*
X3941495Y-2422597D02*
X3941495Y-2441645D01*
X3941495Y-2441645D02*
X3931972Y-2470216D01*
X3931972Y-2470216D02*
X3817686Y-2584502D01*
X3817686Y-2584502D02*
X3941495Y-2584502D01*
X4065305Y-2384502D02*
X4084353Y-2384502D01*
X4084353Y-2384502D02*
X4103400Y-2394026D01*
X4103400Y-2394026D02*
X4112924Y-2403549D01*
X4112924Y-2403549D02*
X4122448Y-2422597D01*
X4122448Y-2422597D02*
X4131972Y-2460692D01*
X4131972Y-2460692D02*
X4131972Y-2508311D01*
X4131972Y-2508311D02*
X4122448Y-2546407D01*
X4122448Y-2546407D02*
X4112924Y-2565454D01*
X4112924Y-2565454D02*
X4103400Y-2574978D01*
X4103400Y-2574978D02*
X4084353Y-2584502D01*
X4084353Y-2584502D02*
X4065305Y-2584502D01*
X4065305Y-2584502D02*
X4046257Y-2574978D01*
X4046257Y-2574978D02*
X4036733Y-2565454D01*
X4036733Y-2565454D02*
X4027210Y-2546407D01*
X4027210Y-2546407D02*
X4017686Y-2508311D01*
X4017686Y-2508311D02*
X4017686Y-2460692D01*
X4017686Y-2460692D02*
X4027210Y-2422597D01*
X4027210Y-2422597D02*
X4036733Y-2403549D01*
X4036733Y-2403549D02*
X4046257Y-2394026D01*
X4046257Y-2394026D02*
X4065305Y-2384502D01*
X4370067Y-2584502D02*
X4370067Y-2384502D01*
X4455781Y-2584502D02*
X4455781Y-2479740D01*
X4455781Y-2479740D02*
X4446257Y-2460692D01*
X4446257Y-2460692D02*
X4427210Y-2451168D01*
X4427210Y-2451168D02*
X4398638Y-2451168D01*
X4398638Y-2451168D02*
X4379591Y-2460692D01*
X4379591Y-2460692D02*
X4370067Y-2470216D01*
X4579591Y-2584502D02*
X4560543Y-2574978D01*
X4560543Y-2574978D02*
X4551019Y-2565454D01*
X4551019Y-2565454D02*
X4541496Y-2546407D01*
X4541496Y-2546407D02*
X4541496Y-2489264D01*
X4541496Y-2489264D02*
X4551019Y-2470216D01*
X4551019Y-2470216D02*
X4560543Y-2460692D01*
X4560543Y-2460692D02*
X4579591Y-2451168D01*
X4579591Y-2451168D02*
X4608162Y-2451168D01*
X4608162Y-2451168D02*
X4627210Y-2460692D01*
X4627210Y-2460692D02*
X4636734Y-2470216D01*
X4636734Y-2470216D02*
X4646257Y-2489264D01*
X4646257Y-2489264D02*
X4646257Y-2546407D01*
X4646257Y-2546407D02*
X4636734Y-2565454D01*
X4636734Y-2565454D02*
X4627210Y-2574978D01*
X4627210Y-2574978D02*
X4608162Y-2584502D01*
X4608162Y-2584502D02*
X4579591Y-2584502D01*
X4760543Y-2584502D02*
X4741496Y-2574978D01*
X4741496Y-2574978D02*
X4731972Y-2555930D01*
X4731972Y-2555930D02*
X4731972Y-2384502D01*
X4912924Y-2574978D02*
X4893877Y-2584502D01*
X4893877Y-2584502D02*
X4855781Y-2584502D01*
X4855781Y-2584502D02*
X4836734Y-2574978D01*
X4836734Y-2574978D02*
X4827210Y-2555930D01*
X4827210Y-2555930D02*
X4827210Y-2479740D01*
X4827210Y-2479740D02*
X4836734Y-2460692D01*
X4836734Y-2460692D02*
X4855781Y-2451168D01*
X4855781Y-2451168D02*
X4893877Y-2451168D01*
X4893877Y-2451168D02*
X4912924Y-2460692D01*
X4912924Y-2460692D02*
X4922448Y-2479740D01*
X4922448Y-2479740D02*
X4922448Y-2498788D01*
X4922448Y-2498788D02*
X4827210Y-2517835D01*
X4998638Y-2574978D02*
X5017686Y-2584502D01*
X5017686Y-2584502D02*
X5055781Y-2584502D01*
X5055781Y-2584502D02*
X5074829Y-2574978D01*
X5074829Y-2574978D02*
X5084353Y-2555930D01*
X5084353Y-2555930D02*
X5084353Y-2546407D01*
X5084353Y-2546407D02*
X5074829Y-2527359D01*
X5074829Y-2527359D02*
X5055781Y-2517835D01*
X5055781Y-2517835D02*
X5027210Y-2517835D01*
X5027210Y-2517835D02*
X5008162Y-2508311D01*
X5008162Y-2508311D02*
X4998638Y-2489264D01*
X4998638Y-2489264D02*
X4998638Y-2479740D01*
X4998638Y-2479740D02*
X5008162Y-2460692D01*
X5008162Y-2460692D02*
X5027210Y-2451168D01*
X5027210Y-2451168D02*
X5055781Y-2451168D01*
X5055781Y-2451168D02*
X5074829Y-2460692D01*
X5151019Y-2660692D02*
X5160543Y-2651168D01*
X5160543Y-2651168D02*
X5179591Y-2622597D01*
X5179591Y-2622597D02*
X5189115Y-2603549D01*
X5189115Y-2603549D02*
X5198638Y-2574978D01*
X5198638Y-2574978D02*
X5208162Y-2527359D01*
X5208162Y-2527359D02*
X5208162Y-2489264D01*
X5208162Y-2489264D02*
X5198638Y-2441645D01*
X5198638Y-2441645D02*
X5189115Y-2413073D01*
X5189115Y-2413073D02*
X5179591Y-2394026D01*
X5179591Y-2394026D02*
X5160543Y-2365454D01*
X5160543Y-2365454D02*
X5151019Y-2355930D01*
M02*
