%TF.GenerationSoftware,KiCad,Pcbnew,7.0.6*%
%TF.CreationDate,2023-08-25T16:13:21-04:00*%
%TF.ProjectId,Vault45_alpha,5661756c-7434-4355-9f61-6c7068612e6b,rev?*%
%TF.SameCoordinates,PX198c50aPY6631428*%
%TF.FileFunction,Soldermask,Top*%
%TF.FilePolarity,Negative*%
%FSLAX46Y46*%
G04 Gerber Fmt 4.6, Leading zero omitted, Abs format (unit mm)*
G04 Created by KiCad (PCBNEW 7.0.6) date 2023-08-25 16:13:21*
%MOMM*%
%LPD*%
G01*
G04 APERTURE LIST*
G04 Aperture macros list*
%AMRoundRect*
0 Rectangle with rounded corners*
0 $1 Rounding radius*
0 $2 $3 $4 $5 $6 $7 $8 $9 X,Y pos of 4 corners*
0 Add a 4 corners polygon primitive as box body*
4,1,4,$2,$3,$4,$5,$6,$7,$8,$9,$2,$3,0*
0 Add four circle primitives for the rounded corners*
1,1,$1+$1,$2,$3*
1,1,$1+$1,$4,$5*
1,1,$1+$1,$6,$7*
1,1,$1+$1,$8,$9*
0 Add four rect primitives between the rounded corners*
20,1,$1+$1,$2,$3,$4,$5,0*
20,1,$1+$1,$4,$5,$6,$7,0*
20,1,$1+$1,$6,$7,$8,$9,0*
20,1,$1+$1,$8,$9,$2,$3,0*%
G04 Aperture macros list end*
%ADD10C,1.750000*%
%ADD11C,3.987800*%
%ADD12O,1.500000X2.800000*%
%ADD13R,2.000000X2.000000*%
%ADD14C,2.000000*%
%ADD15R,1.100000X1.800000*%
%ADD16R,1.000000X1.000000*%
%ADD17C,0.650000*%
%ADD18O,0.800000X1.600000*%
%ADD19O,1.000000X2.100000*%
%ADD20RoundRect,0.250000X-0.600000X-0.600000X0.600000X-0.600000X0.600000X0.600000X-0.600000X0.600000X0*%
%ADD21C,1.700000*%
G04 APERTURE END LIST*
D10*
X71120000Y28575000D03*
D11*
X76200000Y28575000D03*
D10*
X81280000Y28575000D03*
X30638750Y9525000D03*
D11*
X35718750Y9525000D03*
D10*
X40798750Y9525000D03*
X90170000Y28575000D03*
D11*
X95250000Y28575000D03*
D10*
X100330000Y28575000D03*
X202088750Y9525000D03*
D11*
X207168750Y9525000D03*
D10*
X212248750Y9525000D03*
X204470000Y28575000D03*
D11*
X209550000Y28575000D03*
D10*
X214630000Y28575000D03*
X156845000Y47625000D03*
D11*
X161925000Y47625000D03*
D10*
X167005000Y47625000D03*
D12*
X138950000Y28598299D03*
X127750000Y28635599D03*
D13*
X130850000Y21098299D03*
D14*
X135850000Y21098299D03*
X133350000Y21098299D03*
X135850000Y35598299D03*
X130850000Y35598299D03*
D10*
X194945000Y66675000D03*
D11*
X200025000Y66675000D03*
D10*
X205105000Y66675000D03*
X223520000Y28575000D03*
D11*
X228600000Y28575000D03*
D10*
X233680000Y28575000D03*
X73501250Y9525000D03*
D11*
X78581250Y9525000D03*
D10*
X83661250Y9525000D03*
X4445000Y66675000D03*
D11*
X9525000Y66675000D03*
D10*
X14605000Y66675000D03*
D15*
X55300048Y60598491D03*
X55300048Y66798491D03*
X59000048Y60598491D03*
X59000048Y66798491D03*
D10*
X185420000Y9525000D03*
D11*
X190500000Y9525000D03*
D10*
X195580000Y9525000D03*
X61595000Y9525000D03*
D11*
X66675000Y9525000D03*
D10*
X71755000Y9525000D03*
X213995000Y66675000D03*
D11*
X219075000Y66675000D03*
D10*
X224155000Y66675000D03*
D16*
X123825000Y44450000D03*
D10*
X54451250Y9525000D03*
D11*
X59531250Y9525000D03*
D10*
X64611250Y9525000D03*
X175895000Y66675000D03*
D11*
X180975000Y66675000D03*
D10*
X186055000Y66675000D03*
X185420000Y28575000D03*
D11*
X190500000Y28575000D03*
D10*
X195580000Y28575000D03*
X194945000Y47625000D03*
D11*
X200025000Y47625000D03*
D10*
X205105000Y47625000D03*
X156845000Y66675000D03*
D11*
X161925000Y66675000D03*
D10*
X167005000Y66675000D03*
X23495000Y47625000D03*
D11*
X28575000Y47625000D03*
D10*
X33655000Y47625000D03*
X11588750Y28575000D03*
D11*
X16668750Y28575000D03*
D10*
X21748750Y28575000D03*
X175895000Y9525000D03*
D11*
X180975000Y9525000D03*
D10*
X186055000Y9525000D03*
X35401250Y9525000D03*
D11*
X40481250Y9525000D03*
D10*
X45561250Y9525000D03*
X80645000Y9525000D03*
D11*
X85725000Y9525000D03*
D10*
X90805000Y9525000D03*
D16*
X121443750Y44450000D03*
D10*
X61595000Y47625000D03*
D11*
X66675000Y47625000D03*
D10*
X71755000Y47625000D03*
X128270000Y28575000D03*
D11*
X133350000Y28575000D03*
D10*
X138430000Y28575000D03*
X52070000Y9525000D03*
D11*
X57150000Y9525000D03*
D10*
X62230000Y9525000D03*
X42545000Y47625000D03*
D11*
X47625000Y47625000D03*
D10*
X52705000Y47625000D03*
D16*
X119062500Y44450000D03*
D10*
X213995000Y47625000D03*
D11*
X219075000Y47625000D03*
D10*
X224155000Y47625000D03*
X161607500Y9525000D03*
D11*
X166687500Y9525000D03*
D10*
X171767500Y9525000D03*
X137795000Y47625000D03*
D11*
X142875000Y47625000D03*
D10*
X147955000Y47625000D03*
X33020000Y28575000D03*
D11*
X38100000Y28575000D03*
D10*
X43180000Y28575000D03*
D16*
X126206250Y44450000D03*
D10*
X102076250Y9525000D03*
D11*
X107156250Y9525000D03*
D10*
X112236250Y9525000D03*
X147320000Y28575000D03*
D11*
X152400000Y28575000D03*
D10*
X157480000Y28575000D03*
X99695000Y66675000D03*
D11*
X104775000Y66675000D03*
D10*
X109855000Y66675000D03*
X4445000Y47625000D03*
D11*
X9525000Y47625000D03*
D10*
X14605000Y47625000D03*
X104457500Y9525000D03*
D11*
X109537500Y9525000D03*
D10*
X114617500Y9525000D03*
X156845000Y9525000D03*
D11*
X161925000Y9525000D03*
D10*
X167005000Y9525000D03*
D16*
X128587500Y44450000D03*
D10*
X9207500Y28575000D03*
D11*
X14287500Y28575000D03*
D10*
X19367500Y28575000D03*
X42545000Y66675000D03*
D11*
X47625000Y66675000D03*
D10*
X52705000Y66675000D03*
X75882500Y9525000D03*
D11*
X80962500Y9525000D03*
D10*
X86042500Y9525000D03*
X99695000Y47625000D03*
D11*
X104775000Y47625000D03*
D10*
X109855000Y47625000D03*
X233045000Y66675000D03*
D11*
X238125000Y66675000D03*
D10*
X243205000Y66675000D03*
X80645000Y66675000D03*
D11*
X85725000Y66675000D03*
D10*
X90805000Y66675000D03*
X233045000Y47625000D03*
D11*
X238125000Y47625000D03*
D10*
X243205000Y47625000D03*
X228282500Y28575000D03*
D11*
X233362500Y28575000D03*
D10*
X238442500Y28575000D03*
X166370000Y28575000D03*
D11*
X171450000Y28575000D03*
D10*
X176530000Y28575000D03*
X225901250Y28575000D03*
D11*
X230981250Y28575000D03*
D10*
X236061250Y28575000D03*
X135413750Y9525000D03*
D11*
X140493750Y9525000D03*
D10*
X145573750Y9525000D03*
X206851250Y9525000D03*
D11*
X211931250Y9525000D03*
D10*
X217011250Y9525000D03*
X80645000Y47625000D03*
D11*
X85725000Y47625000D03*
D10*
X90805000Y47625000D03*
X133032500Y9525000D03*
D11*
X138112500Y9525000D03*
D10*
X143192500Y9525000D03*
X163988750Y9525000D03*
D11*
X169068750Y9525000D03*
D10*
X174148750Y9525000D03*
X137795000Y66675000D03*
D11*
X142875000Y66675000D03*
D10*
X147955000Y66675000D03*
X13970000Y28575000D03*
D11*
X19050000Y28575000D03*
D10*
X24130000Y28575000D03*
X109220000Y28575000D03*
D11*
X114300000Y28575000D03*
D10*
X119380000Y28575000D03*
X183038750Y9525000D03*
D11*
X188118750Y9525000D03*
D10*
X193198750Y9525000D03*
X52070000Y28575000D03*
D11*
X57150000Y28575000D03*
D10*
X62230000Y28575000D03*
X175895000Y47625000D03*
D11*
X180975000Y47625000D03*
D10*
X186055000Y47625000D03*
X23495000Y66675000D03*
D11*
X28575000Y66675000D03*
D10*
X33655000Y66675000D03*
X61595000Y66675000D03*
D11*
X66675000Y66675000D03*
D10*
X71755000Y66675000D03*
D17*
X35210032Y72153812D03*
X40990032Y72153812D03*
D18*
X33780032Y75803812D03*
D19*
X33780032Y71623812D03*
D18*
X42420032Y75803812D03*
D19*
X42420032Y71623812D03*
D20*
X114617500Y68897500D03*
D21*
X117157500Y68897500D03*
X114617500Y71437500D03*
X117157500Y71437500D03*
X114617500Y73977500D03*
X117157500Y73977500D03*
M02*
