%TF.GenerationSoftware,KiCad,Pcbnew,7.0.6*%
%TF.CreationDate,2023-09-02T22:40:38-04:00*%
%TF.ProjectId,Vault45_alpha,5661756c-7434-4355-9f61-6c7068612e6b,rev?*%
%TF.SameCoordinates,PX18faf56PY663131a*%
%TF.FileFunction,Legend,Top*%
%TF.FilePolarity,Positive*%
%FSLAX46Y46*%
G04 Gerber Fmt 4.6, Leading zero omitted, Abs format (unit mm)*
G04 Created by KiCad (PCBNEW 7.0.6) date 2023-09-02 22:40:38*
%MOMM*%
%LPD*%
G01*
G04 APERTURE LIST*
G04 Aperture macros list*
%AMRoundRect*
0 Rectangle with rounded corners*
0 $1 Rounding radius*
0 $2 $3 $4 $5 $6 $7 $8 $9 X,Y pos of 4 corners*
0 Add a 4 corners polygon primitive as box body*
4,1,4,$2,$3,$4,$5,$6,$7,$8,$9,$2,$3,0*
0 Add four circle primitives for the rounded corners*
1,1,$1+$1,$2,$3*
1,1,$1+$1,$4,$5*
1,1,$1+$1,$6,$7*
1,1,$1+$1,$8,$9*
0 Add four rect primitives between the rounded corners*
20,1,$1+$1,$2,$3,$4,$5,0*
20,1,$1+$1,$4,$5,$6,$7,0*
20,1,$1+$1,$6,$7,$8,$9,0*
20,1,$1+$1,$8,$9,$2,$3,0*%
G04 Aperture macros list end*
%ADD10C,0.150000*%
%ADD11C,0.120000*%
%ADD12C,1.397000*%
%ADD13C,2.000000*%
%ADD14R,2.000000X2.000000*%
%ADD15O,2.800000X1.500000*%
%ADD16R,1.100000X1.800000*%
%ADD17C,3.048000*%
%ADD18C,3.987800*%
%ADD19C,1.750000*%
%ADD20R,1.000000X1.000000*%
%ADD21C,0.650000*%
%ADD22O,0.800000X1.600000*%
%ADD23O,1.000000X2.100000*%
%ADD24RoundRect,0.250000X-0.600000X-0.600000X0.600000X-0.600000X0.600000X0.600000X-0.600000X0.600000X0*%
%ADD25C,1.700000*%
G04 APERTURE END LIST*
D10*
X72798245Y18394168D02*
X72607769Y18394168D01*
X72607769Y18394168D02*
X72512531Y18346549D01*
X72512531Y18346549D02*
X72464912Y18298930D01*
X72464912Y18298930D02*
X72369674Y18156073D01*
X72369674Y18156073D02*
X72322055Y17965597D01*
X72322055Y17965597D02*
X72322055Y17584645D01*
X72322055Y17584645D02*
X72369674Y17489407D01*
X72369674Y17489407D02*
X72417293Y17441787D01*
X72417293Y17441787D02*
X72512531Y17394168D01*
X72512531Y17394168D02*
X72703007Y17394168D01*
X72703007Y17394168D02*
X72798245Y17441787D01*
X72798245Y17441787D02*
X72845864Y17489407D01*
X72845864Y17489407D02*
X72893483Y17584645D01*
X72893483Y17584645D02*
X72893483Y17822740D01*
X72893483Y17822740D02*
X72845864Y17917978D01*
X72845864Y17917978D02*
X72798245Y17965597D01*
X72798245Y17965597D02*
X72703007Y18013216D01*
X72703007Y18013216D02*
X72512531Y18013216D01*
X72512531Y18013216D02*
X72417293Y17965597D01*
X72417293Y17965597D02*
X72369674Y17917978D01*
X72369674Y17917978D02*
X72322055Y17822740D01*
X73750626Y18060835D02*
X73750626Y17394168D01*
X73322055Y18060835D02*
X73322055Y17537026D01*
X73322055Y17537026D02*
X73369674Y17441787D01*
X73369674Y17441787D02*
X73464912Y17394168D01*
X73464912Y17394168D02*
X73607769Y17394168D01*
X73607769Y17394168D02*
X73703007Y17441787D01*
X73703007Y17441787D02*
X73750626Y17489407D01*
X174596768Y18394168D02*
X174406292Y18394168D01*
X174406292Y18394168D02*
X174311054Y18346549D01*
X174311054Y18346549D02*
X174263435Y18298930D01*
X174263435Y18298930D02*
X174168197Y18156073D01*
X174168197Y18156073D02*
X174120578Y17965597D01*
X174120578Y17965597D02*
X174120578Y17584645D01*
X174120578Y17584645D02*
X174168197Y17489407D01*
X174168197Y17489407D02*
X174215816Y17441787D01*
X174215816Y17441787D02*
X174311054Y17394168D01*
X174311054Y17394168D02*
X174501530Y17394168D01*
X174501530Y17394168D02*
X174596768Y17441787D01*
X174596768Y17441787D02*
X174644387Y17489407D01*
X174644387Y17489407D02*
X174692006Y17584645D01*
X174692006Y17584645D02*
X174692006Y17822740D01*
X174692006Y17822740D02*
X174644387Y17917978D01*
X174644387Y17917978D02*
X174596768Y17965597D01*
X174596768Y17965597D02*
X174501530Y18013216D01*
X174501530Y18013216D02*
X174311054Y18013216D01*
X174311054Y18013216D02*
X174215816Y17965597D01*
X174215816Y17965597D02*
X174168197Y17917978D01*
X174168197Y17917978D02*
X174120578Y17822740D01*
X175549149Y18060835D02*
X175549149Y17394168D01*
X175120578Y18060835D02*
X175120578Y17537026D01*
X175120578Y17537026D02*
X175168197Y17441787D01*
X175168197Y17441787D02*
X175263435Y17394168D01*
X175263435Y17394168D02*
X175406292Y17394168D01*
X175406292Y17394168D02*
X175501530Y17441787D01*
X175501530Y17441787D02*
X175549149Y17489407D01*
X157451814Y18298930D02*
X157499433Y18346549D01*
X157499433Y18346549D02*
X157594671Y18394168D01*
X157594671Y18394168D02*
X157832766Y18394168D01*
X157832766Y18394168D02*
X157928004Y18346549D01*
X157928004Y18346549D02*
X157975623Y18298930D01*
X157975623Y18298930D02*
X158023242Y18203692D01*
X158023242Y18203692D02*
X158023242Y18108454D01*
X158023242Y18108454D02*
X157975623Y17965597D01*
X157975623Y17965597D02*
X157404195Y17394168D01*
X157404195Y17394168D02*
X158023242Y17394168D01*
X158880385Y18060835D02*
X158880385Y17394168D01*
X158451814Y18060835D02*
X158451814Y17537026D01*
X158451814Y17537026D02*
X158499433Y17441787D01*
X158499433Y17441787D02*
X158594671Y17394168D01*
X158594671Y17394168D02*
X158737528Y17394168D01*
X158737528Y17394168D02*
X158832766Y17441787D01*
X158832766Y17441787D02*
X158880385Y17489407D01*
X127090851Y18298930D02*
X127138470Y18346549D01*
X127138470Y18346549D02*
X127233708Y18394168D01*
X127233708Y18394168D02*
X127471803Y18394168D01*
X127471803Y18394168D02*
X127567041Y18346549D01*
X127567041Y18346549D02*
X127614660Y18298930D01*
X127614660Y18298930D02*
X127662279Y18203692D01*
X127662279Y18203692D02*
X127662279Y18108454D01*
X127662279Y18108454D02*
X127614660Y17965597D01*
X127614660Y17965597D02*
X127043232Y17394168D01*
X127043232Y17394168D02*
X127662279Y17394168D01*
X128519422Y18060835D02*
X128519422Y17394168D01*
X128090851Y18060835D02*
X128090851Y17537026D01*
X128090851Y17537026D02*
X128138470Y17441787D01*
X128138470Y17441787D02*
X128233708Y17394168D01*
X128233708Y17394168D02*
X128376565Y17394168D01*
X128376565Y17394168D02*
X128471803Y17441787D01*
X128471803Y17441787D02*
X128519422Y17489407D01*
X119351782Y18298930D02*
X119399401Y18346549D01*
X119399401Y18346549D02*
X119494639Y18394168D01*
X119494639Y18394168D02*
X119732734Y18394168D01*
X119732734Y18394168D02*
X119827972Y18346549D01*
X119827972Y18346549D02*
X119875591Y18298930D01*
X119875591Y18298930D02*
X119923210Y18203692D01*
X119923210Y18203692D02*
X119923210Y18108454D01*
X119923210Y18108454D02*
X119875591Y17965597D01*
X119875591Y17965597D02*
X119304163Y17394168D01*
X119304163Y17394168D02*
X119923210Y17394168D01*
X120780353Y18060835D02*
X120780353Y17394168D01*
X120351782Y18060835D02*
X120351782Y17537026D01*
X120351782Y17537026D02*
X120399401Y17441787D01*
X120399401Y17441787D02*
X120494639Y17394168D01*
X120494639Y17394168D02*
X120637496Y17394168D01*
X120637496Y17394168D02*
X120732734Y17441787D01*
X120732734Y17441787D02*
X120780353Y17489407D01*
X88990819Y18298930D02*
X89038438Y18346549D01*
X89038438Y18346549D02*
X89133676Y18394168D01*
X89133676Y18394168D02*
X89371771Y18394168D01*
X89371771Y18394168D02*
X89467009Y18346549D01*
X89467009Y18346549D02*
X89514628Y18298930D01*
X89514628Y18298930D02*
X89562247Y18203692D01*
X89562247Y18203692D02*
X89562247Y18108454D01*
X89562247Y18108454D02*
X89514628Y17965597D01*
X89514628Y17965597D02*
X88943200Y17394168D01*
X88943200Y17394168D02*
X89562247Y17394168D01*
X90419390Y18060835D02*
X90419390Y17394168D01*
X89990819Y18060835D02*
X89990819Y17537026D01*
X89990819Y17537026D02*
X90038438Y17441787D01*
X90038438Y17441787D02*
X90133676Y17394168D01*
X90133676Y17394168D02*
X90276533Y17394168D01*
X90276533Y17394168D02*
X90371771Y17441787D01*
X90371771Y17441787D02*
X90419390Y17489407D01*
X135972927Y18394168D02*
X136591974Y18394168D01*
X136591974Y18394168D02*
X136258641Y18013216D01*
X136258641Y18013216D02*
X136401498Y18013216D01*
X136401498Y18013216D02*
X136496736Y17965597D01*
X136496736Y17965597D02*
X136544355Y17917978D01*
X136544355Y17917978D02*
X136591974Y17822740D01*
X136591974Y17822740D02*
X136591974Y17584645D01*
X136591974Y17584645D02*
X136544355Y17489407D01*
X136544355Y17489407D02*
X136496736Y17441787D01*
X136496736Y17441787D02*
X136401498Y17394168D01*
X136401498Y17394168D02*
X136115784Y17394168D01*
X136115784Y17394168D02*
X136020546Y17441787D01*
X136020546Y17441787D02*
X135972927Y17489407D01*
X137449117Y18060835D02*
X137449117Y17394168D01*
X137020546Y18060835D02*
X137020546Y17537026D01*
X137020546Y17537026D02*
X137068165Y17441787D01*
X137068165Y17441787D02*
X137163403Y17394168D01*
X137163403Y17394168D02*
X137306260Y17394168D01*
X137306260Y17394168D02*
X137401498Y17441787D01*
X137401498Y17441787D02*
X137449117Y17489407D01*
X110374468Y18394168D02*
X110993515Y18394168D01*
X110993515Y18394168D02*
X110660182Y18013216D01*
X110660182Y18013216D02*
X110803039Y18013216D01*
X110803039Y18013216D02*
X110898277Y17965597D01*
X110898277Y17965597D02*
X110945896Y17917978D01*
X110945896Y17917978D02*
X110993515Y17822740D01*
X110993515Y17822740D02*
X110993515Y17584645D01*
X110993515Y17584645D02*
X110945896Y17489407D01*
X110945896Y17489407D02*
X110898277Y17441787D01*
X110898277Y17441787D02*
X110803039Y17394168D01*
X110803039Y17394168D02*
X110517325Y17394168D01*
X110517325Y17394168D02*
X110422087Y17441787D01*
X110422087Y17441787D02*
X110374468Y17489407D01*
X111850658Y18060835D02*
X111850658Y17394168D01*
X111422087Y18060835D02*
X111422087Y17537026D01*
X111422087Y17537026D02*
X111469706Y17441787D01*
X111469706Y17441787D02*
X111564944Y17394168D01*
X111564944Y17394168D02*
X111707801Y17394168D01*
X111707801Y17394168D02*
X111803039Y17441787D01*
X111803039Y17441787D02*
X111850658Y17489407D01*
X148998309Y18060835D02*
X148998309Y17394168D01*
X148760214Y18441787D02*
X148522119Y17727502D01*
X148522119Y17727502D02*
X149141166Y17727502D01*
X149950690Y18060835D02*
X149950690Y17394168D01*
X149522119Y18060835D02*
X149522119Y17537026D01*
X149522119Y17537026D02*
X149569738Y17441787D01*
X149569738Y17441787D02*
X149664976Y17394168D01*
X149664976Y17394168D02*
X149807833Y17394168D01*
X149807833Y17394168D02*
X149903071Y17441787D01*
X149903071Y17441787D02*
X149950690Y17489407D01*
X167524516Y18394168D02*
X168143563Y18394168D01*
X168143563Y18394168D02*
X167810230Y18013216D01*
X167810230Y18013216D02*
X167953087Y18013216D01*
X167953087Y18013216D02*
X168048325Y17965597D01*
X168048325Y17965597D02*
X168095944Y17917978D01*
X168095944Y17917978D02*
X168143563Y17822740D01*
X168143563Y17822740D02*
X168143563Y17584645D01*
X168143563Y17584645D02*
X168095944Y17489407D01*
X168095944Y17489407D02*
X168048325Y17441787D01*
X168048325Y17441787D02*
X167953087Y17394168D01*
X167953087Y17394168D02*
X167667373Y17394168D01*
X167667373Y17394168D02*
X167572135Y17441787D01*
X167572135Y17441787D02*
X167524516Y17489407D01*
X169000706Y18060835D02*
X169000706Y17394168D01*
X168572135Y18060835D02*
X168572135Y17537026D01*
X168572135Y17537026D02*
X168619754Y17441787D01*
X168619754Y17441787D02*
X168714992Y17394168D01*
X168714992Y17394168D02*
X168857849Y17394168D01*
X168857849Y17394168D02*
X168953087Y17441787D01*
X168953087Y17441787D02*
X169000706Y17489407D01*
X98396704Y18060835D02*
X98396704Y17394168D01*
X98158609Y18441787D02*
X97920514Y17727502D01*
X97920514Y17727502D02*
X98539561Y17727502D01*
X99349085Y18060835D02*
X99349085Y17394168D01*
X98920514Y18060835D02*
X98920514Y17537026D01*
X98920514Y17537026D02*
X98968133Y17441787D01*
X98968133Y17441787D02*
X99063371Y17394168D01*
X99063371Y17394168D02*
X99206228Y17394168D01*
X99206228Y17394168D02*
X99301466Y17441787D01*
X99301466Y17441787D02*
X99349085Y17489407D01*
X78822879Y18394168D02*
X79441926Y18394168D01*
X79441926Y18394168D02*
X79108593Y18013216D01*
X79108593Y18013216D02*
X79251450Y18013216D01*
X79251450Y18013216D02*
X79346688Y17965597D01*
X79346688Y17965597D02*
X79394307Y17917978D01*
X79394307Y17917978D02*
X79441926Y17822740D01*
X79441926Y17822740D02*
X79441926Y17584645D01*
X79441926Y17584645D02*
X79394307Y17489407D01*
X79394307Y17489407D02*
X79346688Y17441787D01*
X79346688Y17441787D02*
X79251450Y17394168D01*
X79251450Y17394168D02*
X78965736Y17394168D01*
X78965736Y17394168D02*
X78870498Y17441787D01*
X78870498Y17441787D02*
X78822879Y17489407D01*
X80299069Y18060835D02*
X80299069Y17394168D01*
X79870498Y18060835D02*
X79870498Y17537026D01*
X79870498Y17537026D02*
X79918117Y17441787D01*
X79918117Y17441787D02*
X80013355Y17394168D01*
X80013355Y17394168D02*
X80156212Y17394168D01*
X80156212Y17394168D02*
X80251450Y17441787D01*
X80251450Y17441787D02*
X80299069Y17489407D01*
X171715441Y5487908D02*
X171144013Y5487908D01*
X171429727Y5487908D02*
X171429727Y6487908D01*
X171429727Y6487908D02*
X171334489Y6345051D01*
X171334489Y6345051D02*
X171239251Y6249813D01*
X171239251Y6249813D02*
X171144013Y6202194D01*
X172572584Y6154575D02*
X172572584Y5487908D01*
X172144013Y6154575D02*
X172144013Y5630766D01*
X172144013Y5630766D02*
X172191632Y5535527D01*
X172191632Y5535527D02*
X172286870Y5487908D01*
X172286870Y5487908D02*
X172429727Y5487908D01*
X172429727Y5487908D02*
X172524965Y5535527D01*
X172524965Y5535527D02*
X172572584Y5583147D01*
X166952937Y5487908D02*
X166381509Y5487908D01*
X166667223Y5487908D02*
X166667223Y6487908D01*
X166667223Y6487908D02*
X166571985Y6345051D01*
X166571985Y6345051D02*
X166476747Y6249813D01*
X166476747Y6249813D02*
X166381509Y6202194D01*
X167381509Y5583147D02*
X167429128Y5535527D01*
X167429128Y5535527D02*
X167381509Y5487908D01*
X167381509Y5487908D02*
X167333890Y5535527D01*
X167333890Y5535527D02*
X167381509Y5583147D01*
X167381509Y5583147D02*
X167381509Y5487908D01*
X167810080Y6392670D02*
X167857699Y6440289D01*
X167857699Y6440289D02*
X167952937Y6487908D01*
X167952937Y6487908D02*
X168191032Y6487908D01*
X168191032Y6487908D02*
X168286270Y6440289D01*
X168286270Y6440289D02*
X168333889Y6392670D01*
X168333889Y6392670D02*
X168381508Y6297432D01*
X168381508Y6297432D02*
X168381508Y6202194D01*
X168381508Y6202194D02*
X168333889Y6059337D01*
X168333889Y6059337D02*
X167762461Y5487908D01*
X167762461Y5487908D02*
X168381508Y5487908D01*
X169286270Y6487908D02*
X168810080Y6487908D01*
X168810080Y6487908D02*
X168762461Y6011718D01*
X168762461Y6011718D02*
X168810080Y6059337D01*
X168810080Y6059337D02*
X168905318Y6106956D01*
X168905318Y6106956D02*
X169143413Y6106956D01*
X169143413Y6106956D02*
X169238651Y6059337D01*
X169238651Y6059337D02*
X169286270Y6011718D01*
X169286270Y6011718D02*
X169333889Y5916480D01*
X169333889Y5916480D02*
X169333889Y5678385D01*
X169333889Y5678385D02*
X169286270Y5583147D01*
X169286270Y5583147D02*
X169238651Y5535527D01*
X169238651Y5535527D02*
X169143413Y5487908D01*
X169143413Y5487908D02*
X168905318Y5487908D01*
X168905318Y5487908D02*
X168810080Y5535527D01*
X168810080Y5535527D02*
X168762461Y5583147D01*
X170191032Y6154575D02*
X170191032Y5487908D01*
X169762461Y6154575D02*
X169762461Y5630766D01*
X169762461Y5630766D02*
X169810080Y5535527D01*
X169810080Y5535527D02*
X169905318Y5487908D01*
X169905318Y5487908D02*
X170048175Y5487908D01*
X170048175Y5487908D02*
X170143413Y5535527D01*
X170143413Y5535527D02*
X170191032Y5583147D01*
X78251300Y5487908D02*
X77679872Y5487908D01*
X77965586Y5487908D02*
X77965586Y6487908D01*
X77965586Y6487908D02*
X77870348Y6345051D01*
X77870348Y6345051D02*
X77775110Y6249813D01*
X77775110Y6249813D02*
X77679872Y6202194D01*
X78679872Y5583147D02*
X78727491Y5535527D01*
X78727491Y5535527D02*
X78679872Y5487908D01*
X78679872Y5487908D02*
X78632253Y5535527D01*
X78632253Y5535527D02*
X78679872Y5583147D01*
X78679872Y5583147D02*
X78679872Y5487908D01*
X79108443Y6392670D02*
X79156062Y6440289D01*
X79156062Y6440289D02*
X79251300Y6487908D01*
X79251300Y6487908D02*
X79489395Y6487908D01*
X79489395Y6487908D02*
X79584633Y6440289D01*
X79584633Y6440289D02*
X79632252Y6392670D01*
X79632252Y6392670D02*
X79679871Y6297432D01*
X79679871Y6297432D02*
X79679871Y6202194D01*
X79679871Y6202194D02*
X79632252Y6059337D01*
X79632252Y6059337D02*
X79060824Y5487908D01*
X79060824Y5487908D02*
X79679871Y5487908D01*
X80584633Y6487908D02*
X80108443Y6487908D01*
X80108443Y6487908D02*
X80060824Y6011718D01*
X80060824Y6011718D02*
X80108443Y6059337D01*
X80108443Y6059337D02*
X80203681Y6106956D01*
X80203681Y6106956D02*
X80441776Y6106956D01*
X80441776Y6106956D02*
X80537014Y6059337D01*
X80537014Y6059337D02*
X80584633Y6011718D01*
X80584633Y6011718D02*
X80632252Y5916480D01*
X80632252Y5916480D02*
X80632252Y5678385D01*
X80632252Y5678385D02*
X80584633Y5583147D01*
X80584633Y5583147D02*
X80537014Y5535527D01*
X80537014Y5535527D02*
X80441776Y5487908D01*
X80441776Y5487908D02*
X80203681Y5487908D01*
X80203681Y5487908D02*
X80108443Y5535527D01*
X80108443Y5535527D02*
X80060824Y5583147D01*
X81489395Y6154575D02*
X81489395Y5487908D01*
X81060824Y6154575D02*
X81060824Y5630766D01*
X81060824Y5630766D02*
X81108443Y5535527D01*
X81108443Y5535527D02*
X81203681Y5487908D01*
X81203681Y5487908D02*
X81346538Y5487908D01*
X81346538Y5487908D02*
X81441776Y5535527D01*
X81441776Y5535527D02*
X81489395Y5583147D01*
X75870048Y5487908D02*
X75298620Y5487908D01*
X75584334Y5487908D02*
X75584334Y6487908D01*
X75584334Y6487908D02*
X75489096Y6345051D01*
X75489096Y6345051D02*
X75393858Y6249813D01*
X75393858Y6249813D02*
X75298620Y6202194D01*
X76727191Y6154575D02*
X76727191Y5487908D01*
X76298620Y6154575D02*
X76298620Y5630766D01*
X76298620Y5630766D02*
X76346239Y5535527D01*
X76346239Y5535527D02*
X76441477Y5487908D01*
X76441477Y5487908D02*
X76584334Y5487908D01*
X76584334Y5487908D02*
X76679572Y5535527D01*
X76679572Y5535527D02*
X76727191Y5583147D01*
X103873644Y6392670D02*
X103921263Y6440289D01*
X103921263Y6440289D02*
X104016501Y6487908D01*
X104016501Y6487908D02*
X104254596Y6487908D01*
X104254596Y6487908D02*
X104349834Y6440289D01*
X104349834Y6440289D02*
X104397453Y6392670D01*
X104397453Y6392670D02*
X104445072Y6297432D01*
X104445072Y6297432D02*
X104445072Y6202194D01*
X104445072Y6202194D02*
X104397453Y6059337D01*
X104397453Y6059337D02*
X103826025Y5487908D01*
X103826025Y5487908D02*
X104445072Y5487908D01*
X105302215Y6154575D02*
X105302215Y5487908D01*
X104873644Y6154575D02*
X104873644Y5630766D01*
X104873644Y5630766D02*
X104921263Y5535527D01*
X104921263Y5535527D02*
X105016501Y5487908D01*
X105016501Y5487908D02*
X105159358Y5487908D01*
X105159358Y5487908D02*
X105254596Y5535527D01*
X105254596Y5535527D02*
X105302215Y5583147D01*
X94896330Y6487908D02*
X95515377Y6487908D01*
X95515377Y6487908D02*
X95182044Y6106956D01*
X95182044Y6106956D02*
X95324901Y6106956D01*
X95324901Y6106956D02*
X95420139Y6059337D01*
X95420139Y6059337D02*
X95467758Y6011718D01*
X95467758Y6011718D02*
X95515377Y5916480D01*
X95515377Y5916480D02*
X95515377Y5678385D01*
X95515377Y5678385D02*
X95467758Y5583147D01*
X95467758Y5583147D02*
X95420139Y5535527D01*
X95420139Y5535527D02*
X95324901Y5487908D01*
X95324901Y5487908D02*
X95039187Y5487908D01*
X95039187Y5487908D02*
X94943949Y5535527D01*
X94943949Y5535527D02*
X94896330Y5583147D01*
X96372520Y6154575D02*
X96372520Y5487908D01*
X95943949Y6154575D02*
X95943949Y5630766D01*
X95943949Y5630766D02*
X95991568Y5535527D01*
X95991568Y5535527D02*
X96086806Y5487908D01*
X96086806Y5487908D02*
X96229663Y5487908D01*
X96229663Y5487908D02*
X96324901Y5535527D01*
X96324901Y5535527D02*
X96372520Y5583147D01*
X106826324Y5487908D02*
X106254896Y5487908D01*
X106540610Y5487908D02*
X106540610Y6487908D01*
X106540610Y6487908D02*
X106445372Y6345051D01*
X106445372Y6345051D02*
X106350134Y6249813D01*
X106350134Y6249813D02*
X106254896Y6202194D01*
X107254896Y5583147D02*
X107302515Y5535527D01*
X107302515Y5535527D02*
X107254896Y5487908D01*
X107254896Y5487908D02*
X107207277Y5535527D01*
X107207277Y5535527D02*
X107254896Y5583147D01*
X107254896Y5583147D02*
X107254896Y5487908D01*
X107635848Y6487908D02*
X108302514Y6487908D01*
X108302514Y6487908D02*
X107873943Y5487908D01*
X109159657Y6487908D02*
X108683467Y6487908D01*
X108683467Y6487908D02*
X108635848Y6011718D01*
X108635848Y6011718D02*
X108683467Y6059337D01*
X108683467Y6059337D02*
X108778705Y6106956D01*
X108778705Y6106956D02*
X109016800Y6106956D01*
X109016800Y6106956D02*
X109112038Y6059337D01*
X109112038Y6059337D02*
X109159657Y6011718D01*
X109159657Y6011718D02*
X109207276Y5916480D01*
X109207276Y5916480D02*
X109207276Y5678385D01*
X109207276Y5678385D02*
X109159657Y5583147D01*
X109159657Y5583147D02*
X109112038Y5535527D01*
X109112038Y5535527D02*
X109016800Y5487908D01*
X109016800Y5487908D02*
X108778705Y5487908D01*
X108778705Y5487908D02*
X108683467Y5535527D01*
X108683467Y5535527D02*
X108635848Y5583147D01*
X110064419Y6154575D02*
X110064419Y5487908D01*
X109635848Y6154575D02*
X109635848Y5630766D01*
X109635848Y5630766D02*
X109683467Y5535527D01*
X109683467Y5535527D02*
X109778705Y5487908D01*
X109778705Y5487908D02*
X109921562Y5487908D01*
X109921562Y5487908D02*
X110016800Y5535527D01*
X110016800Y5535527D02*
X110064419Y5583147D01*
X138377913Y5487908D02*
X137806485Y5487908D01*
X138092199Y5487908D02*
X138092199Y6487908D01*
X138092199Y6487908D02*
X137996961Y6345051D01*
X137996961Y6345051D02*
X137901723Y6249813D01*
X137901723Y6249813D02*
X137806485Y6202194D01*
X138806485Y5583147D02*
X138854104Y5535527D01*
X138854104Y5535527D02*
X138806485Y5487908D01*
X138806485Y5487908D02*
X138758866Y5535527D01*
X138758866Y5535527D02*
X138806485Y5583147D01*
X138806485Y5583147D02*
X138806485Y5487908D01*
X139187437Y6487908D02*
X139854103Y6487908D01*
X139854103Y6487908D02*
X139425532Y5487908D01*
X140711246Y6487908D02*
X140235056Y6487908D01*
X140235056Y6487908D02*
X140187437Y6011718D01*
X140187437Y6011718D02*
X140235056Y6059337D01*
X140235056Y6059337D02*
X140330294Y6106956D01*
X140330294Y6106956D02*
X140568389Y6106956D01*
X140568389Y6106956D02*
X140663627Y6059337D01*
X140663627Y6059337D02*
X140711246Y6011718D01*
X140711246Y6011718D02*
X140758865Y5916480D01*
X140758865Y5916480D02*
X140758865Y5678385D01*
X140758865Y5678385D02*
X140711246Y5583147D01*
X140711246Y5583147D02*
X140663627Y5535527D01*
X140663627Y5535527D02*
X140568389Y5487908D01*
X140568389Y5487908D02*
X140330294Y5487908D01*
X140330294Y5487908D02*
X140235056Y5535527D01*
X140235056Y5535527D02*
X140187437Y5583147D01*
X141616008Y6154575D02*
X141616008Y5487908D01*
X141187437Y6154575D02*
X141187437Y5630766D01*
X141187437Y5630766D02*
X141235056Y5535527D01*
X141235056Y5535527D02*
X141330294Y5487908D01*
X141330294Y5487908D02*
X141473151Y5487908D01*
X141473151Y5487908D02*
X141568389Y5535527D01*
X141568389Y5535527D02*
X141616008Y5583147D01*
X142568989Y6392670D02*
X142616608Y6440289D01*
X142616608Y6440289D02*
X142711846Y6487908D01*
X142711846Y6487908D02*
X142949941Y6487908D01*
X142949941Y6487908D02*
X143045179Y6440289D01*
X143045179Y6440289D02*
X143092798Y6392670D01*
X143092798Y6392670D02*
X143140417Y6297432D01*
X143140417Y6297432D02*
X143140417Y6202194D01*
X143140417Y6202194D02*
X143092798Y6059337D01*
X143092798Y6059337D02*
X142521370Y5487908D01*
X142521370Y5487908D02*
X143140417Y5487908D01*
X143997560Y6154575D02*
X143997560Y5487908D01*
X143568989Y6154575D02*
X143568989Y5630766D01*
X143568989Y5630766D02*
X143616608Y5535527D01*
X143616608Y5535527D02*
X143711846Y5487908D01*
X143711846Y5487908D02*
X143854703Y5487908D01*
X143854703Y5487908D02*
X143949941Y5535527D01*
X143949941Y5535527D02*
X143997560Y5583147D01*
X152046378Y6487908D02*
X152665425Y6487908D01*
X152665425Y6487908D02*
X152332092Y6106956D01*
X152332092Y6106956D02*
X152474949Y6106956D01*
X152474949Y6106956D02*
X152570187Y6059337D01*
X152570187Y6059337D02*
X152617806Y6011718D01*
X152617806Y6011718D02*
X152665425Y5916480D01*
X152665425Y5916480D02*
X152665425Y5678385D01*
X152665425Y5678385D02*
X152617806Y5583147D01*
X152617806Y5583147D02*
X152570187Y5535527D01*
X152570187Y5535527D02*
X152474949Y5487908D01*
X152474949Y5487908D02*
X152189235Y5487908D01*
X152189235Y5487908D02*
X152093997Y5535527D01*
X152093997Y5535527D02*
X152046378Y5583147D01*
X153522568Y6154575D02*
X153522568Y5487908D01*
X153093997Y6154575D02*
X153093997Y5630766D01*
X153093997Y5630766D02*
X153141616Y5535527D01*
X153141616Y5535527D02*
X153236854Y5487908D01*
X153236854Y5487908D02*
X153379711Y5487908D01*
X153379711Y5487908D02*
X153474949Y5535527D01*
X153474949Y5535527D02*
X153522568Y5583147D01*
X123995163Y6573949D02*
X123995163Y5907282D01*
X123757068Y6954901D02*
X123518973Y6240616D01*
X123518973Y6240616D02*
X124138020Y6240616D01*
X124947544Y6573949D02*
X124947544Y5907282D01*
X124518973Y6573949D02*
X124518973Y6050140D01*
X124518973Y6050140D02*
X124566592Y5954901D01*
X124566592Y5954901D02*
X124661830Y5907282D01*
X124661830Y5907282D02*
X124804687Y5907282D01*
X124804687Y5907282D02*
X124899925Y5954901D01*
X124899925Y5954901D02*
X124947544Y6002521D01*
X123995163Y5297282D02*
X123804687Y5297282D01*
X123804687Y5297282D02*
X123709449Y5249663D01*
X123709449Y5249663D02*
X123661830Y5202044D01*
X123661830Y5202044D02*
X123566592Y5059187D01*
X123566592Y5059187D02*
X123518973Y4868711D01*
X123518973Y4868711D02*
X123518973Y4487759D01*
X123518973Y4487759D02*
X123566592Y4392521D01*
X123566592Y4392521D02*
X123614211Y4344901D01*
X123614211Y4344901D02*
X123709449Y4297282D01*
X123709449Y4297282D02*
X123899925Y4297282D01*
X123899925Y4297282D02*
X123995163Y4344901D01*
X123995163Y4344901D02*
X124042782Y4392521D01*
X124042782Y4392521D02*
X124090401Y4487759D01*
X124090401Y4487759D02*
X124090401Y4725854D01*
X124090401Y4725854D02*
X124042782Y4821092D01*
X124042782Y4821092D02*
X123995163Y4868711D01*
X123995163Y4868711D02*
X123899925Y4916330D01*
X123899925Y4916330D02*
X123709449Y4916330D01*
X123709449Y4916330D02*
X123614211Y4868711D01*
X123614211Y4868711D02*
X123566592Y4821092D01*
X123566592Y4821092D02*
X123518973Y4725854D01*
X124947544Y4963949D02*
X124947544Y4297282D01*
X124518973Y4963949D02*
X124518973Y4440140D01*
X124518973Y4440140D02*
X124566592Y4344901D01*
X124566592Y4344901D02*
X124661830Y4297282D01*
X124661830Y4297282D02*
X124804687Y4297282D01*
X124804687Y4297282D02*
X124899925Y4344901D01*
X124899925Y4344901D02*
X124947544Y4392521D01*
X53985392Y62365069D02*
X54033011Y62507926D01*
X54033011Y62507926D02*
X54033011Y62746021D01*
X54033011Y62746021D02*
X53985392Y62841259D01*
X53985392Y62841259D02*
X53937772Y62888878D01*
X53937772Y62888878D02*
X53842534Y62936497D01*
X53842534Y62936497D02*
X53747296Y62936497D01*
X53747296Y62936497D02*
X53652058Y62888878D01*
X53652058Y62888878D02*
X53604439Y62841259D01*
X53604439Y62841259D02*
X53556820Y62746021D01*
X53556820Y62746021D02*
X53509201Y62555545D01*
X53509201Y62555545D02*
X53461582Y62460307D01*
X53461582Y62460307D02*
X53413963Y62412688D01*
X53413963Y62412688D02*
X53318725Y62365069D01*
X53318725Y62365069D02*
X53223487Y62365069D01*
X53223487Y62365069D02*
X53128249Y62412688D01*
X53128249Y62412688D02*
X53080630Y62460307D01*
X53080630Y62460307D02*
X53033011Y62555545D01*
X53033011Y62555545D02*
X53033011Y62793640D01*
X53033011Y62793640D02*
X53080630Y62936497D01*
X53033011Y63269831D02*
X54033011Y63507926D01*
X54033011Y63507926D02*
X53318725Y63698402D01*
X53318725Y63698402D02*
X54033011Y63888878D01*
X54033011Y63888878D02*
X53033011Y64126973D01*
X53128249Y64460307D02*
X53080630Y64507926D01*
X53080630Y64507926D02*
X53033011Y64603164D01*
X53033011Y64603164D02*
X53033011Y64841259D01*
X53033011Y64841259D02*
X53080630Y64936497D01*
X53080630Y64936497D02*
X53128249Y64984116D01*
X53128249Y64984116D02*
X53223487Y65031735D01*
X53223487Y65031735D02*
X53318725Y65031735D01*
X53318725Y65031735D02*
X53461582Y64984116D01*
X53461582Y64984116D02*
X54033011Y64412688D01*
X54033011Y64412688D02*
X54033011Y65031735D01*
X122372723Y73874959D02*
X122563199Y73874959D01*
X122563199Y73874959D02*
X122658437Y73827340D01*
X122658437Y73827340D02*
X122753675Y73732102D01*
X122753675Y73732102D02*
X122801294Y73541626D01*
X122801294Y73541626D02*
X122801294Y73208293D01*
X122801294Y73208293D02*
X122753675Y73017817D01*
X122753675Y73017817D02*
X122658437Y72922578D01*
X122658437Y72922578D02*
X122563199Y72874959D01*
X122563199Y72874959D02*
X122372723Y72874959D01*
X122372723Y72874959D02*
X122277485Y72922578D01*
X122277485Y72922578D02*
X122182247Y73017817D01*
X122182247Y73017817D02*
X122134628Y73208293D01*
X122134628Y73208293D02*
X122134628Y73541626D01*
X122134628Y73541626D02*
X122182247Y73732102D01*
X122182247Y73732102D02*
X122277485Y73827340D01*
X122277485Y73827340D02*
X122372723Y73874959D01*
X123706056Y72874959D02*
X123229866Y72874959D01*
X123229866Y72874959D02*
X123229866Y73874959D01*
X124039390Y73398769D02*
X124372723Y73398769D01*
X124515580Y72874959D02*
X124039390Y72874959D01*
X124039390Y72874959D02*
X124039390Y73874959D01*
X124039390Y73874959D02*
X124515580Y73874959D01*
X124944152Y72874959D02*
X124944152Y73874959D01*
X124944152Y73874959D02*
X125182247Y73874959D01*
X125182247Y73874959D02*
X125325104Y73827340D01*
X125325104Y73827340D02*
X125420342Y73732102D01*
X125420342Y73732102D02*
X125467961Y73636864D01*
X125467961Y73636864D02*
X125515580Y73446388D01*
X125515580Y73446388D02*
X125515580Y73303531D01*
X125515580Y73303531D02*
X125467961Y73113055D01*
X125467961Y73113055D02*
X125420342Y73017817D01*
X125420342Y73017817D02*
X125325104Y72922578D01*
X125325104Y72922578D02*
X125182247Y72874959D01*
X125182247Y72874959D02*
X124944152Y72874959D01*
D11*
X133350000Y29074730D02*
X133350000Y28074730D01*
X132850000Y28574730D02*
X133850000Y28574730D01*
X54430048Y62248221D02*
X54920048Y61758221D01*
X54430048Y62248221D02*
X54430048Y65148221D01*
X59870048Y62248221D02*
X59380048Y61758221D01*
X59870048Y62248221D02*
X59870048Y65148221D01*
X54430048Y65148221D02*
X54920048Y65638221D01*
X59870048Y65148221D02*
X59380048Y65638221D01*
X124525000Y43749730D02*
X123125000Y43749730D01*
X124525000Y45149730D02*
X124525000Y43749730D01*
X123125000Y43749730D02*
X123125000Y45149730D01*
X123125000Y45149730D02*
X124525000Y45149730D01*
X122143750Y43749730D02*
X120743750Y43749730D01*
X122143750Y45149730D02*
X122143750Y43749730D01*
X120743750Y43749730D02*
X120743750Y45149730D01*
X120743750Y45149730D02*
X122143750Y45149730D01*
X119762500Y43749730D02*
X118362500Y43749730D01*
X119762500Y45149730D02*
X119762500Y43749730D01*
X118362500Y43749730D02*
X118362500Y45149730D01*
X118362500Y45149730D02*
X119762500Y45149730D01*
X126906250Y43749730D02*
X125506250Y43749730D01*
X126906250Y45149730D02*
X126906250Y43749730D01*
X125506250Y43749730D02*
X125506250Y45149730D01*
X125506250Y45149730D02*
X126906250Y45149730D01*
X129287500Y43749730D02*
X127887500Y43749730D01*
X129287500Y45149730D02*
X129287500Y43749730D01*
X127887500Y43749730D02*
X127887500Y45149730D01*
X127887500Y45149730D02*
X129287500Y45149730D01*
D12*
X127635104Y74879778D03*
X125095104Y74879778D03*
X122555104Y74879778D03*
X120015104Y74879778D03*
%LPC*%
D13*
X140350000Y31074730D03*
X140350000Y26074730D03*
X125850000Y28574730D03*
X125850000Y26074730D03*
D14*
X125850000Y31074730D03*
D15*
X133387300Y34174730D03*
X133350000Y22974730D03*
D16*
X55300048Y60598221D03*
X55300048Y66798221D03*
X59000048Y60598221D03*
X59000048Y66798221D03*
D17*
X152400126Y2539918D03*
D18*
X123825126Y9524918D03*
D17*
X95250126Y2539918D03*
D19*
X128905126Y9524918D03*
D18*
X95250126Y17779918D03*
X152400126Y17779918D03*
D19*
X118745126Y9524918D03*
D18*
X171450150Y17779918D03*
X133350150Y17779918D03*
D17*
X171450150Y2539918D03*
X133350150Y2539918D03*
D19*
X157480150Y9524918D03*
X147320150Y9524918D03*
D18*
X152400150Y9524918D03*
X114300102Y17779918D03*
X76200102Y17779918D03*
D17*
X114300102Y2539918D03*
X76200102Y2539918D03*
D19*
X100330102Y9524918D03*
X90170102Y9524918D03*
D18*
X95250102Y9524918D03*
D19*
X71120000Y28574730D03*
D18*
X76200000Y28574730D03*
D19*
X81280000Y28574730D03*
X28257500Y9525000D03*
D18*
X33337500Y9525000D03*
D19*
X38417500Y9525000D03*
X90170000Y28574730D03*
D18*
X95250000Y28574730D03*
D19*
X100330000Y28574730D03*
X204470000Y28574730D03*
D18*
X209550000Y28574730D03*
D19*
X214630000Y28574730D03*
X156845000Y47624730D03*
D18*
X161925000Y47624730D03*
D19*
X167005000Y47624730D03*
X194945000Y66674730D03*
D18*
X200025000Y66674730D03*
D19*
X205105000Y66674730D03*
X73501250Y9525000D03*
D18*
X78581250Y9525000D03*
D19*
X83661250Y9525000D03*
X4445000Y66674730D03*
D18*
X9525000Y66674730D03*
D19*
X14605000Y66674730D03*
X213995000Y66674730D03*
D18*
X219075000Y66674730D03*
D19*
X224155000Y66674730D03*
D20*
X123825000Y44449730D03*
D19*
X49688750Y9524730D03*
D18*
X54768750Y9524730D03*
D19*
X59848750Y9524730D03*
X175895000Y66674730D03*
D18*
X180975000Y66674730D03*
D19*
X186055000Y66674730D03*
X185420000Y28574730D03*
D18*
X190500000Y28574730D03*
D19*
X195580000Y28574730D03*
X194945000Y47624730D03*
D18*
X200025000Y47624730D03*
D19*
X205105000Y47624730D03*
X156845000Y66674730D03*
D18*
X161925000Y66674730D03*
D19*
X167005000Y66674730D03*
X23495000Y47624730D03*
D18*
X28575000Y47624730D03*
D19*
X33655000Y47624730D03*
D20*
X121443750Y44449730D03*
D19*
X61595000Y47624730D03*
D18*
X66675000Y47624730D03*
D19*
X71755000Y47624730D03*
X128270000Y28574730D03*
D18*
X133350000Y28574730D03*
D19*
X138430000Y28574730D03*
X42545000Y47624730D03*
D18*
X47625000Y47624730D03*
D19*
X52705000Y47624730D03*
D20*
X119062500Y44449730D03*
D19*
X213995000Y47624730D03*
D18*
X219075000Y47624730D03*
D19*
X224155000Y47624730D03*
X176530166Y9524918D03*
D18*
X171450166Y9524918D03*
D19*
X166370166Y9524918D03*
X137795000Y47624730D03*
D18*
X142875000Y47624730D03*
D19*
X147955000Y47624730D03*
X33020000Y28574730D03*
D18*
X38100000Y28574730D03*
D19*
X43180000Y28574730D03*
D20*
X126206250Y44449730D03*
D19*
X102076250Y9525000D03*
D18*
X107156250Y9525000D03*
D19*
X112236250Y9525000D03*
X147320000Y28574730D03*
D18*
X152400000Y28574730D03*
D19*
X157480000Y28574730D03*
X99695000Y66674730D03*
D18*
X104775000Y66674730D03*
D19*
X109855000Y66674730D03*
X4445000Y47624730D03*
D18*
X9525000Y47624730D03*
D19*
X14605000Y47624730D03*
D18*
X92868750Y17779730D03*
D17*
X92868750Y2539730D03*
D19*
X99695000Y9524730D03*
D18*
X104775000Y9524730D03*
D19*
X109855000Y9524730D03*
D18*
X116681250Y17779730D03*
D17*
X116681250Y2539730D03*
D20*
X128587500Y44449730D03*
D19*
X9207467Y28574934D03*
D18*
X14287467Y28574934D03*
D19*
X19367467Y28574934D03*
X42545000Y66674730D03*
D18*
X47625000Y66674730D03*
D19*
X52705000Y66674730D03*
X71120000Y9524730D03*
D18*
X76200000Y9524730D03*
D19*
X81280000Y9524730D03*
X99695000Y47624730D03*
D18*
X104775000Y47624730D03*
D19*
X109855000Y47624730D03*
X233045000Y66674730D03*
D18*
X238125000Y66674730D03*
D19*
X243205000Y66674730D03*
X80645000Y66674730D03*
D18*
X85725000Y66674730D03*
D19*
X90805000Y66674730D03*
X233045000Y47624730D03*
D18*
X238125000Y47624730D03*
D19*
X243205000Y47624730D03*
X228282500Y28574730D03*
D18*
X233362500Y28574730D03*
D19*
X238442500Y28574730D03*
X166370000Y28574730D03*
D18*
X171450000Y28574730D03*
D19*
X176530000Y28574730D03*
X135413750Y9524730D03*
D18*
X140493750Y9524730D03*
D19*
X145573750Y9524730D03*
X209232702Y9524918D03*
D18*
X214312702Y9524918D03*
D19*
X219392702Y9524918D03*
X80645000Y47624730D03*
D18*
X85725000Y47624730D03*
D19*
X90805000Y47624730D03*
D18*
X130968750Y17780000D03*
D17*
X130968750Y2540000D03*
D19*
X137795000Y9525000D03*
D18*
X142875000Y9525000D03*
D19*
X147955000Y9525000D03*
D18*
X154781250Y17780000D03*
D17*
X154781250Y2540000D03*
D19*
X163988750Y9524918D03*
D18*
X169068750Y9524918D03*
D19*
X174148750Y9524918D03*
X137795000Y66674730D03*
D18*
X142875000Y66674730D03*
D19*
X147955000Y66674730D03*
X109220000Y28574730D03*
D18*
X114300000Y28574730D03*
D19*
X119380000Y28574730D03*
X187801434Y9524918D03*
D18*
X192881434Y9524918D03*
D19*
X197961434Y9524918D03*
X52070000Y28574730D03*
D18*
X57150000Y28574730D03*
D19*
X62230000Y28574730D03*
X175895000Y47624730D03*
D18*
X180975000Y47624730D03*
D19*
X186055000Y47624730D03*
X23495000Y66674730D03*
D18*
X28575000Y66674730D03*
D19*
X33655000Y66674730D03*
X61595000Y66674730D03*
D18*
X66675000Y66674730D03*
D19*
X71755000Y66674730D03*
D21*
X35210032Y71735913D03*
X40990032Y71735913D03*
D22*
X33780032Y75385913D03*
D23*
X33780032Y71205913D03*
D22*
X42420032Y75385913D03*
D23*
X42420032Y71205913D03*
D24*
X114617500Y68897230D03*
D25*
X117157500Y68897230D03*
X114617500Y71437230D03*
X117157500Y71437230D03*
X114617500Y73977230D03*
X117157500Y73977230D03*
%LPD*%
M02*
