%TF.GenerationSoftware,KiCad,Pcbnew,7.0.6*%
%TF.CreationDate,2023-08-26T01:37:11-04:00*%
%TF.ProjectId,Vault45_alpha,5661756c-7434-4355-9f61-6c7068612e6b,rev?*%
%TF.SameCoordinates,PX18faf56PY663131a*%
%TF.FileFunction,Legend,Bot*%
%TF.FilePolarity,Positive*%
%FSLAX46Y46*%
G04 Gerber Fmt 4.6, Leading zero omitted, Abs format (unit mm)*
G04 Created by KiCad (PCBNEW 7.0.6) date 2023-08-26 01:37:11*
%MOMM*%
%LPD*%
G01*
G04 APERTURE LIST*
G04 Aperture macros list*
%AMRoundRect*
0 Rectangle with rounded corners*
0 $1 Rounding radius*
0 $2 $3 $4 $5 $6 $7 $8 $9 X,Y pos of 4 corners*
0 Add a 4 corners polygon primitive as box body*
4,1,4,$2,$3,$4,$5,$6,$7,$8,$9,$2,$3,0*
0 Add four circle primitives for the rounded corners*
1,1,$1+$1,$2,$3*
1,1,$1+$1,$4,$5*
1,1,$1+$1,$6,$7*
1,1,$1+$1,$8,$9*
0 Add four rect primitives between the rounded corners*
20,1,$1+$1,$2,$3,$4,$5,0*
20,1,$1+$1,$4,$5,$6,$7,0*
20,1,$1+$1,$6,$7,$8,$9,0*
20,1,$1+$1,$8,$9,$2,$3,0*%
%AMRotRect*
0 Rectangle, with rotation*
0 The origin of the aperture is its center*
0 $1 length*
0 $2 width*
0 $3 Rotation angle, in degrees counterclockwise*
0 Add horizontal line*
21,1,$1,$2,0,0,$3*%
G04 Aperture macros list end*
%ADD10C,0.150000*%
%ADD11C,0.125000*%
%ADD12C,0.120000*%
%ADD13C,1.750000*%
%ADD14C,3.987800*%
%ADD15C,2.250000*%
%ADD16C,3.048000*%
%ADD17C,2.000000*%
%ADD18R,2.000000X2.000000*%
%ADD19O,1.500000X2.800000*%
%ADD20R,1.000000X1.000000*%
%ADD21C,1.397000*%
%ADD22R,1.200000X0.900000*%
%ADD23RoundRect,0.250000X-0.350000X-0.450000X0.350000X-0.450000X0.350000X0.450000X-0.350000X0.450000X0*%
%ADD24RotRect,2.100000X1.800000X225.000000*%
%ADD25RoundRect,0.250000X0.475000X-0.337500X0.475000X0.337500X-0.475000X0.337500X-0.475000X-0.337500X0*%
%ADD26RoundRect,0.250000X-0.337500X-0.475000X0.337500X-0.475000X0.337500X0.475000X-0.337500X0.475000X0*%
%ADD27RoundRect,0.250000X0.350000X0.450000X-0.350000X0.450000X-0.350000X-0.450000X0.350000X-0.450000X0*%
%ADD28RoundRect,0.062500X-0.475000X-0.062500X0.475000X-0.062500X0.475000X0.062500X-0.475000X0.062500X0*%
%ADD29RoundRect,0.062500X-0.062500X-0.475000X0.062500X-0.475000X0.062500X0.475000X-0.062500X0.475000X0*%
%ADD30R,5.200000X5.200000*%
%ADD31R,1.100000X1.800000*%
%ADD32RoundRect,0.250000X0.097227X-0.574524X0.574524X-0.097227X-0.097227X0.574524X-0.574524X0.097227X0*%
%ADD33RoundRect,0.250000X0.337500X0.475000X-0.337500X0.475000X-0.337500X-0.475000X0.337500X-0.475000X0*%
%ADD34RoundRect,0.250000X-0.450000X0.350000X-0.450000X-0.350000X0.450000X-0.350000X0.450000X0.350000X0*%
%ADD35RoundRect,0.250000X-0.475000X0.337500X-0.475000X-0.337500X0.475000X-0.337500X0.475000X0.337500X0*%
%ADD36C,0.650000*%
%ADD37R,0.600000X2.450000*%
%ADD38R,0.300000X2.450000*%
%ADD39RoundRect,0.250000X-0.600000X-0.600000X0.600000X-0.600000X0.600000X0.600000X-0.600000X0.600000X0*%
%ADD40C,1.700000*%
%ADD41R,1.560000X0.650000*%
%ADD42RoundRect,0.250000X0.574524X0.097227X0.097227X0.574524X-0.574524X-0.097227X-0.097227X-0.574524X0*%
%ADD43RoundRect,0.210527X-0.389473X-0.664473X0.389473X-0.664473X0.389473X0.664473X-0.389473X0.664473X0*%
%ADD44RoundRect,0.250000X0.450000X-0.350000X0.450000X0.350000X-0.450000X0.350000X-0.450000X-0.350000X0*%
G04 APERTURE END LIST*
D10*
X106870535Y5894911D02*
X107441963Y5894911D01*
X107156249Y5894911D02*
X107156249Y6894911D01*
X107156249Y6894911D02*
X107251487Y6752054D01*
X107251487Y6752054D02*
X107346725Y6656816D01*
X107346725Y6656816D02*
X107441963Y6609197D01*
X35433035Y5894911D02*
X36004463Y5894911D01*
X35718749Y5894911D02*
X35718749Y6894911D01*
X35718749Y6894911D02*
X35813987Y6752054D01*
X35813987Y6752054D02*
X35909225Y6656816D01*
X35909225Y6656816D02*
X36004463Y6609197D01*
X113165775Y70977396D02*
X113058633Y70941682D01*
X113058633Y70941682D02*
X112880061Y70941682D01*
X112880061Y70941682D02*
X112808633Y70977396D01*
X112808633Y70977396D02*
X112772918Y71013111D01*
X112772918Y71013111D02*
X112737204Y71084539D01*
X112737204Y71084539D02*
X112737204Y71155968D01*
X112737204Y71155968D02*
X112772918Y71227396D01*
X112772918Y71227396D02*
X112808633Y71263111D01*
X112808633Y71263111D02*
X112880061Y71298825D01*
X112880061Y71298825D02*
X113022918Y71334539D01*
X113022918Y71334539D02*
X113094347Y71370254D01*
X113094347Y71370254D02*
X113130061Y71405968D01*
X113130061Y71405968D02*
X113165775Y71477396D01*
X113165775Y71477396D02*
X113165775Y71548825D01*
X113165775Y71548825D02*
X113130061Y71620254D01*
X113130061Y71620254D02*
X113094347Y71655968D01*
X113094347Y71655968D02*
X113022918Y71691682D01*
X113022918Y71691682D02*
X112844347Y71691682D01*
X112844347Y71691682D02*
X112737204Y71655968D01*
X111987204Y71013111D02*
X112022918Y70977396D01*
X112022918Y70977396D02*
X112130061Y70941682D01*
X112130061Y70941682D02*
X112201489Y70941682D01*
X112201489Y70941682D02*
X112308632Y70977396D01*
X112308632Y70977396D02*
X112380061Y71048825D01*
X112380061Y71048825D02*
X112415775Y71120254D01*
X112415775Y71120254D02*
X112451489Y71263111D01*
X112451489Y71263111D02*
X112451489Y71370254D01*
X112451489Y71370254D02*
X112415775Y71513111D01*
X112415775Y71513111D02*
X112380061Y71584539D01*
X112380061Y71584539D02*
X112308632Y71655968D01*
X112308632Y71655968D02*
X112201489Y71691682D01*
X112201489Y71691682D02*
X112130061Y71691682D01*
X112130061Y71691682D02*
X112022918Y71655968D01*
X112022918Y71655968D02*
X111987204Y71620254D01*
X111665775Y70941682D02*
X111665775Y71691682D01*
X111237204Y70941682D02*
X111558632Y71370254D01*
X111237204Y71691682D02*
X111665775Y71263111D01*
X107441963Y5212173D02*
X107394344Y5259792D01*
X107394344Y5259792D02*
X107299106Y5307411D01*
X107299106Y5307411D02*
X107061011Y5307411D01*
X107061011Y5307411D02*
X106965773Y5259792D01*
X106965773Y5259792D02*
X106918154Y5212173D01*
X106918154Y5212173D02*
X106870535Y5116935D01*
X106870535Y5116935D02*
X106870535Y5021697D01*
X106870535Y5021697D02*
X106918154Y4878840D01*
X106918154Y4878840D02*
X107489582Y4307411D01*
X107489582Y4307411D02*
X106870535Y4307411D01*
X86058332Y7026161D02*
X85439285Y7026161D01*
X85439285Y7026161D02*
X85772618Y6645209D01*
X85772618Y6645209D02*
X85629761Y6645209D01*
X85629761Y6645209D02*
X85534523Y6597590D01*
X85534523Y6597590D02*
X85486904Y6549971D01*
X85486904Y6549971D02*
X85439285Y6454733D01*
X85439285Y6454733D02*
X85439285Y6216638D01*
X85439285Y6216638D02*
X85486904Y6121400D01*
X85486904Y6121400D02*
X85534523Y6073780D01*
X85534523Y6073780D02*
X85629761Y6026161D01*
X85629761Y6026161D02*
X85915475Y6026161D01*
X85915475Y6026161D02*
X86010713Y6073780D01*
X86010713Y6073780D02*
X86058332Y6121400D01*
X78866963Y6799673D02*
X78819344Y6847292D01*
X78819344Y6847292D02*
X78724106Y6894911D01*
X78724106Y6894911D02*
X78486011Y6894911D01*
X78486011Y6894911D02*
X78390773Y6847292D01*
X78390773Y6847292D02*
X78343154Y6799673D01*
X78343154Y6799673D02*
X78295535Y6704435D01*
X78295535Y6704435D02*
X78295535Y6609197D01*
X78295535Y6609197D02*
X78343154Y6466340D01*
X78343154Y6466340D02*
X78914582Y5894911D01*
X78914582Y5894911D02*
X78295535Y5894911D01*
X113130061Y68262769D02*
X113130061Y69012769D01*
X113130061Y69012769D02*
X112880061Y68477055D01*
X112880061Y68477055D02*
X112630061Y69012769D01*
X112630061Y69012769D02*
X112630061Y68262769D01*
X112272918Y68262769D02*
X112272918Y69012769D01*
X111951489Y68298483D02*
X111844347Y68262769D01*
X111844347Y68262769D02*
X111665775Y68262769D01*
X111665775Y68262769D02*
X111594347Y68298483D01*
X111594347Y68298483D02*
X111558632Y68334198D01*
X111558632Y68334198D02*
X111522918Y68405626D01*
X111522918Y68405626D02*
X111522918Y68477055D01*
X111522918Y68477055D02*
X111558632Y68548483D01*
X111558632Y68548483D02*
X111594347Y68584198D01*
X111594347Y68584198D02*
X111665775Y68619912D01*
X111665775Y68619912D02*
X111808632Y68655626D01*
X111808632Y68655626D02*
X111880061Y68691341D01*
X111880061Y68691341D02*
X111915775Y68727055D01*
X111915775Y68727055D02*
X111951489Y68798483D01*
X111951489Y68798483D02*
X111951489Y68869912D01*
X111951489Y68869912D02*
X111915775Y68941341D01*
X111915775Y68941341D02*
X111880061Y68977055D01*
X111880061Y68977055D02*
X111808632Y69012769D01*
X111808632Y69012769D02*
X111630061Y69012769D01*
X111630061Y69012769D02*
X111522918Y68977055D01*
X111058632Y69012769D02*
X110915775Y69012769D01*
X110915775Y69012769D02*
X110844346Y68977055D01*
X110844346Y68977055D02*
X110772918Y68905626D01*
X110772918Y68905626D02*
X110737203Y68762769D01*
X110737203Y68762769D02*
X110737203Y68512769D01*
X110737203Y68512769D02*
X110772918Y68369912D01*
X110772918Y68369912D02*
X110844346Y68298483D01*
X110844346Y68298483D02*
X110915775Y68262769D01*
X110915775Y68262769D02*
X111058632Y68262769D01*
X111058632Y68262769D02*
X111130061Y68298483D01*
X111130061Y68298483D02*
X111201489Y68369912D01*
X111201489Y68369912D02*
X111237203Y68512769D01*
X111237203Y68512769D02*
X111237203Y68762769D01*
X111237203Y68762769D02*
X111201489Y68905626D01*
X111201489Y68905626D02*
X111130061Y68977055D01*
X111130061Y68977055D02*
X111058632Y69012769D01*
X36004463Y5212173D02*
X35956844Y5259792D01*
X35956844Y5259792D02*
X35861606Y5307411D01*
X35861606Y5307411D02*
X35623511Y5307411D01*
X35623511Y5307411D02*
X35528273Y5259792D01*
X35528273Y5259792D02*
X35480654Y5212173D01*
X35480654Y5212173D02*
X35433035Y5116935D01*
X35433035Y5116935D02*
X35433035Y5021697D01*
X35433035Y5021697D02*
X35480654Y4878840D01*
X35480654Y4878840D02*
X36052082Y4307411D01*
X36052082Y4307411D02*
X35433035Y4307411D01*
X80676785Y5894911D02*
X81248213Y5894911D01*
X80962499Y5894911D02*
X80962499Y6894911D01*
X80962499Y6894911D02*
X81057737Y6752054D01*
X81057737Y6752054D02*
X81152975Y6656816D01*
X81152975Y6656816D02*
X81248213Y6609197D01*
X190785713Y6799673D02*
X190738094Y6847292D01*
X190738094Y6847292D02*
X190642856Y6894911D01*
X190642856Y6894911D02*
X190404761Y6894911D01*
X190404761Y6894911D02*
X190309523Y6847292D01*
X190309523Y6847292D02*
X190261904Y6799673D01*
X190261904Y6799673D02*
X190214285Y6704435D01*
X190214285Y6704435D02*
X190214285Y6609197D01*
X190214285Y6609197D02*
X190261904Y6466340D01*
X190261904Y6466340D02*
X190833332Y5894911D01*
X190833332Y5894911D02*
X190214285Y5894911D01*
X59245535Y5894911D02*
X59816963Y5894911D01*
X59531249Y5894911D02*
X59531249Y6894911D01*
X59531249Y6894911D02*
X59626487Y6752054D01*
X59626487Y6752054D02*
X59721725Y6656816D01*
X59721725Y6656816D02*
X59816963Y6609197D01*
X162258332Y6894911D02*
X161639285Y6894911D01*
X161639285Y6894911D02*
X161972618Y6513959D01*
X161972618Y6513959D02*
X161829761Y6513959D01*
X161829761Y6513959D02*
X161734523Y6466340D01*
X161734523Y6466340D02*
X161686904Y6418721D01*
X161686904Y6418721D02*
X161639285Y6323483D01*
X161639285Y6323483D02*
X161639285Y6085388D01*
X161639285Y6085388D02*
X161686904Y5990150D01*
X161686904Y5990150D02*
X161734523Y5942530D01*
X161734523Y5942530D02*
X161829761Y5894911D01*
X161829761Y5894911D02*
X162115475Y5894911D01*
X162115475Y5894911D02*
X162210713Y5942530D01*
X162210713Y5942530D02*
X162258332Y5990150D01*
X120380244Y70025525D02*
X119976183Y69621464D01*
X120380244Y69621464D02*
X119976183Y70025525D01*
X119142807Y69444687D02*
X119395346Y69697225D01*
X119395346Y69697225D02*
X119673138Y69469941D01*
X119673138Y69469941D02*
X119622630Y69469941D01*
X119622630Y69469941D02*
X119546869Y69444687D01*
X119546869Y69444687D02*
X119420599Y69318418D01*
X119420599Y69318418D02*
X119395346Y69242657D01*
X119395346Y69242657D02*
X119395346Y69192149D01*
X119395346Y69192149D02*
X119420599Y69116388D01*
X119420599Y69116388D02*
X119546869Y68990118D01*
X119546869Y68990118D02*
X119622630Y68964865D01*
X119622630Y68964865D02*
X119673138Y68964865D01*
X119673138Y68964865D02*
X119748899Y68990118D01*
X119748899Y68990118D02*
X119875168Y69116388D01*
X119875168Y69116388D02*
X119900422Y69192149D01*
X119900422Y69192149D02*
X119900422Y69242657D01*
X118966031Y69267910D02*
X119319584Y68560803D01*
X119319584Y68560803D02*
X118612477Y68914357D01*
X211645535Y5894911D02*
X212216963Y5894911D01*
X211931249Y5894911D02*
X211931249Y6894911D01*
X211931249Y6894911D02*
X212026487Y6752054D01*
X212026487Y6752054D02*
X212121725Y6656816D01*
X212121725Y6656816D02*
X212216963Y6609197D01*
X109870832Y6894911D02*
X109251785Y6894911D01*
X109251785Y6894911D02*
X109585118Y6513959D01*
X109585118Y6513959D02*
X109442261Y6513959D01*
X109442261Y6513959D02*
X109347023Y6466340D01*
X109347023Y6466340D02*
X109299404Y6418721D01*
X109299404Y6418721D02*
X109251785Y6323483D01*
X109251785Y6323483D02*
X109251785Y6085388D01*
X109251785Y6085388D02*
X109299404Y5990150D01*
X109299404Y5990150D02*
X109347023Y5942530D01*
X109347023Y5942530D02*
X109442261Y5894911D01*
X109442261Y5894911D02*
X109727975Y5894911D01*
X109727975Y5894911D02*
X109823213Y5942530D01*
X109823213Y5942530D02*
X109870832Y5990150D01*
X181308332Y6894911D02*
X180689285Y6894911D01*
X180689285Y6894911D02*
X181022618Y6513959D01*
X181022618Y6513959D02*
X180879761Y6513959D01*
X180879761Y6513959D02*
X180784523Y6466340D01*
X180784523Y6466340D02*
X180736904Y6418721D01*
X180736904Y6418721D02*
X180689285Y6323483D01*
X180689285Y6323483D02*
X180689285Y6085388D01*
X180689285Y6085388D02*
X180736904Y5990150D01*
X180736904Y5990150D02*
X180784523Y5942530D01*
X180784523Y5942530D02*
X180879761Y5894911D01*
X180879761Y5894911D02*
X181165475Y5894911D01*
X181165475Y5894911D02*
X181260713Y5942530D01*
X181260713Y5942530D02*
X181308332Y5990150D01*
X207502082Y6894911D02*
X206883035Y6894911D01*
X206883035Y6894911D02*
X207216368Y6513959D01*
X207216368Y6513959D02*
X207073511Y6513959D01*
X207073511Y6513959D02*
X206978273Y6466340D01*
X206978273Y6466340D02*
X206930654Y6418721D01*
X206930654Y6418721D02*
X206883035Y6323483D01*
X206883035Y6323483D02*
X206883035Y6085388D01*
X206883035Y6085388D02*
X206930654Y5990150D01*
X206930654Y5990150D02*
X206978273Y5942530D01*
X206978273Y5942530D02*
X207073511Y5894911D01*
X207073511Y5894911D02*
X207359225Y5894911D01*
X207359225Y5894911D02*
X207454463Y5942530D01*
X207454463Y5942530D02*
X207502082Y5990150D01*
X140208035Y5894911D02*
X140779463Y5894911D01*
X140493749Y5894911D02*
X140493749Y6894911D01*
X140493749Y6894911D02*
X140588987Y6752054D01*
X140588987Y6752054D02*
X140684225Y6656816D01*
X140684225Y6656816D02*
X140779463Y6609197D01*
X166401785Y5894911D02*
X166973213Y5894911D01*
X166687499Y5894911D02*
X166687499Y6894911D01*
X166687499Y6894911D02*
X166782737Y6752054D01*
X166782737Y6752054D02*
X166877975Y6656816D01*
X166877975Y6656816D02*
X166973213Y6609197D01*
X187833035Y5894911D02*
X188404463Y5894911D01*
X188118749Y5894911D02*
X188118749Y6894911D01*
X188118749Y6894911D02*
X188213987Y6752054D01*
X188213987Y6752054D02*
X188309225Y6656816D01*
X188309225Y6656816D02*
X188404463Y6609197D01*
X138445832Y6894911D02*
X137826785Y6894911D01*
X137826785Y6894911D02*
X138160118Y6513959D01*
X138160118Y6513959D02*
X138017261Y6513959D01*
X138017261Y6513959D02*
X137922023Y6466340D01*
X137922023Y6466340D02*
X137874404Y6418721D01*
X137874404Y6418721D02*
X137826785Y6323483D01*
X137826785Y6323483D02*
X137826785Y6085388D01*
X137826785Y6085388D02*
X137874404Y5990150D01*
X137874404Y5990150D02*
X137922023Y5942530D01*
X137922023Y5942530D02*
X138017261Y5894911D01*
X138017261Y5894911D02*
X138302975Y5894911D01*
X138302975Y5894911D02*
X138398213Y5942530D01*
X138398213Y5942530D02*
X138445832Y5990150D01*
X112701490Y73620595D02*
X112951490Y73977738D01*
X113130061Y73620595D02*
X113130061Y74370595D01*
X113130061Y74370595D02*
X112844347Y74370595D01*
X112844347Y74370595D02*
X112772918Y74334881D01*
X112772918Y74334881D02*
X112737204Y74299167D01*
X112737204Y74299167D02*
X112701490Y74227738D01*
X112701490Y74227738D02*
X112701490Y74120595D01*
X112701490Y74120595D02*
X112737204Y74049167D01*
X112737204Y74049167D02*
X112772918Y74013452D01*
X112772918Y74013452D02*
X112844347Y73977738D01*
X112844347Y73977738D02*
X113130061Y73977738D01*
X112415775Y73656309D02*
X112308633Y73620595D01*
X112308633Y73620595D02*
X112130061Y73620595D01*
X112130061Y73620595D02*
X112058633Y73656309D01*
X112058633Y73656309D02*
X112022918Y73692024D01*
X112022918Y73692024D02*
X111987204Y73763452D01*
X111987204Y73763452D02*
X111987204Y73834881D01*
X111987204Y73834881D02*
X112022918Y73906309D01*
X112022918Y73906309D02*
X112058633Y73942024D01*
X112058633Y73942024D02*
X112130061Y73977738D01*
X112130061Y73977738D02*
X112272918Y74013452D01*
X112272918Y74013452D02*
X112344347Y74049167D01*
X112344347Y74049167D02*
X112380061Y74084881D01*
X112380061Y74084881D02*
X112415775Y74156309D01*
X112415775Y74156309D02*
X112415775Y74227738D01*
X112415775Y74227738D02*
X112380061Y74299167D01*
X112380061Y74299167D02*
X112344347Y74334881D01*
X112344347Y74334881D02*
X112272918Y74370595D01*
X112272918Y74370595D02*
X112094347Y74370595D01*
X112094347Y74370595D02*
X111987204Y74334881D01*
X111772918Y74370595D02*
X111344347Y74370595D01*
X111558632Y73620595D02*
X111558632Y74370595D01*
X120178629Y73739567D02*
X120250058Y73775281D01*
X120250058Y73775281D02*
X120357200Y73775281D01*
X120357200Y73775281D02*
X120464343Y73739567D01*
X120464343Y73739567D02*
X120535772Y73668138D01*
X120535772Y73668138D02*
X120571486Y73596710D01*
X120571486Y73596710D02*
X120607200Y73453853D01*
X120607200Y73453853D02*
X120607200Y73346710D01*
X120607200Y73346710D02*
X120571486Y73203853D01*
X120571486Y73203853D02*
X120535772Y73132424D01*
X120535772Y73132424D02*
X120464343Y73060995D01*
X120464343Y73060995D02*
X120357200Y73025281D01*
X120357200Y73025281D02*
X120285772Y73025281D01*
X120285772Y73025281D02*
X120178629Y73060995D01*
X120178629Y73060995D02*
X120142915Y73096710D01*
X120142915Y73096710D02*
X120142915Y73346710D01*
X120142915Y73346710D02*
X120285772Y73346710D01*
X119821486Y73025281D02*
X119821486Y73775281D01*
X119821486Y73775281D02*
X119392915Y73025281D01*
X119392915Y73025281D02*
X119392915Y73775281D01*
X119035772Y73025281D02*
X119035772Y73775281D01*
X119035772Y73775281D02*
X118857201Y73775281D01*
X118857201Y73775281D02*
X118750058Y73739567D01*
X118750058Y73739567D02*
X118678629Y73668138D01*
X118678629Y73668138D02*
X118642915Y73596710D01*
X118642915Y73596710D02*
X118607201Y73453853D01*
X118607201Y73453853D02*
X118607201Y73346710D01*
X118607201Y73346710D02*
X118642915Y73203853D01*
X118642915Y73203853D02*
X118678629Y73132424D01*
X118678629Y73132424D02*
X118750058Y73060995D01*
X118750058Y73060995D02*
X118857201Y73025281D01*
X118857201Y73025281D02*
X119035772Y73025281D01*
X140779463Y5212173D02*
X140731844Y5259792D01*
X140731844Y5259792D02*
X140636606Y5307411D01*
X140636606Y5307411D02*
X140398511Y5307411D01*
X140398511Y5307411D02*
X140303273Y5259792D01*
X140303273Y5259792D02*
X140255654Y5212173D01*
X140255654Y5212173D02*
X140208035Y5116935D01*
X140208035Y5116935D02*
X140208035Y5021697D01*
X140208035Y5021697D02*
X140255654Y4878840D01*
X140255654Y4878840D02*
X140827082Y4307411D01*
X140827082Y4307411D02*
X140208035Y4307411D01*
X120869143Y70941682D02*
X120869143Y71691682D01*
X120869143Y71691682D02*
X120619143Y71155968D01*
X120619143Y71155968D02*
X120369143Y71691682D01*
X120369143Y71691682D02*
X120369143Y70941682D01*
X119869143Y71691682D02*
X119726286Y71691682D01*
X119726286Y71691682D02*
X119654857Y71655968D01*
X119654857Y71655968D02*
X119583429Y71584539D01*
X119583429Y71584539D02*
X119547714Y71441682D01*
X119547714Y71441682D02*
X119547714Y71191682D01*
X119547714Y71191682D02*
X119583429Y71048825D01*
X119583429Y71048825D02*
X119654857Y70977396D01*
X119654857Y70977396D02*
X119726286Y70941682D01*
X119726286Y70941682D02*
X119869143Y70941682D01*
X119869143Y70941682D02*
X119940572Y70977396D01*
X119940572Y70977396D02*
X120012000Y71048825D01*
X120012000Y71048825D02*
X120047714Y71191682D01*
X120047714Y71191682D02*
X120047714Y71441682D01*
X120047714Y71441682D02*
X120012000Y71584539D01*
X120012000Y71584539D02*
X119940572Y71655968D01*
X119940572Y71655968D02*
X119869143Y71691682D01*
X119262000Y70977396D02*
X119154858Y70941682D01*
X119154858Y70941682D02*
X118976286Y70941682D01*
X118976286Y70941682D02*
X118904858Y70977396D01*
X118904858Y70977396D02*
X118869143Y71013111D01*
X118869143Y71013111D02*
X118833429Y71084539D01*
X118833429Y71084539D02*
X118833429Y71155968D01*
X118833429Y71155968D02*
X118869143Y71227396D01*
X118869143Y71227396D02*
X118904858Y71263111D01*
X118904858Y71263111D02*
X118976286Y71298825D01*
X118976286Y71298825D02*
X119119143Y71334539D01*
X119119143Y71334539D02*
X119190572Y71370254D01*
X119190572Y71370254D02*
X119226286Y71405968D01*
X119226286Y71405968D02*
X119262000Y71477396D01*
X119262000Y71477396D02*
X119262000Y71548825D01*
X119262000Y71548825D02*
X119226286Y71620254D01*
X119226286Y71620254D02*
X119190572Y71655968D01*
X119190572Y71655968D02*
X119119143Y71691682D01*
X119119143Y71691682D02*
X118940572Y71691682D01*
X118940572Y71691682D02*
X118833429Y71655968D01*
X118512000Y70941682D02*
X118512000Y71691682D01*
X67008332Y6894911D02*
X66389285Y6894911D01*
X66389285Y6894911D02*
X66722618Y6513959D01*
X66722618Y6513959D02*
X66579761Y6513959D01*
X66579761Y6513959D02*
X66484523Y6466340D01*
X66484523Y6466340D02*
X66436904Y6418721D01*
X66436904Y6418721D02*
X66389285Y6323483D01*
X66389285Y6323483D02*
X66389285Y6085388D01*
X66389285Y6085388D02*
X66436904Y5990150D01*
X66436904Y5990150D02*
X66484523Y5942530D01*
X66484523Y5942530D02*
X66579761Y5894911D01*
X66579761Y5894911D02*
X66865475Y5894911D01*
X66865475Y5894911D02*
X66960713Y5942530D01*
X66960713Y5942530D02*
X67008332Y5990150D01*
X212216963Y5212173D02*
X212169344Y5259792D01*
X212169344Y5259792D02*
X212074106Y5307411D01*
X212074106Y5307411D02*
X211836011Y5307411D01*
X211836011Y5307411D02*
X211740773Y5259792D01*
X211740773Y5259792D02*
X211693154Y5212173D01*
X211693154Y5212173D02*
X211645535Y5116935D01*
X211645535Y5116935D02*
X211645535Y5021697D01*
X211645535Y5021697D02*
X211693154Y4878840D01*
X211693154Y4878840D02*
X212264582Y4307411D01*
X212264582Y4307411D02*
X211645535Y4307411D01*
X169354463Y6799673D02*
X169306844Y6847292D01*
X169306844Y6847292D02*
X169211606Y6894911D01*
X169211606Y6894911D02*
X168973511Y6894911D01*
X168973511Y6894911D02*
X168878273Y6847292D01*
X168878273Y6847292D02*
X168830654Y6799673D01*
X168830654Y6799673D02*
X168783035Y6704435D01*
X168783035Y6704435D02*
X168783035Y6609197D01*
X168783035Y6609197D02*
X168830654Y6466340D01*
X168830654Y6466340D02*
X169402082Y5894911D01*
X169402082Y5894911D02*
X168783035Y5894911D01*
X40814582Y6894911D02*
X40195535Y6894911D01*
X40195535Y6894911D02*
X40528868Y6513959D01*
X40528868Y6513959D02*
X40386011Y6513959D01*
X40386011Y6513959D02*
X40290773Y6466340D01*
X40290773Y6466340D02*
X40243154Y6418721D01*
X40243154Y6418721D02*
X40195535Y6323483D01*
X40195535Y6323483D02*
X40195535Y6085388D01*
X40195535Y6085388D02*
X40243154Y5990150D01*
X40243154Y5990150D02*
X40290773Y5942530D01*
X40290773Y5942530D02*
X40386011Y5894911D01*
X40386011Y5894911D02*
X40671725Y5894911D01*
X40671725Y5894911D02*
X40766963Y5942530D01*
X40766963Y5942530D02*
X40814582Y5990150D01*
X57435713Y6799673D02*
X57388094Y6847292D01*
X57388094Y6847292D02*
X57292856Y6894911D01*
X57292856Y6894911D02*
X57054761Y6894911D01*
X57054761Y6894911D02*
X56959523Y6847292D01*
X56959523Y6847292D02*
X56911904Y6799673D01*
X56911904Y6799673D02*
X56864285Y6704435D01*
X56864285Y6704435D02*
X56864285Y6609197D01*
X56864285Y6609197D02*
X56911904Y6466340D01*
X56911904Y6466340D02*
X57483332Y5894911D01*
X57483332Y5894911D02*
X56864285Y5894911D01*
X123279819Y49815206D02*
X123279819Y49243778D01*
X124279819Y49529492D02*
X123279819Y49529492D01*
X124279819Y48910444D02*
X123279819Y48910444D01*
X123279819Y48910444D02*
X123279819Y48529492D01*
X123279819Y48529492D02*
X123327438Y48434254D01*
X123327438Y48434254D02*
X123375057Y48386635D01*
X123375057Y48386635D02*
X123470295Y48339016D01*
X123470295Y48339016D02*
X123613152Y48339016D01*
X123613152Y48339016D02*
X123708390Y48386635D01*
X123708390Y48386635D02*
X123756009Y48434254D01*
X123756009Y48434254D02*
X123803628Y48529492D01*
X123803628Y48529492D02*
X123803628Y48910444D01*
X124184580Y47339016D02*
X124232200Y47386635D01*
X124232200Y47386635D02*
X124279819Y47529492D01*
X124279819Y47529492D02*
X124279819Y47624730D01*
X124279819Y47624730D02*
X124232200Y47767587D01*
X124232200Y47767587D02*
X124136961Y47862825D01*
X124136961Y47862825D02*
X124041723Y47910444D01*
X124041723Y47910444D02*
X123851247Y47958063D01*
X123851247Y47958063D02*
X123708390Y47958063D01*
X123708390Y47958063D02*
X123517914Y47910444D01*
X123517914Y47910444D02*
X123422676Y47862825D01*
X123422676Y47862825D02*
X123327438Y47767587D01*
X123327438Y47767587D02*
X123279819Y47624730D01*
X123279819Y47624730D02*
X123279819Y47529492D01*
X123279819Y47529492D02*
X123327438Y47386635D01*
X123327438Y47386635D02*
X123375057Y47339016D01*
X124279819Y46434254D02*
X124279819Y46910444D01*
X124279819Y46910444D02*
X123279819Y46910444D01*
X124279819Y46100920D02*
X123279819Y46100920D01*
X124279819Y45529492D02*
X123708390Y45958063D01*
X123279819Y45529492D02*
X123851247Y46100920D01*
X120898569Y49934254D02*
X120898569Y49362826D01*
X121898569Y49648540D02*
X120898569Y49648540D01*
X121898569Y49029492D02*
X120898569Y49029492D01*
X120898569Y49029492D02*
X120898569Y48648540D01*
X120898569Y48648540D02*
X120946188Y48553302D01*
X120946188Y48553302D02*
X120993807Y48505683D01*
X120993807Y48505683D02*
X121089045Y48458064D01*
X121089045Y48458064D02*
X121231902Y48458064D01*
X121231902Y48458064D02*
X121327140Y48505683D01*
X121327140Y48505683D02*
X121374759Y48553302D01*
X121374759Y48553302D02*
X121422378Y48648540D01*
X121422378Y48648540D02*
X121422378Y49029492D01*
X120946188Y47505683D02*
X120898569Y47600921D01*
X120898569Y47600921D02*
X120898569Y47743778D01*
X120898569Y47743778D02*
X120946188Y47886635D01*
X120946188Y47886635D02*
X121041426Y47981873D01*
X121041426Y47981873D02*
X121136664Y48029492D01*
X121136664Y48029492D02*
X121327140Y48077111D01*
X121327140Y48077111D02*
X121469997Y48077111D01*
X121469997Y48077111D02*
X121660473Y48029492D01*
X121660473Y48029492D02*
X121755711Y47981873D01*
X121755711Y47981873D02*
X121850950Y47886635D01*
X121850950Y47886635D02*
X121898569Y47743778D01*
X121898569Y47743778D02*
X121898569Y47648540D01*
X121898569Y47648540D02*
X121850950Y47505683D01*
X121850950Y47505683D02*
X121803330Y47458064D01*
X121803330Y47458064D02*
X121469997Y47458064D01*
X121469997Y47458064D02*
X121469997Y47648540D01*
X121898569Y47029492D02*
X120898569Y47029492D01*
X120898569Y47029492D02*
X121898569Y46458064D01*
X121898569Y46458064D02*
X120898569Y46458064D01*
X121898569Y45981873D02*
X120898569Y45981873D01*
X120898569Y45981873D02*
X120898569Y45743778D01*
X120898569Y45743778D02*
X120946188Y45600921D01*
X120946188Y45600921D02*
X121041426Y45505683D01*
X121041426Y45505683D02*
X121136664Y45458064D01*
X121136664Y45458064D02*
X121327140Y45410445D01*
X121327140Y45410445D02*
X121469997Y45410445D01*
X121469997Y45410445D02*
X121660473Y45458064D01*
X121660473Y45458064D02*
X121755711Y45505683D01*
X121755711Y45505683D02*
X121850950Y45600921D01*
X121850950Y45600921D02*
X121898569Y45743778D01*
X121898569Y45743778D02*
X121898569Y45981873D01*
X118101785Y44994911D02*
X117530357Y44994911D01*
X117816071Y43994911D02*
X117816071Y44994911D01*
X117197023Y43994911D02*
X117197023Y44994911D01*
X117197023Y44994911D02*
X116816071Y44994911D01*
X116816071Y44994911D02*
X116720833Y44947292D01*
X116720833Y44947292D02*
X116673214Y44899673D01*
X116673214Y44899673D02*
X116625595Y44804435D01*
X116625595Y44804435D02*
X116625595Y44661578D01*
X116625595Y44661578D02*
X116673214Y44566340D01*
X116673214Y44566340D02*
X116720833Y44518721D01*
X116720833Y44518721D02*
X116816071Y44471102D01*
X116816071Y44471102D02*
X117197023Y44471102D01*
X116339880Y44994911D02*
X116006547Y43994911D01*
X116006547Y43994911D02*
X115673214Y44994911D01*
X114768452Y44090150D02*
X114816071Y44042530D01*
X114816071Y44042530D02*
X114958928Y43994911D01*
X114958928Y43994911D02*
X115054166Y43994911D01*
X115054166Y43994911D02*
X115197023Y44042530D01*
X115197023Y44042530D02*
X115292261Y44137769D01*
X115292261Y44137769D02*
X115339880Y44233007D01*
X115339880Y44233007D02*
X115387499Y44423483D01*
X115387499Y44423483D02*
X115387499Y44566340D01*
X115387499Y44566340D02*
X115339880Y44756816D01*
X115339880Y44756816D02*
X115292261Y44852054D01*
X115292261Y44852054D02*
X115197023Y44947292D01*
X115197023Y44947292D02*
X115054166Y44994911D01*
X115054166Y44994911D02*
X114958928Y44994911D01*
X114958928Y44994911D02*
X114816071Y44947292D01*
X114816071Y44947292D02*
X114768452Y44899673D01*
X113768452Y44090150D02*
X113816071Y44042530D01*
X113816071Y44042530D02*
X113958928Y43994911D01*
X113958928Y43994911D02*
X114054166Y43994911D01*
X114054166Y43994911D02*
X114197023Y44042530D01*
X114197023Y44042530D02*
X114292261Y44137769D01*
X114292261Y44137769D02*
X114339880Y44233007D01*
X114339880Y44233007D02*
X114387499Y44423483D01*
X114387499Y44423483D02*
X114387499Y44566340D01*
X114387499Y44566340D02*
X114339880Y44756816D01*
X114339880Y44756816D02*
X114292261Y44852054D01*
X114292261Y44852054D02*
X114197023Y44947292D01*
X114197023Y44947292D02*
X114054166Y44994911D01*
X114054166Y44994911D02*
X113958928Y44994911D01*
X113958928Y44994911D02*
X113816071Y44947292D01*
X113816071Y44947292D02*
X113768452Y44899673D01*
X125661069Y49767587D02*
X125661069Y49196159D01*
X126661069Y49481873D02*
X125661069Y49481873D01*
X126661069Y48862825D02*
X125661069Y48862825D01*
X125661069Y48862825D02*
X125661069Y48481873D01*
X125661069Y48481873D02*
X125708688Y48386635D01*
X125708688Y48386635D02*
X125756307Y48339016D01*
X125756307Y48339016D02*
X125851545Y48291397D01*
X125851545Y48291397D02*
X125994402Y48291397D01*
X125994402Y48291397D02*
X126089640Y48339016D01*
X126089640Y48339016D02*
X126137259Y48386635D01*
X126137259Y48386635D02*
X126184878Y48481873D01*
X126184878Y48481873D02*
X126184878Y48862825D01*
X126661069Y47291397D02*
X126184878Y47624730D01*
X126661069Y47862825D02*
X125661069Y47862825D01*
X125661069Y47862825D02*
X125661069Y47481873D01*
X125661069Y47481873D02*
X125708688Y47386635D01*
X125708688Y47386635D02*
X125756307Y47339016D01*
X125756307Y47339016D02*
X125851545Y47291397D01*
X125851545Y47291397D02*
X125994402Y47291397D01*
X125994402Y47291397D02*
X126089640Y47339016D01*
X126089640Y47339016D02*
X126137259Y47386635D01*
X126137259Y47386635D02*
X126184878Y47481873D01*
X126184878Y47481873D02*
X126184878Y47862825D01*
X126613450Y46910444D02*
X126661069Y46767587D01*
X126661069Y46767587D02*
X126661069Y46529492D01*
X126661069Y46529492D02*
X126613450Y46434254D01*
X126613450Y46434254D02*
X126565830Y46386635D01*
X126565830Y46386635D02*
X126470592Y46339016D01*
X126470592Y46339016D02*
X126375354Y46339016D01*
X126375354Y46339016D02*
X126280116Y46386635D01*
X126280116Y46386635D02*
X126232497Y46434254D01*
X126232497Y46434254D02*
X126184878Y46529492D01*
X126184878Y46529492D02*
X126137259Y46719968D01*
X126137259Y46719968D02*
X126089640Y46815206D01*
X126089640Y46815206D02*
X126042021Y46862825D01*
X126042021Y46862825D02*
X125946783Y46910444D01*
X125946783Y46910444D02*
X125851545Y46910444D01*
X125851545Y46910444D02*
X125756307Y46862825D01*
X125756307Y46862825D02*
X125708688Y46815206D01*
X125708688Y46815206D02*
X125661069Y46719968D01*
X125661069Y46719968D02*
X125661069Y46481873D01*
X125661069Y46481873D02*
X125708688Y46339016D01*
X125661069Y46053301D02*
X125661069Y45481873D01*
X126661069Y45767587D02*
X125661069Y45767587D01*
X135080059Y44994911D02*
X134508631Y44994911D01*
X134794345Y43994911D02*
X134794345Y44994911D01*
X134175297Y43994911D02*
X134175297Y44994911D01*
X134175297Y44994911D02*
X133794345Y44994911D01*
X133794345Y44994911D02*
X133699107Y44947292D01*
X133699107Y44947292D02*
X133651488Y44899673D01*
X133651488Y44899673D02*
X133603869Y44804435D01*
X133603869Y44804435D02*
X133603869Y44661578D01*
X133603869Y44661578D02*
X133651488Y44566340D01*
X133651488Y44566340D02*
X133699107Y44518721D01*
X133699107Y44518721D02*
X133794345Y44471102D01*
X133794345Y44471102D02*
X134175297Y44471102D01*
X133175297Y43994911D02*
X133175297Y44994911D01*
X133175297Y44994911D02*
X132937202Y44994911D01*
X132937202Y44994911D02*
X132794345Y44947292D01*
X132794345Y44947292D02*
X132699107Y44852054D01*
X132699107Y44852054D02*
X132651488Y44756816D01*
X132651488Y44756816D02*
X132603869Y44566340D01*
X132603869Y44566340D02*
X132603869Y44423483D01*
X132603869Y44423483D02*
X132651488Y44233007D01*
X132651488Y44233007D02*
X132699107Y44137769D01*
X132699107Y44137769D02*
X132794345Y44042530D01*
X132794345Y44042530D02*
X132937202Y43994911D01*
X132937202Y43994911D02*
X133175297Y43994911D01*
X132222916Y44280626D02*
X131746726Y44280626D01*
X132318154Y43994911D02*
X131984821Y44994911D01*
X131984821Y44994911D02*
X131651488Y43994911D01*
X131461011Y44994911D02*
X130889583Y44994911D01*
X131175297Y43994911D02*
X131175297Y44994911D01*
X130603868Y44280626D02*
X130127678Y44280626D01*
X130699106Y43994911D02*
X130365773Y44994911D01*
X130365773Y44994911D02*
X130032440Y43994911D01*
X113280163Y58397908D02*
X113280163Y57588385D01*
X113280163Y57588385D02*
X113232544Y57493147D01*
X113232544Y57493147D02*
X113184925Y57445527D01*
X113184925Y57445527D02*
X113089687Y57397908D01*
X113089687Y57397908D02*
X112899211Y57397908D01*
X112899211Y57397908D02*
X112803973Y57445527D01*
X112803973Y57445527D02*
X112756354Y57493147D01*
X112756354Y57493147D02*
X112708735Y57588385D01*
X112708735Y57588385D02*
X112708735Y58397908D01*
X111661116Y57397908D02*
X111994449Y57874099D01*
X112232544Y57397908D02*
X112232544Y58397908D01*
X112232544Y58397908D02*
X111851592Y58397908D01*
X111851592Y58397908D02*
X111756354Y58350289D01*
X111756354Y58350289D02*
X111708735Y58302670D01*
X111708735Y58302670D02*
X111661116Y58207432D01*
X111661116Y58207432D02*
X111661116Y58064575D01*
X111661116Y58064575D02*
X111708735Y57969337D01*
X111708735Y57969337D02*
X111756354Y57921718D01*
X111756354Y57921718D02*
X111851592Y57874099D01*
X111851592Y57874099D02*
X112232544Y57874099D01*
X111280163Y58302670D02*
X111232544Y58350289D01*
X111232544Y58350289D02*
X111137306Y58397908D01*
X111137306Y58397908D02*
X110899211Y58397908D01*
X110899211Y58397908D02*
X110803973Y58350289D01*
X110803973Y58350289D02*
X110756354Y58302670D01*
X110756354Y58302670D02*
X110708735Y58207432D01*
X110708735Y58207432D02*
X110708735Y58112194D01*
X110708735Y58112194D02*
X110756354Y57969337D01*
X110756354Y57969337D02*
X111327782Y57397908D01*
X111327782Y57397908D02*
X110708735Y57397908D01*
X126393168Y65251401D02*
X126628870Y64072890D01*
X125921764Y64779997D02*
X127100275Y64544295D01*
X125989107Y63433127D02*
X126393168Y63837188D01*
X126191138Y63635157D02*
X125484031Y64342264D01*
X125484031Y64342264D02*
X125652390Y64308592D01*
X125652390Y64308592D02*
X125787077Y64308592D01*
X125787077Y64308592D02*
X125888092Y64342264D01*
D11*
X120176689Y66094368D02*
X119957823Y65875501D01*
X119957823Y65875501D02*
X120210361Y65858665D01*
X120210361Y65858665D02*
X120159854Y65808158D01*
X120159854Y65808158D02*
X120143018Y65757650D01*
X120143018Y65757650D02*
X120143018Y65723978D01*
X120143018Y65723978D02*
X120159854Y65673471D01*
X120159854Y65673471D02*
X120244033Y65589291D01*
X120244033Y65589291D02*
X120294541Y65572455D01*
X120294541Y65572455D02*
X120328212Y65572455D01*
X120328212Y65572455D02*
X120378720Y65589291D01*
X120378720Y65589291D02*
X120479735Y65690306D01*
X120479735Y65690306D02*
X120496571Y65740814D01*
X120496571Y65740814D02*
X120496571Y65774486D01*
X124574201Y70256177D02*
X124809903Y70020474D01*
X124523693Y70475043D02*
X124860411Y70306684D01*
X124860411Y70306684D02*
X124641544Y70087818D01*
X127636187Y67078474D02*
X127838218Y67280504D01*
X127737203Y67179489D02*
X127383649Y67533042D01*
X127383649Y67533042D02*
X127467829Y67516207D01*
X127467829Y67516207D02*
X127535172Y67516207D01*
X127535172Y67516207D02*
X127585680Y67533042D01*
D10*
X45410476Y70482577D02*
X45458095Y70434957D01*
X45458095Y70434957D02*
X45600952Y70387338D01*
X45600952Y70387338D02*
X45696190Y70387338D01*
X45696190Y70387338D02*
X45839047Y70434957D01*
X45839047Y70434957D02*
X45934285Y70530196D01*
X45934285Y70530196D02*
X45981904Y70625434D01*
X45981904Y70625434D02*
X46029523Y70815910D01*
X46029523Y70815910D02*
X46029523Y70958767D01*
X46029523Y70958767D02*
X45981904Y71149243D01*
X45981904Y71149243D02*
X45934285Y71244481D01*
X45934285Y71244481D02*
X45839047Y71339719D01*
X45839047Y71339719D02*
X45696190Y71387338D01*
X45696190Y71387338D02*
X45600952Y71387338D01*
X45600952Y71387338D02*
X45458095Y71339719D01*
X45458095Y71339719D02*
X45410476Y71292100D01*
X44791428Y71387338D02*
X44696190Y71387338D01*
X44696190Y71387338D02*
X44600952Y71339719D01*
X44600952Y71339719D02*
X44553333Y71292100D01*
X44553333Y71292100D02*
X44505714Y71196862D01*
X44505714Y71196862D02*
X44458095Y71006386D01*
X44458095Y71006386D02*
X44458095Y70768291D01*
X44458095Y70768291D02*
X44505714Y70577815D01*
X44505714Y70577815D02*
X44553333Y70482577D01*
X44553333Y70482577D02*
X44600952Y70434957D01*
X44600952Y70434957D02*
X44696190Y70387338D01*
X44696190Y70387338D02*
X44791428Y70387338D01*
X44791428Y70387338D02*
X44886666Y70434957D01*
X44886666Y70434957D02*
X44934285Y70482577D01*
X44934285Y70482577D02*
X44981904Y70577815D01*
X44981904Y70577815D02*
X45029523Y70768291D01*
X45029523Y70768291D02*
X45029523Y71006386D01*
X45029523Y71006386D02*
X44981904Y71196862D01*
X44981904Y71196862D02*
X44934285Y71292100D01*
X44934285Y71292100D02*
X44886666Y71339719D01*
X44886666Y71339719D02*
X44791428Y71387338D01*
X120572916Y50347650D02*
X120620535Y50300030D01*
X120620535Y50300030D02*
X120763392Y50252411D01*
X120763392Y50252411D02*
X120858630Y50252411D01*
X120858630Y50252411D02*
X121001487Y50300030D01*
X121001487Y50300030D02*
X121096725Y50395269D01*
X121096725Y50395269D02*
X121144344Y50490507D01*
X121144344Y50490507D02*
X121191963Y50680983D01*
X121191963Y50680983D02*
X121191963Y50823840D01*
X121191963Y50823840D02*
X121144344Y51014316D01*
X121144344Y51014316D02*
X121096725Y51109554D01*
X121096725Y51109554D02*
X121001487Y51204792D01*
X121001487Y51204792D02*
X120858630Y51252411D01*
X120858630Y51252411D02*
X120763392Y51252411D01*
X120763392Y51252411D02*
X120620535Y51204792D01*
X120620535Y51204792D02*
X120572916Y51157173D01*
X120191963Y51157173D02*
X120144344Y51204792D01*
X120144344Y51204792D02*
X120049106Y51252411D01*
X120049106Y51252411D02*
X119811011Y51252411D01*
X119811011Y51252411D02*
X119715773Y51204792D01*
X119715773Y51204792D02*
X119668154Y51157173D01*
X119668154Y51157173D02*
X119620535Y51061935D01*
X119620535Y51061935D02*
X119620535Y50966697D01*
X119620535Y50966697D02*
X119668154Y50823840D01*
X119668154Y50823840D02*
X120239582Y50252411D01*
X120239582Y50252411D02*
X119620535Y50252411D01*
X130090457Y55752576D02*
X130423790Y56228767D01*
X130661885Y55752576D02*
X130661885Y56752576D01*
X130661885Y56752576D02*
X130280933Y56752576D01*
X130280933Y56752576D02*
X130185695Y56704957D01*
X130185695Y56704957D02*
X130138076Y56657338D01*
X130138076Y56657338D02*
X130090457Y56562100D01*
X130090457Y56562100D02*
X130090457Y56419243D01*
X130090457Y56419243D02*
X130138076Y56324005D01*
X130138076Y56324005D02*
X130185695Y56276386D01*
X130185695Y56276386D02*
X130280933Y56228767D01*
X130280933Y56228767D02*
X130661885Y56228767D01*
X129709504Y56657338D02*
X129661885Y56704957D01*
X129661885Y56704957D02*
X129566647Y56752576D01*
X129566647Y56752576D02*
X129328552Y56752576D01*
X129328552Y56752576D02*
X129233314Y56704957D01*
X129233314Y56704957D02*
X129185695Y56657338D01*
X129185695Y56657338D02*
X129138076Y56562100D01*
X129138076Y56562100D02*
X129138076Y56466862D01*
X129138076Y56466862D02*
X129185695Y56324005D01*
X129185695Y56324005D02*
X129757123Y55752576D01*
X129757123Y55752576D02*
X129138076Y55752576D01*
X121339404Y63251161D02*
X121339404Y62441638D01*
X121339404Y62441638D02*
X121291785Y62346400D01*
X121291785Y62346400D02*
X121244166Y62298780D01*
X121244166Y62298780D02*
X121148928Y62251161D01*
X121148928Y62251161D02*
X120958452Y62251161D01*
X120958452Y62251161D02*
X120863214Y62298780D01*
X120863214Y62298780D02*
X120815595Y62346400D01*
X120815595Y62346400D02*
X120767976Y62441638D01*
X120767976Y62441638D02*
X120767976Y63251161D01*
X120339404Y63155923D02*
X120291785Y63203542D01*
X120291785Y63203542D02*
X120196547Y63251161D01*
X120196547Y63251161D02*
X119958452Y63251161D01*
X119958452Y63251161D02*
X119863214Y63203542D01*
X119863214Y63203542D02*
X119815595Y63155923D01*
X119815595Y63155923D02*
X119767976Y63060685D01*
X119767976Y63060685D02*
X119767976Y62965447D01*
X119767976Y62965447D02*
X119815595Y62822590D01*
X119815595Y62822590D02*
X120387023Y62251161D01*
X120387023Y62251161D02*
X119767976Y62251161D01*
X58483332Y68053521D02*
X58340475Y68005902D01*
X58340475Y68005902D02*
X58102380Y68005902D01*
X58102380Y68005902D02*
X58007142Y68053521D01*
X58007142Y68053521D02*
X57959523Y68101141D01*
X57959523Y68101141D02*
X57911904Y68196379D01*
X57911904Y68196379D02*
X57911904Y68291617D01*
X57911904Y68291617D02*
X57959523Y68386855D01*
X57959523Y68386855D02*
X58007142Y68434474D01*
X58007142Y68434474D02*
X58102380Y68482093D01*
X58102380Y68482093D02*
X58292856Y68529712D01*
X58292856Y68529712D02*
X58388094Y68577331D01*
X58388094Y68577331D02*
X58435713Y68624950D01*
X58435713Y68624950D02*
X58483332Y68720188D01*
X58483332Y68720188D02*
X58483332Y68815426D01*
X58483332Y68815426D02*
X58435713Y68910664D01*
X58435713Y68910664D02*
X58388094Y68958283D01*
X58388094Y68958283D02*
X58292856Y69005902D01*
X58292856Y69005902D02*
X58054761Y69005902D01*
X58054761Y69005902D02*
X57911904Y68958283D01*
X57578570Y69005902D02*
X57340475Y68005902D01*
X57340475Y68005902D02*
X57149999Y68720188D01*
X57149999Y68720188D02*
X56959523Y68005902D01*
X56959523Y68005902D02*
X56721428Y69005902D01*
X55816666Y68005902D02*
X56388094Y68005902D01*
X56102380Y68005902D02*
X56102380Y69005902D01*
X56102380Y69005902D02*
X56197618Y68863045D01*
X56197618Y68863045D02*
X56292856Y68767807D01*
X56292856Y68767807D02*
X56388094Y68720188D01*
X123899766Y71003342D02*
X123967110Y71003342D01*
X123967110Y71003342D02*
X124101797Y71070686D01*
X124101797Y71070686D02*
X124169140Y71138029D01*
X124169140Y71138029D02*
X124236484Y71272716D01*
X124236484Y71272716D02*
X124236484Y71407403D01*
X124236484Y71407403D02*
X124202812Y71508418D01*
X124202812Y71508418D02*
X124101797Y71676777D01*
X124101797Y71676777D02*
X124000782Y71777792D01*
X124000782Y71777792D02*
X123832423Y71878808D01*
X123832423Y71878808D02*
X123731408Y71912479D01*
X123731408Y71912479D02*
X123596721Y71912479D01*
X123596721Y71912479D02*
X123462034Y71845136D01*
X123462034Y71845136D02*
X123394690Y71777792D01*
X123394690Y71777792D02*
X123327347Y71643105D01*
X123327347Y71643105D02*
X123327347Y71575762D01*
X123158988Y70935999D02*
X123192660Y71037014D01*
X123192660Y71037014D02*
X123192660Y71104357D01*
X123192660Y71104357D02*
X123158988Y71205373D01*
X123158988Y71205373D02*
X123125316Y71239044D01*
X123125316Y71239044D02*
X123024301Y71272716D01*
X123024301Y71272716D02*
X122956957Y71272716D01*
X122956957Y71272716D02*
X122855942Y71239044D01*
X122855942Y71239044D02*
X122721255Y71104357D01*
X122721255Y71104357D02*
X122687583Y71003342D01*
X122687583Y71003342D02*
X122687583Y70935999D01*
X122687583Y70935999D02*
X122721255Y70834983D01*
X122721255Y70834983D02*
X122754927Y70801312D01*
X122754927Y70801312D02*
X122855942Y70767640D01*
X122855942Y70767640D02*
X122923286Y70767640D01*
X122923286Y70767640D02*
X123024301Y70801312D01*
X123024301Y70801312D02*
X123158988Y70935999D01*
X123158988Y70935999D02*
X123260003Y70969670D01*
X123260003Y70969670D02*
X123327347Y70969670D01*
X123327347Y70969670D02*
X123428362Y70935999D01*
X123428362Y70935999D02*
X123563049Y70801312D01*
X123563049Y70801312D02*
X123596721Y70700296D01*
X123596721Y70700296D02*
X123596721Y70632953D01*
X123596721Y70632953D02*
X123563049Y70531938D01*
X123563049Y70531938D02*
X123428362Y70397251D01*
X123428362Y70397251D02*
X123327347Y70363579D01*
X123327347Y70363579D02*
X123260003Y70363579D01*
X123260003Y70363579D02*
X123158988Y70397251D01*
X123158988Y70397251D02*
X123024301Y70531938D01*
X123024301Y70531938D02*
X122990629Y70632953D01*
X122990629Y70632953D02*
X122990629Y70700296D01*
X122990629Y70700296D02*
X123024301Y70801312D01*
X115359925Y60851400D02*
X115407544Y60803780D01*
X115407544Y60803780D02*
X115550401Y60756161D01*
X115550401Y60756161D02*
X115645639Y60756161D01*
X115645639Y60756161D02*
X115788496Y60803780D01*
X115788496Y60803780D02*
X115883734Y60899019D01*
X115883734Y60899019D02*
X115931353Y60994257D01*
X115931353Y60994257D02*
X115978972Y61184733D01*
X115978972Y61184733D02*
X115978972Y61327590D01*
X115978972Y61327590D02*
X115931353Y61518066D01*
X115931353Y61518066D02*
X115883734Y61613304D01*
X115883734Y61613304D02*
X115788496Y61708542D01*
X115788496Y61708542D02*
X115645639Y61756161D01*
X115645639Y61756161D02*
X115550401Y61756161D01*
X115550401Y61756161D02*
X115407544Y61708542D01*
X115407544Y61708542D02*
X115359925Y61660923D01*
X114502782Y61756161D02*
X114693258Y61756161D01*
X114693258Y61756161D02*
X114788496Y61708542D01*
X114788496Y61708542D02*
X114836115Y61660923D01*
X114836115Y61660923D02*
X114931353Y61518066D01*
X114931353Y61518066D02*
X114978972Y61327590D01*
X114978972Y61327590D02*
X114978972Y60946638D01*
X114978972Y60946638D02*
X114931353Y60851400D01*
X114931353Y60851400D02*
X114883734Y60803780D01*
X114883734Y60803780D02*
X114788496Y60756161D01*
X114788496Y60756161D02*
X114598020Y60756161D01*
X114598020Y60756161D02*
X114502782Y60803780D01*
X114502782Y60803780D02*
X114455163Y60851400D01*
X114455163Y60851400D02*
X114407544Y60946638D01*
X114407544Y60946638D02*
X114407544Y61184733D01*
X114407544Y61184733D02*
X114455163Y61279971D01*
X114455163Y61279971D02*
X114502782Y61327590D01*
X114502782Y61327590D02*
X114598020Y61375209D01*
X114598020Y61375209D02*
X114788496Y61375209D01*
X114788496Y61375209D02*
X114883734Y61327590D01*
X114883734Y61327590D02*
X114931353Y61279971D01*
X114931353Y61279971D02*
X114978972Y61184733D01*
X48895101Y71387338D02*
X48895101Y70577815D01*
X48895101Y70577815D02*
X48847482Y70482577D01*
X48847482Y70482577D02*
X48799863Y70434957D01*
X48799863Y70434957D02*
X48704625Y70387338D01*
X48704625Y70387338D02*
X48514149Y70387338D01*
X48514149Y70387338D02*
X48418911Y70434957D01*
X48418911Y70434957D02*
X48371292Y70482577D01*
X48371292Y70482577D02*
X48323673Y70577815D01*
X48323673Y70577815D02*
X48323673Y71387338D01*
X47276054Y70387338D02*
X47609387Y70863529D01*
X47847482Y70387338D02*
X47847482Y71387338D01*
X47847482Y71387338D02*
X47466530Y71387338D01*
X47466530Y71387338D02*
X47371292Y71339719D01*
X47371292Y71339719D02*
X47323673Y71292100D01*
X47323673Y71292100D02*
X47276054Y71196862D01*
X47276054Y71196862D02*
X47276054Y71054005D01*
X47276054Y71054005D02*
X47323673Y70958767D01*
X47323673Y70958767D02*
X47371292Y70911148D01*
X47371292Y70911148D02*
X47466530Y70863529D01*
X47466530Y70863529D02*
X47847482Y70863529D01*
X46942720Y71387338D02*
X46323673Y71387338D01*
X46323673Y71387338D02*
X46657006Y71006386D01*
X46657006Y71006386D02*
X46514149Y71006386D01*
X46514149Y71006386D02*
X46418911Y70958767D01*
X46418911Y70958767D02*
X46371292Y70911148D01*
X46371292Y70911148D02*
X46323673Y70815910D01*
X46323673Y70815910D02*
X46323673Y70577815D01*
X46323673Y70577815D02*
X46371292Y70482577D01*
X46371292Y70482577D02*
X46418911Y70434957D01*
X46418911Y70434957D02*
X46514149Y70387338D01*
X46514149Y70387338D02*
X46799863Y70387338D01*
X46799863Y70387338D02*
X46895101Y70434957D01*
X46895101Y70434957D02*
X46942720Y70482577D01*
X131405129Y61620093D02*
X131452749Y61667712D01*
X131452749Y61667712D02*
X131500368Y61810569D01*
X131500368Y61810569D02*
X131500368Y61905807D01*
X131500368Y61905807D02*
X131452749Y62048664D01*
X131452749Y62048664D02*
X131357510Y62143902D01*
X131357510Y62143902D02*
X131262272Y62191521D01*
X131262272Y62191521D02*
X131071796Y62239140D01*
X131071796Y62239140D02*
X130928939Y62239140D01*
X130928939Y62239140D02*
X130738463Y62191521D01*
X130738463Y62191521D02*
X130643225Y62143902D01*
X130643225Y62143902D02*
X130547987Y62048664D01*
X130547987Y62048664D02*
X130500368Y61905807D01*
X130500368Y61905807D02*
X130500368Y61810569D01*
X130500368Y61810569D02*
X130547987Y61667712D01*
X130547987Y61667712D02*
X130595606Y61620093D01*
X130833701Y60762950D02*
X131500368Y60762950D01*
X130452749Y61001045D02*
X131167034Y61239140D01*
X131167034Y61239140D02*
X131167034Y60620093D01*
X51662437Y62078949D02*
X51710057Y62126568D01*
X51710057Y62126568D02*
X51757676Y62269425D01*
X51757676Y62269425D02*
X51757676Y62364663D01*
X51757676Y62364663D02*
X51710057Y62507520D01*
X51710057Y62507520D02*
X51614818Y62602758D01*
X51614818Y62602758D02*
X51519580Y62650377D01*
X51519580Y62650377D02*
X51329104Y62697996D01*
X51329104Y62697996D02*
X51186247Y62697996D01*
X51186247Y62697996D02*
X50995771Y62650377D01*
X50995771Y62650377D02*
X50900533Y62602758D01*
X50900533Y62602758D02*
X50805295Y62507520D01*
X50805295Y62507520D02*
X50757676Y62364663D01*
X50757676Y62364663D02*
X50757676Y62269425D01*
X50757676Y62269425D02*
X50805295Y62126568D01*
X50805295Y62126568D02*
X50852914Y62078949D01*
X51757676Y61126568D02*
X51757676Y61697996D01*
X51757676Y61412282D02*
X50757676Y61412282D01*
X50757676Y61412282D02*
X50900533Y61507520D01*
X50900533Y61507520D02*
X50995771Y61602758D01*
X50995771Y61602758D02*
X51043390Y61697996D01*
X28837016Y75120696D02*
X28837016Y74311173D01*
X28837016Y74311173D02*
X28789397Y74215935D01*
X28789397Y74215935D02*
X28741778Y74168315D01*
X28741778Y74168315D02*
X28646540Y74120696D01*
X28646540Y74120696D02*
X28456064Y74120696D01*
X28456064Y74120696D02*
X28360826Y74168315D01*
X28360826Y74168315D02*
X28313207Y74215935D01*
X28313207Y74215935D02*
X28265588Y74311173D01*
X28265588Y74311173D02*
X28265588Y75120696D01*
X27217969Y74120696D02*
X27551302Y74596887D01*
X27789397Y74120696D02*
X27789397Y75120696D01*
X27789397Y75120696D02*
X27408445Y75120696D01*
X27408445Y75120696D02*
X27313207Y75073077D01*
X27313207Y75073077D02*
X27265588Y75025458D01*
X27265588Y75025458D02*
X27217969Y74930220D01*
X27217969Y74930220D02*
X27217969Y74787363D01*
X27217969Y74787363D02*
X27265588Y74692125D01*
X27265588Y74692125D02*
X27313207Y74644506D01*
X27313207Y74644506D02*
X27408445Y74596887D01*
X27408445Y74596887D02*
X27789397Y74596887D01*
X26360826Y74787363D02*
X26360826Y74120696D01*
X26598921Y75168315D02*
X26837016Y74454030D01*
X26837016Y74454030D02*
X26217969Y74454030D01*
X122404166Y38533900D02*
X122451785Y38486280D01*
X122451785Y38486280D02*
X122594642Y38438661D01*
X122594642Y38438661D02*
X122689880Y38438661D01*
X122689880Y38438661D02*
X122832737Y38486280D01*
X122832737Y38486280D02*
X122927975Y38581519D01*
X122927975Y38581519D02*
X122975594Y38676757D01*
X122975594Y38676757D02*
X123023213Y38867233D01*
X123023213Y38867233D02*
X123023213Y39010090D01*
X123023213Y39010090D02*
X122975594Y39200566D01*
X122975594Y39200566D02*
X122927975Y39295804D01*
X122927975Y39295804D02*
X122832737Y39391042D01*
X122832737Y39391042D02*
X122689880Y39438661D01*
X122689880Y39438661D02*
X122594642Y39438661D01*
X122594642Y39438661D02*
X122451785Y39391042D01*
X122451785Y39391042D02*
X122404166Y39343423D01*
X121927975Y38438661D02*
X121737499Y38438661D01*
X121737499Y38438661D02*
X121642261Y38486280D01*
X121642261Y38486280D02*
X121594642Y38533900D01*
X121594642Y38533900D02*
X121499404Y38676757D01*
X121499404Y38676757D02*
X121451785Y38867233D01*
X121451785Y38867233D02*
X121451785Y39248185D01*
X121451785Y39248185D02*
X121499404Y39343423D01*
X121499404Y39343423D02*
X121547023Y39391042D01*
X121547023Y39391042D02*
X121642261Y39438661D01*
X121642261Y39438661D02*
X121832737Y39438661D01*
X121832737Y39438661D02*
X121927975Y39391042D01*
X121927975Y39391042D02*
X121975594Y39343423D01*
X121975594Y39343423D02*
X122023213Y39248185D01*
X122023213Y39248185D02*
X122023213Y39010090D01*
X122023213Y39010090D02*
X121975594Y38914852D01*
X121975594Y38914852D02*
X121927975Y38867233D01*
X121927975Y38867233D02*
X121832737Y38819614D01*
X121832737Y38819614D02*
X121642261Y38819614D01*
X121642261Y38819614D02*
X121547023Y38867233D01*
X121547023Y38867233D02*
X121499404Y38914852D01*
X121499404Y38914852D02*
X121451785Y39010090D01*
X126674404Y39438661D02*
X126674404Y38629138D01*
X126674404Y38629138D02*
X126626785Y38533900D01*
X126626785Y38533900D02*
X126579166Y38486280D01*
X126579166Y38486280D02*
X126483928Y38438661D01*
X126483928Y38438661D02*
X126293452Y38438661D01*
X126293452Y38438661D02*
X126198214Y38486280D01*
X126198214Y38486280D02*
X126150595Y38533900D01*
X126150595Y38533900D02*
X126102976Y38629138D01*
X126102976Y38629138D02*
X126102976Y39438661D01*
X125055357Y38438661D02*
X125388690Y38914852D01*
X125626785Y38438661D02*
X125626785Y39438661D01*
X125626785Y39438661D02*
X125245833Y39438661D01*
X125245833Y39438661D02*
X125150595Y39391042D01*
X125150595Y39391042D02*
X125102976Y39343423D01*
X125102976Y39343423D02*
X125055357Y39248185D01*
X125055357Y39248185D02*
X125055357Y39105328D01*
X125055357Y39105328D02*
X125102976Y39010090D01*
X125102976Y39010090D02*
X125150595Y38962471D01*
X125150595Y38962471D02*
X125245833Y38914852D01*
X125245833Y38914852D02*
X125626785Y38914852D01*
X124483928Y39010090D02*
X124579166Y39057709D01*
X124579166Y39057709D02*
X124626785Y39105328D01*
X124626785Y39105328D02*
X124674404Y39200566D01*
X124674404Y39200566D02*
X124674404Y39248185D01*
X124674404Y39248185D02*
X124626785Y39343423D01*
X124626785Y39343423D02*
X124579166Y39391042D01*
X124579166Y39391042D02*
X124483928Y39438661D01*
X124483928Y39438661D02*
X124293452Y39438661D01*
X124293452Y39438661D02*
X124198214Y39391042D01*
X124198214Y39391042D02*
X124150595Y39343423D01*
X124150595Y39343423D02*
X124102976Y39248185D01*
X124102976Y39248185D02*
X124102976Y39200566D01*
X124102976Y39200566D02*
X124150595Y39105328D01*
X124150595Y39105328D02*
X124198214Y39057709D01*
X124198214Y39057709D02*
X124293452Y39010090D01*
X124293452Y39010090D02*
X124483928Y39010090D01*
X124483928Y39010090D02*
X124579166Y38962471D01*
X124579166Y38962471D02*
X124626785Y38914852D01*
X124626785Y38914852D02*
X124674404Y38819614D01*
X124674404Y38819614D02*
X124674404Y38629138D01*
X124674404Y38629138D02*
X124626785Y38533900D01*
X124626785Y38533900D02*
X124579166Y38486280D01*
X124579166Y38486280D02*
X124483928Y38438661D01*
X124483928Y38438661D02*
X124293452Y38438661D01*
X124293452Y38438661D02*
X124198214Y38486280D01*
X124198214Y38486280D02*
X124150595Y38533900D01*
X124150595Y38533900D02*
X124102976Y38629138D01*
X124102976Y38629138D02*
X124102976Y38819614D01*
X124102976Y38819614D02*
X124150595Y38914852D01*
X124150595Y38914852D02*
X124198214Y38962471D01*
X124198214Y38962471D02*
X124293452Y39010090D01*
X24458007Y75973542D02*
X25267530Y75973542D01*
X25267530Y75973542D02*
X25362768Y75925923D01*
X25362768Y75925923D02*
X25410388Y75878304D01*
X25410388Y75878304D02*
X25458007Y75783066D01*
X25458007Y75783066D02*
X25458007Y75592590D01*
X25458007Y75592590D02*
X25410388Y75497352D01*
X25410388Y75497352D02*
X25362768Y75449733D01*
X25362768Y75449733D02*
X25267530Y75402114D01*
X25267530Y75402114D02*
X24458007Y75402114D01*
X25458007Y74354495D02*
X24981816Y74687828D01*
X25458007Y74925923D02*
X24458007Y74925923D01*
X24458007Y74925923D02*
X24458007Y74544971D01*
X24458007Y74544971D02*
X24505626Y74449733D01*
X24505626Y74449733D02*
X24553245Y74402114D01*
X24553245Y74402114D02*
X24648483Y74354495D01*
X24648483Y74354495D02*
X24791340Y74354495D01*
X24791340Y74354495D02*
X24886578Y74402114D01*
X24886578Y74402114D02*
X24934197Y74449733D01*
X24934197Y74449733D02*
X24981816Y74544971D01*
X24981816Y74544971D02*
X24981816Y74925923D01*
X24458007Y73449733D02*
X24458007Y73925923D01*
X24458007Y73925923D02*
X24934197Y73973542D01*
X24934197Y73973542D02*
X24886578Y73925923D01*
X24886578Y73925923D02*
X24838959Y73830685D01*
X24838959Y73830685D02*
X24838959Y73592590D01*
X24838959Y73592590D02*
X24886578Y73497352D01*
X24886578Y73497352D02*
X24934197Y73449733D01*
X24934197Y73449733D02*
X25029435Y73402114D01*
X25029435Y73402114D02*
X25267530Y73402114D01*
X25267530Y73402114D02*
X25362768Y73449733D01*
X25362768Y73449733D02*
X25410388Y73497352D01*
X25410388Y73497352D02*
X25458007Y73592590D01*
X25458007Y73592590D02*
X25458007Y73830685D01*
X25458007Y73830685D02*
X25410388Y73925923D01*
X25410388Y73925923D02*
X25362768Y73973542D01*
X39838126Y68331094D02*
X39838126Y67521571D01*
X39838126Y67521571D02*
X39790507Y67426333D01*
X39790507Y67426333D02*
X39742888Y67378713D01*
X39742888Y67378713D02*
X39647650Y67331094D01*
X39647650Y67331094D02*
X39457174Y67331094D01*
X39457174Y67331094D02*
X39361936Y67378713D01*
X39361936Y67378713D02*
X39314317Y67426333D01*
X39314317Y67426333D02*
X39266698Y67521571D01*
X39266698Y67521571D02*
X39266698Y68331094D01*
X38838126Y67378713D02*
X38695269Y67331094D01*
X38695269Y67331094D02*
X38457174Y67331094D01*
X38457174Y67331094D02*
X38361936Y67378713D01*
X38361936Y67378713D02*
X38314317Y67426333D01*
X38314317Y67426333D02*
X38266698Y67521571D01*
X38266698Y67521571D02*
X38266698Y67616809D01*
X38266698Y67616809D02*
X38314317Y67712047D01*
X38314317Y67712047D02*
X38361936Y67759666D01*
X38361936Y67759666D02*
X38457174Y67807285D01*
X38457174Y67807285D02*
X38647650Y67854904D01*
X38647650Y67854904D02*
X38742888Y67902523D01*
X38742888Y67902523D02*
X38790507Y67950142D01*
X38790507Y67950142D02*
X38838126Y68045380D01*
X38838126Y68045380D02*
X38838126Y68140618D01*
X38838126Y68140618D02*
X38790507Y68235856D01*
X38790507Y68235856D02*
X38742888Y68283475D01*
X38742888Y68283475D02*
X38647650Y68331094D01*
X38647650Y68331094D02*
X38409555Y68331094D01*
X38409555Y68331094D02*
X38266698Y68283475D01*
X37504793Y67854904D02*
X37361936Y67807285D01*
X37361936Y67807285D02*
X37314317Y67759666D01*
X37314317Y67759666D02*
X37266698Y67664428D01*
X37266698Y67664428D02*
X37266698Y67521571D01*
X37266698Y67521571D02*
X37314317Y67426333D01*
X37314317Y67426333D02*
X37361936Y67378713D01*
X37361936Y67378713D02*
X37457174Y67331094D01*
X37457174Y67331094D02*
X37838126Y67331094D01*
X37838126Y67331094D02*
X37838126Y68331094D01*
X37838126Y68331094D02*
X37504793Y68331094D01*
X37504793Y68331094D02*
X37409555Y68283475D01*
X37409555Y68283475D02*
X37361936Y68235856D01*
X37361936Y68235856D02*
X37314317Y68140618D01*
X37314317Y68140618D02*
X37314317Y68045380D01*
X37314317Y68045380D02*
X37361936Y67950142D01*
X37361936Y67950142D02*
X37409555Y67902523D01*
X37409555Y67902523D02*
X37504793Y67854904D01*
X37504793Y67854904D02*
X37838126Y67854904D01*
X36314317Y67331094D02*
X36885745Y67331094D01*
X36600031Y67331094D02*
X36600031Y68331094D01*
X36600031Y68331094D02*
X36695269Y68188237D01*
X36695269Y68188237D02*
X36790507Y68092999D01*
X36790507Y68092999D02*
X36885745Y68045380D01*
D11*
X42053222Y69163927D02*
X41767508Y69163927D01*
X41910365Y69163927D02*
X41910365Y68663927D01*
X41910365Y68663927D02*
X41862746Y68735356D01*
X41862746Y68735356D02*
X41815127Y68782975D01*
X41815127Y68782975D02*
X41767508Y68806784D01*
X42243698Y68711546D02*
X42267507Y68687737D01*
X42267507Y68687737D02*
X42315126Y68663927D01*
X42315126Y68663927D02*
X42434174Y68663927D01*
X42434174Y68663927D02*
X42481793Y68687737D01*
X42481793Y68687737D02*
X42505602Y68711546D01*
X42505602Y68711546D02*
X42529412Y68759165D01*
X42529412Y68759165D02*
X42529412Y68806784D01*
X42529412Y68806784D02*
X42505602Y68878213D01*
X42505602Y68878213D02*
X42219888Y69163927D01*
X42219888Y69163927D02*
X42529412Y69163927D01*
X34098642Y69206303D02*
X33812928Y69206303D01*
X33955785Y69206303D02*
X33955785Y68706303D01*
X33955785Y68706303D02*
X33908166Y68777732D01*
X33908166Y68777732D02*
X33860547Y68825351D01*
X33860547Y68825351D02*
X33812928Y68849160D01*
D10*
X38839036Y60594963D02*
X38839036Y59785440D01*
X38839036Y59785440D02*
X38791417Y59690202D01*
X38791417Y59690202D02*
X38743798Y59642582D01*
X38743798Y59642582D02*
X38648560Y59594963D01*
X38648560Y59594963D02*
X38458084Y59594963D01*
X38458084Y59594963D02*
X38362846Y59642582D01*
X38362846Y59642582D02*
X38315227Y59690202D01*
X38315227Y59690202D02*
X38267608Y59785440D01*
X38267608Y59785440D02*
X38267608Y60594963D01*
X37267608Y59594963D02*
X37839036Y59594963D01*
X37553322Y59594963D02*
X37553322Y60594963D01*
X37553322Y60594963D02*
X37648560Y60452106D01*
X37648560Y60452106D02*
X37743798Y60356868D01*
X37743798Y60356868D02*
X37839036Y60309249D01*
X131436904Y41026161D02*
X131436904Y40216638D01*
X131436904Y40216638D02*
X131389285Y40121400D01*
X131389285Y40121400D02*
X131341666Y40073780D01*
X131341666Y40073780D02*
X131246428Y40026161D01*
X131246428Y40026161D02*
X131055952Y40026161D01*
X131055952Y40026161D02*
X130960714Y40073780D01*
X130960714Y40073780D02*
X130913095Y40121400D01*
X130913095Y40121400D02*
X130865476Y40216638D01*
X130865476Y40216638D02*
X130865476Y41026161D01*
X129817857Y40026161D02*
X130151190Y40502352D01*
X130389285Y40026161D02*
X130389285Y41026161D01*
X130389285Y41026161D02*
X130008333Y41026161D01*
X130008333Y41026161D02*
X129913095Y40978542D01*
X129913095Y40978542D02*
X129865476Y40930923D01*
X129865476Y40930923D02*
X129817857Y40835685D01*
X129817857Y40835685D02*
X129817857Y40692828D01*
X129817857Y40692828D02*
X129865476Y40597590D01*
X129865476Y40597590D02*
X129913095Y40549971D01*
X129913095Y40549971D02*
X130008333Y40502352D01*
X130008333Y40502352D02*
X130389285Y40502352D01*
X129484523Y41026161D02*
X128817857Y41026161D01*
X128817857Y41026161D02*
X129246428Y40026161D01*
X127853409Y70169638D02*
X127853409Y70102294D01*
X127853409Y70102294D02*
X127920753Y69967607D01*
X127920753Y69967607D02*
X127988096Y69900264D01*
X127988096Y69900264D02*
X128122783Y69832920D01*
X128122783Y69832920D02*
X128257470Y69832920D01*
X128257470Y69832920D02*
X128358485Y69866592D01*
X128358485Y69866592D02*
X128526844Y69967607D01*
X128526844Y69967607D02*
X128627859Y70068622D01*
X128627859Y70068622D02*
X128728875Y70236981D01*
X128728875Y70236981D02*
X128762546Y70337996D01*
X128762546Y70337996D02*
X128762546Y70472683D01*
X128762546Y70472683D02*
X128695203Y70607370D01*
X128695203Y70607370D02*
X128627859Y70674714D01*
X128627859Y70674714D02*
X128493172Y70742057D01*
X128493172Y70742057D02*
X128425829Y70742057D01*
X128257470Y71045103D02*
X127786066Y71516508D01*
X127786066Y71516508D02*
X127382005Y70506355D01*
X43480249Y63018773D02*
X43813582Y63018773D01*
X43813582Y62494963D02*
X43813582Y63494963D01*
X43813582Y63494963D02*
X43337392Y63494963D01*
X42432630Y62494963D02*
X43004058Y62494963D01*
X42718344Y62494963D02*
X42718344Y63494963D01*
X42718344Y63494963D02*
X42813582Y63352106D01*
X42813582Y63352106D02*
X42908820Y63256868D01*
X42908820Y63256868D02*
X43004058Y63209249D01*
X116455163Y54366658D02*
X116455163Y53557135D01*
X116455163Y53557135D02*
X116407544Y53461897D01*
X116407544Y53461897D02*
X116359925Y53414277D01*
X116359925Y53414277D02*
X116264687Y53366658D01*
X116264687Y53366658D02*
X116074211Y53366658D01*
X116074211Y53366658D02*
X115978973Y53414277D01*
X115978973Y53414277D02*
X115931354Y53461897D01*
X115931354Y53461897D02*
X115883735Y53557135D01*
X115883735Y53557135D02*
X115883735Y54366658D01*
X114836116Y53366658D02*
X115169449Y53842849D01*
X115407544Y53366658D02*
X115407544Y54366658D01*
X115407544Y54366658D02*
X115026592Y54366658D01*
X115026592Y54366658D02*
X114931354Y54319039D01*
X114931354Y54319039D02*
X114883735Y54271420D01*
X114883735Y54271420D02*
X114836116Y54176182D01*
X114836116Y54176182D02*
X114836116Y54033325D01*
X114836116Y54033325D02*
X114883735Y53938087D01*
X114883735Y53938087D02*
X114931354Y53890468D01*
X114931354Y53890468D02*
X115026592Y53842849D01*
X115026592Y53842849D02*
X115407544Y53842849D01*
X113883735Y53366658D02*
X114455163Y53366658D01*
X114169449Y53366658D02*
X114169449Y54366658D01*
X114169449Y54366658D02*
X114264687Y54223801D01*
X114264687Y54223801D02*
X114359925Y54128563D01*
X114359925Y54128563D02*
X114455163Y54080944D01*
X61529602Y64987659D02*
X61053411Y65320992D01*
X61529602Y65559087D02*
X60529602Y65559087D01*
X60529602Y65559087D02*
X60529602Y65178135D01*
X60529602Y65178135D02*
X60577221Y65082897D01*
X60577221Y65082897D02*
X60624840Y65035278D01*
X60624840Y65035278D02*
X60720078Y64987659D01*
X60720078Y64987659D02*
X60862935Y64987659D01*
X60862935Y64987659D02*
X60958173Y65035278D01*
X60958173Y65035278D02*
X61005792Y65082897D01*
X61005792Y65082897D02*
X61053411Y65178135D01*
X61053411Y65178135D02*
X61053411Y65559087D01*
X61529602Y64035278D02*
X61529602Y64606706D01*
X61529602Y64320992D02*
X60529602Y64320992D01*
X60529602Y64320992D02*
X60672459Y64416230D01*
X60672459Y64416230D02*
X60767697Y64511468D01*
X60767697Y64511468D02*
X60815316Y64606706D01*
X118736904Y41026161D02*
X118736904Y40216638D01*
X118736904Y40216638D02*
X118689285Y40121400D01*
X118689285Y40121400D02*
X118641666Y40073780D01*
X118641666Y40073780D02*
X118546428Y40026161D01*
X118546428Y40026161D02*
X118355952Y40026161D01*
X118355952Y40026161D02*
X118260714Y40073780D01*
X118260714Y40073780D02*
X118213095Y40121400D01*
X118213095Y40121400D02*
X118165476Y40216638D01*
X118165476Y40216638D02*
X118165476Y41026161D01*
X117117857Y40026161D02*
X117451190Y40502352D01*
X117689285Y40026161D02*
X117689285Y41026161D01*
X117689285Y41026161D02*
X117308333Y41026161D01*
X117308333Y41026161D02*
X117213095Y40978542D01*
X117213095Y40978542D02*
X117165476Y40930923D01*
X117165476Y40930923D02*
X117117857Y40835685D01*
X117117857Y40835685D02*
X117117857Y40692828D01*
X117117857Y40692828D02*
X117165476Y40597590D01*
X117165476Y40597590D02*
X117213095Y40549971D01*
X117213095Y40549971D02*
X117308333Y40502352D01*
X117308333Y40502352D02*
X117689285Y40502352D01*
X116260714Y41026161D02*
X116451190Y41026161D01*
X116451190Y41026161D02*
X116546428Y40978542D01*
X116546428Y40978542D02*
X116594047Y40930923D01*
X116594047Y40930923D02*
X116689285Y40788066D01*
X116689285Y40788066D02*
X116736904Y40597590D01*
X116736904Y40597590D02*
X116736904Y40216638D01*
X116736904Y40216638D02*
X116689285Y40121400D01*
X116689285Y40121400D02*
X116641666Y40073780D01*
X116641666Y40073780D02*
X116546428Y40026161D01*
X116546428Y40026161D02*
X116355952Y40026161D01*
X116355952Y40026161D02*
X116260714Y40073780D01*
X116260714Y40073780D02*
X116213095Y40121400D01*
X116213095Y40121400D02*
X116165476Y40216638D01*
X116165476Y40216638D02*
X116165476Y40454733D01*
X116165476Y40454733D02*
X116213095Y40549971D01*
X116213095Y40549971D02*
X116260714Y40597590D01*
X116260714Y40597590D02*
X116355952Y40645209D01*
X116355952Y40645209D02*
X116546428Y40645209D01*
X116546428Y40645209D02*
X116641666Y40597590D01*
X116641666Y40597590D02*
X116689285Y40549971D01*
X116689285Y40549971D02*
X116736904Y40454733D01*
X116465888Y66569974D02*
X116465888Y66502630D01*
X116465888Y66502630D02*
X116533232Y66367943D01*
X116533232Y66367943D02*
X116600575Y66300600D01*
X116600575Y66300600D02*
X116735262Y66233256D01*
X116735262Y66233256D02*
X116869949Y66233256D01*
X116869949Y66233256D02*
X116970964Y66266928D01*
X116970964Y66266928D02*
X117139323Y66367943D01*
X117139323Y66367943D02*
X117240338Y66468958D01*
X117240338Y66468958D02*
X117341354Y66637317D01*
X117341354Y66637317D02*
X117375025Y66738332D01*
X117375025Y66738332D02*
X117375025Y66873019D01*
X117375025Y66873019D02*
X117307682Y67007706D01*
X117307682Y67007706D02*
X117240338Y67075050D01*
X117240338Y67075050D02*
X117105651Y67142393D01*
X117105651Y67142393D02*
X117038308Y67142393D01*
X116465888Y67849500D02*
X116802606Y67512783D01*
X116802606Y67512783D02*
X116499560Y67142393D01*
X116499560Y67142393D02*
X116499560Y67209737D01*
X116499560Y67209737D02*
X116465888Y67310752D01*
X116465888Y67310752D02*
X116297529Y67479111D01*
X116297529Y67479111D02*
X116196514Y67512783D01*
X116196514Y67512783D02*
X116129171Y67512783D01*
X116129171Y67512783D02*
X116028155Y67479111D01*
X116028155Y67479111D02*
X115859797Y67310752D01*
X115859797Y67310752D02*
X115826125Y67209737D01*
X115826125Y67209737D02*
X115826125Y67142393D01*
X115826125Y67142393D02*
X115859797Y67041378D01*
X115859797Y67041378D02*
X116028155Y66873019D01*
X116028155Y66873019D02*
X116129171Y66839348D01*
X116129171Y66839348D02*
X116196514Y66839348D01*
X128432071Y50258548D02*
X128479690Y50210928D01*
X128479690Y50210928D02*
X128622547Y50163309D01*
X128622547Y50163309D02*
X128717785Y50163309D01*
X128717785Y50163309D02*
X128860642Y50210928D01*
X128860642Y50210928D02*
X128955880Y50306167D01*
X128955880Y50306167D02*
X129003499Y50401405D01*
X129003499Y50401405D02*
X129051118Y50591881D01*
X129051118Y50591881D02*
X129051118Y50734738D01*
X129051118Y50734738D02*
X129003499Y50925214D01*
X129003499Y50925214D02*
X128955880Y51020452D01*
X128955880Y51020452D02*
X128860642Y51115690D01*
X128860642Y51115690D02*
X128717785Y51163309D01*
X128717785Y51163309D02*
X128622547Y51163309D01*
X128622547Y51163309D02*
X128479690Y51115690D01*
X128479690Y51115690D02*
X128432071Y51068071D01*
X128098737Y51163309D02*
X127479690Y51163309D01*
X127479690Y51163309D02*
X127813023Y50782357D01*
X127813023Y50782357D02*
X127670166Y50782357D01*
X127670166Y50782357D02*
X127574928Y50734738D01*
X127574928Y50734738D02*
X127527309Y50687119D01*
X127527309Y50687119D02*
X127479690Y50591881D01*
X127479690Y50591881D02*
X127479690Y50353786D01*
X127479690Y50353786D02*
X127527309Y50258548D01*
X127527309Y50258548D02*
X127574928Y50210928D01*
X127574928Y50210928D02*
X127670166Y50163309D01*
X127670166Y50163309D02*
X127955880Y50163309D01*
X127955880Y50163309D02*
X128051118Y50210928D01*
X128051118Y50210928D02*
X128098737Y50258548D01*
D12*
X59250630Y25530980D02*
X59250630Y29430980D01*
X61250630Y25530980D02*
X59250630Y25530980D01*
X61250630Y25530980D02*
X61250630Y29430980D01*
X114966195Y58238477D02*
X115420323Y58238477D01*
X114966195Y56768477D02*
X115420323Y56768477D01*
X127325179Y66992928D02*
X123506802Y63174551D01*
X124143198Y70174909D02*
X127325179Y66992928D01*
X44508910Y73068949D02*
X44508910Y73591453D01*
X45978910Y73068949D02*
X45978910Y73591453D01*
X78301418Y25530980D02*
X78301418Y29430980D01*
X80301418Y25530980D02*
X78301418Y25530980D01*
X80301418Y25530980D02*
X80301418Y29430980D01*
X157948593Y6480980D02*
X157948593Y10380980D01*
X159948593Y6480980D02*
X157948593Y6480980D01*
X159948593Y6480980D02*
X159948593Y10380980D01*
X240226512Y44580980D02*
X240226512Y48480980D01*
X242226512Y44580980D02*
X240226512Y44580980D01*
X242226512Y44580980D02*
X242226512Y48480980D01*
X164026512Y44580980D02*
X164026512Y48480980D01*
X166026512Y44580980D02*
X164026512Y44580980D01*
X166026512Y44580980D02*
X166026512Y48480980D01*
X49718439Y44580980D02*
X49718439Y48480980D01*
X51718439Y44580980D02*
X49718439Y44580980D01*
X51718439Y44580980D02*
X51718439Y48480980D01*
X240226512Y63630980D02*
X240226512Y67530980D01*
X242226512Y63630980D02*
X240226512Y63630980D01*
X242226512Y63630980D02*
X242226512Y67530980D01*
X119848561Y6480980D02*
X119848561Y10380980D01*
X121848561Y6480980D02*
X119848561Y6480980D01*
X121848561Y6480980D02*
X121848561Y10380980D01*
X178784548Y6480980D02*
X178784548Y10380980D01*
X180784548Y6480980D02*
X178784548Y6480980D01*
X180784548Y6480980D02*
X180784548Y10380980D01*
X120144998Y53122230D02*
X120667502Y53122230D01*
X120144998Y51652230D02*
X120667502Y51652230D01*
X130150855Y53822395D02*
X129696727Y53822395D01*
X130150855Y55292395D02*
X129696727Y55292395D01*
X221176512Y44580980D02*
X221176512Y48480980D01*
X223176512Y44580980D02*
X221176512Y44580980D01*
X223176512Y44580980D02*
X223176512Y48480980D01*
X120215000Y61394908D02*
X120215000Y60669908D01*
X120940000Y61394908D02*
X120215000Y61394908D01*
X120940000Y54174908D02*
X120215000Y54174908D01*
X126710000Y61394908D02*
X127435000Y61394908D01*
X126710000Y54174908D02*
X127435000Y54174908D01*
X127435000Y61394908D02*
X127435000Y60669908D01*
X127435000Y54174908D02*
X127435000Y54899908D01*
X40199842Y25530980D02*
X40199842Y29430980D01*
X42199842Y25530980D02*
X40199842Y25530980D01*
X42199842Y25530980D02*
X42199842Y29430980D01*
X235339216Y25530980D02*
X235339216Y29430980D01*
X237339216Y25530980D02*
X235339216Y25530980D01*
X237339216Y25530980D02*
X237339216Y29430980D01*
X58190000Y66418221D02*
X56110000Y66418221D01*
X59870000Y65148221D02*
X59380000Y65638221D01*
X59870000Y65148221D02*
X59870000Y62248221D01*
X54430000Y65148221D02*
X54920000Y65638221D01*
X54430000Y65148221D02*
X54430000Y62248221D01*
X59870000Y62248221D02*
X59380000Y61758221D01*
X54430000Y62248221D02*
X54920000Y61758221D01*
X58190000Y60978221D02*
X56110000Y60978221D01*
X120739293Y69390970D02*
X121108760Y69760437D01*
X121778740Y68351523D02*
X122148207Y68720990D01*
X30669135Y63630980D02*
X30669135Y67530980D01*
X32669135Y63630980D02*
X30669135Y63630980D01*
X32669135Y63630980D02*
X32669135Y67530980D01*
X115454511Y58795980D02*
X114932007Y58795980D01*
X115454511Y60265980D02*
X114932007Y60265980D01*
X11619831Y44580980D02*
X11619831Y48480980D01*
X13619831Y44580980D02*
X11619831Y44580980D01*
X13619831Y44580980D02*
X13619831Y48480980D01*
X48360160Y73557265D02*
X48360160Y73103137D01*
X46890160Y73557265D02*
X46890160Y73103137D01*
X194857999Y6480980D02*
X194857999Y10380980D01*
X196857999Y6480980D02*
X194857999Y6480980D01*
X196857999Y6480980D02*
X196857999Y10380980D01*
X202126512Y63630980D02*
X202126512Y67530980D01*
X204126512Y63630980D02*
X202126512Y63630980D01*
X204126512Y63630980D02*
X204126512Y67530980D01*
X128630549Y61192174D02*
X128630549Y61714678D01*
X130100549Y61192174D02*
X130100549Y61714678D01*
X68767743Y63630980D02*
X68767743Y67530980D01*
X70767743Y63630980D02*
X68767743Y63630980D01*
X70767743Y63630980D02*
X70767743Y67530980D01*
X144976512Y63630980D02*
X144976512Y67530980D01*
X146976512Y63630980D02*
X144976512Y63630980D01*
X146976512Y63630980D02*
X146976512Y67530980D01*
X53717857Y62173534D02*
X53717857Y61651030D01*
X52247857Y62173534D02*
X52247857Y61651030D01*
X106866352Y44580980D02*
X106866352Y48480980D01*
X108866352Y44580980D02*
X106866352Y44580980D01*
X108866352Y44580980D02*
X108866352Y48480980D01*
X85915720Y6480980D02*
X85915720Y10380980D01*
X87915720Y6480980D02*
X85915720Y6480980D01*
X87915720Y6480980D02*
X87915720Y10380980D01*
X27802176Y72190515D02*
X27348048Y72190515D01*
X27802176Y73660515D02*
X27348048Y73660515D01*
X221176512Y63630980D02*
X221176512Y67530980D01*
X223176512Y63630980D02*
X221176512Y63630980D01*
X223176512Y63630980D02*
X223176512Y67530980D01*
X183076512Y44580980D02*
X183076512Y48480980D01*
X185076512Y44580980D02*
X183076512Y44580980D01*
X185076512Y44580980D02*
X185076512Y48480980D01*
X121870590Y41013478D02*
X121870590Y41535982D01*
X123340590Y41013478D02*
X123340590Y41535982D01*
X125721840Y41501794D02*
X125721840Y41047666D01*
X124251840Y41501794D02*
X124251840Y41047666D01*
X135453782Y25530980D02*
X135453782Y29430980D01*
X137453782Y25530980D02*
X135453782Y25530980D01*
X137453782Y25530980D02*
X137453782Y29430980D01*
X173555358Y25530980D02*
X173555358Y29430980D01*
X175555358Y25530980D02*
X173555358Y25530980D01*
X175555358Y25530980D02*
X175555358Y29430980D01*
X27802176Y74274114D02*
X27348048Y74274114D01*
X27802176Y75744114D02*
X27348048Y75744114D01*
X116402994Y25530980D02*
X116402994Y29430980D01*
X118402994Y25530980D02*
X116402994Y25530980D01*
X118402994Y25530980D02*
X118402994Y29430980D01*
X49718439Y63630980D02*
X49718439Y67530980D01*
X51718439Y63630980D02*
X49718439Y63630980D01*
X51718439Y63630980D02*
X51718439Y67530980D01*
X202126512Y44580980D02*
X202126512Y48480980D01*
X204126512Y44580980D02*
X202126512Y44580980D01*
X204126512Y44580980D02*
X204126512Y48480980D01*
X97352206Y25530980D02*
X97352206Y29430980D01*
X99352206Y25530980D02*
X97352206Y25530980D01*
X99352206Y25530980D02*
X99352206Y29430980D01*
X192606146Y25530980D02*
X192606146Y29430980D01*
X194606146Y25530980D02*
X192606146Y25530980D01*
X194606146Y25530980D02*
X194606146Y29430980D01*
X37177132Y64559782D02*
X38977132Y64559782D01*
X38977132Y61339782D02*
X36027132Y61339782D01*
X128528750Y41501794D02*
X128528750Y41047666D01*
X127058750Y41501794D02*
X127058750Y41047666D01*
X126466892Y68649354D02*
X126097425Y69018821D01*
X127506339Y69688801D02*
X127136872Y70058268D01*
X211656940Y25530980D02*
X211656940Y29430980D01*
X213656940Y25530980D02*
X211656940Y25530980D01*
X213656940Y25530980D02*
X213656940Y29430980D01*
X183076512Y63630980D02*
X183076512Y67530980D01*
X185076512Y63630980D02*
X183076512Y63630980D01*
X185076512Y63630980D02*
X185076512Y67530980D01*
X106866352Y63630980D02*
X106866352Y67530980D01*
X108866352Y63630980D02*
X106866352Y63630980D01*
X108866352Y63630980D02*
X108866352Y67530980D01*
X46513602Y63859782D02*
X47717730Y63859782D01*
X46513602Y62039782D02*
X47717730Y62039782D01*
X87817047Y63630980D02*
X87817047Y67530980D01*
X89817047Y63630980D02*
X87817047Y63630980D01*
X89817047Y63630980D02*
X89817047Y67530980D01*
X16264032Y25530980D02*
X16264032Y29430980D01*
X18264032Y25530980D02*
X16264032Y25530980D01*
X18264032Y25530980D02*
X18264032Y29430980D01*
X56745383Y6480980D02*
X56745383Y10380980D01*
X58745383Y6480980D02*
X56745383Y6480980D01*
X58745383Y6480980D02*
X58745383Y10380980D01*
X154504570Y25530980D02*
X154504570Y29430980D01*
X156504570Y25530980D02*
X154504570Y25530980D01*
X156504570Y25530980D02*
X156504570Y29430980D01*
X144976512Y44580980D02*
X144976512Y48480980D01*
X146976512Y44580980D02*
X144976512Y44580980D01*
X146976512Y44580980D02*
X146976512Y48480980D01*
X87817047Y44580980D02*
X87817047Y48480980D01*
X89817047Y44580980D02*
X87817047Y44580980D01*
X89817047Y44580980D02*
X89817047Y48480980D01*
X164026512Y63630980D02*
X164026512Y67530980D01*
X166026512Y63630980D02*
X164026512Y63630980D01*
X166026512Y63630980D02*
X166026512Y67530980D01*
X114966195Y56206477D02*
X115420323Y56206477D01*
X114966195Y54736477D02*
X115420323Y54736477D01*
X60383750Y61722718D02*
X60383750Y62176846D01*
X61853750Y61722718D02*
X61853750Y62176846D01*
X68767743Y44580980D02*
X68767743Y48480980D01*
X70767743Y44580980D02*
X68767743Y44580980D01*
X70767743Y44580980D02*
X70767743Y48480980D01*
X30669135Y44580980D02*
X30669135Y48480980D01*
X32669135Y44580980D02*
X30669135Y44580980D01*
X32669135Y44580980D02*
X32669135Y48480980D01*
X119327500Y41047666D02*
X119327500Y41501794D01*
X120797500Y41047666D02*
X120797500Y41501794D01*
X11619831Y63630980D02*
X11619831Y67530980D01*
X13619831Y63630980D02*
X11619831Y63630980D01*
X13619831Y63630980D02*
X13619831Y67530980D01*
X118243894Y64395179D02*
X117874427Y64764646D01*
X119283341Y65434626D02*
X118913874Y65804093D01*
X128055002Y51652230D02*
X127532498Y51652230D01*
X128055002Y53122230D02*
X127532498Y53122230D01*
X35314115Y6480980D02*
X35314115Y10380980D01*
X37314115Y6480980D02*
X35314115Y6480980D01*
X37314115Y6480980D02*
X37314115Y10380980D01*
X216289267Y6480980D02*
X216289267Y10380980D01*
X218289267Y6480980D02*
X216289267Y6480980D01*
X218289267Y6480980D02*
X218289267Y10380980D01*
%LPC*%
D13*
X187801434Y9524918D03*
D14*
X192881434Y9524918D03*
D13*
X197961434Y9524918D03*
D15*
X189071434Y12064918D03*
X195421434Y14604918D03*
D14*
X154781250Y17780000D03*
X130968750Y17780000D03*
D16*
X154781250Y2540000D03*
X130968750Y2540000D03*
D13*
X147955000Y9525000D03*
X137795000Y9525000D03*
D15*
X139065000Y12065000D03*
D14*
X142875000Y9525000D03*
D15*
X145415000Y14605000D03*
D14*
X116681250Y17779730D03*
X92868750Y17779730D03*
D16*
X116681250Y2539730D03*
X92868750Y2539730D03*
D13*
X109855000Y9524730D03*
X99695000Y9524730D03*
D15*
X100965000Y12064730D03*
D14*
X104775000Y9524730D03*
D15*
X107315000Y14604730D03*
D13*
X219392702Y9524918D03*
X209232702Y9524918D03*
D15*
X210502702Y12064918D03*
D14*
X214312702Y9524918D03*
D15*
X216852702Y14604918D03*
D13*
X38417500Y9525000D03*
X28257500Y9525000D03*
D15*
X29527500Y12065000D03*
D14*
X33337500Y9525000D03*
D15*
X35877500Y14605000D03*
D13*
X71120000Y28574730D03*
D14*
X76200000Y28574730D03*
D13*
X81280000Y28574730D03*
D15*
X72390000Y31114730D03*
X78740000Y33654730D03*
D13*
X90170000Y28574730D03*
D14*
X95250000Y28574730D03*
D13*
X100330000Y28574730D03*
D15*
X91440000Y31114730D03*
X97790000Y33654730D03*
D13*
X204470000Y28574730D03*
D14*
X209550000Y28574730D03*
D13*
X214630000Y28574730D03*
D15*
X205740000Y31114730D03*
X212090000Y33654730D03*
D13*
X156845000Y47624730D03*
D14*
X161925000Y47624730D03*
D13*
X167005000Y47624730D03*
D15*
X158115000Y50164730D03*
X164465000Y52704730D03*
D17*
X130850000Y35598029D03*
X135850000Y35598029D03*
X133350000Y21098029D03*
X135850000Y21098029D03*
D18*
X130850000Y21098029D03*
D19*
X127750000Y28635329D03*
X138950000Y28598029D03*
D13*
X194945000Y66674730D03*
D14*
X200025000Y66674730D03*
D13*
X205105000Y66674730D03*
D15*
X196215000Y69214730D03*
X202565000Y71754730D03*
D13*
X73501250Y9525000D03*
D14*
X78581250Y9525000D03*
D13*
X83661250Y9525000D03*
D15*
X74771250Y12065000D03*
X81121250Y14605000D03*
D13*
X4445000Y66674730D03*
D14*
X9525000Y66674730D03*
D13*
X14605000Y66674730D03*
D15*
X5715000Y69214730D03*
X12065000Y71754730D03*
D13*
X213995000Y66674730D03*
D14*
X219075000Y66674730D03*
D13*
X224155000Y66674730D03*
D15*
X215265000Y69214730D03*
X221615000Y71754730D03*
D20*
X123825000Y44449730D03*
D13*
X49688750Y9524730D03*
D14*
X54768750Y9524730D03*
D13*
X59848750Y9524730D03*
D15*
X50958750Y12064730D03*
X57308750Y14604730D03*
D13*
X175895000Y66674730D03*
D14*
X180975000Y66674730D03*
D13*
X186055000Y66674730D03*
D15*
X177165000Y69214730D03*
X183515000Y71754730D03*
D13*
X185420000Y28574730D03*
D14*
X190500000Y28574730D03*
D13*
X195580000Y28574730D03*
D15*
X186690000Y31114730D03*
X193040000Y33654730D03*
D13*
X194945000Y47624730D03*
D14*
X200025000Y47624730D03*
D13*
X205105000Y47624730D03*
D15*
X196215000Y50164730D03*
X202565000Y52704730D03*
D13*
X156845000Y66674730D03*
D14*
X161925000Y66674730D03*
D13*
X167005000Y66674730D03*
D15*
X158115000Y69214730D03*
X164465000Y71754730D03*
D13*
X23495000Y47624730D03*
D14*
X28575000Y47624730D03*
D13*
X33655000Y47624730D03*
D15*
X24765000Y50164730D03*
X31115000Y52704730D03*
D20*
X121443750Y44449730D03*
D13*
X61595000Y47624730D03*
D14*
X66675000Y47624730D03*
D13*
X71755000Y47624730D03*
D15*
X62865000Y50164730D03*
X69215000Y52704730D03*
D13*
X128270000Y28574730D03*
D14*
X133350000Y28574730D03*
D13*
X138430000Y28574730D03*
D15*
X129540000Y31114730D03*
X135890000Y33654730D03*
D13*
X42545000Y47624730D03*
D14*
X47625000Y47624730D03*
D13*
X52705000Y47624730D03*
D15*
X43815000Y50164730D03*
X50165000Y52704730D03*
D20*
X119062500Y44449730D03*
D13*
X213995000Y47624730D03*
D14*
X219075000Y47624730D03*
D13*
X224155000Y47624730D03*
D15*
X215265000Y50164730D03*
X221615000Y52704730D03*
D13*
X166370166Y9524918D03*
D14*
X171450166Y9524918D03*
D13*
X176530166Y9524918D03*
D15*
X167640166Y12064918D03*
X173990166Y14604918D03*
D13*
X137795000Y47624730D03*
D14*
X142875000Y47624730D03*
D13*
X147955000Y47624730D03*
D15*
X139065000Y50164730D03*
X145415000Y52704730D03*
D13*
X33020000Y28574730D03*
D14*
X38100000Y28574730D03*
D13*
X43180000Y28574730D03*
D15*
X34290000Y31114730D03*
X40640000Y33654730D03*
D20*
X126206250Y44449730D03*
D13*
X102076250Y9525000D03*
D14*
X107156250Y9525000D03*
D13*
X112236250Y9525000D03*
D15*
X103346250Y12065000D03*
X109696250Y14605000D03*
D13*
X147320000Y28574730D03*
D14*
X152400000Y28574730D03*
D13*
X157480000Y28574730D03*
D15*
X148590000Y31114730D03*
X154940000Y33654730D03*
D13*
X99695000Y66674730D03*
D14*
X104775000Y66674730D03*
D13*
X109855000Y66674730D03*
D15*
X100965000Y69214730D03*
X107315000Y71754730D03*
D13*
X4445000Y47624730D03*
D14*
X9525000Y47624730D03*
D13*
X14605000Y47624730D03*
D15*
X5715000Y50164730D03*
X12065000Y52704730D03*
D20*
X128587500Y44449730D03*
D13*
X9207467Y28574934D03*
D14*
X14287467Y28574934D03*
D13*
X19367467Y28574934D03*
D15*
X10477467Y31114934D03*
X16827467Y33654934D03*
D13*
X42545000Y66674730D03*
D14*
X47625000Y66674730D03*
D13*
X52705000Y66674730D03*
D15*
X43815000Y69214730D03*
X50165000Y71754730D03*
D13*
X71120000Y9524730D03*
D14*
X76200000Y9524730D03*
D13*
X81280000Y9524730D03*
D15*
X72390000Y12064730D03*
X78740000Y14604730D03*
D13*
X99695000Y47624730D03*
D14*
X104775000Y47624730D03*
D13*
X109855000Y47624730D03*
D15*
X100965000Y50164730D03*
X107315000Y52704730D03*
D13*
X233045000Y66674730D03*
D14*
X238125000Y66674730D03*
D13*
X243205000Y66674730D03*
D15*
X234315000Y69214730D03*
X240665000Y71754730D03*
D13*
X80645000Y66674730D03*
D14*
X85725000Y66674730D03*
D13*
X90805000Y66674730D03*
D15*
X81915000Y69214730D03*
X88265000Y71754730D03*
D13*
X233045000Y47624730D03*
D14*
X238125000Y47624730D03*
D13*
X243205000Y47624730D03*
D15*
X234315000Y50164730D03*
X240665000Y52704730D03*
D13*
X228282500Y28574730D03*
D14*
X233362500Y28574730D03*
D13*
X238442500Y28574730D03*
D15*
X229552500Y31114730D03*
X235902500Y33654730D03*
D13*
X166370000Y28574730D03*
D14*
X171450000Y28574730D03*
D13*
X176530000Y28574730D03*
D15*
X167640000Y31114730D03*
X173990000Y33654730D03*
D13*
X135413750Y9524730D03*
D14*
X140493750Y9524730D03*
D13*
X145573750Y9524730D03*
D15*
X136683750Y12064730D03*
X143033750Y14604730D03*
D21*
X127635104Y74879778D03*
X125095104Y74879778D03*
X122555104Y74879778D03*
X120015104Y74879778D03*
D13*
X80645000Y47624730D03*
D14*
X85725000Y47624730D03*
D13*
X90805000Y47624730D03*
D15*
X81915000Y50164730D03*
X88265000Y52704730D03*
D13*
X163988750Y9524918D03*
D14*
X169068750Y9524918D03*
D13*
X174148750Y9524918D03*
D15*
X165258750Y12064918D03*
X171608750Y14604918D03*
D13*
X137795000Y66674730D03*
D14*
X142875000Y66674730D03*
D13*
X147955000Y66674730D03*
D15*
X139065000Y69214730D03*
X145415000Y71754730D03*
D13*
X109220000Y28574730D03*
D14*
X114300000Y28574730D03*
D13*
X119380000Y28574730D03*
D15*
X110490000Y31114730D03*
X116840000Y33654730D03*
D13*
X52070000Y28574730D03*
D14*
X57150000Y28574730D03*
D13*
X62230000Y28574730D03*
D15*
X53340000Y31114730D03*
X59690000Y33654730D03*
D13*
X175895000Y47624730D03*
D14*
X180975000Y47624730D03*
D13*
X186055000Y47624730D03*
D15*
X177165000Y50164730D03*
X183515000Y52704730D03*
D13*
X23495000Y66674730D03*
D14*
X28575000Y66674730D03*
D13*
X33655000Y66674730D03*
D15*
X24765000Y69214730D03*
X31115000Y71754730D03*
D13*
X61595000Y66674730D03*
D14*
X66675000Y66674730D03*
D13*
X71755000Y66674730D03*
D15*
X62865000Y69214730D03*
X69215000Y71754730D03*
D22*
X60250630Y26130980D03*
X60250630Y29430980D03*
D23*
X114193259Y57503477D03*
X116193259Y57503477D03*
D24*
X125663478Y66886862D03*
X123612868Y64836252D03*
X121986522Y66462598D03*
X124037132Y68513208D03*
D25*
X45243910Y72292701D03*
X45243910Y74367701D03*
D22*
X79301418Y26130980D03*
X79301418Y29430980D03*
X158948593Y7080980D03*
X158948593Y10380980D03*
X241226512Y45180980D03*
X241226512Y48480980D03*
X165026512Y45180980D03*
X165026512Y48480980D03*
X50718439Y45180980D03*
X50718439Y48480980D03*
X241226512Y64230980D03*
X241226512Y67530980D03*
X120848561Y7080980D03*
X120848561Y10380980D03*
X179784548Y7080980D03*
X179784548Y10380980D03*
D26*
X119368750Y52387230D03*
X121443750Y52387230D03*
D27*
X130923791Y54557395D03*
X128923791Y54557395D03*
D22*
X222176512Y45180980D03*
X222176512Y48480980D03*
D28*
X120487500Y55284908D03*
X120487500Y55784908D03*
X120487500Y56284908D03*
X120487500Y56784908D03*
X120487500Y57284908D03*
X120487500Y57784908D03*
X120487500Y58284908D03*
X120487500Y58784908D03*
X120487500Y59284908D03*
X120487500Y59784908D03*
X120487500Y60284908D03*
D29*
X121325000Y61122408D03*
X121825000Y61122408D03*
X122325000Y61122408D03*
X122825000Y61122408D03*
X123325000Y61122408D03*
X123825000Y61122408D03*
X124325000Y61122408D03*
X124825000Y61122408D03*
X125325000Y61122408D03*
X125825000Y61122408D03*
X126325000Y61122408D03*
D28*
X127162500Y60284908D03*
X127162500Y59784908D03*
X127162500Y59284908D03*
X127162500Y58784908D03*
X127162500Y58284908D03*
X127162500Y57784908D03*
X127162500Y57284908D03*
X127162500Y56784908D03*
X127162500Y56284908D03*
X127162500Y55784908D03*
X127162500Y55284908D03*
D29*
X126325000Y54447408D03*
X125825000Y54447408D03*
X125325000Y54447408D03*
X124825000Y54447408D03*
X124325000Y54447408D03*
X123825000Y54447408D03*
X123325000Y54447408D03*
X122825000Y54447408D03*
X122325000Y54447408D03*
X121825000Y54447408D03*
X121325000Y54447408D03*
D30*
X123825000Y57784908D03*
D22*
X41199842Y26130980D03*
X41199842Y29430980D03*
X236339216Y26130980D03*
X236339216Y29430980D03*
D31*
X55300000Y66798221D03*
X55300000Y60598221D03*
X59000000Y66798221D03*
X59000000Y60598221D03*
D32*
X120710127Y68322357D03*
X122177373Y69789603D03*
D22*
X31669135Y64230980D03*
X31669135Y67530980D03*
D33*
X116230759Y59530980D03*
X114155759Y59530980D03*
D22*
X12619831Y45180980D03*
X12619831Y48480980D03*
D34*
X47625160Y74330201D03*
X47625160Y72330201D03*
D22*
X195857999Y7080980D03*
X195857999Y10380980D03*
X203126512Y64230980D03*
X203126512Y67530980D03*
D25*
X129365549Y60415926D03*
X129365549Y62490926D03*
D22*
X69767743Y64230980D03*
X69767743Y67530980D03*
X145976512Y64230980D03*
X145976512Y67530980D03*
D35*
X52982857Y62949782D03*
X52982857Y60874782D03*
D22*
X107866352Y45180980D03*
X107866352Y48480980D03*
X86915720Y7080980D03*
X86915720Y10380980D03*
D27*
X28575112Y72925515D03*
X26575112Y72925515D03*
D22*
X222176512Y64230980D03*
X222176512Y67530980D03*
X184076512Y45180980D03*
X184076512Y48480980D03*
D25*
X122605590Y40237230D03*
X122605590Y42312230D03*
D34*
X124986840Y42274730D03*
X124986840Y40274730D03*
D22*
X136453782Y26130980D03*
X136453782Y29430980D03*
X174555358Y26130980D03*
X174555358Y29430980D03*
D27*
X28575112Y75009114D03*
X26575112Y75009114D03*
D36*
X35210032Y71735913D03*
X40990032Y71735913D03*
D37*
X34875032Y69790913D03*
X35650032Y69790913D03*
D38*
X36350032Y69790913D03*
X36850032Y69790913D03*
X37350032Y69790913D03*
X37850032Y69790913D03*
X38350032Y69790913D03*
X38850032Y69790913D03*
X39350032Y69790913D03*
X39850032Y69790913D03*
D37*
X40550032Y69790913D03*
X41325032Y69790913D03*
D22*
X117402994Y26130980D03*
X117402994Y29430980D03*
X50718439Y64230980D03*
X50718439Y67530980D03*
X203126512Y45180980D03*
X203126512Y48480980D03*
D39*
X114617500Y68897230D03*
D40*
X117157500Y68897230D03*
X114617500Y71437230D03*
X117157500Y71437230D03*
X114617500Y73977230D03*
X117157500Y73977230D03*
D22*
X98352206Y26130980D03*
X98352206Y29430980D03*
X193606146Y26130980D03*
X193606146Y29430980D03*
D41*
X36727132Y61999782D03*
X36727132Y62949782D03*
X36727132Y63899782D03*
X39427132Y63899782D03*
X39427132Y62949782D03*
X39427132Y61999782D03*
D34*
X127793750Y42274730D03*
X127793750Y40274730D03*
D42*
X127535505Y68620188D03*
X126068259Y70087434D03*
D22*
X212656940Y26130980D03*
X212656940Y29430980D03*
X184076512Y64230980D03*
X184076512Y67530980D03*
X107866352Y64230980D03*
X107866352Y67530980D03*
D43*
X45415666Y62949782D03*
X48815666Y62949782D03*
D22*
X88817047Y64230980D03*
X88817047Y67530980D03*
X17264032Y26130980D03*
X17264032Y29430980D03*
X57745383Y7080980D03*
X57745383Y10380980D03*
X155504570Y26130980D03*
X155504570Y29430980D03*
X145976512Y45180980D03*
X145976512Y48480980D03*
X88817047Y45180980D03*
X88817047Y48480980D03*
X165026512Y64230980D03*
X165026512Y67530980D03*
D23*
X114193259Y55471477D03*
X116193259Y55471477D03*
D44*
X61118750Y60949782D03*
X61118750Y62949782D03*
D22*
X69767743Y45180980D03*
X69767743Y48480980D03*
X31669135Y45180980D03*
X31669135Y48480980D03*
D44*
X120062500Y40274730D03*
X120062500Y42274730D03*
D22*
X12619831Y64230980D03*
X12619831Y67530980D03*
D42*
X119312507Y64366013D03*
X117845261Y65833259D03*
D33*
X128831250Y52387230D03*
X126756250Y52387230D03*
D22*
X36314115Y7080980D03*
X36314115Y10380980D03*
X217289267Y7080980D03*
X217289267Y10380980D03*
%LPD*%
M02*
