%TF.GenerationSoftware,KiCad,Pcbnew,7.0.6*%
%TF.CreationDate,2023-09-02T22:40:38-04:00*%
%TF.ProjectId,Vault45_alpha,5661756c-7434-4355-9f61-6c7068612e6b,rev?*%
%TF.SameCoordinates,PX18faf56PY663131a*%
%TF.FileFunction,Soldermask,Top*%
%TF.FilePolarity,Negative*%
%FSLAX46Y46*%
G04 Gerber Fmt 4.6, Leading zero omitted, Abs format (unit mm)*
G04 Created by KiCad (PCBNEW 7.0.6) date 2023-09-02 22:40:38*
%MOMM*%
%LPD*%
G01*
G04 APERTURE LIST*
G04 Aperture macros list*
%AMRoundRect*
0 Rectangle with rounded corners*
0 $1 Rounding radius*
0 $2 $3 $4 $5 $6 $7 $8 $9 X,Y pos of 4 corners*
0 Add a 4 corners polygon primitive as box body*
4,1,4,$2,$3,$4,$5,$6,$7,$8,$9,$2,$3,0*
0 Add four circle primitives for the rounded corners*
1,1,$1+$1,$2,$3*
1,1,$1+$1,$4,$5*
1,1,$1+$1,$6,$7*
1,1,$1+$1,$8,$9*
0 Add four rect primitives between the rounded corners*
20,1,$1+$1,$2,$3,$4,$5,0*
20,1,$1+$1,$4,$5,$6,$7,0*
20,1,$1+$1,$6,$7,$8,$9,0*
20,1,$1+$1,$8,$9,$2,$3,0*%
G04 Aperture macros list end*
%ADD10C,2.000000*%
%ADD11R,2.000000X2.000000*%
%ADD12O,2.800000X1.500000*%
%ADD13R,1.100000X1.800000*%
%ADD14C,3.048000*%
%ADD15C,3.987800*%
%ADD16C,1.750000*%
%ADD17R,1.000000X1.000000*%
%ADD18C,0.650000*%
%ADD19O,0.800000X1.600000*%
%ADD20O,1.000000X2.100000*%
%ADD21RoundRect,0.250000X-0.600000X-0.600000X0.600000X-0.600000X0.600000X0.600000X-0.600000X0.600000X0*%
%ADD22C,1.700000*%
G04 APERTURE END LIST*
D10*
X140350000Y31074730D03*
X140350000Y26074730D03*
X125850000Y28574730D03*
X125850000Y26074730D03*
D11*
X125850000Y31074730D03*
D12*
X133387300Y34174730D03*
X133350000Y22974730D03*
D13*
X55300048Y60598221D03*
X55300048Y66798221D03*
X59000048Y60598221D03*
X59000048Y66798221D03*
D14*
X152400126Y2539918D03*
D15*
X123825126Y9524918D03*
D14*
X95250126Y2539918D03*
D16*
X128905126Y9524918D03*
D15*
X95250126Y17779918D03*
X152400126Y17779918D03*
D16*
X118745126Y9524918D03*
D15*
X171450150Y17779918D03*
X133350150Y17779918D03*
D14*
X171450150Y2539918D03*
X133350150Y2539918D03*
D16*
X157480150Y9524918D03*
X147320150Y9524918D03*
D15*
X152400150Y9524918D03*
X114300102Y17779918D03*
X76200102Y17779918D03*
D14*
X114300102Y2539918D03*
X76200102Y2539918D03*
D16*
X100330102Y9524918D03*
X90170102Y9524918D03*
D15*
X95250102Y9524918D03*
D16*
X71120000Y28574730D03*
D15*
X76200000Y28574730D03*
D16*
X81280000Y28574730D03*
X28257500Y9525000D03*
D15*
X33337500Y9525000D03*
D16*
X38417500Y9525000D03*
X90170000Y28574730D03*
D15*
X95250000Y28574730D03*
D16*
X100330000Y28574730D03*
X204470000Y28574730D03*
D15*
X209550000Y28574730D03*
D16*
X214630000Y28574730D03*
X156845000Y47624730D03*
D15*
X161925000Y47624730D03*
D16*
X167005000Y47624730D03*
X194945000Y66674730D03*
D15*
X200025000Y66674730D03*
D16*
X205105000Y66674730D03*
X73501250Y9525000D03*
D15*
X78581250Y9525000D03*
D16*
X83661250Y9525000D03*
X4445000Y66674730D03*
D15*
X9525000Y66674730D03*
D16*
X14605000Y66674730D03*
X213995000Y66674730D03*
D15*
X219075000Y66674730D03*
D16*
X224155000Y66674730D03*
D17*
X123825000Y44449730D03*
D16*
X49688750Y9524730D03*
D15*
X54768750Y9524730D03*
D16*
X59848750Y9524730D03*
X175895000Y66674730D03*
D15*
X180975000Y66674730D03*
D16*
X186055000Y66674730D03*
X185420000Y28574730D03*
D15*
X190500000Y28574730D03*
D16*
X195580000Y28574730D03*
X194945000Y47624730D03*
D15*
X200025000Y47624730D03*
D16*
X205105000Y47624730D03*
X156845000Y66674730D03*
D15*
X161925000Y66674730D03*
D16*
X167005000Y66674730D03*
X23495000Y47624730D03*
D15*
X28575000Y47624730D03*
D16*
X33655000Y47624730D03*
D17*
X121443750Y44449730D03*
D16*
X61595000Y47624730D03*
D15*
X66675000Y47624730D03*
D16*
X71755000Y47624730D03*
X128270000Y28574730D03*
D15*
X133350000Y28574730D03*
D16*
X138430000Y28574730D03*
X42545000Y47624730D03*
D15*
X47625000Y47624730D03*
D16*
X52705000Y47624730D03*
D17*
X119062500Y44449730D03*
D16*
X213995000Y47624730D03*
D15*
X219075000Y47624730D03*
D16*
X224155000Y47624730D03*
X176530166Y9524918D03*
D15*
X171450166Y9524918D03*
D16*
X166370166Y9524918D03*
X137795000Y47624730D03*
D15*
X142875000Y47624730D03*
D16*
X147955000Y47624730D03*
X33020000Y28574730D03*
D15*
X38100000Y28574730D03*
D16*
X43180000Y28574730D03*
D17*
X126206250Y44449730D03*
D16*
X102076250Y9525000D03*
D15*
X107156250Y9525000D03*
D16*
X112236250Y9525000D03*
X147320000Y28574730D03*
D15*
X152400000Y28574730D03*
D16*
X157480000Y28574730D03*
X99695000Y66674730D03*
D15*
X104775000Y66674730D03*
D16*
X109855000Y66674730D03*
X4445000Y47624730D03*
D15*
X9525000Y47624730D03*
D16*
X14605000Y47624730D03*
D15*
X92868750Y17779730D03*
D14*
X92868750Y2539730D03*
D16*
X99695000Y9524730D03*
D15*
X104775000Y9524730D03*
D16*
X109855000Y9524730D03*
D15*
X116681250Y17779730D03*
D14*
X116681250Y2539730D03*
D17*
X128587500Y44449730D03*
D16*
X9207467Y28574934D03*
D15*
X14287467Y28574934D03*
D16*
X19367467Y28574934D03*
X42545000Y66674730D03*
D15*
X47625000Y66674730D03*
D16*
X52705000Y66674730D03*
X71120000Y9524730D03*
D15*
X76200000Y9524730D03*
D16*
X81280000Y9524730D03*
X99695000Y47624730D03*
D15*
X104775000Y47624730D03*
D16*
X109855000Y47624730D03*
X233045000Y66674730D03*
D15*
X238125000Y66674730D03*
D16*
X243205000Y66674730D03*
X80645000Y66674730D03*
D15*
X85725000Y66674730D03*
D16*
X90805000Y66674730D03*
X233045000Y47624730D03*
D15*
X238125000Y47624730D03*
D16*
X243205000Y47624730D03*
X228282500Y28574730D03*
D15*
X233362500Y28574730D03*
D16*
X238442500Y28574730D03*
X166370000Y28574730D03*
D15*
X171450000Y28574730D03*
D16*
X176530000Y28574730D03*
X135413750Y9524730D03*
D15*
X140493750Y9524730D03*
D16*
X145573750Y9524730D03*
X209232702Y9524918D03*
D15*
X214312702Y9524918D03*
D16*
X219392702Y9524918D03*
X80645000Y47624730D03*
D15*
X85725000Y47624730D03*
D16*
X90805000Y47624730D03*
D15*
X130968750Y17780000D03*
D14*
X130968750Y2540000D03*
D16*
X137795000Y9525000D03*
D15*
X142875000Y9525000D03*
D16*
X147955000Y9525000D03*
D15*
X154781250Y17780000D03*
D14*
X154781250Y2540000D03*
D16*
X163988750Y9524918D03*
D15*
X169068750Y9524918D03*
D16*
X174148750Y9524918D03*
X137795000Y66674730D03*
D15*
X142875000Y66674730D03*
D16*
X147955000Y66674730D03*
X109220000Y28574730D03*
D15*
X114300000Y28574730D03*
D16*
X119380000Y28574730D03*
X187801434Y9524918D03*
D15*
X192881434Y9524918D03*
D16*
X197961434Y9524918D03*
X52070000Y28574730D03*
D15*
X57150000Y28574730D03*
D16*
X62230000Y28574730D03*
X175895000Y47624730D03*
D15*
X180975000Y47624730D03*
D16*
X186055000Y47624730D03*
X23495000Y66674730D03*
D15*
X28575000Y66674730D03*
D16*
X33655000Y66674730D03*
X61595000Y66674730D03*
D15*
X66675000Y66674730D03*
D16*
X71755000Y66674730D03*
D18*
X35210032Y71735913D03*
X40990032Y71735913D03*
D19*
X33780032Y75385913D03*
D20*
X33780032Y71205913D03*
D19*
X42420032Y75385913D03*
D20*
X42420032Y71205913D03*
D21*
X114617500Y68897230D03*
D22*
X117157500Y68897230D03*
X114617500Y71437230D03*
X117157500Y71437230D03*
X114617500Y73977230D03*
X117157500Y73977230D03*
M02*
