%TF.GenerationSoftware,KiCad,Pcbnew,7.0.6*%
%TF.CreationDate,2023-08-26T01:37:11-04:00*%
%TF.ProjectId,Vault45_alpha,5661756c-7434-4355-9f61-6c7068612e6b,rev?*%
%TF.SameCoordinates,PX18faf56PY663131a*%
%TF.FileFunction,Soldermask,Bot*%
%TF.FilePolarity,Negative*%
%FSLAX46Y46*%
G04 Gerber Fmt 4.6, Leading zero omitted, Abs format (unit mm)*
G04 Created by KiCad (PCBNEW 7.0.6) date 2023-08-26 01:37:11*
%MOMM*%
%LPD*%
G01*
G04 APERTURE LIST*
G04 Aperture macros list*
%AMRoundRect*
0 Rectangle with rounded corners*
0 $1 Rounding radius*
0 $2 $3 $4 $5 $6 $7 $8 $9 X,Y pos of 4 corners*
0 Add a 4 corners polygon primitive as box body*
4,1,4,$2,$3,$4,$5,$6,$7,$8,$9,$2,$3,0*
0 Add four circle primitives for the rounded corners*
1,1,$1+$1,$2,$3*
1,1,$1+$1,$4,$5*
1,1,$1+$1,$6,$7*
1,1,$1+$1,$8,$9*
0 Add four rect primitives between the rounded corners*
20,1,$1+$1,$2,$3,$4,$5,0*
20,1,$1+$1,$4,$5,$6,$7,0*
20,1,$1+$1,$6,$7,$8,$9,0*
20,1,$1+$1,$8,$9,$2,$3,0*%
%AMRotRect*
0 Rectangle, with rotation*
0 The origin of the aperture is its center*
0 $1 length*
0 $2 width*
0 $3 Rotation angle, in degrees counterclockwise*
0 Add horizontal line*
21,1,$1,$2,0,0,$3*%
G04 Aperture macros list end*
%ADD10C,1.750000*%
%ADD11C,3.987800*%
%ADD12C,2.250000*%
%ADD13C,3.048000*%
%ADD14C,2.000000*%
%ADD15R,2.000000X2.000000*%
%ADD16O,1.500000X2.800000*%
%ADD17R,1.000000X1.000000*%
%ADD18C,1.397000*%
%ADD19R,1.200000X0.900000*%
%ADD20RoundRect,0.250000X-0.350000X-0.450000X0.350000X-0.450000X0.350000X0.450000X-0.350000X0.450000X0*%
%ADD21RotRect,2.100000X1.800000X225.000000*%
%ADD22RoundRect,0.250000X0.475000X-0.337500X0.475000X0.337500X-0.475000X0.337500X-0.475000X-0.337500X0*%
%ADD23RoundRect,0.250000X-0.337500X-0.475000X0.337500X-0.475000X0.337500X0.475000X-0.337500X0.475000X0*%
%ADD24RoundRect,0.250000X0.350000X0.450000X-0.350000X0.450000X-0.350000X-0.450000X0.350000X-0.450000X0*%
%ADD25RoundRect,0.062500X-0.475000X-0.062500X0.475000X-0.062500X0.475000X0.062500X-0.475000X0.062500X0*%
%ADD26RoundRect,0.062500X-0.062500X-0.475000X0.062500X-0.475000X0.062500X0.475000X-0.062500X0.475000X0*%
%ADD27R,5.200000X5.200000*%
%ADD28R,1.100000X1.800000*%
%ADD29RoundRect,0.250000X0.097227X-0.574524X0.574524X-0.097227X-0.097227X0.574524X-0.574524X0.097227X0*%
%ADD30RoundRect,0.250000X0.337500X0.475000X-0.337500X0.475000X-0.337500X-0.475000X0.337500X-0.475000X0*%
%ADD31RoundRect,0.250000X-0.450000X0.350000X-0.450000X-0.350000X0.450000X-0.350000X0.450000X0.350000X0*%
%ADD32RoundRect,0.250000X-0.475000X0.337500X-0.475000X-0.337500X0.475000X-0.337500X0.475000X0.337500X0*%
%ADD33C,0.650000*%
%ADD34R,0.600000X2.450000*%
%ADD35R,0.300000X2.450000*%
%ADD36RoundRect,0.250000X-0.600000X-0.600000X0.600000X-0.600000X0.600000X0.600000X-0.600000X0.600000X0*%
%ADD37C,1.700000*%
%ADD38R,1.560000X0.650000*%
%ADD39RoundRect,0.250000X0.574524X0.097227X0.097227X0.574524X-0.574524X-0.097227X-0.097227X-0.574524X0*%
%ADD40RoundRect,0.210527X-0.389473X-0.664473X0.389473X-0.664473X0.389473X0.664473X-0.389473X0.664473X0*%
%ADD41RoundRect,0.250000X0.450000X-0.350000X0.450000X0.350000X-0.450000X0.350000X-0.450000X-0.350000X0*%
G04 APERTURE END LIST*
D10*
X187801434Y9524918D03*
D11*
X192881434Y9524918D03*
D10*
X197961434Y9524918D03*
D12*
X189071434Y12064918D03*
X195421434Y14604918D03*
D11*
X154781250Y17780000D03*
X130968750Y17780000D03*
D13*
X154781250Y2540000D03*
X130968750Y2540000D03*
D10*
X147955000Y9525000D03*
X137795000Y9525000D03*
D12*
X139065000Y12065000D03*
D11*
X142875000Y9525000D03*
D12*
X145415000Y14605000D03*
D11*
X116681250Y17779730D03*
X92868750Y17779730D03*
D13*
X116681250Y2539730D03*
X92868750Y2539730D03*
D10*
X109855000Y9524730D03*
X99695000Y9524730D03*
D12*
X100965000Y12064730D03*
D11*
X104775000Y9524730D03*
D12*
X107315000Y14604730D03*
D10*
X219392702Y9524918D03*
X209232702Y9524918D03*
D12*
X210502702Y12064918D03*
D11*
X214312702Y9524918D03*
D12*
X216852702Y14604918D03*
D10*
X38417500Y9525000D03*
X28257500Y9525000D03*
D12*
X29527500Y12065000D03*
D11*
X33337500Y9525000D03*
D12*
X35877500Y14605000D03*
D10*
X71120000Y28574730D03*
D11*
X76200000Y28574730D03*
D10*
X81280000Y28574730D03*
D12*
X72390000Y31114730D03*
X78740000Y33654730D03*
D10*
X90170000Y28574730D03*
D11*
X95250000Y28574730D03*
D10*
X100330000Y28574730D03*
D12*
X91440000Y31114730D03*
X97790000Y33654730D03*
D10*
X204470000Y28574730D03*
D11*
X209550000Y28574730D03*
D10*
X214630000Y28574730D03*
D12*
X205740000Y31114730D03*
X212090000Y33654730D03*
D10*
X156845000Y47624730D03*
D11*
X161925000Y47624730D03*
D10*
X167005000Y47624730D03*
D12*
X158115000Y50164730D03*
X164465000Y52704730D03*
D14*
X130850000Y35598029D03*
X135850000Y35598029D03*
X133350000Y21098029D03*
X135850000Y21098029D03*
D15*
X130850000Y21098029D03*
D16*
X127750000Y28635329D03*
X138950000Y28598029D03*
D10*
X194945000Y66674730D03*
D11*
X200025000Y66674730D03*
D10*
X205105000Y66674730D03*
D12*
X196215000Y69214730D03*
X202565000Y71754730D03*
D10*
X73501250Y9525000D03*
D11*
X78581250Y9525000D03*
D10*
X83661250Y9525000D03*
D12*
X74771250Y12065000D03*
X81121250Y14605000D03*
D10*
X4445000Y66674730D03*
D11*
X9525000Y66674730D03*
D10*
X14605000Y66674730D03*
D12*
X5715000Y69214730D03*
X12065000Y71754730D03*
D10*
X213995000Y66674730D03*
D11*
X219075000Y66674730D03*
D10*
X224155000Y66674730D03*
D12*
X215265000Y69214730D03*
X221615000Y71754730D03*
D17*
X123825000Y44449730D03*
D10*
X49688750Y9524730D03*
D11*
X54768750Y9524730D03*
D10*
X59848750Y9524730D03*
D12*
X50958750Y12064730D03*
X57308750Y14604730D03*
D10*
X175895000Y66674730D03*
D11*
X180975000Y66674730D03*
D10*
X186055000Y66674730D03*
D12*
X177165000Y69214730D03*
X183515000Y71754730D03*
D10*
X185420000Y28574730D03*
D11*
X190500000Y28574730D03*
D10*
X195580000Y28574730D03*
D12*
X186690000Y31114730D03*
X193040000Y33654730D03*
D10*
X194945000Y47624730D03*
D11*
X200025000Y47624730D03*
D10*
X205105000Y47624730D03*
D12*
X196215000Y50164730D03*
X202565000Y52704730D03*
D10*
X156845000Y66674730D03*
D11*
X161925000Y66674730D03*
D10*
X167005000Y66674730D03*
D12*
X158115000Y69214730D03*
X164465000Y71754730D03*
D10*
X23495000Y47624730D03*
D11*
X28575000Y47624730D03*
D10*
X33655000Y47624730D03*
D12*
X24765000Y50164730D03*
X31115000Y52704730D03*
D17*
X121443750Y44449730D03*
D10*
X61595000Y47624730D03*
D11*
X66675000Y47624730D03*
D10*
X71755000Y47624730D03*
D12*
X62865000Y50164730D03*
X69215000Y52704730D03*
D10*
X128270000Y28574730D03*
D11*
X133350000Y28574730D03*
D10*
X138430000Y28574730D03*
D12*
X129540000Y31114730D03*
X135890000Y33654730D03*
D10*
X42545000Y47624730D03*
D11*
X47625000Y47624730D03*
D10*
X52705000Y47624730D03*
D12*
X43815000Y50164730D03*
X50165000Y52704730D03*
D17*
X119062500Y44449730D03*
D10*
X213995000Y47624730D03*
D11*
X219075000Y47624730D03*
D10*
X224155000Y47624730D03*
D12*
X215265000Y50164730D03*
X221615000Y52704730D03*
D10*
X166370166Y9524918D03*
D11*
X171450166Y9524918D03*
D10*
X176530166Y9524918D03*
D12*
X167640166Y12064918D03*
X173990166Y14604918D03*
D10*
X137795000Y47624730D03*
D11*
X142875000Y47624730D03*
D10*
X147955000Y47624730D03*
D12*
X139065000Y50164730D03*
X145415000Y52704730D03*
D10*
X33020000Y28574730D03*
D11*
X38100000Y28574730D03*
D10*
X43180000Y28574730D03*
D12*
X34290000Y31114730D03*
X40640000Y33654730D03*
D17*
X126206250Y44449730D03*
D10*
X102076250Y9525000D03*
D11*
X107156250Y9525000D03*
D10*
X112236250Y9525000D03*
D12*
X103346250Y12065000D03*
X109696250Y14605000D03*
D10*
X147320000Y28574730D03*
D11*
X152400000Y28574730D03*
D10*
X157480000Y28574730D03*
D12*
X148590000Y31114730D03*
X154940000Y33654730D03*
D10*
X99695000Y66674730D03*
D11*
X104775000Y66674730D03*
D10*
X109855000Y66674730D03*
D12*
X100965000Y69214730D03*
X107315000Y71754730D03*
D10*
X4445000Y47624730D03*
D11*
X9525000Y47624730D03*
D10*
X14605000Y47624730D03*
D12*
X5715000Y50164730D03*
X12065000Y52704730D03*
D17*
X128587500Y44449730D03*
D10*
X9207467Y28574934D03*
D11*
X14287467Y28574934D03*
D10*
X19367467Y28574934D03*
D12*
X10477467Y31114934D03*
X16827467Y33654934D03*
D10*
X42545000Y66674730D03*
D11*
X47625000Y66674730D03*
D10*
X52705000Y66674730D03*
D12*
X43815000Y69214730D03*
X50165000Y71754730D03*
D10*
X71120000Y9524730D03*
D11*
X76200000Y9524730D03*
D10*
X81280000Y9524730D03*
D12*
X72390000Y12064730D03*
X78740000Y14604730D03*
D10*
X99695000Y47624730D03*
D11*
X104775000Y47624730D03*
D10*
X109855000Y47624730D03*
D12*
X100965000Y50164730D03*
X107315000Y52704730D03*
D10*
X233045000Y66674730D03*
D11*
X238125000Y66674730D03*
D10*
X243205000Y66674730D03*
D12*
X234315000Y69214730D03*
X240665000Y71754730D03*
D10*
X80645000Y66674730D03*
D11*
X85725000Y66674730D03*
D10*
X90805000Y66674730D03*
D12*
X81915000Y69214730D03*
X88265000Y71754730D03*
D10*
X233045000Y47624730D03*
D11*
X238125000Y47624730D03*
D10*
X243205000Y47624730D03*
D12*
X234315000Y50164730D03*
X240665000Y52704730D03*
D10*
X228282500Y28574730D03*
D11*
X233362500Y28574730D03*
D10*
X238442500Y28574730D03*
D12*
X229552500Y31114730D03*
X235902500Y33654730D03*
D10*
X166370000Y28574730D03*
D11*
X171450000Y28574730D03*
D10*
X176530000Y28574730D03*
D12*
X167640000Y31114730D03*
X173990000Y33654730D03*
D10*
X135413750Y9524730D03*
D11*
X140493750Y9524730D03*
D10*
X145573750Y9524730D03*
D12*
X136683750Y12064730D03*
X143033750Y14604730D03*
D18*
X127635104Y74879778D03*
X125095104Y74879778D03*
X122555104Y74879778D03*
X120015104Y74879778D03*
D10*
X80645000Y47624730D03*
D11*
X85725000Y47624730D03*
D10*
X90805000Y47624730D03*
D12*
X81915000Y50164730D03*
X88265000Y52704730D03*
D10*
X163988750Y9524918D03*
D11*
X169068750Y9524918D03*
D10*
X174148750Y9524918D03*
D12*
X165258750Y12064918D03*
X171608750Y14604918D03*
D10*
X137795000Y66674730D03*
D11*
X142875000Y66674730D03*
D10*
X147955000Y66674730D03*
D12*
X139065000Y69214730D03*
X145415000Y71754730D03*
D10*
X109220000Y28574730D03*
D11*
X114300000Y28574730D03*
D10*
X119380000Y28574730D03*
D12*
X110490000Y31114730D03*
X116840000Y33654730D03*
D10*
X52070000Y28574730D03*
D11*
X57150000Y28574730D03*
D10*
X62230000Y28574730D03*
D12*
X53340000Y31114730D03*
X59690000Y33654730D03*
D10*
X175895000Y47624730D03*
D11*
X180975000Y47624730D03*
D10*
X186055000Y47624730D03*
D12*
X177165000Y50164730D03*
X183515000Y52704730D03*
D10*
X23495000Y66674730D03*
D11*
X28575000Y66674730D03*
D10*
X33655000Y66674730D03*
D12*
X24765000Y69214730D03*
X31115000Y71754730D03*
D10*
X61595000Y66674730D03*
D11*
X66675000Y66674730D03*
D10*
X71755000Y66674730D03*
D12*
X62865000Y69214730D03*
X69215000Y71754730D03*
D19*
X60250630Y26130980D03*
X60250630Y29430980D03*
D20*
X114193259Y57503477D03*
X116193259Y57503477D03*
D21*
X125663478Y66886862D03*
X123612868Y64836252D03*
X121986522Y66462598D03*
X124037132Y68513208D03*
D22*
X45243910Y72292701D03*
X45243910Y74367701D03*
D19*
X79301418Y26130980D03*
X79301418Y29430980D03*
X158948593Y7080980D03*
X158948593Y10380980D03*
X241226512Y45180980D03*
X241226512Y48480980D03*
X165026512Y45180980D03*
X165026512Y48480980D03*
X50718439Y45180980D03*
X50718439Y48480980D03*
X241226512Y64230980D03*
X241226512Y67530980D03*
X120848561Y7080980D03*
X120848561Y10380980D03*
X179784548Y7080980D03*
X179784548Y10380980D03*
D23*
X119368750Y52387230D03*
X121443750Y52387230D03*
D24*
X130923791Y54557395D03*
X128923791Y54557395D03*
D19*
X222176512Y45180980D03*
X222176512Y48480980D03*
D25*
X120487500Y55284908D03*
X120487500Y55784908D03*
X120487500Y56284908D03*
X120487500Y56784908D03*
X120487500Y57284908D03*
X120487500Y57784908D03*
X120487500Y58284908D03*
X120487500Y58784908D03*
X120487500Y59284908D03*
X120487500Y59784908D03*
X120487500Y60284908D03*
D26*
X121325000Y61122408D03*
X121825000Y61122408D03*
X122325000Y61122408D03*
X122825000Y61122408D03*
X123325000Y61122408D03*
X123825000Y61122408D03*
X124325000Y61122408D03*
X124825000Y61122408D03*
X125325000Y61122408D03*
X125825000Y61122408D03*
X126325000Y61122408D03*
D25*
X127162500Y60284908D03*
X127162500Y59784908D03*
X127162500Y59284908D03*
X127162500Y58784908D03*
X127162500Y58284908D03*
X127162500Y57784908D03*
X127162500Y57284908D03*
X127162500Y56784908D03*
X127162500Y56284908D03*
X127162500Y55784908D03*
X127162500Y55284908D03*
D26*
X126325000Y54447408D03*
X125825000Y54447408D03*
X125325000Y54447408D03*
X124825000Y54447408D03*
X124325000Y54447408D03*
X123825000Y54447408D03*
X123325000Y54447408D03*
X122825000Y54447408D03*
X122325000Y54447408D03*
X121825000Y54447408D03*
X121325000Y54447408D03*
D27*
X123825000Y57784908D03*
D19*
X41199842Y26130980D03*
X41199842Y29430980D03*
X236339216Y26130980D03*
X236339216Y29430980D03*
D28*
X55300000Y66798221D03*
X55300000Y60598221D03*
X59000000Y66798221D03*
X59000000Y60598221D03*
D29*
X120710127Y68322357D03*
X122177373Y69789603D03*
D19*
X31669135Y64230980D03*
X31669135Y67530980D03*
D30*
X116230759Y59530980D03*
X114155759Y59530980D03*
D19*
X12619831Y45180980D03*
X12619831Y48480980D03*
D31*
X47625160Y74330201D03*
X47625160Y72330201D03*
D19*
X195857999Y7080980D03*
X195857999Y10380980D03*
X203126512Y64230980D03*
X203126512Y67530980D03*
D22*
X129365549Y60415926D03*
X129365549Y62490926D03*
D19*
X69767743Y64230980D03*
X69767743Y67530980D03*
X145976512Y64230980D03*
X145976512Y67530980D03*
D32*
X52982857Y62949782D03*
X52982857Y60874782D03*
D19*
X107866352Y45180980D03*
X107866352Y48480980D03*
X86915720Y7080980D03*
X86915720Y10380980D03*
D24*
X28575112Y72925515D03*
X26575112Y72925515D03*
D19*
X222176512Y64230980D03*
X222176512Y67530980D03*
X184076512Y45180980D03*
X184076512Y48480980D03*
D22*
X122605590Y40237230D03*
X122605590Y42312230D03*
D31*
X124986840Y42274730D03*
X124986840Y40274730D03*
D19*
X136453782Y26130980D03*
X136453782Y29430980D03*
X174555358Y26130980D03*
X174555358Y29430980D03*
D24*
X28575112Y75009114D03*
X26575112Y75009114D03*
D33*
X35210032Y71735913D03*
X40990032Y71735913D03*
D34*
X34875032Y69790913D03*
X35650032Y69790913D03*
D35*
X36350032Y69790913D03*
X36850032Y69790913D03*
X37350032Y69790913D03*
X37850032Y69790913D03*
X38350032Y69790913D03*
X38850032Y69790913D03*
X39350032Y69790913D03*
X39850032Y69790913D03*
D34*
X40550032Y69790913D03*
X41325032Y69790913D03*
D19*
X117402994Y26130980D03*
X117402994Y29430980D03*
X50718439Y64230980D03*
X50718439Y67530980D03*
X203126512Y45180980D03*
X203126512Y48480980D03*
D36*
X114617500Y68897230D03*
D37*
X117157500Y68897230D03*
X114617500Y71437230D03*
X117157500Y71437230D03*
X114617500Y73977230D03*
X117157500Y73977230D03*
D19*
X98352206Y26130980D03*
X98352206Y29430980D03*
X193606146Y26130980D03*
X193606146Y29430980D03*
D38*
X36727132Y61999782D03*
X36727132Y62949782D03*
X36727132Y63899782D03*
X39427132Y63899782D03*
X39427132Y62949782D03*
X39427132Y61999782D03*
D31*
X127793750Y42274730D03*
X127793750Y40274730D03*
D39*
X127535505Y68620188D03*
X126068259Y70087434D03*
D19*
X212656940Y26130980D03*
X212656940Y29430980D03*
X184076512Y64230980D03*
X184076512Y67530980D03*
X107866352Y64230980D03*
X107866352Y67530980D03*
D40*
X45415666Y62949782D03*
X48815666Y62949782D03*
D19*
X88817047Y64230980D03*
X88817047Y67530980D03*
X17264032Y26130980D03*
X17264032Y29430980D03*
X57745383Y7080980D03*
X57745383Y10380980D03*
X155504570Y26130980D03*
X155504570Y29430980D03*
X145976512Y45180980D03*
X145976512Y48480980D03*
X88817047Y45180980D03*
X88817047Y48480980D03*
X165026512Y64230980D03*
X165026512Y67530980D03*
D20*
X114193259Y55471477D03*
X116193259Y55471477D03*
D41*
X61118750Y60949782D03*
X61118750Y62949782D03*
D19*
X69767743Y45180980D03*
X69767743Y48480980D03*
X31669135Y45180980D03*
X31669135Y48480980D03*
D41*
X120062500Y40274730D03*
X120062500Y42274730D03*
D19*
X12619831Y64230980D03*
X12619831Y67530980D03*
D39*
X119312507Y64366013D03*
X117845261Y65833259D03*
D30*
X128831250Y52387230D03*
X126756250Y52387230D03*
D19*
X36314115Y7080980D03*
X36314115Y10380980D03*
X217289267Y7080980D03*
X217289267Y10380980D03*
M02*
