%TF.GenerationSoftware,KiCad,Pcbnew,7.0.6*%
%TF.CreationDate,2023-09-06T22:24:18-04:00*%
%TF.ProjectId,Vault45_Alpha_FR4_Plate,5661756c-7434-4355-9f41-6c7068615f46,rev?*%
%TF.SameCoordinates,PX1c63012PY7616bd0*%
%TF.FileFunction,Drillmap*%
%TF.FilePolarity,Positive*%
%FSLAX45Y45*%
G04 Gerber Fmt 4.5, Leading zero omitted, Abs format (unit mm)*
G04 Created by KiCad (PCBNEW 7.0.6) date 2023-09-06 22:24:18*
%MOMM*%
%LPD*%
G01*
G04 APERTURE LIST*
%ADD10C,0.090000*%
%ADD11C,0.200000*%
G04 APERTURE END LIST*
D10*
X11415565Y401850D02*
X11682500Y401850D01*
X11415565Y304850D02*
X11415565Y401850D01*
X11365565Y254850D02*
X11375641Y255866D01*
X11385027Y258779D01*
X11393520Y263389D01*
X11400920Y269495D01*
X11407025Y276894D01*
X11411635Y285388D01*
X11414549Y294773D01*
X11415565Y304850D01*
X8875000Y255133D02*
X11365565Y254850D01*
X8825000Y305133D02*
X8826016Y295056D01*
X8828929Y285670D01*
X8833539Y277177D01*
X8839645Y269777D01*
X8847045Y263672D01*
X8855538Y259062D01*
X8864923Y256148D01*
X8875000Y255133D01*
X8825000Y1604848D02*
X8825000Y305133D01*
X8875000Y1654848D02*
X8864923Y1653832D01*
X8855538Y1650919D01*
X8847045Y1646309D01*
X8839645Y1640203D01*
X8833539Y1632803D01*
X8828929Y1624310D01*
X8826016Y1614925D01*
X8825000Y1604848D01*
X8950000Y1654850D02*
X8875000Y1654848D01*
X8950000Y1751850D02*
X8950000Y1654850D01*
X9000000Y1801850D02*
X8989923Y1800834D01*
X8980538Y1797921D01*
X8972045Y1793311D01*
X8964645Y1787205D01*
X8958539Y1779805D01*
X8953929Y1771312D01*
X8951016Y1761927D01*
X8950000Y1751850D01*
X9812400Y1801850D02*
X9000000Y1801850D01*
X9862400Y1751850D02*
X9861384Y1761927D01*
X9858471Y1771312D01*
X9853861Y1779805D01*
X9847755Y1787205D01*
X9840355Y1793311D01*
X9831862Y1797921D01*
X9822477Y1800834D01*
X9812400Y1801850D01*
X9862400Y1654850D02*
X9862400Y1751850D01*
X11092433Y1655133D02*
X9862400Y1654850D01*
X11092433Y1751850D02*
X11092433Y1655133D01*
X11142433Y1801850D02*
X11132356Y1800834D01*
X11122970Y1797921D01*
X11114477Y1793311D01*
X11107077Y1787205D01*
X11100972Y1779805D01*
X11096362Y1771312D01*
X11093448Y1761927D01*
X11092433Y1751850D01*
X11954905Y1801850D02*
X11142433Y1801850D01*
X12004905Y1751850D02*
X12003889Y1761927D01*
X12000975Y1771312D01*
X11996365Y1779805D01*
X11990260Y1787205D01*
X11982860Y1793311D01*
X11974367Y1797921D01*
X11964981Y1800834D01*
X11954905Y1801850D01*
X12004905Y1655133D02*
X12004905Y1751850D01*
X12760000Y1655133D02*
X12004905Y1655133D01*
X12760000Y1751850D02*
X12760000Y1655133D01*
X12810000Y1801850D02*
X12799923Y1800834D01*
X12790538Y1797921D01*
X12782044Y1793311D01*
X12774645Y1787205D01*
X12768539Y1779805D01*
X12763929Y1771312D01*
X12761016Y1761927D01*
X12760000Y1751850D01*
X13622400Y1801850D02*
X12810000Y1801850D01*
X13672400Y1751850D02*
X13671384Y1761927D01*
X13668471Y1771312D01*
X13663861Y1779805D01*
X13657755Y1787205D01*
X13650355Y1793311D01*
X13641862Y1797921D01*
X13632477Y1800834D01*
X13622400Y1801850D01*
X13672400Y1654850D02*
X13672400Y1751850D01*
X14902367Y1654850D02*
X13672400Y1654850D01*
X14902367Y1751850D02*
X14902367Y1654850D01*
X14952367Y1801850D02*
X14942291Y1800834D01*
X14932905Y1797921D01*
X14924412Y1793311D01*
X14917012Y1787205D01*
X14910907Y1779805D01*
X14906297Y1771312D01*
X14903383Y1761927D01*
X14902367Y1751850D01*
X15764985Y1801850D02*
X14952367Y1801850D01*
X15814985Y1751850D02*
X15813969Y1761927D01*
X15811055Y1771312D01*
X15806445Y1779805D01*
X15800340Y1787205D01*
X15792940Y1793311D01*
X15784447Y1797921D01*
X15775061Y1800834D01*
X15764985Y1801850D01*
X15814985Y1654850D02*
X15814985Y1751850D01*
X15890000Y1654850D02*
X15814985Y1654850D01*
X15940000Y1604850D02*
X15938984Y1614927D01*
X15936071Y1624312D01*
X15931461Y1632805D01*
X15925355Y1640205D01*
X15917955Y1646311D01*
X15909462Y1650921D01*
X15900077Y1653834D01*
X15890000Y1654850D01*
X15940000Y304850D02*
X15940000Y1604850D01*
X15890000Y254850D02*
X15900077Y255866D01*
X15909462Y258779D01*
X15917955Y263389D01*
X15925355Y269495D01*
X15931461Y276894D01*
X15936071Y285388D01*
X15938984Y294773D01*
X15940000Y304850D01*
X13399405Y254850D02*
X15890000Y254850D01*
X13349405Y304850D02*
X13350420Y294773D01*
X13353334Y285388D01*
X13357944Y276894D01*
X13364049Y269495D01*
X13371449Y263389D01*
X13379942Y258779D01*
X13389328Y255866D01*
X13399405Y254850D01*
X13349405Y401850D02*
X13349405Y304850D01*
X13082500Y401850D02*
X13349405Y401850D01*
X13082500Y305133D02*
X13082500Y401850D01*
X13032500Y255133D02*
X13042577Y256148D01*
X13051962Y259062D01*
X13060455Y263672D01*
X13067855Y269777D01*
X13073961Y277177D01*
X13078571Y285670D01*
X13081484Y295056D01*
X13082500Y305133D01*
X11732500Y255133D02*
X13032500Y255133D01*
X11682500Y305133D02*
X11683516Y295056D01*
X11686429Y285670D01*
X11691039Y277177D01*
X11697145Y269777D01*
X11704544Y263672D01*
X11713038Y259062D01*
X11722423Y256148D01*
X11732500Y255133D01*
X11682500Y401850D02*
X11682500Y305133D01*
X22983301Y7402312D02*
G75*
G03*
X22983301Y7402312I-125000J0D01*
G01*
X6126875Y1654850D02*
X6136952Y1653834D01*
X6146337Y1650921D01*
X6154830Y1646311D01*
X6162230Y1640205D01*
X6168336Y1632805D01*
X6172946Y1624312D01*
X6175859Y1614927D01*
X6176875Y1604850D01*
X4826875Y1654850D02*
X6126875Y1654850D01*
X4776875Y1604850D02*
X4777891Y1614927D01*
X4780804Y1624312D01*
X4785414Y1632805D01*
X4791520Y1640205D01*
X4798920Y1646311D01*
X4807413Y1650921D01*
X4816798Y1653834D01*
X4826875Y1654850D01*
X4776875Y304850D02*
X4776875Y1604850D01*
X4826875Y254850D02*
X4816798Y255866D01*
X4807413Y258779D01*
X4798920Y263389D01*
X4791520Y269495D01*
X4785414Y276894D01*
X4780804Y285388D01*
X4777891Y294773D01*
X4776875Y304850D01*
X6126875Y254850D02*
X4826875Y254850D01*
X6176875Y304850D02*
X6175859Y294773D01*
X6172946Y285388D01*
X6168336Y276894D01*
X6162230Y269495D01*
X6154830Y263389D01*
X6146337Y258779D01*
X6136952Y255866D01*
X6126875Y254850D01*
X6176875Y1604850D02*
X6176875Y304850D01*
X2633750Y1604850D02*
X2634766Y1614927D01*
X2637679Y1624312D01*
X2642289Y1632805D01*
X2648395Y1640205D01*
X2655795Y1646311D01*
X2664288Y1650921D01*
X2673673Y1653834D01*
X2683750Y1654850D01*
X2633750Y304850D02*
X2633750Y1604850D01*
X2683750Y254850D02*
X2673673Y255866D01*
X2664288Y258779D01*
X2655795Y263389D01*
X2648395Y269495D01*
X2642289Y276894D01*
X2637679Y285388D01*
X2634766Y294773D01*
X2633750Y304850D01*
X3983750Y254850D02*
X2683750Y254850D01*
X4033750Y304850D02*
X4032734Y294773D01*
X4029821Y285388D01*
X4025211Y276894D01*
X4019105Y269495D01*
X4011705Y263389D01*
X4003212Y258779D01*
X3993827Y255866D01*
X3983750Y254850D01*
X4033750Y1604850D02*
X4033750Y304850D01*
X3983750Y1654850D02*
X3993827Y1653834D01*
X4003212Y1650921D01*
X4011705Y1646311D01*
X4019105Y1640205D01*
X4025211Y1632805D01*
X4029821Y1624312D01*
X4032734Y1614927D01*
X4033750Y1604850D01*
X2683750Y1654850D02*
X3983750Y1654850D01*
X2029811Y7402302D02*
G75*
G03*
X2029811Y7402302I-125000J0D01*
G01*
X4528305Y222317D02*
G75*
G03*
X4528305Y222317I-125000J0D01*
G01*
X20731250Y1604850D02*
X20732266Y1614927D01*
X20735179Y1624312D01*
X20739789Y1632805D01*
X20745895Y1640205D01*
X20753295Y1646311D01*
X20761788Y1650921D01*
X20771173Y1653834D01*
X20781250Y1654850D01*
X20731250Y304850D02*
X20731250Y1604850D01*
X20781250Y254850D02*
X20771173Y255866D01*
X20761788Y258779D01*
X20753295Y263389D01*
X20745895Y269495D01*
X20739789Y276894D01*
X20735179Y285388D01*
X20732266Y294773D01*
X20731250Y304850D01*
X22081250Y254850D02*
X20781250Y254850D01*
X22131250Y304850D02*
X22130234Y294773D01*
X22127321Y285388D01*
X22122711Y276894D01*
X22116605Y269495D01*
X22109205Y263389D01*
X22100712Y258779D01*
X22091327Y255866D01*
X22081250Y254850D01*
X22131250Y1604850D02*
X22131250Y304850D01*
X22081250Y1654850D02*
X22091327Y1653834D01*
X22100712Y1650921D01*
X22109205Y1646311D01*
X22116605Y1640205D01*
X22122711Y1632805D01*
X22127321Y1624312D01*
X22130234Y1614927D01*
X22131250Y1604850D01*
X20781250Y1654850D02*
X22081250Y1654850D01*
X20484398Y222322D02*
G75*
G03*
X20484398Y222322I-125000J0D01*
G01*
X18588125Y1604850D02*
X18589141Y1614927D01*
X18592054Y1624312D01*
X18596664Y1632805D01*
X18602770Y1640205D01*
X18610170Y1646311D01*
X18618663Y1650921D01*
X18628048Y1653834D01*
X18638125Y1654850D01*
X18588125Y304850D02*
X18588125Y1604850D01*
X18638125Y254850D02*
X18628048Y255866D01*
X18618663Y258779D01*
X18610170Y263389D01*
X18602770Y269495D01*
X18596664Y276894D01*
X18592054Y285388D01*
X18589141Y294773D01*
X18588125Y304850D01*
X19938125Y254850D02*
X18638125Y254850D01*
X19988125Y304850D02*
X19987109Y294773D01*
X19984196Y285388D01*
X19979586Y276894D01*
X19973480Y269495D01*
X19966080Y263389D01*
X19957587Y258779D01*
X19948202Y255866D01*
X19938125Y254850D01*
X19988125Y1604850D02*
X19988125Y304850D01*
X19938125Y1654850D02*
X19948202Y1653834D01*
X19957587Y1650921D01*
X19966080Y1646311D01*
X19973480Y1640205D01*
X19979586Y1632805D01*
X19984196Y1624312D01*
X19987109Y1614927D01*
X19988125Y1604850D01*
X18638125Y1654850D02*
X19938125Y1654850D01*
X0Y2207350D02*
X390Y2191912D01*
X1549Y2176677D01*
X3457Y2161663D01*
X6095Y2146890D01*
X9445Y2132375D01*
X13487Y2118139D01*
X18204Y2104200D01*
X23575Y2090576D01*
X29583Y2077288D01*
X36208Y2064352D01*
X43432Y2051789D01*
X51235Y2039617D01*
X59599Y2027855D01*
X68505Y2016522D01*
X77935Y2005637D01*
X87868Y1995218D01*
X98287Y1985284D01*
X109172Y1975855D01*
X120505Y1966949D01*
X132267Y1958585D01*
X144439Y1950782D01*
X157002Y1943558D01*
X169938Y1936933D01*
X183226Y1930925D01*
X196850Y1925554D01*
X210789Y1920837D01*
X225025Y1916795D01*
X239539Y1913445D01*
X254313Y1910807D01*
X269327Y1908899D01*
X284562Y1907740D01*
X300000Y1907350D01*
X0Y7322350D02*
X0Y2207350D01*
X300000Y7622350D02*
X284562Y7621960D01*
X269327Y7620801D01*
X254313Y7618893D01*
X239539Y7616255D01*
X225025Y7612905D01*
X210789Y7608862D01*
X196850Y7604146D01*
X183226Y7598774D01*
X169938Y7592767D01*
X157002Y7586142D01*
X144439Y7578918D01*
X132267Y7571115D01*
X120505Y7562751D01*
X109172Y7553844D01*
X98287Y7544415D01*
X87868Y7534482D01*
X77935Y7524063D01*
X68505Y7513178D01*
X59599Y7501845D01*
X51235Y7490083D01*
X43432Y7477911D01*
X36208Y7465348D01*
X29583Y7452412D01*
X23575Y7439123D01*
X18204Y7425500D01*
X13487Y7411561D01*
X9445Y7397325D01*
X6095Y7382810D01*
X3457Y7368037D01*
X1549Y7353023D01*
X390Y7337788D01*
X0Y7322350D01*
X24465000Y7622350D02*
X300000Y7622350D01*
X24765000Y7322350D02*
X24764610Y7337788D01*
X24763451Y7353023D01*
X24761543Y7368037D01*
X24758905Y7382810D01*
X24755555Y7397325D01*
X24751512Y7411561D01*
X24746796Y7425500D01*
X24741424Y7439123D01*
X24735417Y7452412D01*
X24728792Y7465348D01*
X24721568Y7477911D01*
X24713765Y7490083D01*
X24705401Y7501845D01*
X24696494Y7513178D01*
X24687065Y7524063D01*
X24677132Y7534482D01*
X24666713Y7544415D01*
X24655828Y7553844D01*
X24644495Y7562751D01*
X24632733Y7571115D01*
X24620561Y7578918D01*
X24607998Y7586142D01*
X24595062Y7592767D01*
X24581773Y7598774D01*
X24568150Y7604146D01*
X24554211Y7608862D01*
X24539975Y7612905D01*
X24525460Y7616255D01*
X24510687Y7618893D01*
X24495673Y7620801D01*
X24480438Y7621960D01*
X24465000Y7622350D01*
X24765000Y2207350D02*
X24765000Y7322350D01*
X24465000Y1907350D02*
X24480438Y1907740D01*
X24495673Y1908899D01*
X24510687Y1910807D01*
X24525460Y1913445D01*
X24539975Y1916795D01*
X24554211Y1920837D01*
X24568150Y1925554D01*
X24581773Y1930925D01*
X24595062Y1936933D01*
X24607998Y1943558D01*
X24620561Y1950782D01*
X24632733Y1958585D01*
X24644495Y1966949D01*
X24655828Y1975855D01*
X24666713Y1985284D01*
X24677132Y1995218D01*
X24687065Y2005637D01*
X24696494Y2016522D01*
X24705401Y2027855D01*
X24713765Y2039617D01*
X24721568Y2051789D01*
X24728792Y2064352D01*
X24735417Y2077288D01*
X24741424Y2090576D01*
X24746796Y2104200D01*
X24751512Y2118139D01*
X24755555Y2132375D01*
X24758905Y2146890D01*
X24761543Y2161663D01*
X24763451Y2176677D01*
X24764610Y2191912D01*
X24765000Y2207350D01*
X22533750Y1907350D02*
X24465000Y1907350D01*
X22383750Y1757350D02*
X22384524Y1772687D01*
X22386797Y1787580D01*
X22390494Y1801955D01*
X22395538Y1815737D01*
X22401854Y1828849D01*
X22409368Y1841216D01*
X22418003Y1852764D01*
X22427684Y1863416D01*
X22438336Y1873097D01*
X22449883Y1881732D01*
X22462251Y1889246D01*
X22475363Y1895562D01*
X22489144Y1900606D01*
X22503520Y1904302D01*
X22518413Y1906575D01*
X22533750Y1907350D01*
X22383750Y302350D02*
X22383750Y1757350D01*
X22083750Y2350D02*
X22099188Y2740D01*
X22114423Y3899D01*
X22129437Y5807D01*
X22144210Y8445D01*
X22158725Y11795D01*
X22172961Y15837D01*
X22186900Y20554D01*
X22200524Y25925D01*
X22213812Y31933D01*
X22226748Y38558D01*
X22239311Y45782D01*
X22251483Y53585D01*
X22263245Y61949D01*
X22274578Y70855D01*
X22285463Y80285D01*
X22295882Y90218D01*
X22305815Y100637D01*
X22315245Y111522D01*
X22324151Y122855D01*
X22332515Y134617D01*
X22340318Y146789D01*
X22347542Y159352D01*
X22354167Y172288D01*
X22360175Y185576D01*
X22365546Y199200D01*
X22370262Y213139D01*
X22374305Y227375D01*
X22377655Y241889D01*
X22380293Y256663D01*
X22382201Y271677D01*
X22383360Y286912D01*
X22383750Y302350D01*
X2681250Y2350D02*
X22083750Y2350D01*
X2381250Y302350D02*
X2381640Y286912D01*
X2382799Y271677D01*
X2384707Y256663D01*
X2387345Y241889D01*
X2390695Y227375D01*
X2394737Y213139D01*
X2399454Y199200D01*
X2404825Y185576D01*
X2410833Y172288D01*
X2417458Y159352D01*
X2424682Y146789D01*
X2432485Y134617D01*
X2440849Y122855D01*
X2449755Y111522D01*
X2459185Y100637D01*
X2469118Y90218D01*
X2479537Y80285D01*
X2490422Y70855D01*
X2501755Y61949D01*
X2513517Y53585D01*
X2525689Y45782D01*
X2538252Y38558D01*
X2551188Y31933D01*
X2564476Y25925D01*
X2578100Y20554D01*
X2592039Y15837D01*
X2606275Y11795D01*
X2620790Y8445D01*
X2635563Y5807D01*
X2650577Y3899D01*
X2665812Y2740D01*
X2681250Y2350D01*
X2381250Y1757350D02*
X2381250Y302350D01*
X2231250Y1907350D02*
X2246587Y1906575D01*
X2261480Y1904302D01*
X2275855Y1900606D01*
X2289637Y1895562D01*
X2302749Y1889246D01*
X2315116Y1881732D01*
X2326664Y1873097D01*
X2337316Y1863416D01*
X2346997Y1852764D01*
X2355632Y1841216D01*
X2363146Y1828849D01*
X2369462Y1815737D01*
X2374506Y1801955D01*
X2378203Y1787580D01*
X2380476Y1772687D01*
X2381250Y1757350D01*
X300000Y1907350D02*
X2231250Y1907350D01*
X17482400Y1751850D02*
X17482400Y1654850D01*
X17432400Y1801850D02*
X17442477Y1800834D01*
X17451862Y1797921D01*
X17460355Y1793311D01*
X17467755Y1787205D01*
X17473861Y1779805D01*
X17478471Y1771312D01*
X17481384Y1761927D01*
X17482400Y1751850D01*
X16857400Y1801850D02*
X17432400Y1801850D01*
X16807400Y1751850D02*
X16808416Y1761927D01*
X16811329Y1771312D01*
X16815939Y1779805D01*
X16822045Y1787205D01*
X16829445Y1793311D01*
X16837938Y1797921D01*
X16847323Y1800834D01*
X16857400Y1801850D01*
X16807400Y1654850D02*
X16807400Y1751850D01*
X16260600Y1654850D02*
X16807400Y1654850D01*
X16210600Y1604850D02*
X16211616Y1614927D01*
X16214529Y1624312D01*
X16219139Y1632805D01*
X16225245Y1640205D01*
X16232644Y1646311D01*
X16241138Y1650921D01*
X16250523Y1653834D01*
X16260600Y1654850D01*
X16210600Y304850D02*
X16210600Y1604850D01*
X16260600Y254850D02*
X16250523Y255866D01*
X16241138Y258779D01*
X16232644Y263389D01*
X16225245Y269495D01*
X16219139Y276894D01*
X16214529Y285388D01*
X16211616Y294773D01*
X16210600Y304850D01*
X17798700Y254850D02*
X16260600Y254850D01*
X17848700Y304850D02*
X17847684Y294773D01*
X17844771Y285388D01*
X17840161Y276894D01*
X17834055Y269495D01*
X17826655Y263389D01*
X17818162Y258779D01*
X17808777Y255866D01*
X17798700Y254850D01*
X17848700Y1604850D02*
X17848700Y304850D01*
X17798700Y1654850D02*
X17808777Y1653834D01*
X17818162Y1650921D01*
X17826655Y1646311D01*
X17834055Y1640205D01*
X17840161Y1632805D01*
X17844771Y1624312D01*
X17847684Y1614927D01*
X17848700Y1604850D01*
X17482400Y1654850D02*
X17798700Y1654850D01*
X7957400Y1751850D02*
X7957400Y1654850D01*
X7907400Y1801850D02*
X7917477Y1800834D01*
X7926862Y1797921D01*
X7935355Y1793311D01*
X7942755Y1787205D01*
X7948861Y1779805D01*
X7953471Y1771312D01*
X7956384Y1761927D01*
X7957400Y1751850D01*
X7332400Y1801850D02*
X7907400Y1801850D01*
X7282400Y1751850D02*
X7283416Y1761927D01*
X7286329Y1771312D01*
X7290939Y1779805D01*
X7297045Y1787205D01*
X7304444Y1793311D01*
X7312938Y1797921D01*
X7322323Y1800834D01*
X7332400Y1801850D01*
X7282400Y1654850D02*
X7282400Y1751850D01*
X6970000Y1654850D02*
X7282400Y1654850D01*
X6920000Y1604850D02*
X6921016Y1614927D01*
X6923929Y1624312D01*
X6928539Y1632805D01*
X6934645Y1640205D01*
X6942044Y1646311D01*
X6950538Y1650921D01*
X6959923Y1653834D01*
X6970000Y1654850D01*
X6920000Y304850D02*
X6920000Y1604850D01*
X6970000Y254850D02*
X6959923Y255866D01*
X6950538Y258779D01*
X6942044Y263389D01*
X6934645Y269495D01*
X6928539Y276894D01*
X6923929Y285388D01*
X6921016Y294773D01*
X6920000Y304850D01*
X8508100Y254850D02*
X6970000Y254850D01*
X8558100Y304850D02*
X8557084Y294773D01*
X8554171Y285388D01*
X8549561Y276894D01*
X8543455Y269495D01*
X8536055Y263389D01*
X8527562Y258779D01*
X8518177Y255866D01*
X8508100Y254850D01*
X8558100Y1604850D02*
X8558100Y304850D01*
X8508100Y1654850D02*
X8518177Y1653834D01*
X8527562Y1650921D01*
X8536055Y1646311D01*
X8543455Y1640205D01*
X8549561Y1632805D01*
X8554171Y1624312D01*
X8557084Y1614927D01*
X8558100Y1604850D01*
X7957400Y1654850D02*
X8508100Y1654850D01*
X23986250Y3559950D02*
X23996327Y3558934D01*
X24005712Y3556021D01*
X24014205Y3551411D01*
X24021605Y3545305D01*
X24027711Y3537905D01*
X24032321Y3529412D01*
X24035234Y3520027D01*
X24036250Y3509950D01*
X22686250Y3559950D02*
X23986250Y3559950D01*
X22636250Y3509950D02*
X22637266Y3520027D01*
X22640179Y3529412D01*
X22644789Y3537905D01*
X22650895Y3545305D01*
X22658294Y3551411D01*
X22666788Y3556021D01*
X22676173Y3558934D01*
X22686250Y3559950D01*
X22636250Y2209950D02*
X22636250Y3509950D01*
X22686250Y2159950D02*
X22676173Y2160966D01*
X22666788Y2163879D01*
X22658294Y2168489D01*
X22650895Y2174595D01*
X22644789Y2181995D01*
X22640179Y2190488D01*
X22637266Y2199873D01*
X22636250Y2209950D01*
X23986250Y2159950D02*
X22686250Y2159950D01*
X24036250Y2209950D02*
X24035234Y2199873D01*
X24032321Y2190488D01*
X24027711Y2181995D01*
X24021605Y2174595D01*
X24014205Y2168489D01*
X24005712Y2163879D01*
X23996327Y2160966D01*
X23986250Y2159950D01*
X24036250Y3509950D02*
X24036250Y2209950D01*
X2078750Y3559951D02*
X2088827Y3558935D01*
X2098212Y3556022D01*
X2106705Y3551412D01*
X2114105Y3545307D01*
X2120211Y3537907D01*
X2124821Y3529413D01*
X2127734Y3520028D01*
X2128750Y3509951D01*
X778750Y3559951D02*
X2078750Y3559951D01*
X728750Y3509951D02*
X729766Y3520028D01*
X732679Y3529413D01*
X737289Y3537907D01*
X743395Y3545307D01*
X750794Y3551412D01*
X759288Y3556022D01*
X768673Y3558935D01*
X778750Y3559951D01*
X728750Y2209951D02*
X728750Y3509951D01*
X778750Y2159951D02*
X768673Y2160967D01*
X759288Y2163881D01*
X750794Y2168491D01*
X743395Y2174596D01*
X737289Y2181996D01*
X732679Y2190489D01*
X729766Y2199875D01*
X728750Y2209951D01*
X2078750Y2159951D02*
X778750Y2159951D01*
X2128750Y2209951D02*
X2127734Y2199875D01*
X2124821Y2190489D01*
X2120211Y2181996D01*
X2114105Y2174596D01*
X2106705Y2168491D01*
X2098212Y2163881D01*
X2088827Y2160967D01*
X2078750Y2159951D01*
X2128750Y3509951D02*
X2128750Y2209951D01*
X12957589Y3967450D02*
X12956573Y3957373D01*
X12953660Y3947988D01*
X12949050Y3939494D01*
X12942944Y3932095D01*
X12935544Y3925989D01*
X12927051Y3921379D01*
X12917666Y3918466D01*
X12907589Y3917450D01*
X12957589Y7467450D02*
X12957589Y3967450D01*
X12907589Y7517450D02*
X12917666Y7516434D01*
X12927051Y7513521D01*
X12935544Y7508911D01*
X12942944Y7502805D01*
X12949050Y7495405D01*
X12953660Y7486912D01*
X12956573Y7477527D01*
X12957589Y7467450D01*
X11857489Y7517450D02*
X12907589Y7517450D01*
X11807489Y7467450D02*
X11808505Y7477527D01*
X11811418Y7486912D01*
X11816028Y7495405D01*
X11822133Y7502805D01*
X11829533Y7508911D01*
X11838027Y7513521D01*
X11847412Y7516434D01*
X11857489Y7517450D01*
X11807489Y3967450D02*
X11807489Y7467450D01*
X11857489Y3917450D02*
X11847412Y3918466D01*
X11838027Y3921379D01*
X11829533Y3925989D01*
X11822133Y3932095D01*
X11816028Y3939494D01*
X11811418Y3947988D01*
X11808505Y3957373D01*
X11807489Y3967450D01*
X12907589Y3917450D02*
X11857489Y3917450D01*
X13281328Y4112310D02*
G75*
G03*
X13281328Y4112310I-98778J0D01*
G01*
X11681339Y4112310D02*
G75*
G03*
X11681339Y4112310I-98789J0D01*
G01*
X13281328Y7322588D02*
G75*
G03*
X13281328Y7322588I-98778J0D01*
G01*
X11681339Y7322588D02*
G75*
G03*
X11681339Y7322588I-98789J0D01*
G01*
X5813816Y6222368D02*
X5812852Y6213156D01*
X5810068Y6204233D01*
X5805631Y6195889D01*
X5799705Y6188414D01*
X5792457Y6182095D01*
X5784051Y6177224D01*
X5774653Y6174089D01*
X5764428Y6172979D01*
X5813816Y6522229D02*
X5813816Y6222368D01*
X5764428Y6571618D02*
X5774653Y6570654D01*
X5784051Y6567870D01*
X5792457Y6563433D01*
X5799705Y6557507D01*
X5805631Y6550259D01*
X5810068Y6541853D01*
X5812852Y6532455D01*
X5813816Y6522229D01*
X5665650Y6571618D02*
X5764428Y6571618D01*
X5616261Y6522229D02*
X5617226Y6532455D01*
X5620009Y6541853D01*
X5624447Y6550259D01*
X5630372Y6557507D01*
X5637621Y6563433D01*
X5646027Y6567870D01*
X5655425Y6570654D01*
X5665650Y6571618D01*
X5616261Y6222368D02*
X5616261Y6522229D01*
X5665650Y6172979D02*
X5655425Y6173944D01*
X5646027Y6176728D01*
X5637621Y6181165D01*
X5630372Y6187091D01*
X5624447Y6194339D01*
X5620009Y6202745D01*
X5617226Y6212143D01*
X5616261Y6222368D01*
X5764428Y6172979D02*
X5665650Y6172979D01*
X18350046Y2209950D02*
X18350046Y3509950D01*
X18400046Y2159950D02*
X18389969Y2160966D01*
X18380584Y2163879D01*
X18372090Y2168489D01*
X18364691Y2174595D01*
X18358585Y2181995D01*
X18353975Y2190488D01*
X18351062Y2199873D01*
X18350046Y2209950D01*
X19700046Y2159950D02*
X18400046Y2159950D01*
X19750046Y2209950D02*
X19749030Y2199873D01*
X19746117Y2190488D01*
X19741507Y2181995D01*
X19735401Y2174595D01*
X19728001Y2168489D01*
X19719508Y2163879D01*
X19710123Y2160966D01*
X19700046Y2159950D01*
X19750046Y3509950D02*
X19750046Y2209950D01*
X19700046Y3559950D02*
X19710123Y3558934D01*
X19719508Y3556021D01*
X19728001Y3551411D01*
X19735401Y3545305D01*
X19741507Y3537905D01*
X19746117Y3529412D01*
X19749030Y3520027D01*
X19750046Y3509950D01*
X18400046Y3559950D02*
X19700046Y3559950D01*
X18350046Y3509950D02*
X18351062Y3520027D01*
X18353975Y3529412D01*
X18358585Y3537905D01*
X18364691Y3545305D01*
X18372090Y3551411D01*
X18380584Y3556021D01*
X18389969Y3558934D01*
X18400046Y3559950D01*
X20305046Y2159950D02*
X20294969Y2160966D01*
X20285584Y2163879D01*
X20277090Y2168489D01*
X20269691Y2174595D01*
X20263585Y2181995D01*
X20258975Y2190488D01*
X20256062Y2199873D01*
X20255046Y2209950D01*
X21605046Y2159950D02*
X20305046Y2159950D01*
X21655046Y2209950D02*
X21654030Y2199873D01*
X21651117Y2190488D01*
X21646507Y2181995D01*
X21640401Y2174595D01*
X21633001Y2168489D01*
X21624508Y2163879D01*
X21615123Y2160966D01*
X21605046Y2159950D01*
X21655046Y3509950D02*
X21655046Y2209950D01*
X21605046Y3559950D02*
X21615123Y3558934D01*
X21624508Y3556021D01*
X21633001Y3551411D01*
X21640401Y3545305D01*
X21646507Y3537905D01*
X21651117Y3529412D01*
X21654030Y3520027D01*
X21655046Y3509950D01*
X20305046Y3559950D02*
X21605046Y3559950D01*
X20255046Y3509950D02*
X20256062Y3520027D01*
X20258975Y3529412D01*
X20263585Y3537905D01*
X20269691Y3545305D01*
X20277090Y3551411D01*
X20285584Y3556021D01*
X20294969Y3558934D01*
X20305046Y3559950D01*
X20255046Y2209950D02*
X20255046Y3509950D01*
X17795046Y2159950D02*
X16495046Y2159950D01*
X17845046Y2209950D02*
X17844030Y2199873D01*
X17841117Y2190488D01*
X17836507Y2181995D01*
X17830401Y2174595D01*
X17823001Y2168489D01*
X17814508Y2163879D01*
X17805123Y2160966D01*
X17795046Y2159950D01*
X17845046Y3509950D02*
X17845046Y2209950D01*
X17795046Y3559950D02*
X17805123Y3558934D01*
X17814508Y3556021D01*
X17823001Y3551411D01*
X17830401Y3545305D01*
X17836507Y3537905D01*
X17841117Y3529412D01*
X17844030Y3520027D01*
X17845046Y3509950D01*
X16495046Y3559950D02*
X17795046Y3559950D01*
X16445046Y3509950D02*
X16446062Y3520027D01*
X16448975Y3529412D01*
X16453585Y3537905D01*
X16459691Y3545305D01*
X16467090Y3551411D01*
X16475584Y3556021D01*
X16484969Y3558934D01*
X16495046Y3559950D01*
X16445046Y2209950D02*
X16445046Y3509950D01*
X16495046Y2159950D02*
X16484969Y2160966D01*
X16475584Y2163879D01*
X16467090Y2168489D01*
X16459691Y2174595D01*
X16453585Y2181995D01*
X16448975Y2190488D01*
X16446062Y2199873D01*
X16445046Y2209950D01*
X14540046Y3509950D02*
X14541062Y3520027D01*
X14543975Y3529412D01*
X14548585Y3537905D01*
X14554691Y3545305D01*
X14562090Y3551411D01*
X14570584Y3556021D01*
X14579969Y3558934D01*
X14590046Y3559950D01*
X14540046Y2209950D02*
X14540046Y3509950D01*
X14590046Y2159950D02*
X14579969Y2160966D01*
X14570584Y2163879D01*
X14562090Y2168489D01*
X14554691Y2174595D01*
X14548585Y2181995D01*
X14543975Y2190488D01*
X14541062Y2199873D01*
X14540046Y2209950D01*
X15890046Y2159950D02*
X14590046Y2159950D01*
X15940046Y2209950D02*
X15939030Y2199873D01*
X15936117Y2190488D01*
X15931507Y2181995D01*
X15925401Y2174595D01*
X15918001Y2168489D01*
X15909508Y2163879D01*
X15900123Y2160966D01*
X15890046Y2159950D01*
X15940046Y3509950D02*
X15940046Y2209950D01*
X15890046Y3559950D02*
X15900123Y3558934D01*
X15909508Y3556021D01*
X15918001Y3551411D01*
X15925401Y3545305D01*
X15931507Y3537905D01*
X15936117Y3529412D01*
X15939030Y3520027D01*
X15940046Y3509950D01*
X14590046Y3559950D02*
X15890046Y3559950D01*
X12685046Y2159950D02*
X12674969Y2160966D01*
X12665584Y2163879D01*
X12657090Y2168489D01*
X12649691Y2174595D01*
X12643585Y2181995D01*
X12638975Y2190488D01*
X12636062Y2199873D01*
X12635046Y2209950D01*
X13985046Y2159950D02*
X12685046Y2159950D01*
X14035046Y2209950D02*
X14034030Y2199873D01*
X14031117Y2190488D01*
X14026507Y2181995D01*
X14020401Y2174595D01*
X14013001Y2168489D01*
X14004508Y2163879D01*
X13995123Y2160966D01*
X13985046Y2159950D01*
X14035046Y3509950D02*
X14035046Y2209950D01*
X13985046Y3559950D02*
X13995123Y3558934D01*
X14004508Y3556021D01*
X14013001Y3551411D01*
X14020401Y3545305D01*
X14026507Y3537905D01*
X14031117Y3529412D01*
X14034030Y3520027D01*
X14035046Y3509950D01*
X12685046Y3559950D02*
X13985046Y3559950D01*
X12635046Y3509950D02*
X12636062Y3520027D01*
X12638975Y3529412D01*
X12643585Y3537905D01*
X12649691Y3545305D01*
X12657090Y3551411D01*
X12665584Y3556021D01*
X12674969Y3558934D01*
X12685046Y3559950D01*
X12635046Y2209950D02*
X12635046Y3509950D01*
X5065046Y3559950D02*
X6365046Y3559950D01*
X5015046Y3509950D02*
X5016062Y3520027D01*
X5018975Y3529412D01*
X5023585Y3537905D01*
X5029691Y3545305D01*
X5037090Y3551411D01*
X5045584Y3556021D01*
X5054969Y3558934D01*
X5065046Y3559950D01*
X5015046Y2209950D02*
X5015046Y3509950D01*
X5065046Y2159950D02*
X5054969Y2160966D01*
X5045584Y2163879D01*
X5037090Y2168489D01*
X5029691Y2174595D01*
X5023585Y2181995D01*
X5018975Y2190488D01*
X5016062Y2199873D01*
X5015046Y2209950D01*
X6365046Y2159950D02*
X5065046Y2159950D01*
X6415046Y2209950D02*
X6414030Y2199873D01*
X6411117Y2190488D01*
X6406507Y2181995D01*
X6400401Y2174595D01*
X6393001Y2168489D01*
X6384508Y2163879D01*
X6375123Y2160966D01*
X6365046Y2159950D01*
X6415046Y3509950D02*
X6415046Y2209950D01*
X6365046Y3559950D02*
X6375123Y3558934D01*
X6384508Y3556021D01*
X6393001Y3551411D01*
X6400401Y3545305D01*
X6406507Y3537905D01*
X6411117Y3529412D01*
X6414030Y3520027D01*
X6415046Y3509950D01*
X8320046Y3509950D02*
X8320046Y2209950D01*
X8270046Y3559950D02*
X8280123Y3558934D01*
X8289508Y3556021D01*
X8298001Y3551411D01*
X8305401Y3545305D01*
X8311507Y3537905D01*
X8316117Y3529412D01*
X8319030Y3520027D01*
X8320046Y3509950D01*
X6970046Y3559950D02*
X8270046Y3559950D01*
X6920046Y3509950D02*
X6921062Y3520027D01*
X6923975Y3529412D01*
X6928585Y3537905D01*
X6934691Y3545305D01*
X6942090Y3551411D01*
X6950584Y3556021D01*
X6959969Y3558934D01*
X6970046Y3559950D01*
X6920046Y2209950D02*
X6920046Y3509950D01*
X6970046Y2159950D02*
X6959969Y2160966D01*
X6950584Y2163879D01*
X6942090Y2168489D01*
X6934691Y2174595D01*
X6928585Y2181995D01*
X6923975Y2190488D01*
X6921062Y2199873D01*
X6920046Y2209950D01*
X8270046Y2159950D02*
X6970046Y2159950D01*
X8320046Y2209950D02*
X8319030Y2199873D01*
X8316117Y2190488D01*
X8311507Y2181995D01*
X8305401Y2174595D01*
X8298001Y2168489D01*
X8289508Y2163879D01*
X8280123Y2160966D01*
X8270046Y2159950D01*
X12080046Y2159950D02*
X10780046Y2159950D01*
X12130046Y2209950D02*
X12129030Y2199873D01*
X12126117Y2190488D01*
X12121507Y2181995D01*
X12115401Y2174595D01*
X12108001Y2168489D01*
X12099508Y2163879D01*
X12090123Y2160966D01*
X12080046Y2159950D01*
X12130046Y3509950D02*
X12130046Y2209950D01*
X12080046Y3559950D02*
X12090123Y3558934D01*
X12099508Y3556021D01*
X12108001Y3551411D01*
X12115401Y3545305D01*
X12121507Y3537905D01*
X12126117Y3529412D01*
X12129030Y3520027D01*
X12130046Y3509950D01*
X10780046Y3559950D02*
X12080046Y3559950D01*
X10730046Y3509950D02*
X10731062Y3520027D01*
X10733975Y3529412D01*
X10738585Y3537905D01*
X10744691Y3545305D01*
X10752090Y3551411D01*
X10760584Y3556021D01*
X10769969Y3558934D01*
X10780046Y3559950D01*
X10730046Y2209950D02*
X10730046Y3509950D01*
X10780046Y2159950D02*
X10769969Y2160966D01*
X10760584Y2163879D01*
X10752090Y2168489D01*
X10744691Y2174595D01*
X10738585Y2181995D01*
X10733975Y2190488D01*
X10731062Y2199873D01*
X10730046Y2209950D01*
X10225046Y3509950D02*
X10225046Y2209950D01*
X10175046Y3559950D02*
X10185123Y3558934D01*
X10194508Y3556021D01*
X10203001Y3551411D01*
X10210401Y3545305D01*
X10216507Y3537905D01*
X10221117Y3529412D01*
X10224030Y3520027D01*
X10225046Y3509950D01*
X8875046Y3559950D02*
X10175046Y3559950D01*
X8825046Y3509950D02*
X8826062Y3520027D01*
X8828975Y3529412D01*
X8833585Y3537905D01*
X8839691Y3545305D01*
X8847090Y3551411D01*
X8855584Y3556021D01*
X8864969Y3558934D01*
X8875046Y3559950D01*
X8825046Y2209950D02*
X8825046Y3509950D01*
X8875046Y2159950D02*
X8864969Y2160966D01*
X8855584Y2163879D01*
X8847090Y2168489D01*
X8839691Y2174595D01*
X8833585Y2181995D01*
X8828975Y2190488D01*
X8826062Y2199873D01*
X8825046Y2209950D01*
X10175046Y2159950D02*
X8875046Y2159950D01*
X10225046Y2209950D02*
X10224030Y2199873D01*
X10221117Y2190488D01*
X10216507Y2181995D01*
X10210401Y2174595D01*
X10203001Y2168489D01*
X10194508Y2163879D01*
X10185123Y2160966D01*
X10175046Y2159950D01*
X21257539Y4064950D02*
X21247462Y4065966D01*
X21238077Y4068879D01*
X21229583Y4073489D01*
X21222184Y4079595D01*
X21216078Y4086994D01*
X21211468Y4095488D01*
X21208555Y4104873D01*
X21207539Y4114950D01*
X22557539Y4064950D02*
X21257539Y4064950D01*
X22607539Y4114950D02*
X22606523Y4104873D01*
X22603610Y4095488D01*
X22599000Y4086994D01*
X22592894Y4079595D01*
X22585494Y4073489D01*
X22577001Y4068879D01*
X22567616Y4065966D01*
X22557539Y4064950D01*
X22607539Y5414950D02*
X22607539Y4114950D01*
X22557539Y5464950D02*
X22567616Y5463934D01*
X22577001Y5461021D01*
X22585494Y5456411D01*
X22592894Y5450305D01*
X22599000Y5442905D01*
X22603610Y5434412D01*
X22606523Y5425027D01*
X22607539Y5414950D01*
X21257539Y5464950D02*
X22557539Y5464950D01*
X21207539Y5414950D02*
X21208555Y5425027D01*
X21211468Y5434412D01*
X21216078Y5442905D01*
X21222184Y5450305D01*
X21229583Y5456411D01*
X21238077Y5461021D01*
X21247462Y5463934D01*
X21257539Y5464950D01*
X21207539Y4114950D02*
X21207539Y5414950D01*
X18797539Y5414950D02*
X18797539Y4114950D01*
X18747539Y5464950D02*
X18757616Y5463934D01*
X18767001Y5461021D01*
X18775494Y5456411D01*
X18782894Y5450305D01*
X18789000Y5442905D01*
X18793610Y5434412D01*
X18796523Y5425027D01*
X18797539Y5414950D01*
X17447539Y5464950D02*
X18747539Y5464950D01*
X17397539Y5414950D02*
X17398555Y5425027D01*
X17401468Y5434412D01*
X17406078Y5442905D01*
X17412184Y5450305D01*
X17419583Y5456411D01*
X17428077Y5461021D01*
X17437462Y5463934D01*
X17447539Y5464950D01*
X17397539Y4114950D02*
X17397539Y5414950D01*
X17447539Y4064950D02*
X17437462Y4065966D01*
X17428077Y4068879D01*
X17419583Y4073489D01*
X17412184Y4079595D01*
X17406078Y4086994D01*
X17401468Y4095488D01*
X17398555Y4104873D01*
X17397539Y4114950D01*
X18747539Y4064950D02*
X17447539Y4064950D01*
X18797539Y4114950D02*
X18796523Y4104873D01*
X18793610Y4095488D01*
X18789000Y4086994D01*
X18782894Y4079595D01*
X18775494Y4073489D01*
X18767001Y4068879D01*
X18757616Y4065966D01*
X18747539Y4064950D01*
X16892539Y4114950D02*
X16891523Y4104873D01*
X16888610Y4095488D01*
X16884000Y4086994D01*
X16877894Y4079595D01*
X16870494Y4073489D01*
X16862001Y4068879D01*
X16852616Y4065966D01*
X16842539Y4064950D01*
X16892539Y5414950D02*
X16892539Y4114950D01*
X16842539Y5464950D02*
X16852616Y5463934D01*
X16862001Y5461021D01*
X16870494Y5456411D01*
X16877894Y5450305D01*
X16884000Y5442905D01*
X16888610Y5434412D01*
X16891523Y5425027D01*
X16892539Y5414950D01*
X15542539Y5464950D02*
X16842539Y5464950D01*
X15492539Y5414950D02*
X15493555Y5425027D01*
X15496468Y5434412D01*
X15501078Y5442905D01*
X15507183Y5450305D01*
X15514583Y5456411D01*
X15523077Y5461021D01*
X15532462Y5463934D01*
X15542539Y5464950D01*
X15492539Y4114950D02*
X15492539Y5414950D01*
X15542539Y4064950D02*
X15532462Y4065966D01*
X15523077Y4068879D01*
X15514583Y4073489D01*
X15507183Y4079595D01*
X15501078Y4086994D01*
X15496468Y4095488D01*
X15493555Y4104873D01*
X15492539Y4114950D01*
X16842539Y4064950D02*
X15542539Y4064950D01*
X24462539Y4064950D02*
X23162539Y4064950D01*
X24512539Y4114950D02*
X24511523Y4104873D01*
X24508610Y4095488D01*
X24504000Y4086994D01*
X24497894Y4079595D01*
X24490494Y4073489D01*
X24482001Y4068879D01*
X24472616Y4065966D01*
X24462539Y4064950D01*
X24512539Y5414950D02*
X24512539Y4114950D01*
X24462539Y5464950D02*
X24472616Y5463934D01*
X24482001Y5461021D01*
X24490494Y5456411D01*
X24497894Y5450305D01*
X24504000Y5442905D01*
X24508610Y5434412D01*
X24511523Y5425027D01*
X24512539Y5414950D01*
X23162539Y5464950D02*
X24462539Y5464950D01*
X23112539Y5414950D02*
X23113555Y5425027D01*
X23116468Y5434412D01*
X23121078Y5442905D01*
X23127183Y5450305D01*
X23134583Y5456411D01*
X23143077Y5461021D01*
X23152462Y5463934D01*
X23162539Y5464950D01*
X23112539Y4114950D02*
X23112539Y5414950D01*
X23162539Y4064950D02*
X23152462Y4065966D01*
X23143077Y4068879D01*
X23134583Y4073489D01*
X23127183Y4079595D01*
X23121078Y4086994D01*
X23116468Y4095488D01*
X23113555Y4104873D01*
X23112539Y4114950D01*
X20652539Y5464950D02*
X20662616Y5463934D01*
X20672001Y5461021D01*
X20680494Y5456411D01*
X20687894Y5450305D01*
X20694000Y5442905D01*
X20698610Y5434412D01*
X20701523Y5425027D01*
X20702539Y5414950D01*
X19352539Y5464950D02*
X20652539Y5464950D01*
X19302539Y5414950D02*
X19303555Y5425027D01*
X19306468Y5434412D01*
X19311078Y5442905D01*
X19317184Y5450305D01*
X19324583Y5456411D01*
X19333077Y5461021D01*
X19342462Y5463934D01*
X19352539Y5464950D01*
X19302539Y4114950D02*
X19302539Y5414950D01*
X19352539Y4064950D02*
X19342462Y4065966D01*
X19333077Y4068879D01*
X19324583Y4073489D01*
X19317184Y4079595D01*
X19311078Y4086994D01*
X19306468Y4095488D01*
X19303555Y4104873D01*
X19302539Y4114950D01*
X20652539Y4064950D02*
X19352539Y4064950D01*
X20702539Y4114950D02*
X20701523Y4104873D01*
X20698610Y4095488D01*
X20694000Y4086994D01*
X20687894Y4079595D01*
X20680494Y4073489D01*
X20672001Y4068879D01*
X20662616Y4065966D01*
X20652539Y4064950D01*
X20702539Y5414950D02*
X20702539Y4114950D01*
X4460046Y3559950D02*
X4470123Y3558934D01*
X4479508Y3556021D01*
X4488001Y3551411D01*
X4495401Y3545305D01*
X4501507Y3537905D01*
X4506117Y3529412D01*
X4509030Y3520027D01*
X4510046Y3509950D01*
X3160046Y3559950D02*
X4460046Y3559950D01*
X3110046Y3509950D02*
X3111062Y3520027D01*
X3113975Y3529412D01*
X3118585Y3537905D01*
X3124691Y3545305D01*
X3132090Y3551411D01*
X3140584Y3556021D01*
X3149969Y3558934D01*
X3160046Y3559950D01*
X3110046Y2209950D02*
X3110046Y3509950D01*
X3160046Y2159950D02*
X3149969Y2160966D01*
X3140584Y2163879D01*
X3132090Y2168489D01*
X3124691Y2174595D01*
X3118585Y2181995D01*
X3113975Y2190488D01*
X3111062Y2199873D01*
X3110046Y2209950D01*
X4460046Y2159950D02*
X3160046Y2159950D01*
X4510046Y2209950D02*
X4509030Y2199873D01*
X4506117Y2190488D01*
X4501507Y2181995D01*
X4495401Y2174595D01*
X4488001Y2168489D01*
X4479508Y2163879D01*
X4470123Y2160966D01*
X4460046Y2159950D01*
X4510046Y3509950D02*
X4510046Y2209950D01*
X13587539Y4114950D02*
X13587539Y5414950D01*
X13637539Y4064950D02*
X13627462Y4065966D01*
X13618077Y4068879D01*
X13609583Y4073489D01*
X13602183Y4079595D01*
X13596078Y4086994D01*
X13591468Y4095488D01*
X13588555Y4104873D01*
X13587539Y4114950D01*
X14937539Y4064950D02*
X13637539Y4064950D01*
X14987539Y4114950D02*
X14986523Y4104873D01*
X14983610Y4095488D01*
X14979000Y4086994D01*
X14972894Y4079595D01*
X14965494Y4073489D01*
X14957001Y4068879D01*
X14947616Y4065966D01*
X14937539Y4064950D01*
X14987539Y5414950D02*
X14987539Y4114950D01*
X14937539Y5464950D02*
X14947616Y5463934D01*
X14957001Y5461021D01*
X14965494Y5456411D01*
X14972894Y5450305D01*
X14979000Y5442905D01*
X14983610Y5434412D01*
X14986523Y5425027D01*
X14987539Y5414950D01*
X13637539Y5464950D02*
X14937539Y5464950D01*
X13587539Y5414950D02*
X13588555Y5425027D01*
X13591468Y5434412D01*
X13596078Y5442905D01*
X13602183Y5450305D01*
X13609583Y5456411D01*
X13618077Y5461021D01*
X13627462Y5463934D01*
X13637539Y5464950D01*
X7367539Y6019950D02*
X7366523Y6009873D01*
X7363610Y6000488D01*
X7359000Y5991994D01*
X7352894Y5984595D01*
X7345494Y5978489D01*
X7337001Y5973879D01*
X7327616Y5970966D01*
X7317539Y5969950D01*
X7367539Y7319950D02*
X7367539Y6019950D01*
X7317539Y7369950D02*
X7327616Y7368934D01*
X7337001Y7366021D01*
X7345494Y7361411D01*
X7352894Y7355305D01*
X7359000Y7347905D01*
X7363610Y7339412D01*
X7366523Y7330027D01*
X7367539Y7319950D01*
X6017539Y7369950D02*
X7317539Y7369950D01*
X5967539Y7319950D02*
X5968555Y7330027D01*
X5971468Y7339412D01*
X5976078Y7347905D01*
X5982183Y7355305D01*
X5989583Y7361411D01*
X5998077Y7366021D01*
X6007462Y7368934D01*
X6017539Y7369950D01*
X5967539Y6019950D02*
X5967539Y7319950D01*
X6017539Y5969950D02*
X6007462Y5970966D01*
X5998077Y5973879D01*
X5989583Y5978489D01*
X5982183Y5984595D01*
X5976078Y5991994D01*
X5971468Y6000488D01*
X5968555Y6009873D01*
X5967539Y6019950D01*
X7317539Y5969950D02*
X6017539Y5969950D01*
X5412539Y5969950D02*
X4112539Y5969950D01*
X5462539Y6019950D02*
X5461523Y6009873D01*
X5458610Y6000488D01*
X5454000Y5991994D01*
X5447894Y5984595D01*
X5440494Y5978489D01*
X5432001Y5973879D01*
X5422616Y5970966D01*
X5412539Y5969950D01*
X5462539Y7319950D02*
X5462539Y6019950D01*
X5412539Y7369950D02*
X5422616Y7368934D01*
X5432001Y7366021D01*
X5440494Y7361411D01*
X5447894Y7355305D01*
X5454000Y7347905D01*
X5458610Y7339412D01*
X5461523Y7330027D01*
X5462539Y7319950D01*
X4112539Y7369950D02*
X5412539Y7369950D01*
X4062539Y7319950D02*
X4063555Y7330027D01*
X4066468Y7339412D01*
X4071078Y7347905D01*
X4077183Y7355305D01*
X4084583Y7361411D01*
X4093077Y7366021D01*
X4102462Y7368934D01*
X4112539Y7369950D01*
X4062539Y6019950D02*
X4062539Y7319950D01*
X4112539Y5969950D02*
X4102462Y5970966D01*
X4093077Y5973879D01*
X4084583Y5978489D01*
X4077183Y5984595D01*
X4071078Y5991994D01*
X4066468Y6000488D01*
X4063555Y6009873D01*
X4062539Y6019950D01*
X3507539Y5969950D02*
X2207539Y5969950D01*
X3557539Y6019950D02*
X3556523Y6009873D01*
X3553610Y6000488D01*
X3549000Y5991994D01*
X3542894Y5984595D01*
X3535494Y5978489D01*
X3527001Y5973879D01*
X3517616Y5970966D01*
X3507539Y5969950D01*
X3557539Y7319950D02*
X3557539Y6019950D01*
X3507539Y7369950D02*
X3517616Y7368934D01*
X3527001Y7366021D01*
X3535494Y7361411D01*
X3542894Y7355305D01*
X3549000Y7347905D01*
X3553610Y7339412D01*
X3556523Y7330027D01*
X3557539Y7319950D01*
X2207539Y7369950D02*
X3507539Y7369950D01*
X2157539Y7319950D02*
X2158555Y7330027D01*
X2161468Y7339412D01*
X2166078Y7347905D01*
X2172184Y7355305D01*
X2179583Y7361411D01*
X2188077Y7366021D01*
X2197462Y7368934D01*
X2207539Y7369950D01*
X2157539Y6019950D02*
X2157539Y7319950D01*
X2207539Y5969950D02*
X2197462Y5970966D01*
X2188077Y5973879D01*
X2179583Y5978489D01*
X2172184Y5984595D01*
X2166078Y5991994D01*
X2161468Y6000488D01*
X2158555Y6009873D01*
X2157539Y6019950D01*
X1652539Y7319950D02*
X1652539Y6019950D01*
X1602539Y7369950D02*
X1612616Y7368934D01*
X1622001Y7366021D01*
X1630494Y7361411D01*
X1637894Y7355305D01*
X1644000Y7347905D01*
X1648610Y7339412D01*
X1651523Y7330027D01*
X1652539Y7319950D01*
X302539Y7369950D02*
X1602539Y7369950D01*
X252539Y7319950D02*
X253555Y7330027D01*
X256468Y7339412D01*
X261078Y7347905D01*
X267184Y7355305D01*
X274583Y7361411D01*
X283077Y7366021D01*
X292462Y7368934D01*
X302539Y7369950D01*
X252539Y6019950D02*
X252539Y7319950D01*
X302539Y5969950D02*
X292462Y5970966D01*
X283077Y5973879D01*
X274583Y5978489D01*
X267184Y5984595D01*
X261078Y5991994D01*
X256468Y6000488D01*
X253555Y6009873D01*
X252539Y6019950D01*
X1602539Y5969950D02*
X302539Y5969950D01*
X1652539Y6019950D02*
X1651523Y6009873D01*
X1648610Y6000488D01*
X1644000Y5991994D01*
X1637894Y5984595D01*
X1630494Y5978489D01*
X1622001Y5973879D01*
X1612616Y5970966D01*
X1602539Y5969950D01*
X21257539Y5969950D02*
X21247462Y5970966D01*
X21238077Y5973879D01*
X21229583Y5978489D01*
X21222184Y5984595D01*
X21216078Y5991994D01*
X21211468Y6000488D01*
X21208555Y6009873D01*
X21207539Y6019950D01*
X22557539Y5969950D02*
X21257539Y5969950D01*
X22607539Y6019950D02*
X22606523Y6009873D01*
X22603610Y6000488D01*
X22599000Y5991994D01*
X22592894Y5984595D01*
X22585494Y5978489D01*
X22577001Y5973879D01*
X22567616Y5970966D01*
X22557539Y5969950D01*
X22607539Y7319950D02*
X22607539Y6019950D01*
X22557539Y7369950D02*
X22567616Y7368934D01*
X22577001Y7366021D01*
X22585494Y7361411D01*
X22592894Y7355305D01*
X22599000Y7347905D01*
X22603610Y7339412D01*
X22606523Y7330027D01*
X22607539Y7319950D01*
X21257539Y7369950D02*
X22557539Y7369950D01*
X21207539Y7319950D02*
X21208555Y7330027D01*
X21211468Y7339412D01*
X21216078Y7347905D01*
X21222184Y7355305D01*
X21229583Y7361411D01*
X21238077Y7366021D01*
X21247462Y7368934D01*
X21257539Y7369950D01*
X21207539Y6019950D02*
X21207539Y7319950D01*
X2207539Y5464950D02*
X3507539Y5464950D01*
X2157539Y5414950D02*
X2158555Y5425027D01*
X2161468Y5434412D01*
X2166078Y5442905D01*
X2172184Y5450305D01*
X2179583Y5456411D01*
X2188077Y5461021D01*
X2197462Y5463934D01*
X2207539Y5464950D01*
X2157539Y4114950D02*
X2157539Y5414950D01*
X2207539Y4064950D02*
X2197462Y4065966D01*
X2188077Y4068879D01*
X2179583Y4073489D01*
X2172184Y4079595D01*
X2166078Y4086994D01*
X2161468Y4095488D01*
X2158555Y4104873D01*
X2157539Y4114950D01*
X3507539Y4064950D02*
X2207539Y4064950D01*
X3557539Y4114950D02*
X3556523Y4104873D01*
X3553610Y4095488D01*
X3549000Y4086994D01*
X3542894Y4079595D01*
X3535494Y4073489D01*
X3527001Y4068879D01*
X3517616Y4065966D01*
X3507539Y4064950D01*
X3557539Y5414950D02*
X3557539Y4114950D01*
X3507539Y5464950D02*
X3517616Y5463934D01*
X3527001Y5461021D01*
X3535494Y5456411D01*
X3542894Y5450305D01*
X3549000Y5442905D01*
X3553610Y5434412D01*
X3556523Y5425027D01*
X3557539Y5414950D01*
X23112539Y6019950D02*
X23112539Y7319950D01*
X23162539Y5969950D02*
X23152462Y5970966D01*
X23143077Y5973879D01*
X23134583Y5978489D01*
X23127183Y5984595D01*
X23121078Y5991994D01*
X23116468Y6000488D01*
X23113555Y6009873D01*
X23112539Y6019950D01*
X24462539Y5969950D02*
X23162539Y5969950D01*
X24512539Y6019950D02*
X24511523Y6009873D01*
X24508610Y6000488D01*
X24504000Y5991994D01*
X24497894Y5984595D01*
X24490494Y5978489D01*
X24482001Y5973879D01*
X24472616Y5970966D01*
X24462539Y5969950D01*
X24512539Y7319950D02*
X24512539Y6019950D01*
X24462539Y7369950D02*
X24472616Y7368934D01*
X24482001Y7366021D01*
X24490494Y7361411D01*
X24497894Y7355305D01*
X24504000Y7347905D01*
X24508610Y7339412D01*
X24511523Y7330027D01*
X24512539Y7319950D01*
X23162539Y7369950D02*
X24462539Y7369950D01*
X23112539Y7319950D02*
X23113555Y7330027D01*
X23116468Y7339412D01*
X23121078Y7347905D01*
X23127183Y7355305D01*
X23134583Y7361411D01*
X23143077Y7366021D01*
X23152462Y7368934D01*
X23162539Y7369950D01*
X1602539Y4064950D02*
X302539Y4064950D01*
X1652539Y4114950D02*
X1651523Y4104873D01*
X1648610Y4095488D01*
X1644000Y4086994D01*
X1637894Y4079595D01*
X1630494Y4073489D01*
X1622001Y4068879D01*
X1612616Y4065966D01*
X1602539Y4064950D01*
X1652539Y5414950D02*
X1652539Y4114950D01*
X1602539Y5464950D02*
X1612616Y5463934D01*
X1622001Y5461021D01*
X1630494Y5456411D01*
X1637894Y5450305D01*
X1644000Y5442905D01*
X1648610Y5434412D01*
X1651523Y5425027D01*
X1652539Y5414950D01*
X302539Y5464950D02*
X1602539Y5464950D01*
X252539Y5414950D02*
X253555Y5425027D01*
X256468Y5434412D01*
X261078Y5442905D01*
X267184Y5450305D01*
X274583Y5456411D01*
X283077Y5461021D01*
X292462Y5463934D01*
X302539Y5464950D01*
X252539Y4114950D02*
X252539Y5414950D01*
X302539Y4064950D02*
X292462Y4065966D01*
X283077Y4068879D01*
X274583Y4073489D01*
X267184Y4079595D01*
X261078Y4086994D01*
X256468Y4095488D01*
X253555Y4104873D01*
X252539Y4114950D01*
X5967539Y4114950D02*
X5967539Y5414950D01*
X6017539Y4064950D02*
X6007462Y4065966D01*
X5998077Y4068879D01*
X5989583Y4073489D01*
X5982183Y4079595D01*
X5976078Y4086994D01*
X5971468Y4095488D01*
X5968555Y4104873D01*
X5967539Y4114950D01*
X7317539Y4064950D02*
X6017539Y4064950D01*
X7367539Y4114950D02*
X7366523Y4104873D01*
X7363610Y4095488D01*
X7359000Y4086994D01*
X7352894Y4079595D01*
X7345494Y4073489D01*
X7337001Y4068879D01*
X7327616Y4065966D01*
X7317539Y4064950D01*
X7367539Y5414950D02*
X7367539Y4114950D01*
X7317539Y5464950D02*
X7327616Y5463934D01*
X7337001Y5461021D01*
X7345494Y5456411D01*
X7352894Y5450305D01*
X7359000Y5442905D01*
X7363610Y5434412D01*
X7366523Y5425027D01*
X7367539Y5414950D01*
X6017539Y5464950D02*
X7317539Y5464950D01*
X5967539Y5414950D02*
X5968555Y5425027D01*
X5971468Y5434412D01*
X5976078Y5442905D01*
X5982183Y5450305D01*
X5989583Y5456411D01*
X5998077Y5461021D01*
X6007462Y5463934D01*
X6017539Y5464950D01*
X9777539Y4114950D02*
X9777539Y5414950D01*
X9827539Y4064950D02*
X9817462Y4065966D01*
X9808077Y4068879D01*
X9799583Y4073489D01*
X9792184Y4079595D01*
X9786078Y4086994D01*
X9781468Y4095488D01*
X9778555Y4104873D01*
X9777539Y4114950D01*
X11127539Y4064950D02*
X9827539Y4064950D01*
X11177539Y4114950D02*
X11176523Y4104873D01*
X11173610Y4095488D01*
X11169000Y4086994D01*
X11162894Y4079595D01*
X11155494Y4073489D01*
X11147001Y4068879D01*
X11137616Y4065966D01*
X11127539Y4064950D01*
X11177539Y5414950D02*
X11177539Y4114950D01*
X11127539Y5464950D02*
X11137616Y5463934D01*
X11147001Y5461021D01*
X11155494Y5456411D01*
X11162894Y5450305D01*
X11169000Y5442905D01*
X11173610Y5434412D01*
X11176523Y5425027D01*
X11177539Y5414950D01*
X9827539Y5464950D02*
X11127539Y5464950D01*
X9777539Y5414950D02*
X9778555Y5425027D01*
X9781468Y5434412D01*
X9786078Y5442905D01*
X9792184Y5450305D01*
X9799583Y5456411D01*
X9808077Y5461021D01*
X9817462Y5463934D01*
X9827539Y5464950D01*
X9272539Y5414950D02*
X9272539Y4114950D01*
X9222539Y5464950D02*
X9232616Y5463934D01*
X9242001Y5461021D01*
X9250494Y5456411D01*
X9257894Y5450305D01*
X9264000Y5442905D01*
X9268610Y5434412D01*
X9271523Y5425027D01*
X9272539Y5414950D01*
X7922539Y5464950D02*
X9222539Y5464950D01*
X7872539Y5414950D02*
X7873555Y5425027D01*
X7876468Y5434412D01*
X7881078Y5442905D01*
X7887183Y5450305D01*
X7894583Y5456411D01*
X7903077Y5461021D01*
X7912462Y5463934D01*
X7922539Y5464950D01*
X7872539Y4114950D02*
X7872539Y5414950D01*
X7922539Y4064950D02*
X7912462Y4065966D01*
X7903077Y4068879D01*
X7894583Y4073489D01*
X7887183Y4079595D01*
X7881078Y4086994D01*
X7876468Y4095488D01*
X7873555Y4104873D01*
X7872539Y4114950D01*
X9222539Y4064950D02*
X7922539Y4064950D01*
X9272539Y4114950D02*
X9271523Y4104873D01*
X9268610Y4095488D01*
X9264000Y4086994D01*
X9257894Y4079595D01*
X9250494Y4073489D01*
X9242001Y4068879D01*
X9232616Y4065966D01*
X9222539Y4064950D01*
X4062539Y4114950D02*
X4062539Y5414950D01*
X4112539Y4064950D02*
X4102462Y4065966D01*
X4093077Y4068879D01*
X4084583Y4073489D01*
X4077183Y4079595D01*
X4071078Y4086994D01*
X4066468Y4095488D01*
X4063555Y4104873D01*
X4062539Y4114950D01*
X5412539Y4064950D02*
X4112539Y4064950D01*
X5462539Y4114950D02*
X5461523Y4104873D01*
X5458610Y4095488D01*
X5454000Y4086994D01*
X5447894Y4079595D01*
X5440494Y4073489D01*
X5432001Y4068879D01*
X5422616Y4065966D01*
X5412539Y4064950D01*
X5462539Y5414950D02*
X5462539Y4114950D01*
X5412539Y5464950D02*
X5422616Y5463934D01*
X5432001Y5461021D01*
X5440494Y5456411D01*
X5447894Y5450305D01*
X5454000Y5442905D01*
X5458610Y5434412D01*
X5461523Y5425027D01*
X5462539Y5414950D01*
X4112539Y5464950D02*
X5412539Y5464950D01*
X4062539Y5414950D02*
X4063555Y5425027D01*
X4066468Y5434412D01*
X4071078Y5442905D01*
X4077183Y5450305D01*
X4084583Y5456411D01*
X4093077Y5461021D01*
X4102462Y5463934D01*
X4112539Y5464950D01*
X14987539Y6019950D02*
X14986523Y6009873D01*
X14983610Y6000488D01*
X14979000Y5991994D01*
X14972894Y5984595D01*
X14965494Y5978489D01*
X14957001Y5973879D01*
X14947616Y5970966D01*
X14937539Y5969950D01*
X14987539Y7319950D02*
X14987539Y6019950D01*
X14937539Y7369950D02*
X14947616Y7368934D01*
X14957001Y7366021D01*
X14965494Y7361411D01*
X14972894Y7355305D01*
X14979000Y7347905D01*
X14983610Y7339412D01*
X14986523Y7330027D01*
X14987539Y7319950D01*
X13637539Y7369950D02*
X14937539Y7369950D01*
X13587539Y7319950D02*
X13588555Y7330027D01*
X13591468Y7339412D01*
X13596078Y7347905D01*
X13602183Y7355305D01*
X13609583Y7361411D01*
X13618077Y7366021D01*
X13627462Y7368934D01*
X13637539Y7369950D01*
X13587539Y6019950D02*
X13587539Y7319950D01*
X13637539Y5969950D02*
X13627462Y5970966D01*
X13618077Y5973879D01*
X13609583Y5978489D01*
X13602183Y5984595D01*
X13596078Y5991994D01*
X13591468Y6000488D01*
X13588555Y6009873D01*
X13587539Y6019950D01*
X14937539Y5969950D02*
X13637539Y5969950D01*
X19352539Y7369950D02*
X20652539Y7369950D01*
X19302539Y7319950D02*
X19303555Y7330027D01*
X19306468Y7339412D01*
X19311078Y7347905D01*
X19317184Y7355305D01*
X19324583Y7361411D01*
X19333077Y7366021D01*
X19342462Y7368934D01*
X19352539Y7369950D01*
X19302539Y6019950D02*
X19302539Y7319950D01*
X19352539Y5969950D02*
X19342462Y5970966D01*
X19333077Y5973879D01*
X19324583Y5978489D01*
X19317184Y5984595D01*
X19311078Y5991994D01*
X19306468Y6000488D01*
X19303555Y6009873D01*
X19302539Y6019950D01*
X20652539Y5969950D02*
X19352539Y5969950D01*
X20702539Y6019950D02*
X20701523Y6009873D01*
X20698610Y6000488D01*
X20694000Y5991994D01*
X20687894Y5984595D01*
X20680494Y5978489D01*
X20672001Y5973879D01*
X20662616Y5970966D01*
X20652539Y5969950D01*
X20702539Y7319950D02*
X20702539Y6019950D01*
X20652539Y7369950D02*
X20662616Y7368934D01*
X20672001Y7366021D01*
X20680494Y7361411D01*
X20687894Y7355305D01*
X20694000Y7347905D01*
X20698610Y7339412D01*
X20701523Y7330027D01*
X20702539Y7319950D01*
X17447539Y7369950D02*
X18747539Y7369950D01*
X17397539Y7319950D02*
X17398555Y7330027D01*
X17401468Y7339412D01*
X17406078Y7347905D01*
X17412184Y7355305D01*
X17419583Y7361411D01*
X17428077Y7366021D01*
X17437462Y7368934D01*
X17447539Y7369950D01*
X17397539Y6019950D02*
X17397539Y7319950D01*
X17447539Y5969950D02*
X17437462Y5970966D01*
X17428077Y5973879D01*
X17419583Y5978489D01*
X17412184Y5984595D01*
X17406078Y5991994D01*
X17401468Y6000488D01*
X17398555Y6009873D01*
X17397539Y6019950D01*
X18747539Y5969950D02*
X17447539Y5969950D01*
X18797539Y6019950D02*
X18796523Y6009873D01*
X18793610Y6000488D01*
X18789000Y5991994D01*
X18782894Y5984595D01*
X18775494Y5978489D01*
X18767001Y5973879D01*
X18757616Y5970966D01*
X18747539Y5969950D01*
X18797539Y7319950D02*
X18797539Y6019950D01*
X18747539Y7369950D02*
X18757616Y7368934D01*
X18767001Y7366021D01*
X18775494Y7361411D01*
X18782894Y7355305D01*
X18789000Y7347905D01*
X18793610Y7339412D01*
X18796523Y7330027D01*
X18797539Y7319950D01*
X15492539Y6019950D02*
X15492539Y7319950D01*
X15542539Y5969950D02*
X15532462Y5970966D01*
X15523077Y5973879D01*
X15514583Y5978489D01*
X15507183Y5984595D01*
X15501078Y5991994D01*
X15496468Y6000488D01*
X15493555Y6009873D01*
X15492539Y6019950D01*
X16842539Y5969950D02*
X15542539Y5969950D01*
X16892539Y6019950D02*
X16891523Y6009873D01*
X16888610Y6000488D01*
X16884000Y5991994D01*
X16877894Y5984595D01*
X16870494Y5978489D01*
X16862001Y5973879D01*
X16852616Y5970966D01*
X16842539Y5969950D01*
X16892539Y7319950D02*
X16892539Y6019950D01*
X16842539Y7369950D02*
X16852616Y7368934D01*
X16862001Y7366021D01*
X16870494Y7361411D01*
X16877894Y7355305D01*
X16884000Y7347905D01*
X16888610Y7339412D01*
X16891523Y7330027D01*
X16892539Y7319950D01*
X15542539Y7369950D02*
X16842539Y7369950D01*
X15492539Y7319950D02*
X15493555Y7330027D01*
X15496468Y7339412D01*
X15501078Y7347905D01*
X15507183Y7355305D01*
X15514583Y7361411D01*
X15523077Y7366021D01*
X15532462Y7368934D01*
X15542539Y7369950D01*
X11127539Y5969950D02*
X9827539Y5969950D01*
X11177539Y6019950D02*
X11176523Y6009873D01*
X11173610Y6000488D01*
X11169000Y5991994D01*
X11162894Y5984595D01*
X11155494Y5978489D01*
X11147001Y5973879D01*
X11137616Y5970966D01*
X11127539Y5969950D01*
X11177539Y7319950D02*
X11177539Y6019950D01*
X11127539Y7369950D02*
X11137616Y7368934D01*
X11147001Y7366021D01*
X11155494Y7361411D01*
X11162894Y7355305D01*
X11169000Y7347905D01*
X11173610Y7339412D01*
X11176523Y7330027D01*
X11177539Y7319950D01*
X9827539Y7369950D02*
X11127539Y7369950D01*
X9777539Y7319950D02*
X9778555Y7330027D01*
X9781468Y7339412D01*
X9786078Y7347905D01*
X9792184Y7355305D01*
X9799583Y7361411D01*
X9808077Y7366021D01*
X9817462Y7368934D01*
X9827539Y7369950D01*
X9777539Y6019950D02*
X9777539Y7319950D01*
X9827539Y5969950D02*
X9817462Y5970966D01*
X9808077Y5973879D01*
X9799583Y5978489D01*
X9792184Y5984595D01*
X9786078Y5991994D01*
X9781468Y6000488D01*
X9778555Y6009873D01*
X9777539Y6019950D01*
X7872539Y6019950D02*
X7872539Y7319950D01*
X7922539Y5969950D02*
X7912462Y5970966D01*
X7903077Y5973879D01*
X7894583Y5978489D01*
X7887183Y5984595D01*
X7881078Y5991994D01*
X7876468Y6000488D01*
X7873555Y6009873D01*
X7872539Y6019950D01*
X9222539Y5969950D02*
X7922539Y5969950D01*
X9272539Y6019950D02*
X9271523Y6009873D01*
X9268610Y6000488D01*
X9264000Y5991994D01*
X9257894Y5984595D01*
X9250494Y5978489D01*
X9242001Y5973879D01*
X9232616Y5970966D01*
X9222539Y5969950D01*
X9272539Y7319950D02*
X9272539Y6019950D01*
X9222539Y7369950D02*
X9232616Y7368934D01*
X9242001Y7366021D01*
X9250494Y7361411D01*
X9257894Y7355305D01*
X9264000Y7347905D01*
X9268610Y7339412D01*
X9271523Y7330027D01*
X9272539Y7319950D01*
X7922539Y7369950D02*
X9222539Y7369950D01*
X7872539Y7319950D02*
X7873555Y7330027D01*
X7876468Y7339412D01*
X7881078Y7347905D01*
X7887183Y7355305D01*
X7894583Y7361411D01*
X7903077Y7366021D01*
X7912462Y7368934D01*
X7922539Y7369950D01*
D11*
X256277Y-313634D02*
X256277Y-113634D01*
X256277Y-113634D02*
X303896Y-113634D01*
X303896Y-113634D02*
X332467Y-123158D01*
X332467Y-123158D02*
X351515Y-142205D01*
X351515Y-142205D02*
X361039Y-161253D01*
X361039Y-161253D02*
X370562Y-199348D01*
X370562Y-199348D02*
X370562Y-227920D01*
X370562Y-227920D02*
X361039Y-266015D01*
X361039Y-266015D02*
X351515Y-285062D01*
X351515Y-285062D02*
X332467Y-304110D01*
X332467Y-304110D02*
X303896Y-313634D01*
X303896Y-313634D02*
X256277Y-313634D01*
X456277Y-313634D02*
X456277Y-180300D01*
X456277Y-218396D02*
X465801Y-199348D01*
X465801Y-199348D02*
X475324Y-189824D01*
X475324Y-189824D02*
X494372Y-180300D01*
X494372Y-180300D02*
X513420Y-180300D01*
X580086Y-313634D02*
X580086Y-180300D01*
X580086Y-113634D02*
X570563Y-123158D01*
X570563Y-123158D02*
X580086Y-132682D01*
X580086Y-132682D02*
X589610Y-123158D01*
X589610Y-123158D02*
X580086Y-113634D01*
X580086Y-113634D02*
X580086Y-132682D01*
X703896Y-313634D02*
X684848Y-304110D01*
X684848Y-304110D02*
X675324Y-285062D01*
X675324Y-285062D02*
X675324Y-113634D01*
X808658Y-313634D02*
X789610Y-304110D01*
X789610Y-304110D02*
X780086Y-285062D01*
X780086Y-285062D02*
X780086Y-113634D01*
X1037229Y-313634D02*
X1037229Y-113634D01*
X1037229Y-113634D02*
X1103896Y-256491D01*
X1103896Y-256491D02*
X1170563Y-113634D01*
X1170563Y-113634D02*
X1170563Y-313634D01*
X1351515Y-313634D02*
X1351515Y-208872D01*
X1351515Y-208872D02*
X1341991Y-189824D01*
X1341991Y-189824D02*
X1322944Y-180300D01*
X1322944Y-180300D02*
X1284848Y-180300D01*
X1284848Y-180300D02*
X1265801Y-189824D01*
X1351515Y-304110D02*
X1332467Y-313634D01*
X1332467Y-313634D02*
X1284848Y-313634D01*
X1284848Y-313634D02*
X1265801Y-304110D01*
X1265801Y-304110D02*
X1256277Y-285062D01*
X1256277Y-285062D02*
X1256277Y-266015D01*
X1256277Y-266015D02*
X1265801Y-246967D01*
X1265801Y-246967D02*
X1284848Y-237443D01*
X1284848Y-237443D02*
X1332467Y-237443D01*
X1332467Y-237443D02*
X1351515Y-227920D01*
X1446753Y-180300D02*
X1446753Y-380300D01*
X1446753Y-189824D02*
X1465801Y-180300D01*
X1465801Y-180300D02*
X1503896Y-180300D01*
X1503896Y-180300D02*
X1522943Y-189824D01*
X1522943Y-189824D02*
X1532467Y-199348D01*
X1532467Y-199348D02*
X1541991Y-218396D01*
X1541991Y-218396D02*
X1541991Y-275539D01*
X1541991Y-275539D02*
X1532467Y-294586D01*
X1532467Y-294586D02*
X1522943Y-304110D01*
X1522943Y-304110D02*
X1503896Y-313634D01*
X1503896Y-313634D02*
X1465801Y-313634D01*
X1465801Y-313634D02*
X1446753Y-304110D01*
X1627705Y-294586D02*
X1637229Y-304110D01*
X1637229Y-304110D02*
X1627705Y-313634D01*
X1627705Y-313634D02*
X1618182Y-304110D01*
X1618182Y-304110D02*
X1627705Y-294586D01*
X1627705Y-294586D02*
X1627705Y-313634D01*
X1627705Y-189824D02*
X1637229Y-199348D01*
X1637229Y-199348D02*
X1627705Y-208872D01*
X1627705Y-208872D02*
X1618182Y-199348D01*
X1618182Y-199348D02*
X1627705Y-189824D01*
X1627705Y-189824D02*
X1627705Y-208872D01*
M02*
