  0
SECTION
  2
HEADER
  9
$ACADVER
  1
AC1032
  9
$ACADMAINTVER
 90
      228
  9
$DWGCODEPAGE
  3
ANSI_1252
  9
$REQUIREDVERSIONS
160
                 0
  9
$INSBASE
 10
0.0
 20
0.0
 30
0.0
  9
$EXTMIN
 10
1.000000000000000E+20
 20
1.000000000000000E+20
 30
1.000000000000000E+20
  9
$EXTMAX
 10
-1.000000000000000E+20
 20
-1.000000000000000E+20
 30
-1.000000000000000E+20
  9
$LIMMIN
 10
0.0
 20
0.0
  9
$LIMMAX
 10
12.0
 20
9.0
  9
$ORTHOMODE
 70
     0
  9
$REGENMODE
 70
     1
  9
$FILLMODE
 70
     1
  9
$QTEXTMODE
 70
     0
  9
$MIRRTEXT
 70
     0
  9
$LTSCALE
 40
1.0
  9
$ATTMODE
 70
     1
  9
$TEXTSIZE
 40
0.2
  9
$TRACEWID
 40
0.05
  9
$TEXTSTYLE
  7
Standard
  9
$CLAYER
  8
0
  9
$CELTYPE
  6
ByLayer
  9
$CECOLOR
 62
   256
  9
$CELTSCALE
 40
1.0
  9
$DISPSILH
 70
     0
  9
$DIMSCALE
 40
1.0
  9
$DIMASZ
 40
0.18
  9
$DIMEXO
 40
0.0625
  9
$DIMDLI
 40
0.38
  9
$DIMRND
 40
0.0
  9
$DIMDLE
 40
0.0
  9
$DIMEXE
 40
0.18
  9
$DIMTP
 40
0.0
  9
$DIMTM
 40
0.0
  9
$DIMTXT
 40
0.18
  9
$DIMCEN
 40
0.09
  9
$DIMTSZ
 40
0.0
  9
$DIMTOL
 70
     0
  9
$DIMLIM
 70
     0
  9
$DIMTIH
 70
     1
  9
$DIMTOH
 70
     1
  9
$DIMSE1
 70
     0
  9
$DIMSE2
 70
     0
  9
$DIMTAD
 70
     0
  9
$DIMZIN
 70
     0
  9
$DIMBLK
  1

  9
$DIMASO
 70
     1
  9
$DIMSHO
 70
     1
  9
$DIMPOST
  1

  9
$DIMAPOST
  1

  9
$DIMALT
 70
     0
  9
$DIMALTD
 70
     2
  9
$DIMALTF
 40
25.4
  9
$DIMLFAC
 40
1.0
  9
$DIMTOFL
 70
     0
  9
$DIMTVP
 40
0.0
  9
$DIMTIX
 70
     0
  9
$DIMSOXD
 70
     0
  9
$DIMSAH
 70
     0
  9
$DIMBLK1
  1

  9
$DIMBLK2
  1

  9
$DIMSTYLE
  2
Standard
  9
$DIMCLRD
 70
     0
  9
$DIMCLRE
 70
     0
  9
$DIMCLRT
 70
     0
  9
$DIMTFAC
 40
1.0
  9
$DIMGAP
 40
0.09
  9
$DIMJUST
 70
     0
  9
$DIMSD1
 70
     0
  9
$DIMSD2
 70
     0
  9
$DIMTOLJ
 70
     1
  9
$DIMTZIN
 70
     0
  9
$DIMALTZ
 70
     0
  9
$DIMALTTZ
 70
     0
  9
$DIMUPT
 70
     0
  9
$DIMDEC
 70
     4
  9
$DIMTDEC
 70
     4
  9
$DIMALTU
 70
     2
  9
$DIMALTTD
 70
     2
  9
$DIMTXSTY
  7
Standard
  9
$DIMAUNIT
 70
     0
  9
$DIMADEC
 70
     0
  9
$DIMALTRND
 40
0.0
  9
$DIMAZIN
 70
     0
  9
$DIMDSEP
 70
    46
  9
$DIMATFIT
 70
     3
  9
$DIMFRAC
 70
     0
  9
$DIMLDRBLK
  1

  9
$DIMLUNIT
 70
     2
  9
$DIMLWD
 70
    -2
  9
$DIMLWE
 70
    -2
  9
$DIMTMOVE
 70
     0
  9
$DIMFXL
 40
1.0
  9
$DIMFXLON
 70
     0
  9
$DIMJOGANG
 40
0.7853981633974483
  9
$DIMTFILL
 70
     0
  9
$DIMTFILLCLR
 70
     0
  9
$DIMARCSYM
 70
     0
  9
$DIMLTYPE
  6

  9
$DIMLTEX1
  6

  9
$DIMLTEX2
  6

  9
$DIMTXTDIRECTION
 70
     0
  9
$LUNITS
 70
     2
  9
$LUPREC
 70
     4
  9
$SKETCHINC
 40
0.1
  9
$FILLETRAD
 40
0.0
  9
$AUNITS
 70
     0
  9
$AUPREC
 70
     0
  9
$MENU
  1
.
  9
$ELEVATION
 40
0.0
  9
$PELEVATION
 40
0.0
  9
$THICKNESS
 40
0.0
  9
$LIMCHECK
 70
     0
  9
$CHAMFERA
 40
0.0
  9
$CHAMFERB
 40
0.0
  9
$CHAMFERC
 40
0.0
  9
$CHAMFERD
 40
0.0
  9
$SKPOLY
 70
     0
  9
$TDCREATE
 40
2460183.422615741
  9
$TDUCREATE
 40
2460183.589282407
  9
$TDUPDATE
 40
2460183.422615741
  9
$TDUUPDATE
 40
2460183.589282407
  9
$TDINDWG
 40
0.0000000000
  9
$TDUSRTIMER
 40
0.0000000000
  9
$USRTIMER
 70
     1
  9
$ANGBASE
 50
0.0
  9
$ANGDIR
 70
     0
  9
$PDMODE
 70
     0
  9
$PDSIZE
 40
0.0
  9
$PLINEWID
 40
0.0
  9
$SPLFRAME
 70
     0
  9
$SPLINETYPE
 70
     6
  9
$SPLINESEGS
 70
     8
  9
$HANDSEED
  5
BF
  9
$SURFTAB1
 70
     6
  9
$SURFTAB2
 70
     6
  9
$SURFTYPE
 70
     6
  9
$SURFU
 70
     6
  9
$SURFV
 70
     6
  9
$UCSBASE
  2

  9
$UCSNAME
  2

  9
$UCSORG
 10
0.0
 20
0.0
 30
0.0
  9
$UCSXDIR
 10
1.0
 20
0.0
 30
0.0
  9
$UCSYDIR
 10
0.0
 20
1.0
 30
0.0
  9
$UCSORTHOREF
  2

  9
$UCSORTHOVIEW
 70
     0
  9
$UCSORGTOP
 10
0.0
 20
0.0
 30
0.0
  9
$UCSORGBOTTOM
 10
0.0
 20
0.0
 30
0.0
  9
$UCSORGLEFT
 10
0.0
 20
0.0
 30
0.0
  9
$UCSORGRIGHT
 10
0.0
 20
0.0
 30
0.0
  9
$UCSORGFRONT
 10
0.0
 20
0.0
 30
0.0
  9
$UCSORGBACK
 10
0.0
 20
0.0
 30
0.0
  9
$PUCSBASE
  2

  9
$PUCSNAME
  2

  9
$PUCSORG
 10
0.0
 20
0.0
 30
0.0
  9
$PUCSXDIR
 10
1.0
 20
0.0
 30
0.0
  9
$PUCSYDIR
 10
0.0
 20
1.0
 30
0.0
  9
$PUCSORTHOREF
  2

  9
$PUCSORTHOVIEW
 70
     0
  9
$PUCSORGTOP
 10
0.0
 20
0.0
 30
0.0
  9
$PUCSORGBOTTOM
 10
0.0
 20
0.0
 30
0.0
  9
$PUCSORGLEFT
 10
0.0
 20
0.0
 30
0.0
  9
$PUCSORGRIGHT
 10
0.0
 20
0.0
 30
0.0
  9
$PUCSORGFRONT
 10
0.0
 20
0.0
 30
0.0
  9
$PUCSORGBACK
 10
0.0
 20
0.0
 30
0.0
  9
$USERI1
 70
     0
  9
$USERI2
 70
     0
  9
$USERI3
 70
     0
  9
$USERI4
 70
     0
  9
$USERI5
 70
     0
  9
$USERR1
 40
0.0
  9
$USERR2
 40
0.0
  9
$USERR3
 40
0.0
  9
$USERR4
 40
0.0
  9
$USERR5
 40
0.0
  9
$WORLDVIEW
 70
     1
  9
$SHADEDGE
 70
     3
  9
$SHADEDIF
 70
    70
  9
$TILEMODE
 70
     1
  9
$MAXACTVP
 70
    64
  9
$PINSBASE
 10
0.0
 20
0.0
 30
0.0
  9
$PLIMCHECK
 70
     0
  9
$PEXTMIN
 10
1.000000000000000E+20
 20
1.000000000000000E+20
 30
1.000000000000000E+20
  9
$PEXTMAX
 10
-1.000000000000000E+20
 20
-1.000000000000000E+20
 30
-1.000000000000000E+20
  9
$PLIMMIN
 10
0.0
 20
0.0
  9
$PLIMMAX
 10
12.0
 20
9.0
  9
$UNITMODE
 70
     0
  9
$VISRETAIN
 70
     1
  9
$PLINEGEN
 70
     0
  9
$PSLTSCALE
 70
     1
  9
$TREEDEPTH
 70
  3020
  9
$CMLSTYLE
  2
Standard
  9
$CMLJUST
 70
     0
  9
$CMLSCALE
 40
1.0
  9
$PROXYGRAPHICS
 70
     1
  9
$MEASUREMENT
 70
     0
  9
$CELWEIGHT
370
    -1
  9
$ENDCAPS
280
     0
  9
$JOINSTYLE
280
     0
  9
$LWDISPLAY
290
     1
  9
$INSUNITS
 70
     4
  9
$HYPERLINKBASE
  1

  9
$STYLESHEET
  1

  9
$XEDIT
290
     1
  9
$CEPSNTYPE
380
     0
  9
$PSTYLEMODE
290
     1
  9
$FINGERPRINTGUID
  2
{C3700084-0DFB-0748-A0F4-651042528478}
  9
$VERSIONGUID
  2
{A5D5C2D6-8487-A042-8C2D-26CAC7D1ED04}
  9
$EXTNAMES
290
     1
  9
$PSVPSCALE
 40
0.0
  9
$OLESTARTUP
290
     0
  9
$SORTENTS
280
   127
  9
$INDEXCTL
280
     0
  9
$HIDETEXT
280
     1
  9
$XCLIPFRAME
280
     2
  9
$HALOGAP
280
     0
  9
$OBSCOLOR
 70
   257
  9
$OBSLTYPE
280
     0
  9
$INTERSECTIONDISPLAY
280
     0
  9
$INTERSECTIONCOLOR
 70
   257
  9
$DIMASSOC
280
     2
  9
$PROJECTNAME
  1

  9
$CAMERADISPLAY
290
     0
  9
$LENSLENGTH
 40
50.0
  9
$CAMERAHEIGHT
 40
0.0
  9
$STEPSPERSEC
 40
2.0
  9
$STEPSIZE
 40
6.0
  9
$3DDWFPREC
 40
2.0
  9
$PSOLWIDTH
 40
0.25
  9
$PSOLHEIGHT
 40
4.0
  9
$LOFTANG1
 40
1.570796326794896
  9
$LOFTANG2
 40
1.570796326794896
  9
$LOFTMAG1
 40
0.0
  9
$LOFTMAG2
 40
0.0
  9
$LOFTPARAM
 70
     7
  9
$LOFTNORMALS
280
     1
  9
$LATITUDE
 40
37.795
  9
$LONGITUDE
 40
-122.394
  9
$NORTHDIRECTION
 40
0.0
  9
$TIMEZONE
 70
 -8000
  9
$LIGHTGLYPHDISPLAY
280
     1
  9
$TILEMODELIGHTSYNCH
280
     1
  9
$CMATERIAL
347
11
  9
$SOLIDHIST
280
     0
  9
$SHOWHIST
280
     1
  9
$DWFFRAME
280
     2
  9
$DGNFRAME
280
     0
  9
$REALWORLDSCALE
290
     1
  9
$INTERFERECOLOR
 62
     1
  9
$INTERFEREOBJVS
345
33
  9
$INTERFEREVPVS
346
30
  9
$CSHADOW
280
     0
  9
$SHADOWPLANELOCATION
 40
0.0
  0
ENDSEC
  0
SECTION
  2
CLASSES
  0
CLASS
  1
ACDBDICTIONARYWDFLT
  2
AcDbDictionaryWithDefault
  3
ObjectDBX Classes
 90
        0
 91
        1
280
     0
281
     0
  0
CLASS
  1
MATERIAL
  2
AcDbMaterial
  3
ObjectDBX Classes
 90
     1153
 91
        3
280
     0
281
     0
  0
CLASS
  1
VISUALSTYLE
  2
AcDbVisualStyle
  3
ObjectDBX Classes
 90
     4095
 91
       24
280
     0
281
     0
  0
CLASS
  1
SCALE
  2
AcDbScale
  3
ObjectDBX Classes
 90
     1153
 91
       17
280
     0
281
     0
  0
CLASS
  1
TABLESTYLE
  2
AcDbTableStyle
  3
ObjectDBX Classes
 90
     4095
 91
        1
280
     0
281
     0
  0
CLASS
  1
MLEADERSTYLE
  2
AcDbMLeaderStyle
  3
ACDB_MLEADERSTYLE_CLASS
 90
     4095
 91
        1
280
     0
281
     0
  0
CLASS
  1
ACDBSECTIONVIEWSTYLE
  2
AcDbSectionViewStyle
  3
ObjectDBX Classes
 90
     1025
 91
        1
280
     0
281
     0
  0
CLASS
  1
ACDBDETAILVIEWSTYLE
  2
AcDbDetailViewStyle
  3
ObjectDBX Classes
 90
     1025
 91
        1
280
     0
281
     0
  0
CLASS
  1
DICTIONARYVAR
  2
AcDbDictionaryVar
  3
ObjectDBX Classes
 90
        0
 91
        5
280
     0
281
     0
  0
CLASS
  1
CELLSTYLEMAP
  2
AcDbCellStyleMap
  3
ObjectDBX Classes
 90
     1152
 91
        1
280
     0
281
     0
  0
ENDSEC
  0
SECTION
  2
TABLES
  0
TABLE
  2
VPORT
  5
8
330
0
100
AcDbSymbolTable
 70
     1
  0
VPORT
  5
57
330
8
100
AcDbSymbolTableRecord
100
AcDbViewportTableRecord
  2
*Active
 70
     0
 10
0.0
 20
0.0
 11
1.0
 21
1.0
 12
0.0
 22
0.0
 13
0.0
 23
0.0
 14
1.0
 24
1.0
 15
0.0
 25
0.0
 16
0.0
 26
0.0
 36
1.0
 17
199.9999999499937
 27
99.99999997500566
 37
0.0
 40
203.9999999490116
 41
1.999999999999823
 42
50.0
 43
0.0
 44
0.0
 50
0.0
 51
0.0
 71
     0
 72
   100
 73
     1
 74
     1
 75
     0
 76
     0
 77
     0
 78
     0
281
     0
 65
     1
110
0.0
120
0.0
130
0.0
111
1.0
121
0.0
131
0.0
112
0.0
122
1.0
132
0.0
 79
     0
146
0.0
 60
     3
 61
     5
292
     1
282
     1
141
0.0
142
0.0
 63
   250
421
  3355443
  0
ENDTAB
  0
TABLE
  2
LTYPE
  5
5
330
0
100
AcDbSymbolTable
 70
     1
  0
LTYPE
  5
5B
330
5
100
AcDbSymbolTableRecord
100
AcDbLinetypeTableRecord
  2
ByBlock
 70
     0
  3

 72
    65
 73
     0
 40
0.0
  0
LTYPE
  5
5C
330
5
100
AcDbSymbolTableRecord
100
AcDbLinetypeTableRecord
  2
ByLayer
 70
     0
  3

 72
    65
 73
     0
 40
0.0
  0
LTYPE
  5
5D
330
5
100
AcDbSymbolTableRecord
100
AcDbLinetypeTableRecord
  2
Continuous
 70
     0
  3
Solid line
 72
    65
 73
     0
 40
0.0
  0
ENDTAB
  0
TABLE
  2
LAYER
  5
2
330
0
100
AcDbSymbolTable
 70
     2
  0
LAYER
  5
54
330
2
100
AcDbSymbolTableRecord
100
AcDbLayerTableRecord
  2
0
 70
     0
 62
     7
  6
Continuous
370
    -3
390
F
347
21
348
0
  0
LAYER
  5
78
330
2
100
AcDbSymbolTableRecord
100
AcDbLayerTableRecord
  2
Layer 2
 70
     0
 62
     7
  6
Continuous
370
     0
390
F
347
21
348
0
  0
ENDTAB
  0
TABLE
  2
STYLE
  5
3
330
0
100
AcDbSymbolTable
 70
     2
  0
STYLE
  5
55
330
3
100
AcDbSymbolTableRecord
100
AcDbTextStyleTableRecord
  2
Standard
 70
     0
 40
0.0
 41
1.0
 50
0.0
 71
     0
 42
0.2
  3
txt
  4

  0
STYLE
  5
5A
330
3
100
AcDbSymbolTableRecord
100
AcDbTextStyleTableRecord
  2
Annotative
 70
     0
 40
0.0
 41
1.0
 50
0.0
 71
     0
 42
0.2
  3
txt
  4

1001
AcadAnnotative
1000
AnnotativeData
1002
{
1070
     1
1070
     1
1002
}
  0
ENDTAB
  0
TABLE
  2
VIEW
  5
6
330
0
100
AcDbSymbolTable
 70
     0
  0
ENDTAB
  0
TABLE
  2
UCS
  5
7
330
0
100
AcDbSymbolTable
 70
     0
  0
ENDTAB
  0
TABLE
  2
APPID
  5
9
330
0
100
AcDbSymbolTable
 70
     2
  0
APPID
  5
56
330
9
100
AcDbSymbolTableRecord
100
AcDbRegAppTableRecord
  2
ACAD
 70
     0
  0
APPID
  5
5E
330
9
100
AcDbSymbolTableRecord
100
AcDbRegAppTableRecord
  2
AcadAnnotative
 70
     0
  0
ENDTAB
  0
TABLE
  2
DIMSTYLE
  5
A
330
0
100
AcDbSymbolTable
 70
     2
100
AcDbDimStyleTable
 71
     0
  0
DIMSTYLE
105
58
330
A
100
AcDbSymbolTableRecord
100
AcDbDimStyleTableRecord
  2
Standard
 70
     0
340
55
  0
DIMSTYLE
105
59
330
A
100
AcDbSymbolTableRecord
100
AcDbDimStyleTableRecord
  2
Annotative
 70
     0
340
55
1001
AcadAnnotative
1000
AnnotativeData
1002
{
1070
     1
1070
     1
1002
}
  0
ENDTAB
  0
TABLE
  2
BLOCK_RECORD
  5
1
330
0
100
AcDbSymbolTable
 70
     2
  0
BLOCK_RECORD
  5
70
330
1
100
AcDbSymbolTableRecord
100
AcDbBlockTableRecord
  2
*Model_Space
340
73
 70
     0
280
     1
281
     0
  0
BLOCK_RECORD
  5
6C
330
1
100
AcDbSymbolTableRecord
100
AcDbBlockTableRecord
  2
*Paper_Space
340
6F
 70
     0
280
     1
281
     0
  0
BLOCK_RECORD
  5
74
330
1
100
AcDbSymbolTableRecord
100
AcDbBlockTableRecord
  2
*Paper_Space0
340
77
 70
     0
280
     1
281
     0
  0
BLOCK_RECORD
  5
79
330
1
100
AcDbSymbolTableRecord
100
AcDbBlockTableRecord
  2
Block_0
340
0
102
{BLKREFS
331
7A
102
}
 70
     0
280
     1
281
     0
  0
ENDTAB
  0
ENDSEC
  0
SECTION
  2
BLOCKS
  0
BLOCK
  5
71
330
70
100
AcDbEntity
  8
0
100
AcDbBlockBegin
  2
*Model_Space
 70
     0
 10
0.0
 20
0.0
 30
0.0
  3
*Model_Space
  1

  0
ENDBLK
  5
72
330
70
100
AcDbEntity
  8
0
100
AcDbBlockEnd
  0
BLOCK
  5
6D
330
6C
100
AcDbEntity
 67
     1
  8
0
100
AcDbBlockBegin
  2
*Paper_Space
 70
     0
 10
0.0
 20
0.0
 30
0.0
  3
*Paper_Space
  1

  0
ENDBLK
  5
6E
330
6C
100
AcDbEntity
 67
     1
  8
0
100
AcDbBlockEnd
  0
BLOCK
  5
75
330
74
100
AcDbEntity
 67
     1
  8
0
100
AcDbBlockBegin
  2
*Paper_Space0
 70
     0
 10
0.0
 20
0.0
 30
0.0
  3
*Paper_Space0
  1

  0
ENDBLK
  5
76
330
74
100
AcDbEntity
 67
     1
  8
0
100
AcDbBlockEnd
  0
BLOCK
  5
7B
330
79
100
AcDbEntity
  8
0
100
AcDbBlockBegin
  2
Block_0
 70
     0
 10
0.0
 20
0.0
 30
0.0
  3
Block_0
  1

  0
SPLINE
  5
7D
330
79
100
AcDbEntity
  8
Layer 2
 62
    18
420
        0
370
     9
100
AcDbSpline
210
0.0
220
0.0
230
1.0
 70
     9
 71
     3
 72
    29
 73
    25
 74
     0
 42
0.0000000001
 43
0.0000000001
 40
0.0
 40
0.0
 40
0.0
 40
0.0
 40
1.0
 40
1.0
 40
1.0
 40
2.0
 40
2.0
 40
2.0
 40
3.0
 40
3.0
 40
3.0
 40
4.0
 40
4.0
 40
4.0
 40
5.0
 40
5.0
 40
5.0
 40
6.0
 40
6.0
 40
6.0
 40
7.0
 40
7.0
 40
7.0
 40
8.0
 40
8.0
 40
8.0
 40
8.0
 10
154.9003888198323
 20
135.0759999567109
 30
0.0
 10
154.9003888198323
 20
135.3521423315568
 30
0.0
 10
155.1242464448604
 20
135.5759999565861
 30
0.0
 10
155.4003888197069
 20
135.5759999565861
 30
0.0
 10
155.4003888197069
 20
135.5759999565861
 30
0.0
 10
168.4003888164571
 20
135.5759999565861
 30
0.0
 10
168.4003888164571
 20
135.5759999565861
 30
0.0
 10
168.6765311913036
 20
135.5759999565861
 30
0.0
 10
168.900388816333
 20
135.3521423315568
 30
0.0
 10
168.900388816333
 20
135.0759999567109
 30
0.0
 10
168.900388816333
 20
135.0759999567109
 30
0.0
 10
168.900388816333
 20
122.0759999599616
 30
0.0
 10
168.900388816333
 20
122.0759999599616
 30
0.0
 10
168.900388816333
 20
121.7998575851148
 30
0.0
 10
168.6765311913036
 20
121.5759999600861
 30
0.0
 10
168.4003888164571
 20
121.5759999600861
 30
0.0
 10
168.4003888164571
 20
121.5759999600861
 30
0.0
 10
155.4003888197069
 20
121.5759999600861
 30
0.0
 10
155.4003888197069
 20
121.5759999600861
 30
0.0
 10
155.124246444861
 20
121.5759999600861
 30
0.0
 10
154.9003888198323
 20
121.7998575851148
 30
0.0
 10
154.9003888198323
 20
122.0759999599616
 30
0.0
 10
154.9003888198323
 20
122.0759999599616
 30
0.0
 10
154.9003888198323
 20
135.0759999567109
 30
0.0
 10
154.9003888198323
 20
135.0759999567109
 30
0.0
  0
SPLINE
  5
7E
330
79
100
AcDbEntity
  8
Layer 2
 62
    18
420
        0
370
     9
100
AcDbSpline
210
0.0
220
0.0
230
1.0
 70
     9
 71
     3
 72
    29
 73
    25
 74
     0
 42
0.0000000001
 43
0.0000000001
 40
0.0
 40
0.0
 40
0.0
 40
0.0
 40
1.0
 40
1.0
 40
1.0
 40
2.0
 40
2.0
 40
2.0
 40
3.0
 40
3.0
 40
3.0
 40
4.0
 40
4.0
 40
4.0
 40
5.0
 40
5.0
 40
5.0
 40
6.0
 40
6.0
 40
6.0
 40
7.0
 40
7.0
 40
7.0
 40
8.0
 40
8.0
 40
8.0
 40
8.0
 10
174.4503888149444
 20
121.5759999600861
 30
0.0
 10
174.1742464400985
 20
121.5759999600861
 30
0.0
 10
173.9503888150698
 20
121.7998575851148
 30
0.0
 10
173.9503888150698
 20
122.0759999599616
 30
0.0
 10
173.9503888150698
 20
122.0759999599616
 30
0.0
 10
173.9503888150698
 20
135.0759999567109
 30
0.0
 10
173.9503888150698
 20
135.0759999567109
 30
0.0
 10
173.9503888150698
 20
135.3521423315568
 30
0.0
 10
174.1742464400985
 20
135.5759999565861
 30
0.0
 10
174.4503888149444
 20
135.5759999565861
 30
0.0
 10
174.4503888149444
 20
135.5759999565861
 30
0.0
 10
187.4503888116946
 20
135.5759999565861
 30
0.0
 10
187.4503888116946
 20
135.5759999565861
 30
0.0
 10
187.7265311865411
 20
135.5759999565861
 30
0.0
 10
187.9503888115698
 20
135.3521423315568
 30
0.0
 10
187.9503888115698
 20
135.0759999567109
 30
0.0
 10
187.9503888115698
 20
135.0759999567109
 30
0.0
 10
187.9503888115698
 20
122.0759999599616
 30
0.0
 10
187.9503888115698
 20
122.0759999599616
 30
0.0
 10
187.9503888115698
 20
121.7998575851148
 30
0.0
 10
187.7265311865411
 20
121.5759999600861
 30
0.0
 10
187.4503888116946
 20
121.5759999600861
 30
0.0
 10
187.4503888116946
 20
121.5759999600861
 30
0.0
 10
174.4503888149444
 20
121.5759999600861
 30
0.0
 10
174.4503888149444
 20
121.5759999600861
 30
0.0
  0
SPLINE
  5
7F
330
79
100
AcDbEntity
  8
Layer 2
 62
    18
420
        0
370
     9
100
AcDbSpline
210
0.0
220
0.0
230
1.0
 70
     9
 71
     3
 72
    29
 73
    25
 74
     0
 42
0.0000000001
 43
0.0000000001
 40
0.0
 40
0.0
 40
0.0
 40
0.0
 40
1.0
 40
1.0
 40
1.0
 40
2.0
 40
2.0
 40
2.0
 40
3.0
 40
3.0
 40
3.0
 40
4.0
 40
4.0
 40
4.0
 40
5.0
 40
5.0
 40
5.0
 40
6.0
 40
6.0
 40
6.0
 40
7.0
 40
7.0
 40
7.0
 40
8.0
 40
8.0
 40
8.0
 40
8.0
 10
231.1003888007817
 20
135.0759999567109
 30
0.0
 10
231.1003888007817
 20
135.3521423315568
 30
0.0
 10
231.3242464258104
 20
135.5759999565861
 30
0.0
 10
231.6003888006588
 20
135.5759999565861
 30
0.0
 10
231.6003888006588
 20
135.5759999565861
 30
0.0
 10
244.6003887974078
 20
135.5759999565861
 30
0.0
 10
244.6003887974078
 20
135.5759999565861
 30
0.0
 10
244.8765311722536
 20
135.5759999565861
 30
0.0
 10
245.1003887972824
 20
135.3521423315568
 30
0.0
 10
245.1003887972824
 20
135.0759999567109
 30
0.0
 10
245.1003887972824
 20
135.0759999567109
 30
0.0
 10
245.1003887972824
 20
122.0759999599616
 30
0.0
 10
245.1003887972824
 20
122.0759999599616
 30
0.0
 10
245.1003887972824
 20
121.7998575851148
 30
0.0
 10
244.8765311722536
 20
121.5759999600861
 30
0.0
 10
244.6003887974078
 20
121.5759999600861
 30
0.0
 10
244.6003887974078
 20
121.5759999600861
 30
0.0
 10
231.6003888006588
 20
121.5759999600861
 30
0.0
 10
231.6003888006588
 20
121.5759999600861
 30
0.0
 10
231.3242464258104
 20
121.5759999600861
 30
0.0
 10
231.1003888007817
 20
121.7998575851148
 30
0.0
 10
231.1003888007817
 20
122.0759999599616
 30
0.0
 10
231.1003888007817
 20
122.0759999599616
 30
0.0
 10
231.1003888007817
 20
135.0759999567109
 30
0.0
 10
231.1003888007817
 20
135.0759999567109
 30
0.0
  0
SPLINE
  5
80
330
79
100
AcDbEntity
  8
Layer 2
 62
    18
420
        0
370
     9
100
AcDbSpline
210
0.0
220
0.0
230
1.0
 70
     9
 71
     3
 72
    29
 73
    25
 74
     0
 42
0.0000000001
 43
0.0000000001
 40
0.0
 40
0.0
 40
0.0
 40
0.0
 40
1.0
 40
1.0
 40
1.0
 40
2.0
 40
2.0
 40
2.0
 40
3.0
 40
3.0
 40
3.0
 40
4.0
 40
4.0
 40
4.0
 40
5.0
 40
5.0
 40
5.0
 40
6.0
 40
6.0
 40
6.0
 40
7.0
 40
7.0
 40
7.0
 40
8.0
 40
8.0
 40
8.0
 40
8.0
 10
263.650388792644
 20
135.5759999565861
 30
0.0
 10
263.9265311674911
 20
135.5759999565861
 30
0.0
 10
264.1503887925198
 20
135.3521423315568
 30
0.0
 10
264.1503887925198
 20
135.0759999567109
 30
0.0
 10
264.1503887925198
 20
135.0759999567109
 30
0.0
 10
264.1503887925198
 20
122.0759999599616
 30
0.0
 10
264.1503887925198
 20
122.0759999599616
 30
0.0
 10
264.1503887925198
 20
121.7998575851148
 30
0.0
 10
263.9265311674911
 20
121.5759999600861
 30
0.0
 10
263.650388792644
 20
121.5759999600861
 30
0.0
 10
263.650388792644
 20
121.5759999600861
 30
0.0
 10
250.650388795895
 20
121.5759999600861
 30
0.0
 10
250.650388795895
 20
121.5759999600861
 30
0.0
 10
250.3742464210492
 20
121.5759999600861
 30
0.0
 10
250.1503887960205
 20
121.7998575851148
 30
0.0
 10
250.1503887960205
 20
122.0759999599616
 30
0.0
 10
250.1503887960205
 20
122.0759999599616
 30
0.0
 10
250.1503887960205
 20
135.0759999567109
 30
0.0
 10
250.1503887960205
 20
135.0759999567109
 30
0.0
 10
250.1503887960205
 20
135.3521423315568
 30
0.0
 10
250.3742464210492
 20
135.5759999565861
 30
0.0
 10
250.650388795895
 20
135.5759999565861
 30
0.0
 10
250.650388795895
 20
135.5759999565861
 30
0.0
 10
263.650388792644
 20
135.5759999565861
 30
0.0
 10
263.650388792644
 20
135.5759999565861
 30
0.0
  0
SPLINE
  5
81
330
79
100
AcDbEntity
  8
Layer 2
 62
    18
420
        0
370
     9
100
AcDbSpline
210
0.0
220
0.0
230
1.0
 70
     9
 71
     3
 72
    29
 73
    25
 74
     0
 42
0.0000000001
 43
0.0000000001
 40
0.0
 40
0.0
 40
0.0
 40
0.0
 40
1.0
 40
1.0
 40
1.0
 40
2.0
 40
2.0
 40
2.0
 40
3.0
 40
3.0
 40
3.0
 40
4.0
 40
4.0
 40
4.0
 40
5.0
 40
5.0
 40
5.0
 40
6.0
 40
6.0
 40
6.0
 40
7.0
 40
7.0
 40
7.0
 40
8.0
 40
8.0
 40
8.0
 40
8.0
 10
282.7003887878828
 20
135.5759999565861
 30
0.0
 10
282.9765311627286
 20
135.5759999565861
 30
0.0
 10
283.2003887877574
 20
135.3521423315568
 30
0.0
 10
283.2003887877574
 20
135.0759999567109
 30
0.0
 10
283.2003887877574
 20
135.0759999567109
 30
0.0
 10
283.2003887877574
 20
122.0759999599616
 30
0.0
 10
283.2003887877574
 20
122.0759999599616
 30
0.0
 10
283.2003887877574
 20
121.7998575851148
 30
0.0
 10
282.9765311627286
 20
121.5759999600861
 30
0.0
 10
282.7003887878828
 20
121.5759999600861
 30
0.0
 10
282.7003887878828
 20
121.5759999600861
 30
0.0
 10
269.7003887911313
 20
121.5759999600861
 30
0.0
 10
269.7003887911313
 20
121.5759999600861
 30
0.0
 10
269.4242464162867
 20
121.5759999600861
 30
0.0
 10
269.2003887912567
 20
121.7998575851148
 30
0.0
 10
269.2003887912567
 20
122.0759999599616
 30
0.0
 10
269.2003887912567
 20
122.0759999599616
 30
0.0
 10
269.2003887912567
 20
135.0759999567109
 30
0.0
 10
269.2003887912567
 20
135.0759999567109
 30
0.0
 10
269.2003887912567
 20
135.3521423315568
 30
0.0
 10
269.4242464162867
 20
135.5759999565861
 30
0.0
 10
269.7003887911313
 20
135.5759999565861
 30
0.0
 10
269.7003887911313
 20
135.5759999565861
 30
0.0
 10
282.7003887878828
 20
135.5759999565861
 30
0.0
 10
282.7003887878828
 20
135.5759999565861
 30
0.0
  0
SPLINE
  5
82
330
79
100
AcDbEntity
  8
Layer 2
 62
    18
420
        0
370
     9
100
AcDbSpline
210
0.0
220
0.0
230
1.0
 70
     9
 71
     3
 72
    29
 73
    25
 74
     0
 42
0.0000000001
 43
0.0000000001
 40
0.0
 40
0.0
 40
0.0
 40
0.0
 40
1.0
 40
1.0
 40
1.0
 40
2.0
 40
2.0
 40
2.0
 40
3.0
 40
3.0
 40
3.0
 40
4.0
 40
4.0
 40
4.0
 40
5.0
 40
5.0
 40
5.0
 40
6.0
 40
6.0
 40
6.0
 40
7.0
 40
7.0
 40
7.0
 40
8.0
 40
8.0
 40
8.0
 40
8.0
 10
225.5503888021703
 20
121.5759999600861
 30
0.0
 10
225.5503888021703
 20
121.5759999600861
 30
0.0
 10
212.5503888054213
 20
121.5759999600861
 30
0.0
 10
212.5503888054213
 20
121.5759999600861
 30
0.0
 10
212.2742464305729
 20
121.5759999600861
 30
0.0
 10
212.0503888055442
 20
121.7998575851148
 30
0.0
 10
212.0503888055442
 20
122.0759999599616
 30
0.0
 10
212.0503888055442
 20
122.0759999599616
 30
0.0
 10
212.0503888055442
 20
135.0759999567109
 30
0.0
 10
212.0503888055442
 20
135.0759999567109
 30
0.0
 10
212.0503888055442
 20
135.3521423315568
 30
0.0
 10
212.2742464305729
 20
135.5759999565861
 30
0.0
 10
212.5503888054213
 20
135.5759999565861
 30
0.0
 10
212.5503888054213
 20
135.5759999565861
 30
0.0
 10
225.5503888021703
 20
135.5759999565861
 30
0.0
 10
225.5503888021703
 20
135.5759999565861
 30
0.0
 10
225.8265311770161
 20
135.5759999565861
 30
0.0
 10
226.0503888020449
 20
135.3521423315568
 30
0.0
 10
226.0503888020449
 20
135.0759999567109
 30
0.0
 10
226.0503888020449
 20
135.0759999567109
 30
0.0
 10
226.0503888020449
 20
122.0759999599616
 30
0.0
 10
226.0503888020449
 20
122.0759999599616
 30
0.0
 10
226.0503888020449
 20
121.7998575851148
 30
0.0
 10
225.8265311770161
 20
121.5759999600861
 30
0.0
 10
225.5503888021703
 20
121.5759999600861
 30
0.0
  0
SPLINE
  5
83
330
79
100
AcDbEntity
  8
Layer 2
 62
    18
420
        0
370
     9
100
AcDbSpline
210
0.0
220
0.0
230
1.0
 70
     9
 71
     3
 72
    29
 73
    25
 74
     0
 42
0.0000000001
 43
0.0000000001
 40
0.0
 40
0.0
 40
0.0
 40
0.0
 40
1.0
 40
1.0
 40
1.0
 40
2.0
 40
2.0
 40
2.0
 40
3.0
 40
3.0
 40
3.0
 40
4.0
 40
4.0
 40
4.0
 40
5.0
 40
5.0
 40
5.0
 40
6.0
 40
6.0
 40
6.0
 40
7.0
 40
7.0
 40
7.0
 40
8.0
 40
8.0
 40
8.0
 40
8.0
 10
116.8003888293573
 20
116.025999961474
 30
0.0
 10
116.8003888293573
 20
116.3021423363205
 30
0.0
 10
117.0242464543854
 20
116.5259999613486
 30
0.0
 10
117.3003888292319
 20
116.5259999613486
 30
0.0
 10
117.3003888292319
 20
116.5259999613486
 30
0.0
 10
130.3003888259821
 20
116.5259999613486
 30
0.0
 10
130.3003888259821
 20
116.5259999613486
 30
0.0
 10
130.5765312008286
 20
116.5259999613486
 30
0.0
 10
130.800388825858
 20
116.3021423363205
 30
0.0
 10
130.800388825858
 20
116.025999961474
 30
0.0
 10
130.800388825858
 20
116.025999961474
 30
0.0
 10
130.800388825858
 20
103.0259999647241
 30
0.0
 10
130.800388825858
 20
103.0259999647241
 30
0.0
 10
130.800388825858
 20
102.7498575898779
 30
0.0
 10
130.5765312008286
 20
102.5259999648492
 30
0.0
 10
130.3003888259821
 20
102.5259999648492
 30
0.0
 10
130.3003888259821
 20
102.5259999648492
 30
0.0
 10
117.3003888292319
 20
102.5259999648492
 30
0.0
 10
117.3003888292319
 20
102.5259999648492
 30
0.0
 10
117.0242464543854
 20
102.5259999648492
 30
0.0
 10
116.8003888293573
 20
102.7498575898779
 30
0.0
 10
116.8003888293573
 20
103.0259999647241
 30
0.0
 10
116.8003888293573
 20
103.0259999647241
 30
0.0
 10
116.8003888293573
 20
116.025999961474
 30
0.0
 10
116.8003888293573
 20
116.025999961474
 30
0.0
  0
SPLINE
  5
84
330
79
100
AcDbEntity
  8
Layer 2
 62
    18
420
        0
370
     9
100
AcDbSpline
210
0.0
220
0.0
230
1.0
 70
     9
 71
     3
 72
    29
 73
    25
 74
     0
 42
0.0000000001
 43
0.0000000001
 40
0.0
 40
0.0
 40
0.0
 40
0.0
 40
1.0
 40
1.0
 40
1.0
 40
2.0
 40
2.0
 40
2.0
 40
3.0
 40
3.0
 40
3.0
 40
4.0
 40
4.0
 40
4.0
 40
5.0
 40
5.0
 40
5.0
 40
6.0
 40
6.0
 40
6.0
 40
7.0
 40
7.0
 40
7.0
 40
8.0
 40
8.0
 40
8.0
 40
8.0
 10
168.900388816333
 20
103.0259999647241
 30
0.0
 10
168.900388816333
 20
102.7498575898779
 30
0.0
 10
168.6765311913036
 20
102.5259999648492
 30
0.0
 10
168.4003888164571
 20
102.5259999648492
 30
0.0
 10
168.4003888164571
 20
102.5259999648492
 30
0.0
 10
155.4003888197069
 20
102.5259999648492
 30
0.0
 10
155.4003888197069
 20
102.5259999648492
 30
0.0
 10
155.1242464448604
 20
102.5259999648492
 30
0.0
 10
154.9003888198323
 20
102.7498575898779
 30
0.0
 10
154.9003888198323
 20
103.0259999647241
 30
0.0
 10
154.9003888198323
 20
103.0259999647241
 30
0.0
 10
154.9003888198323
 20
116.025999961474
 30
0.0
 10
154.9003888198323
 20
116.025999961474
 30
0.0
 10
154.9003888198323
 20
116.3021423363205
 30
0.0
 10
155.124246444861
 20
116.5259999613486
 30
0.0
 10
155.4003888197069
 20
116.5259999613486
 30
0.0
 10
155.4003888197069
 20
116.5259999613486
 30
0.0
 10
168.4003888164571
 20
116.5259999613486
 30
0.0
 10
168.4003888164571
 20
116.5259999613486
 30
0.0
 10
168.6765311913036
 20
116.5259999613486
 30
0.0
 10
168.900388816333
 20
116.3021423363205
 30
0.0
 10
168.900388816333
 20
116.025999961474
 30
0.0
 10
168.900388816333
 20
116.025999961474
 30
0.0
 10
168.900388816333
 20
103.0259999647241
 30
0.0
 10
168.900388816333
 20
103.0259999647241
 30
0.0
  0
SPLINE
  5
85
330
79
100
AcDbEntity
  8
Layer 2
 62
    18
420
        0
370
     9
100
AcDbSpline
210
0.0
220
0.0
230
1.0
 70
     9
 71
     3
 72
    29
 73
    25
 74
     0
 42
0.0000000001
 43
0.0000000001
 40
0.0
 40
0.0
 40
0.0
 40
0.0
 40
1.0
 40
1.0
 40
1.0
 40
2.0
 40
2.0
 40
2.0
 40
3.0
 40
3.0
 40
3.0
 40
4.0
 40
4.0
 40
4.0
 40
5.0
 40
5.0
 40
5.0
 40
6.0
 40
6.0
 40
6.0
 40
7.0
 40
7.0
 40
7.0
 40
8.0
 40
8.0
 40
8.0
 40
8.0
 10
173.9503888150698
 20
116.025999961474
 30
0.0
 10
173.9503888150698
 20
116.3021423363205
 30
0.0
 10
174.1742464400985
 20
116.5259999613486
 30
0.0
 10
174.4503888149444
 20
116.5259999613486
 30
0.0
 10
174.4503888149444
 20
116.5259999613486
 30
0.0
 10
187.4503888116946
 20
116.5259999613486
 30
0.0
 10
187.4503888116946
 20
116.5259999613486
 30
0.0
 10
187.7265311865411
 20
116.5259999613486
 30
0.0
 10
187.9503888115698
 20
116.3021423363205
 30
0.0
 10
187.9503888115698
 20
116.025999961474
 30
0.0
 10
187.9503888115698
 20
116.025999961474
 30
0.0
 10
187.9503888115698
 20
103.0259999647241
 30
0.0
 10
187.9503888115698
 20
103.0259999647241
 30
0.0
 10
187.9503888115698
 20
102.7498575898779
 30
0.0
 10
187.7265311865411
 20
102.5259999648492
 30
0.0
 10
187.4503888116946
 20
102.5259999648492
 30
0.0
 10
187.4503888116946
 20
102.5259999648492
 30
0.0
 10
174.4503888149444
 20
102.5259999648492
 30
0.0
 10
174.4503888149444
 20
102.5259999648492
 30
0.0
 10
174.1742464400985
 20
102.5259999648492
 30
0.0
 10
173.9503888150698
 20
102.7498575898779
 30
0.0
 10
173.9503888150698
 20
103.0259999647241
 30
0.0
 10
173.9503888150698
 20
103.0259999647241
 30
0.0
 10
173.9503888150698
 20
116.025999961474
 30
0.0
 10
173.9503888150698
 20
116.025999961474
 30
0.0
  0
SPLINE
  5
86
330
79
100
AcDbEntity
  8
Layer 2
 62
    18
420
        0
370
     9
100
AcDbSpline
210
0.0
220
0.0
230
1.0
 70
     9
 71
     3
 72
    29
 73
    25
 74
     0
 42
0.0000000001
 43
0.0000000001
 40
0.0
 40
0.0
 40
0.0
 40
0.0
 40
1.0
 40
1.0
 40
1.0
 40
2.0
 40
2.0
 40
2.0
 40
3.0
 40
3.0
 40
3.0
 40
4.0
 40
4.0
 40
4.0
 40
5.0
 40
5.0
 40
5.0
 40
6.0
 40
6.0
 40
6.0
 40
7.0
 40
7.0
 40
7.0
 40
8.0
 40
8.0
 40
8.0
 40
8.0
 10
135.8503888245948
 20
116.025999961474
 30
0.0
 10
135.8503888245948
 20
116.3021423363205
 30
0.0
 10
136.0742464496235
 20
116.5259999613486
 30
0.0
 10
136.3503888244693
 20
116.5259999613486
 30
0.0
 10
136.3503888244693
 20
116.5259999613486
 30
0.0
 10
149.3503888212196
 20
116.5259999613486
 30
0.0
 10
149.3503888212196
 20
116.5259999613486
 30
0.0
 10
149.6265311960661
 20
116.5259999613486
 30
0.0
 10
149.8503888210955
 20
116.3021423363205
 30
0.0
 10
149.8503888210955
 20
116.025999961474
 30
0.0
 10
149.8503888210955
 20
116.025999961474
 30
0.0
 10
149.8503888210955
 20
103.0259999647241
 30
0.0
 10
149.8503888210955
 20
103.0259999647241
 30
0.0
 10
149.8503888210955
 20
102.7498575898779
 30
0.0
 10
149.6265311960661
 20
102.5259999648492
 30
0.0
 10
149.3503888212196
 20
102.5259999648492
 30
0.0
 10
149.3503888212196
 20
102.5259999648492
 30
0.0
 10
136.3503888244693
 20
102.5259999648492
 30
0.0
 10
136.3503888244693
 20
102.5259999648492
 30
0.0
 10
136.0742464496235
 20
102.5259999648492
 30
0.0
 10
135.8503888245948
 20
102.7498575898779
 30
0.0
 10
135.8503888245948
 20
103.0259999647241
 30
0.0
 10
135.8503888245948
 20
103.0259999647241
 30
0.0
 10
135.8503888245948
 20
116.025999961474
 30
0.0
 10
135.8503888245948
 20
116.025999961474
 30
0.0
  0
SPLINE
  5
87
330
79
100
AcDbEntity
  8
Layer 2
 62
    18
420
        0
370
     9
100
AcDbSpline
210
0.0
220
0.0
230
1.0
 70
     9
 71
     3
 72
    29
 73
    25
 74
     0
 42
0.0000000001
 43
0.0000000001
 40
0.0
 40
0.0
 40
0.0
 40
0.0
 40
1.0
 40
1.0
 40
1.0
 40
2.0
 40
2.0
 40
2.0
 40
3.0
 40
3.0
 40
3.0
 40
4.0
 40
4.0
 40
4.0
 40
5.0
 40
5.0
 40
5.0
 40
6.0
 40
6.0
 40
6.0
 40
7.0
 40
7.0
 40
7.0
 40
8.0
 40
8.0
 40
8.0
 40
8.0
 10
79.2003888387572
 20
102.5259999648492
 30
0.0
 10
78.92424646391039
 20
102.5259999648492
 30
0.0
 10
78.70038883888232
 20
102.7498575898779
 30
0.0
 10
78.70038883888232
 20
103.0259999647241
 30
0.0
 10
78.70038883888232
 20
103.0259999647241
 30
0.0
 10
78.70038883888232
 20
116.025999961474
 30
0.0
 10
78.70038883888232
 20
116.025999961474
 30
0.0
 10
78.70038883888232
 20
116.3021423363205
 30
0.0
 10
78.92424646391039
 20
116.5259999613486
 30
0.0
 10
79.2003888387572
 20
116.5259999613486
 30
0.0
 10
79.2003888387572
 20
116.5259999613486
 30
0.0
 10
92.20038883550714
 20
116.5259999613486
 30
0.0
 10
92.20038883550714
 20
116.5259999613486
 30
0.0
 10
92.47653121035364
 20
116.5259999613486
 30
0.0
 10
92.70038883538299
 20
116.3021423363205
 30
0.0
 10
92.70038883538299
 20
116.025999961474
 30
0.0
 10
92.70038883538299
 20
116.025999961474
 30
0.0
 10
92.70038883538299
 20
103.0259999647241
 30
0.0
 10
92.70038883538299
 20
103.0259999647241
 30
0.0
 10
92.70038883538299
 20
102.7498575898779
 30
0.0
 10
92.47653121035364
 20
102.5259999648492
 30
0.0
 10
92.20038883550714
 20
102.5259999648492
 30
0.0
 10
92.20038883550714
 20
102.5259999648492
 30
0.0
 10
79.2003888387572
 20
102.5259999648492
 30
0.0
 10
79.2003888387572
 20
102.5259999648492
 30
0.0
  0
SPLINE
  5
88
330
79
100
AcDbEntity
  8
Layer 2
 62
    18
420
        0
370
     9
100
AcDbSpline
210
0.0
220
0.0
230
1.0
 70
     9
 71
     3
 72
    29
 73
    25
 74
     0
 42
0.0000000001
 43
0.0000000001
 40
0.0
 40
0.0
 40
0.0
 40
0.0
 40
1.0
 40
1.0
 40
1.0
 40
2.0
 40
2.0
 40
2.0
 40
3.0
 40
3.0
 40
3.0
 40
4.0
 40
4.0
 40
4.0
 40
5.0
 40
5.0
 40
5.0
 40
6.0
 40
6.0
 40
6.0
 40
7.0
 40
7.0
 40
7.0
 40
8.0
 40
8.0
 40
8.0
 40
8.0
 10
307.300388781733
 20
135.0759999567109
 30
0.0
 10
307.300388781733
 20
135.3521423315568
 30
0.0
 10
307.5242464067604
 20
135.5759999565861
 30
0.0
 10
307.8003887816075
 20
135.5759999565861
 30
0.0
 10
307.8003887816075
 20
135.5759999565861
 30
0.0
 10
320.8003887783578
 20
135.5759999565861
 30
0.0
 10
320.8003887783578
 20
135.5759999565861
 30
0.0
 10
321.0765311532036
 20
135.5759999565861
 30
0.0
 10
321.3003887782337
 20
135.3521423315568
 30
0.0
 10
321.3003887782337
 20
135.0759999567109
 30
0.0
 10
321.3003887782337
 20
135.0759999567109
 30
0.0
 10
321.3003887782337
 20
122.0759999599616
 30
0.0
 10
321.3003887782337
 20
122.0759999599616
 30
0.0
 10
321.3003887782337
 20
121.7998575851148
 30
0.0
 10
321.0765311532036
 20
121.5759999600861
 30
0.0
 10
320.8003887783578
 20
121.5759999600861
 30
0.0
 10
320.8003887783578
 20
121.5759999600861
 30
0.0
 10
307.8003887816075
 20
121.5759999600861
 30
0.0
 10
307.8003887816075
 20
121.5759999600861
 30
0.0
 10
307.5242464067604
 20
121.5759999600861
 30
0.0
 10
307.300388781733
 20
121.7998575851148
 30
0.0
 10
307.300388781733
 20
122.0759999599616
 30
0.0
 10
307.300388781733
 20
122.0759999599616
 30
0.0
 10
307.300388781733
 20
135.0759999567109
 30
0.0
 10
307.300388781733
 20
135.0759999567109
 30
0.0
  0
SPLINE
  5
89
330
79
100
AcDbEntity
  8
Layer 2
 62
    18
420
        0
370
     9
100
AcDbSpline
210
0.0
220
0.0
230
1.0
 70
     9
 71
     3
 72
    29
 73
    25
 74
     0
 42
0.0000000001
 43
0.0000000001
 40
0.0
 40
0.0
 40
0.0
 40
0.0
 40
1.0
 40
1.0
 40
1.0
 40
2.0
 40
2.0
 40
2.0
 40
3.0
 40
3.0
 40
3.0
 40
4.0
 40
4.0
 40
4.0
 40
5.0
 40
5.0
 40
5.0
 40
6.0
 40
6.0
 40
6.0
 40
7.0
 40
7.0
 40
7.0
 40
8.0
 40
8.0
 40
8.0
 40
8.0
 10
111.2503888307446
 20
116.5259999613486
 30
0.0
 10
111.5265312055911
 20
116.5259999613486
 30
0.0
 10
111.7503888306205
 20
116.3021423363205
 30
0.0
 10
111.7503888306205
 20
116.025999961474
 30
0.0
 10
111.7503888306205
 20
116.025999961474
 30
0.0
 10
111.7503888306205
 20
103.0259999647241
 30
0.0
 10
111.7503888306205
 20
103.0259999647241
 30
0.0
 10
111.7503888306205
 20
102.7498575898779
 30
0.0
 10
111.5265312055911
 20
102.5259999648492
 30
0.0
 10
111.2503888307446
 20
102.5259999648492
 30
0.0
 10
111.2503888307446
 20
102.5259999648492
 30
0.0
 10
98.25038883399439
 20
102.5259999648492
 30
0.0
 10
98.25038883399439
 20
102.5259999648492
 30
0.0
 10
97.97424645914789
 20
102.5259999648492
 30
0.0
 10
97.75038883411982
 20
102.7498575898779
 30
0.0
 10
97.75038883411982
 20
103.0259999647241
 30
0.0
 10
97.75038883411982
 20
103.0259999647241
 30
0.0
 10
97.75038883411982
 20
116.025999961474
 30
0.0
 10
97.75038883411982
 20
116.025999961474
 30
0.0
 10
97.75038883411982
 20
116.3021423363205
 30
0.0
 10
97.97424645914789
 20
116.5259999613486
 30
0.0
 10
98.25038883399439
 20
116.5259999613486
 30
0.0
 10
98.25038883399439
 20
116.5259999613486
 30
0.0
 10
111.2503888307446
 20
116.5259999613486
 30
0.0
 10
111.2503888307446
 20
116.5259999613486
 30
0.0
  0
SPLINE
  5
8A
330
79
100
AcDbEntity
  8
Layer 2
 62
    18
420
        0
370
     9
100
AcDbSpline
210
0.0
220
0.0
230
1.0
 70
     9
 71
     3
 72
    29
 73
    25
 74
     0
 42
0.0000000001
 43
0.0000000001
 40
0.0
 40
0.0
 40
0.0
 40
0.0
 40
1.0
 40
1.0
 40
1.0
 40
2.0
 40
2.0
 40
2.0
 40
3.0
 40
3.0
 40
3.0
 40
4.0
 40
4.0
 40
4.0
 40
5.0
 40
5.0
 40
5.0
 40
6.0
 40
6.0
 40
6.0
 40
7.0
 40
7.0
 40
7.0
 40
8.0
 40
8.0
 40
8.0
 40
8.0
 10
288.2503887864942
 20
122.0759999599616
 30
0.0
 10
288.2503887864942
 20
122.0759999599616
 30
0.0
 10
288.2503887864942
 20
135.0759999567109
 30
0.0
 10
288.2503887864942
 20
135.0759999567109
 30
0.0
 10
288.2503887864942
 20
135.3521423315568
 30
0.0
 10
288.4742464115242
 20
135.5759999565861
 30
0.0
 10
288.7503887863707
 20
135.5759999565861
 30
0.0
 10
288.7503887863707
 20
135.5759999565861
 30
0.0
 10
301.7503887831203
 20
135.5759999565861
 30
0.0
 10
301.7503887831203
 20
135.5759999565861
 30
0.0
 10
302.0265311579661
 20
135.5759999565861
 30
0.0
 10
302.2503887829949
 20
135.3521423315568
 30
0.0
 10
302.2503887829949
 20
135.0759999567109
 30
0.0
 10
302.2503887829949
 20
135.0759999567109
 30
0.0
 10
302.2503887829949
 20
122.0759999599616
 30
0.0
 10
302.2503887829949
 20
122.0759999599616
 30
0.0
 10
302.2503887829949
 20
121.7998575851148
 30
0.0
 10
302.0265311579661
 20
121.5759999600861
 30
0.0
 10
301.7503887831203
 20
121.5759999600861
 30
0.0
 10
301.7503887831203
 20
121.5759999600861
 30
0.0
 10
288.7503887863707
 20
121.5759999600861
 30
0.0
 10
288.7503887863707
 20
121.5759999600861
 30
0.0
 10
288.4742464115242
 20
121.5759999600861
 30
0.0
 10
288.2503887864942
 20
121.7998575851148
 30
0.0
 10
288.2503887864942
 20
122.0759999599616
 30
0.0
  0
SPLINE
  5
8B
330
79
100
AcDbEntity
  8
Layer 2
 62
    18
420
        0
370
     9
100
AcDbSpline
210
0.0
220
0.0
230
1.0
 70
     9
 71
     3
 72
    29
 73
    25
 74
     0
 42
0.0000000001
 43
0.0000000001
 40
0.0
 40
0.0
 40
0.0
 40
0.0
 40
1.0
 40
1.0
 40
1.0
 40
2.0
 40
2.0
 40
2.0
 40
3.0
 40
3.0
 40
3.0
 40
4.0
 40
4.0
 40
4.0
 40
5.0
 40
5.0
 40
5.0
 40
6.0
 40
6.0
 40
6.0
 40
7.0
 40
7.0
 40
7.0
 40
8.0
 40
8.0
 40
8.0
 40
8.0
 10
92.70038883538299
 20
122.0759999599616
 30
0.0
 10
92.70038883538299
 20
121.7998575851148
 30
0.0
 10
92.47653121035364
 20
121.5759999600861
 30
0.0
 10
92.20038883550714
 20
121.5759999600861
 30
0.0
 10
92.20038883550714
 20
121.5759999600861
 30
0.0
 10
79.2003888387572
 20
121.5759999600861
 30
0.0
 10
79.2003888387572
 20
121.5759999600861
 30
0.0
 10
78.92424646391039
 20
121.5759999600861
 30
0.0
 10
78.70038883888232
 20
121.7998575851148
 30
0.0
 10
78.70038883888232
 20
122.0759999599616
 30
0.0
 10
78.70038883888232
 20
122.0759999599616
 30
0.0
 10
78.70038883888232
 20
135.0759999567109
 30
0.0
 10
78.70038883888232
 20
135.0759999567109
 30
0.0
 10
78.70038883888232
 20
135.3521423315568
 30
0.0
 10
78.92424646391039
 20
135.5759999565861
 30
0.0
 10
79.2003888387572
 20
135.5759999565861
 30
0.0
 10
79.2003888387572
 20
135.5759999565861
 30
0.0
 10
92.20038883550714
 20
135.5759999565861
 30
0.0
 10
92.20038883550714
 20
135.5759999565861
 30
0.0
 10
92.47653121035364
 20
135.5759999565861
 30
0.0
 10
92.70038883538299
 20
135.3521423315568
 30
0.0
 10
92.70038883538299
 20
135.0759999567109
 30
0.0
 10
92.70038883538299
 20
135.0759999567109
 30
0.0
 10
92.70038883538299
 20
122.0759999599616
 30
0.0
 10
92.70038883538299
 20
122.0759999599616
 30
0.0
  0
SPLINE
  5
8C
330
79
100
AcDbEntity
  8
Layer 2
 62
    18
420
        0
370
     9
100
AcDbSpline
210
0.0
220
0.0
230
1.0
 70
     9
 71
     3
 72
    29
 73
    25
 74
     0
 42
0.0000000001
 43
0.0000000001
 40
0.0
 40
0.0
 40
0.0
 40
0.0
 40
1.0
 40
1.0
 40
1.0
 40
2.0
 40
2.0
 40
2.0
 40
3.0
 40
3.0
 40
3.0
 40
4.0
 40
4.0
 40
4.0
 40
5.0
 40
5.0
 40
5.0
 40
6.0
 40
6.0
 40
6.0
 40
7.0
 40
7.0
 40
7.0
 40
8.0
 40
8.0
 40
8.0
 40
8.0
 10
98.25038883399439
 20
121.5759999600861
 30
0.0
 10
97.97424645914789
 20
121.5759999600861
 30
0.0
 10
97.75038883411982
 20
121.7998575851148
 30
0.0
 10
97.75038883411982
 20
122.0759999599616
 30
0.0
 10
97.75038883411982
 20
122.0759999599616
 30
0.0
 10
97.75038883411982
 20
135.0759999567109
 30
0.0
 10
97.75038883411982
 20
135.0759999567109
 30
0.0
 10
97.75038883411982
 20
135.3521423315568
 30
0.0
 10
97.97424645914789
 20
135.5759999565861
 30
0.0
 10
98.25038883399439
 20
135.5759999565861
 30
0.0
 10
98.25038883399439
 20
135.5759999565861
 30
0.0
 10
111.2503888307446
 20
135.5759999565861
 30
0.0
 10
111.2503888307446
 20
135.5759999565861
 30
0.0
 10
111.5265312055911
 20
135.5759999565861
 30
0.0
 10
111.7503888306205
 20
135.3521423315568
 30
0.0
 10
111.7503888306205
 20
135.0759999567109
 30
0.0
 10
111.7503888306205
 20
135.0759999567109
 30
0.0
 10
111.7503888306205
 20
122.0759999599616
 30
0.0
 10
111.7503888306205
 20
122.0759999599616
 30
0.0
 10
111.7503888306205
 20
121.7998575851148
 30
0.0
 10
111.5265312055911
 20
121.5759999600861
 30
0.0
 10
111.2503888307446
 20
121.5759999600861
 30
0.0
 10
111.2503888307446
 20
121.5759999600861
 30
0.0
 10
98.25038883399439
 20
121.5759999600861
 30
0.0
 10
98.25038883399439
 20
121.5759999600861
 30
0.0
  0
SPLINE
  5
8D
330
79
100
AcDbEntity
  8
Layer 2
 62
    18
420
        0
370
     9
100
AcDbSpline
210
0.0
220
0.0
230
1.0
 70
     9
 71
     3
 72
    29
 73
    25
 74
     0
 42
0.0000000001
 43
0.0000000001
 40
0.0
 40
0.0
 40
0.0
 40
0.0
 40
1.0
 40
1.0
 40
1.0
 40
2.0
 40
2.0
 40
2.0
 40
3.0
 40
3.0
 40
3.0
 40
4.0
 40
4.0
 40
4.0
 40
5.0
 40
5.0
 40
5.0
 40
6.0
 40
6.0
 40
6.0
 40
7.0
 40
7.0
 40
7.0
 40
8.0
 40
8.0
 40
8.0
 40
8.0
 10
117.3003888292319
 20
121.5759999600861
 30
0.0
 10
117.0242464543854
 20
121.5759999600861
 30
0.0
 10
116.8003888293573
 20
121.7998575851148
 30
0.0
 10
116.8003888293573
 20
122.0759999599616
 30
0.0
 10
116.8003888293573
 20
122.0759999599616
 30
0.0
 10
116.8003888293573
 20
135.0759999567109
 30
0.0
 10
116.8003888293573
 20
135.0759999567109
 30
0.0
 10
116.8003888293573
 20
135.3521423315568
 30
0.0
 10
117.0242464543854
 20
135.5759999565861
 30
0.0
 10
117.3003888292319
 20
135.5759999565861
 30
0.0
 10
117.3003888292319
 20
135.5759999565861
 30
0.0
 10
130.3003888259821
 20
135.5759999565861
 30
0.0
 10
130.3003888259821
 20
135.5759999565861
 30
0.0
 10
130.5765312008286
 20
135.5759999565861
 30
0.0
 10
130.800388825858
 20
135.3521423315568
 30
0.0
 10
130.800388825858
 20
135.0759999567109
 30
0.0
 10
130.800388825858
 20
135.0759999567109
 30
0.0
 10
130.800388825858
 20
122.0759999599616
 30
0.0
 10
130.800388825858
 20
122.0759999599616
 30
0.0
 10
130.800388825858
 20
121.7998575851148
 30
0.0
 10
130.5765312008286
 20
121.5759999600861
 30
0.0
 10
130.3003888259821
 20
121.5759999600861
 30
0.0
 10
130.3003888259821
 20
121.5759999600861
 30
0.0
 10
117.3003888292319
 20
121.5759999600861
 30
0.0
 10
117.3003888292319
 20
121.5759999600861
 30
0.0
  0
SPLINE
  5
8E
330
79
100
AcDbEntity
  8
Layer 2
 62
    18
420
        0
370
     9
100
AcDbSpline
210
0.0
220
0.0
230
1.0
 70
     9
 71
     3
 72
    29
 73
    25
 74
     0
 42
0.0000000001
 43
0.0000000001
 40
0.0
 40
0.0
 40
0.0
 40
0.0
 40
1.0
 40
1.0
 40
1.0
 40
2.0
 40
2.0
 40
2.0
 40
3.0
 40
3.0
 40
3.0
 40
4.0
 40
4.0
 40
4.0
 40
5.0
 40
5.0
 40
5.0
 40
6.0
 40
6.0
 40
6.0
 40
7.0
 40
7.0
 40
7.0
 40
8.0
 40
8.0
 40
8.0
 40
8.0
 10
149.3503888212196
 20
121.5759999600861
 30
0.0
 10
149.3503888212196
 20
121.5759999600861
 30
0.0
 10
136.3503888244693
 20
121.5759999600861
 30
0.0
 10
136.3503888244693
 20
121.5759999600861
 30
0.0
 10
136.0742464496235
 20
121.5759999600861
 30
0.0
 10
135.8503888245948
 20
121.7998575851148
 30
0.0
 10
135.8503888245948
 20
122.0759999599616
 30
0.0
 10
135.8503888245948
 20
122.0759999599616
 30
0.0
 10
135.8503888245948
 20
135.0759999567109
 30
0.0
 10
135.8503888245948
 20
135.0759999567109
 30
0.0
 10
135.8503888245948
 20
135.3521423315568
 30
0.0
 10
136.0742464496235
 20
135.5759999565861
 30
0.0
 10
136.3503888244693
 20
135.5759999565861
 30
0.0
 10
136.3503888244693
 20
135.5759999565861
 30
0.0
 10
149.3503888212196
 20
135.5759999565861
 30
0.0
 10
149.3503888212196
 20
135.5759999565861
 30
0.0
 10
149.6265311960661
 20
135.5759999565861
 30
0.0
 10
149.8503888210955
 20
135.3521423315568
 30
0.0
 10
149.8503888210955
 20
135.0759999567109
 30
0.0
 10
149.8503888210955
 20
135.0759999567109
 30
0.0
 10
149.8503888210955
 20
122.0759999599616
 30
0.0
 10
149.8503888210955
 20
122.0759999599616
 30
0.0
 10
149.8503888210955
 20
121.7998575851148
 30
0.0
 10
149.6265311960661
 20
121.5759999600861
 30
0.0
 10
149.3503888212196
 20
121.5759999600861
 30
0.0
  0
SPLINE
  5
8F
330
79
100
AcDbEntity
  8
Layer 2
 62
    18
420
        0
370
     9
100
AcDbSpline
210
0.0
220
0.0
230
1.0
 70
     9
 71
     3
 72
    29
 73
    25
 74
     0
 42
0.0000000001
 43
0.0000000001
 40
0.0
 40
0.0
 40
0.0
 40
0.0
 40
1.0
 40
1.0
 40
1.0
 40
2.0
 40
2.0
 40
2.0
 40
3.0
 40
3.0
 40
3.0
 40
4.0
 40
4.0
 40
4.0
 40
5.0
 40
5.0
 40
5.0
 40
6.0
 40
6.0
 40
6.0
 40
7.0
 40
7.0
 40
7.0
 40
8.0
 40
8.0
 40
8.0
 40
8.0
 10
212.0503888055442
 20
116.025999961474
 30
0.0
 10
212.0503888055442
 20
116.3021423363205
 30
0.0
 10
212.2742464305729
 20
116.5259999613486
 30
0.0
 10
212.5503888054213
 20
116.5259999613486
 30
0.0
 10
212.5503888054213
 20
116.5259999613486
 30
0.0
 10
225.5503888021703
 20
116.5259999613486
 30
0.0
 10
225.5503888021703
 20
116.5259999613486
 30
0.0
 10
225.8265311770161
 20
116.5259999613486
 30
0.0
 10
226.0503888020449
 20
116.3021423363205
 30
0.0
 10
226.0503888020449
 20
116.025999961474
 30
0.0
 10
226.0503888020449
 20
116.025999961474
 30
0.0
 10
226.0503888020449
 20
103.0259999647241
 30
0.0
 10
226.0503888020449
 20
103.0259999647241
 30
0.0
 10
226.0503888020449
 20
102.7498575898779
 30
0.0
 10
225.8265311770161
 20
102.5259999648492
 30
0.0
 10
225.5503888021703
 20
102.5259999648492
 30
0.0
 10
225.5503888021703
 20
102.5259999648492
 30
0.0
 10
212.5503888054213
 20
102.5259999648492
 30
0.0
 10
212.5503888054213
 20
102.5259999648492
 30
0.0
 10
212.2742464305729
 20
102.5259999648492
 30
0.0
 10
212.0503888055442
 20
102.7498575898779
 30
0.0
 10
212.0503888055442
 20
103.0259999647241
 30
0.0
 10
212.0503888055442
 20
103.0259999647241
 30
0.0
 10
212.0503888055442
 20
116.025999961474
 30
0.0
 10
212.0503888055442
 20
116.025999961474
 30
0.0
  0
SPLINE
  5
90
330
79
100
AcDbEntity
  8
Layer 2
 62
    18
420
        0
370
     9
100
AcDbSpline
210
0.0
220
0.0
230
1.0
 70
     9
 71
     3
 72
    29
 73
    25
 74
     0
 42
0.0000000001
 43
0.0000000001
 40
0.0
 40
0.0
 40
0.0
 40
0.0
 40
1.0
 40
1.0
 40
1.0
 40
2.0
 40
2.0
 40
2.0
 40
3.0
 40
3.0
 40
3.0
 40
4.0
 40
4.0
 40
4.0
 40
5.0
 40
5.0
 40
5.0
 40
6.0
 40
6.0
 40
6.0
 40
7.0
 40
7.0
 40
7.0
 40
8.0
 40
8.0
 40
8.0
 40
8.0
 10
121.2754595353084
 20
96.97600057895295
 30
0.0
 10
121.2754595353084
 20
96.97600057895295
 30
0.0
 10
121.2754595353084
 20
83.97600058220268
 30
0.0
 10
121.2754595353084
 20
83.97600058220268
 30
0.0
 10
121.2754595353084
 20
83.69985820735555
 30
0.0
 10
121.0516019102797
 20
83.47600058232684
 30
0.0
 10
120.7754595354332
 20
83.47600058232684
 30
0.0
 10
120.7754595354332
 20
83.47600058232684
 30
0.0
 10
107.7754595386836
 20
83.47600058232684
 30
0.0
 10
107.7754595386836
 20
83.47600058232684
 30
0.0
 10
107.4993171638374
 20
83.47600058232684
 30
0.0
 10
107.2754595388083
 20
83.69985820735555
 30
0.0
 10
107.2754595388083
 20
83.97600058220268
 30
0.0
 10
107.2754595388083
 20
83.97600058220268
 30
0.0
 10
107.2754595388083
 20
96.97600057895295
 30
0.0
 10
107.2754595388083
 20
96.97600057895295
 30
0.0
 10
107.2754595388083
 20
97.25214295379879
 30
0.0
 10
107.4993171638374
 20
97.47600057882751
 30
0.0
 10
107.7754595386836
 20
97.47600057882751
 30
0.0
 10
107.7754595386836
 20
97.47600057882751
 30
0.0
 10
120.7754595354332
 20
97.47600057882751
 30
0.0
 10
120.7754595354332
 20
97.47600057882751
 30
0.0
 10
121.0516019102797
 20
97.47600057882751
 30
0.0
 10
121.2754595353084
 20
97.25214295379879
 30
0.0
 10
121.2754595353084
 20
96.97600057895295
 30
0.0
  0
SPLINE
  5
91
330
79
100
AcDbEntity
  8
Layer 2
 62
    18
420
        0
370
     9
100
AcDbSpline
210
0.0
220
0.0
230
1.0
 70
     9
 71
     3
 72
    29
 73
    25
 74
     0
 42
0.0000000001
 43
0.0000000001
 40
0.0
 40
0.0
 40
0.0
 40
0.0
 40
1.0
 40
1.0
 40
1.0
 40
2.0
 40
2.0
 40
2.0
 40
3.0
 40
3.0
 40
3.0
 40
4.0
 40
4.0
 40
4.0
 40
5.0
 40
5.0
 40
5.0
 40
6.0
 40
6.0
 40
6.0
 40
7.0
 40
7.0
 40
7.0
 40
8.0
 40
8.0
 40
8.0
 40
8.0
 10
283.2003887877574
 20
116.025999961474
 30
0.0
 10
283.2003887877574
 20
116.025999961474
 30
0.0
 10
283.2003887877574
 20
103.0259999647241
 30
0.0
 10
283.2003887877574
 20
103.0259999647241
 30
0.0
 10
283.2003887877574
 20
102.7498575898779
 30
0.0
 10
282.9765311627286
 20
102.5259999648492
 30
0.0
 10
282.7003887878828
 20
102.5259999648492
 30
0.0
 10
282.7003887878828
 20
102.5259999648492
 30
0.0
 10
269.7003887911313
 20
102.5259999648492
 30
0.0
 10
269.7003887911313
 20
102.5259999648492
 30
0.0
 10
269.4242464162867
 20
102.5259999648492
 30
0.0
 10
269.2003887912567
 20
102.7498575898779
 30
0.0
 10
269.2003887912567
 20
103.0259999647241
 30
0.0
 10
269.2003887912567
 20
103.0259999647241
 30
0.0
 10
269.2003887912567
 20
116.025999961474
 30
0.0
 10
269.2003887912567
 20
116.025999961474
 30
0.0
 10
269.2003887912567
 20
116.3021423363205
 30
0.0
 10
269.4242464162867
 20
116.5259999613486
 30
0.0
 10
269.7003887911313
 20
116.5259999613486
 30
0.0
 10
269.7003887911313
 20
116.5259999613486
 30
0.0
 10
282.7003887878828
 20
116.5259999613486
 30
0.0
 10
282.7003887878828
 20
116.5259999613486
 30
0.0
 10
282.9765311627286
 20
116.5259999613486
 30
0.0
 10
283.2003887877574
 20
116.3021423363205
 30
0.0
 10
283.2003887877574
 20
116.025999961474
 30
0.0
  0
SPLINE
  5
92
330
79
100
AcDbEntity
  8
Layer 2
 62
    18
420
        0
370
     9
100
AcDbSpline
210
0.0
220
0.0
230
1.0
 70
     9
 71
     3
 72
    29
 73
    25
 74
     0
 42
0.0000000001
 43
0.0000000001
 40
0.0
 40
0.0
 40
0.0
 40
0.0
 40
1.0
 40
1.0
 40
1.0
 40
2.0
 40
2.0
 40
2.0
 40
3.0
 40
3.0
 40
3.0
 40
4.0
 40
4.0
 40
4.0
 40
5.0
 40
5.0
 40
5.0
 40
6.0
 40
6.0
 40
6.0
 40
7.0
 40
7.0
 40
7.0
 40
8.0
 40
8.0
 40
8.0
 40
8.0
 10
307.8003887816075
 20
102.5259999648492
 30
0.0
 10
307.5242464067604
 20
102.5259999648492
 30
0.0
 10
307.300388781733
 20
102.7498575898779
 30
0.0
 10
307.300388781733
 20
103.0259999647241
 30
0.0
 10
307.300388781733
 20
103.0259999647241
 30
0.0
 10
307.300388781733
 20
116.025999961474
 30
0.0
 10
307.300388781733
 20
116.025999961474
 30
0.0
 10
307.300388781733
 20
116.3021423363205
 30
0.0
 10
307.5242464067604
 20
116.5259999613486
 30
0.0
 10
307.8003887816075
 20
116.5259999613486
 30
0.0
 10
307.8003887816075
 20
116.5259999613486
 30
0.0
 10
320.8003887783578
 20
116.5259999613486
 30
0.0
 10
320.8003887783578
 20
116.5259999613486
 30
0.0
 10
321.0765311532036
 20
116.5259999613486
 30
0.0
 10
321.3003887782337
 20
116.3021423363205
 30
0.0
 10
321.3003887782337
 20
116.025999961474
 30
0.0
 10
321.3003887782337
 20
116.025999961474
 30
0.0
 10
321.3003887782337
 20
103.0259999647241
 30
0.0
 10
321.3003887782337
 20
103.0259999647241
 30
0.0
 10
321.3003887782337
 20
102.7498575898779
 30
0.0
 10
321.0765311532036
 20
102.5259999648492
 30
0.0
 10
320.8003887783578
 20
102.5259999648492
 30
0.0
 10
320.8003887783578
 20
102.5259999648492
 30
0.0
 10
307.8003887816075
 20
102.5259999648492
 30
0.0
 10
307.8003887816075
 20
102.5259999648492
 30
0.0
  0
SPLINE
  5
93
330
79
100
AcDbEntity
  8
Layer 2
 62
    18
420
        0
370
     9
100
AcDbSpline
210
0.0
220
0.0
230
1.0
 70
     9
 71
     3
 72
    29
 73
    25
 74
     0
 42
0.0000000001
 43
0.0000000001
 40
0.0
 40
0.0
 40
0.0
 40
0.0
 40
1.0
 40
1.0
 40
1.0
 40
2.0
 40
2.0
 40
2.0
 40
3.0
 40
3.0
 40
3.0
 40
4.0
 40
4.0
 40
4.0
 40
5.0
 40
5.0
 40
5.0
 40
6.0
 40
6.0
 40
6.0
 40
7.0
 40
7.0
 40
7.0
 40
8.0
 40
8.0
 40
8.0
 40
8.0
 10
244.6003887974078
 20
102.5259999648492
 30
0.0
 10
244.6003887974078
 20
102.5259999648492
 30
0.0
 10
231.6003888006588
 20
102.5259999648492
 30
0.0
 10
231.6003888006588
 20
102.5259999648492
 30
0.0
 10
231.3242464258104
 20
102.5259999648492
 30
0.0
 10
231.1003888007817
 20
102.7498575898779
 30
0.0
 10
231.1003888007817
 20
103.0259999647241
 30
0.0
 10
231.1003888007817
 20
103.0259999647241
 30
0.0
 10
231.1003888007817
 20
116.025999961474
 30
0.0
 10
231.1003888007817
 20
116.025999961474
 30
0.0
 10
231.1003888007817
 20
116.3021423363205
 30
0.0
 10
231.3242464258104
 20
116.5259999613486
 30
0.0
 10
231.6003888006588
 20
116.5259999613486
 30
0.0
 10
231.6003888006588
 20
116.5259999613486
 30
0.0
 10
244.6003887974078
 20
116.5259999613486
 30
0.0
 10
244.6003887974078
 20
116.5259999613486
 30
0.0
 10
244.8765311722536
 20
116.5259999613486
 30
0.0
 10
245.1003887972824
 20
116.3021423363205
 30
0.0
 10
245.1003887972824
 20
116.025999961474
 30
0.0
 10
245.1003887972824
 20
116.025999961474
 30
0.0
 10
245.1003887972824
 20
103.0259999647241
 30
0.0
 10
245.1003887972824
 20
103.0259999647241
 30
0.0
 10
245.1003887972824
 20
102.7498575898779
 30
0.0
 10
244.8765311722536
 20
102.5259999648492
 30
0.0
 10
244.6003887974078
 20
102.5259999648492
 30
0.0
  0
SPLINE
  5
94
330
79
100
AcDbEntity
  8
Layer 2
 62
    18
420
        0
370
     9
100
AcDbSpline
210
0.0
220
0.0
230
1.0
 70
     9
 71
     3
 72
    29
 73
    25
 74
     0
 42
0.0000000001
 43
0.0000000001
 40
0.0
 40
0.0
 40
0.0
 40
0.0
 40
1.0
 40
1.0
 40
1.0
 40
2.0
 40
2.0
 40
2.0
 40
3.0
 40
3.0
 40
3.0
 40
4.0
 40
4.0
 40
4.0
 40
5.0
 40
5.0
 40
5.0
 40
6.0
 40
6.0
 40
6.0
 40
7.0
 40
7.0
 40
7.0
 40
8.0
 40
8.0
 40
8.0
 40
8.0
 10
264.1503887925198
 20
103.0259999647241
 30
0.0
 10
264.1503887925198
 20
102.7498575898779
 30
0.0
 10
263.9265311674911
 20
102.5259999648492
 30
0.0
 10
263.650388792644
 20
102.5259999648492
 30
0.0
 10
263.650388792644
 20
102.5259999648492
 30
0.0
 10
250.650388795895
 20
102.5259999648492
 30
0.0
 10
250.650388795895
 20
102.5259999648492
 30
0.0
 10
250.3742464210492
 20
102.5259999648492
 30
0.0
 10
250.1503887960205
 20
102.7498575898779
 30
0.0
 10
250.1503887960205
 20
103.0259999647241
 30
0.0
 10
250.1503887960205
 20
103.0259999647241
 30
0.0
 10
250.1503887960205
 20
116.025999961474
 30
0.0
 10
250.1503887960205
 20
116.025999961474
 30
0.0
 10
250.1503887960205
 20
116.3021423363205
 30
0.0
 10
250.3742464210492
 20
116.5259999613486
 30
0.0
 10
250.650388795895
 20
116.5259999613486
 30
0.0
 10
250.650388795895
 20
116.5259999613486
 30
0.0
 10
263.650388792644
 20
116.5259999613486
 30
0.0
 10
263.650388792644
 20
116.5259999613486
 30
0.0
 10
263.9265311674911
 20
116.5259999613486
 30
0.0
 10
264.1503887925198
 20
116.3021423363205
 30
0.0
 10
264.1503887925198
 20
116.025999961474
 30
0.0
 10
264.1503887925198
 20
116.025999961474
 30
0.0
 10
264.1503887925198
 20
103.0259999647241
 30
0.0
 10
264.1503887925198
 20
103.0259999647241
 30
0.0
  0
SPLINE
  5
95
330
79
100
AcDbEntity
  8
Layer 2
 62
    18
420
        0
370
     9
100
AcDbSpline
210
0.0
220
0.0
230
1.0
 70
     9
 71
     3
 72
    29
 73
    25
 74
     0
 42
0.0000000001
 43
0.0000000001
 40
0.0
 40
0.0
 40
0.0
 40
0.0
 40
1.0
 40
1.0
 40
1.0
 40
2.0
 40
2.0
 40
2.0
 40
3.0
 40
3.0
 40
3.0
 40
4.0
 40
4.0
 40
4.0
 40
5.0
 40
5.0
 40
5.0
 40
6.0
 40
6.0
 40
6.0
 40
7.0
 40
7.0
 40
7.0
 40
8.0
 40
8.0
 40
8.0
 40
8.0
 10
288.2503887864942
 20
103.0259999647241
 30
0.0
 10
288.2503887864942
 20
103.0259999647241
 30
0.0
 10
288.2503887864942
 20
116.025999961474
 30
0.0
 10
288.2503887864942
 20
116.025999961474
 30
0.0
 10
288.2503887864942
 20
116.3021423363205
 30
0.0
 10
288.4742464115242
 20
116.5259999613486
 30
0.0
 10
288.7503887863707
 20
116.5259999613486
 30
0.0
 10
288.7503887863707
 20
116.5259999613486
 30
0.0
 10
301.7503887831203
 20
116.5259999613486
 30
0.0
 10
301.7503887831203
 20
116.5259999613486
 30
0.0
 10
302.0265311579661
 20
116.5259999613486
 30
0.0
 10
302.2503887829949
 20
116.3021423363205
 30
0.0
 10
302.2503887829949
 20
116.025999961474
 30
0.0
 10
302.2503887829949
 20
116.025999961474
 30
0.0
 10
302.2503887829949
 20
103.0259999647241
 30
0.0
 10
302.2503887829949
 20
103.0259999647241
 30
0.0
 10
302.2503887829949
 20
102.7498575898779
 30
0.0
 10
302.0265311579661
 20
102.5259999648492
 30
0.0
 10
301.7503887831203
 20
102.5259999648492
 30
0.0
 10
301.7503887831203
 20
102.5259999648492
 30
0.0
 10
288.7503887863707
 20
102.5259999648492
 30
0.0
 10
288.7503887863707
 20
102.5259999648492
 30
0.0
 10
288.4742464115242
 20
102.5259999648492
 30
0.0
 10
288.2503887864942
 20
102.7498575898779
 30
0.0
 10
288.2503887864942
 20
103.0259999647241
 30
0.0
  0
SPLINE
  5
96
330
79
100
AcDbEntity
  8
Layer 2
 62
    18
420
        0
370
     9
100
AcDbSpline
210
0.0
220
0.0
230
1.0
 70
     9
 71
     3
 72
    29
 73
    25
 74
     0
 42
0.0000000001
 43
0.0000000001
 40
0.0
 40
0.0
 40
0.0
 40
0.0
 40
1.0
 40
1.0
 40
1.0
 40
2.0
 40
2.0
 40
2.0
 40
3.0
 40
3.0
 40
3.0
 40
4.0
 40
4.0
 40
4.0
 40
5.0
 40
5.0
 40
5.0
 40
6.0
 40
6.0
 40
6.0
 40
7.0
 40
7.0
 40
7.0
 40
8.0
 40
8.0
 40
8.0
 40
8.0
 10
178.4254595210209
 20
83.97600058220268
 30
0.0
 10
178.4254595210209
 20
83.69985820735555
 30
0.0
 10
178.2016018959935
 20
83.47600058232684
 30
0.0
 10
177.9254595211463
 20
83.47600058232684
 30
0.0
 10
177.9254595211463
 20
83.47600058232684
 30
0.0
 10
164.9254595243961
 20
83.47600058232684
 30
0.0
 10
164.9254595243961
 20
83.47600058232684
 30
0.0
 10
164.6493171495499
 20
83.47600058232684
 30
0.0
 10
164.4254595245208
 20
83.69985820735683
 30
0.0
 10
164.4254595245208
 20
83.97600058220268
 30
0.0
 10
164.4254595245208
 20
83.97600058220268
 30
0.0
 10
164.4254595245208
 20
96.97600057895295
 30
0.0
 10
164.4254595245208
 20
96.97600057895295
 30
0.0
 10
164.4254595245208
 20
97.25214295379879
 30
0.0
 10
164.6493171495499
 20
97.47600057882751
 30
0.0
 10
164.9254595243961
 20
97.47600057882751
 30
0.0
 10
164.9254595243961
 20
97.47600057882751
 30
0.0
 10
177.9254595211463
 20
97.47600057882751
 30
0.0
 10
177.9254595211463
 20
97.47600057882751
 30
0.0
 10
178.2016018959935
 20
97.47600057882751
 30
0.0
 10
178.4254595210209
 20
97.25214295379879
 30
0.0
 10
178.4254595210209
 20
96.97600057895295
 30
0.0
 10
178.4254595210209
 20
96.97600057895295
 30
0.0
 10
178.4254595210209
 20
83.97600058220268
 30
0.0
 10
178.4254595210209
 20
83.97600058220268
 30
0.0
  0
SPLINE
  5
97
330
79
100
AcDbEntity
  8
Layer 2
 62
    18
420
        0
370
     9
100
AcDbSpline
210
0.0
220
0.0
230
1.0
 70
     9
 71
     3
 72
    29
 73
    25
 74
     0
 42
0.0000000001
 43
0.0000000001
 40
0.0
 40
0.0
 40
0.0
 40
0.0
 40
1.0
 40
1.0
 40
1.0
 40
2.0
 40
2.0
 40
2.0
 40
3.0
 40
3.0
 40
3.0
 40
4.0
 40
4.0
 40
4.0
 40
5.0
 40
5.0
 40
5.0
 40
6.0
 40
6.0
 40
6.0
 40
7.0
 40
7.0
 40
7.0
 40
8.0
 40
8.0
 40
8.0
 40
8.0
 10
183.9754595196336
 20
83.47600058232684
 30
0.0
 10
183.6993171447874
 20
83.47600058232684
 30
0.0
 10
183.4754595197584
 20
83.69985820735555
 30
0.0
 10
183.4754595197584
 20
83.97600058220268
 30
0.0
 10
183.4754595197584
 20
83.97600058220268
 30
0.0
 10
183.4754595197584
 20
96.97600057895295
 30
0.0
 10
183.4754595197584
 20
96.97600057895295
 30
0.0
 10
183.4754595197584
 20
97.25214295379879
 30
0.0
 10
183.6993171447874
 20
97.47600057882751
 30
0.0
 10
183.9754595196336
 20
97.47600057882751
 30
0.0
 10
183.9754595196336
 20
97.47600057882751
 30
0.0
 10
196.9754595163838
 20
97.47600057882751
 30
0.0
 10
196.9754595163838
 20
97.47600057882751
 30
0.0
 10
197.251601891231
 20
97.47600057882751
 30
0.0
 10
197.475459516259
 20
97.25214295379879
 30
0.0
 10
197.475459516259
 20
96.97600057895295
 30
0.0
 10
197.475459516259
 20
96.97600057895295
 30
0.0
 10
197.475459516259
 20
83.97600058220268
 30
0.0
 10
197.475459516259
 20
83.97600058220268
 30
0.0
 10
197.475459516259
 20
83.69985820735555
 30
0.0
 10
197.251601891231
 20
83.47600058232684
 30
0.0
 10
196.9754595163838
 20
83.47600058232684
 30
0.0
 10
196.9754595163838
 20
83.47600058232684
 30
0.0
 10
183.9754595196336
 20
83.47600058232684
 30
0.0
 10
183.9754595196336
 20
83.47600058232684
 30
0.0
  0
SPLINE
  5
98
330
79
100
AcDbEntity
  8
Layer 2
 62
    18
420
        0
370
     9
100
AcDbSpline
210
0.0
220
0.0
230
1.0
 70
     9
 71
     3
 72
    29
 73
    25
 74
     0
 42
0.0000000001
 43
0.0000000001
 40
0.0
 40
0.0
 40
0.0
 40
0.0
 40
1.0
 40
1.0
 40
1.0
 40
2.0
 40
2.0
 40
2.0
 40
3.0
 40
3.0
 40
3.0
 40
4.0
 40
4.0
 40
4.0
 40
5.0
 40
5.0
 40
5.0
 40
6.0
 40
6.0
 40
6.0
 40
7.0
 40
7.0
 40
7.0
 40
8.0
 40
8.0
 40
8.0
 40
8.0
 10
159.3754595257834
 20
83.97600058220268
 30
0.0
 10
159.3754595257834
 20
83.69985820735555
 30
0.0
 10
159.1516019007547
 20
83.47600058232684
 30
0.0
 10
158.8754595259088
 20
83.47600058232684
 30
0.0
 10
158.8754595259088
 20
83.47600058232684
 30
0.0
 10
145.8754595291586
 20
83.47600058232684
 30
0.0
 10
145.8754595291586
 20
83.47600058232684
 30
0.0
 10
145.5993171543124
 20
83.47600058232684
 30
0.0
 10
145.3754595292833
 20
83.69985820735555
 30
0.0
 10
145.3754595292833
 20
83.97600058220268
 30
0.0
 10
145.3754595292833
 20
83.97600058220268
 30
0.0
 10
145.3754595292833
 20
96.97600057895295
 30
0.0
 10
145.3754595292833
 20
96.97600057895295
 30
0.0
 10
145.3754595292833
 20
97.25214295379879
 30
0.0
 10
145.5993171543124
 20
97.47600057882751
 30
0.0
 10
145.8754595291586
 20
97.47600057882751
 30
0.0
 10
145.8754595291586
 20
97.47600057882751
 30
0.0
 10
158.8754595259088
 20
97.47600057882751
 30
0.0
 10
158.8754595259088
 20
97.47600057882751
 30
0.0
 10
159.1516019007547
 20
97.47600057882751
 30
0.0
 10
159.3754595257834
 20
97.25214295379879
 30
0.0
 10
159.3754595257834
 20
96.97600057895295
 30
0.0
 10
159.3754595257834
 20
96.97600057895295
 30
0.0
 10
159.3754595257834
 20
83.97600058220268
 30
0.0
 10
159.3754595257834
 20
83.97600058220268
 30
0.0
  0
SPLINE
  5
99
330
79
100
AcDbEntity
  8
Layer 2
 62
    18
420
        0
370
     9
100
AcDbSpline
210
0.0
220
0.0
230
1.0
 70
     9
 71
     3
 72
    29
 73
    25
 74
     0
 42
0.0000000001
 43
0.0000000001
 40
0.0
 40
0.0
 40
0.0
 40
0.0
 40
1.0
 40
1.0
 40
1.0
 40
2.0
 40
2.0
 40
2.0
 40
3.0
 40
3.0
 40
3.0
 40
4.0
 40
4.0
 40
4.0
 40
5.0
 40
5.0
 40
5.0
 40
6.0
 40
6.0
 40
6.0
 40
7.0
 40
7.0
 40
7.0
 40
8.0
 40
8.0
 40
8.0
 40
8.0
 10
139.8254595306707
 20
97.47600057882751
 30
0.0
 10
140.1016019055172
 20
97.47600057882751
 30
0.0
 10
140.3254595305459
 20
97.25214295379879
 30
0.0
 10
140.3254595305459
 20
96.97600057895295
 30
0.0
 10
140.3254595305459
 20
96.97600057895295
 30
0.0
 10
140.3254595305459
 20
83.97600058220268
 30
0.0
 10
140.3254595305459
 20
83.97600058220268
 30
0.0
 10
140.3254595305459
 20
83.69985820735555
 30
0.0
 10
140.1016019055172
 20
83.47600058232684
 30
0.0
 10
139.8254595306707
 20
83.47600058232684
 30
0.0
 10
139.8254595306707
 20
83.47600058232684
 30
0.0
 10
126.8254595339211
 20
83.47600058232684
 30
0.0
 10
126.8254595339211
 20
83.47600058232684
 30
0.0
 10
126.5493171590749
 20
83.47600058232684
 30
0.0
 10
126.3254595340459
 20
83.69985820735555
 30
0.0
 10
126.3254595340459
 20
83.97600058220268
 30
0.0
 10
126.3254595340459
 20
83.97600058220268
 30
0.0
 10
126.3254595340459
 20
96.97600057895295
 30
0.0
 10
126.3254595340459
 20
96.97600057895295
 30
0.0
 10
126.3254595340459
 20
97.25214295379879
 30
0.0
 10
126.5493171590749
 20
97.47600057882751
 30
0.0
 10
126.8254595339211
 20
97.47600057882751
 30
0.0
 10
126.8254595339211
 20
97.47600057882751
 30
0.0
 10
139.8254595306707
 20
97.47600057882751
 30
0.0
 10
139.8254595306707
 20
97.47600057882751
 30
0.0
  0
SPLINE
  5
9A
330
79
100
AcDbEntity
  8
Layer 2
 62
    18
420
        0
370
     9
100
AcDbSpline
210
0.0
220
0.0
230
1.0
 70
     9
 71
     3
 72
    29
 73
    25
 74
     0
 42
0.0000000001
 43
0.0000000001
 40
0.0
 40
0.0
 40
0.0
 40
0.0
 40
1.0
 40
1.0
 40
1.0
 40
2.0
 40
2.0
 40
2.0
 40
3.0
 40
3.0
 40
3.0
 40
4.0
 40
4.0
 40
4.0
 40
5.0
 40
5.0
 40
5.0
 40
6.0
 40
6.0
 40
6.0
 40
7.0
 40
7.0
 40
7.0
 40
8.0
 40
8.0
 40
8.0
 40
8.0
 10
202.5254595149946
 20
83.97600058220268
 30
0.0
 10
202.5254595149946
 20
83.97600058220268
 30
0.0
 10
202.5254595149946
 20
96.97600057895295
 30
0.0
 10
202.5254595149946
 20
96.97600057895295
 30
0.0
 10
202.5254595149946
 20
97.25214295379879
 30
0.0
 10
202.7493171400233
 20
97.47600057882751
 30
0.0
 10
203.0254595148717
 20
97.47600057882751
 30
0.0
 10
203.0254595148717
 20
97.47600057882751
 30
0.0
 10
216.0254595116207
 20
97.47600057882751
 30
0.0
 10
216.0254595116207
 20
97.47600057882751
 30
0.0
 10
216.3016018864666
 20
97.47600057882751
 30
0.0
 10
216.5254595114952
 20
97.25214295379879
 30
0.0
 10
216.5254595114952
 20
96.97600057895295
 30
0.0
 10
216.5254595114952
 20
96.97600057895295
 30
0.0
 10
216.5254595114952
 20
83.97600058220268
 30
0.0
 10
216.5254595114952
 20
83.97600058220268
 30
0.0
 10
216.5254595114952
 20
83.69985820735555
 30
0.0
 10
216.3016018864666
 20
83.47600058232684
 30
0.0
 10
216.0254595116207
 20
83.47600058232684
 30
0.0
 10
216.0254595116207
 20
83.47600058232684
 30
0.0
 10
203.0254595148717
 20
83.47600058232684
 30
0.0
 10
203.0254595148717
 20
83.47600058232684
 30
0.0
 10
202.7493171400233
 20
83.47600058232684
 30
0.0
 10
202.5254595149946
 20
83.69985820735555
 30
0.0
 10
202.5254595149946
 20
83.97600058220268
 30
0.0
  0
SPLINE
  5
9B
330
79
100
AcDbEntity
  8
Layer 2
 62
    18
420
        0
370
     9
100
AcDbSpline
210
0.0
220
0.0
230
1.0
 70
     9
 71
     3
 72
    29
 73
    25
 74
     0
 42
0.0000000001
 43
0.0000000001
 40
0.0
 40
0.0
 40
0.0
 40
0.0
 40
1.0
 40
1.0
 40
1.0
 40
2.0
 40
2.0
 40
2.0
 40
3.0
 40
3.0
 40
3.0
 40
4.0
 40
4.0
 40
4.0
 40
5.0
 40
5.0
 40
5.0
 40
6.0
 40
6.0
 40
6.0
 40
7.0
 40
7.0
 40
7.0
 40
8.0
 40
8.0
 40
8.0
 40
8.0
 10
222.0754595101092
 20
97.47600057882751
 30
0.0
 10
222.0754595101092
 20
97.47600057882751
 30
0.0
 10
235.0754595068582
 20
97.47600057882751
 30
0.0
 10
235.0754595068582
 20
97.47600057882751
 30
0.0
 10
235.3516018817041
 20
97.47600057882751
 30
0.0
 10
235.5754595067328
 20
97.25214295379879
 30
0.0
 10
235.5754595067328
 20
96.97600057895295
 30
0.0
 10
235.5754595067328
 20
96.97600057895295
 30
0.0
 10
235.5754595067328
 20
83.97600058220268
 30
0.0
 10
235.5754595067328
 20
83.97600058220268
 30
0.0
 10
235.5754595067328
 20
83.69985820735555
 30
0.0
 10
235.3516018817041
 20
83.47600058232684
 30
0.0
 10
235.0754595068582
 20
83.47600058232684
 30
0.0
 10
235.0754595068582
 20
83.47600058232684
 30
0.0
 10
222.0754595101092
 20
83.47600058232684
 30
0.0
 10
222.0754595101092
 20
83.47600058232684
 30
0.0
 10
221.7993171352608
 20
83.47600058232684
 30
0.0
 10
221.5754595102321
 20
83.69985820735555
 30
0.0
 10
221.5754595102321
 20
83.97600058220268
 30
0.0
 10
221.5754595102321
 20
83.97600058220268
 30
0.0
 10
221.5754595102321
 20
96.97600057895295
 30
0.0
 10
221.5754595102321
 20
96.97600057895295
 30
0.0
 10
221.5754595102321
 20
97.25214295379879
 30
0.0
 10
221.7993171352608
 20
97.47600057882751
 30
0.0
 10
222.0754595101092
 20
97.47600057882751
 30
0.0
  0
SPLINE
  5
9C
330
79
100
AcDbEntity
  8
Layer 2
 62
    18
420
        0
370
     9
100
AcDbSpline
210
0.0
220
0.0
230
1.0
 70
     9
 71
     3
 72
    29
 73
    25
 74
     0
 42
0.0000000001
 43
0.0000000001
 40
0.0
 40
0.0
 40
0.0
 40
0.0
 40
1.0
 40
1.0
 40
1.0
 40
2.0
 40
2.0
 40
2.0
 40
3.0
 40
3.0
 40
3.0
 40
4.0
 40
4.0
 40
4.0
 40
5.0
 40
5.0
 40
5.0
 40
6.0
 40
6.0
 40
6.0
 40
7.0
 40
7.0
 40
7.0
 40
8.0
 40
8.0
 40
8.0
 40
8.0
 10
241.1254595053454
 20
83.47600058232684
 30
0.0
 10
240.8493171304996
 20
83.47600058232684
 30
0.0
 10
240.6254595054709
 20
83.69985820735555
 30
0.0
 10
240.6254595054709
 20
83.97600058220268
 30
0.0
 10
240.6254595054709
 20
83.97600058220268
 30
0.0
 10
240.6254595054709
 20
96.97600057895295
 30
0.0
 10
240.6254595054709
 20
96.97600057895295
 30
0.0
 10
240.6254595054709
 20
97.25214295379879
 30
0.0
 10
240.8493171304996
 20
97.47600057882751
 30
0.0
 10
241.1254595053454
 20
97.47600057882751
 30
0.0
 10
241.1254595053454
 20
97.47600057882751
 30
0.0
 10
254.1254595020944
 20
97.47600057882751
 30
0.0
 10
254.1254595020944
 20
97.47600057882751
 30
0.0
 10
254.4016018769415
 20
97.47600057882751
 30
0.0
 10
254.6254595019703
 20
97.25214295379879
 30
0.0
 10
254.6254595019703
 20
96.97600057895295
 30
0.0
 10
254.6254595019703
 20
96.97600057895295
 30
0.0
 10
254.6254595019703
 20
83.97600058220268
 30
0.0
 10
254.6254595019703
 20
83.97600058220268
 30
0.0
 10
254.6254595019703
 20
83.69985820735555
 30
0.0
 10
254.4016018769415
 20
83.47600058232684
 30
0.0
 10
254.1254595020944
 20
83.47600058232684
 30
0.0
 10
254.1254595020944
 20
83.47600058232684
 30
0.0
 10
241.1254595053454
 20
83.47600058232684
 30
0.0
 10
241.1254595053454
 20
83.47600058232684
 30
0.0
  0
SPLINE
  5
9D
330
79
100
AcDbEntity
  8
Layer 2
 62
    18
420
        0
370
     9
100
AcDbSpline
210
0.0
220
0.0
230
1.0
 70
     9
 71
     3
 72
    29
 73
    25
 74
     0
 42
0.0000000001
 43
0.0000000001
 40
0.0
 40
0.0
 40
0.0
 40
0.0
 40
1.0
 40
1.0
 40
1.0
 40
2.0
 40
2.0
 40
2.0
 40
3.0
 40
3.0
 40
3.0
 40
4.0
 40
4.0
 40
4.0
 40
5.0
 40
5.0
 40
5.0
 40
6.0
 40
6.0
 40
6.0
 40
7.0
 40
7.0
 40
7.0
 40
8.0
 40
8.0
 40
8.0
 40
8.0
 10
278.7254594959446
 20
83.97600058220268
 30
0.0
 10
278.7254594959446
 20
83.97600058220268
 30
0.0
 10
278.7254594959446
 20
96.97600057895295
 30
0.0
 10
278.7254594959446
 20
96.97600057895295
 30
0.0
 10
278.7254594959446
 20
97.25214295379879
 30
0.0
 10
278.9493171209746
 20
97.47600057882751
 30
0.0
 10
279.2254594958205
 20
97.47600057882751
 30
0.0
 10
279.2254594958205
 20
97.47600057882751
 30
0.0
 10
292.2254594925707
 20
97.47600057882751
 30
0.0
 10
292.2254594925707
 20
97.47600057882751
 30
0.0
 10
292.5016018674166
 20
97.47600057882751
 30
0.0
 10
292.7254594924453
 20
97.25214295379879
 30
0.0
 10
292.7254594924453
 20
96.97600057895295
 30
0.0
 10
292.7254594924453
 20
96.97600057895295
 30
0.0
 10
292.7254594924453
 20
83.97600058220268
 30
0.0
 10
292.7254594924453
 20
83.97600058220268
 30
0.0
 10
292.7254594924453
 20
83.69985820735555
 30
0.0
 10
292.5016018674166
 20
83.47600058232684
 30
0.0
 10
292.2254594925707
 20
83.47600058232684
 30
0.0
 10
292.2254594925707
 20
83.47600058232684
 30
0.0
 10
279.2254594958205
 20
83.47600058232684
 30
0.0
 10
279.2254594958205
 20
83.47600058232684
 30
0.0
 10
278.9493171209746
 20
83.47600058232684
 30
0.0
 10
278.7254594959446
 20
83.69985820735555
 30
0.0
 10
278.7254594959446
 20
83.97600058220268
 30
0.0
  0
SPLINE
  5
9E
330
79
100
AcDbEntity
  8
Layer 2
 62
    18
420
        0
370
     9
100
AcDbSpline
210
0.0
220
0.0
230
1.0
 70
     9
 71
     3
 72
    29
 73
    25
 74
     0
 42
0.0000000001
 43
0.0000000001
 40
0.0
 40
0.0
 40
0.0
 40
0.0
 40
1.0
 40
1.0
 40
1.0
 40
2.0
 40
2.0
 40
2.0
 40
3.0
 40
3.0
 40
3.0
 40
4.0
 40
4.0
 40
4.0
 40
5.0
 40
5.0
 40
5.0
 40
6.0
 40
6.0
 40
6.0
 40
7.0
 40
7.0
 40
7.0
 40
8.0
 40
8.0
 40
8.0
 40
8.0
 10
259.6754595007071
 20
96.97600057895295
 30
0.0
 10
259.6754595007071
 20
97.25214295379879
 30
0.0
 10
259.8993171257371
 20
97.47600057882751
 30
0.0
 10
260.1754595005817
 20
97.47600057882751
 30
0.0
 10
260.1754595005817
 20
97.47600057882751
 30
0.0
 10
273.1754594973332
 20
97.47600057882751
 30
0.0
 10
273.1754594973332
 20
97.47600057882751
 30
0.0
 10
273.4516018721791
 20
97.47600057882751
 30
0.0
 10
273.6754594972078
 20
97.25214295379879
 30
0.0
 10
273.6754594972078
 20
96.97600057895295
 30
0.0
 10
273.6754594972078
 20
96.97600057895295
 30
0.0
 10
273.6754594972078
 20
83.97600058220268
 30
0.0
 10
273.6754594972078
 20
83.97600058220268
 30
0.0
 10
273.6754594972078
 20
83.69985820735555
 30
0.0
 10
273.4516018721791
 20
83.47600058232684
 30
0.0
 10
273.1754594973332
 20
83.47600058232684
 30
0.0
 10
273.1754594973332
 20
83.47600058232684
 30
0.0
 10
260.1754595005817
 20
83.47600058232684
 30
0.0
 10
260.1754595005817
 20
83.47600058232684
 30
0.0
 10
259.8993171257371
 20
83.47600058232684
 30
0.0
 10
259.6754595007071
 20
83.69985820735555
 30
0.0
 10
259.6754595007071
 20
83.97600058220268
 30
0.0
 10
259.6754595007071
 20
83.97600058220268
 30
0.0
 10
259.6754595007071
 20
96.97600057895295
 30
0.0
 10
259.6754595007071
 20
96.97600057895295
 30
0.0
  0
SPLINE
  5
9F
330
79
100
AcDbEntity
  8
Layer 2
 62
    18
420
        0
370
     9
100
AcDbSpline
210
0.0
220
0.0
230
1.0
 70
     9
 71
     3
 72
    29
 73
    25
 74
     0
 42
0.0000000001
 43
0.0000000001
 40
0.0
 40
0.0
 40
0.0
 40
0.0
 40
1.0
 40
1.0
 40
1.0
 40
2.0
 40
2.0
 40
2.0
 40
3.0
 40
3.0
 40
3.0
 40
4.0
 40
4.0
 40
4.0
 40
5.0
 40
5.0
 40
5.0
 40
6.0
 40
6.0
 40
6.0
 40
7.0
 40
7.0
 40
7.0
 40
8.0
 40
8.0
 40
8.0
 40
8.0
 10
133.8192782522876
 20
123.6062959768381
 30
0.0
 10
133.8192782522876
 20
123.6062959768381
 30
0.0
 10
132.8314993981641
 20
123.6062959768381
 30
0.0
 10
132.8314993981641
 20
123.6062959768381
 30
0.0
 10
132.5492760994208
 20
123.6062959768381
 30
0.0
 10
132.3376126625834
 20
123.8179621051557
 30
0.0
 10
132.3376126625834
 20
124.1001854038997
 30
0.0
 10
132.3376126625834
 20
124.1001854038997
 30
0.0
 10
132.3376126625834
 20
127.0987965142612
 30
0.0
 10
132.3376126625834
 20
127.0987965142612
 30
0.0
 10
132.3376126625834
 20
127.3810184672648
 30
0.0
 10
132.5492814823818
 20
127.5926859413231
 30
0.0
 10
132.8314993981641
 20
127.5926859413231
 30
0.0
 10
132.8314993981641
 20
127.5926859413231
 30
0.0
 10
133.8192782522876
 20
127.5926859413231
 30
0.0
 10
133.8192782522876
 20
127.5926859413231
 30
0.0
 10
134.1015015510313
 20
127.5926859413231
 30
0.0
 10
134.3131649878687
 20
127.3810198130049
 30
0.0
 10
134.3131649878687
 20
127.0987965142612
 30
0.0
 10
134.3131649878687
 20
127.0987965142612
 30
0.0
 10
134.3131649878687
 20
124.1001854038997
 30
0.0
 10
134.3131649878687
 20
124.1001854038997
 30
0.0
 10
134.3131649878687
 20
123.8532420361091
 30
0.0
 10
134.1015015510313
 20
123.6062959768381
 30
0.0
 10
133.8192782522876
 20
123.6062959768381
 30
0.0
  0
CIRCLE
  5
A0
330
79
100
AcDbEntity
  8
Layer 2
 62
    18
420
        0
370
     9
100
AcDbCircle
 10
192.0005020748531
 20
135.102380497408
 30
0.0
 40
0.9878887961221694
  0
CIRCLE
  5
A1
330
79
100
AcDbEntity
  8
Layer 2
 62
    18
420
        0
370
     9
100
AcDbCircle
 10
208.0005020708531
 20
135.102380497408
 30
0.0
 40
0.987775531826541
  0
CIRCLE
  5
A2
330
79
100
AcDbEntity
  8
Layer 2
 62
    18
420
        0
370
     9
100
AcDbCircle
 10
192.0005020748531
 20
102.9996032323087
 30
0.0
 40
0.9878887961220891
  0
CIRCLE
  5
A3
330
79
100
AcDbEntity
  8
Layer 2
 62
    18
420
        0
370
     9
100
AcDbCircle
 10
208.0005020708531
 20
102.9996032323087
 30
0.0
 40
0.9877755318265009
  0
SPLINE
  5
A4
330
79
100
AcDbEntity
  8
Layer 2
 62
    18
420
        0
370
     9
100
AcDbSpline
210
0.0
220
0.0
230
1.0
 70
     9
 71
     3
 72
    29
 73
    25
 74
     0
 42
0.0000000001
 43
0.0000000001
 40
0.0
 40
0.0
 40
0.0
 40
0.0
 40
1.0
 40
1.0
 40
1.0
 40
2.0
 40
2.0
 40
2.0
 40
3.0
 40
3.0
 40
3.0
 40
4.0
 40
4.0
 40
4.0
 40
5.0
 40
5.0
 40
5.0
 40
6.0
 40
6.0
 40
6.0
 40
7.0
 40
7.0
 40
7.0
 40
8.0
 40
8.0
 40
8.0
 40
8.0
 10
205.2508888072453
 20
101.0509999652179
 30
0.0
 10
205.2508888072453
 20
101.0509999652179
 30
0.0
 10
194.74988880987
 20
101.0509999652179
 30
0.0
 10
194.74988880987
 20
101.0509999652179
 30
0.0
 10
194.4737464350242
 20
101.0509999652179
 30
0.0
 10
194.2498888099948
 20
101.2748575902466
 30
0.0
 10
194.2498888099948
 20
101.5509999650925
 30
0.0
 10
194.2498888099948
 20
101.5509999650925
 30
0.0
 10
194.2498888099948
 20
136.5509999563432
 30
0.0
 10
194.2498888099948
 20
136.5509999563432
 30
0.0
 10
194.2498888099948
 20
136.8271423311887
 30
0.0
 10
194.4737464350242
 20
137.0509999562174
 30
0.0
 10
194.74988880987
 20
137.0509999562174
 30
0.0
 10
194.74988880987
 20
137.0509999562174
 30
0.0
 10
205.2508888072453
 20
137.0509999562174
 30
0.0
 10
205.2508888072453
 20
137.0509999562174
 30
0.0
 10
205.5270311820911
 20
137.0509999562174
 30
0.0
 10
205.7508888071199
 20
136.8271423311887
 30
0.0
 10
205.7508888071199
 20
136.5509999563432
 30
0.0
 10
205.7508888071199
 20
136.5509999563432
 30
0.0
 10
205.7508888071199
 20
101.5509999650925
 30
0.0
 10
205.7508888071199
 20
101.5509999650925
 30
0.0
 10
205.7508888071199
 20
101.2748575902457
 30
0.0
 10
205.5270311820911
 20
101.0509999652179
 30
0.0
 10
205.2508888072453
 20
101.0509999652179
 30
0.0
  0
SPLINE
  5
A5
330
79
100
AcDbEntity
  8
Layer 2
 62
    18
420
        0
370
     9
100
AcDbSpline
210
0.0
220
0.0
230
1.0
 70
     9
 71
     3
 72
    29
 73
    25
 74
     0
 42
0.0000000001
 43
0.0000000001
 40
0.0
 40
0.0
 40
0.0
 40
0.0
 40
1.0
 40
1.0
 40
1.0
 40
2.0
 40
2.0
 40
2.0
 40
3.0
 40
3.0
 40
3.0
 40
4.0
 40
4.0
 40
4.0
 40
5.0
 40
5.0
 40
5.0
 40
6.0
 40
6.0
 40
6.0
 40
7.0
 40
7.0
 40
7.0
 40
8.0
 40
8.0
 40
8.0
 40
8.0
 10
97.46249997562774
 20
96.97601350011625
 30
0.0
 10
97.46249997562774
 20
96.97601350011625
 30
0.0
 10
97.46249997562774
 20
83.97601350336598
 30
0.0
 10
97.46249997562774
 20
83.97601350336598
 30
0.0
 10
97.46249997562774
 20
83.69987112851886
 30
0.0
 10
97.23864235059902
 20
83.47601350349014
 30
0.0
 10
96.96249997575318
 20
83.47601350349014
 30
0.0
 10
96.96249997575318
 20
83.47601350349014
 30
0.0
 10
83.96249997900293
 20
83.47601350349014
 30
0.0
 10
83.96249997900293
 20
83.47601350349014
 30
0.0
 10
83.68635760415706
 20
83.47601350349014
 30
0.0
 10
83.46249997912835
 20
83.69987112851886
 30
0.0
 10
83.46249997912835
 20
83.97601350336598
 30
0.0
 10
83.46249997912835
 20
83.97601350336598
 30
0.0
 10
83.46249997912835
 20
96.97601350011625
 30
0.0
 10
83.46249997912835
 20
96.97601350011625
 30
0.0
 10
83.46249997912835
 20
97.2521558749621
 30
0.0
 10
83.68635760415706
 20
97.47601349999081
 30
0.0
 10
83.96249997900293
 20
97.47601349999081
 30
0.0
 10
83.96249997900293
 20
97.47601349999081
 30
0.0
 10
96.96249997575318
 20
97.47601349999081
 30
0.0
 10
96.96249997575318
 20
97.47601349999081
 30
0.0
 10
97.23864235059902
 20
97.47601349999081
 30
0.0
 10
97.46249997562774
 20
97.2521558749621
 30
0.0
 10
97.46249997562774
 20
96.97601350011625
 30
0.0
  0
SPLINE
  5
A6
330
79
100
AcDbEntity
  8
Layer 2
 62
    18
420
        0
370
     9
100
AcDbSpline
210
0.0
220
0.0
230
1.0
 70
     9
 71
     3
 72
    29
 73
    25
 74
     0
 42
0.0000000001
 43
0.0000000001
 40
0.0
 40
0.0
 40
0.0
 40
0.0
 40
1.0
 40
1.0
 40
1.0
 40
2.0
 40
2.0
 40
2.0
 40
3.0
 40
3.0
 40
3.0
 40
4.0
 40
4.0
 40
4.0
 40
5.0
 40
5.0
 40
5.0
 40
6.0
 40
6.0
 40
6.0
 40
7.0
 40
7.0
 40
7.0
 40
8.0
 40
8.0
 40
8.0
 40
8.0
 10
316.537499920859
 20
96.97600057895295
 30
0.0
 10
316.537499920859
 20
96.97600057895295
 30
0.0
 10
316.537499920859
 20
83.97600058220268
 30
0.0
 10
316.537499920859
 20
83.97600058220268
 30
0.0
 10
316.537499920859
 20
83.69985820735555
 30
0.0
 10
316.3136422958303
 20
83.47600058232684
 30
0.0
 10
316.0374999209844
 20
83.47600058232684
 30
0.0
 10
316.0374999209844
 20
83.47600058232684
 30
0.0
 10
303.0374999242342
 20
83.47600058232684
 30
0.0
 10
303.0374999242342
 20
83.47600058232684
 30
0.0
 10
302.7613575493883
 20
83.47600058232684
 30
0.0
 10
302.5374999243596
 20
83.69985820735555
 30
0.0
 10
302.5374999243596
 20
83.97600058220268
 30
0.0
 10
302.5374999243596
 20
83.97600058220268
 30
0.0
 10
302.5374999243596
 20
96.97600057895295
 30
0.0
 10
302.5374999243596
 20
96.97600057895295
 30
0.0
 10
302.5374999243596
 20
97.25214295379879
 30
0.0
 10
302.7613575493883
 20
97.47600057882751
 30
0.0
 10
303.0374999242342
 20
97.47600057882751
 30
0.0
 10
303.0374999242342
 20
97.47600057882751
 30
0.0
 10
316.0374999209844
 20
97.47600057882751
 30
0.0
 10
316.0374999209844
 20
97.47600057882751
 30
0.0
 10
316.3136422958303
 20
97.47600057882751
 30
0.0
 10
316.537499920859
 20
97.25214295379879
 30
0.0
 10
316.537499920859
 20
96.97600057895295
 30
0.0
  0
SPLINE
  5
A7
330
79
100
AcDbEntity
  8
Layer 2
 62
    18
420
        0
370
     9
100
AcDbSpline
210
0.0
220
0.0
230
1.0
 70
     9
 71
     3
 72
    29
 73
    25
 74
     0
 42
0.0000000001
 43
0.0000000001
 40
0.0
 40
0.0
 40
0.0
 40
0.0
 40
1.0
 40
1.0
 40
1.0
 40
2.0
 40
2.0
 40
2.0
 40
3.0
 40
3.0
 40
3.0
 40
4.0
 40
4.0
 40
4.0
 40
5.0
 40
5.0
 40
5.0
 40
6.0
 40
6.0
 40
6.0
 40
7.0
 40
7.0
 40
7.0
 40
8.0
 40
8.0
 40
8.0
 40
8.0
 10
145.8749999635254
 20
64.42499997437417
 30
0.0
 10
145.5988575886789
 20
64.42499997437417
 30
0.0
 10
145.3749999636502
 20
64.64885759940289
 30
0.0
 10
145.3749999636502
 20
64.92499997425003
 30
0.0
 10
145.3749999636502
 20
64.92499997425003
 30
0.0
 10
145.3749999636502
 20
77.92499997100027
 30
0.0
 10
145.3749999636502
 20
77.92499997100027
 30
0.0
 10
145.3749999636502
 20
78.20114234584614
 30
0.0
 10
145.5988575886789
 20
78.42499997087485
 30
0.0
 10
145.8749999635254
 20
78.42499997087485
 30
0.0
 10
145.8749999635254
 20
78.42499997087485
 30
0.0
 10
161.2559999596799
 20
78.42499997087485
 30
0.0
 10
161.2559999596799
 20
78.42499997087485
 30
0.0
 10
161.5321423345258
 20
78.42499997087485
 30
0.0
 10
161.7559999595545
 20
78.20114234584614
 30
0.0
 10
161.7559999595545
 20
77.92499997100027
 30
0.0
 10
161.7559999595545
 20
77.92499997100027
 30
0.0
 10
161.7559999595545
 20
64.92499997425003
 30
0.0
 10
161.7559999595545
 20
64.92499997425003
 30
0.0
 10
161.7559999595545
 20
64.64885759940289
 30
0.0
 10
161.5321423345258
 20
64.42499997437417
 30
0.0
 10
161.2559999596799
 20
64.42499997437417
 30
0.0
 10
161.2559999596799
 20
64.42499997437417
 30
0.0
 10
145.8749999635254
 20
64.42499997437417
 30
0.0
 10
145.8749999635254
 20
64.42499997437417
 30
0.0
  0
SPLINE
  5
A8
330
79
100
AcDbEntity
  8
Layer 2
 62
    18
420
        0
370
     9
100
AcDbSpline
210
0.0
220
0.0
230
1.0
 70
     9
 71
     3
 72
    29
 73
    25
 74
     0
 42
0.0000000001
 43
0.0000000001
 40
0.0
 40
0.0
 40
0.0
 40
0.0
 40
1.0
 40
1.0
 40
1.0
 40
2.0
 40
2.0
 40
2.0
 40
3.0
 40
3.0
 40
3.0
 40
4.0
 40
4.0
 40
4.0
 40
5.0
 40
5.0
 40
5.0
 40
6.0
 40
6.0
 40
6.0
 40
7.0
 40
7.0
 40
7.0
 40
8.0
 40
8.0
 40
8.0
 40
8.0
 10
238.7809999402987
 20
64.42499997437417
 30
0.0
 10
238.5048575654528
 20
64.42499997437417
 30
0.0
 10
238.2809999404241
 20
64.64885759940289
 30
0.0
 10
238.2809999404241
 20
64.92499997425003
 30
0.0
 10
238.2809999404241
 20
64.92499997425003
 30
0.0
 10
238.2809999404241
 20
77.92499997100027
 30
0.0
 10
238.2809999404241
 20
77.92499997100027
 30
0.0
 10
238.2809999404241
 20
78.20114234584614
 30
0.0
 10
238.5048575654528
 20
78.42499997087485
 30
0.0
 10
238.7809999402987
 20
78.42499997087485
 30
0.0
 10
238.7809999402987
 20
78.42499997087485
 30
0.0
 10
254.1619999364538
 20
78.42499997087485
 30
0.0
 10
254.1619999364538
 20
78.42499997087485
 30
0.0
 10
254.4381423112997
 20
78.42499997087485
 30
0.0
 10
254.6619999363284
 20
78.20114234584614
 30
0.0
 10
254.6619999363284
 20
77.92499997100027
 30
0.0
 10
254.6619999363284
 20
77.92499997100027
 30
0.0
 10
254.6619999363284
 20
64.92499997425003
 30
0.0
 10
254.6619999363284
 20
64.92499997425003
 30
0.0
 10
254.6619999363284
 20
64.64885759940289
 30
0.0
 10
254.4381423112997
 20
64.42499997437417
 30
0.0
 10
254.1619999364538
 20
64.42499997437417
 30
0.0
 10
254.1619999364538
 20
64.42499997437417
 30
0.0
 10
238.7809999402987
 20
64.42499997437417
 30
0.0
 10
238.7809999402987
 20
64.42499997437417
 30
0.0
  0
SPLINE
  5
A9
330
79
100
AcDbEntity
  8
Layer 2
 62
    18
420
        0
370
     9
100
AcDbSpline
210
0.0
220
0.0
230
1.0
 70
     9
 71
     3
 72
    47
 73
    43
 74
     0
 42
0.0000000001
 43
0.0000000001
 40
0.0
 40
0.0
 40
0.0
 40
0.0
 40
1.0
 40
1.0
 40
1.0
 40
2.0
 40
2.0
 40
2.0
 40
3.0
 40
3.0
 40
3.0
 40
4.0
 40
4.0
 40
4.0
 40
5.0
 40
5.0
 40
5.0
 40
6.0
 40
6.0
 40
6.0
 40
7.0
 40
7.0
 40
7.0
 40
8.0
 40
8.0
 40
8.0
 40
9.0
 40
9.0
 40
9.0
 40
10.0
 40
10.0
 40
10.0
 40
11.0
 40
11.0
 40
11.0
 40
12.0
 40
12.0
 40
12.0
 40
13.0
 40
13.0
 40
13.0
 40
14.0
 40
14.0
 40
14.0
 40
14.0
 10
209.6690465388823
 20
64.92499997425067
 30
0.0
 10
209.6690465388823
 20
64.64885759940353
 30
0.0
 10
209.8929041639109
 20
64.42499997437481
 30
0.0
 10
210.1690465387575
 20
64.42499997437481
 30
0.0
 10
210.1690465387575
 20
64.42499997437481
 30
0.0
 10
225.5496465390073
 20
64.42499997437481
 30
0.0
 10
225.5496465390073
 20
64.42499997437481
 30
0.0
 10
225.8257889138538
 20
64.42499997437481
 30
0.0
 10
226.0496465388825
 20
64.64885759940353
 30
0.0
 10
226.0496465388825
 20
64.92499997425067
 30
0.0
 10
226.0496465388825
 20
64.92499997425067
 30
0.0
 10
226.0496465388825
 20
77.92499997100091
 30
0.0
 10
226.0496465388825
 20
77.92499997100091
 30
0.0
 10
226.0496465388825
 20
78.20114234584678
 30
0.0
 10
225.8257889138538
 20
78.42499997087549
 30
0.0
 10
225.5496465390073
 20
78.42499997087549
 30
0.0
 10
225.5496465390073
 20
78.42499997087549
 30
0.0
 10
210.5249999473622
 20
78.4249998162626
 30
0.0
 10
210.5249999473622
 20
78.4249998162626
 30
0.0
 10
210.5249999473622
 20
78.4249998162626
 30
0.0
 10
210.5249999473622
 20
79.39499997063222
 30
0.0
 10
210.5249999473622
 20
79.39499997063222
 30
0.0
 10
210.5249999473622
 20
79.67114234547871
 30
0.0
 10
210.3011423223335
 20
79.89499997050742
 30
0.0
 10
210.024999947487
 20
79.89499997050742
 30
0.0
 10
210.024999947487
 20
79.89499997050742
 30
0.0
 10
204.274999948925
 20
79.89499997050742
 30
0.0
 10
204.274999948925
 20
79.89499997050742
 30
0.0
 10
203.9988575740785
 20
79.89499997050742
 30
0.0
 10
203.7749999490498
 20
79.67114234547871
 30
0.0
 10
203.7749999490498
 20
79.39499997063222
 30
0.0
 10
203.7749999490498
 20
79.39499997063222
 30
0.0
 10
203.7749999490498
 20
66.3949999738826
 30
0.0
 10
203.7749999490498
 20
66.3949999738826
 30
0.0
 10
203.7749999490498
 20
66.11885759903612
 30
0.0
 10
203.9988575740785
 20
65.8949999740074
 30
0.0
 10
204.274999948925
 20
65.8949999740074
 30
0.0
 10
204.274999948925
 20
65.8949999740074
 30
0.0
 10
209.6690463912696
 20
65.8949999740074
 30
0.0
 10
209.6690463912696
 20
65.8949999740074
 30
0.0
 10
209.6690463912696
 20
65.8949999740074
 30
0.0
 10
209.6690465388823
 20
64.92499997425067
 30
0.0
 10
209.6690465388823
 20
64.92499997425067
 30
0.0
  0
SPLINE
  5
AA
330
79
100
AcDbEntity
  8
Layer 2
 62
    18
420
        0
370
     9
100
AcDbSpline
210
0.0
220
0.0
230
1.0
 70
     9
 71
     3
 72
    47
 73
    43
 74
     0
 42
0.0000000001
 43
0.0000000001
 40
0.0
 40
0.0
 40
0.0
 40
0.0
 40
1.0
 40
1.0
 40
1.0
 40
2.0
 40
2.0
 40
2.0
 40
3.0
 40
3.0
 40
3.0
 40
4.0
 40
4.0
 40
4.0
 40
5.0
 40
5.0
 40
5.0
 40
6.0
 40
6.0
 40
6.0
 40
7.0
 40
7.0
 40
7.0
 40
8.0
 40
8.0
 40
8.0
 40
9.0
 40
9.0
 40
9.0
 40
10.0
 40
10.0
 40
10.0
 40
11.0
 40
11.0
 40
11.0
 40
12.0
 40
12.0
 40
12.0
 40
13.0
 40
13.0
 40
13.0
 40
14.0
 40
14.0
 40
14.0
 40
14.0
 10
174.4500465387575
 20
64.42499997437481
 30
0.0
 10
174.173904163911
 20
64.42499997437481
 30
0.0
 10
173.9500465388823
 20
64.64885759940353
 30
0.0
 10
173.9500465388823
 20
64.92499997425067
 30
0.0
 10
173.9500465388823
 20
64.92499997425067
 30
0.0
 10
173.9500465388823
 20
77.92499997100091
 30
0.0
 10
173.9500465388823
 20
77.92499997100091
 30
0.0
 10
173.9500465388823
 20
78.20114234584678
 30
0.0
 10
174.173904163911
 20
78.42499997087549
 30
0.0
 10
174.4500465387575
 20
78.42499997087549
 30
0.0
 10
174.4500465387575
 20
78.42499997087549
 30
0.0
 10
189.474046539726
 20
78.4249998162626
 30
0.0
 10
189.474046539726
 20
78.4249998162626
 30
0.0
 10
189.474046539726
 20
78.4249998162626
 30
0.0
 10
189.474046539726
 20
79.39499997063222
 30
0.0
 10
189.474046539726
 20
79.39499997063222
 30
0.0
 10
189.474046539726
 20
79.67114234547871
 30
0.0
 10
189.6979041647547
 20
79.89499997050742
 30
0.0
 10
189.9740465396012
 20
79.89499997050742
 30
0.0
 10
189.9740465396012
 20
79.89499997050742
 30
0.0
 10
195.7240465381632
 20
79.89499997050742
 30
0.0
 10
195.7240465381632
 20
79.89499997050742
 30
0.0
 10
196.0001889130097
 20
79.89499997050742
 30
0.0
 10
196.2240465380384
 20
79.67114234547871
 30
0.0
 10
196.2240465380384
 20
79.39499997063222
 30
0.0
 10
196.2240465380384
 20
79.39499997063222
 30
0.0
 10
196.2240465380384
 20
66.3949999738826
 30
0.0
 10
196.2240465380384
 20
66.3949999738826
 30
0.0
 10
196.2240465380384
 20
66.11885759903612
 30
0.0
 10
196.0001889130097
 20
65.8949999740074
 30
0.0
 10
195.7240465381632
 20
65.8949999740074
 30
0.0
 10
195.7240465381632
 20
65.8949999740074
 30
0.0
 10
190.3306474697632
 20
65.8949999740074
 30
0.0
 10
190.3306474697632
 20
65.8949999740074
 30
0.0
 10
190.3306474697632
 20
65.8949999740074
 30
0.0
 10
190.3306465388825
 20
64.92499997425067
 30
0.0
 10
190.3306465388825
 20
64.92499997425067
 30
0.0
 10
190.3306465388825
 20
64.64885759940353
 30
0.0
 10
190.1067889138538
 20
64.42499997437481
 30
0.0
 10
189.8306465390073
 20
64.42499997437481
 30
0.0
 10
189.8306465390073
 20
64.42499997437481
 30
0.0
 10
174.4500465387575
 20
64.42499997437481
 30
0.0
 10
174.4500465387575
 20
64.42499997437481
 30
0.0
  0
SPLINE
  5
AB
330
79
100
AcDbEntity
  8
Layer 2
 62
    18
420
        0
370
     9
100
AcDbSpline
210
0.0
220
0.0
230
1.0
 70
     9
 71
     3
 72
    29
 73
    25
 74
     0
 42
0.0000000001
 43
0.0000000001
 40
0.0
 40
0.0
 40
0.0
 40
0.0
 40
1.0
 40
1.0
 40
1.0
 40
2.0
 40
2.0
 40
2.0
 40
3.0
 40
3.0
 40
3.0
 40
4.0
 40
4.0
 40
4.0
 40
5.0
 40
5.0
 40
5.0
 40
6.0
 40
6.0
 40
6.0
 40
7.0
 40
7.0
 40
7.0
 40
8.0
 40
8.0
 40
8.0
 40
8.0
 10
233.8248465381637
 20
65.8949999740074
 30
0.0
 10
233.8248465381637
 20
65.8949999740074
 30
0.0
 10
228.0748465396017
 20
65.8949999740074
 30
0.0
 10
228.0748465396017
 20
65.8949999740074
 30
0.0
 10
227.7987041647552
 20
65.8949999740074
 30
0.0
 10
227.5748465397265
 20
66.11885759903612
 30
0.0
 10
227.5748465397265
 20
66.3949999738826
 30
0.0
 10
227.5748465397265
 20
66.3949999738826
 30
0.0
 10
227.5748465397265
 20
79.39499997063222
 30
0.0
 10
227.5748465397265
 20
79.39499997063222
 30
0.0
 10
227.5748465397265
 20
79.67114234547871
 30
0.0
 10
227.7987041647552
 20
79.89499997050742
 30
0.0
 10
228.0748465396017
 20
79.89499997050742
 30
0.0
 10
228.0748465396017
 20
79.89499997050742
 30
0.0
 10
233.8248465381637
 20
79.89499997050742
 30
0.0
 10
233.8248465381637
 20
79.89499997050742
 30
0.0
 10
234.1009889130102
 20
79.89499997050742
 30
0.0
 10
234.3248465380389
 20
79.67114234547871
 30
0.0
 10
234.3248465380389
 20
79.39499997063222
 30
0.0
 10
234.3248465380389
 20
79.39499997063222
 30
0.0
 10
234.3248465380389
 20
66.3949999738826
 30
0.0
 10
234.3248465380389
 20
66.3949999738826
 30
0.0
 10
234.3248465380389
 20
66.11885759903612
 30
0.0
 10
234.1009889130102
 20
65.8949999740074
 30
0.0
 10
233.8248465381637
 20
65.8949999740074
 30
0.0
  0
SPLINE
  5
AC
330
79
100
AcDbEntity
  8
Layer 2
 62
    18
420
        0
370
     9
100
AcDbSpline
210
0.0
220
0.0
230
1.0
 70
     9
 71
     3
 72
    29
 73
    25
 74
     0
 42
0.0000000001
 43
0.0000000001
 40
0.0
 40
0.0
 40
0.0
 40
0.0
 40
1.0
 40
1.0
 40
1.0
 40
2.0
 40
2.0
 40
2.0
 40
3.0
 40
3.0
 40
3.0
 40
4.0
 40
4.0
 40
4.0
 40
5.0
 40
5.0
 40
5.0
 40
6.0
 40
6.0
 40
6.0
 40
7.0
 40
7.0
 40
7.0
 40
8.0
 40
8.0
 40
8.0
 40
8.0
 10
171.924999957012
 20
65.8949999740074
 30
0.0
 10
171.924999957012
 20
65.8949999740074
 30
0.0
 10
166.17499995845
 20
65.8949999740074
 30
0.0
 10
166.17499995845
 20
65.8949999740074
 30
0.0
 10
165.8988575836035
 20
65.8949999740074
 30
0.0
 10
165.6749999585748
 20
66.11885759903612
 30
0.0
 10
165.6749999585748
 20
66.3949999738826
 30
0.0
 10
165.6749999585748
 20
66.3949999738826
 30
0.0
 10
165.6749999585748
 20
79.39499997063222
 30
0.0
 10
165.6749999585748
 20
79.39499997063222
 30
0.0
 10
165.6749999585748
 20
79.67114234547871
 30
0.0
 10
165.8988575836035
 20
79.89499997050742
 30
0.0
 10
166.17499995845
 20
79.89499997050742
 30
0.0
 10
166.17499995845
 20
79.89499997050742
 30
0.0
 10
171.924999957012
 20
79.89499997050742
 30
0.0
 10
171.924999957012
 20
79.89499997050742
 30
0.0
 10
172.2011423318584
 20
79.89499997050742
 30
0.0
 10
172.4249999568872
 20
79.67114234547871
 30
0.0
 10
172.4249999568872
 20
79.39499997063222
 30
0.0
 10
172.4249999568872
 20
79.39499997063222
 30
0.0
 10
172.4249999568872
 20
66.3949999738826
 30
0.0
 10
172.4249999568872
 20
66.3949999738826
 30
0.0
 10
172.4249999568872
 20
66.11885759903612
 30
0.0
 10
172.2011423318584
 20
65.8949999740074
 30
0.0
 10
171.924999957012
 20
65.8949999740074
 30
0.0
  0
SPLINE
  5
AD
330
79
100
AcDbEntity
  8
Layer 2
 62
    18
420
        0
370
     9
100
AcDbSpline
210
0.0
220
0.0
230
1.0
 70
     9
 71
     3
 72
    53
 73
    49
 74
     0
 42
0.0000000001
 43
0.0000000001
 40
0.0
 40
0.0
 40
0.0
 40
0.0
 40
1.0
 40
1.0
 40
1.0
 40
2.0
 40
2.0
 40
2.0
 40
3.0
 40
3.0
 40
3.0
 40
4.0
 40
4.0
 40
4.0
 40
5.0
 40
5.0
 40
5.0
 40
6.0
 40
6.0
 40
6.0
 40
7.0
 40
7.0
 40
7.0
 40
8.0
 40
8.0
 40
8.0
 40
9.0
 40
9.0
 40
9.0
 40
10.0
 40
10.0
 40
10.0
 40
11.0
 40
11.0
 40
11.0
 40
12.0
 40
12.0
 40
12.0
 40
13.0
 40
13.0
 40
13.0
 40
14.0
 40
14.0
 40
14.0
 40
15.0
 40
15.0
 40
15.0
 40
16.0
 40
16.0
 40
16.0
 40
16.0
 10
79.17499994999381
 20
80.94999997500531
 30
0.0
 10
79.17499994999381
 20
80.94999997500531
 30
0.0
 10
98.48749994999391
 20
80.94999997500531
 30
0.0
 10
98.48749994999391
 20
80.94999997500531
 30
0.0
 10
99.31592707474003
 20
80.94999997500531
 30
0.0
 10
99.98749994999364
 20
80.27842709975169
 30
0.0
 10
99.98749994999364
 20
79.44999997500558
 30
0.0
 10
99.98749994999364
 20
79.44999997500558
 30
0.0
 10
99.98749994999364
 20
64.89999997500523
 30
0.0
 10
99.98749994999364
 20
64.89999997500523
 30
0.0
 10
99.98749994999364
 20
63.243145725513
 30
0.0
 10
101.3306457005015
 20
61.89999997500576
 30
0.0
 10
102.9874999499937
 20
61.89999997500576
 30
0.0
 10
102.9874999499937
 20
61.89999997500576
 30
0.0
 10
297.0124999499936
 20
61.89999997500576
 30
0.0
 10
297.0124999499936
 20
61.89999997500576
 30
0.0
 10
298.6693541994858
 20
61.89999997500576
 30
0.0
 10
300.0124999499937
 20
63.243145725513
 30
0.0
 10
300.0124999499937
 20
64.89999997500523
 30
0.0
 10
300.0124999499937
 20
64.89999997500523
 30
0.0
 10
300.0124999499937
 20
79.44999997500558
 30
0.0
 10
300.0124999499937
 20
79.44999997500558
 30
0.0
 10
300.0124999499937
 20
80.27842709975169
 30
0.0
 10
300.6840728252473
 20
80.94999997500531
 30
0.0
 10
301.5124999499935
 20
80.94999997500531
 30
0.0
 10
301.5124999499935
 20
80.94999997500531
 30
0.0
 10
320.8249999499935
 20
80.94999997500531
 30
0.0
 10
320.8249999499935
 20
80.94999997500531
 30
0.0
 10
322.4818541994864
 20
80.94999997500531
 30
0.0
 10
323.8249999499936
 20
82.2931457255132
 30
0.0
 10
323.8249999499936
 20
83.94999997500541
 30
0.0
 10
323.8249999499936
 20
83.94999997500541
 30
0.0
 10
323.8249999499936
 20
135.0999999750054
 30
0.0
 10
323.8249999499936
 20
135.0999999750054
 30
0.0
 10
323.8249999499936
 20
136.756854224498
 30
0.0
 10
322.4818541994858
 20
138.0999999750055
 30
0.0
 10
320.8249999499935
 20
138.0999999750055
 30
0.0
 10
320.8249999499935
 20
138.0999999750055
 30
0.0
 10
79.17499994999381
 20
138.0999999750055
 30
0.0
 10
79.17499994999381
 20
138.0999999750055
 30
0.0
 10
77.51814570050161
 20
138.0999999750055
 30
0.0
 10
76.17499994999372
 20
136.756854224498
 30
0.0
 10
76.17499994999372
 20
135.0999999750054
 30
0.0
 10
76.17499994999372
 20
135.0999999750054
 30
0.0
 10
76.17499994999372
 20
83.94999997500541
 30
0.0
 10
76.17499994999372
 20
83.94999997500541
 30
0.0
 10
76.17499994999372
 20
82.2931457255132
 30
0.0
 10
77.51814570050161
 20
80.94999997500531
 30
0.0
 10
79.17499994999381
 20
80.94999997500531
 30
0.0
  0
SPLINE
  5
AE
330
79
100
AcDbEntity
  8
Layer 2
 62
    18
420
        0
370
     9
100
AcDbSpline
210
0.0
220
0.0
230
1.0
 70
     9
 71
     3
 72
    29
 73
    25
 74
     0
 42
0.0000000001
 43
0.0000000001
 40
0.0
 40
0.0
 40
0.0
 40
0.0
 40
1.0
 40
1.0
 40
1.0
 40
2.0
 40
2.0
 40
2.0
 40
3.0
 40
3.0
 40
3.0
 40
4.0
 40
4.0
 40
4.0
 40
5.0
 40
5.0
 40
5.0
 40
6.0
 40
6.0
 40
6.0
 40
7.0
 40
7.0
 40
7.0
 40
8.0
 40
8.0
 40
8.0
 40
8.0
 10
262.5562499499933
 20
78.42499997500546
 30
0.0
 10
262.5562499499933
 20
78.42499997500546
 30
0.0
 10
275.5562499499938
 20
78.42499997500546
 30
0.0
 10
275.5562499499938
 20
78.42499997500546
 30
0.0
 10
275.8323923249089
 20
78.42499997500546
 30
0.0
 10
276.0562499499935
 20
78.20114234992093
 30
0.0
 10
276.0562499499935
 20
77.92499997500576
 30
0.0
 10
276.0562499499935
 20
77.92499997500576
 30
0.0
 10
276.0562499499935
 20
64.9249999750053
 30
0.0
 10
276.0562499499935
 20
64.9249999750053
 30
0.0
 10
276.0562499499935
 20
64.64885760009015
 30
0.0
 10
275.8323923249089
 20
64.42499997500561
 30
0.0
 10
275.5562499499938
 20
64.42499997500561
 30
0.0
 10
275.5562499499938
 20
64.42499997500561
 30
0.0
 10
262.5562499499933
 20
64.42499997500561
 30
0.0
 10
262.5562499499933
 20
64.42499997500561
 30
0.0
 10
262.2801075750782
 20
64.42499997500561
 30
0.0
 10
262.0562499499936
 20
64.64885760009015
 30
0.0
 10
262.0562499499936
 20
64.9249999750053
 30
0.0
 10
262.0562499499936
 20
64.9249999750053
 30
0.0
 10
262.0562499499936
 20
77.92499997500576
 30
0.0
 10
262.0562499499936
 20
77.92499997500576
 30
0.0
 10
262.0562499499936
 20
78.20114234992093
 30
0.0
 10
262.2801075750782
 20
78.42499997500546
 30
0.0
 10
262.5562499499933
 20
78.42499997500546
 30
0.0
  0
CIRCLE
  5
AF
330
79
100
AcDbEntity
  8
Layer 2
 62
    18
420
        0
370
     9
100
AcDbCircle
 10
279.7689836658773
 20
64.09972357222336
 30
0.0
 40
1.250000000000204
  0
SPLINE
  5
B0
330
79
100
AcDbEntity
  8
Layer 2
 62
    18
420
        0
370
     9
100
AcDbSpline
210
0.0
220
0.0
230
1.0
 70
     9
 71
     3
 72
    29
 73
    25
 74
     0
 42
0.0000000001
 43
0.0000000001
 40
0.0
 40
0.0
 40
0.0
 40
0.0
 40
1.0
 40
1.0
 40
1.0
 40
2.0
 40
2.0
 40
2.0
 40
3.0
 40
3.0
 40
3.0
 40
4.0
 40
4.0
 40
4.0
 40
5.0
 40
5.0
 40
5.0
 40
6.0
 40
6.0
 40
6.0
 40
7.0
 40
7.0
 40
7.0
 40
8.0
 40
8.0
 40
8.0
 40
8.0
 10
283.9874999499937
 20
78.42499997500546
 30
0.0
 10
283.9874999499937
 20
78.42499997500546
 30
0.0
 10
296.9874999499936
 20
78.42499997500546
 30
0.0
 10
296.9874999499936
 20
78.42499997500546
 30
0.0
 10
297.2636423249093
 20
78.42499997500546
 30
0.0
 10
297.4874999499939
 20
78.20114234992093
 30
0.0
 10
297.4874999499939
 20
77.92499997500576
 30
0.0
 10
297.4874999499939
 20
77.92499997500576
 30
0.0
 10
297.4874999499939
 20
64.9249999750053
 30
0.0
 10
297.4874999499939
 20
64.9249999750053
 30
0.0
 10
297.4874999499939
 20
64.64885760009015
 30
0.0
 10
297.2636423249093
 20
64.42499997500561
 30
0.0
 10
296.9874999499936
 20
64.42499997500561
 30
0.0
 10
296.9874999499936
 20
64.42499997500561
 30
0.0
 10
283.9874999499937
 20
64.42499997500561
 30
0.0
 10
283.9874999499937
 20
64.42499997500561
 30
0.0
 10
283.7113575750779
 20
64.42499997500561
 30
0.0
 10
283.4874999499934
 20
64.64885760009015
 30
0.0
 10
283.4874999499934
 20
64.9249999750053
 30
0.0
 10
283.4874999499934
 20
64.9249999750053
 30
0.0
 10
283.4874999499934
 20
77.92499997500576
 30
0.0
 10
283.4874999499934
 20
77.92499997500576
 30
0.0
 10
283.487499949994
 20
78.20114234992093
 30
0.0
 10
283.7113575750786
 20
78.42499997500546
 30
0.0
 10
283.9874999499937
 20
78.42499997500546
 30
0.0
  0
CIRCLE
  5
B1
330
79
100
AcDbEntity
  8
Layer 2
 62
    18
420
        0
370
     9
100
AcDbCircle
 10
120.2080523590464
 20
64.09967066998264
 30
0.0
 40
1.249999999999963
  0
CIRCLE
  5
B2
330
79
100
AcDbEntity
  8
Layer 2
 62
    18
420
        0
370
     9
100
AcDbCircle
 10
95.22310763200671
 20
135.8995263992492
 30
0.0
 40
1.250000000000084
  0
SPLINE
  5
B3
330
79
100
AcDbEntity
  8
Layer 2
 62
    18
420
        0
370
     9
100
AcDbSpline
210
0.0
220
0.0
230
1.0
 70
     9
 71
     3
 72
    29
 73
    25
 74
     0
 42
0.0000000001
 43
0.0000000001
 40
0.0
 40
0.0
 40
0.0
 40
0.0
 40
1.0
 40
1.0
 40
1.0
 40
2.0
 40
2.0
 40
2.0
 40
3.0
 40
3.0
 40
3.0
 40
4.0
 40
4.0
 40
4.0
 40
5.0
 40
5.0
 40
5.0
 40
6.0
 40
6.0
 40
6.0
 40
7.0
 40
7.0
 40
7.0
 40
8.0
 40
8.0
 40
8.0
 40
8.0
 10
103.0124999499938
 20
78.42499997500546
 30
0.0
 10
103.0124999499938
 20
78.42499997500546
 30
0.0
 10
116.0124999499936
 20
78.42499997500546
 30
0.0
 10
116.0124999499936
 20
78.42499997500546
 30
0.0
 10
116.2886423249094
 20
78.42499997500546
 30
0.0
 10
116.5124999499939
 20
78.20114234992093
 30
0.0
 10
116.5124999499939
 20
77.92499997500576
 30
0.0
 10
116.5124999499939
 20
77.92499997500576
 30
0.0
 10
116.5124999499939
 20
64.9249999750053
 30
0.0
 10
116.5124999499939
 20
64.9249999750053
 30
0.0
 10
116.5124999499939
 20
64.64885760009015
 30
0.0
 10
116.2886423249094
 20
64.42499997500561
 30
0.0
 10
116.0124999499936
 20
64.42499997500561
 30
0.0
 10
116.0124999499936
 20
64.42499997500561
 30
0.0
 10
103.0124999499938
 20
64.42499997500561
 30
0.0
 10
103.0124999499938
 20
64.42499997500561
 30
0.0
 10
102.736357575078
 20
64.42499997500561
 30
0.0
 10
102.5124999499934
 20
64.64885760009015
 30
0.0
 10
102.5124999499934
 20
64.9249999750053
 30
0.0
 10
102.5124999499934
 20
64.9249999750053
 30
0.0
 10
102.5124999499934
 20
77.92499997500576
 30
0.0
 10
102.5124999499934
 20
77.92499997500576
 30
0.0
 10
102.5124999499934
 20
78.20114234992093
 30
0.0
 10
102.736357575078
 20
78.42499997500546
 30
0.0
 10
103.0124999499938
 20
78.42499997500546
 30
0.0
  0
SPLINE
  5
B4
330
79
100
AcDbEntity
  8
Layer 2
 62
    18
420
        0
370
     9
100
AcDbSpline
210
0.0
220
0.0
230
1.0
 70
     9
 71
     3
 72
    29
 73
    25
 74
     0
 42
0.0000000001
 43
0.0000000001
 40
0.0
 40
0.0
 40
0.0
 40
0.0
 40
1.0
 40
1.0
 40
1.0
 40
2.0
 40
2.0
 40
2.0
 40
3.0
 40
3.0
 40
3.0
 40
4.0
 40
4.0
 40
4.0
 40
5.0
 40
5.0
 40
5.0
 40
6.0
 40
6.0
 40
6.0
 40
7.0
 40
7.0
 40
7.0
 40
8.0
 40
8.0
 40
8.0
 40
8.0
 10
137.9437499499937
 20
77.92499997500576
 30
0.0
 10
137.9437499499937
 20
77.92499997500576
 30
0.0
 10
137.9437499499937
 20
64.9249999750053
 30
0.0
 10
137.9437499499937
 20
64.9249999750053
 30
0.0
 10
137.9437499499937
 20
64.64885760009015
 30
0.0
 10
137.7198923249091
 20
64.42499997500561
 30
0.0
 10
137.443749949994
 20
64.42499997500561
 30
0.0
 10
137.443749949994
 20
64.42499997500561
 30
0.0
 10
124.4437499499935
 20
64.42499997500561
 30
0.0
 10
124.4437499499935
 20
64.42499997500561
 30
0.0
 10
124.1676075750784
 20
64.42499997500561
 30
0.0
 10
123.9437499499938
 20
64.64885760009015
 30
0.0
 10
123.9437499499938
 20
64.9249999750053
 30
0.0
 10
123.9437499499938
 20
64.9249999750053
 30
0.0
 10
123.9437499499938
 20
77.92499997500576
 30
0.0
 10
123.9437499499938
 20
77.92499997500576
 30
0.0
 10
123.9437499499938
 20
78.20114234992093
 30
0.0
 10
124.1676075750784
 20
78.42499997500546
 30
0.0
 10
124.4437499499935
 20
78.42499997500546
 30
0.0
 10
124.4437499499935
 20
78.42499997500546
 30
0.0
 10
137.443749949994
 20
78.42499997500546
 30
0.0
 10
137.443749949994
 20
78.42499997500546
 30
0.0
 10
137.7198923249091
 20
78.42499997500546
 30
0.0
 10
137.9437499499937
 20
78.20114234992093
 30
0.0
 10
137.9437499499937
 20
77.92499997500576
 30
0.0
  0
CIRCLE
  5
B5
330
79
100
AcDbEntity
  8
Layer 2
 62
    18
420
        0
370
     9
100
AcDbCircle
 10
304.7580097332772
 20
135.8996217735205
 30
0.0
 40
1.250000000000204
  0
ENDBLK
  5
7C
330
79
100
AcDbEntity
  8
0
100
AcDbBlockEnd
  0
ENDSEC
  0
SECTION
  2
ENTITIES
  0
INSERT
  5
7A
330
70
100
AcDbEntity
  8
Layer 2
100
AcDbBlockReference
  2
Block_0
 10
0.0
 20
0.0
 30
0.0
  0
ENDSEC
  0
SECTION
  2
OBJECTS
  0
DICTIONARY
  5
C
330
0
100
AcDbDictionary
281
     1
  3
ACAD_COLOR
350
63
  3
ACAD_DETAILVIEWSTYLE
350
6A
  3
ACAD_GROUP
350
D
  3
ACAD_LAYOUT
350
62
  3
ACAD_MATERIAL
350
10
  3
ACAD_MLEADERSTYLE
350
66
  3
ACAD_MLINESTYLE
350
5F
  3
ACAD_PLOTSETTINGS
350
61
  3
ACAD_PLOTSTYLENAME
350
E
  3
ACAD_SCALELIST
350
42
  3
ACAD_SECTIONVIEWSTYLE
350
68
  3
ACAD_TABLESTYLE
350
64
  3
ACAD_VISUALSTYLE
350
29
  3
ACDB_RECOMPOSE_DATA
350
BE
  3
AcDbVariableDictionary
350
B6
  0
DICTIONARY
  5
63
102
{ACAD_REACTORS
330
C
102
}
330
C
100
AcDbDictionary
281
     1
  0
DICTIONARY
  5
6A
102
{ACAD_REACTORS
330
C
102
}
330
C
100
AcDbDictionary
281
     1
  3
Imperial24
350
6B
  0
DICTIONARY
  5
D
102
{ACAD_REACTORS
330
C
102
}
330
C
100
AcDbDictionary
281
     1
  0
DICTIONARY
  5
62
102
{ACAD_REACTORS
330
C
102
}
330
C
100
AcDbDictionary
281
     1
  3
Layout1
350
6F
  3
Layout2
350
77
  3
Model
350
73
  0
DICTIONARY
  5
10
102
{ACAD_REACTORS
330
C
102
}
330
C
100
AcDbDictionary
281
     1
  3
ByBlock
350
19
  3
ByLayer
350
11
  3
Global
350
21
  0
DICTIONARY
  5
66
102
{ACAD_REACTORS
330
C
102
}
330
C
100
AcDbDictionary
281
     1
  3
Standard
350
67
  0
DICTIONARY
  5
5F
102
{ACAD_REACTORS
330
C
102
}
330
C
100
AcDbDictionary
281
     1
  3
Standard
350
60
  0
DICTIONARY
  5
61
102
{ACAD_REACTORS
330
C
102
}
330
C
100
AcDbDictionary
281
     1
  0
ACDBDICTIONARYWDFLT
  5
E
102
{ACAD_REACTORS
330
C
102
}
330
C
100
AcDbDictionary
281
     1
  3
Normal
350
F
100
AcDbDictionaryWithDefault
340
F
  0
DICTIONARY
  5
42
102
{ACAD_REACTORS
330
C
102
}
330
C
100
AcDbDictionary
281
     1
  3
A0
350
43
  3
A1
350
44
  3
A2
350
45
  3
A3
350
46
  3
A4
350
47
  3
A5
350
48
  3
A6
350
49
  3
A7
350
4A
  3
A8
350
4B
  3
A9
350
4C
  3
B0
350
4D
  3
B1
350
4E
  3
B2
350
4F
  3
B3
350
50
  3
B4
350
51
  3
B5
350
52
  3
B6
350
53
  0
DICTIONARY
  5
68
102
{ACAD_REACTORS
330
C
102
}
330
C
100
AcDbDictionary
281
     1
  3
Imperial24
350
69
  0
DICTIONARY
  5
64
102
{ACAD_REACTORS
330
C
102
}
330
C
100
AcDbDictionary
281
     1
  3
Standard
350
65
  0
DICTIONARY
  5
29
102
{ACAD_REACTORS
330
C
102
}
330
C
100
AcDbDictionary
281
     1
  3
2dWireframe
350
2F
  3
Basic
350
2E
  3
Brighten
350
35
  3
ColorChange
350
39
  3
Conceptual
350
32
  3
Dim
350
34
  3
EdgeColorOff
350
41
  3
Facepattern
350
38
  3
Flat
350
2A
  3
FlatWithEdges
350
2B
  3
Gouraud
350
2C
  3
GouraudWithEdges
350
2D
  3
Hidden
350
31
  3
JitterOff
350
3F
  3
Linepattern
350
37
  3
OverhangOff
350
40
  3
Realistic
350
33
  3
Shaded
350
3E
  3
Shaded with edges
350
3D
  3
Shades of Gray
350
3A
  3
Sketchy
350
3B
  3
Thicken
350
36
  3
Wireframe
350
30
  3
X-Ray
350
3C
  0
XRECORD
  5
BE
102
{ACAD_REACTORS
330
C
102
}
330
C
100
AcDbXrecord
280
     1
 90
        1
330
65
  0
DICTIONARY
  5
B6
102
{ACAD_REACTORS
330
C
102
}
330
C
100
AcDbDictionary
281
     1
  3
CANNOSCALE
350
BB
  3
CMLEADERSTYLE
350
B8
  3
CTABLESTYLE
350
B7
  3
CVIEWDETAILSTYLE
350
B9
  3
CVIEWSECTIONSTYLE
350
BA
  0
ACDBDETAILVIEWSTYLE
  5
6B
102
{ACAD_REACTORS
330
6A
102
}
330
6A
100
AcDbModelDocViewStyle
 70
     0
  3
Imperial24
290
     1
300
Imperial24
 90
        0
100
AcDbDetailViewStyle
 70
     0
 71
     0
 90
        3
 71
     1
340
55
 62
   256
 40
0.24
340
0
 62
   256
 40
0.24
300

 40
0.36
280
     3
 71
     2
340
5D
 90
       25
 62
   256
 71
     3
340
55
 62
   256
 40
0.24
 90
        1
 40
0.75
 90
        1
300
%<\AcVar ViewType \f "%tc1">% %<\AcVar ViewDetailId>%\PSCALE %<\AcVar ViewScale \f "%sn">%
 71
     4
340
5D
 90
       25
 62
   256
340
5D
 90
       25
 62
   256
280
     0
  0
LAYOUT
  5
6F
102
{ACAD_REACTORS
330
62
102
}
330
62
100
AcDbPlotSettings
  1

  2

  4

  6

 40
0.0
 41
0.0
 42
0.0
 43
0.0
 44
0.0
 45
0.0
 46
0.0
 47
0.0
 48
0.0
 49
0.0
140
0.0
141
0.0
142
1.0
143
1.0
 70
   688
 72
     0
 73
     0
 74
     5
  7

 75
    16
147
1.0
 76
     0
 77
     2
 78
   300
148
0.0
149
0.0
100
AcDbLayout
  1
Layout1
 70
     1
 71
     1
 10
0.0
 20
0.0
 11
12.0
 21
9.0
 12
0.0
 22
0.0
 32
0.0
 14
0.0
 24
0.0
 34
0.0
 15
0.0
 25
0.0
 35
0.0
146
0.0
 13
0.0
 23
0.0
 33
0.0
 16
1.0
 26
0.0
 36
0.0
 17
0.0
 27
1.0
 37
0.0
 76
     0
330
6C
  0
LAYOUT
  5
77
102
{ACAD_REACTORS
330
62
102
}
330
62
100
AcDbPlotSettings
  1

  2

  4

  6

 40
0.0
 41
0.0
 42
0.0
 43
0.0
 44
0.0
 45
0.0
 46
0.0
 47
0.0
 48
0.0
 49
0.0
140
0.0
141
0.0
142
1.0
143
1.0
 70
   688
 72
     0
 73
     0
 74
     5
  7

 75
    16
147
1.0
 76
     0
 77
     2
 78
   300
148
0.0
149
0.0
100
AcDbLayout
  1
Layout2
 70
     1
 71
     2
 10
0.0
 20
0.0
 11
12.0
 21
9.0
 12
0.0
 22
0.0
 32
0.0
 14
0.0
 24
0.0
 34
0.0
 15
0.0
 25
0.0
 35
0.0
146
0.0
 13
0.0
 23
0.0
 33
0.0
 16
1.0
 26
0.0
 36
0.0
 17
0.0
 27
1.0
 37
0.0
 76
     0
330
74
  0
LAYOUT
  5
73
102
{ACAD_REACTORS
330
62
102
}
330
62
100
AcDbPlotSettings
  1

  2

  4

  6

 40
0.0
 41
0.0
 42
0.0
 43
0.0
 44
0.0
 45
0.0
 46
0.0
 47
0.0
 48
0.0
 49
0.0
140
0.0
141
0.0
142
1.0
143
1.0
 70
  1712
 72
     0
 73
     0
 74
     0
  7

 75
     0
147
1.0
 76
     0
 77
     2
 78
   300
148
0.0
149
0.0
100
AcDbLayout
  1
Model
 70
     1
 71
     0
 10
0.0
 20
0.0
 11
12.0
 21
9.0
 12
0.0
 22
0.0
 32
0.0
 14
0.0
 24
0.0
 34
0.0
 15
0.0
 25
0.0
 35
0.0
146
0.0
 13
0.0
 23
0.0
 33
0.0
 16
1.0
 26
0.0
 36
0.0
 17
0.0
 27
1.0
 37
0.0
 76
     0
330
70
  0
MATERIAL
  5
19
102
{ACAD_XDICTIONARY
360
1A
102
}
102
{ACAD_REACTORS
330
10
102
}
330
10
100
AcDbMaterial
  1
ByBlock
 72
     0
 43
0.0208333333333333
 43
0.0
 43
0.0
 43
0.0
 43
0.0
 43
0.0208333333333333
 43
0.0
 43
0.0
 43
0.0
 43
0.0
 43
1.0
 43
0.0
 43
0.0
 43
0.0
 43
0.0
 43
1.0
 77
     0
 47
0.0208333333333333
 47
0.0
 47
0.0
 47
0.0
 47
0.0
 47
0.0208333333333333
 47
0.0
 47
0.0
 47
0.0
 47
0.0
 47
1.0
 47
0.0
 47
0.0
 47
0.0
 47
0.0
 47
1.0
171
     0
 49
0.0208333333333333
 49
0.0
 49
0.0
 49
0.0
 49
0.0
 49
0.0208333333333333
 49
0.0
 49
0.0
 49
0.0
 49
0.0
 49
1.0
 49
0.0
 49
0.0
 49
0.0
 49
0.0
 49
1.0
175
     0
142
0.0208333333333333
142
0.0
142
0.0
142
0.0
142
0.0
142
0.0208333333333333
142
0.0
142
0.0
142
0.0
142
0.0
142
1.0
142
0.0
142
0.0
142
0.0
142
0.0
142
1.0
179
     0
144
0.0208333333333333
144
0.0
144
0.0
144
0.0
144
0.0
144
0.0208333333333333
144
0.0
144
0.0
144
0.0
144
0.0
144
1.0
144
0.0
144
0.0
144
0.0
144
0.0
144
1.0
147
0.0208333333333333
147
0.0
147
0.0
147
0.0
147
0.0
147
0.0208333333333333
147
0.0
147
0.0
147
0.0
147
0.0
147
1.0
147
0.0
147
0.0
147
0.0
147
0.0
147
1.0
  0
MATERIAL
  5
11
102
{ACAD_XDICTIONARY
360
12
102
}
102
{ACAD_REACTORS
330
10
102
}
330
10
100
AcDbMaterial
  1
ByLayer
 72
     0
 43
0.0208333333333333
 43
0.0
 43
0.0
 43
0.0
 43
0.0
 43
0.0208333333333333
 43
0.0
 43
0.0
 43
0.0
 43
0.0
 43
1.0
 43
0.0
 43
0.0
 43
0.0
 43
0.0
 43
1.0
 77
     0
 47
0.0208333333333333
 47
0.0
 47
0.0
 47
0.0
 47
0.0
 47
0.0208333333333333
 47
0.0
 47
0.0
 47
0.0
 47
0.0
 47
1.0
 47
0.0
 47
0.0
 47
0.0
 47
0.0
 47
1.0
171
     0
 49
0.0208333333333333
 49
0.0
 49
0.0
 49
0.0
 49
0.0
 49
0.0208333333333333
 49
0.0
 49
0.0
 49
0.0
 49
0.0
 49
1.0
 49
0.0
 49
0.0
 49
0.0
 49
0.0
 49
1.0
175
     0
142
0.0208333333333333
142
0.0
142
0.0
142
0.0
142
0.0
142
0.0208333333333333
142
0.0
142
0.0
142
0.0
142
0.0
142
1.0
142
0.0
142
0.0
142
0.0
142
0.0
142
1.0
179
     0
144
0.0208333333333333
144
0.0
144
0.0
144
0.0
144
0.0
144
0.0208333333333333
144
0.0
144
0.0
144
0.0
144
0.0
144
1.0
144
0.0
144
0.0
144
0.0
144
0.0
144
1.0
147
0.0208333333333333
147
0.0
147
0.0
147
0.0
147
0.0
147
0.0208333333333333
147
0.0
147
0.0
147
0.0
147
0.0
147
1.0
147
0.0
147
0.0
147
0.0
147
0.0
147
1.0
  0
MATERIAL
  5
21
102
{ACAD_XDICTIONARY
360
22
102
}
102
{ACAD_REACTORS
330
10
102
}
330
10
100
AcDbMaterial
  1
Global
 72
     0
 43
0.0208333333333333
 43
0.0
 43
0.0
 43
0.0
 43
0.0
 43
0.0208333333333333
 43
0.0
 43
0.0
 43
0.0
 43
0.0
 43
1.0
 43
0.0
 43
0.0
 43
0.0
 43
0.0
 43
1.0
 77
     0
 47
0.0208333333333333
 47
0.0
 47
0.0
 47
0.0
 47
0.0
 47
0.0208333333333333
 47
0.0
 47
0.0
 47
0.0
 47
0.0
 47
1.0
 47
0.0
 47
0.0
 47
0.0
 47
0.0
 47
1.0
171
     0
 49
0.0208333333333333
 49
0.0
 49
0.0
 49
0.0
 49
0.0
 49
0.0208333333333333
 49
0.0
 49
0.0
 49
0.0
 49
0.0
 49
1.0
 49
0.0
 49
0.0
 49
0.0
 49
0.0
 49
1.0
175
     0
142
0.0208333333333333
142
0.0
142
0.0
142
0.0
142
0.0
142
0.0208333333333333
142
0.0
142
0.0
142
0.0
142
0.0
142
1.0
142
0.0
142
0.0
142
0.0
142
0.0
142
1.0
179
     0
144
0.0208333333333333
144
0.0
144
0.0
144
0.0
144
0.0
144
0.0208333333333333
144
0.0
144
0.0
144
0.0
144
0.0
144
1.0
144
0.0
144
0.0
144
0.0
144
0.0
144
1.0
147
0.0208333333333333
147
0.0
147
0.0
147
0.0
147
0.0
147
0.0208333333333333
147
0.0
147
0.0
147
0.0
147
0.0
147
1.0
147
0.0
147
0.0
147
0.0
147
0.0
147
1.0
  0
MLEADERSTYLE
  5
67
102
{ACAD_REACTORS
330
66
102
}
330
66
100
AcDbMLeaderStyle
179
     2
170
     2
171
     1
172
     0
 90
        2
 40
0.0
 41
0.0
173
     1
 91
-1056964608
340
5B
 92
       -2
290
     1
 42
0.09
291
     1
 43
0.36
  3
Standard
 44
0.18
300

342
55
174
     1
178
     6
175
     1
176
     0
 93
-1056964608
 45
0.18
292
     0
297
     0
 46
0.18
 94
-1056964608
 47
1.0
 49
1.0
140
1.0
293
     1
141
0.0
294
     1
177
     0
142
1.0
295
     1
296
     0
143
0.125
271
     0
272
     9
273
     9
298
     1
  0
MLINESTYLE
  5
60
102
{ACAD_REACTORS
330
5F
102
}
330
5F
100
AcDbMlineStyle
  2
STANDARD
 70
     0
  3

 62
   256
 51
90.0
 52
90.0
 71
     2
 49
0.5
 62
   256
  6
BYLAYER
 49
-0.5
 62
   256
  6
BYLAYER
  0
ACDBPLACEHOLDER
  5
F
102
{ACAD_REACTORS
330
E
102
}
330
E
  0
SCALE
  5
43
102
{ACAD_REACTORS
330
42
102
}
330
42
100
AcDbScale
 70
     0
300
1:1
140
1.0
141
1.0
290
     1
  0
SCALE
  5
44
102
{ACAD_REACTORS
330
42
102
}
330
42
100
AcDbScale
 70
     0
300
1/128" = 1'-0"
140
0.0078125
141
12.0
290
     0
  0
SCALE
  5
45
102
{ACAD_REACTORS
330
42
102
}
330
42
100
AcDbScale
 70
     0
300
1/64" = 1'-0"
140
0.015625
141
12.0
290
     0
  0
SCALE
  5
46
102
{ACAD_REACTORS
330
42
102
}
330
42
100
AcDbScale
 70
     0
300
1/32" = 1'-0"
140
0.03125
141
12.0
290
     0
  0
SCALE
  5
47
102
{ACAD_REACTORS
330
42
102
}
330
42
100
AcDbScale
 70
     0
300
1/16" = 1'-0"
140
0.0625
141
12.0
290
     0
  0
SCALE
  5
48
102
{ACAD_REACTORS
330
42
102
}
330
42
100
AcDbScale
 70
     0
300
3/32" = 1'-0"
140
0.09375
141
12.0
290
     0
  0
SCALE
  5
49
102
{ACAD_REACTORS
330
42
102
}
330
42
100
AcDbScale
 70
     0
300
1/8" = 1'-0"
140
0.125
141
12.0
290
     0
  0
SCALE
  5
4A
102
{ACAD_REACTORS
330
42
102
}
330
42
100
AcDbScale
 70
     0
300
3/16" = 1'-0"
140
0.1875
141
12.0
290
     0
  0
SCALE
  5
4B
102
{ACAD_REACTORS
330
42
102
}
330
42
100
AcDbScale
 70
     0
300
1/4" = 1'-0"
140
0.25
141
12.0
290
     0
  0
SCALE
  5
4C
102
{ACAD_REACTORS
330
42
102
}
330
42
100
AcDbScale
 70
     0
300
3/8" = 1'-0"
140
0.375
141
12.0
290
     0
  0
SCALE
  5
4D
102
{ACAD_REACTORS
330
42
102
}
330
42
100
AcDbScale
 70
     0
300
1/2" = 1'-0"
140
0.5
141
12.0
290
     0
  0
SCALE
  5
4E
102
{ACAD_REACTORS
330
42
102
}
330
42
100
AcDbScale
 70
     0
300
3/4" = 1'-0"
140
0.75
141
12.0
290
     0
  0
SCALE
  5
4F
102
{ACAD_REACTORS
330
42
102
}
330
42
100
AcDbScale
 70
     0
300
1" = 1'-0"
140
1.0
141
12.0
290
     0
  0
SCALE
  5
50
102
{ACAD_REACTORS
330
42
102
}
330
42
100
AcDbScale
 70
     0
300
1-1/2" = 1'-0"
140
1.5
141
12.0
290
     0
  0
SCALE
  5
51
102
{ACAD_REACTORS
330
42
102
}
330
42
100
AcDbScale
 70
     0
300
3" = 1'-0"
140
3.0
141
12.0
290
     0
  0
SCALE
  5
52
102
{ACAD_REACTORS
330
42
102
}
330
42
100
AcDbScale
 70
     0
300
6" = 1'-0"
140
6.0
141
12.0
290
     0
  0
SCALE
  5
53
102
{ACAD_REACTORS
330
42
102
}
330
42
100
AcDbScale
 70
     0
300
1'-0" = 1'-0"
140
12.0
141
12.0
290
     0
  0
ACDBSECTIONVIEWSTYLE
  5
69
102
{ACAD_REACTORS
330
68
102
}
330
68
100
AcDbModelDocViewStyle
 70
     0
  3
Imperial24
290
     1
300
Imperial24
 90
        0
100
AcDbSectionViewStyle
 70
     0
 71
     0
 90
       78
 71
     1
340
55
 62
   256
 40
0.24
340
0
340
0
 62
   256
 40
0.24
300
I, O, Q, S, X, Z
 40
0.48
 90
        3
 40
0.18
 90
        1
 71
     2
340
5D
 90
       25
 62
   256
340
5D
 90
       50
 62
   256
 40
0.24
 40
0.0
 40
0.24
 71
     3
340
55
 62
   256
 40
0.24
 90
        1
 40
0.75
 90
        1
300
%<\AcVar ViewType \f "%tc1">% %<\AcVar ViewSectionStartId>%-%<\AcVar ViewSectionEndId>%\PSCALE %<\AcVar ViewScale \f "%sn">%
 71
     4
 62
   256
 62
   257
300
ANSI31
 40
1.0
 90
        0
290
     0
290
     0
 90
        6
 40
0.0
 40
1.570796326794896
 40
0.2617993877991494
 40
1.308996938995747
 40
-0.2617993877991494
 40
1.832595714594046
  0
TABLESTYLE
  5
65
102
{ACAD_XDICTIONARY
360
BC
102
}
102
{ACAD_REACTORS
330
64
102
}
330
64
100
AcDbTableStyle
280
     0
  3
Standard
 70
     0
 71
     0
 40
0.06
 41
0.06
280
     0
281
     0
  7
Standard
140
0.18
170
     2
 62
     0
 63
     7
283
     0
 90
      512
 91
        0
  1

274
    -2
284
     1
 64
     0
275
    -2
285
     1
 65
     0
276
    -2
286
     1
 66
     0
277
    -2
287
     1
 67
     0
278
    -2
288
     1
 68
     0
279
    -2
289
     1
 69
     0
  7
Standard
140
0.25
170
     5
 62
     0
 63
     7
283
     0
 90
      512
 91
        0
  1

274
    -2
284
     1
 64
     0
275
    -2
285
     1
 65
     0
276
    -2
286
     1
 66
     0
277
    -2
287
     1
 67
     0
278
    -2
288
     1
 68
     0
279
    -2
289
     1
 69
     0
  7
Standard
140
0.18
170
     5
 62
     0
 63
     7
283
     0
 90
      512
 91
        0
  1

274
    -2
284
     1
 64
     0
275
    -2
285
     1
 65
     0
276
    -2
286
     1
 66
     0
277
    -2
287
     1
 67
     0
278
    -2
288
     1
 68
     0
279
    -2
289
     1
 69
     0
  0
VISUALSTYLE
  5
2F
102
{ACAD_REACTORS
330
29
102
}
330
29
100
AcDbVisualStyle
  2
2dWireframe
 70
     4
177
     3
291
     0
 70
    58
 90
        0
176
     1
 90
        2
176
     1
 90
        0
176
     1
 90
        0
176
     1
 40
0.6
176
     1
 40
30.0
176
     1
 62
     7
420
 16777215
176
     1
 90
        1
176
     1
 90
        4
176
     1
 62
     7
176
     1
 62
   257
176
     1
 90
        1
176
     1
 90
        1
176
     1
 40
1.0
176
     1
 90
        0
176
     1
 62
   257
176
     1
 40
1.0
176
     1
 90
        1
176
     1
 90
        6
176
     1
 90
        2
176
     1
 62
     7
176
     1
 90
        5
176
     1
 90
        0
176
     1
 90
        0
176
     1
290
     0
176
     1
 90
        1
176
     1
 40
0.0
176
     1
 90
        0
176
     1
290
     1
176
     1
290
     1
176
     1
290
     0
176
     1
290
     0
176
     1
290
     0
176
     1
290
     0
176
     1
290
     0
176
     1
290
     0
176
     1
290
     0
176
     1
 90
       50
176
     1
 40
0.0
176
     1
 40
1.0
176
     1
 90
        0
176
     1
 62
    18
420
        0
176
     1
 90
       50
176
     1
 90
        3
176
     1
 62
     5
420
      255
176
     1
290
     0
176
     1
 90
       50
176
     1
 90
       50
176
     1
 90
       50
176
     1
290
     0
176
     1
 90
       50
176
     1
 62
   256
176
     0
 40
1.0
176
     0
 90
        2
176
     1
  1
strokes_ogs.tif
176
     1
290
     0
176
     1
 40
1.0
176
     1
 40
1.0
176
     1
  0
VISUALSTYLE
  5
2E
102
{ACAD_REACTORS
330
29
102
}
330
29
100
AcDbVisualStyle
  2
Basic
 70
     7
177
     3
291
     1
 70
    58
 90
        1
176
     1
 90
        0
176
     1
 90
        1
176
     1
 90
        0
176
     1
 40
0.6
176
     1
 40
30.0
176
     1
 62
     7
420
 16777215
176
     1
 90
        0
176
     1
 90
        4
176
     1
 62
     7
176
     1
 62
   257
176
     1
 90
        1
176
     1
 90
        1
176
     1
 40
1.0
176
     1
 90
        8
176
     1
 62
     7
176
     1
 40
1.0
176
     1
 90
        1
176
     1
 90
        6
176
     1
 90
        2
176
     1
 62
     7
176
     1
 90
        5
176
     1
 90
        0
176
     1
 90
        0
176
     1
290
     0
176
     1
 90
        1
176
     1
 40
0.0
176
     1
 90
        0
176
     1
290
     0
176
     1
290
     1
176
     1
290
     1
176
     1
290
     0
176
     1
290
     0
176
     1
290
     0
176
     1
290
     0
176
     1
290
     0
176
     1
290
     0
176
     1
 90
       50
176
     1
 40
0.0
176
     1
 40
1.0
176
     1
 90
        0
176
     1
 62
    18
420
        0
176
     1
 90
       50
176
     1
 90
        3
176
     1
 62
     5
420
      255
176
     1
290
     0
176
     1
 90
       50
176
     1
 90
       50
176
     1
 90
       50
176
     1
290
     0
176
     1
 90
       50
176
     1
 62
   256
176
     0
 40
1.0
176
     0
 90
        2
176
     1
  1
strokes_ogs.tif
176
     1
290
     0
176
     1
 40
1.0
176
     1
 40
1.0
176
     1
  0
VISUALSTYLE
  5
35
102
{ACAD_REACTORS
330
29
102
}
330
29
100
AcDbVisualStyle
  2
Brighten
 70
    12
177
     3
291
     1
 70
    58
 90
        2
176
     1
 90
        2
176
     1
 90
        0
176
     1
 90
        0
176
     1
 40
0.6
176
     1
 40
30.0
176
     1
 62
     7
420
 16777215
176
     1
 90
        1
176
     1
 90
        4
176
     1
 62
     7
176
     1
 62
   257
176
     1
 90
        1
176
     1
 90
        1
176
     1
 40
1.0
176
     1
 90
        8
176
     1
 62
     7
176
     1
 40
1.0
176
     1
 90
        1
176
     1
 90
        6
176
     1
 90
        2
176
     1
 62
     7
176
     1
 90
        5
176
     1
 90
        0
176
     1
 90
        0
176
     1
290
     0
176
     1
 90
        1
176
     1
 40
50.0
176
     1
 90
        0
176
     1
290
     0
176
     1
290
     1
176
     1
290
     1
176
     1
290
     0
176
     1
290
     0
176
     1
290
     0
176
     1
290
     0
176
     1
290
     0
176
     1
290
     0
176
     1
 90
       50
176
     1
 40
0.0
176
     1
 40
1.0
176
     1
 90
        0
176
     1
 62
    18
420
        0
176
     1
 90
       50
176
     1
 90
        3
176
     1
 62
     5
420
      255
176
     1
290
     0
176
     1
 90
       50
176
     1
 90
       50
176
     1
 90
       50
176
     1
290
     0
176
     1
 90
       50
176
     1
 62
   256
176
     0
 40
1.0
176
     0
 90
        2
176
     1
  1
strokes_ogs.tif
176
     1
290
     0
176
     1
 40
1.0
176
     1
 40
1.0
176
     1
  0
VISUALSTYLE
  5
39
102
{ACAD_REACTORS
330
29
102
}
330
29
100
AcDbVisualStyle
  2
ColorChange
 70
    16
177
     3
291
     1
 70
    58
 90
        2
176
     1
 90
        2
176
     1
 90
        3
176
     1
 90
        0
176
     1
 40
0.6
176
     1
 40
30.0
176
     1
 62
     8
420
  8421504
176
     1
 90
        1
176
     1
 90
        4
176
     1
 62
     7
176
     1
 62
   257
176
     1
 90
        1
176
     1
 90
        1
176
     1
 40
1.0
176
     1
 90
        8
176
     1
 62
     8
420
  8421504
176
     1
 40
1.0
176
     1
 90
        1
176
     1
 90
        6
176
     1
 90
        2
176
     1
 62
     7
176
     1
 90
        5
176
     1
 90
        0
176
     1
 90
        0
176
     1
290
     0
176
     1
 90
        1
176
     1
 40
0.0
176
     1
 90
        0
176
     1
290
     0
176
     1
290
     1
176
     1
290
     1
176
     1
290
     0
176
     1
290
     0
176
     1
290
     0
176
     1
290
     0
176
     1
290
     0
176
     1
290
     0
176
     1
 90
       50
176
     1
 40
0.0
176
     1
 40
1.0
176
     1
 90
        0
176
     1
 62
    18
420
        0
176
     1
 90
       50
176
     1
 90
        3
176
     1
 62
     5
420
      255
176
     1
290
     0
176
     1
 90
       50
176
     1
 90
       50
176
     1
 90
       50
176
     1
290
     0
176
     1
 90
       50
176
     1
 62
   256
176
     0
 40
1.0
176
     0
 90
        2
176
     1
  1
strokes_ogs.tif
176
     1
290
     0
176
     1
 40
1.0
176
     1
 40
1.0
176
     1
  0
VISUALSTYLE
  5
32
102
{ACAD_REACTORS
330
29
102
}
330
29
100
AcDbVisualStyle
  2
Conceptual
 70
     9
177
     3
291
     0
 70
    58
 90
        3
176
     1
 90
        2
176
     1
 90
        0
176
     1
 90
        0
176
     1
 40
0.6
176
     1
 40
30.0
176
     1
 62
     7
420
 16777215
176
     1
 90
        2
176
     1
 90
        2
176
     1
 62
     7
176
     1
 62
   257
176
     1
 90
        1
176
     1
 90
        1
176
     1
 40
179.0
176
     1
 90
        8
176
     1
 62
     7
176
     1
 40
1.0
176
     1
 90
        1
176
     1
 90
        6
176
     1
 90
        2
176
     1
 62
     7
176
     1
 90
        3
176
     1
 90
        0
176
     1
 90
        0
176
     1
290
     0
176
     1
 90
        1
176
     1
 40
0.0
176
     1
 90
        0
176
     1
290
     0
176
     1
290
     1
176
     1
290
     1
176
     1
290
     0
176
     1
290
     0
176
     1
290
     0
176
     1
290
     0
176
     1
290
     0
176
     1
290
     0
176
     1
 90
       50
176
     1
 40
0.0
176
     1
 40
1.0
176
     1
 90
        0
176
     1
 62
    18
420
        0
176
     1
 90
       50
176
     1
 90
        3
176
     1
 62
     5
420
      255
176
     1
290
     0
176
     1
 90
       50
176
     1
 90
       50
176
     1
 90
       50
176
     1
290
     0
176
     1
 90
       50
176
     1
 62
   256
176
     0
 40
1.0
176
     0
 90
        2
176
     1
  1
strokes_ogs.tif
176
     1
290
     0
176
     1
 40
1.0
176
     1
 40
1.0
176
     1
  0
VISUALSTYLE
  5
34
102
{ACAD_REACTORS
330
29
102
}
330
29
100
AcDbVisualStyle
  2
Dim
 70
    11
177
     3
291
     1
 70
    58
 90
        2
176
     1
 90
        2
176
     1
 90
        0
176
     1
 90
        0
176
     1
 40
0.6
176
     1
 40
30.0
176
     1
 62
     7
420
 16777215
176
     1
 90
        1
176
     1
 90
        4
176
     1
 62
     7
176
     1
 62
   257
176
     1
 90
        1
176
     1
 90
        1
176
     1
 40
1.0
176
     1
 90
        8
176
     1
 62
     7
176
     1
 40
1.0
176
     1
 90
        1
176
     1
 90
        6
176
     1
 90
        2
176
     1
 62
     7
176
     1
 90
        5
176
     1
 90
        0
176
     1
 90
        0
176
     1
290
     0
176
     1
 90
        1
176
     1
 40
-50.0
176
     1
 90
        0
176
     1
290
     0
176
     1
290
     1
176
     1
290
     1
176
     1
290
     0
176
     1
290
     0
176
     1
290
     0
176
     1
290
     0
176
     1
290
     0
176
     1
290
     0
176
     1
 90
       50
176
     1
 40
0.0
176
     1
 40
1.0
176
     1
 90
        0
176
     1
 62
    18
420
        0
176
     1
 90
       50
176
     1
 90
        3
176
     1
 62
     5
420
      255
176
     1
290
     0
176
     1
 90
       50
176
     1
 90
       50
176
     1
 90
       50
176
     1
290
     0
176
     1
 90
       50
176
     1
 62
   256
176
     0
 40
1.0
176
     0
 90
        2
176
     1
  1
strokes_ogs.tif
176
     1
290
     0
176
     1
 40
1.0
176
     1
 40
1.0
176
     1
  0
VISUALSTYLE
  5
41
102
{ACAD_REACTORS
330
29
102
}
330
29
100
AcDbVisualStyle
  2
EdgeColorOff
 70
    22
177
     3
291
     1
 70
    58
 90
        2
176
     0
 90
        2
176
     0
 90
        0
176
     0
 90
        0
176
     0
 40
0.6
176
     0
 40
30.0
176
     0
 62
     7
420
 16777215
176
     0
 90
        1
176
     0
 90
        4
176
     0
 62
     7
176
     0
 62
   257
176
     0
 90
        1
176
     0
 90
        1
176
     0
 40
1.0
176
     0
 90
        8
176
     2
 62
     7
176
     0
 40
1.0
176
     0
 90
        1
176
     0
 90
        6
176
     0
 90
        2
176
     0
 62
     7
176
     0
 90
        5
176
     0
 90
        0
176
     0
 90
        0
176
     0
290
     0
176
     0
 90
        1
176
     0
 40
0.0
176
     0
 90
        0
176
     0
290
     0
176
     0
290
     1
176
     0
290
     1
176
     0
290
     0
176
     0
290
     0
176
     0
290
     0
176
     0
290
     0
176
     0
290
     0
176
     0
290
     0
176
     0
 90
       50
176
     0
 40
0.0
176
     0
 40
1.0
176
     0
 90
        0
176
     0
 62
    18
420
        0
176
     0
 90
       50
176
     0
 90
        3
176
     0
 62
     5
420
      255
176
     0
290
     0
176
     0
 90
       50
176
     0
 90
       50
176
     0
 90
       50
176
     0
290
     0
176
     0
 90
       50
176
     0
 62
   256
176
     0
 40
1.0
176
     0
 90
        2
176
     0
  1
strokes_ogs.tif
176
     0
290
     0
176
     0
 40
1.0
176
     0
 40
1.0
176
     0
  0
VISUALSTYLE
  5
38
102
{ACAD_REACTORS
330
29
102
}
330
29
100
AcDbVisualStyle
  2
Facepattern
 70
    15
177
     3
291
     1
 70
    58
 90
        2
176
     1
 90
        2
176
     1
 90
        0
176
     1
 90
        0
176
     1
 40
0.6
176
     1
 40
30.0
176
     1
 62
     7
420
 16777215
176
     1
 90
        1
176
     1
 90
        4
176
     1
 62
     7
176
     1
 62
   257
176
     1
 90
        1
176
     1
 90
        1
176
     1
 40
1.0
176
     1
 90
        8
176
     1
 62
     7
176
     1
 40
1.0
176
     1
 90
        1
176
     1
 90
        6
176
     1
 90
        2
176
     1
 62
     7
176
     1
 90
        5
176
     1
 90
        0
176
     1
 90
        0
176
     1
290
     0
176
     1
 90
        1
176
     1
 40
0.0
176
     1
 90
        0
176
     1
290
     0
176
     1
290
     1
176
     1
290
     1
176
     1
290
     0
176
     1
290
     0
176
     1
290
     0
176
     1
290
     0
176
     1
290
     0
176
     1
290
     0
176
     1
 90
       50
176
     1
 40
0.0
176
     1
 40
1.0
176
     1
 90
        0
176
     1
 62
    18
420
        0
176
     1
 90
       50
176
     1
 90
        3
176
     1
 62
     5
420
      255
176
     1
290
     0
176
     1
 90
       50
176
     1
 90
       50
176
     1
 90
       50
176
     1
290
     0
176
     1
 90
       50
176
     1
 62
   256
176
     0
 40
1.0
176
     0
 90
        2
176
     1
  1
strokes_ogs.tif
176
     1
290
     0
176
     1
 40
1.0
176
     1
 40
1.0
176
     1
  0
VISUALSTYLE
  5
2A
102
{ACAD_REACTORS
330
29
102
}
330
29
100
AcDbVisualStyle
  2
Flat
 70
     0
177
     3
291
     1
 70
    58
 90
        2
176
     1
 90
        1
176
     1
 90
        1
176
     1
 90
        2
176
     1
 40
0.6
176
     1
 40
30.0
176
     1
 62
     7
420
 16777215
176
     1
 90
        0
176
     1
 90
        0
176
     1
 62
     7
176
     1
 62
   257
176
     1
 90
        1
176
     1
 90
        1
176
     1
 40
1.0
176
     1
 90
        8
176
     1
 62
     7
176
     1
 40
1.0
176
     1
 90
        1
176
     1
 90
        6
176
     1
 90
        2
176
     1
 62
     7
176
     1
 90
        5
176
     1
 90
        0
176
     1
 90
        0
176
     1
290
     0
176
     1
 90
       13
176
     1
 40
0.0
176
     1
 90
        0
176
     1
290
     0
176
     1
290
     1
176
     1
290
     1
176
     1
290
     0
176
     1
290
     0
176
     1
290
     0
176
     1
290
     0
176
     1
290
     0
176
     1
290
     0
176
     1
 90
       50
176
     1
 40
0.0
176
     1
 40
1.0
176
     1
 90
        0
176
     1
 62
    18
420
        0
176
     1
 90
       50
176
     1
 90
        3
176
     1
 62
     5
420
      255
176
     1
290
     0
176
     1
 90
       50
176
     1
 90
       50
176
     1
 90
       50
176
     1
290
     0
176
     1
 90
       50
176
     1
 62
   256
176
     0
 40
1.0
176
     0
 90
        2
176
     1
  1
strokes_ogs.tif
176
     1
290
     0
176
     1
 40
1.0
176
     1
 40
1.0
176
     1
  0
VISUALSTYLE
  5
2B
102
{ACAD_REACTORS
330
29
102
}
330
29
100
AcDbVisualStyle
  2
FlatWithEdges
 70
     1
177
     3
291
     1
 70
    58
 90
        2
176
     1
 90
        1
176
     1
 90
        1
176
     1
 90
        2
176
     1
 40
0.6
176
     1
 40
30.0
176
     1
 62
     7
420
 16777215
176
     1
 90
        1
176
     1
 90
        0
176
     1
 62
     7
176
     1
 62
   257
176
     1
 90
        1
176
     1
 90
        1
176
     1
 40
1.0
176
     1
 90
        0
176
     1
 62
   257
176
     1
 40
1.0
176
     1
 90
        1
176
     1
 90
        6
176
     1
 90
        2
176
     1
 62
     7
176
     1
 90
        5
176
     1
 90
        0
176
     1
 90
        0
176
     1
290
     0
176
     1
 90
       13
176
     1
 40
0.0
176
     1
 90
        0
176
     1
290
     0
176
     1
290
     1
176
     1
290
     1
176
     1
290
     0
176
     1
290
     0
176
     1
290
     0
176
     1
290
     0
176
     1
290
     0
176
     1
290
     0
176
     1
 90
       50
176
     1
 40
0.0
176
     1
 40
1.0
176
     1
 90
        0
176
     1
 62
    18
420
        0
176
     1
 90
       50
176
     1
 90
        3
176
     1
 62
     5
420
      255
176
     1
290
     0
176
     1
 90
       50
176
     1
 90
       50
176
     1
 90
       50
176
     1
290
     0
176
     1
 90
       50
176
     1
 62
   256
176
     0
 40
1.0
176
     0
 90
        2
176
     1
  1
strokes_ogs.tif
176
     1
290
     0
176
     1
 40
1.0
176
     1
 40
1.0
176
     1
  0
VISUALSTYLE
  5
2C
102
{ACAD_REACTORS
330
29
102
}
330
29
100
AcDbVisualStyle
  2
Gouraud
 70
     2
177
     3
291
     1
 70
    58
 90
        2
176
     1
 90
        2
176
     1
 90
        1
176
     1
 90
        2
176
     1
 40
0.6
176
     1
 40
30.0
176
     1
 62
     7
420
 16777215
176
     1
 90
        0
176
     1
 90
        0
176
     1
 62
     7
176
     1
 62
   257
176
     1
 90
        1
176
     1
 90
        1
176
     1
 40
1.0
176
     1
 90
        0
176
     1
 62
     7
176
     1
 40
1.0
176
     1
 90
        1
176
     1
 90
        6
176
     1
 90
        2
176
     1
 62
     7
176
     1
 90
        5
176
     1
 90
        0
176
     1
 90
        0
176
     1
290
     0
176
     1
 90
       13
176
     1
 40
0.0
176
     1
 90
        0
176
     1
290
     0
176
     1
290
     1
176
     1
290
     1
176
     1
290
     0
176
     1
290
     0
176
     1
290
     0
176
     1
290
     0
176
     1
290
     0
176
     1
290
     0
176
     1
 90
       50
176
     1
 40
0.0
176
     1
 40
1.0
176
     1
 90
        0
176
     1
 62
    18
420
        0
176
     1
 90
       50
176
     1
 90
        3
176
     1
 62
     5
420
      255
176
     1
290
     0
176
     1
 90
       50
176
     1
 90
       50
176
     1
 90
       50
176
     1
290
     0
176
     1
 90
       50
176
     1
 62
   256
176
     0
 40
1.0
176
     0
 90
        2
176
     1
  1
strokes_ogs.tif
176
     1
290
     0
176
     1
 40
1.0
176
     1
 40
1.0
176
     1
  0
VISUALSTYLE
  5
2D
102
{ACAD_REACTORS
330
29
102
}
330
29
100
AcDbVisualStyle
  2
GouraudWithEdges
 70
     3
177
     3
291
     1
 70
    58
 90
        2
176
     1
 90
        2
176
     1
 90
        1
176
     1
 90
        2
176
     1
 40
0.6
176
     1
 40
30.0
176
     1
 62
     7
420
 16777215
176
     1
 90
        1
176
     1
 90
        0
176
     1
 62
     7
176
     1
 62
   257
176
     1
 90
        1
176
     1
 90
        1
176
     1
 40
1.0
176
     1
 90
        0
176
     1
 62
   257
176
     1
 40
1.0
176
     1
 90
        1
176
     1
 90
        6
176
     1
 90
        2
176
     1
 62
     7
176
     1
 90
        5
176
     1
 90
        0
176
     1
 90
        0
176
     1
290
     0
176
     1
 90
       13
176
     1
 40
0.0
176
     1
 90
        0
176
     1
290
     0
176
     1
290
     1
176
     1
290
     1
176
     1
290
     0
176
     1
290
     0
176
     1
290
     0
176
     1
290
     0
176
     1
290
     0
176
     1
290
     0
176
     1
 90
       50
176
     1
 40
0.0
176
     1
 40
1.0
176
     1
 90
        0
176
     1
 62
    18
420
        0
176
     1
 90
       50
176
     1
 90
        3
176
     1
 62
     5
420
      255
176
     1
290
     0
176
     1
 90
       50
176
     1
 90
       50
176
     1
 90
       50
176
     1
290
     0
176
     1
 90
       50
176
     1
 62
   256
176
     0
 40
1.0
176
     0
 90
        2
176
     1
  1
strokes_ogs.tif
176
     1
290
     0
176
     1
 40
1.0
176
     1
 40
1.0
176
     1
  0
VISUALSTYLE
  5
31
102
{ACAD_REACTORS
330
29
102
}
330
29
100
AcDbVisualStyle
  2
Hidden
 70
     6
177
     3
291
     0
 70
    58
 90
        1
176
     1
 90
        2
176
     1
 90
        2
176
     1
 90
        0
176
     1
 40
0.6
176
     1
 40
30.0
176
     1
 62
     7
420
 16777215
176
     1
 90
        2
176
     1
 90
        2
176
     1
 62
     7
176
     1
 62
   257
176
     1
 90
        2
176
     1
 90
        1
176
     1
 40
40.0
176
     1
 90
        0
176
     1
 62
   257
176
     1
 40
1.0
176
     1
 90
        1
176
     1
 90
        6
176
     1
 90
        2
176
     1
 62
     7
176
     1
 90
        3
176
     1
 90
        0
176
     1
 90
        0
176
     1
290
     0
176
     1
 90
        1
176
     1
 40
0.0
176
     1
 90
        0
176
     1
290
     0
176
     1
290
     1
176
     1
290
     1
176
     1
290
     0
176
     1
290
     0
176
     1
290
     0
176
     1
290
     0
176
     1
290
     0
176
     1
290
     0
176
     1
 90
       50
176
     1
 40
0.0
176
     1
 40
1.0
176
     1
 90
        0
176
     1
 62
    18
420
        0
176
     1
 90
       50
176
     1
 90
        3
176
     1
 62
     5
420
      255
176
     1
290
     0
176
     1
 90
       50
176
     1
 90
       50
176
     1
 90
       50
176
     1
290
     0
176
     1
 90
       50
176
     1
 62
   256
176
     0
 40
1.0
176
     0
 90
        2
176
     1
  1
strokes_ogs.tif
176
     1
290
     0
176
     1
 40
1.0
176
     1
 40
1.0
176
     1
  0
VISUALSTYLE
  5
3F
102
{ACAD_REACTORS
330
29
102
}
330
29
100
AcDbVisualStyle
  2
JitterOff
 70
    20
177
     3
291
     1
 70
    58
 90
        2
176
     0
 90
        2
176
     0
 90
        0
176
     0
 90
        0
176
     0
 40
0.6
176
     0
 40
30.0
176
     0
 62
     7
420
 16777215
176
     0
 90
        1
176
     0
 90
        4
176
     0
 62
     7
176
     0
 62
   257
176
     0
 90
        1
176
     0
 90
        1
176
     0
 40
1.0
176
     0
 90
       10
176
     2
 62
     7
176
     0
 40
1.0
176
     0
 90
        1
176
     0
 90
        6
176
     0
 90
        2
176
     0
 62
     7
176
     0
 90
        5
176
     0
 90
        0
176
     0
 90
        0
176
     0
290
     0
176
     0
 90
        1
176
     0
 40
0.0
176
     0
 90
        0
176
     0
290
     0
176
     0
290
     1
176
     0
290
     1
176
     0
290
     0
176
     0
290
     0
176
     0
290
     0
176
     0
290
     0
176
     0
290
     0
176
     0
290
     0
176
     0
 90
       50
176
     0
 40
0.0
176
     0
 40
1.0
176
     0
 90
        0
176
     0
 62
    18
420
        0
176
     0
 90
       50
176
     0
 90
        3
176
     0
 62
     5
420
      255
176
     0
290
     0
176
     0
 90
       50
176
     0
 90
       50
176
     0
 90
       50
176
     0
290
     0
176
     0
 90
       50
176
     0
 62
   256
176
     0
 40
1.0
176
     0
 90
        2
176
     0
  1
strokes_ogs.tif
176
     0
290
     0
176
     0
 40
1.0
176
     0
 40
1.0
176
     0
  0
VISUALSTYLE
  5
37
102
{ACAD_REACTORS
330
29
102
}
330
29
100
AcDbVisualStyle
  2
Linepattern
 70
    14
177
     3
291
     1
 70
    58
 90
        2
176
     1
 90
        2
176
     1
 90
        0
176
     1
 90
        0
176
     1
 40
0.6
176
     1
 40
30.0
176
     1
 62
     7
420
 16777215
176
     1
 90
        1
176
     1
 90
        4
176
     1
 62
     7
176
     1
 62
   257
176
     1
 90
        7
176
     1
 90
        7
176
     1
 40
1.0
176
     1
 90
        8
176
     1
 62
     7
176
     1
 40
1.0
176
     1
 90
        1
176
     1
 90
        6
176
     1
 90
        2
176
     1
 62
     7
176
     1
 90
        5
176
     1
 90
        0
176
     1
 90
        0
176
     1
290
     0
176
     1
 90
        1
176
     1
 40
0.0
176
     1
 90
        0
176
     1
290
     0
176
     1
290
     1
176
     1
290
     1
176
     1
290
     0
176
     1
290
     0
176
     1
290
     0
176
     1
290
     0
176
     1
290
     0
176
     1
290
     0
176
     1
 90
       50
176
     1
 40
0.0
176
     1
 40
1.0
176
     1
 90
        0
176
     1
 62
    18
420
        0
176
     1
 90
       50
176
     1
 90
        3
176
     1
 62
     5
420
      255
176
     1
290
     0
176
     1
 90
       50
176
     1
 90
       50
176
     1
 90
       50
176
     1
290
     0
176
     1
 90
       50
176
     1
 62
   256
176
     0
 40
1.0
176
     0
 90
        2
176
     1
  1
strokes_ogs.tif
176
     1
290
     0
176
     1
 40
1.0
176
     1
 40
1.0
176
     1
  0
VISUALSTYLE
  5
40
102
{ACAD_REACTORS
330
29
102
}
330
29
100
AcDbVisualStyle
  2
OverhangOff
 70
    21
177
     3
291
     1
 70
    58
 90
        2
176
     0
 90
        2
176
     0
 90
        0
176
     0
 90
        0
176
     0
 40
0.6
176
     0
 40
30.0
176
     0
 62
     7
420
 16777215
176
     0
 90
        1
176
     0
 90
        4
176
     0
 62
     7
176
     0
 62
   257
176
     0
 90
        1
176
     0
 90
        1
176
     0
 40
1.0
176
     0
 90
        9
176
     2
 62
     7
176
     0
 40
1.0
176
     0
 90
        1
176
     0
 90
        6
176
     0
 90
        2
176
     0
 62
     7
176
     0
 90
        5
176
     0
 90
        0
176
     0
 90
        0
176
     0
290
     0
176
     0
 90
        1
176
     0
 40
0.0
176
     0
 90
        0
176
     0
290
     0
176
     0
290
     1
176
     0
290
     1
176
     0
290
     0
176
     0
290
     0
176
     0
290
     0
176
     0
290
     0
176
     0
290
     0
176
     0
290
     0
176
     0
 90
       50
176
     0
 40
0.0
176
     0
 40
1.0
176
     0
 90
        0
176
     0
 62
    18
420
        0
176
     0
 90
       50
176
     0
 90
        3
176
     0
 62
     5
420
      255
176
     0
290
     0
176
     0
 90
       50
176
     0
 90
       50
176
     0
 90
       50
176
     0
290
     0
176
     0
 90
       50
176
     0
 62
   256
176
     0
 40
1.0
176
     0
 90
        2
176
     0
  1
strokes_ogs.tif
176
     0
290
     0
176
     0
 40
1.0
176
     0
 40
1.0
176
     0
  0
VISUALSTYLE
  5
33
102
{ACAD_REACTORS
330
29
102
}
330
29
100
AcDbVisualStyle
  2
Realistic
 70
     8
177
     3
291
     0
 70
    58
 90
        2
176
     1
 90
        3
176
     1
 90
        0
176
     1
 90
        2
176
     1
 40
0.6
176
     1
 40
30.0
176
     1
 62
     7
420
 16777215
176
     1
 90
        0
176
     1
 90
        0
176
     1
 62
     7
176
     1
 62
   257
176
     1
 90
        1
176
     1
 90
        1
176
     1
 40
1.0
176
     1
 90
        8
176
     1
 62
   257
176
     1
 40
1.0
176
     1
 90
        1
176
     1
 90
        6
176
     1
 90
        2
176
     1
 62
     7
176
     1
 90
        3
176
     1
 90
        0
176
     1
 90
        0
176
     1
290
     0
176
     1
 90
       13
176
     1
 40
0.0
176
     1
 90
        0
176
     1
290
     0
176
     1
290
     1
176
     1
290
     1
176
     1
290
     0
176
     1
290
     0
176
     1
290
     0
176
     1
290
     0
176
     1
290
     0
176
     1
290
     0
176
     1
 90
       50
176
     1
 40
0.0
176
     1
 40
1.0
176
     1
 90
        0
176
     1
 62
    18
420
        0
176
     1
 90
       50
176
     1
 90
        3
176
     1
 62
     5
420
      255
176
     1
290
     0
176
     1
 90
       50
176
     1
 90
       50
176
     1
 90
       50
176
     1
290
     0
176
     1
 90
       50
176
     1
 62
   256
176
     0
 40
1.0
176
     0
 90
        2
176
     1
  1
strokes_ogs.tif
176
     1
290
     0
176
     1
 40
1.0
176
     1
 40
1.0
176
     1
  0
VISUALSTYLE
  5
3E
102
{ACAD_REACTORS
330
29
102
}
330
29
100
AcDbVisualStyle
  2
Shaded
 70
    27
177
     3
291
     0
 70
    58
 90
        2
176
     1
 90
        2
176
     1
 90
        1
176
     1
 90
        2
176
     1
 40
0.6
176
     1
 40
30.0
176
     1
 62
     7
420
 16777215
176
     1
 90
        0
176
     1
 90
        4
176
     1
 62
     7
176
     1
 62
   257
176
     1
 90
        1
176
     1
 90
        1
176
     1
 40
1.0
176
     1
 90
        8
176
     1
 62
   257
176
     1
 40
1.0
176
     1
 90
        1
176
     1
 90
        6
176
     1
 90
        2
176
     1
 62
     8
420
  7895160
176
     1
 90
        3
176
     1
 90
        0
176
     1
 90
        0
176
     1
290
     0
176
     1
 90
        5
176
     1
 40
0.0
176
     1
 90
        0
176
     1
290
     0
176
     1
290
     1
176
     1
290
     1
176
     1
290
     0
176
     1
290
     0
176
     1
290
     0
176
     1
290
     0
176
     1
290
     0
176
     1
290
     0
176
     1
 90
       50
176
     1
 40
0.0
176
     1
 40
1.0
176
     1
 90
        0
176
     1
 62
    18
420
        0
176
     1
 90
       50
176
     1
 90
        3
176
     1
 62
     5
420
      255
176
     1
290
     0
176
     1
 90
       50
176
     1
 90
       50
176
     1
 90
       50
176
     1
290
     0
176
     1
 90
       50
176
     1
 62
   256
176
     0
 40
1.0
176
     0
 90
        2
176
     1
  1
strokes_ogs.tif
176
     1
290
     0
176
     1
 40
1.0
176
     1
 40
1.0
176
     1
  0
VISUALSTYLE
  5
3D
102
{ACAD_REACTORS
330
29
102
}
330
29
100
AcDbVisualStyle
  2
Shaded with edges
 70
    26
177
     3
291
     0
 70
    58
 90
        2
176
     1
 90
        2
176
     1
 90
        1
176
     1
 90
        2
176
     1
 40
0.6
176
     1
 40
30.0
176
     1
 62
     7
420
 16777215
176
     1
 90
        1
176
     1
 90
        2
176
     1
 62
     7
176
     1
 62
   257
176
     1
 90
        2
176
     1
 90
        1
176
     1
 40
1.0
176
     1
 90
        8
176
     1
 62
   257
176
     1
 40
1.0
176
     1
 90
        1
176
     1
 90
        6
176
     1
 90
        2
176
     1
 62
     7
176
     1
 90
        3
176
     1
 90
        0
176
     1
 90
        0
176
     1
290
     0
176
     1
 90
        5
176
     1
 40
0.0
176
     1
 90
        0
176
     1
290
     0
176
     1
290
     1
176
     1
290
     1
176
     1
290
     0
176
     1
290
     0
176
     1
290
     0
176
     1
290
     0
176
     1
290
     0
176
     1
290
     0
176
     1
 90
       50
176
     1
 40
0.0
176
     1
 40
1.0
176
     1
 90
        0
176
     1
 62
    18
420
        0
176
     1
 90
       50
176
     1
 90
        3
176
     1
 62
     5
420
      255
176
     1
290
     0
176
     1
 90
       50
176
     1
 90
       50
176
     1
 90
       50
176
     1
290
     0
176
     1
 90
       50
176
     1
 62
   256
176
     0
 40
1.0
176
     0
 90
        2
176
     1
  1
strokes_ogs.tif
176
     1
290
     0
176
     1
 40
1.0
176
     1
 40
1.0
176
     1
  0
VISUALSTYLE
  5
3A
102
{ACAD_REACTORS
330
29
102
}
330
29
100
AcDbVisualStyle
  2
Shades of Gray
 70
    23
177
     3
291
     0
 70
    58
 90
        2
176
     1
 90
        2
176
     1
 90
        3
176
     1
 90
        0
176
     1
 40
0.6
176
     1
 40
30.0
176
     1
 62
     7
420
 16777215
176
     1
 90
        2
176
     1
 90
        2
176
     1
 62
     7
176
     1
 62
     7
176
     1
 90
        1
176
     1
 90
        1
176
     1
 40
40.0
176
     1
 90
        8
176
     1
 62
     7
176
     1
 40
1.0
176
     1
 90
        1
176
     1
 90
        6
176
     1
 90
        2
176
     1
 62
     7
176
     1
 90
        3
176
     1
 90
        0
176
     1
 90
        0
176
     1
290
     0
176
     1
 90
        1
176
     1
 40
0.0
176
     1
 90
        0
176
     1
290
     0
176
     1
290
     1
176
     1
290
     1
176
     1
290
     0
176
     1
290
     0
176
     1
290
     0
176
     1
290
     0
176
     1
290
     0
176
     1
290
     0
176
     1
 90
       50
176
     1
 40
0.0
176
     1
 40
1.0
176
     1
 90
        0
176
     1
 62
    18
420
        0
176
     1
 90
       50
176
     1
 90
        3
176
     1
 62
     5
420
      255
176
     1
290
     0
176
     1
 90
       50
176
     1
 90
       50
176
     1
 90
       50
176
     1
290
     0
176
     1
 90
       50
176
     1
 62
   256
176
     0
 40
1.0
176
     0
 90
        2
176
     1
  1
strokes_ogs.tif
176
     1
290
     0
176
     1
 40
1.0
176
     1
 40
1.0
176
     1
  0
VISUALSTYLE
  5
3B
102
{ACAD_REACTORS
330
29
102
}
330
29
100
AcDbVisualStyle
  2
Sketchy
 70
    24
177
     3
291
     0
 70
    58
 90
        1
176
     1
 90
        2
176
     1
 90
        2
176
     1
 90
        0
176
     1
 40
0.6
176
     1
 40
30.0
176
     1
 62
     7
420
 16777215
176
     1
 90
        2
176
     1
 90
        2
176
     1
 62
     7
176
     1
 62
     7
176
     1
 90
        1
176
     1
 90
        1
176
     1
 40
40.0
176
     1
 90
       11
176
     1
 62
     7
176
     1
 40
1.0
176
     1
 90
        1
176
     1
 90
        6
176
     1
 90
        2
176
     1
 62
     7
176
     1
 90
        6
176
     1
 90
        0
176
     1
 90
        0
176
     1
290
     0
176
     1
 90
        1
176
     1
 40
0.0
176
     1
 90
        0
176
     1
290
     0
176
     1
290
     1
176
     1
290
     1
176
     1
290
     0
176
     1
290
     0
176
     1
290
     0
176
     1
290
     0
176
     1
290
     0
176
     1
290
     0
176
     1
 90
       50
176
     1
 40
0.0
176
     1
 40
1.0
176
     1
 90
        0
176
     1
 62
    18
420
        0
176
     1
 90
       50
176
     1
 90
        3
176
     1
 62
     5
420
      255
176
     1
290
     0
176
     1
 90
       50
176
     1
 90
       50
176
     1
 90
       50
176
     1
290
     0
176
     1
 90
       50
176
     1
 62
   256
176
     0
 40
1.0
176
     0
 90
        2
176
     1
  1
strokes_ogs.tif
176
     1
290
     0
176
     1
 40
1.0
176
     1
 40
1.0
176
     1
  0
VISUALSTYLE
  5
36
102
{ACAD_REACTORS
330
29
102
}
330
29
100
AcDbVisualStyle
  2
Thicken
 70
    13
177
     3
291
     1
 70
    58
 90
        2
176
     1
 90
        2
176
     1
 90
        0
176
     1
 90
        0
176
     1
 40
0.6
176
     1
 40
30.0
176
     1
 62
     7
420
 16777215
176
     1
 90
        1
176
     1
 90
        4
176
     1
 62
     7
176
     1
 62
   257
176
     1
 90
        1
176
     1
 90
        1
176
     1
 40
1.0
176
     1
 90
       12
176
     1
 62
     7
176
     1
 40
1.0
176
     1
 90
        1
176
     1
 90
        6
176
     1
 90
        2
176
     1
 62
     7
176
     1
 90
        5
176
     1
 90
        0
176
     1
 90
        0
176
     1
290
     0
176
     1
 90
        1
176
     1
 40
0.0
176
     1
 90
        0
176
     1
290
     0
176
     1
290
     1
176
     1
290
     1
176
     1
290
     0
176
     1
290
     0
176
     1
290
     0
176
     1
290
     0
176
     1
290
     0
176
     1
290
     0
176
     1
 90
       50
176
     1
 40
0.0
176
     1
 40
1.0
176
     1
 90
        0
176
     1
 62
    18
420
        0
176
     1
 90
       50
176
     1
 90
        3
176
     1
 62
     5
420
      255
176
     1
290
     0
176
     1
 90
       50
176
     1
 90
       50
176
     1
 90
       50
176
     1
290
     0
176
     1
 90
       50
176
     1
 62
   256
176
     0
 40
1.0
176
     0
 90
        2
176
     1
  1
strokes_ogs.tif
176
     1
290
     0
176
     1
 40
1.0
176
     1
 40
1.0
176
     1
  0
VISUALSTYLE
  5
30
102
{ACAD_REACTORS
330
29
102
}
330
29
100
AcDbVisualStyle
  2
Wireframe
 70
     5
177
     3
291
     0
 70
    58
 90
        0
176
     1
 90
        2
176
     1
 90
        0
176
     1
 90
        0
176
     1
 40
0.6
176
     1
 40
30.0
176
     1
 62
     7
420
 16777215
176
     1
 90
        1
176
     1
 90
        4
176
     1
 62
     7
176
     1
 62
   257
176
     1
 90
        1
176
     1
 90
        1
176
     1
 40
1.0
176
     1
 90
        0
176
     1
 62
   257
176
     1
 40
1.0
176
     1
 90
        1
176
     1
 90
        6
176
     1
 90
        2
176
     1
 62
     7
176
     1
 90
        3
176
     1
 90
        0
176
     1
 90
        0
176
     1
290
     0
176
     1
 90
        1
176
     1
 40
0.0
176
     1
 90
        0
176
     1
290
     0
176
     1
290
     1
176
     1
290
     1
176
     1
290
     0
176
     1
290
     0
176
     1
290
     0
176
     1
290
     0
176
     1
290
     0
176
     1
290
     0
176
     1
 90
       50
176
     1
 40
0.0
176
     1
 40
1.0
176
     1
 90
        0
176
     1
 62
    18
420
        0
176
     1
 90
       50
176
     1
 90
        3
176
     1
 62
     5
420
      255
176
     1
290
     0
176
     1
 90
       50
176
     1
 90
       50
176
     1
 90
       50
176
     1
290
     0
176
     1
 90
       50
176
     1
 62
   256
176
     0
 40
1.0
176
     0
 90
        2
176
     1
  1
strokes_ogs.tif
176
     1
290
     0
176
     1
 40
1.0
176
     1
 40
1.0
176
     1
  0
VISUALSTYLE
  5
3C
102
{ACAD_REACTORS
330
29
102
}
330
29
100
AcDbVisualStyle
  2
X-Ray
 70
    25
177
     3
291
     0
 70
    58
 90
        2
176
     1
 90
        2
176
     1
 90
        1
176
     1
 90
        1
176
     1
 40
0.5
176
     1
 40
30.0
176
     1
 62
     7
420
 16777215
176
     1
 90
        1
176
     1
 90
        0
176
     1
 62
     7
176
     1
 62
   257
176
     1
 90
        1
176
     1
 90
        1
176
     1
 40
1.0
176
     1
 90
        8
176
     1
 62
     7
176
     1
 40
1.0
176
     1
 90
        1
176
     1
 90
        6
176
     1
 90
        2
176
     1
 62
     7
176
     1
 90
        3
176
     1
 90
        0
176
     1
 90
        0
176
     1
290
     0
176
     1
 90
       13
176
     1
 40
0.0
176
     1
 90
        0
176
     1
290
     0
176
     1
290
     1
176
     1
290
     1
176
     1
290
     0
176
     1
290
     0
176
     1
290
     0
176
     1
290
     0
176
     1
290
     0
176
     1
290
     0
176
     1
 90
       50
176
     1
 40
0.0
176
     1
 40
1.0
176
     1
 90
        0
176
     1
 62
    18
420
        0
176
     1
 90
       50
176
     1
 90
        3
176
     1
 62
     5
420
      255
176
     1
290
     0
176
     1
 90
       50
176
     1
 90
       50
176
     1
 90
       50
176
     1
290
     0
176
     1
 90
       50
176
     1
 62
   256
176
     0
 40
1.0
176
     0
 90
        2
176
     1
  1
strokes_ogs.tif
176
     1
290
     0
176
     1
 40
1.0
176
     1
 40
1.0
176
     1
  0
DICTIONARYVAR
  5
BB
102
{ACAD_REACTORS
330
B6
102
}
330
B6
100
DictionaryVariables
280
     0
  1
1:1
  0
DICTIONARYVAR
  5
B8
102
{ACAD_REACTORS
330
B6
102
}
330
B6
100
DictionaryVariables
280
     0
  1
STANDARD
  0
DICTIONARYVAR
  5
B7
102
{ACAD_REACTORS
330
B6
102
}
330
B6
100
DictionaryVariables
280
     0
  1
STANDARD
  0
DICTIONARYVAR
  5
B9
102
{ACAD_REACTORS
330
B6
102
}
330
B6
100
DictionaryVariables
280
     0
  1
Imperial24
  0
DICTIONARYVAR
  5
BA
102
{ACAD_REACTORS
330
B6
102
}
330
B6
100
DictionaryVariables
280
     0
  1
Imperial24
  0
DICTIONARY
  5
1A
330
19
100
AcDbDictionary
280
     1
281
     1
  3
BUMPTILE
360
1C
  3
DIFFUSETILE
360
1B
  3
OPACITYTILE
360
1F
  3
REFLECTIONTILE
360
1E
  3
REFRACTIONTILE
360
20
  3
SPECULARTILE
360
1D
  0
DICTIONARY
  5
12
330
11
100
AcDbDictionary
280
     1
281
     1
  3
BUMPTILE
360
14
  3
DIFFUSETILE
360
13
  3
OPACITYTILE
360
17
  3
REFLECTIONTILE
360
16
  3
REFRACTIONTILE
360
18
  3
SPECULARTILE
360
15
  0
DICTIONARY
  5
22
330
21
100
AcDbDictionary
280
     1
281
     1
  3
BUMPTILE
360
24
  3
DIFFUSETILE
360
23
  3
OPACITYTILE
360
27
  3
REFLECTIONTILE
360
26
  3
REFRACTIONTILE
360
28
  3
SPECULARTILE
360
25
  0
DICTIONARY
  5
BC
330
65
100
AcDbDictionary
280
     1
281
     1
  3
ACAD_ROUNDTRIP_2008_TABLESTYLE_CELLSTYLEMAP
360
BD
  0
XRECORD
  5
1C
102
{ACAD_REACTORS
330
1A
102
}
330
1A
100
AcDbXrecord
280
     1
270
     1
271
     1
  0
XRECORD
  5
1B
102
{ACAD_REACTORS
330
1A
102
}
330
1A
100
AcDbXrecord
280
     1
270
     1
271
     1
  0
XRECORD
  5
1F
102
{ACAD_REACTORS
330
1A
102
}
330
1A
100
AcDbXrecord
280
     1
270
     1
271
     1
  0
XRECORD
  5
1E
102
{ACAD_REACTORS
330
1A
102
}
330
1A
100
AcDbXrecord
280
     1
270
     1
271
     1
  0
XRECORD
  5
20
102
{ACAD_REACTORS
330
1A
102
}
330
1A
100
AcDbXrecord
280
     1
270
     1
271
     1
  0
XRECORD
  5
1D
102
{ACAD_REACTORS
330
1A
102
}
330
1A
100
AcDbXrecord
280
     1
270
     1
271
     1
  0
XRECORD
  5
14
102
{ACAD_REACTORS
330
12
102
}
330
12
100
AcDbXrecord
280
     1
270
     1
271
     1
  0
XRECORD
  5
13
102
{ACAD_REACTORS
330
12
102
}
330
12
100
AcDbXrecord
280
     1
270
     1
271
     1
  0
XRECORD
  5
17
102
{ACAD_REACTORS
330
12
102
}
330
12
100
AcDbXrecord
280
     1
270
     1
271
     1
  0
XRECORD
  5
16
102
{ACAD_REACTORS
330
12
102
}
330
12
100
AcDbXrecord
280
     1
270
     1
271
     1
  0
XRECORD
  5
18
102
{ACAD_REACTORS
330
12
102
}
330
12
100
AcDbXrecord
280
     1
270
     1
271
     1
  0
XRECORD
  5
15
102
{ACAD_REACTORS
330
12
102
}
330
12
100
AcDbXrecord
280
     1
270
     1
271
     1
  0
XRECORD
  5
24
102
{ACAD_REACTORS
330
22
102
}
330
22
100
AcDbXrecord
280
     1
270
     1
271
     1
  0
XRECORD
  5
23
102
{ACAD_REACTORS
330
22
102
}
330
22
100
AcDbXrecord
280
     1
270
     1
271
     1
  0
XRECORD
  5
27
102
{ACAD_REACTORS
330
22
102
}
330
22
100
AcDbXrecord
280
     1
270
     1
271
     1
  0
XRECORD
  5
26
102
{ACAD_REACTORS
330
22
102
}
330
22
100
AcDbXrecord
280
     1
270
     1
271
     1
  0
XRECORD
  5
28
102
{ACAD_REACTORS
330
22
102
}
330
22
100
AcDbXrecord
280
     1
270
     1
271
     1
  0
XRECORD
  5
25
102
{ACAD_REACTORS
330
22
102
}
330
22
100
AcDbXrecord
280
     1
270
     1
271
     1
  0
CELLSTYLEMAP
  5
BD
102
{ACAD_REACTORS
330
BC
102
}
330
BC
100
AcDbCellStyleMap
 90
        3
300
CELLSTYLE
  1
TABLEFORMAT_BEGIN
 90
        5
170
     1
 91
        0
 92
    32768
 62
   257
 93
        1
300
CONTENTFORMAT
  1
CONTENTFORMAT_BEGIN
 90
        0
 91
        0
 92
      512
 93
        0
300

 40
0.0
140
1.0
 94
        5
 62
     0
340
55
144
0.25
309
CONTENTFORMAT_END
171
     0
 94
        0
309
TABLEFORMAT_END
  1
CELLSTYLE_BEGIN
 90
        1
 91
        1
300
_TITLE
309
CELLSTYLE_END
300
CELLSTYLE
  1
TABLEFORMAT_BEGIN
 90
        5
170
     1
 91
        0
 92
        0
 62
   257
 93
        1
300
CONTENTFORMAT
  1
CONTENTFORMAT_BEGIN
 90
        0
 91
        0
 92
      512
 93
        0
300

 40
0.0
140
1.0
 94
        5
 62
     0
340
55
144
0.18
309
CONTENTFORMAT_END
171
     0
 94
        0
309
TABLEFORMAT_END
  1
CELLSTYLE_BEGIN
 90
        2
 91
        1
300
_HEADER
309
CELLSTYLE_END
300
CELLSTYLE
  1
TABLEFORMAT_BEGIN
 90
        5
170
     1
 91
        0
 92
        0
 62
   257
 93
        1
300
CONTENTFORMAT
  1
CONTENTFORMAT_BEGIN
 90
        0
 91
        0
 92
      512
 93
        0
300

 40
0.0
140
1.0
 94
        2
 62
     0
340
55
144
0.18
309
CONTENTFORMAT_END
171
     0
 94
        0
309
TABLEFORMAT_END
  1
CELLSTYLE_BEGIN
 90
        3
 91
        2
300
_DATA
309
CELLSTYLE_END
  0
ENDSEC
  0
EOF
